<?xml version="1.0" encoding="utf-8"?>
<!-- Generator: Adobe Illustrator 16.0.0, SVG Export Plug-In . SVG Version: 6.00 Build 0)  -->
<!DOCTYPE svg PUBLIC "-//W3C//DTD SVG 1.1//EN" "http://www.w3.org/Graphics/SVG/1.1/DTD/svg11.dtd">
<svg version="1.1" id="Layer_1" xmlns="http://www.w3.org/2000/svg" xmlns:xlink="http://www.w3.org/1999/xlink" x="0px" y="0px"
	 width="48px" height="48px" viewBox="0 0 48 48" enable-background="new 0 0 48 48" xml:space="preserve">
<g>
	<g>
		<g>
			<path d="M23.999,24.073c-1.421,0-2.577-1.132-2.577-2.524v-5.221c0-1.393,1.156-2.524,2.577-2.524
				c1.423,0,2.581,1.131,2.581,2.524v5.221C26.58,22.941,25.422,24.073,23.999,24.073z M23.999,14.212
				c-1.196,0-2.169,0.949-2.169,2.116v5.221c0,1.167,0.973,2.117,2.169,2.117c1.198,0,2.173-0.95,2.173-2.117v-5.221
				C26.172,15.161,25.197,14.212,23.999,14.212z"/>
		</g>
		<g>
			<path d="M23.999,25.441c-2.222,0-4.031-1.422-4.031-3.169c0-0.113,0.092-0.204,0.204-0.204c0.113,0,0.204,0.091,0.204,0.204
				c0,1.522,1.625,2.762,3.623,2.762c1.999,0,3.625-1.24,3.625-2.762c0-0.113,0.091-0.204,0.204-0.204s0.204,0.091,0.204,0.204
				C28.032,24.019,26.223,25.441,23.999,25.441z"/>
		</g>
		<g>
			<path d="M23.999,28.007c-0.113,0-0.203-0.092-0.203-0.205v-2.566c0-0.113,0.09-0.203,0.203-0.203s0.205,0.09,0.205,0.203v2.566
				C24.204,27.916,24.112,28.007,23.999,28.007z"/>
		</g>
		<g>
			<path d="M26.521,28.059h-5.04c-0.113,0-0.205-0.091-0.205-0.204s0.092-0.204,0.205-0.204h5.04c0.113,0,0.204,0.091,0.204,0.204
				S26.633,28.059,26.521,28.059z"/>
		</g>
	</g>
	<g>
		<g>
			<path d="M38.099,33.018H9.902c-0.788,0-1.428-0.641-1.428-1.428V12.475c0-0.787,0.641-1.427,1.428-1.427h28.196
				c0.787,0,1.427,0.641,1.427,1.427V31.59C39.526,32.377,38.885,33.018,38.099,33.018z M9.902,11.455
				c-0.562,0-1.02,0.458-1.02,1.02V31.59c0,0.562,0.458,1.02,1.02,1.02h28.196c0.562,0,1.02-0.458,1.02-1.02V12.475
				c0-0.562-0.458-1.02-1.02-1.02H9.902z"/>
		</g>
		<g>
			<path d="M39.323,30.627H8.678c-0.113,0-0.204-0.091-0.204-0.204s0.091-0.204,0.204-0.204h30.645c0.113,0,0.203,0.091,0.203,0.204
				S39.436,30.627,39.323,30.627z"/>
		</g>
		<g>
			<g>
				<path d="M17.902,37.036c-0.044,0-0.088-0.014-0.126-0.042c-0.089-0.068-0.104-0.197-0.035-0.287l3.12-4.025
					c0.069-0.088,0.197-0.105,0.286-0.036c0.09,0.068,0.105,0.197,0.036,0.286l-3.12,4.026
					C18.023,37.009,17.962,37.036,17.902,37.036z"/>
			</g>
			<g>
				<path d="M30.099,37.036c-0.062,0-0.121-0.027-0.162-0.079l-3.121-4.026c-0.069-0.089-0.052-0.217,0.036-0.286
					c0.089-0.069,0.217-0.054,0.287,0.036l3.121,4.025c0.069,0.09,0.053,0.218-0.037,0.287
					C30.187,37.022,30.143,37.036,30.099,37.036z"/>
			</g>
		</g>
		<g>
			<path d="M32.509,37.319H15.493c-0.113,0-0.204-0.091-0.204-0.203c0-0.114,0.091-0.204,0.204-0.204h17.017
				c0.113,0,0.203,0.09,0.203,0.204C32.712,37.228,32.622,37.319,32.509,37.319z"/>
		</g>
	</g>
</g>
</svg>
