<?xml version="1.0" encoding="utf-8"?>
<!-- Generator: Adobe Illustrator 16.0.0, SVG Export Plug-In . SVG Version: 6.00 Build 0)  -->
<!DOCTYPE svg PUBLIC "-//W3C//DTD SVG 1.1//EN" "http://www.w3.org/Graphics/SVG/1.1/DTD/svg11.dtd">
<svg version="1.1" id="Layer_1" xmlns="http://www.w3.org/2000/svg" xmlns:xlink="http://www.w3.org/1999/xlink" x="0px" y="0px"
	 width="48px" height="48px" viewBox="0 0 48 48" enable-background="new 0 0 48 48" xml:space="preserve">
<g>
	<circle cx="24" cy="38.285" r="1.06"/>
</g>
<g>
	<g>
		<path d="M24,24.679c-1.491,0-2.704-1.187-2.704-2.646v-5.491c0-1.459,1.213-2.646,2.704-2.646c1.49,0,2.703,1.187,2.703,2.646
			v5.491C26.704,23.492,25.491,24.679,24,24.679z M24,14.304c-1.266,0-2.295,1.004-2.295,2.238v5.491
			c0,1.234,1.03,2.237,2.295,2.237s2.294-1.003,2.294-2.237v-5.491C26.295,15.308,25.266,14.304,24,14.304z"/>
	</g>
	<g>
		<path d="M24,26.117c-2.333,0-4.231-1.491-4.231-3.322c0-0.113,0.091-0.205,0.204-0.205s0.205,0.092,0.205,0.205
			c0,1.606,1.715,2.914,3.823,2.914c2.107,0,3.822-1.308,3.822-2.914c0-0.113,0.092-0.205,0.205-0.205s0.204,0.092,0.204,0.205
			C28.231,24.626,26.333,26.117,24,26.117z"/>
	</g>
	<g>
		<path d="M24,28.816c-0.113,0-0.204-0.09-0.204-0.203v-2.701c0-0.113,0.091-0.203,0.204-0.203s0.204,0.09,0.204,0.203v2.701
			C24.204,28.726,24.113,28.816,24,28.816z"/>
	</g>
	<g>
		<path d="M26.65,28.874h-5.301c-0.113,0-0.205-0.093-0.205-0.205c0-0.114,0.092-0.204,0.205-0.204h5.301
			c0.113,0,0.205,0.09,0.205,0.204C26.854,28.781,26.763,28.874,26.65,28.874z"/>
	</g>
	<g>
		<path d="M30.99,41.43H17.01c-0.787,0-1.427-0.641-1.427-1.427V8.366c0-0.788,0.641-1.428,1.427-1.428H30.99
			c0.787,0,1.427,0.641,1.427,1.428v31.636C32.417,40.789,31.776,41.43,30.99,41.43z M17.01,7.347c-0.562,0-1.02,0.458-1.02,1.02
			v31.636c0,0.562,0.458,1.02,1.02,1.02H30.99c0.562,0,1.02-0.458,1.02-1.02V8.366c0-0.562-0.458-1.02-1.02-1.02H17.01z"/>
	</g>
	<g>
		<path d="M31.978,35.202H16.023c-0.113,0-0.203-0.092-0.203-0.205s0.09-0.204,0.203-0.204h15.955c0.113,0,0.203,0.091,0.203,0.204
			S32.091,35.202,31.978,35.202z"/>
	</g>
</g>
</svg>
