<?xml version="1.0" encoding="utf-8"?>
<!-- Generator: Adobe Illustrator 16.0.0, SVG Export Plug-In . SVG Version: 6.00 Build 0)  -->
<!DOCTYPE svg PUBLIC "-//W3C//DTD SVG 1.1//EN" "http://www.w3.org/Graphics/SVG/1.1/DTD/svg11.dtd">
<svg version="1.1" id="Layer_1" xmlns="http://www.w3.org/2000/svg" xmlns:xlink="http://www.w3.org/1999/xlink" x="0px" y="0px"
	 width="48px" height="48px" viewBox="0 0 48 48" enable-background="new 0 0 48 48" xml:space="preserve">
<g>
	<g>
		<g>
			<path d="M23.996,23.519c-1.378,0-2.499-1.098-2.499-2.448v-5.042c0-1.349,1.121-2.446,2.499-2.446s2.499,1.098,2.499,2.446v5.042
				C26.495,22.42,25.374,23.519,23.996,23.519z M23.996,13.992c-1.152,0-2.091,0.915-2.091,2.038v5.042
				c0,1.125,0.938,2.04,2.091,2.04c1.153,0,2.092-0.915,2.092-2.04v-5.042C26.088,14.906,25.149,13.992,23.996,13.992z"/>
		</g>
		<g>
			<path d="M23.996,24.839c-2.152,0-3.903-1.375-3.903-3.066c0-0.114,0.092-0.205,0.205-0.205c0.112,0,0.204,0.091,0.204,0.205
				c0,1.466,1.566,2.659,3.494,2.659c1.927,0,3.494-1.192,3.494-2.659c0-0.114,0.092-0.205,0.204-0.205
				c0.113,0,0.203,0.091,0.203,0.205C27.897,23.463,26.147,24.839,23.996,24.839z"/>
		</g>
		<g>
			<path d="M23.995,27.318c-0.112,0-0.203-0.091-0.203-0.204v-2.48c0-0.113,0.091-0.204,0.203-0.204
				c0.113,0,0.205,0.091,0.205,0.204v2.48C24.2,27.228,24.108,27.318,23.995,27.318z"/>
		</g>
		<g>
			<path d="M26.431,27.37h-4.869c-0.113,0-0.204-0.091-0.204-0.204s0.091-0.204,0.204-0.204h4.869c0.112,0,0.203,0.091,0.203,0.204
				S26.543,27.37,26.431,27.37z"/>
		</g>
	</g>
	<g>
		<g>
			<path d="M38.093,32.734H9.898c-0.787,0-1.428-0.641-1.428-1.428V12.192c0-0.787,0.641-1.428,1.428-1.428h28.194
				c0.788,0,1.429,0.641,1.429,1.428v19.114C39.521,32.093,38.881,32.734,38.093,32.734z M9.898,11.172
				c-0.562,0-1.021,0.458-1.021,1.02v19.114c0,0.563,0.458,1.02,1.021,1.02h28.194c0.563,0,1.021-0.457,1.021-1.02V12.192
				c0-0.562-0.457-1.02-1.021-1.02H9.898z"/>
		</g>
		<g>
			<path d="M42.073,37.604c-0.003,0-0.006-0.001-0.009,0H5.927c-0.079,0-0.151-0.046-0.186-0.119
				c-0.033-0.072-0.021-0.156,0.029-0.217l2.683-3.176c0.037-0.045,0.095-0.072,0.155-0.072h30.775c0.06,0,0.117,0.027,0.156,0.072
				l2.652,3.142c0.051,0.037,0.085,0.097,0.085,0.166C42.277,37.513,42.186,37.604,42.073,37.604z M6.366,37.197h35.26l-2.337-2.769
				H8.703L6.366,37.197z"/>
		</g>
		<g>
			<path d="M39.317,30.345H8.675c-0.113,0-0.204-0.092-0.204-0.205s0.091-0.204,0.204-0.204h30.643c0.112,0,0.204,0.091,0.204,0.204
				S39.43,30.345,39.317,30.345z"/>
		</g>
	</g>
</g>
</svg>
