<?xml version="1.0" encoding="utf-8"?>
<!-- Generator: Adobe Illustrator 16.0.0, SVG Export Plug-In . SVG Version: 6.00 Build 0)  -->
<!DOCTYPE svg PUBLIC "-//W3C//DTD SVG 1.1//EN" "http://www.w3.org/Graphics/SVG/1.1/DTD/svg11.dtd">
<svg version="1.1" id="Layer_1" xmlns="http://www.w3.org/2000/svg" xmlns:xlink="http://www.w3.org/1999/xlink" x="0px" y="0px"
	 width="48px" height="48px" viewBox="0 0 48 48" enable-background="new 0 0 48 48" xml:space="preserve">
<g>
	<circle cx="24" cy="38.644" r="0.925"/>
</g>
<g>
	<g>
		<path d="M24,24.788c-1.906,0-3.456-1.518-3.456-3.383v-7.145c0-1.864,1.55-3.38,3.456-3.38c1.905,0,3.455,1.516,3.455,3.38v7.145
			C27.455,23.27,25.905,24.788,24,24.788z M24,11.289c-1.681,0-3.048,1.333-3.048,2.972v7.145c0,1.64,1.368,2.974,3.048,2.974
			c1.68,0,3.047-1.334,3.047-2.974v-7.145C27.047,12.622,25.68,11.289,24,11.289z"/>
	</g>
	<g>
		<path d="M24,26.658c-3.002,0-5.445-1.912-5.445-4.261c0-0.113,0.091-0.205,0.204-0.205s0.204,0.092,0.204,0.205
			c0,2.125,2.259,3.853,5.037,3.853c2.776,0,5.035-1.729,5.035-3.853c0-0.113,0.092-0.205,0.205-0.205s0.204,0.092,0.204,0.205
			C29.443,24.747,27.001,26.658,24,26.658z"/>
	</g>
	<g>
		<path d="M24,30.169c-0.113,0-0.205-0.09-0.205-0.203v-3.511c0-0.114,0.092-0.205,0.205-0.205s0.204,0.091,0.204,0.205v3.511
			C24.204,30.079,24.113,30.169,24,30.169z"/>
	</g>
	<g>
		<path d="M27.45,30.244h-6.899c-0.113,0-0.204-0.092-0.204-0.205s0.091-0.203,0.204-0.203h6.899c0.113,0,0.204,0.09,0.204,0.203
			S27.563,30.244,27.45,30.244z"/>
	</g>
	<g>
		<path d="M35.421,41.741H12.578c-0.787,0-1.428-0.641-1.428-1.428V7.319c0-0.788,0.641-1.428,1.428-1.428h22.843
			c0.788,0,1.428,0.641,1.428,1.428v32.994C36.85,41.1,36.209,41.741,35.421,41.741z M12.578,6.298c-0.562,0-1.02,0.458-1.02,1.021
			v32.994c0,0.562,0.458,1.02,1.02,1.02h22.843c0.562,0,1.02-0.458,1.02-1.02V7.319c0-0.563-0.458-1.021-1.02-1.021H12.578z"/>
	</g>
	<g>
		<path d="M36.453,35.594H11.546c-0.113,0-0.204-0.091-0.204-0.204s0.091-0.204,0.204-0.204h24.907c0.113,0,0.203,0.091,0.203,0.204
			S36.566,35.594,36.453,35.594z"/>
	</g>
</g>
</svg>
