<?xml version="1.0" encoding="utf-8"?>
<!-- Generator: Adobe Illustrator 16.0.0, SVG Export Plug-In . SVG Version: 6.00 Build 0)  -->
<!DOCTYPE svg PUBLIC "-//W3C//DTD SVG 1.1//EN" "http://www.w3.org/Graphics/SVG/1.1/DTD/svg11.dtd">
<svg version="1.1" id="Layer_1" xmlns="http://www.w3.org/2000/svg" xmlns:xlink="http://www.w3.org/1999/xlink" x="0px" y="0px"
	 width="48px" height="48px" viewBox="0 0 48 48" enable-background="new 0 0 48 48" xml:space="preserve">
<g>
	<g>
		<g>
			<path d="M23.185,26.39c-1.108,0-2.011-0.882-2.011-1.966v-3.96c0-1.084,0.902-1.967,2.011-1.967c1.107,0,2.006,0.883,2.006,1.967
				v3.96C25.191,25.508,24.292,26.39,23.185,26.39z M23.185,18.904c-0.884,0-1.603,0.7-1.603,1.56v3.96
				c0,0.859,0.719,1.558,1.603,1.558c0.882,0,1.599-0.699,1.599-1.558v-3.96C24.783,19.604,24.067,18.904,23.185,18.904z"/>
		</g>
		<g>
			<path d="M23.185,27.885c-1.716,0-3.113-1.102-3.113-2.457c0-0.112,0.091-0.204,0.204-0.204s0.204,0.092,0.204,0.204
				c0,1.13,1.214,2.048,2.705,2.048c1.49,0,2.702-0.918,2.702-2.048c0-0.112,0.09-0.204,0.203-0.204s0.205,0.092,0.205,0.204
				C26.294,26.783,24.899,27.885,23.185,27.885z"/>
		</g>
		<g>
			<path d="M23.184,29.832c-0.113,0-0.204-0.091-0.204-0.204v-1.947c0-0.113,0.091-0.204,0.204-0.204s0.204,0.091,0.204,0.204v1.947
				C23.387,29.741,23.296,29.832,23.184,29.832z"/>
		</g>
		<g>
			<path d="M25.096,29.873H21.27c-0.113,0-0.204-0.091-0.204-0.204s0.091-0.204,0.204-0.204h3.826c0.113,0,0.204,0.091,0.204,0.204
				S25.208,29.873,25.096,29.873z"/>
		</g>
	</g>
	<g>
		<g>
			<path d="M28.515,32.935H17.852c-1.237,0-2.244-1.007-2.244-2.244V17.679c0-1.238,1.007-2.244,2.244-2.244h10.663
				c1.237,0,2.244,1.006,2.244,2.244v13.012C30.758,31.928,29.751,32.935,28.515,32.935z M17.852,15.843
				c-1.012,0-1.836,0.823-1.836,1.836v13.012c0,1.012,0.824,1.836,1.836,1.836h10.663c1.012,0,1.836-0.824,1.836-1.836V17.679
				c0-1.013-0.824-1.836-1.836-1.836H17.852z"/>
		</g>
		<g>
			<path d="M32.188,22.396c-0.113,0-0.205-0.092-0.205-0.205v-2.84c0-0.114,0.092-0.205,0.205-0.205s0.203,0.091,0.203,0.205v2.84
				C32.392,22.305,32.301,22.396,32.188,22.396z"/>
		</g>
		<g>
			<path d="M27.83,14.17c-0.113,0-0.205-0.091-0.205-0.203v-3.251c0-0.337-0.274-0.611-0.612-0.611h-7.66
				c-0.337,0-0.612,0.273-0.612,0.611v3.251c0,0.112-0.092,0.203-0.205,0.203s-0.203-0.091-0.203-0.203v-3.251
				c0-0.562,0.458-1.02,1.02-1.02h7.66c0.563,0,1.02,0.458,1.02,1.02v3.251C28.033,14.079,27.942,14.17,27.83,14.17z"/>
		</g>
		<g>
			<path d="M27.013,38.673h-7.66c-0.562,0-1.02-0.458-1.02-1.02v-3.251c0-0.113,0.09-0.204,0.203-0.204s0.205,0.091,0.205,0.204
				v3.251c0,0.337,0.274,0.612,0.612,0.612h7.66c0.337,0,0.612-0.274,0.612-0.612v-3.251c0-0.113,0.092-0.204,0.205-0.204
				s0.203,0.091,0.203,0.204v3.251C28.033,38.215,27.576,38.673,27.013,38.673z"/>
		</g>
	</g>
</g>
</svg>
