<?xml version="1.0" encoding="utf-8"?>
<!-- Generator: Adobe Illustrator 16.0.0, SVG Export Plug-In . SVG Version: 6.00 Build 0)  -->
<!DOCTYPE svg PUBLIC "-//W3C//DTD SVG 1.1//EN" "http://www.w3.org/Graphics/SVG/1.1/DTD/svg11.dtd">
<svg version="1.1" id="Layer_1" xmlns="http://www.w3.org/2000/svg" xmlns:xlink="http://www.w3.org/1999/xlink" x="0px" y="0px"
	 width="32px" height="32px" viewBox="0 0 32 32" enable-background="new 0 0 32 32" xml:space="preserve">
<g>
	<g>
		<g>
			<path d="M19.959,18.211h-7.924c-0.082,0-0.147-0.065-0.147-0.146v-0.953c0-0.08,0.065-0.146,0.147-0.146h7.924
				c0.081,0,0.146,0.065,0.146,0.146v0.953C20.105,18.146,20.04,18.211,19.959,18.211z M12.181,17.919h7.632v-0.66h-7.632V17.919z"
				/>
		</g>
		<g>
			<path d="M13.297,16.013h-0.954c-0.081,0-0.146-0.065-0.146-0.146v-2.872c0-0.081,0.065-0.146,0.146-0.146h0.954
				c0.082,0,0.146,0.065,0.146,0.146v2.872C13.443,15.947,13.378,16.013,13.297,16.013z M12.49,15.72h0.661v-2.579H12.49V15.72z"/>
		</g>
		<g>
			<path d="M19.65,16.013h-0.954c-0.081,0-0.146-0.065-0.146-0.146v-2.872c0-0.081,0.065-0.146,0.146-0.146h0.954
				c0.082,0,0.146,0.065,0.146,0.146v2.872C19.797,15.947,19.732,16.013,19.65,16.013z M18.843,15.72h0.662v-2.579h-0.662V15.72z"/>
		</g>
		<g>
			<path d="M15.415,16.013h-0.954c-0.08,0-0.146-0.065-0.146-0.146v-2.872c0-0.081,0.065-0.146,0.146-0.146h0.954
				c0.081,0,0.146,0.065,0.146,0.146v2.872C15.561,15.947,15.496,16.013,15.415,16.013z M14.608,15.72h0.66v-2.579h-0.66V15.72z"/>
		</g>
		<g>
			<path d="M17.534,16.013h-0.955c-0.081,0-0.146-0.065-0.146-0.146v-2.872c0-0.081,0.065-0.146,0.146-0.146h0.955
				c0.081,0,0.146,0.065,0.146,0.146v2.872C17.679,15.947,17.614,16.013,17.534,16.013z M16.726,15.72h0.661v-2.579h-0.661V15.72z"
				/>
		</g>
		<g>
			<path d="M19.963,11.898h-7.931c-0.081,0-0.147-0.065-0.147-0.146v-0.854c0-0.055,0.03-0.104,0.077-0.13l3.966-2.126
				c0.043-0.023,0.095-0.023,0.138,0l3.967,2.126c0.047,0.026,0.077,0.075,0.077,0.13v0.854
				C20.109,11.833,20.044,11.898,19.963,11.898z M12.177,11.606h7.64v-0.62l-3.82-2.049l-3.82,2.049V11.606z"/>
		</g>
	</g>
	<g>
		<g>
			<path d="M26.102,22.128H5.892c-0.564,0-1.024-0.459-1.024-1.023V7.403c0-0.564,0.46-1.023,1.024-1.023h20.21
				c0.564,0,1.023,0.459,1.023,1.023v13.701C27.125,21.669,26.667,22.128,26.102,22.128z M5.892,6.672
				C5.489,6.672,5.161,7,5.161,7.403v13.701c0,0.403,0.329,0.73,0.731,0.73h20.21c0.403,0,0.731-0.327,0.731-0.73V7.403
				c0-0.403-0.328-0.731-0.731-0.731H5.892z"/>
		</g>
		<g>
			<path d="M28.955,25.62c-0.001-0.001-0.004-0.001-0.006,0H3.045c-0.057,0-0.108-0.034-0.132-0.086s-0.016-0.111,0.021-0.155
				l1.922-2.276c0.028-0.032,0.068-0.051,0.112-0.051h22.06c0.043,0,0.084,0.019,0.112,0.051l1.901,2.252
				c0.037,0.026,0.061,0.07,0.061,0.118C29.101,25.554,29.036,25.62,28.955,25.62z M3.36,25.326h25.274l-1.675-1.982H5.035
				L3.36,25.326z"/>
		</g>
		<g>
			<path d="M26.979,20.416H5.015c-0.081,0-0.146-0.065-0.146-0.146s0.065-0.146,0.146-0.146h21.964c0.082,0,0.146,0.065,0.146,0.146
				S27.061,20.416,26.979,20.416z"/>
		</g>
	</g>
</g>
</svg>
