<?xml version="1.0" encoding="utf-8"?>
<!-- Generator: Adobe Illustrator 16.0.0, SVG Export Plug-In . SVG Version: 6.00 Build 0)  -->
<!DOCTYPE svg PUBLIC "-//W3C//DTD SVG 1.1//EN" "http://www.w3.org/Graphics/SVG/1.1/DTD/svg11.dtd">
<svg version="1.1" id="Layer_1" xmlns="http://www.w3.org/2000/svg" xmlns:xlink="http://www.w3.org/1999/xlink" x="0px" y="0px"
	 width="32px" height="32px" viewBox="0 0 32 32" enable-background="new 0 0 32 32" xml:space="preserve">
<g>
	<g>
		<g>
			<path d="M18.177,19.566h-5.523c-0.081,0-0.146-0.064-0.146-0.146v-0.968c0-0.081,0.065-0.146,0.146-0.146h5.523
				c0.08,0,0.146,0.065,0.146,0.146v0.968C18.323,19.502,18.257,19.566,18.177,19.566z M12.8,19.274h5.23V18.6H12.8V19.274z"/>
		</g>
		<g>
			<path d="M18.178,14.803H12.65c-0.081,0-0.146-0.064-0.146-0.146v-0.595c0-0.054,0.028-0.104,0.077-0.129l2.764-1.482
				c0.043-0.023,0.096-0.023,0.139,0l2.763,1.482c0.048,0.025,0.077,0.075,0.077,0.129v0.595
				C18.324,14.738,18.259,14.803,18.178,14.803z M12.797,14.511h5.234v-0.36l-2.617-1.404l-2.617,1.404V14.511z"/>
		</g>
		<g>
			<g>
				<path d="M13.385,17.626c-0.081,0-0.146-0.065-0.146-0.146v-1.798c0-0.081,0.065-0.146,0.146-0.146s0.146,0.065,0.146,0.146
					v1.798C13.531,17.561,13.466,17.626,13.385,17.626z"/>
			</g>
			<g>
				<path d="M14.697,17.626c-0.081,0-0.146-0.065-0.146-0.146v-1.798c0-0.081,0.065-0.146,0.146-0.146s0.146,0.065,0.146,0.146
					v1.798C14.844,17.561,14.778,17.626,14.697,17.626z"/>
			</g>
			<g>
				<path d="M16.011,17.626c-0.081,0-0.146-0.065-0.146-0.146v-1.798c0-0.081,0.065-0.146,0.146-0.146s0.146,0.065,0.146,0.146
					v1.798C16.157,17.561,16.092,17.626,16.011,17.626z"/>
			</g>
			<g>
				<path d="M17.324,17.626c-0.08,0-0.146-0.065-0.146-0.146v-1.798c0-0.081,0.066-0.146,0.146-0.146
					c0.081,0,0.146,0.065,0.146,0.146v1.798C17.471,17.561,17.405,17.626,17.324,17.626z"/>
			</g>
		</g>
	</g>
	<g>
		<g>
			<path d="M19.235,22.272h-7.643c-0.887,0-1.608-0.722-1.608-1.608v-9.327c0-0.887,0.722-1.608,1.608-1.608h7.643
				c0.888,0,1.609,0.722,1.609,1.608v9.327C20.845,21.551,20.123,22.272,19.235,22.272z M11.593,10.021
				c-0.725,0-1.315,0.591-1.315,1.316v9.327c0,0.726,0.591,1.316,1.315,1.316h7.643c0.727,0,1.316-0.591,1.316-1.316v-9.327
				c0-0.726-0.59-1.316-1.316-1.316H11.593z"/>
		</g>
		<g>
			<path d="M21.869,14.719c-0.08,0-0.146-0.065-0.146-0.146v-2.035c0-0.081,0.066-0.146,0.146-0.146
				c0.081,0,0.146,0.065,0.146,0.146v2.035C22.016,14.653,21.95,14.719,21.869,14.719z"/>
		</g>
		<g>
			<path d="M18.745,8.822c-0.081,0-0.146-0.066-0.146-0.147V6.346c0-0.241-0.197-0.438-0.438-0.438h-5.49
				c-0.242,0-0.439,0.197-0.439,0.438v2.329c0,0.081-0.064,0.147-0.146,0.147s-0.146-0.066-0.146-0.147V6.346
				c0-0.402,0.328-0.73,0.731-0.73h5.49c0.403,0,0.731,0.328,0.731,0.73v2.329C18.892,8.756,18.826,8.822,18.745,8.822z"/>
		</g>
		<g>
			<path d="M18.16,26.387h-5.49c-0.403,0-0.731-0.328-0.731-0.731v-2.331c0-0.08,0.065-0.146,0.146-0.146s0.146,0.065,0.146,0.146
				v2.331c0,0.242,0.197,0.438,0.439,0.438h5.49c0.241,0,0.438-0.196,0.438-0.438v-2.331c0-0.08,0.065-0.146,0.146-0.146
				s0.146,0.065,0.146,0.146v2.331C18.892,26.059,18.563,26.387,18.16,26.387z"/>
		</g>
	</g>
</g>
</svg>
