<?xml version="1.0" encoding="utf-8"?>
<!-- Generator: Adobe Illustrator 16.0.0, SVG Export Plug-In . SVG Version: 6.00 Build 0)  -->
<!DOCTYPE svg PUBLIC "-//W3C//DTD SVG 1.1//EN" "http://www.w3.org/Graphics/SVG/1.1/DTD/svg11.dtd">
<svg version="1.1" id="Layer_1" xmlns="http://www.w3.org/2000/svg" xmlns:xlink="http://www.w3.org/1999/xlink" x="0px" y="0px"
	 width="32px" height="32px" viewBox="0 0 32 32" enable-background="new 0 0 32 32" xml:space="preserve">
<g>
	<g>
		<path d="M19.493,18.351h-6.986c-0.081,0-0.146-0.065-0.146-0.146v-0.84c0-0.081,0.065-0.146,0.146-0.146h6.986
			c0.081,0,0.146,0.065,0.146,0.146v0.84C19.639,18.285,19.574,18.351,19.493,18.351z M12.653,18.059h6.693v-0.548h-6.693V18.059z"
			/>
	</g>
	<g>
		<path d="M13.543,16.373h-0.84c-0.081,0-0.146-0.064-0.146-0.146v-2.532c0-0.081,0.066-0.146,0.146-0.146h0.84
			c0.081,0,0.146,0.065,0.146,0.146v2.532C13.689,16.309,13.624,16.373,13.543,16.373z M12.849,16.081h0.548v-2.24h-0.548V16.081z"
			/>
	</g>
	<g>
		<path d="M19.297,16.373h-0.84c-0.081,0-0.146-0.064-0.146-0.146v-2.532c0-0.081,0.065-0.146,0.146-0.146h0.84
			c0.081,0,0.146,0.065,0.146,0.146v2.532C19.443,16.309,19.378,16.373,19.297,16.373z M18.604,16.081h0.547v-2.24h-0.547V16.081z"
			/>
	</g>
	<g>
		<path d="M15.462,16.373h-0.841c-0.081,0-0.147-0.064-0.147-0.146v-2.532c0-0.081,0.066-0.146,0.147-0.146h0.841
			c0.081,0,0.146,0.065,0.146,0.146v2.532C15.608,16.309,15.542,16.373,15.462,16.373z M14.768,16.081h0.548v-2.24h-0.548V16.081z"
			/>
	</g>
	<g>
		<path d="M17.379,16.373h-0.84c-0.081,0-0.146-0.064-0.146-0.146v-2.532c0-0.081,0.065-0.146,0.146-0.146h0.84
			c0.082,0,0.146,0.065,0.146,0.146v2.532C17.526,16.309,17.461,16.373,17.379,16.373z M16.685,16.081h0.549v-2.24h-0.549V16.081z"
			/>
	</g>
	<g>
		<path d="M19.497,12.708h-6.993c-0.082,0-0.147-0.065-0.147-0.146v-0.753c0-0.054,0.03-0.104,0.077-0.129l3.497-1.874
			c0.043-0.023,0.095-0.023,0.138,0l3.497,1.874c0.048,0.025,0.077,0.075,0.077,0.129v0.753
			C19.642,12.643,19.577,12.708,19.497,12.708z M12.649,12.415h6.701v-0.519L16,10.1l-3.351,1.797V12.415z"/>
	</g>
	<g>
		<circle cx="16" cy="26.192" r="0.76"/>
	</g>
	<g>
		<path d="M21.01,28.362H10.99c-0.564,0-1.023-0.459-1.023-1.023V4.661c0-0.563,0.459-1.023,1.023-1.023h10.02
			c0.565,0,1.024,0.46,1.024,1.023v22.678C22.034,27.903,21.575,28.362,21.01,28.362z M10.99,3.931c-0.403,0-0.73,0.328-0.73,0.73
			v22.678c0,0.402,0.328,0.731,0.73,0.731h10.02c0.404,0,0.731-0.329,0.731-0.731V4.661c0-0.402-0.328-0.73-0.731-0.73H10.99z"/>
	</g>
	<g>
		<path d="M21.718,23.899H10.282c-0.081,0-0.146-0.065-0.146-0.146c0-0.082,0.065-0.147,0.146-0.147h11.436
			c0.081,0,0.146,0.065,0.146,0.147C21.865,23.834,21.799,23.899,21.718,23.899z"/>
	</g>
</g>
</svg>
