<?xml version="1.0" encoding="utf-8"?>
<!-- Generator: Adobe Illustrator 16.0.0, SVG Export Plug-In . SVG Version: 6.00 Build 0)  -->
<!DOCTYPE svg PUBLIC "-//W3C//DTD SVG 1.1//EN" "http://www.w3.org/Graphics/SVG/1.1/DTD/svg11.dtd">
<svg version="1.1" id="Layer_1" xmlns="http://www.w3.org/2000/svg" xmlns:xlink="http://www.w3.org/1999/xlink" x="0px" y="0px"
	 width="32px" height="32px" viewBox="0 0 32 32" enable-background="new 0 0 32 32" xml:space="preserve">
<g>
	<g>
		<path d="M21.102,19.455H10.898c-0.081,0-0.146-0.065-0.146-0.146v-1.229c0-0.08,0.065-0.146,0.146-0.146h10.204
			c0.081,0,0.146,0.065,0.146,0.146v1.229C21.248,19.39,21.183,19.455,21.102,19.455z M11.045,19.163h9.911v-0.936h-9.911V19.163z"
			/>
	</g>
	<g>
		<g>
			<path d="M13.361,17.043h-1.228c-0.081,0-0.146-0.065-0.146-0.146v-3.7c0-0.08,0.065-0.146,0.146-0.146h1.228
				c0.081,0,0.146,0.065,0.146,0.146v3.7C13.507,16.978,13.441,17.043,13.361,17.043z M12.28,16.751h0.935v-3.407H12.28V16.751z"/>
		</g>
		<g>
			<path d="M19.866,17.043h-1.227c-0.081,0-0.146-0.065-0.146-0.146v-3.7c0-0.08,0.065-0.146,0.146-0.146h1.227
				c0.082,0,0.147,0.065,0.147,0.146v3.7C20.013,16.978,19.947,17.043,19.866,17.043z M18.785,16.751h0.936v-3.407h-0.936V16.751z"
				/>
		</g>
		<g>
			<path d="M15.531,17.043h-1.229c-0.081,0-0.146-0.065-0.146-0.146v-3.7c0-0.08,0.065-0.146,0.146-0.146h1.229
				c0.081,0,0.146,0.065,0.146,0.146v3.7C15.677,16.978,15.611,17.043,15.531,17.043z M14.448,16.751h0.937v-3.407h-0.937V16.751z"
				/>
		</g>
		<g>
			<path d="M17.698,17.043H16.47c-0.081,0-0.146-0.065-0.146-0.146v-3.7c0-0.08,0.066-0.146,0.146-0.146h1.228
				c0.082,0,0.146,0.065,0.146,0.146v3.7C17.845,16.978,17.78,17.043,17.698,17.043z M16.616,16.751h0.936v-3.407h-0.936V16.751z"/>
		</g>
	</g>
	<g>
		<path d="M21.108,12.163H10.893c-0.081,0-0.146-0.065-0.146-0.146v-1.1c0-0.055,0.029-0.104,0.077-0.129l5.107-2.739
			c0.043-0.023,0.095-0.023,0.138,0l5.107,2.739c0.048,0.025,0.077,0.074,0.077,0.129v1.1
			C21.253,12.098,21.188,12.163,21.108,12.163z M11.039,11.871h9.922v-0.866L16,8.344l-4.961,2.661V11.871z"/>
	</g>
	<g>
		<path d="M24.187,28.85H7.813c-0.564,0-1.023-0.459-1.023-1.023V4.174c0-0.564,0.459-1.023,1.023-1.023h16.374
			c0.565,0,1.024,0.459,1.024,1.023v23.652C25.21,28.391,24.751,28.85,24.187,28.85z M7.813,3.442c-0.403,0-0.731,0.328-0.731,0.731
			v23.652c0,0.403,0.329,0.731,0.731,0.731h16.374c0.404,0,0.731-0.328,0.731-0.731V4.174c0-0.403-0.328-0.731-0.731-0.731H7.813z"
			/>
	</g>
	<g>
		<circle cx="16" cy="26.714" r="0.663"/>
	</g>
	<g>
		<path d="M24.926,24.442H7.073c-0.081,0-0.146-0.065-0.146-0.146c0-0.08,0.065-0.146,0.146-0.146h17.853
			c0.081,0,0.146,0.065,0.146,0.146C25.073,24.377,25.007,24.442,24.926,24.442z"/>
	</g>
</g>
</svg>
