<?xml version="1.0" encoding="utf-8"?>
<!-- Generator: Adobe Illustrator 16.0.0, SVG Export Plug-In . SVG Version: 6.00 Build 0)  -->
<!DOCTYPE svg PUBLIC "-//W3C//DTD SVG 1.1//EN" "http://www.w3.org/Graphics/SVG/1.1/DTD/svg11.dtd">
<svg version="1.1" id="Layer_1" xmlns="http://www.w3.org/2000/svg" xmlns:xlink="http://www.w3.org/1999/xlink" x="0px" y="0px"
	 width="32px" height="32px" viewBox="0 0 32 32" enable-background="new 0 0 32 32" xml:space="preserve">
<g>
	<g>
		<g>
			<path d="M19.962,18.537h-7.925c-0.08,0-0.146-0.064-0.146-0.146v-0.953c0-0.081,0.065-0.146,0.146-0.146h7.925
				c0.081,0,0.146,0.064,0.146,0.146v0.953C20.108,18.473,20.043,18.537,19.962,18.537z M12.184,18.245h7.632v-0.661h-7.632V18.245z
				"/>
		</g>
		<g>
			<path d="M13.3,16.339h-0.953c-0.081,0-0.146-0.065-0.146-0.146V13.32c0-0.081,0.065-0.146,0.146-0.146H13.3
				c0.081,0,0.146,0.064,0.146,0.146v2.872C13.446,16.273,13.381,16.339,13.3,16.339z M12.493,16.046h0.661v-2.579h-0.661V16.046z"
				/>
		</g>
		<g>
			<path d="M19.653,16.339H18.7c-0.082,0-0.146-0.065-0.146-0.146V13.32c0-0.081,0.064-0.146,0.146-0.146h0.953
				c0.081,0,0.146,0.064,0.146,0.146v2.872C19.799,16.273,19.734,16.339,19.653,16.339z M18.846,16.046h0.661v-2.579h-0.661V16.046z
				"/>
		</g>
		<g>
			<path d="M15.418,16.339h-0.954c-0.08,0-0.146-0.065-0.146-0.146V13.32c0-0.081,0.065-0.146,0.146-0.146h0.954
				c0.081,0,0.146,0.064,0.146,0.146v2.872C15.564,16.273,15.499,16.339,15.418,16.339z M14.61,16.046h0.661v-2.579H14.61V16.046z"
				/>
		</g>
		<g>
			<path d="M17.535,16.339h-0.954c-0.081,0-0.146-0.065-0.146-0.146V13.32c0-0.081,0.065-0.146,0.146-0.146h0.954
				c0.08,0,0.146,0.064,0.146,0.146v2.872C17.681,16.273,17.615,16.339,17.535,16.339z M16.728,16.046h0.661v-2.579h-0.661V16.046z"
				/>
		</g>
		<g>
			<path d="M19.966,12.224h-7.932c-0.081,0-0.146-0.066-0.146-0.146v-0.853c0-0.054,0.03-0.104,0.077-0.129l3.965-2.129
				c0.043-0.022,0.096-0.022,0.139,0l3.967,2.129c0.048,0.025,0.077,0.075,0.077,0.129v0.853
				C20.112,12.157,20.047,12.224,19.966,12.224z M12.181,11.931h7.64v-0.618l-3.821-2.051l-3.818,2.051V11.931z"/>
		</g>
	</g>
	<g>
		<g>
			<path d="M26.105,22.332H5.895c-0.565,0-1.024-0.46-1.024-1.024v-13.7c0-0.564,0.459-1.024,1.024-1.024h20.21
				c0.564,0,1.023,0.46,1.023,1.024v13.7C27.129,21.872,26.67,22.332,26.105,22.332z M5.895,6.876c-0.404,0-0.731,0.328-0.731,0.731
				v13.7c0,0.403,0.328,0.731,0.731,0.731h20.21c0.403,0,0.73-0.328,0.73-0.731v-13.7c0-0.403-0.327-0.731-0.73-0.731H5.895z"/>
		</g>
		<g>
			<path d="M26.982,20.618H5.017c-0.081,0-0.146-0.065-0.146-0.146c0-0.08,0.065-0.146,0.146-0.146h21.965
				c0.081,0,0.146,0.065,0.146,0.146C27.129,20.553,27.063,20.618,26.982,20.618z"/>
		</g>
		<g>
			<g>
				<path d="M11.629,25.213c-0.032,0-0.063-0.01-0.091-0.03c-0.062-0.05-0.074-0.142-0.025-0.205l2.237-2.887
					c0.049-0.063,0.142-0.076,0.205-0.026s0.075,0.142,0.025,0.205l-2.236,2.887C11.716,25.194,11.672,25.213,11.629,25.213z"/>
			</g>
			<g>
				<path d="M20.372,25.213c-0.045,0-0.088-0.019-0.116-0.057l-2.238-2.887c-0.049-0.063-0.037-0.155,0.026-0.205
					s0.156-0.038,0.205,0.026l2.238,2.887c0.049,0.063,0.037,0.155-0.027,0.205C20.435,25.203,20.402,25.213,20.372,25.213z"/>
			</g>
		</g>
		<g>
			<path d="M22.099,25.416H9.901c-0.081,0-0.146-0.065-0.146-0.146c0-0.081,0.066-0.146,0.146-0.146h12.197
				c0.081,0,0.146,0.065,0.146,0.146C22.245,25.351,22.18,25.416,22.099,25.416z"/>
		</g>
	</g>
</g>
</svg>
