<?xml version="1.0" encoding="utf-8"?>
<!-- Generator: Adobe Illustrator 16.0.0, SVG Export Plug-In . SVG Version: 6.00 Build 0)  -->
<!DOCTYPE svg PUBLIC "-//W3C//DTD SVG 1.1//EN" "http://www.w3.org/Graphics/SVG/1.1/DTD/svg11.dtd">
<svg version="1.1" id="Layer_1" xmlns="http://www.w3.org/2000/svg" xmlns:xlink="http://www.w3.org/1999/xlink" x="0px" y="0px"
	 width="32px" height="32px" viewBox="0 0 32 32" enable-background="new 0 0 32 32" xml:space="preserve">
<g>
	<g>
		<g>
			<g>
				<g>
					<path d="M19.677,23.213h-8.214c-1.108,0-2.009-0.9-2.009-2.009V11.1c0-1.11,0.9-2.01,2.009-2.01h8.214
						c1.108,0,2.01,0.899,2.01,2.01v10.104C21.687,22.312,20.785,23.213,19.677,23.213z M11.463,9.454
						c-0.906,0-1.644,0.738-1.644,1.646v10.104c0,0.907,0.737,1.643,1.644,1.643h8.214c0.906,0,1.645-0.735,1.645-1.643V11.1
						c0-0.907-0.738-1.646-1.645-1.646H11.463z"/>
				</g>
			</g>
			<g>
				<g>
					<path d="M22.818,14.73c-0.102,0-0.184-0.082-0.184-0.183v-2.286c0-0.101,0.082-0.183,0.184-0.183S23,12.161,23,12.262v2.286
						C23,14.648,22.92,14.73,22.818,14.73z"/>
				</g>
			</g>
			<g>
				<g>
					<path d="M19.311,8.107c-0.102,0-0.183-0.081-0.183-0.183V5.382c0-0.303-0.246-0.548-0.55-0.548h-6.017
						c-0.301,0-0.548,0.245-0.548,0.548v2.543c0,0.102-0.084,0.183-0.185,0.183s-0.182-0.081-0.182-0.183V5.382
						c0-0.503,0.409-0.913,0.914-0.913h6.017c0.506,0,0.914,0.41,0.914,0.913v2.543C19.492,8.026,19.411,8.107,19.311,8.107z"/>
				</g>
			</g>
			<g>
				<g>
					<path d="M18.578,27.834h-6.017c-0.505,0-0.914-0.41-0.914-0.913v-2.543c0-0.101,0.081-0.183,0.182-0.183
						s0.185,0.082,0.185,0.183v2.543c0,0.303,0.247,0.549,0.548,0.549h6.017c0.304,0,0.55-0.246,0.55-0.549v-2.543
						c0-0.101,0.081-0.183,0.183-0.183c0.101,0,0.182,0.082,0.182,0.183v2.543C19.492,27.424,19.084,27.834,18.578,27.834z"/>
				</g>
			</g>
		</g>
		<g>
			<g>
				<path d="M15.57,20.62c-0.06,0-0.115-0.027-0.15-0.076c-0.117-0.171-2.906-4.18-2.906-5.806c0-1.687,1.371-3.058,3.057-3.058
					s3.057,1.371,3.057,3.058c0,1.626-2.788,5.635-2.907,5.806C15.685,20.593,15.628,20.62,15.57,20.62z M15.57,12.048
					c-1.484,0-2.69,1.206-2.69,2.69c0,1.31,2.105,4.51,2.69,5.376c0.586-0.866,2.69-4.068,2.69-5.376
					C18.261,13.254,17.055,12.048,15.57,12.048z"/>
			</g>
			<g>
				<path d="M15.57,16.333c-0.895,0-1.623-0.727-1.623-1.618c0-0.896,0.729-1.622,1.623-1.622c0.894,0,1.621,0.726,1.621,1.622
					C17.191,15.606,16.464,16.333,15.57,16.333z M15.57,13.457c-0.693,0-1.257,0.562-1.257,1.258c0,0.691,0.563,1.254,1.257,1.254
					c0.692,0,1.255-0.562,1.255-1.254C16.825,14.02,16.263,13.457,15.57,13.457z"/>
			</g>
		</g>
	</g>
</g>
</svg>
