<?xml version="1.0" encoding="utf-8"?>
<!-- Generator: Adobe Illustrator 16.0.0, SVG Export Plug-In . SVG Version: 6.00 Build 0)  -->
<!DOCTYPE svg PUBLIC "-//W3C//DTD SVG 1.1//EN" "http://www.w3.org/Graphics/SVG/1.1/DTD/svg11.dtd">
<svg version="1.1" id="Layer_1" xmlns="http://www.w3.org/2000/svg" xmlns:xlink="http://www.w3.org/1999/xlink" x="0px" y="0px"
	 width="32px" height="32px" viewBox="0 0 32 32" enable-background="new 0 0 32 32" xml:space="preserve">
<g>
	<g>
		<g>
			<g>
				<g>
					<path d="M27.391,23.053H4.914c-0.705,0-1.278-0.574-1.278-1.279V6.607c0-0.704,0.573-1.278,1.278-1.278h22.477
						c0.703,0,1.278,0.574,1.278,1.278v15.166C28.669,22.479,28.094,23.053,27.391,23.053z M4.914,5.694
						c-0.504,0-0.913,0.41-0.913,0.913v15.166c0,0.504,0.409,0.913,0.913,0.913h22.477c0.503,0,0.913-0.409,0.913-0.913V6.607
						c0-0.503-0.41-0.913-0.913-0.913H4.914z"/>
				</g>
			</g>
			<g>
				<g>
					<path d="M30.705,26.974c-0.002,0-0.004,0-0.007,0H1.606c-0.07,0-0.136-0.042-0.166-0.105c-0.03-0.064-0.02-0.143,0.026-0.195
						l2.16-2.558c0.032-0.04,0.084-0.063,0.138-0.063h24.774c0.054,0,0.104,0.023,0.14,0.063l2.132,2.527
						c0.047,0.033,0.076,0.087,0.076,0.148C30.887,26.893,30.807,26.974,30.705,26.974z M1.999,26.609h28.305l-1.849-2.193H3.851
						L1.999,26.609z"/>
				</g>
			</g>
			<g>
				<g>
					<path d="M28.485,21.13H3.817c-0.101,0-0.182-0.083-0.182-0.184c0-0.1,0.081-0.183,0.182-0.183h24.668
						c0.102,0,0.184,0.083,0.184,0.183C28.669,21.047,28.587,21.13,28.485,21.13z"/>
				</g>
			</g>
		</g>
		<g>
			<g>
				<path d="M16.152,18.609c-0.059,0-0.115-0.029-0.149-0.079c-0.144-0.204-3.517-5.057-3.517-7.015
					c0-2.022,1.644-3.666,3.666-3.666c2.021,0,3.666,1.644,3.666,3.666c0,1.958-3.372,6.811-3.517,7.015
					C16.268,18.58,16.212,18.609,16.152,18.609z M16.152,8.214c-1.82,0-3.302,1.48-3.302,3.302c0,1.622,2.638,5.61,3.302,6.588
					c0.664-0.977,3.302-4.966,3.302-6.588C19.454,9.694,17.973,8.214,16.152,8.214z"/>
			</g>
			<g>
				<path d="M16.152,13.411c-1.063,0-1.927-0.863-1.927-1.926c0-1.062,0.863-1.927,1.927-1.927c1.062,0,1.927,0.865,1.927,1.927
					C18.079,12.548,17.214,13.411,16.152,13.411z M16.152,9.923c-0.86,0-1.562,0.701-1.562,1.562s0.701,1.562,1.562,1.562
					c0.861,0,1.562-0.7,1.562-1.562S17.014,9.923,16.152,9.923z"/>
			</g>
		</g>
	</g>
</g>
</svg>
