<?xml version="1.0" encoding="utf-8"?>
<!-- Generator: Adobe Illustrator 16.0.0, SVG Export Plug-In . SVG Version: 6.00 Build 0)  -->
<!DOCTYPE svg PUBLIC "-//W3C//DTD SVG 1.1//EN" "http://www.w3.org/Graphics/SVG/1.1/DTD/svg11.dtd">
<svg version="1.1" id="Layer_1" xmlns="http://www.w3.org/2000/svg" xmlns:xlink="http://www.w3.org/1999/xlink" x="0px" y="0px"
	 width="32px" height="32px" viewBox="0 0 32 32" enable-background="new 0 0 32 32" xml:space="preserve">
<g>
	<g>
		<g>
			<g>
				<path d="M21.635,30.054H10.603c-0.704,0-1.279-0.574-1.279-1.279V3.527c0-0.705,0.575-1.276,1.279-1.276h11.032
					c0.705,0,1.278,0.571,1.278,1.276v25.247C22.913,29.479,22.34,30.054,21.635,30.054z M10.603,2.615
					c-0.504,0-0.914,0.409-0.914,0.912v25.247c0,0.505,0.41,0.914,0.914,0.914h11.032c0.503,0,0.913-0.409,0.913-0.914V3.527
					c0-0.503-0.41-0.912-0.913-0.912H10.603z"/>
			</g>
		</g>
		<g>
			<g>
				<path d="M22.54,25.04H9.697c-0.102,0-0.182-0.08-0.182-0.183c0-0.101,0.08-0.183,0.182-0.183H22.54
					c0.101,0,0.182,0.082,0.182,0.183C22.722,24.96,22.641,25.04,22.54,25.04z"/>
			</g>
		</g>
		<g>
			<g>
				<circle cx="16.118" cy="27.451" r="0.746"/>
			</g>
		</g>
		<g>
			<g>
				<g>
					<path d="M16.118,20.373c-0.06,0-0.115-0.029-0.15-0.079c-0.171-0.244-4.209-6.05-4.209-8.389c0-2.405,1.956-4.358,4.359-4.358
						s4.358,1.953,4.358,4.358c0,2.339-4.036,8.145-4.209,8.389C16.234,20.344,16.178,20.373,16.118,20.373z M16.118,7.911
						c-2.203,0-3.993,1.793-3.993,3.994c0,1.979,3.25,6.87,3.993,7.962c0.744-1.092,3.994-5.982,3.994-7.962
						C20.112,9.704,18.319,7.911,16.118,7.911z"/>
				</g>
			</g>
			<g>
				<g>
					<path d="M16.118,14.143c-1.253,0-2.273-1.02-2.273-2.273s1.021-2.274,2.273-2.274c1.254,0,2.273,1.021,2.273,2.274
						S17.372,14.143,16.118,14.143z M16.118,9.961c-1.052,0-1.907,0.856-1.907,1.908c0,1.053,0.855,1.908,1.907,1.908
						c1.053,0,1.908-0.855,1.908-1.908C18.026,10.817,17.171,9.961,16.118,9.961z"/>
				</g>
			</g>
		</g>
	</g>
</g>
</svg>
