<?xml version="1.0" encoding="utf-8"?>
<!-- Generator: Adobe Illustrator 16.0.0, SVG Export Plug-In . SVG Version: 6.00 Build 0)  -->
<!DOCTYPE svg PUBLIC "-//W3C//DTD SVG 1.1//EN" "http://www.w3.org/Graphics/SVG/1.1/DTD/svg11.dtd">
<svg version="1.1" id="Layer_1" xmlns="http://www.w3.org/2000/svg" xmlns:xlink="http://www.w3.org/1999/xlink" x="0px" y="0px"
	 width="32px" height="32px" viewBox="0 0 32 32" enable-background="new 0 0 32 32" xml:space="preserve">
<g>
	<g>
		<g>
			<g>
				<path d="M25.166,30.601H6.999c-0.706,0-1.279-0.574-1.279-1.278V2.981c0-0.704,0.573-1.279,1.279-1.279h18.167
					c0.705,0,1.278,0.575,1.278,1.279v26.341C26.444,30.026,25.871,30.601,25.166,30.601z M6.999,2.068
					c-0.504,0-0.914,0.409-0.914,0.913v26.341c0,0.503,0.41,0.913,0.914,0.913h18.167c0.503,0,0.913-0.41,0.913-0.913V2.981
					c0-0.504-0.41-0.913-0.913-0.913H6.999z"/>
			</g>
		</g>
		<g>
			<g>
				<circle cx="16.083" cy="28.183" r="0.746"/>
			</g>
		</g>
		<g>
			<g>
				<path d="M26.106,25.649H6.058c-0.1,0-0.182-0.081-0.182-0.181c0-0.103,0.082-0.186,0.182-0.186h20.049
					c0.102,0,0.182,0.083,0.182,0.186C26.288,25.568,26.208,25.649,26.106,25.649z"/>
			</g>
		</g>
		<g>
			<g>
				<g>
					<path d="M16.082,21.898c-0.06,0-0.115-0.029-0.149-0.077c-0.214-0.306-5.232-7.522-5.232-10.419
						c0-2.966,2.414-5.382,5.382-5.382s5.382,2.416,5.382,5.382c0,2.896-5.019,10.113-5.231,10.419
						C16.198,21.869,16.143,21.898,16.082,21.898z M16.082,6.387c-2.766,0-5.017,2.25-5.017,5.016c0,2.511,4.168,8.746,5.017,9.991
						c0.85-1.245,5.017-7.48,5.017-9.991C21.099,8.637,18.849,6.387,16.082,6.387z"/>
				</g>
			</g>
			<g>
				<g>
					<path d="M16.082,14.143c-1.536,0-2.785-1.251-2.785-2.785c0-1.535,1.249-2.786,2.785-2.786c1.537,0,2.785,1.251,2.785,2.786
						C18.867,12.892,17.619,14.143,16.082,14.143z M16.082,8.938c-1.333,0-2.42,1.085-2.42,2.42s1.087,2.42,2.42,2.42
						c1.335,0,2.42-1.085,2.42-2.42S17.417,8.938,16.082,8.938z"/>
				</g>
			</g>
		</g>
	</g>
</g>
</svg>
