<?xml version="1.0" encoding="utf-8"?>
<!-- Generator: Adobe Illustrator 16.0.0, SVG Export Plug-In . SVG Version: 6.00 Build 0)  -->
<!DOCTYPE svg PUBLIC "-//W3C//DTD SVG 1.1//EN" "http://www.w3.org/Graphics/SVG/1.1/DTD/svg11.dtd">
<svg version="1.1" id="Layer_1" xmlns="http://www.w3.org/2000/svg" xmlns:xlink="http://www.w3.org/1999/xlink" x="0px" y="0px"
	 width="32px" height="32px" viewBox="0 0 32 32" enable-background="new 0 0 32 32" xml:space="preserve">
<g>
	<g>
		<g>
			<g>
				<g>
					<path d="M27.431,23.28H4.952c-0.704,0-1.277-0.573-1.277-1.277V6.835c0-0.702,0.573-1.276,1.277-1.276h22.479
						c0.702,0,1.276,0.574,1.276,1.276v15.168C28.707,22.707,28.133,23.28,27.431,23.28z M4.952,5.924
						c-0.504,0-0.912,0.409-0.912,0.911v15.168c0,0.502,0.408,0.913,0.912,0.913h22.479c0.501,0,0.912-0.411,0.912-0.913V6.835
						c0-0.502-0.411-0.911-0.912-0.911H4.952z"/>
				</g>
			</g>
			<g>
				<g>
					<path d="M28.525,21.356H3.856c-0.101,0-0.182-0.08-0.182-0.182c0-0.101,0.081-0.184,0.182-0.184h24.669
						c0.101,0,0.182,0.083,0.182,0.184C28.707,21.276,28.626,21.356,28.525,21.356z"/>
				</g>
			</g>
			<g>
				<g>
					<g>
						<path d="M11.281,26.517c-0.037,0-0.077-0.012-0.111-0.039c-0.078-0.062-0.095-0.176-0.033-0.256l2.512-3.242
							c0.062-0.08,0.177-0.092,0.257-0.032c0.08,0.062,0.095,0.178,0.031,0.257l-2.51,3.241
							C11.391,26.491,11.337,26.517,11.281,26.517z"/>
					</g>
				</g>
				<g>
					<g>
						<path d="M21.1,26.517c-0.055,0-0.108-0.025-0.145-0.071l-2.511-3.241c-0.062-0.079-0.048-0.194,0.032-0.257
							c0.081-0.06,0.193-0.048,0.257,0.032l2.512,3.242c0.061,0.08,0.046,0.194-0.033,0.256
							C21.177,26.505,21.139,26.517,21.1,26.517z"/>
					</g>
				</g>
			</g>
			<g>
				<g>
					<path d="M23.04,26.746H9.341c-0.101,0-0.181-0.083-0.181-0.184c0-0.1,0.08-0.183,0.181-0.183H23.04
						c0.102,0,0.183,0.083,0.183,0.183C23.223,26.663,23.142,26.746,23.04,26.746z"/>
				</g>
			</g>
		</g>
		<g>
			<g>
				<path d="M16.191,18.832c-0.061,0-0.117-0.029-0.15-0.079c-0.141-0.2-3.421-4.917-3.421-6.824c0-1.969,1.603-3.571,3.571-3.571
					c1.967,0,3.569,1.603,3.569,3.571c0,1.907-3.28,6.624-3.42,6.824C16.308,18.803,16.252,18.832,16.191,18.832z M16.191,8.724
					c-1.768,0-3.205,1.438-3.205,3.205c0,1.572,2.553,5.436,3.205,6.395c0.651-0.959,3.203-4.822,3.203-6.395
					C19.395,10.161,17.958,8.724,16.191,8.724z"/>
			</g>
			<g>
				<path d="M16.191,13.777c-1.036,0-1.879-0.843-1.879-1.879s0.843-1.879,1.879-1.879c1.033,0,1.88,0.843,1.88,1.879
					S17.225,13.777,16.191,13.777z M16.191,10.386c-0.835,0-1.515,0.679-1.515,1.513s0.68,1.513,1.515,1.513
					s1.514-0.679,1.514-1.513S17.026,10.386,16.191,10.386z"/>
			</g>
		</g>
	</g>
</g>
</svg>
