<?xml version="1.0" encoding="utf-8"?>
<!-- Generator: Adobe Illustrator 16.0.0, SVG Export Plug-In . SVG Version: 6.00 Build 0)  -->
<!DOCTYPE svg PUBLIC "-//W3C//DTD SVG 1.1//EN" "http://www.w3.org/Graphics/SVG/1.1/DTD/svg11.dtd">
<svg version="1.1" id="Layer_1" xmlns="http://www.w3.org/2000/svg" xmlns:xlink="http://www.w3.org/1999/xlink" x="0px" y="0px"
	 width="32px" height="32px" viewBox="0 0 32 32" enable-background="new 0 0 32 32" xml:space="preserve">
<g>
	<g>
		<path d="M19.235,22.272h-7.643c-0.887,0-1.608-0.722-1.608-1.608v-9.327c0-0.887,0.722-1.608,1.608-1.608h7.643
			c0.888,0,1.609,0.721,1.609,1.608v9.327C20.845,21.551,20.123,22.272,19.235,22.272z M11.593,10.021
			c-0.725,0-1.315,0.59-1.315,1.315v9.327c0,0.725,0.591,1.316,1.315,1.316h7.643c0.727,0,1.316-0.591,1.316-1.316v-9.327
			c0-0.725-0.59-1.315-1.316-1.315H11.593z"/>
	</g>
	<g>
		<path d="M21.869,14.718c-0.08,0-0.146-0.065-0.146-0.146v-2.036c0-0.081,0.066-0.146,0.146-0.146c0.081,0,0.146,0.065,0.146,0.146
			v2.036C22.016,14.653,21.95,14.718,21.869,14.718z"/>
	</g>
	<g>
		<path d="M18.745,8.822c-0.081,0-0.146-0.066-0.146-0.146v-2.33c0-0.242-0.197-0.438-0.438-0.438h-5.49
			c-0.242,0-0.439,0.197-0.439,0.438v2.33c0,0.081-0.064,0.146-0.146,0.146s-0.146-0.066-0.146-0.146v-2.33
			c0-0.403,0.328-0.731,0.731-0.731h5.49c0.403,0,0.731,0.328,0.731,0.731v2.33C18.892,8.756,18.826,8.822,18.745,8.822z"/>
	</g>
	<g>
		<path d="M18.16,26.386h-5.49c-0.403,0-0.731-0.328-0.731-0.731v-2.331c0-0.081,0.065-0.146,0.146-0.146s0.146,0.065,0.146,0.146
			v2.331c0,0.242,0.197,0.438,0.439,0.438h5.49c0.241,0,0.438-0.197,0.438-0.438v-2.331c0-0.081,0.065-0.146,0.146-0.146
			s0.146,0.065,0.146,0.146v2.331C18.892,26.058,18.563,26.386,18.16,26.386z"/>
	</g>
	<g>
		<g>
			<path d="M15.414,17.421c-0.783,0-1.422-0.638-1.422-1.421s0.639-1.421,1.422-1.421c0.784,0,1.422,0.638,1.422,1.421
				S16.198,17.421,15.414,17.421z M15.414,14.872c-0.623,0-1.13,0.506-1.13,1.128s0.507,1.128,1.13,1.128s1.13-0.506,1.13-1.128
				S16.037,14.872,15.414,14.872z"/>
		</g>
		<g>
			<path d="M15.87,19.323h-0.911c-0.062,0-0.118-0.039-0.139-0.098l-0.145-0.418c-0.255-0.067-0.497-0.167-0.724-0.299L13.555,18.7
				c-0.057,0.027-0.123,0.016-0.168-0.028l-0.645-0.645c-0.044-0.044-0.055-0.111-0.028-0.167l0.194-0.399
				c-0.132-0.224-0.232-0.466-0.3-0.722l-0.419-0.146c-0.058-0.021-0.098-0.076-0.098-0.138v-0.91c0-0.062,0.039-0.117,0.098-0.138
				l0.418-0.146c0.067-0.255,0.168-0.498,0.301-0.723l-0.194-0.399c-0.026-0.056-0.016-0.123,0.028-0.167l0.646-0.644
				c0.044-0.044,0.111-0.055,0.167-0.028l0.397,0.193c0.229-0.134,0.472-0.234,0.724-0.3l0.145-0.417
				c0.021-0.059,0.076-0.099,0.139-0.099h0.911c0.062,0,0.117,0.039,0.138,0.098l0.146,0.418c0.251,0.066,0.493,0.167,0.723,0.3
				l0.397-0.193c0.057-0.027,0.124-0.016,0.167,0.028l0.645,0.645c0.044,0.044,0.056,0.111,0.029,0.167l-0.193,0.399
				c0.133,0.229,0.234,0.471,0.3,0.722l0.418,0.146c0.06,0.02,0.099,0.076,0.099,0.138v0.91c0,0.062-0.039,0.117-0.099,0.138
				l-0.419,0.146c-0.066,0.253-0.166,0.496-0.299,0.723l0.193,0.399c0.026,0.056,0.015,0.123-0.029,0.167l-0.645,0.645
				c-0.043,0.044-0.11,0.056-0.166,0.029l-0.399-0.193c-0.226,0.132-0.468,0.232-0.722,0.299l-0.146,0.418
				C15.987,19.284,15.932,19.323,15.87,19.323z M15.063,19.03h0.702l0.139-0.395c0.017-0.047,0.056-0.083,0.104-0.094
				c0.278-0.065,0.542-0.175,0.782-0.324c0.042-0.027,0.097-0.03,0.141-0.008l0.377,0.182l0.497-0.498l-0.182-0.376
				c-0.021-0.045-0.019-0.098,0.008-0.141c0.151-0.243,0.26-0.506,0.323-0.783c0.011-0.049,0.047-0.089,0.095-0.105l0.396-0.138
				v-0.702l-0.396-0.138c-0.047-0.017-0.082-0.056-0.094-0.105c-0.063-0.274-0.173-0.538-0.324-0.783
				c-0.026-0.042-0.029-0.095-0.008-0.141l0.183-0.376l-0.497-0.498l-0.376,0.183c-0.045,0.022-0.098,0.019-0.142-0.007
				c-0.245-0.152-0.509-0.262-0.783-0.326c-0.049-0.011-0.088-0.047-0.104-0.094l-0.139-0.395h-0.702l-0.137,0.395
				c-0.017,0.048-0.056,0.083-0.105,0.095c-0.275,0.064-0.54,0.173-0.784,0.326c-0.042,0.026-0.096,0.029-0.141,0.007l-0.376-0.183
				l-0.498,0.497l0.184,0.377c0.022,0.045,0.019,0.099-0.008,0.142c-0.15,0.239-0.261,0.502-0.325,0.782
				c-0.012,0.049-0.048,0.088-0.095,0.105l-0.394,0.138v0.702l0.395,0.138c0.048,0.017,0.083,0.056,0.095,0.104
				c0.065,0.281,0.174,0.544,0.324,0.782c0.026,0.043,0.03,0.096,0.008,0.142l-0.184,0.376l0.498,0.498l0.376-0.182
				c0.045-0.022,0.099-0.02,0.142,0.008c0.241,0.149,0.504,0.259,0.782,0.324c0.049,0.011,0.089,0.047,0.105,0.094L15.063,19.03z"/>
		</g>
	</g>
</g>
</svg>
