<?xml version="1.0" encoding="utf-8"?>
<!-- Generator: Adobe Illustrator 16.0.0, SVG Export Plug-In . SVG Version: 6.00 Build 0)  -->
<!DOCTYPE svg PUBLIC "-//W3C//DTD SVG 1.1//EN" "http://www.w3.org/Graphics/SVG/1.1/DTD/svg11.dtd">
<svg version="1.1" id="Layer_1" xmlns="http://www.w3.org/2000/svg" xmlns:xlink="http://www.w3.org/1999/xlink" x="0px" y="0px"
	 width="32px" height="32px" viewBox="0 0 32 32" enable-background="new 0 0 32 32" xml:space="preserve">
<g>
	<g>
		<g>
			<path d="M26.102,22.128H5.892c-0.564,0-1.024-0.459-1.024-1.023V7.404c0-0.564,0.46-1.023,1.024-1.023h20.21
				c0.564,0,1.023,0.459,1.023,1.023v13.701C27.125,21.669,26.667,22.128,26.102,22.128z M5.892,6.673
				c-0.403,0-0.731,0.328-0.731,0.731v13.701c0,0.403,0.329,0.731,0.731,0.731h20.21c0.403,0,0.731-0.328,0.731-0.731V7.404
				c0-0.403-0.328-0.731-0.731-0.731H5.892z"/>
		</g>
		<g>
			<path d="M28.955,25.62c-0.001,0-0.004,0-0.006,0H3.045c-0.057,0-0.108-0.033-0.132-0.085s-0.016-0.112,0.021-0.156l1.922-2.277
				c0.028-0.033,0.068-0.052,0.112-0.052h22.06c0.043,0,0.084,0.019,0.112,0.052l1.901,2.252c0.037,0.026,0.061,0.07,0.061,0.119
				C29.101,25.554,29.036,25.62,28.955,25.62z M3.36,25.327h25.274l-1.675-1.984H5.035L3.36,25.327z"/>
		</g>
		<g>
			<path d="M26.979,20.416H5.015c-0.081,0-0.146-0.065-0.146-0.146s0.065-0.146,0.146-0.146h21.964c0.082,0,0.146,0.065,0.146,0.146
				S27.061,20.416,26.979,20.416z"/>
		</g>
	</g>
	<g>
		<g>
			<path d="M15.997,15.379c-0.979,0-1.775-0.796-1.775-1.775c0-0.979,0.796-1.774,1.775-1.774s1.775,0.796,1.775,1.774
				C17.772,14.583,16.976,15.379,15.997,15.379z M15.997,12.121c-0.817,0-1.482,0.665-1.482,1.482c0,0.818,0.665,1.483,1.482,1.483
				c0.818,0,1.482-0.665,1.482-1.483C17.479,12.786,16.815,12.121,15.997,12.121z"/>
		</g>
		<g>
			<path d="M16.579,17.807h-1.164c-0.062,0-0.118-0.039-0.138-0.098l-0.193-0.556c-0.333-0.084-0.651-0.217-0.951-0.395
				l-0.529,0.257c-0.056,0.027-0.123,0.016-0.167-0.028l-0.823-0.822c-0.044-0.044-0.056-0.111-0.029-0.167l0.257-0.529
				c-0.178-0.299-0.31-0.618-0.395-0.952l-0.555-0.193c-0.059-0.02-0.098-0.076-0.098-0.138v-1.163c0-0.062,0.04-0.118,0.098-0.138
				l0.554-0.193c0.085-0.334,0.218-0.654,0.396-0.953l-0.257-0.529c-0.027-0.056-0.015-0.123,0.029-0.167l0.823-0.823
				c0.044-0.044,0.111-0.055,0.167-0.028l0.528,0.255c0.3-0.178,0.62-0.311,0.952-0.395L15.277,9.5
				c0.021-0.059,0.077-0.099,0.138-0.099h1.164c0.062,0,0.117,0.04,0.138,0.099l0.193,0.553c0.333,0.084,0.652,0.217,0.953,0.395
				l0.528-0.255c0.056-0.027,0.124-0.016,0.167,0.028l0.822,0.823c0.044,0.044,0.056,0.111,0.028,0.167l-0.255,0.529
				c0.176,0.296,0.308,0.616,0.395,0.953l0.554,0.192c0.059,0.021,0.099,0.076,0.099,0.138v1.163c0,0.062-0.04,0.118-0.099,0.138
				l-0.554,0.193c-0.086,0.335-0.219,0.654-0.395,0.952l0.255,0.529c0.027,0.056,0.016,0.123-0.028,0.167l-0.822,0.822
				c-0.044,0.044-0.111,0.055-0.167,0.028l-0.53-0.257c-0.299,0.177-0.618,0.31-0.95,0.395l-0.194,0.556
				C16.697,17.768,16.641,17.807,16.579,17.807z M15.519,17.514h0.957l0.185-0.532c0.017-0.047,0.057-0.083,0.106-0.094
				c0.356-0.082,0.696-0.223,1.01-0.419c0.042-0.027,0.096-0.029,0.141-0.008l0.508,0.247l0.676-0.675l-0.245-0.508
				c-0.022-0.045-0.019-0.098,0.007-0.141c0.194-0.312,0.335-0.653,0.419-1.012c0.012-0.049,0.047-0.088,0.095-0.105l0.531-0.185
				v-0.956l-0.531-0.185c-0.048-0.017-0.083-0.056-0.095-0.105c-0.084-0.362-0.225-0.703-0.419-1.013
				c-0.026-0.042-0.029-0.096-0.007-0.141l0.245-0.507L18.425,10.5l-0.506,0.245c-0.046,0.022-0.099,0.019-0.141-0.007
				c-0.317-0.197-0.657-0.338-1.012-0.419c-0.049-0.012-0.089-0.047-0.106-0.095l-0.185-0.53h-0.957l-0.185,0.53
				c-0.017,0.048-0.056,0.083-0.105,0.095c-0.355,0.082-0.695,0.223-1.011,0.419c-0.043,0.027-0.096,0.029-0.141,0.007L13.57,10.5
				l-0.676,0.675l0.247,0.507c0.021,0.045,0.019,0.099-0.008,0.141c-0.196,0.314-0.338,0.655-0.419,1.012
				c-0.012,0.049-0.047,0.088-0.095,0.105l-0.531,0.185v0.956l0.531,0.185c0.047,0.017,0.083,0.056,0.095,0.105
				c0.083,0.357,0.224,0.697,0.419,1.011c0.027,0.042,0.03,0.096,0.008,0.141l-0.247,0.508l0.676,0.675l0.508-0.247
				c0.044-0.021,0.098-0.019,0.141,0.008c0.314,0.196,0.655,0.337,1.01,0.419c0.048,0.011,0.089,0.047,0.105,0.094L15.519,17.514z"
				/>
		</g>
	</g>
</g>
</svg>
