<?xml version="1.0" encoding="utf-8"?>
<!-- Generator: Adobe Illustrator 16.0.0, SVG Export Plug-In . SVG Version: 6.00 Build 0)  -->
<!DOCTYPE svg PUBLIC "-//W3C//DTD SVG 1.1//EN" "http://www.w3.org/Graphics/SVG/1.1/DTD/svg11.dtd">
<svg version="1.1" id="Layer_1" xmlns="http://www.w3.org/2000/svg" xmlns:xlink="http://www.w3.org/1999/xlink" x="0px" y="0px"
	 width="32px" height="32px" viewBox="0 0 32 32" enable-background="new 0 0 32 32" xml:space="preserve">
<g>
	<g>
		<path d="M24.187,28.85H7.813c-0.564,0-1.023-0.459-1.023-1.023V4.174c0-0.564,0.459-1.023,1.023-1.023h16.374
			c0.565,0,1.024,0.459,1.024,1.023v23.652C25.21,28.391,24.751,28.85,24.187,28.85z M7.813,3.443c-0.403,0-0.731,0.328-0.731,0.731
			v23.652c0,0.403,0.329,0.731,0.731,0.731h16.374c0.404,0,0.731-0.328,0.731-0.731V4.174c0-0.403-0.328-0.731-0.731-0.731H7.813z"
			/>
	</g>
	<g>
		<circle cx="16" cy="26.713" r="0.663"/>
	</g>
	<g>
		<path d="M24.926,24.441H7.073c-0.081,0-0.146-0.065-0.146-0.146s0.065-0.146,0.146-0.146h17.853c0.081,0,0.146,0.065,0.146,0.146
			S25.007,24.441,24.926,24.441z"/>
	</g>
	<g>
		<g>
			<path d="M16,16.355c-1.158,0-2.101-0.942-2.101-2.101c0-1.159,0.942-2.102,2.101-2.102c1.159,0,2.102,0.943,2.102,2.102
				C18.102,15.413,17.159,16.355,16,16.355z M16,12.445c-0.997,0-1.809,0.812-1.809,1.809c0,0.997,0.812,1.808,1.809,1.808
				c0.998,0,1.81-0.811,1.81-1.808C17.81,13.257,16.998,12.445,16,12.445z"/>
		</g>
		<g>
			<path d="M16.699,19.271h-1.397c-0.062,0-0.118-0.04-0.138-0.099l-0.236-0.681c-0.411-0.103-0.802-0.266-1.164-0.482l-0.65,0.315
				c-0.056,0.027-0.123,0.016-0.167-0.028l-0.988-0.988c-0.044-0.044-0.055-0.111-0.028-0.167l0.314-0.649
				c-0.216-0.361-0.378-0.752-0.483-1.164l-0.68-0.237c-0.058-0.021-0.098-0.076-0.098-0.138v-1.396c0-0.062,0.04-0.117,0.098-0.138
				l0.68-0.237c0.103-0.41,0.265-0.801,0.483-1.164l-0.314-0.649c-0.027-0.056-0.016-0.123,0.028-0.167l0.988-0.987
				c0.043-0.044,0.11-0.055,0.167-0.028l0.648,0.314c0.365-0.218,0.756-0.38,1.165-0.484l0.236-0.679
				c0.021-0.059,0.076-0.099,0.138-0.099h1.397c0.062,0,0.118,0.04,0.138,0.099l0.236,0.679c0.408,0.103,0.799,0.266,1.164,0.484
				l0.649-0.314c0.056-0.027,0.123-0.016,0.167,0.028l0.988,0.987c0.044,0.044,0.056,0.111,0.029,0.167l-0.315,0.649
				c0.216,0.361,0.378,0.752,0.483,1.164l0.679,0.236c0.059,0.021,0.098,0.076,0.098,0.138v1.396c0,0.062-0.04,0.118-0.099,0.138
				l-0.68,0.237c-0.102,0.407-0.265,0.797-0.482,1.164l0.315,0.649c0.027,0.056,0.015,0.123-0.029,0.167l-0.988,0.988
				c-0.043,0.044-0.111,0.055-0.167,0.028l-0.65-0.314c-0.363,0.216-0.754,0.379-1.164,0.483l-0.236,0.68
				C16.817,19.231,16.761,19.271,16.699,19.271z M15.405,18.979h1.19l0.228-0.657c0.017-0.047,0.056-0.083,0.104-0.094
				c0.434-0.102,0.845-0.273,1.225-0.508c0.043-0.026,0.096-0.029,0.141-0.008l0.627,0.304l0.841-0.84l-0.304-0.627
				c-0.021-0.045-0.019-0.099,0.007-0.141c0.237-0.382,0.408-0.793,0.507-1.224c0.011-0.049,0.047-0.089,0.094-0.105l0.658-0.229
				V13.66l-0.656-0.229c-0.047-0.017-0.083-0.056-0.094-0.104c-0.103-0.437-0.274-0.848-0.509-1.224
				c-0.026-0.042-0.029-0.096-0.007-0.141l0.304-0.627l-0.841-0.84l-0.627,0.303c-0.044,0.021-0.098,0.019-0.141-0.007
				c-0.381-0.237-0.793-0.409-1.224-0.508c-0.049-0.011-0.089-0.047-0.105-0.094L16.595,9.53h-1.19l-0.228,0.657
				c-0.017,0.047-0.056,0.083-0.105,0.094c-0.433,0.1-0.845,0.271-1.225,0.508c-0.042,0.026-0.096,0.029-0.141,0.007l-0.627-0.303
				l-0.839,0.84l0.303,0.627c0.022,0.045,0.019,0.099-0.008,0.141c-0.237,0.378-0.407,0.79-0.507,1.223
				c-0.012,0.049-0.047,0.089-0.095,0.105l-0.657,0.229v1.188l0.657,0.229c0.047,0.016,0.083,0.056,0.094,0.104
				c0.103,0.436,0.274,0.848,0.508,1.224c0.027,0.043,0.03,0.096,0.008,0.141l-0.303,0.628l0.839,0.84l0.628-0.304
				c0.045-0.022,0.099-0.019,0.141,0.007c0.376,0.236,0.789,0.407,1.223,0.507c0.049,0.011,0.088,0.047,0.105,0.094L15.405,18.979z"
				/>
		</g>
	</g>
</g>
</svg>
