<?xml version="1.0" encoding="utf-8"?>
<!-- Generator: Adobe Illustrator 16.0.0, SVG Export Plug-In . SVG Version: 6.00 Build 0)  -->
<!DOCTYPE svg PUBLIC "-//W3C//DTD SVG 1.1//EN" "http://www.w3.org/Graphics/SVG/1.1/DTD/svg11.dtd">
<svg version="1.1" id="Layer_1" xmlns="http://www.w3.org/2000/svg" xmlns:xlink="http://www.w3.org/1999/xlink" x="0px" y="0px"
	 width="32px" height="32px" viewBox="0 0 32 32" enable-background="new 0 0 32 32" xml:space="preserve">
<g>
	<g>
		<circle cx="16" cy="26.191" r="0.76"/>
	</g>
	<g>
		<path d="M21.01,28.362H10.99c-0.564,0-1.023-0.459-1.023-1.023V4.661c0-0.564,0.459-1.023,1.023-1.023h10.02
			c0.565,0,1.024,0.459,1.024,1.023v22.678C22.034,27.903,21.575,28.362,21.01,28.362z M10.99,3.93c-0.403,0-0.73,0.328-0.73,0.731
			v22.678c0,0.403,0.328,0.731,0.73,0.731h10.02c0.404,0,0.731-0.328,0.731-0.731V4.661c0-0.403-0.328-0.731-0.731-0.731H10.99z"/>
	</g>
	<g>
		<path d="M21.718,23.898H10.282c-0.081,0-0.146-0.066-0.146-0.146s0.065-0.146,0.146-0.146h11.436c0.081,0,0.146,0.065,0.146,0.146
			S21.799,23.898,21.718,23.898z"/>
	</g>
	<g>
		<path d="M16,16.029c-0.979,0-1.773-0.796-1.773-1.775c0-0.979,0.795-1.775,1.773-1.775c0.979,0,1.775,0.796,1.775,1.775
			C17.775,15.233,16.979,16.029,16,16.029z M16,12.772c-0.816,0-1.481,0.665-1.481,1.482s0.665,1.482,1.481,1.482
			c0.818,0,1.482-0.665,1.482-1.482S16.818,12.772,16,12.772z"/>
	</g>
	<g>
		<path d="M16.582,18.458h-1.164c-0.062,0-0.118-0.04-0.138-0.099l-0.192-0.555c-0.333-0.084-0.651-0.217-0.951-0.395l-0.529,0.257
			c-0.056,0.027-0.123,0.016-0.167-0.028l-0.823-0.823c-0.043-0.044-0.055-0.111-0.028-0.167l0.256-0.529
			c-0.176-0.298-0.309-0.618-0.395-0.953l-0.554-0.192c-0.059-0.021-0.099-0.076-0.099-0.138v-1.164c0-0.062,0.04-0.118,0.099-0.138
			l0.554-0.192c0.085-0.334,0.218-0.654,0.395-0.952l-0.256-0.53c-0.027-0.056-0.015-0.123,0.028-0.167l0.823-0.823
			c0.044-0.044,0.111-0.055,0.167-0.028l0.529,0.256c0.3-0.178,0.619-0.311,0.951-0.395l0.192-0.553
			c0.021-0.059,0.076-0.098,0.138-0.098h1.164c0.062,0,0.117,0.039,0.138,0.098l0.193,0.553c0.333,0.084,0.653,0.217,0.953,0.395
			l0.529-0.256c0.057-0.027,0.123-0.016,0.167,0.028l0.822,0.824c0.044,0.043,0.056,0.11,0.028,0.167l-0.255,0.529
			c0.177,0.301,0.31,0.62,0.394,0.952l0.554,0.192c0.058,0.021,0.098,0.076,0.098,0.138v1.164c0,0.062-0.04,0.118-0.098,0.138
			l-0.554,0.193c-0.086,0.334-0.218,0.654-0.395,0.952l0.255,0.529c0.027,0.056,0.016,0.123-0.028,0.167l-0.822,0.823
			c-0.044,0.044-0.111,0.056-0.167,0.028l-0.53-0.257c-0.298,0.177-0.617,0.31-0.951,0.395l-0.193,0.555
			C16.699,18.418,16.644,18.458,16.582,18.458z M15.522,18.165h0.955l0.185-0.532c0.017-0.048,0.057-0.083,0.106-0.095
			c0.357-0.082,0.696-0.223,1.01-0.419c0.042-0.027,0.096-0.03,0.141-0.008l0.509,0.246l0.676-0.676l-0.245-0.507
			c-0.022-0.045-0.02-0.099,0.007-0.141c0.195-0.313,0.336-0.653,0.42-1.011c0.011-0.049,0.047-0.089,0.094-0.105l0.531-0.185
			v-0.957l-0.53-0.185c-0.048-0.016-0.083-0.056-0.095-0.105c-0.082-0.354-0.223-0.695-0.418-1.012
			c-0.026-0.042-0.029-0.095-0.008-0.141l0.245-0.506l-0.676-0.676l-0.506,0.245c-0.046,0.021-0.099,0.019-0.142-0.008
			c-0.315-0.196-0.655-0.337-1.011-0.419c-0.049-0.011-0.089-0.047-0.106-0.094l-0.185-0.531h-0.957l-0.184,0.53
			c-0.017,0.047-0.056,0.083-0.105,0.094c-0.355,0.082-0.695,0.223-1.011,0.419c-0.042,0.027-0.095,0.029-0.14,0.008l-0.508-0.245
			l-0.676,0.675l0.245,0.507c0.021,0.045,0.019,0.099-0.007,0.141c-0.195,0.313-0.336,0.654-0.42,1.012
			c-0.012,0.049-0.047,0.089-0.094,0.105l-0.531,0.185v0.956l0.531,0.184c0.047,0.017,0.083,0.056,0.094,0.105
			c0.083,0.358,0.225,0.699,0.42,1.012c0.026,0.042,0.029,0.096,0.007,0.141l-0.245,0.507l0.676,0.676l0.507-0.246
			c0.046-0.022,0.099-0.02,0.141,0.007c0.316,0.197,0.656,0.337,1.011,0.419c0.049,0.012,0.089,0.047,0.105,0.095L15.522,18.165z"/>
	</g>
</g>
</svg>
