<?xml version="1.0" encoding="utf-8"?>
<!-- Generator: Adobe Illustrator 16.0.0, SVG Export Plug-In . SVG Version: 6.00 Build 0)  -->
<!DOCTYPE svg PUBLIC "-//W3C//DTD SVG 1.1//EN" "http://www.w3.org/Graphics/SVG/1.1/DTD/svg11.dtd">
<svg version="1.1" id="Layer_1" xmlns="http://www.w3.org/2000/svg" xmlns:xlink="http://www.w3.org/1999/xlink" x="0px" y="0px"
	 width="32px" height="32px" viewBox="0 0 32 32" enable-background="new 0 0 32 32" xml:space="preserve">
<g>
	<g>
		<g>
			<path d="M26.105,22.331H5.895c-0.565,0-1.024-0.459-1.024-1.023V7.606c0-0.564,0.459-1.023,1.024-1.023h20.21
				c0.564,0,1.023,0.459,1.023,1.023v13.701C27.129,21.872,26.67,22.331,26.105,22.331z M5.895,6.875
				c-0.404,0-0.731,0.328-0.731,0.731v13.701c0,0.403,0.328,0.731,0.731,0.731h20.21c0.403,0,0.73-0.328,0.73-0.731V7.606
				c0-0.403-0.327-0.731-0.73-0.731H5.895z"/>
		</g>
		<g>
			<path d="M26.982,20.619H5.017c-0.081,0-0.146-0.065-0.146-0.146c0-0.081,0.065-0.146,0.146-0.146h21.965
				c0.081,0,0.146,0.065,0.146,0.146C27.129,20.553,27.063,20.619,26.982,20.619z"/>
		</g>
		<g>
			<g>
				<path d="M11.629,25.213c-0.032,0-0.063-0.01-0.091-0.03c-0.062-0.05-0.074-0.142-0.025-0.205l2.237-2.887
					c0.049-0.063,0.142-0.075,0.205-0.026c0.063,0.05,0.075,0.142,0.025,0.205l-2.236,2.887
					C11.716,25.194,11.672,25.213,11.629,25.213z"/>
			</g>
			<g>
				<path d="M20.372,25.213c-0.045,0-0.088-0.019-0.116-0.056l-2.238-2.887c-0.049-0.063-0.037-0.155,0.026-0.205
					s0.156-0.038,0.205,0.026l2.238,2.887c0.049,0.063,0.037,0.155-0.027,0.205C20.435,25.203,20.402,25.213,20.372,25.213z"/>
			</g>
		</g>
		<g>
			<path d="M22.099,25.416H9.901c-0.081,0-0.146-0.065-0.146-0.146c0-0.081,0.066-0.146,0.146-0.146h12.197
				c0.081,0,0.146,0.065,0.146,0.146C22.245,25.35,22.18,25.416,22.099,25.416z"/>
		</g>
	</g>
	<g>
		<g>
			<path d="M15.999,15.822c-1.043,0-1.893-0.849-1.893-1.893c0-1.044,0.85-1.895,1.893-1.895c1.045,0,1.896,0.85,1.896,1.895
				C17.895,14.973,17.044,15.822,15.999,15.822z M15.999,12.328c-0.882,0-1.601,0.718-1.601,1.602c0,0.882,0.719,1.6,1.601,1.6
				c0.884,0,1.603-0.718,1.603-1.6C17.602,13.046,16.883,12.328,15.999,12.328z"/>
		</g>
		<g>
			<path d="M16.625,18.429h-1.25c-0.062,0-0.117-0.04-0.138-0.098l-0.209-0.6c-0.363-0.093-0.708-0.237-1.028-0.428l-0.573,0.278
				c-0.056,0.027-0.123,0.016-0.167-0.028l-0.884-0.882c-0.044-0.044-0.055-0.111-0.027-0.167l0.277-0.574
				c-0.192-0.322-0.335-0.667-0.428-1.029l-0.6-0.208c-0.06-0.021-0.099-0.076-0.099-0.138v-1.25c0-0.062,0.039-0.118,0.099-0.138
				l0.6-0.208c0.093-0.363,0.236-0.708,0.428-1.029l-0.277-0.573c-0.027-0.056-0.017-0.123,0.027-0.167l0.884-0.883
				c0.044-0.044,0.111-0.055,0.167-0.028l0.572,0.277c0.323-0.192,0.669-0.335,1.03-0.427l0.208-0.6
				c0.02-0.059,0.075-0.099,0.138-0.099h1.25c0.062,0,0.117,0.04,0.138,0.098l0.208,0.601c0.361,0.091,0.707,0.235,1.03,0.427
				l0.572-0.277c0.056-0.027,0.123-0.016,0.167,0.028l0.884,0.883c0.044,0.044,0.055,0.111,0.028,0.167l-0.277,0.574
				c0.192,0.323,0.335,0.669,0.427,1.029l0.6,0.208c0.059,0.021,0.098,0.076,0.098,0.138v1.25c0,0.062-0.039,0.117-0.099,0.138
				L19.802,14.9c-0.093,0.361-0.236,0.707-0.428,1.029l0.278,0.572c0.026,0.056,0.016,0.124-0.028,0.167l-0.884,0.883
				c-0.044,0.044-0.111,0.055-0.167,0.028l-0.574-0.278c-0.318,0.191-0.664,0.334-1.028,0.428l-0.208,0.6
				C16.742,18.389,16.688,18.429,16.625,18.429z M15.479,18.136h1.041l0.2-0.577c0.017-0.047,0.056-0.083,0.104-0.094
				c0.389-0.091,0.755-0.243,1.089-0.452c0.042-0.027,0.096-0.03,0.141-0.008l0.552,0.267l0.737-0.736l-0.269-0.551
				c-0.021-0.045-0.019-0.098,0.008-0.141c0.211-0.337,0.362-0.704,0.452-1.089c0.012-0.049,0.048-0.088,0.095-0.105l0.576-0.2
				l0.001-1.042l-0.576-0.2c-0.048-0.017-0.084-0.056-0.095-0.105c-0.089-0.383-0.241-0.75-0.451-1.089
				c-0.026-0.042-0.029-0.096-0.008-0.141l0.267-0.552l-0.737-0.736l-0.55,0.267c-0.045,0.021-0.099,0.019-0.141-0.007
				c-0.339-0.211-0.706-0.363-1.09-0.452c-0.05-0.011-0.089-0.047-0.105-0.095l-0.2-0.577h-1.041l-0.199,0.577
				c-0.017,0.048-0.057,0.083-0.105,0.095c-0.385,0.089-0.752,0.241-1.091,0.452c-0.042,0.027-0.095,0.029-0.141,0.008l-0.551-0.267
				l-0.735,0.736l0.267,0.552c0.021,0.045,0.02,0.099-0.008,0.141c-0.209,0.335-0.361,0.702-0.452,1.089
				c-0.012,0.049-0.047,0.088-0.095,0.104l-0.577,0.2v1.042l0.577,0.2c0.048,0.017,0.083,0.056,0.095,0.105
				c0.09,0.385,0.242,0.751,0.452,1.089c0.027,0.043,0.029,0.096,0.008,0.141l-0.267,0.552l0.735,0.735l0.551-0.267
				c0.046-0.022,0.099-0.019,0.142,0.008c0.336,0.209,0.702,0.362,1.089,0.452c0.049,0.011,0.088,0.047,0.104,0.094L15.479,18.136z"
				/>
		</g>
	</g>
</g>
</svg>
