<?xml version="1.0" encoding="utf-8"?>
<!-- Generator: Adobe Illustrator 16.0.0, SVG Export Plug-In . SVG Version: 6.00 Build 0)  -->
<!DOCTYPE svg PUBLIC "-//W3C//DTD SVG 1.1//EN" "http://www.w3.org/Graphics/SVG/1.1/DTD/svg11.dtd">
<svg version="1.1" id="Layer_1" xmlns="http://www.w3.org/2000/svg" xmlns:xlink="http://www.w3.org/1999/xlink" x="0px" y="0px"
	 width="32px" height="32px" viewBox="0 0 32 32" enable-background="new 0 0 32 32" xml:space="preserve">
<g>
	<g>
		<path d="M16,17.408c-3.092,0-5.545-3.141-5.648-3.274c-0.041-0.053-0.041-0.126,0-0.178c0.104-0.135,2.557-3.275,5.648-3.275
			c3.091,0,5.545,3.141,5.648,3.275c0.041,0.052,0.041,0.125,0,0.178C21.545,14.268,19.091,17.408,16,17.408z M10.656,14.045
			c0.426,0.514,2.68,3.071,5.344,3.071c2.664,0,4.918-2.558,5.344-3.071c-0.426-0.515-2.68-3.072-5.344-3.072
			C13.334,10.973,11.082,13.53,10.656,14.045z"/>
	</g>
	<g>
		<path d="M16,16.469c-1.337,0-2.426-1.088-2.426-2.424c0-1.338,1.088-2.427,2.426-2.427s2.425,1.089,2.425,2.427
			C18.425,15.381,17.337,16.469,16,16.469z M16,11.91c-1.176,0-2.133,0.958-2.133,2.135c0,1.175,0.957,2.131,2.133,2.131
			s2.132-0.956,2.132-2.131C18.132,12.868,17.176,11.91,16,11.91z"/>
	</g>
	<g>
		<circle cx="16" cy="14.043" r="0.911"/>
	</g>
	<g>
		<path d="M24.187,28.85H7.813c-0.564,0-1.023-0.459-1.023-1.023V4.174c0-0.563,0.459-1.023,1.023-1.023h16.374
			c0.565,0,1.024,0.46,1.024,1.023v23.652C25.21,28.391,24.751,28.85,24.187,28.85z M7.813,3.443c-0.403,0-0.731,0.328-0.731,0.73
			v23.652c0,0.403,0.329,0.731,0.731,0.731h16.374c0.404,0,0.731-0.328,0.731-0.731V4.174c0-0.402-0.328-0.73-0.731-0.73H7.813z"/>
	</g>
	<g>
		<circle cx="16" cy="26.714" r="0.663"/>
	</g>
	<g>
		<path d="M24.926,24.441H7.073c-0.081,0-0.146-0.065-0.146-0.146c0-0.08,0.065-0.146,0.146-0.146h17.853
			c0.081,0,0.146,0.066,0.146,0.146C25.073,24.376,25.007,24.441,24.926,24.441z"/>
	</g>
</g>
</svg>
