<?xml version="1.0" encoding="utf-8"?>
<!-- Generator: Adobe Illustrator 16.0.0, SVG Export Plug-In . SVG Version: 6.00 Build 0)  -->
<!DOCTYPE svg PUBLIC "-//W3C//DTD SVG 1.1//EN" "http://www.w3.org/Graphics/SVG/1.1/DTD/svg11.dtd">
<svg version="1.1" id="Layer_1" xmlns="http://www.w3.org/2000/svg" xmlns:xlink="http://www.w3.org/1999/xlink" x="0px" y="0px"
	 width="32px" height="32px" viewBox="0 0 32 32" enable-background="new 0 0 32 32" xml:space="preserve">
<g>
	<g>
		<g>
			<path d="M15.414,18.295c-2.088,0-3.739-2.115-3.809-2.206c-0.041-0.053-0.041-0.125,0-0.178c0.069-0.09,1.721-2.205,3.809-2.205
				s3.741,2.115,3.81,2.205c0.041,0.053,0.041,0.125,0,0.178C19.155,16.18,17.502,18.295,15.414,18.295z M11.91,16
				c0.337,0.399,1.795,2.003,3.504,2.003c1.712,0,3.169-1.604,3.506-2.003c-0.337-0.398-1.796-2.002-3.506-2.002
				C13.705,13.998,12.247,15.601,11.91,16z"/>
		</g>
		<g>
			<path d="M15.414,17.267c-0.697,0-1.265-0.568-1.265-1.267c0-0.697,0.567-1.265,1.265-1.265c0.699,0,1.267,0.567,1.267,1.265
				C16.681,16.698,16.113,17.267,15.414,17.267z M15.414,15.028c-0.536,0-0.973,0.436-0.973,0.972c0,0.537,0.437,0.975,0.973,0.975
				c0.537,0,0.975-0.438,0.975-0.975C16.389,15.464,15.951,15.028,15.414,15.028z"/>
		</g>
		<g>
			<circle cx="15.414" cy="16" r="0.359"/>
		</g>
	</g>
	<g>
		<g>
			<path d="M19.235,22.272h-7.643c-0.887,0-1.608-0.722-1.608-1.608v-9.327c0-0.887,0.722-1.608,1.608-1.608h7.643
				c0.888,0,1.609,0.722,1.609,1.608v9.327C20.845,21.551,20.123,22.272,19.235,22.272z M11.593,10.021
				c-0.725,0-1.315,0.591-1.315,1.316v9.327c0,0.726,0.591,1.315,1.315,1.315h7.643c0.727,0,1.316-0.59,1.316-1.315v-9.327
				c0-0.726-0.59-1.316-1.316-1.316H11.593z"/>
		</g>
		<g>
			<path d="M21.869,14.72c-0.08,0-0.146-0.065-0.146-0.146v-2.037c0-0.08,0.066-0.146,0.146-0.146c0.081,0,0.146,0.066,0.146,0.146
				v2.037C22.016,14.654,21.95,14.72,21.869,14.72z"/>
		</g>
		<g>
			<path d="M18.745,8.822c-0.081,0-0.146-0.066-0.146-0.147V6.346c0-0.241-0.197-0.438-0.438-0.438h-5.49
				c-0.242,0-0.439,0.197-0.439,0.438v2.329c0,0.081-0.064,0.147-0.146,0.147s-0.146-0.066-0.146-0.147V6.346
				c0-0.402,0.328-0.73,0.731-0.73h5.49c0.403,0,0.731,0.328,0.731,0.73v2.329C18.892,8.756,18.826,8.822,18.745,8.822z"/>
		</g>
		<g>
			<path d="M18.16,26.387h-5.49c-0.403,0-0.731-0.328-0.731-0.731v-2.33c0-0.081,0.065-0.146,0.146-0.146s0.146,0.065,0.146,0.146
				v2.33c0,0.241,0.197,0.438,0.439,0.438h5.49c0.241,0,0.438-0.197,0.438-0.438v-2.33c0-0.081,0.065-0.146,0.146-0.146
				s0.146,0.065,0.146,0.146v2.33C18.892,26.059,18.563,26.387,18.16,26.387z"/>
		</g>
	</g>
</g>
</svg>
