<?xml version="1.0" encoding="utf-8"?>
<!-- Generator: Adobe Illustrator 16.0.0, SVG Export Plug-In . SVG Version: 6.00 Build 0)  -->
<!DOCTYPE svg PUBLIC "-//W3C//DTD SVG 1.1//EN" "http://www.w3.org/Graphics/SVG/1.1/DTD/svg11.dtd">
<svg version="1.1" id="Layer_1" xmlns="http://www.w3.org/2000/svg" xmlns:xlink="http://www.w3.org/1999/xlink" x="0px" y="0px"
	 width="32px" height="32px" viewBox="0 0 32 32" enable-background="new 0 0 32 32" xml:space="preserve">
<g>
	<g>
		<g>
			<path d="M15.999,17.083c-3.091,0-5.544-3.142-5.647-3.274c-0.041-0.053-0.041-0.126,0-0.179c0.103-0.134,2.557-3.275,5.647-3.275
				c3.093,0,5.546,3.142,5.649,3.275c0.04,0.053,0.04,0.126,0,0.179C21.545,13.941,19.092,17.083,15.999,17.083z M10.655,13.719
				c0.426,0.515,2.681,3.072,5.344,3.072c2.668,0,4.92-2.558,5.345-3.072c-0.426-0.514-2.68-3.071-5.345-3.071
				C13.336,10.647,11.082,13.204,10.655,13.719z"/>
		</g>
		<g>
			<path d="M15.999,16.144c-1.337,0-2.424-1.088-2.424-2.425s1.087-2.425,2.424-2.425c1.338,0,2.425,1.088,2.425,2.425
				S17.337,16.144,15.999,16.144z M15.999,11.587c-1.176,0-2.132,0.956-2.132,2.132s0.956,2.133,2.132,2.133
				c1.177,0,2.133-0.957,2.133-2.133S17.176,11.587,15.999,11.587z"/>
		</g>
		<g>
			<circle cx="15.999" cy="13.719" r="0.91"/>
		</g>
	</g>
	<g>
		<g>
			<path d="M26.105,22.332H5.895c-0.565,0-1.024-0.459-1.024-1.023V7.607c0-0.564,0.459-1.024,1.024-1.024h20.21
				c0.564,0,1.023,0.46,1.023,1.024v13.701C27.129,21.873,26.67,22.332,26.105,22.332z M5.895,6.876
				c-0.404,0-0.731,0.328-0.731,0.731v13.701c0,0.403,0.328,0.731,0.731,0.731h20.21c0.403,0,0.73-0.328,0.73-0.731V7.607
				c0-0.403-0.327-0.731-0.73-0.731H5.895z"/>
		</g>
		<g>
			<path d="M26.982,20.618H5.017c-0.081,0-0.146-0.065-0.146-0.146c0-0.08,0.065-0.146,0.146-0.146h21.965
				c0.081,0,0.146,0.065,0.146,0.146C27.129,20.553,27.063,20.618,26.982,20.618z"/>
		</g>
		<g>
			<g>
				<path d="M11.629,25.215c-0.032,0-0.063-0.011-0.091-0.03c-0.062-0.05-0.074-0.142-0.025-0.206l2.237-2.888
					c0.049-0.063,0.141-0.075,0.205-0.025c0.063,0.049,0.075,0.141,0.026,0.204l-2.237,2.889
					C11.716,25.195,11.672,25.215,11.629,25.215z"/>
			</g>
			<g>
				<path d="M20.372,25.215c-0.045,0-0.088-0.02-0.116-0.057l-2.238-2.889c-0.049-0.063-0.037-0.155,0.026-0.204
					c0.063-0.05,0.156-0.038,0.205,0.025l2.238,2.888c0.049,0.064,0.037,0.156-0.027,0.206
					C20.435,25.204,20.402,25.215,20.372,25.215z"/>
			</g>
		</g>
		<g>
			<path d="M22.099,25.417H9.901c-0.081,0-0.146-0.065-0.146-0.146c0-0.082,0.066-0.147,0.146-0.147h12.197
				c0.081,0,0.146,0.065,0.146,0.147C22.245,25.352,22.18,25.417,22.099,25.417z"/>
		</g>
	</g>
</g>
</svg>
