<?xml version="1.0" encoding="utf-8"?>
<!-- Generator: Adobe Illustrator 16.0.0, SVG Export Plug-In . SVG Version: 6.00 Build 0)  -->
<!DOCTYPE svg PUBLIC "-//W3C//DTD SVG 1.1//EN" "http://www.w3.org/Graphics/SVG/1.1/DTD/svg11.dtd">
<svg version="1.1" id="Layer_1" xmlns="http://www.w3.org/2000/svg" xmlns:xlink="http://www.w3.org/1999/xlink" x="0px" y="0px"
	 width="32px" height="32px" viewBox="0 0 32 32" enable-background="new 0 0 32 32" xml:space="preserve">
<g>
	<g>
		<g>
			<path d="M15.997,16.753c-2.783,0-4.988-2.824-5.08-2.944c-0.041-0.053-0.041-0.126,0-0.179c0.092-0.12,2.297-2.945,5.08-2.945
				s4.989,2.825,5.082,2.945c0.04,0.053,0.04,0.126,0,0.179C20.986,13.929,18.78,16.753,15.997,16.753z M11.221,13.719
				c0.4,0.481,2.407,2.741,4.776,2.741s4.376-2.26,4.777-2.741c-0.401-0.481-2.409-2.742-4.777-2.742S11.621,13.237,11.221,13.719z"
				/>
		</g>
		<g>
			<path d="M15.997,15.529c-0.999,0-1.811-0.812-1.811-1.811c0-0.999,0.812-1.812,1.811-1.812c0.999,0,1.812,0.812,1.812,1.812
				C17.809,14.717,16.996,15.529,15.997,15.529z M15.997,12.2c-0.837,0-1.519,0.681-1.519,1.519c0,0.837,0.681,1.518,1.519,1.518
				c0.837,0,1.519-0.681,1.519-1.518C17.516,12.881,16.834,12.2,15.997,12.2z"/>
		</g>
		<g>
			<circle cx="15.997" cy="13.719" r="0.666"/>
		</g>
	</g>
	<g>
		<g>
			<path d="M26.102,22.129H5.892c-0.564,0-1.024-0.459-1.024-1.023v-13.7c0-0.565,0.46-1.024,1.024-1.024h20.21
				c0.564,0,1.023,0.459,1.023,1.024v13.7C27.125,21.67,26.667,22.129,26.102,22.129z M5.892,6.674
				c-0.403,0-0.731,0.327-0.731,0.731v13.7c0,0.403,0.329,0.731,0.731,0.731h20.21c0.403,0,0.731-0.328,0.731-0.731v-13.7
				c0-0.404-0.328-0.731-0.731-0.731H5.892z"/>
		</g>
		<g>
			<path d="M28.955,25.621c-0.001,0-0.004,0-0.006,0H3.045c-0.057,0-0.108-0.033-0.132-0.085c-0.024-0.051-0.016-0.112,0.021-0.155
				l1.922-2.278c0.028-0.032,0.069-0.051,0.112-0.051h22.06c0.043,0,0.084,0.019,0.112,0.051l1.901,2.253
				c0.037,0.026,0.061,0.07,0.061,0.119C29.101,25.556,29.036,25.621,28.955,25.621z M3.36,25.329h25.274l-1.675-1.985H5.035
				L3.36,25.329z"/>
		</g>
		<g>
			<path d="M26.979,20.416H5.015c-0.081,0-0.146-0.065-0.146-0.147c0-0.08,0.065-0.146,0.146-0.146h21.964
				c0.082,0,0.146,0.065,0.146,0.146C27.125,20.351,27.061,20.416,26.979,20.416z"/>
		</g>
	</g>
</g>
</svg>
