<?xml version="1.0" encoding="utf-8"?>
<!-- Generator: Adobe Illustrator 16.0.0, SVG Export Plug-In . SVG Version: 6.00 Build 0)  -->
<!DOCTYPE svg PUBLIC "-//W3C//DTD SVG 1.1//EN" "http://www.w3.org/Graphics/SVG/1.1/DTD/svg11.dtd">
<svg version="1.1" id="Layer_1" xmlns="http://www.w3.org/2000/svg" xmlns:xlink="http://www.w3.org/1999/xlink" x="0px" y="0px"
	 width="32px" height="32px" viewBox="0 0 32 32" enable-background="new 0 0 32 32" xml:space="preserve">
<g>
	<g>
		<path d="M16,16.606c-2.033,0-3.643-2.061-3.71-2.147c-0.041-0.053-0.041-0.127,0-0.18c0.067-0.087,1.677-2.146,3.71-2.146
			c2.034,0,3.643,2.06,3.71,2.146c0.04,0.053,0.04,0.127,0,0.179C19.643,14.546,18.034,16.606,16,16.606z M12.595,14.369
			c0.332,0.393,1.748,1.945,3.405,1.945c1.659,0,3.074-1.553,3.405-1.945c-0.331-0.393-1.747-1.944-3.405-1.944
			C14.342,12.425,12.926,13.977,12.595,14.369z"/>
	</g>
	<g>
		<path d="M16,15.595c-0.676,0-1.225-0.55-1.225-1.226s0.549-1.226,1.225-1.226s1.226,0.55,1.226,1.226S16.676,15.595,16,15.595z
			 M16,13.437c-0.514,0-0.932,0.419-0.932,0.933c0,0.515,0.418,0.934,0.932,0.934c0.515,0,0.934-0.419,0.934-0.934
			C16.934,13.855,16.515,13.437,16,13.437z"/>
	</g>
	<g>
		<circle cx="16" cy="14.37" r="0.431"/>
	</g>
	<g>
		<circle cx="16" cy="26.192" r="0.76"/>
	</g>
	<g>
		<path d="M21.01,28.363H10.99c-0.564,0-1.023-0.46-1.023-1.024V4.662c0-0.564,0.459-1.023,1.023-1.023h10.02
			c0.565,0,1.024,0.459,1.024,1.023v22.677C22.034,27.903,21.575,28.363,21.01,28.363z M10.99,3.931c-0.403,0-0.73,0.328-0.73,0.731
			v22.677c0,0.403,0.328,0.731,0.73,0.731h10.02c0.404,0,0.731-0.328,0.731-0.731V4.662c0-0.403-0.328-0.731-0.731-0.731H10.99z"/>
	</g>
	<g>
		<path d="M21.718,23.898H10.282c-0.081,0-0.146-0.065-0.146-0.146c0-0.081,0.065-0.146,0.146-0.146h11.436
			c0.081,0,0.146,0.065,0.146,0.146C21.865,23.833,21.799,23.898,21.718,23.898z"/>
	</g>
</g>
</svg>
