<?xml version="1.0" encoding="utf-8"?>
<!-- Generator: Adobe Illustrator 16.0.0, SVG Export Plug-In . SVG Version: 6.00 Build 0)  -->
<!DOCTYPE svg PUBLIC "-//W3C//DTD SVG 1.1//EN" "http://www.w3.org/Graphics/SVG/1.1/DTD/svg11.dtd">
<svg version="1.1" id="Layer_1" xmlns="http://www.w3.org/2000/svg" xmlns:xlink="http://www.w3.org/1999/xlink" x="0px" y="0px"
	 width="64px" height="64px" viewBox="0 0 64 64" enable-background="new 0 0 64 64" xml:space="preserve">
<g>
	<g>
		<path d="M25.194,39.173c-0.099,0-0.197-0.029-0.283-0.088c-0.202-0.139-0.273-0.404-0.169-0.625l4.317-9.116h-3.35
			c-0.165,0-0.318-0.081-0.412-0.217c-0.093-0.136-0.113-0.309-0.055-0.462l4.658-12.143c0.074-0.193,0.26-0.321,0.467-0.321h8.434
			c0.188,0,0.36,0.105,0.445,0.273c0.086,0.167,0.069,0.368-0.04,0.521l-5.051,6.967h4.646c0.2,0,0.381,0.12,0.46,0.304
			c0.078,0.184,0.04,0.397-0.099,0.542L25.556,39.019C25.458,39.12,25.327,39.173,25.194,39.173z M26.438,28.343h3.412
			c0.172,0,0.331,0.088,0.423,0.232c0.091,0.145,0.103,0.327,0.029,0.481l-3.335,7.042L37.631,24.96h-4.455
			c-0.188,0-0.36-0.105-0.445-0.273c-0.086-0.167-0.069-0.368,0.04-0.521l5.051-6.967h-7.109L26.438,28.343z"/>
	</g>
	<g>
		<circle cx="32" cy="54.915" r="1.708"/>
	</g>
	<g>
		<path d="M42.237,59.966H21.763c-1.93,0-3.5-1.57-3.5-3.5V7.534c0-1.93,1.57-3.5,3.5-3.5h20.475c1.93,0,3.5,1.57,3.5,3.5v48.932
			C45.737,58.396,44.167,59.966,42.237,59.966z M21.763,5.034c-1.379,0-2.5,1.122-2.5,2.5v48.932c0,1.378,1.121,2.5,2.5,2.5h20.475
			c1.379,0,2.5-1.122,2.5-2.5V7.534c0-1.378-1.121-2.5-2.5-2.5H21.763z"/>
	</g>
	<g>
		<path d="M44.852,49.931H19.144c-0.276,0-0.5-0.224-0.5-0.5s0.224-0.5,0.5-0.5h25.708c0.276,0,0.5,0.224,0.5,0.5
			S45.128,49.931,44.852,49.931z"/>
	</g>
</g>
</svg>
