<?xml version="1.0" encoding="utf-8"?>
<!-- Generator: Adobe Illustrator 16.0.0, SVG Export Plug-In . SVG Version: 6.00 Build 0)  -->
<!DOCTYPE svg PUBLIC "-//W3C//DTD SVG 1.1//EN" "http://www.w3.org/Graphics/SVG/1.1/DTD/svg11.dtd">
<svg version="1.1" id="Layer_1" xmlns="http://www.w3.org/2000/svg" xmlns:xlink="http://www.w3.org/1999/xlink" x="0px" y="0px"
	 width="64px" height="64px" viewBox="0 0 64 64" enable-background="new 0 0 64 64" xml:space="preserve">
<g>
	<g>
		<path d="M22.388,43.715c-0.099,0-0.197-0.029-0.283-0.088c-0.202-0.139-0.273-0.404-0.169-0.625l6.239-13.185h-5.057
			c-0.165,0-0.318-0.081-0.412-0.217c-0.093-0.136-0.113-0.309-0.055-0.462l6.585-17.157c0.074-0.193,0.26-0.321,0.467-0.321h11.916
			c0.188,0,0.36,0.105,0.445,0.273c0.086,0.167,0.069,0.368-0.04,0.521L34.646,22.63h6.974c0.2,0,0.381,0.12,0.46,0.304
			c0.078,0.184,0.04,0.397-0.099,0.542L22.749,43.561C22.651,43.663,22.521,43.715,22.388,43.715z M23.846,28.817h5.119
			c0.171,0,0.331,0.088,0.423,0.232c0.091,0.145,0.103,0.327,0.029,0.481l-5.259,11.113l16.29-17.014h-6.783
			c-0.188,0-0.36-0.105-0.445-0.273c-0.086-0.167-0.069-0.368,0.04-0.521l7.379-10.177H30.047L23.846,28.817z"/>
	</g>
	<g>
		<path d="M49.379,61.062H14.621c-1.93,0-3.5-1.57-3.5-3.5V6.438c0-1.93,1.57-3.5,3.5-3.5h34.758c1.93,0,3.5,1.57,3.5,3.5v51.124
			C52.879,59.492,51.309,61.062,49.379,61.062z M14.621,3.938c-1.379,0-2.5,1.122-2.5,2.5v51.124c0,1.378,1.121,2.5,2.5,2.5h34.758
			c1.379,0,2.5-1.122,2.5-2.5V6.438c0-1.378-1.121-2.5-2.5-2.5H14.621z"/>
	</g>
	<g>
		<path d="M33.491,56.088c0,0.822-0.666,1.491-1.491,1.491c-0.821,0-1.493-0.668-1.493-1.491c0-0.825,0.672-1.493,1.493-1.493
			C32.825,54.595,33.491,55.263,33.491,56.088z"/>
	</g>
	<g>
		<path d="M52.071,51.153H11.933c-0.276,0-0.5-0.224-0.5-0.5s0.224-0.5,0.5-0.5h40.139c0.276,0,0.5,0.224,0.5,0.5
			S52.348,51.153,52.071,51.153z"/>
	</g>
</g>
</svg>
