<?xml version="1.0" encoding="utf-8"?>
<!-- Generator: Adobe Illustrator 16.0.0, SVG Export Plug-In . SVG Version: 6.00 Build 0)  -->
<!DOCTYPE svg PUBLIC "-//W3C//DTD SVG 1.1//EN" "http://www.w3.org/Graphics/SVG/1.1/DTD/svg11.dtd">
<svg version="1.1" id="Layer_1" xmlns="http://www.w3.org/2000/svg" xmlns:xlink="http://www.w3.org/1999/xlink" x="0px" y="0px"
	 width="64px" height="64px" viewBox="0 0 64 64" enable-background="new 0 0 64 64" xml:space="preserve">
<g>
	<polygon fill="none" stroke="#000000" stroke-linecap="round" stroke-linejoin="round" stroke-miterlimit="10" points="
		38.445,16.475 30.456,16.475 26.05,27.975 29.969,27.975 25.559,37.285 38.445,23.825 33.114,23.825 	"/>
	<g>
		<g>
			<path d="M53.694,46.407H10.306c-1.93,0-3.5-1.57-3.5-3.5V14.158c0-1.93,1.57-3.5,3.5-3.5h43.389c1.93,0,3.5,1.57,3.5,3.5v28.749
				C57.194,44.836,55.624,46.407,53.694,46.407z M10.306,11.658c-1.379,0-2.5,1.122-2.5,2.5v28.749c0,1.378,1.121,2.5,2.5,2.5
				h43.389c1.379,0,2.5-1.122,2.5-2.5V14.158c0-1.378-1.121-2.5-2.5-2.5H10.306z"/>
		</g>
		<g>
			<path d="M56.694,42.554H7.306c-0.276,0-0.5-0.224-0.5-0.5s0.224-0.5,0.5-0.5h49.389c0.276,0,0.5,0.224,0.5,0.5
				S56.971,42.554,56.694,42.554z"/>
		</g>
		<g>
			<g>
				<path d="M22.172,52.886c-0.107,0-0.215-0.034-0.307-0.105c-0.218-0.169-0.258-0.483-0.089-0.701l5.031-6.491
					c0.17-0.219,0.483-0.257,0.702-0.089c0.218,0.169,0.258,0.483,0.089,0.701l-5.031,6.491
					C22.469,52.82,22.321,52.886,22.172,52.886z"/>
			</g>
			<g>
				<path d="M41.824,52.886c-0.149,0-0.297-0.067-0.396-0.194l-5.023-6.491c-0.169-0.218-0.129-0.533,0.09-0.702
					c0.217-0.169,0.531-0.129,0.701,0.089l5.023,6.491c0.169,0.219,0.129,0.533-0.09,0.702
					C42.039,52.852,41.932,52.886,41.824,52.886z"/>
			</g>
		</g>
		<g>
			<path d="M45.717,53.343h-27.43c-0.276,0-0.5-0.224-0.5-0.5s0.224-0.5,0.5-0.5h27.43c0.276,0,0.5,0.224,0.5,0.5
				S45.993,53.343,45.717,53.343z"/>
		</g>
	</g>
</g>
</svg>
