<?xml version="1.0" encoding="utf-8"?>
<!-- Generator: Adobe Illustrator 16.0.0, SVG Export Plug-In . SVG Version: 6.00 Build 0)  -->
<!DOCTYPE svg PUBLIC "-//W3C//DTD SVG 1.1//EN" "http://www.w3.org/Graphics/SVG/1.1/DTD/svg11.dtd">
<svg version="1.1" id="Layer_1" xmlns="http://www.w3.org/2000/svg" xmlns:xlink="http://www.w3.org/1999/xlink" x="0px" y="0px"
	 width="64px" height="64px" viewBox="0 0 64 64" enable-background="new 0 0 64 64" xml:space="preserve">
<g>
	<polygon fill="none" stroke="#000000" stroke-linecap="round" stroke-linejoin="round" stroke-miterlimit="10" points="
		38.284,16.811 30.495,16.811 26.197,28.021 30.012,28.021 25.717,37.099 38.284,23.979 33.089,23.979 	"/>
	<g>
		<g>
			<path d="M53.696,45.949H10.308c-1.93,0-3.5-1.57-3.5-3.5v-28.75c0-1.93,1.57-3.5,3.5-3.5h43.389c1.93,0,3.5,1.57,3.5,3.5v28.75
				C57.196,44.378,55.626,45.949,53.696,45.949z M10.308,11.199c-1.379,0-2.5,1.122-2.5,2.5v28.75c0,1.378,1.121,2.5,2.5,2.5h43.389
				c1.379,0,2.5-1.122,2.5-2.5v-28.75c0-1.378-1.121-2.5-2.5-2.5H10.308z"/>
		</g>
		<g>
			<path d="M61.137,53.799c-0.005,0-0.012,0.001-0.02,0H2.883c-0.194,0-0.371-0.113-0.453-0.29
				c-0.082-0.176-0.055-0.384,0.071-0.533l4.32-5.118c0.095-0.112,0.234-0.177,0.382-0.177h49.593c0.147,0,0.287,0.065,0.382,0.177
				l4.251,5.034c0.126,0.091,0.208,0.239,0.208,0.407C61.637,53.576,61.413,53.799,61.137,53.799z M3.959,52.799h56.082
				l-3.478-4.118H7.436L3.959,52.799z"/>
		</g>
		<g>
			<path d="M56.696,42.099H7.308c-0.276,0-0.5-0.224-0.5-0.5s0.224-0.5,0.5-0.5h49.389c0.276,0,0.5,0.224,0.5,0.5
				S56.973,42.099,56.696,42.099z"/>
		</g>
	</g>
</g>
</svg>
