<?xml version="1.0" encoding="utf-8"?>
<!-- Generator: Adobe Illustrator 16.0.0, SVG Export Plug-In . SVG Version: 6.00 Build 0)  -->
<!DOCTYPE svg PUBLIC "-//W3C//DTD SVG 1.1//EN" "http://www.w3.org/Graphics/SVG/1.1/DTD/svg11.dtd">
<svg version="1.1" id="Layer_1" xmlns="http://www.w3.org/2000/svg" xmlns:xlink="http://www.w3.org/1999/xlink" x="0px" y="0px"
	 width="64px" height="64px" viewBox="0 0 64 64" enable-background="new 0 0 64 64" xml:space="preserve">
<g>
	<polygon fill="none" stroke="#000000" stroke-linecap="round" stroke-linejoin="round" stroke-miterlimit="10" points="
		35.701,23.903 29.486,23.903 26.051,32.852 29.104,32.852 25.67,40.095 35.701,29.624 31.553,29.624 	"/>
	<g>
		<g>
			<path d="M37.564,46.274h-13.76c-3.032,0-5.5-2.467-5.5-5.5V23.227c0-3.033,2.468-5.5,5.5-5.5h13.76c3.032,0,5.5,2.467,5.5,5.5
				v17.547C43.064,43.807,40.597,46.274,37.564,46.274z M23.805,18.727c-2.481,0-4.5,2.019-4.5,4.5v17.547
				c0,2.481,2.019,4.5,4.5,4.5h13.76c2.481,0,4.5-2.019,4.5-4.5V23.227c0-2.481-2.019-4.5-4.5-4.5H23.805z"/>
		</g>
		<g>
			<path d="M45.195,29.29c-0.276,0-0.5-0.224-0.5-0.5v-4.577c0-0.276,0.224-0.5,0.5-0.5s0.5,0.224,0.5,0.5v4.577
				C45.695,29.066,45.472,29.29,45.195,29.29z"/>
		</g>
		<g>
			<path d="M38.172,16.031c-0.276,0-0.5-0.224-0.5-0.5v-4.552c0-0.827-0.673-1.5-1.5-1.5H25.195c-0.827,0-1.5,0.673-1.5,1.5v4.552
				c0,0.276-0.224,0.5-0.5,0.5s-0.5-0.224-0.5-0.5v-4.552c0-1.378,1.121-2.5,2.5-2.5h10.977c1.379,0,2.5,1.122,2.5,2.5v4.552
				C38.672,15.807,38.448,16.031,38.172,16.031z"/>
		</g>
		<g>
			<path d="M36.172,55.523H25.195c-1.379,0-2.5-1.122-2.5-2.5v-4.555c0-0.276,0.224-0.5,0.5-0.5s0.5,0.224,0.5,0.5v4.555
				c0,0.827,0.673,1.5,1.5,1.5h10.977c0.827,0,1.5-0.673,1.5-1.5v-4.555c0-0.276,0.224-0.5,0.5-0.5s0.5,0.224,0.5,0.5v4.555
				C38.672,54.402,37.551,55.523,36.172,55.523z"/>
		</g>
	</g>
</g>
</svg>
