<?xml version="1.0" encoding="utf-8"?>
<!-- Generator: Adobe Illustrator 16.0.0, SVG Export Plug-In . SVG Version: 6.00 Build 0)  -->
<!DOCTYPE svg PUBLIC "-//W3C//DTD SVG 1.1//EN" "http://www.w3.org/Graphics/SVG/1.1/DTD/svg11.dtd">
<svg version="1.1" id="Layer_1" xmlns="http://www.w3.org/2000/svg" xmlns:xlink="http://www.w3.org/1999/xlink" x="0px" y="0px"
	 width="128px" height="128px" viewBox="0 0 128 128" enable-background="new 0 0 128 128" xml:space="preserve">
<g>
	<g>
		<path fill="none" stroke="#000000" stroke-width="2" stroke-linecap="round" stroke-linejoin="round" stroke-miterlimit="10" d="
			M55.943,64.474l4.445,4.365 M60.389,68.839l8.684-8.781"/>
		<path fill="none" stroke="#000000" stroke-width="2" stroke-linecap="round" stroke-linejoin="round" stroke-miterlimit="10" d="
			M61.789,51.93c0,0,5.885,3.583,11.789,3.583c0,9.009-4.715,19.389-11.553,22.895h-0.475C54.715,74.902,50,64.522,50,55.513
			C55.904,55.513,61.789,51.93,61.789,51.93"/>
	</g>
	<g>
		<g>
			<path d="M77.125,89.748H46.451c-3.309,0-6-2.691-6-6V46.59c0-3.309,2.691-6,6-6h30.674c3.309,0,6,2.691,6,6v37.157
				C83.125,87.056,80.434,89.748,77.125,89.748z M46.451,42.59c-2.206,0-4,1.794-4,4v37.157c0,2.206,1.794,4,4,4h30.674
				c2.206,0,4-1.794,4-4V46.59c0-2.206-1.794-4-4-4H46.451z"/>
		</g>
		<g>
			<path d="M86.631,60.672c-0.553,0-1-0.448-1-1v-7.835c0-0.552,0.447-1,1-1s1,0.448,1,1v7.835
				C87.631,60.225,87.184,60.672,86.631,60.672z"/>
		</g>
		<g>
			<path d="M74.609,37.974c-0.553,0-1-0.448-1-1v-9.222c0-0.551-0.448-1-1-1H50.969c-0.552,0-1,0.449-1,1v9.222c0,0.552-0.447,1-1,1
				s-1-0.448-1-1v-9.222c0-1.654,1.346-3,3-3h21.641c1.654,0,3,1.346,3,3v9.222C75.609,37.526,75.162,37.974,74.609,37.974z"/>
		</g>
		<g>
			<path d="M72.609,105.588H50.969c-1.654,0-3-1.346-3-3v-9.224c0-0.552,0.447-1,1-1s1,0.448,1,1v9.224c0,0.551,0.448,1,1,1h21.641
				c0.552,0,1-0.449,1-1v-9.224c0-0.552,0.447-1,1-1s1,0.448,1,1v9.224C75.609,104.242,74.264,105.588,72.609,105.588z"/>
		</g>
	</g>
</g>
</svg>
