<?xml version="1.0" encoding="utf-8"?>
<!-- Generator: Adobe Illustrator 16.0.0, SVG Export Plug-In . SVG Version: 6.00 Build 0)  -->
<!DOCTYPE svg PUBLIC "-//W3C//DTD SVG 1.1//EN" "http://www.w3.org/Graphics/SVG/1.1/DTD/svg11.dtd">
<svg version="1.1" id="Layer_1" xmlns="http://www.w3.org/2000/svg" xmlns:xlink="http://www.w3.org/1999/xlink" x="0px" y="0px"
	 width="128px" height="128px" viewBox="0 0 128 128" enable-background="new 0 0 128 128" xml:space="preserve">
<g>
	<g>
		<g>
			<path d="M61.602,63.789c-0.01,0-0.02,0-0.029,0l0,0c-0.001,0-0.002,0-0.002,0c-0.001,0-0.001,0-0.002,0h-0.001
				c-0.001,0-0.001,0-0.002,0c0,0,0,0-0.001,0c0,0-0.001,0-0.002,0l0,0c-0.001,0-0.002,0-0.003,0l0,0c-0.001,0-0.002,0-0.003,0l0,0
				c-0.124-0.005-0.247-0.034-0.362-0.085l0,0c-0.001,0-0.002-0.001-0.003-0.001l0,0c-0.001,0-0.002,0-0.003-0.001l0,0
				c-0.001,0-0.002-0.001-0.003-0.001l0,0c-0.001,0-0.001,0-0.002-0.001h-0.001c0,0-0.001-0.001-0.002-0.001
				c0,0,0.005,0-0.003-0.001v0c-0.001,0-0.002,0-0.003-0.001l0,0c-0.001,0-0.002-0.001-0.002-0.001c-0.001,0-0.001,0-0.001,0
				c-0.001,0-0.001,0-0.002-0.001l-0.001,0c-0.001,0-0.001,0-0.002-0.001c0,0,0,0-0.001,0c0,0,0.006,0.002-0.003-0.001
				c0-0.001-0.002-0.001-0.002-0.001c-0.001,0-0.002,0-0.002,0l-0.001-0.001c-0.001,0,0,0.006-0.003-0.001
				c-0.001,0,0.008,0.002-0.003-0.001c0,0-0.002-0.001-0.003-0.001c0-0.001-0.001-0.001-0.003-0.001c0,0-0.002,0.002-0.002-0.001
				c-0.001,0-0.001,0-0.001,0c-0.001,0-0.002,0-0.002,0l-0.001-0.001c-0.001,0-0.001,0-0.002-0.001l-0.001,0
				c0,0-0.001,0-0.002-0.001c0,0,0,0-0.001,0c0,0-0.001,0-0.002-0.001c0,0-0.002-0.001-0.002-0.001c-0.001,0-0.001,0-0.001,0
				c-0.001,0-0.001-0.001-0.002-0.001c0,0,0.007,0.003-0.003-0.001l0,0c-0.001,0-0.002-0.001-0.003-0.001l0,0
				c-0.003,0-0.003-0.001-0.003-0.001c-0.076-0.042-0.148-0.095-0.214-0.159c-0.002-0.001-0.003-0.003-0.005-0.004l-7.725-7.596
				c-0.394-0.387-0.399-1.02-0.012-1.414c0.385-0.395,1.021-0.399,1.414-0.012l7.014,6.896l14.41-14.562
				c0.388-0.392,1.022-0.396,1.414-0.007c0.393,0.389,0.396,1.022,0.008,1.415L62.312,63.492c-0.066,0.067-0.14,0.123-0.219,0.167
				l0,0c-0.002,0.001-0.003,0.001-0.003,0.001s-0.001,0.001-0.002,0.001c0,0-0.001,0-0.003,0.001v0c-0.001,0-0.002,0-0.003,0.001v0
				c-0.003,0.001-0.003,0.001-0.003,0.001c-0.001,0-0.001,0-0.002,0.001l-0.001,0c0,0-0.001,0-0.002,0.001
				c0,0-0.001-0.001-0.002,0.001l-0.001,0c-0.002,0.001-0.003,0.002-0.003,0.001c-0.001,0-0.001,0-0.002,0.001l-0.001,0
				c-0.001,0-0.001,0-0.002,0.001l-0.001,0c0.001,0.001-0.001,0.001-0.003,0.001l-0.001,0c-0.001,0-0.001,0-0.002,0.001l-0.001,0
				c0,0-0.001,0-0.002,0.001c0,0,0.001-0.003-0.002,0.001c-0.002,0-0.003,0-0.003,0.001c-0.002,0-0.004,0-0.003,0.001h-0.001
				c-0.001,0,0,0.001-0.003,0.001c-0.001,0-0.001,0.001-0.002,0.001c0,0,0.005-0.001-0.003,0.001c0,0-0.001,0-0.003,0.001l0,0
				c-0.001,0-0.002,0.001-0.003,0.001l0,0c-0.001,0-0.002,0.001-0.003,0.001v0C61.895,63.756,61.748,63.789,61.602,63.789z"/>
		</g>
		<g>
			<path d="M64.455,80.426h-0.83c-0.158,0-0.315-0.038-0.456-0.11c-11.569-5.93-20.632-23.808-20.632-40.7c0-0.552,0.447-1,1-1
				c9.865,0,19.88-6.025,19.979-6.086c0.319-0.194,0.721-0.194,1.04,0c0.101,0.061,10.127,6.087,19.986,6.087c0.553,0,1,0.448,1,1
				c0,16.894-9.062,34.772-20.632,40.701C64.77,80.388,64.613,80.426,64.455,80.426z M63.869,78.426h0.342
				c10.637-5.61,18.987-22.022,19.321-37.829c-8.869-0.327-17.325-4.819-19.495-6.055c-2.168,1.237-10.616,5.729-19.489,6.055
				C44.882,56.402,53.232,72.813,63.869,78.426z"/>
		</g>
	</g>
	<g>
		<path d="M95.932,115.068H32.15c-2.206,0-4-1.794-4-4V19.27c0-2.206,1.794-4,4-4h63.781c2.206,0,4,1.794,4,4v91.798
			C99.932,113.273,98.138,115.068,95.932,115.068z M32.15,17.27c-1.103,0-2,0.897-2,2v91.798c0,1.103,0.897,2,2,2h63.781
			c1.103,0,2-0.897,2-2V19.27c0-1.103-0.897-2-2-2H32.15z"/>
	</g>
	<g>
		<path d="M66.598,106.407c0,1.409-1.145,2.552-2.561,2.552c-1.404,0-2.553-1.143-2.553-2.552c0-1.412,1.148-2.555,2.553-2.555
			C65.453,103.852,66.598,104.995,66.598,106.407z"/>
	</g>
	<g>
		<path d="M98.404,98.1H29.682c-0.553,0-1-0.448-1-1s0.447-1,1-1h68.723c0.553,0,1,0.448,1,1S98.957,98.1,98.404,98.1z"/>
	</g>
</g>
</svg>
