<?xml version="1.0" encoding="utf-8"?>
<!-- Generator: Adobe Illustrator 16.0.0, SVG Export Plug-In . SVG Version: 6.00 Build 0)  -->
<!DOCTYPE svg PUBLIC "-//W3C//DTD SVG 1.1//EN" "http://www.w3.org/Graphics/SVG/1.1/DTD/svg11.dtd">
<svg version="1.1" id="Layer_1" xmlns="http://www.w3.org/2000/svg" xmlns:xlink="http://www.w3.org/1999/xlink" x="0px" y="0px"
	 width="128px" height="128px" viewBox="0 0 128 128" enable-background="new 0 0 128 128" xml:space="preserve">
<g>
	<g>
		<g>
			<path d="M62.412,64.167c-0.237,0-0.476-0.084-0.664-0.252c0.001,0.001-0.001,0-0.003-0.002l0,0c-0.001,0-0.001-0.001-0.002-0.002
				c0,0,0.001-0.001-0.003-0.002v0c-0.001-0.001,0.001-0.003-0.003-0.002c0.001,0-0.002-0.001-0.002-0.002
				c-0.001,0-0.003-0.001-0.003-0.002l-0.001,0c0-0.001-0.001-0.001-0.002-0.002c0,0.001,0,0-0.002-0.002
				c0-0.001,0-0.001-0.003-0.002c0,0,0,0,0,0c-0.005-0.004-0.01-0.009-0.015-0.014l-5.148-5.07
				c-0.393-0.387-0.397-1.021-0.011-1.414c0.388-0.394,1.02-0.399,1.415-0.011l4.438,4.37l9.38-9.476
				c0.388-0.392,1.022-0.396,1.414-0.007c0.393,0.389,0.396,1.022,0.008,1.415L63.123,63.871c-0.02,0.02-0.039,0.038-0.06,0.056l0,0
				c-0.001,0-0.002,0.001-0.002,0.001l-0.001,0c-0.001,0.001-0.002,0.001-0.002,0.001l-0.001,0.001c0,0-0.003,0.001-0.002,0.002
				c-0.002,0.001-0.003,0.001-0.003,0.002c0,0-0.001,0.001-0.002,0.001l-0.002,0.002l-0.001,0c-0.001,0-0.001,0.001-0.002,0.001
				c0,0,0,0-0.002,0.002c-0.002,0.001-0.001,0.001-0.003,0.002c0,0-0.003,0-0.002,0.002c-0.002,0.003-0.001,0.001-0.003,0.002
				c0,0-0.001,0.001-0.001,0.001c0,0-0.001,0.001-0.001,0.001c-0.001,0,0.008,0.004-0.003,0.002c0,0.001-0.002,0.002-0.002,0.002
				c-0.001,0-0.001,0.001-0.002,0.001l-0.001,0c0.001,0.001-0.001,0.001-0.002,0.002s-0.002,0.001-0.002,0.001l-0.001,0
				c-0.001,0-0.001,0.001-0.002,0.001v0c-0.003,0.001-0.003,0.001-0.003,0.002c-0.001,0-0.001,0.001-0.002,0.001
				c0,0,0,0-0.003,0.002c0.001,0.001-0.002,0.001-0.002,0.001l-0.001,0c0,0-0.001,0.001-0.001,0.001l-0.001,0
				c-0.001,0-0.002,0.001-0.003,0.002l0,0c0,0-0.003,0.001-0.002,0.002c-0.001,0-0.002,0.001-0.003,0.001v0
				c-0.003,0.001-0.003,0.002-0.003,0.002c0,0-0.001,0.001-0.002,0.001l0,0c0,0-0.002,0.001-0.003,0.002l0,0
				c-0.04,0.028-0.082,0.054-0.125,0.076l0,0c-0.001,0-0.002,0.001-0.003,0.001l0,0c-0.001,0-0.002,0.001-0.003,0.001l0,0
				c-0.001,0-0.002,0.001-0.002,0.001h-0.001l-0.002,0.001l0,0c-0.001,0-0.002,0-0.002,0l-0.001,0c-0.001,0-0.002,0.001-0.003,0.001
				l0,0l-0.003,0.001l0,0c-0.001,0-0.002,0.001-0.003,0.001l0,0c0,0-0.002,0-0.002,0.001l-0.001,0l-0.002,0.001
				c0,0,0.009-0.001-0.003,0.001l0,0c-0.001,0-0.002,0-0.002,0l-0.001,0.001c-0.001,0-0.002,0-0.003,0.001l0,0l-0.003,0.001l0,0
				c-0.002,0.001-0.004,0-0.003,0.001c0,0-0.002,0-0.002,0.001h-0.001c-0.001,0-0.001,0.001-0.001,0.001l-0.002,0
				c0,0-0.001,0-0.002,0.001c0,0,0.008,0.002-0.003,0.001c0,0,0,0-0.001,0c0,0-0.001,0-0.002,0.001l0,0
				c-0.001,0-0.002,0.001-0.003,0.001v0c-0.002,0.001-0.003,0-0.003,0c-0.001,0.001-0.002,0.001-0.002,0.001
				c-0.001,0-0.001,0-0.001,0c-0.002,0-0.003,0.001-0.003,0.001c-0.001,0-0.001,0-0.002,0.001l-0.001,0c0,0,0,0.002-0.003,0.001
				c-0.001,0-0.001,0-0.001,0s-0.002,0.001-0.004,0.001l-0.001,0c0,0,0.009,0.003-0.003,0.001c0,0-0.001,0-0.002,0.001
				c0,0,0,0-0.001,0l-0.001,0c0,0-0.001,0-0.002,0l-0.001,0c-0.001,0,0.001,0-0.003,0.001c0,0-0.001,0-0.002,0
				c0,0-0.002,0-0.003,0.001l-0.001,0c-0.001,0,0,0.001-0.003,0.001c0,0,0.008,0-0.003,0.001c0,0-0.001,0-0.002,0.001
				c0,0,0,0-0.001,0c0,0-0.001,0-0.002,0l-0.001,0l-0.002,0c0,0,0,0-0.001,0l-0.001,0c-0.001,0-0.001,0-0.001,0l-0.002,0l-0.001,0
				c-0.003,0.001-0.003,0-0.003,0c-0.001,0.001-0.002,0.001-0.002,0.001l-0.001,0c-0.001,0-0.002,0-0.003,0.001l0,0
				c-0.001,0-0.002,0-0.002,0l-0.001,0c-0.001,0-0.002,0-0.003,0.001l0,0c-0.001,0-0.002,0-0.002,0l-0.001,0
				c-0.001,0-0.002,0-0.003,0.001l0,0c-0.001,0-0.002,0-0.003,0.001l0,0c0,0-0.002,0-0.003,0.001l0,0c-0.001,0-0.002,0-0.003,0.001
				l0,0c0,0-0.002,0-0.003,0.001l0,0c-0.001,0-0.002,0-0.003,0.001l0,0c0,0-0.002,0-0.003,0.001l0,0
				C62.614,64.152,62.513,64.167,62.412,64.167z"/>
		</g>
		<g>
			<path d="M64.322,75.265h-0.559c-0.158,0-0.315-0.038-0.456-0.11c-7.815-4.006-13.937-16.061-13.937-27.444c0-0.552,0.447-1,1-1
				c6.479,0,13.084-3.971,13.15-4.011c0.317-0.194,0.72-0.194,1.039,0c0.066,0.04,6.678,4.011,13.158,4.011c0.553,0,1,0.448,1,1
				c0,11.379-6.123,23.435-13.94,27.444C64.638,75.228,64.481,75.265,64.322,75.265z M64.01,73.265h0.066
				c6.889-3.69,12.303-14.289,12.627-24.582c-5.663-0.305-11-3.045-12.662-3.974c-1.66,0.929-6.994,3.668-12.654,3.974
				C51.711,58.979,57.123,69.578,64.01,73.265z"/>
		</g>
	</g>
	<g>
		<path d="M83.701,113.193h-39.32c-2.206,0-4-1.794-4-4V21.145c0-2.206,1.794-4,4-4h39.32c2.206,0,4,1.794,4,4v88.048
			C87.701,111.398,85.907,113.193,83.701,113.193z M44.381,19.145c-1.103,0-2,0.897-2,2v88.048c0,1.103,0.897,2,2,2h39.32
			c1.103,0,2-0.897,2-2V21.145c0-1.103-0.897-2-2-2H44.381z"/>
	</g>
	<g>
		<path d="M86.053,96.013H42.029c-0.553,0-1-0.448-1-1s0.447-1,1-1h44.023c0.553,0,1,0.448,1,1S86.605,96.013,86.053,96.013z"/>
	</g>
	<g>
		<path d="M66.598,103.9c0,1.412-1.146,2.554-2.557,2.554c-1.414,0-2.553-1.143-2.553-2.554c0-1.41,1.139-2.552,2.553-2.552
			C65.451,101.348,66.598,102.491,66.598,103.9z"/>
	</g>
</g>
</svg>
