<?xml version="1.0" encoding="utf-8"?>
<!-- Generator: Adobe Illustrator 16.0.0, SVG Export Plug-In . SVG Version: 6.00 Build 0)  -->
<!DOCTYPE svg PUBLIC "-//W3C//DTD SVG 1.1//EN" "http://www.w3.org/Graphics/SVG/1.1/DTD/svg11.dtd">
<svg version="1.1" id="Layer_1" xmlns="http://www.w3.org/2000/svg" xmlns:xlink="http://www.w3.org/1999/xlink" x="0px" y="0px"
	 width="48px" height="48px" viewBox="0 0 48 48" enable-background="new 0 0 48 48" xml:space="preserve">
<g>
	<g>
		<g>
			<path d="M39.367,33.748H8.633c-0.965,0-1.748-0.785-1.748-1.748V11.262c0-0.963,0.783-1.748,1.748-1.748h30.734
				c0.965,0,1.748,0.785,1.748,1.748V32C41.115,32.963,40.332,33.748,39.367,33.748z M8.633,10.014
				c-0.689,0-1.248,0.559-1.248,1.248V32c0,0.688,0.559,1.248,1.248,1.248h30.734c0.689,0,1.25-0.561,1.25-1.248V11.262
				c0-0.689-0.561-1.248-1.25-1.248H8.633z"/>
		</g>
		<g>
			<path d="M40.865,31.117H7.135c-0.139,0-0.25-0.111-0.25-0.25c0-0.137,0.111-0.248,0.25-0.248h33.73
				c0.139,0,0.25,0.111,0.25,0.248C41.115,31.006,41.004,31.117,40.865,31.117z"/>
		</g>
		<g>
			<g>
				<path d="M17.287,38.174c-0.053,0-0.107-0.018-0.152-0.053c-0.109-0.084-0.129-0.242-0.045-0.352l3.436-4.432
					c0.084-0.109,0.24-0.129,0.35-0.045s0.129,0.242,0.045,0.352l-3.434,4.432C17.436,38.141,17.363,38.174,17.287,38.174z"/>
			</g>
			<g>
				<path d="M30.713,38.174c-0.074,0-0.148-0.033-0.197-0.098l-3.436-4.432c-0.084-0.109-0.064-0.268,0.045-0.352
					s0.266-0.064,0.352,0.045l3.434,4.432c0.084,0.109,0.064,0.268-0.045,0.352C30.82,38.156,30.766,38.174,30.713,38.174z"/>
			</g>
		</g>
		<g>
			<path d="M33.365,38.486h-18.73c-0.139,0-0.25-0.113-0.25-0.25c0-0.139,0.111-0.25,0.25-0.25h18.73c0.139,0,0.25,0.111,0.25,0.25
				C33.615,38.373,33.504,38.486,33.365,38.486z"/>
		</g>
	</g>
	<g>
		<path d="M24,27.385c-0.031,0-0.064-0.006-0.096-0.018c-0.094-0.039-0.154-0.131-0.154-0.232v-5.85l-2.801,2.801
			c-0.098,0.098-0.256,0.098-0.352,0c-0.098-0.098-0.098-0.256,0-0.354l3.152-3.162l-3.152-3.152c-0.098-0.098-0.098-0.256,0-0.354
			c0.096-0.098,0.254-0.098,0.352,0l2.801,2.801v-5.85c0-0.102,0.061-0.193,0.154-0.232c0.094-0.037,0.201-0.016,0.271,0.055
			l3.227,3.227c0.047,0.047,0.074,0.109,0.074,0.176s-0.027,0.131-0.074,0.178L24.25,20.58l3.152,3.152
			c0.098,0.098,0.098,0.256,0,0.354l-3.227,3.227C24.129,27.359,24.064,27.385,24,27.385z M24.25,21.285v5.248l2.623-2.623
			L24.25,21.285z M24.25,14.617v5.248l2.623-2.625L24.25,14.617z"/>
	</g>
</g>
</svg>
