<?xml version="1.0" encoding="utf-8"?>
<!-- Generator: Adobe Illustrator 16.0.0, SVG Export Plug-In . SVG Version: 6.00 Build 0)  -->
<!DOCTYPE svg PUBLIC "-//W3C//DTD SVG 1.1//EN" "http://www.w3.org/Graphics/SVG/1.1/DTD/svg11.dtd">
<svg version="1.1" id="Layer_1" xmlns="http://www.w3.org/2000/svg" xmlns:xlink="http://www.w3.org/1999/xlink" x="0px" y="0px"
	 width="48px" height="48px" viewBox="0 0 48 48" enable-background="new 0 0 48 48" xml:space="preserve">
<g>
	<g>
		<path d="M36.421,43.758H11.578c-0.964,0-1.748-0.785-1.748-1.748V5.99c0-0.965,0.784-1.748,1.748-1.748h24.843
			c0.965,0,1.749,0.783,1.749,1.748v36.02C38.17,42.973,37.386,43.758,36.421,43.758z M11.578,4.74c-0.688,0-1.248,0.561-1.248,1.25
			v36.02c0,0.689,0.56,1.248,1.248,1.248h24.843c0.689,0,1.25-0.559,1.25-1.248V5.99c0-0.689-0.561-1.25-1.25-1.25H11.578z"/>
	</g>
	<g>
		<circle cx="24" cy="40.451" r="1.02"/>
	</g>
	<g>
		<path d="M37.708,36.988H10.293c-0.139,0-0.25-0.111-0.25-0.25s0.111-0.25,0.25-0.25h27.415c0.137,0,0.249,0.111,0.249,0.25
			S37.845,36.988,37.708,36.988z"/>
	</g>
	<g>
		<path d="M24,31.512c-0.032,0-0.064-0.006-0.096-0.02c-0.094-0.039-0.154-0.129-0.154-0.23v-9.908l-4.829,4.828
			c-0.098,0.098-0.256,0.098-0.353,0c-0.098-0.096-0.098-0.254,0-0.352l5.182-5.184v-0.143l-5.182-5.184
			c-0.098-0.098-0.098-0.256,0-0.354c0.097-0.098,0.255-0.098,0.353,0l4.829,4.83V9.889c0-0.1,0.061-0.191,0.154-0.23
			c0.094-0.037,0.201-0.018,0.272,0.055l5.255,5.254c0.047,0.047,0.074,0.111,0.074,0.178s-0.027,0.129-0.074,0.176l-5.182,5.184
			v0.143l5.182,5.184c0.047,0.047,0.074,0.109,0.074,0.176s-0.027,0.129-0.074,0.176l-5.255,5.256
			C24.129,31.486,24.064,31.512,24,31.512z M24.25,21.354v9.305l4.652-4.652L24.25,21.354z M24.25,10.492v9.305l4.652-4.652
			L24.25,10.492z"/>
	</g>
</g>
</svg>
