<?xml version="1.0" encoding="utf-8"?>
<!-- Generator: Adobe Illustrator 16.0.0, SVG Export Plug-In . SVG Version: 6.00 Build 0)  -->
<!DOCTYPE svg PUBLIC "-//W3C//DTD SVG 1.1//EN" "http://www.w3.org/Graphics/SVG/1.1/DTD/svg11.dtd">
<svg version="1.1" id="Layer_1" xmlns="http://www.w3.org/2000/svg" xmlns:xlink="http://www.w3.org/1999/xlink" x="0px" y="0px"
	 width="48px" height="48px" viewBox="0 0 48 48" enable-background="new 0 0 48 48" xml:space="preserve">
<g>
	<g>
		<g>
			<path d="M39.362,33.436H8.628c-0.964,0-1.748-0.783-1.748-1.748V10.949c0-0.963,0.784-1.748,1.748-1.748h30.734
				c0.965,0,1.748,0.785,1.748,1.748v20.738C41.11,32.652,40.327,33.436,39.362,33.436z M8.628,9.701
				c-0.689,0-1.249,0.561-1.249,1.248v20.738c0,0.689,0.56,1.248,1.249,1.248h30.734c0.689,0,1.249-0.559,1.249-1.248V10.949
				c0-0.688-0.56-1.248-1.249-1.248H8.628z"/>
		</g>
		<g>
			<path d="M43.896,38.797c-0.002,0.002-0.006,0.002-0.01,0H4.105c-0.097,0-0.186-0.057-0.227-0.143
				c-0.041-0.09-0.027-0.193,0.036-0.268l2.951-3.496c0.047-0.057,0.117-0.09,0.191-0.09h33.876c0.073,0,0.144,0.033,0.19,0.09
				l2.916,3.455c0.063,0.045,0.104,0.119,0.104,0.203C44.145,38.686,44.032,38.797,43.896,38.797z M4.643,38.299h38.705l-2.53-2.998
				H7.173L4.643,38.299z"/>
		</g>
		<g>
			<path d="M40.861,30.805H7.13c-0.139,0-0.25-0.111-0.25-0.248c0-0.139,0.111-0.25,0.25-0.25h33.731
				c0.138,0,0.249,0.111,0.249,0.25C41.11,30.693,40.999,30.805,40.861,30.805z"/>
		</g>
	</g>
	<g>
		<path d="M23.995,27.385c-0.032,0-0.064-0.006-0.096-0.018c-0.093-0.039-0.154-0.131-0.154-0.232v-5.85l-2.801,2.801
			c-0.098,0.098-0.255,0.098-0.353,0s-0.098-0.256,0-0.354l3.153-3.162l-3.153-3.152c-0.098-0.098-0.098-0.256,0-0.354
			s0.255-0.098,0.353,0l2.801,2.801v-5.85c0-0.102,0.062-0.193,0.154-0.232c0.094-0.037,0.201-0.016,0.272,0.055l3.226,3.227
			c0.047,0.047,0.074,0.109,0.074,0.176s-0.027,0.131-0.074,0.178l-3.152,3.162l3.152,3.152c0.098,0.098,0.098,0.256,0,0.354
			l-3.226,3.227C24.124,27.359,24.06,27.385,23.995,27.385z M24.245,21.285v5.248l2.623-2.623L24.245,21.285z M24.245,14.617v5.248
			l2.623-2.625L24.245,14.617z"/>
	</g>
</g>
</svg>
