<?xml version="1.0" encoding="utf-8"?>
<!-- Generator: Adobe Illustrator 16.0.0, SVG Export Plug-In . SVG Version: 6.00 Build 0)  -->
<!DOCTYPE svg PUBLIC "-//W3C//DTD SVG 1.1//EN" "http://www.w3.org/Graphics/SVG/1.1/DTD/svg11.dtd">
<svg version="1.1" id="Layer_1" xmlns="http://www.w3.org/2000/svg" xmlns:xlink="http://www.w3.org/1999/xlink" x="0px" y="0px"
	 width="48px" height="48px" viewBox="0 0 48 48" enable-background="new 0 0 48 48" xml:space="preserve">
<g>
	<g>
		<g>
			<path d="M28.718,35.705H17.485c-1.515,0-2.748-1.234-2.748-2.748V19.139c0-1.516,1.233-2.748,2.748-2.748h11.232
				c1.514,0,2.747,1.232,2.747,2.748v13.818C31.465,34.471,30.231,35.705,28.718,35.705z M17.485,16.891
				c-1.24,0-2.248,1.008-2.248,2.248v13.818c0,1.24,1.008,2.248,2.248,2.248h11.232c1.239,0,2.247-1.008,2.247-2.248V19.139
				c0-1.24-1.008-2.248-2.247-2.248H17.485z"/>
		</g>
		<g>
			<path d="M33.013,24.105c-0.138,0-0.25-0.113-0.25-0.25v-3.127c0-0.137,0.112-0.25,0.25-0.25c0.139,0,0.25,0.113,0.25,0.25v3.127
				C33.263,23.992,33.151,24.105,33.013,24.105z"/>
		</g>
		<g>
			<path d="M28.216,15.049c-0.139,0-0.25-0.111-0.25-0.25v-3.477c0-0.414-0.336-0.75-0.75-0.75h-8.229
				c-0.413,0-0.749,0.336-0.749,0.75v3.477c0,0.139-0.111,0.25-0.25,0.25c-0.138,0-0.25-0.111-0.25-0.25v-3.477
				c0-0.689,0.561-1.25,1.249-1.25h8.229c0.689,0,1.249,0.561,1.249,1.25v3.477C28.465,14.938,28.354,15.049,28.216,15.049z"/>
		</g>
		<g>
			<path d="M27.216,42.021h-8.229c-0.688,0-1.249-0.559-1.249-1.248v-3.477c0-0.139,0.112-0.25,0.25-0.25
				c0.139,0,0.25,0.111,0.25,0.25v3.477c0,0.414,0.336,0.75,0.749,0.75h8.229c0.414,0,0.75-0.336,0.75-0.75v-3.477
				c0-0.139,0.111-0.25,0.25-0.25c0.138,0,0.249,0.111,0.249,0.25v3.477C28.465,41.463,27.905,42.021,27.216,42.021z"/>
		</g>
	</g>
	<g>
		<path d="M23.102,31.785c-0.032,0-0.064-0.006-0.096-0.02c-0.093-0.037-0.154-0.129-0.154-0.23V26.74l-2.273,2.273
			c-0.098,0.098-0.256,0.098-0.354,0c-0.097-0.098-0.097-0.256,0-0.354l2.614-2.613l-2.614-2.613c-0.097-0.098-0.097-0.254,0-0.352
			c0.098-0.098,0.256-0.098,0.354,0l2.273,2.271v-4.795c0-0.1,0.062-0.191,0.154-0.23c0.093-0.037,0.201-0.018,0.272,0.055
			l2.699,2.699c0.047,0.047,0.073,0.109,0.073,0.176s-0.026,0.129-0.073,0.176l-2.613,2.613l2.613,2.613
			c0.098,0.098,0.098,0.256,0,0.354l-2.699,2.699C23.23,31.76,23.167,31.785,23.102,31.785z M23.352,26.74v4.193l2.096-2.098
			L23.352,26.74z M23.352,21.162v4.191l2.096-2.096L23.352,21.162z"/>
	</g>
</g>
</svg>
