<?xml version="1.0" encoding="utf-8"?>
<!-- Generator: Adobe Illustrator 16.0.0, SVG Export Plug-In . SVG Version: 6.00 Build 0)  -->
<!DOCTYPE svg PUBLIC "-//W3C//DTD SVG 1.1//EN" "http://www.w3.org/Graphics/SVG/1.1/DTD/svg11.dtd">
<svg version="1.1" id="Layer_1" xmlns="http://www.w3.org/2000/svg" xmlns:xlink="http://www.w3.org/1999/xlink" x="0px" y="0px"
	 width="48px" height="48px" viewBox="0 0 48 48" enable-background="new 0 0 48 48" xml:space="preserve">
<g>
	<g>
		<circle cx="24" cy="39.451" r="1.02"/>
	</g>
	<g>
		<path d="M31.542,43.01H16.457c-0.964,0-1.748-0.785-1.748-1.748V6.738c0-0.965,0.784-1.748,1.748-1.748h15.085
			c0.964,0,1.749,0.783,1.749,1.748v34.523C33.291,42.225,32.506,43.01,31.542,43.01z M16.457,5.488
			c-0.689,0-1.249,0.561-1.249,1.25v34.523c0,0.688,0.56,1.248,1.249,1.248h15.085c0.688,0,1.249-0.561,1.249-1.248V6.738
			c0-0.689-0.561-1.25-1.249-1.25H16.457z"/>
	</g>
	<g>
		<path d="M32.78,36.154H15.219c-0.138,0-0.25-0.111-0.25-0.25c0-0.137,0.112-0.248,0.25-0.248H32.78
			c0.138,0,0.249,0.111,0.249,0.248C33.029,36.043,32.918,36.154,32.78,36.154z"/>
	</g>
	<g>
		<path d="M24,28.865c-0.033,0-0.065-0.006-0.096-0.02c-0.094-0.037-0.154-0.129-0.154-0.23v-7.305l-3.528,3.527
			c-0.097,0.098-0.255,0.098-0.353,0s-0.098-0.256,0-0.354l3.881-3.881v-0.057l-3.881-3.881c-0.098-0.098-0.098-0.256,0-0.354
			s0.256-0.098,0.353,0l3.528,3.527v-7.305c0-0.102,0.061-0.191,0.154-0.23c0.092-0.039,0.201-0.018,0.271,0.055l3.955,3.953
			c0.047,0.047,0.072,0.109,0.072,0.176s-0.025,0.131-0.072,0.178l-3.881,3.881v0.057l3.881,3.881
			c0.047,0.047,0.072,0.111,0.072,0.176c0,0.066-0.025,0.131-0.072,0.178l-3.955,3.955C24.129,28.84,24.064,28.865,24,28.865z
			 M24.25,21.311v6.703l3.351-3.354L24.25,21.311z M24.25,13.139v6.701l3.351-3.352L24.25,13.139z"/>
	</g>
</g>
</svg>
