<?xml version="1.0" encoding="utf-8"?>
<!-- Generator: Adobe Illustrator 16.0.0, SVG Export Plug-In . SVG Version: 6.00 Build 0)  -->
<!DOCTYPE svg PUBLIC "-//W3C//DTD SVG 1.1//EN" "http://www.w3.org/Graphics/SVG/1.1/DTD/svg11.dtd">
<svg version="1.1" xmlns="http://www.w3.org/2000/svg" xmlns:xlink="http://www.w3.org/1999/xlink" x="0px" y="0px" width="100px"
	 height="100px" viewBox="0 0 100 100" enable-background="new 0 0 100 100" xml:space="preserve">
<g id="outlines">
	<path fill="none" stroke="#919191" stroke-width="2" stroke-linecap="round" stroke-linejoin="round" stroke-miterlimit="10" d="
		M46.619,89.436c-1.05-0.542-25.711-13.581-25.711-41.773V18.142L50,9.475l29.092,8.667v29.521
		c0,28.172-24.657,41.229-25.706,41.771l-3.383,1.747L46.619,89.436z"/>
	<path fill="none" stroke="#919191" stroke-width="2" stroke-linecap="round" stroke-linejoin="round" stroke-miterlimit="10" d="
		M71.714,47.662C71.714,71.665,50,82.878,50,82.878S28.286,71.682,28.286,47.662c0-24.021,0-24.021,0-24.021L50,17.173l21.714,6.469
		C71.714,23.642,71.714,23.659,71.714,47.662z"/>
</g>
<g id="dollar_x5F_signs">
	<path fill="none" stroke="#919191" stroke-width="2" stroke-linecap="round" stroke-linejoin="bevel" stroke-miterlimit="10" d="
		M50,58.575v5.659 M50,27.816v5.698 M58.457,39.747v-4.608c0-0.896-0.648-1.624-1.449-1.624H42.992
		c-0.801,0-1.449,0.728-1.449,1.624v9.263c0,0.897,0.648,1.624,1.449,1.624h14.016c0.801,0,1.449,0.727,1.449,1.624v9.263
		c0,0.896-0.648,1.624-1.449,1.624H42.992c-0.801,0-1.449-0.728-1.449-1.624V52.33"/>
</g>
</svg>
