<?xml version="1.0" encoding="utf-8"?>
<!-- Generator: Adobe Illustrator 16.0.0, SVG Export Plug-In . SVG Version: 6.00 Build 0)  -->
<!DOCTYPE svg PUBLIC "-//W3C//DTD SVG 1.1//EN" "http://www.w3.org/Graphics/SVG/1.1/DTD/svg11.dtd">
<svg version="1.1" xmlns="http://www.w3.org/2000/svg" xmlns:xlink="http://www.w3.org/1999/xlink" x="0px" y="0px" width="100px"
	 height="100px" viewBox="0 0 100 100" enable-background="new 0 0 100 100" xml:space="preserve">
<g id="outlines">
	<g>
		
			<polygon fill="none" stroke="#919191" stroke-width="2" stroke-linecap="round" stroke-linejoin="round" stroke-miterlimit="10" points="
			21.75,12.19 21.75,87.81 82.25,87.81 82.25,25.191 69.249,12.19 		"/>
		
			<polygon fill="none" stroke="#919191" stroke-width="2" stroke-linecap="round" stroke-linejoin="round" stroke-miterlimit="10" points="
			69.249,12.19 82.25,25.191 69.249,25.191 		"/>
	</g>
</g>
<g id="dollar_x5F_signs">
	<path fill="none" stroke="#919191" stroke-width="2" stroke-linecap="round" stroke-linejoin="bevel" stroke-miterlimit="10" d="
		M52,66.922v7.631 M52,25.447v7.684 M63.403,41.534V35.32c0-1.209-0.874-2.19-1.954-2.19H42.551c-1.08,0-1.954,0.981-1.954,2.19
		v12.49c0,1.21,0.874,2.19,1.954,2.19h18.898c1.08,0,1.954,0.981,1.954,2.19v12.491c0,1.208-0.874,2.189-1.954,2.189H42.551
		c-1.08,0-1.954-0.981-1.954-2.189v-6.18"/>
</g>
</svg>
