<?xml version="1.0" encoding="utf-8"?>
<!-- Generator: Adobe Illustrator 16.0.0, SVG Export Plug-In . SVG Version: 6.00 Build 0)  -->
<!DOCTYPE svg PUBLIC "-//W3C//DTD SVG 1.1//EN" "http://www.w3.org/Graphics/SVG/1.1/DTD/svg11.dtd">
<svg version="1.1" xmlns="http://www.w3.org/2000/svg" xmlns:xlink="http://www.w3.org/1999/xlink" x="0px" y="0px" width="100px"
	 height="100px" viewBox="0 0 100 100" enable-background="new 0 0 100 100" xml:space="preserve">
<g id="outlines">
	<g>
		
			<circle fill="none" stroke="#919191" stroke-width="2" stroke-linecap="round" stroke-linejoin="round" stroke-miterlimit="10" cx="50" cy="81.333" r="2.334"/>
		<g>
			<path fill="none" stroke="#919191" stroke-width="2" stroke-linecap="round" stroke-linejoin="round" stroke-miterlimit="10" d="
				M68.1,84.557c0,1.65-1.35,3-3,3H34.9c-1.65,0-3-1.35-3-3V15.443c0-1.65,1.35-3,3-3H65.1c1.65,0,3,1.35,3,3V84.557z"/>
		</g>
		
			<line fill="none" stroke="#919191" stroke-width="2" stroke-linecap="round" stroke-linejoin="round" stroke-miterlimit="10" x1="32.422" y1="73.834" x2="67.578" y2="73.834"/>
	</g>
</g>
<g id="dollar_x5F_signs">
	<path fill="none" stroke="#919191" stroke-width="2" stroke-linecap="round" stroke-linejoin="bevel" stroke-miterlimit="10" d="
		M50,56.373v5.659 M50,25.614v5.698 M58.457,37.545v-4.608c0-0.896-0.648-1.624-1.449-1.624H42.992
		c-0.801,0-1.449,0.728-1.449,1.624v9.263c0,0.897,0.648,1.624,1.449,1.624h14.016c0.801,0,1.449,0.728,1.449,1.624v9.264
		c0,0.896-0.648,1.623-1.449,1.623H42.992c-0.801,0-1.449-0.728-1.449-1.623v-4.583"/>
</g>
</svg>
