<?xml version="1.0" encoding="utf-8"?>
<!-- Generator: Adobe Illustrator 16.0.0, SVG Export Plug-In . SVG Version: 6.00 Build 0)  -->
<!DOCTYPE svg PUBLIC "-//W3C//DTD SVG 1.1//EN" "http://www.w3.org/Graphics/SVG/1.1/DTD/svg11.dtd">
<svg version="1.1" xmlns="http://www.w3.org/2000/svg" xmlns:xlink="http://www.w3.org/1999/xlink" x="0px" y="0px" width="100px"
	 height="100px" viewBox="0 0 100 100" enable-background="new 0 0 100 100" xml:space="preserve">
<g id="outlines">
	
		<circle fill="none" stroke="#919191" stroke-width="2" stroke-linecap="round" stroke-linejoin="bevel" stroke-miterlimit="10" cx="71.88" cy="40.677" r="2.674"/>
	<path fill="none" stroke="#919191" stroke-width="2" stroke-linecap="round" stroke-linejoin="round" stroke-miterlimit="10" d="
		M40,22.196c-14.669,3.463-25.378,14.352-25.378,27.247c0,8.268,4.405,15.708,11.43,20.897c-0.214,0.219-1.636,7.436-1.636,7.436
		c-0.158,0.863,0.419,1.699,1.283,1.857l12.819,2.346c0.863,0.158,1.699-0.419,1.857-1.283l0.69-3.771
		c2.855,0.596,5.849,0.916,8.936,0.916s6.081-0.319,8.936-0.916l0.69,3.771c0.158,0.863,0.994,1.44,1.857,1.283l12.819-2.346
		c0.863-0.158,1.441-0.994,1.283-1.857c0,0-1.422-7.216-1.636-7.436c4.629-3.42,8.115-7.817,9.957-12.785l6.458-0.001
		c0.878,0,1.596-0.718,1.596-1.596l-0.002-13.032c0-0.877-0.719-1.596-1.596-1.596l-6.455,0.001
		c-1.451-3.914-3.925-7.47-7.172-10.477l0.085-7.539l-6.515,2.878c-3.195-1.8-6.776-3.189-10.624-4.068"/>
	<g>
		<path fill="none" stroke="#919191" stroke-width="2" stroke-linecap="round" stroke-linejoin="round" stroke-miterlimit="10" d="
			M56.253,28.712c-2.017-0.378-4.117-0.583-6.277-0.583s-4.26,0.206-6.278,0.582"/>
		<path fill="none" stroke="#919191" stroke-width="2" stroke-linecap="round" stroke-linejoin="round" stroke-miterlimit="10" d="
			M43.698,28.711c-1.468,0.274-2.893,0.638-4.261,1.092"/>
		<path fill="none" stroke="#919191" stroke-width="2" stroke-linecap="round" stroke-linejoin="round" stroke-miterlimit="10" d="
			M60.345,29.751c-1.316-0.43-2.684-0.774-4.091-1.039"/>
		<path fill="none" stroke="#919191" stroke-width="2" stroke-linecap="round" stroke-linejoin="round" stroke-miterlimit="10" d="
			M56.253,28.712c1.772-1.671,2.884-4.034,2.884-6.661c0-5.061-4.102-9.163-9.162-9.163c-5.061,0-9.163,4.102-9.163,9.163
			c0,2.626,1.113,4.99,2.885,6.66"/>
	</g>
</g>
<g id="dollar_x5F_signs">
	<path fill="none" stroke="#919191" stroke-width="2" stroke-linecap="round" stroke-linejoin="bevel" stroke-miterlimit="10" d="
		M50,61.925l0,4.137 M50,39.438l0,4.166 M56.183,48.16v-3.369c0-0.655-0.474-1.187-1.06-1.187H44.877
		c-0.585,0-1.06,0.532-1.06,1.187v6.771c0,0.656,0.474,1.188,1.06,1.188h10.246c0.585,0,1.06,0.531,1.06,1.188v6.771
		c0,0.655-0.474,1.187-1.06,1.187H44.877c-0.585,0-1.06-0.532-1.06-1.187v-3.35"/>
</g>
</svg>
