<?xml version="1.0" encoding="utf-8"?>
<!-- Generator: Adobe Illustrator 16.0.0, SVG Export Plug-In . SVG Version: 6.00 Build 0)  -->
<!DOCTYPE svg PUBLIC "-//W3C//DTD SVG 1.1//EN" "http://www.w3.org/Graphics/SVG/1.1/DTD/svg11.dtd">
<svg version="1.1" xmlns="http://www.w3.org/2000/svg" xmlns:xlink="http://www.w3.org/1999/xlink" x="0px" y="0px" width="100px"
	 height="100px" viewBox="0 0 100 100" enable-background="new 0 0 100 100" xml:space="preserve">
<g id="outlines">
	
		<polygon fill="none" stroke="#919191" stroke-width="2" stroke-linecap="round" stroke-linejoin="round" stroke-miterlimit="10" points="
		69.779,85.335 30.221,85.335 30.221,35.462 50,20.462 69.779,35.462 	"/>
	
		<line fill="none" stroke="#919191" stroke-width="2" stroke-linecap="round" stroke-linejoin="round" stroke-miterlimit="10" x1="50" y1="0" x2="50" y2="33.147"/>
	<path fill="none" stroke="#919191" stroke-width="2" stroke-linecap="round" stroke-linejoin="round" stroke-miterlimit="10" d="
		M50,37.411c-2.209,0-4-1.791-4-4s1.791-4,4-4s4,1.791,4,4S52.209,37.411,50,37.411z"/>
</g>
<g id="dollar_x5F_signs">
	<path fill="none" stroke="#919191" stroke-width="2" stroke-linecap="round" stroke-linejoin="bevel" stroke-miterlimit="10" d="
		M50,72.053v4.984 M50,44.962v5.019 M57.449,55.47v-4.059c0-0.789-0.572-1.43-1.277-1.43H43.828c-0.705,0-1.277,0.641-1.277,1.43
		v8.159c0,0.79,0.572,1.43,1.277,1.43h12.344c0.705,0,1.277,0.64,1.277,1.43v8.159c0,0.789-0.572,1.43-1.277,1.43H43.828
		c-0.705,0-1.277-0.641-1.277-1.43v-4.036"/>
</g>
</svg>
