<?xml version="1.0" encoding="utf-8"?>
<!-- Generator: Adobe Illustrator 16.0.0, SVG Export Plug-In . SVG Version: 6.00 Build 0)  -->
<!DOCTYPE svg PUBLIC "-//W3C//DTD SVG 1.1//EN" "http://www.w3.org/Graphics/SVG/1.1/DTD/svg11.dtd">
<svg version="1.1" xmlns="http://www.w3.org/2000/svg" xmlns:xlink="http://www.w3.org/1999/xlink" x="0px" y="0px" width="100px"
	 height="100px" viewBox="0 0 100 100" enable-background="new 0 0 100 100" xml:space="preserve">
<g id="outlines">
	<g>
		<path fill="none" stroke="#919191" stroke-width="2" stroke-linecap="round" stroke-linejoin="round" stroke-miterlimit="10" d="
			M77.867,86.055c0,1.65-1.35,3-3,3H25.133c-1.65,0-3-1.35-3-3V13.945c0-1.65,1.35-3,3-3h49.734c1.65,0,3,1.35,3,3V86.055z"/>
	</g>
	
		<circle fill="none" stroke="#919191" stroke-width="2" stroke-linecap="round" stroke-linejoin="round" stroke-miterlimit="10" cx="50" cy="82.935" r="2.041"/>
	
		<line fill="none" stroke="#919191" stroke-width="2" stroke-linecap="round" stroke-linejoin="round" stroke-miterlimit="10" x1="22.559" y1="75.502" x2="77.441" y2="75.502"/>
</g>
<g id="dollar_x5F_signs">
	<path fill="none" stroke="#919191" stroke-width="2" stroke-linecap="round" stroke-linejoin="bevel" stroke-miterlimit="10" d="
		M50,56.55v5.659 M50,25.791v5.698 M58.457,37.722v-4.608c0-0.896-0.648-1.624-1.449-1.624H42.992c-0.801,0-1.449,0.728-1.449,1.624
		v9.263c0,0.897,0.648,1.624,1.449,1.624h14.016c0.801,0,1.449,0.728,1.449,1.624v9.264c0,0.896-0.648,1.623-1.449,1.623H42.992
		c-0.801,0-1.449-0.728-1.449-1.623v-4.583"/>
</g>
</svg>
