<?xml version="1.0" encoding="utf-8"?>
<!-- Generator: Adobe Illustrator 16.0.0, SVG Export Plug-In . SVG Version: 6.00 Build 0)  -->
<!DOCTYPE svg PUBLIC "-//W3C//DTD SVG 1.1//EN" "http://www.w3.org/Graphics/SVG/1.1/DTD/svg11.dtd">
<svg version="1.1" xmlns="http://www.w3.org/2000/svg" xmlns:xlink="http://www.w3.org/1999/xlink" x="0px" y="0px" width="100px"
	 height="100px" viewBox="0 0 100 100" enable-background="new 0 0 100 100" xml:space="preserve">
<g id="outlines">
	<g>
		<path fill="none" stroke="#919191" stroke-width="2" stroke-linecap="round" stroke-linejoin="round" stroke-miterlimit="10" d="
			M81.776,69.806h-53v-27.5h53V69.806z M76.766,37.306h-53v27.5 M71.766,32.306h-53v27.5 M76.766,37.306v5 M71.766,32.306v5"/>
	</g>
	<g>
		
			<line fill="none" stroke="#919191" stroke-width="2" stroke-linecap="round" stroke-linejoin="round" stroke-miterlimit="10" x1="18.766" y1="59.806" x2="23.766" y2="59.806"/>
	</g>
	<g>
		
			<line fill="none" stroke="#919191" stroke-width="2" stroke-linecap="round" stroke-linejoin="round" stroke-miterlimit="10" x1="23.766" y1="64.806" x2="28.776" y2="64.806"/>
	</g>
</g>
<g id="dollar_x5F_signs">
	<path fill="none" stroke="#919191" stroke-width="2" stroke-linecap="round" stroke-linejoin="bevel" stroke-miterlimit="10" d="
		M55.276,62.182v2.79 M55.276,47.141v2.79 M59.417,52.982v-2.256c0-0.439-0.317-0.795-0.709-0.795h-6.863
		c-0.392,0-0.709,0.356-0.709,0.795v4.536c0,0.439,0.317,0.795,0.709,0.795h6.863c0.392,0,0.709,0.356,0.709,0.795v4.536
		c0,0.438-0.317,0.795-0.709,0.795h-6.863c-0.392,0-0.709-0.356-0.709-0.795v-2.244"/>
</g>
</svg>
