<?xml version="1.0" encoding="utf-8"?>
<!-- Generator: Adobe Illustrator 16.0.0, SVG Export Plug-In . SVG Version: 6.00 Build 0)  -->
<!DOCTYPE svg PUBLIC "-//W3C//DTD SVG 1.1//EN" "http://www.w3.org/Graphics/SVG/1.1/DTD/svg11.dtd">
<svg version="1.1" xmlns="http://www.w3.org/2000/svg" xmlns:xlink="http://www.w3.org/1999/xlink" x="0px" y="0px" width="100px"
	 height="100px" viewBox="0 0 100 100" enable-background="new 0 0 100 100" xml:space="preserve">
<g id="outlines">
	<g>
		
			<rect x="25.629" y="32.032" fill="none" stroke="#919191" stroke-width="2" stroke-linecap="round" stroke-linejoin="round" stroke-miterlimit="10" width="7.171" height="30.338"/>
		
			<rect x="66.458" y="32.032" fill="none" stroke="#919191" stroke-width="2" stroke-linecap="round" stroke-linejoin="round" stroke-miterlimit="10" width="7.171" height="30.338"/>
	</g>
	
		<rect x="24.629" y="68.993" fill="none" stroke="#919191" stroke-width="2" stroke-linecap="round" stroke-linejoin="round" stroke-miterlimit="10" width="50" height="7.171"/>
	
		<rect x="20.586" y="83.993" fill="none" stroke="#919191" stroke-width="2" stroke-linecap="round" stroke-linejoin="round" stroke-miterlimit="10" width="58.086" height="7.171"/>
	
		<polygon fill="none" stroke="#919191" stroke-width="2" stroke-linecap="round" stroke-linejoin="round" stroke-miterlimit="10" points="
		49.631,7 62.566,15.824 75.502,24.648 49.631,24.648 23.757,24.648 36.693,15.824 	"/>
</g>
<g id="dollar_x5F_signs">
	<path fill="none" stroke="#919191" stroke-width="2" stroke-linecap="round" stroke-linejoin="bevel" stroke-miterlimit="10" d="
		M49.628,58.131v3.584 M49.628,32.843v3.584 M56.334,42.301v-3.654c0-0.71-0.515-1.287-1.148-1.287H44.073
		c-0.634,0-1.148,0.577-1.148,1.287v7.344c0,0.711,0.515,1.288,1.148,1.288h11.113c0.634,0,1.148,0.577,1.148,1.288v7.344
		c0,0.71-0.515,1.287-1.148,1.287H44.073c-0.634,0-1.148-0.577-1.148-1.287v-3.633"/>
</g>
</svg>
