<?xml version="1.0" encoding="utf-8"?>
<!-- Generator: Adobe Illustrator 16.0.0, SVG Export Plug-In . SVG Version: 6.00 Build 0)  -->
<!DOCTYPE svg PUBLIC "-//W3C//DTD SVG 1.1//EN" "http://www.w3.org/Graphics/SVG/1.1/DTD/svg11.dtd">
<svg version="1.1" xmlns="http://www.w3.org/2000/svg" xmlns:xlink="http://www.w3.org/1999/xlink" x="0px" y="0px" width="100px"
	 height="100px" viewBox="0 0 100 100" enable-background="new 0 0 100 100" xml:space="preserve">
<g id="outlines">
	<g>
		<path fill="none" d="M58.669,57.647"/>
	</g>
	<g>
		<path fill="none" stroke="#919191" stroke-width="2" stroke-miterlimit="10" d="M59.749,58.728"/>
	</g>
	<g>
		<path fill="none" stroke="#919191" stroke-width="2" stroke-linecap="round" stroke-linejoin="round" stroke-miterlimit="10" d="
			M91.324,37.039c0.778,0.778,0.778,2.05,0,2.828L40.888,90.303c-0.778,0.778-2.05,0.778-2.828,0L8.676,60.92
			c-0.778-0.778-0.778-2.05,0-2.828L59.113,7.655c0.778-0.778,2.05-0.778,2.828,0L91.324,37.039z M70.206,15.921L16.941,69.185
			 M12.968,65.212l53.264-53.265"/>
	</g>
	
		<rect x="61.844" y="35.365" transform="matrix(0.7071 -0.7071 0.7071 0.7071 -8.002 62.1654)" fill="none" stroke="#919191" stroke-width="2" stroke-linecap="round" stroke-linejoin="round" stroke-miterlimit="10" width="18.386" height="10.753"/>
</g>
<g id="dollar_x5F_signs">
</g>
</svg>
