<?xml version="1.0" encoding="utf-8"?>
<!-- Generator: Adobe Illustrator 16.0.0, SVG Export Plug-In . SVG Version: 6.00 Build 0)  -->
<!DOCTYPE svg PUBLIC "-//W3C//DTD SVG 1.1//EN" "http://www.w3.org/Graphics/SVG/1.1/DTD/svg11.dtd">
<svg version="1.1" xmlns="http://www.w3.org/2000/svg" xmlns:xlink="http://www.w3.org/1999/xlink" x="0px" y="0px" width="100px"
	 height="100px" viewBox="0 0 100 100" enable-background="new 0 0 100 100" xml:space="preserve">
<g id="outlines">
	<g>
		<path fill="none" stroke="#919191" stroke-width="2" stroke-linecap="round" stroke-linejoin="round" stroke-miterlimit="10" d="
			M79.764,64.058v10.151c0,1.1-0.9,2-2,2H15.623c-1.1,0-2-0.9-2-2V41.392c0-1.1,0.9-2,2-2h62.141c1.1,0,2,0.9,2,2v10.151"/>
	</g>
	<g>
		<g>
			
				<line fill="none" stroke="#919191" stroke-width="2" stroke-linecap="round" stroke-linejoin="round" x1="74.764" y1="51.543" x2="74.764" y2="49.543"/>
			
				<path fill="none" stroke="#919191" stroke-width="2" stroke-linecap="round" stroke-linejoin="round" stroke-dasharray="3.9443,3.9443" d="
				M74.606,45.618c-0.304-0.719-1.017-1.226-1.843-1.226H20.623c-1.1,0-2,0.9-2,2v22.817c0,1.1,0.9,2,2,2h52.141c1.1,0,2-0.9,2-2
				v-1.184"/>
			
				<line fill="none" stroke="#919191" stroke-width="2" stroke-linecap="round" stroke-linejoin="round" x1="74.764" y1="66.058" x2="74.764" y2="64.058"/>
		</g>
	</g>
	<g>
		<path fill="none" stroke="#919191" stroke-width="2" stroke-linecap="round" stroke-linejoin="round" stroke-miterlimit="10" d="
			M3.623,34.392"/>
	</g>
	<g>
		<path fill="none" stroke="#919191" stroke-width="2" stroke-linecap="round" stroke-linejoin="round" stroke-miterlimit="10" d="
			M13.623,68.176V33.359c0-1.1,0.889-2.144,1.975-2.32l53.843-8.731c1.086-0.176,1.975,0.58,1.975,1.68v15.405"/>
	</g>
	<g>
		<path fill="none" stroke="#919191" stroke-width="2" stroke-linecap="round" stroke-linejoin="round" stroke-miterlimit="10" d="
			M85.584,61.058c0,1.65-1.35,3-3,3H65.489c-1.65,0-3-1.35-3-3v-6.515c0-1.65,1.35-3,3-3h17.095c1.65,0,3,1.35,3,3V61.058z"/>
	</g>
	<g>
		
			<circle fill="none" stroke="#919191" stroke-width="2" stroke-linecap="round" stroke-linejoin="round" stroke-miterlimit="10" cx="71.852" cy="57.801" r="2.833"/>
	</g>
</g>
<g id="dollar_x5F_signs">
</g>
</svg>
