<?xml version="1.0" encoding="utf-8"?>
<!-- Generator: Adobe Illustrator 16.0.0, SVG Export Plug-In . SVG Version: 6.00 Build 0)  -->
<!DOCTYPE svg PUBLIC "-//W3C//DTD SVG 1.1//EN" "http://www.w3.org/Graphics/SVG/1.1/DTD/svg11.dtd">
<svg version="1.1" xmlns="http://www.w3.org/2000/svg" xmlns:xlink="http://www.w3.org/1999/xlink" x="0px" y="0px" width="100px"
	 height="100px" viewBox="0 0 100 100" enable-background="new 0 0 100 100" xml:space="preserve">
<g id="outlines">
	<g>
		
			<rect x="15.379" y="15.886" fill="none" stroke="#919191" stroke-width="2" stroke-linecap="round" stroke-linejoin="round" stroke-miterlimit="10" width="69.242" height="69.242"/>
	</g>
	<g>
		
			<line fill="none" stroke="#919191" stroke-width="2" stroke-linecap="round" stroke-linejoin="round" stroke-miterlimit="10" x1="26.181" y1="57.57" x2="26.181" y2="45.314"/>
	</g>
	<g>
		<path fill="none" stroke="#919191" stroke-width="2" stroke-linecap="round" stroke-linejoin="round" stroke-miterlimit="10" d="
			M26.181,35.135v-4.447c0-2.2,1.8-4,4-4h39.639c2.2,0,4,1.8,4,4v39.64c0,2.2-1.8,4-4,4H30.181c-2.2,0-4-1.48-4-3.289
			c0-1.81,0-3.29,0-3.29"/>
	</g>
	
		<rect x="23.633" y="35.551" fill="none" stroke="#919191" stroke-width="2" stroke-linecap="round" stroke-linejoin="round" stroke-miterlimit="10" width="4.125" height="9.417"/>
	
		<rect x="23.633" y="57.985" fill="none" stroke="#919191" stroke-width="2" stroke-linecap="round" stroke-linejoin="round" stroke-miterlimit="10" width="4.125" height="9.417"/>
	<g>
		<path fill="none" stroke="#919191" stroke-width="2" stroke-linecap="round" stroke-linejoin="round" stroke-miterlimit="10" d="
			M50,67.009c-9.21,0-16.703-7.492-16.703-16.703c0-9.21,7.493-16.703,16.703-16.703c9.211,0,16.704,7.493,16.704,16.703
			C66.704,59.517,59.21,67.009,50,67.009z"/>
		
			<circle fill="none" stroke="#919191" stroke-width="2" stroke-linecap="round" stroke-linejoin="round" stroke-miterlimit="10" cx="50" cy="50.306" r="11.734"/>
	</g>
	
		<polygon fill="none" stroke="#919191" stroke-width="2" stroke-linecap="round" stroke-linejoin="round" stroke-miterlimit="10" points="
		36.706,90.114 25.073,90.114 21.749,85.128 40.029,85.128 	"/>
	
		<polygon fill="none" stroke="#919191" stroke-width="2" stroke-linecap="round" stroke-linejoin="round" stroke-miterlimit="10" points="
		74.927,90.114 63.294,90.114 59.971,85.128 78.251,85.128 	"/>
	
		<circle fill="none" stroke="#919191" stroke-width="2" stroke-linecap="round" stroke-linejoin="round" stroke-miterlimit="10" cx="50" cy="50.306" r="4.041"/>
</g>
<g id="dollar_x5F_signs">
</g>
</svg>
