<?xml version="1.0" encoding="utf-8"?>
<!-- Generator: Adobe Illustrator 16.0.0, SVG Export Plug-In . SVG Version: 6.00 Build 0)  -->
<!DOCTYPE svg PUBLIC "-//W3C//DTD SVG 1.1//EN" "http://www.w3.org/Graphics/SVG/1.1/DTD/svg11.dtd">
<svg version="1.1" xmlns="http://www.w3.org/2000/svg" xmlns:xlink="http://www.w3.org/1999/xlink" x="0px" y="0px" width="100px"
	 height="100px" viewBox="0 0 100 100" enable-background="new 0 0 100 100" xml:space="preserve">
<g id="outlines">
	<g>
		
			<line fill="none" stroke="#919191" stroke-width="2" stroke-linecap="round" stroke-linejoin="round" stroke-miterlimit="10" x1="63.25" y1="26.038" x2="63.25" y2="33.131"/>
		
			<line fill="none" stroke="#919191" stroke-width="2" stroke-linecap="round" stroke-linejoin="round" stroke-miterlimit="10" x1="63.25" y1="32.038" x2="63.25" y2="39.131"/>
		
			<line fill="none" stroke="#919191" stroke-width="2" stroke-linecap="round" stroke-linejoin="round" stroke-miterlimit="10" x1="63.25" y1="38.038" x2="63.25" y2="45.131"/>
		
			<line fill="none" stroke="#919191" stroke-width="2" stroke-linecap="round" stroke-linejoin="round" stroke-miterlimit="10" x1="63.25" y1="44.038" x2="63.25" y2="51.131"/>
		
			<line fill="none" stroke="#919191" stroke-width="2" stroke-linecap="round" stroke-linejoin="round" stroke-miterlimit="10" x1="63.25" y1="50.038" x2="63.25" y2="57.131"/>
		
			<line fill="none" stroke="#919191" stroke-width="2" stroke-linecap="round" stroke-linejoin="round" stroke-miterlimit="10" x1="63.25" y1="56.038" x2="63.25" y2="63.131"/>
		
			<line fill="none" stroke="#919191" stroke-width="2" stroke-linecap="round" stroke-linejoin="round" stroke-miterlimit="10" x1="63.25" y1="61.056" x2="63.25" y2="68.15"/>
		
			<line fill="none" stroke="#919191" stroke-width="2" stroke-linecap="round" stroke-linejoin="round" stroke-miterlimit="10" x1="63.25" y1="66.962" x2="63.25" y2="74.056"/>
		<g>
			
				<ellipse fill="none" stroke="#919191" stroke-width="2" stroke-linecap="round" stroke-linejoin="round" stroke-miterlimit="10" cx="72" cy="26.038" rx="8.75" ry="4.906"/>
			<path fill="none" stroke="#919191" stroke-width="2" stroke-linecap="round" stroke-linejoin="round" stroke-miterlimit="10" d="
				M80.75,32.038c0,2.709-3.917,4.906-8.75,4.906s-8.75-2.197-8.75-4.906"/>
			
				<line fill="none" stroke="#919191" stroke-width="2" stroke-linecap="round" stroke-linejoin="round" stroke-miterlimit="10" x1="80.75" y1="26.038" x2="80.75" y2="33.131"/>
			<path fill="none" stroke="#919191" stroke-width="2" stroke-linecap="round" stroke-linejoin="round" stroke-miterlimit="10" d="
				M80.75,38.038c0,2.709-3.917,4.906-8.75,4.906s-8.75-2.197-8.75-4.906"/>
			
				<line fill="none" stroke="#919191" stroke-width="2" stroke-linecap="round" stroke-linejoin="round" stroke-miterlimit="10" x1="80.75" y1="32.038" x2="80.75" y2="39.131"/>
			<path fill="none" stroke="#919191" stroke-width="2" stroke-linecap="round" stroke-linejoin="round" stroke-miterlimit="10" d="
				M80.75,44.038c0,2.709-3.917,4.906-8.75,4.906s-8.75-2.197-8.75-4.906"/>
			
				<line fill="none" stroke="#919191" stroke-width="2" stroke-linecap="round" stroke-linejoin="round" stroke-miterlimit="10" x1="80.75" y1="38.038" x2="80.75" y2="45.131"/>
			<path fill="none" stroke="#919191" stroke-width="2" stroke-linecap="round" stroke-linejoin="round" stroke-miterlimit="10" d="
				M80.75,50.038c0,2.709-3.917,4.906-8.75,4.906s-8.75-2.197-8.75-4.906"/>
			
				<line fill="none" stroke="#919191" stroke-width="2" stroke-linecap="round" stroke-linejoin="round" stroke-miterlimit="10" x1="80.75" y1="44.038" x2="80.75" y2="51.131"/>
			<path fill="none" stroke="#919191" stroke-width="2" stroke-linecap="round" stroke-linejoin="round" stroke-miterlimit="10" d="
				M80.75,56.038c0,2.709-3.917,4.906-8.75,4.906s-8.75-2.197-8.75-4.906"/>
			
				<line fill="none" stroke="#919191" stroke-width="2" stroke-linecap="round" stroke-linejoin="round" stroke-miterlimit="10" x1="80.75" y1="50.038" x2="80.75" y2="57.131"/>
			<path fill="none" stroke="#919191" stroke-width="2" stroke-linecap="round" stroke-linejoin="round" stroke-miterlimit="10" d="
				M80.75,62.038c0,2.709-3.917,4.906-8.75,4.906s-8.75-2.197-8.75-4.906"/>
			
				<line fill="none" stroke="#919191" stroke-width="2" stroke-linecap="round" stroke-linejoin="round" stroke-miterlimit="10" x1="80.75" y1="56.038" x2="80.75" y2="63.131"/>
			<path fill="none" stroke="#919191" stroke-width="2" stroke-linecap="round" stroke-linejoin="round" stroke-miterlimit="10" d="
				M80.75,68.056c0,2.709-3.917,4.906-8.75,4.906s-8.75-2.197-8.75-4.906"/>
			
				<line fill="none" stroke="#919191" stroke-width="2" stroke-linecap="round" stroke-linejoin="round" stroke-miterlimit="10" x1="80.75" y1="61.056" x2="80.75" y2="68.15"/>
			<path fill="none" stroke="#919191" stroke-width="2" stroke-linecap="round" stroke-linejoin="round" stroke-miterlimit="10" d="
				M80.75,73.962c0,2.709-3.917,4.906-8.75,4.906s-8.75-2.197-8.75-4.906"/>
			
				<line fill="none" stroke="#919191" stroke-width="2" stroke-linecap="round" stroke-linejoin="round" stroke-miterlimit="10" x1="80.75" y1="66.962" x2="80.75" y2="74.056"/>
		</g>
	</g>
	<path fill="none" stroke="#919191" stroke-width="2" stroke-linecap="round" stroke-linejoin="round" stroke-miterlimit="10" d="
		M40.25,39.131"/>
	
		<line fill="none" stroke="#919191" stroke-width="2" stroke-linecap="round" stroke-linejoin="round" stroke-miterlimit="10" x1="40.25" y1="44.038" x2="40.25" y2="51.131"/>
	
		<line fill="none" stroke="#919191" stroke-width="2" stroke-linecap="round" stroke-linejoin="round" stroke-miterlimit="10" x1="40.25" y1="50.038" x2="40.25" y2="57.131"/>
	
		<line fill="none" stroke="#919191" stroke-width="2" stroke-linecap="round" stroke-linejoin="round" stroke-miterlimit="10" x1="40.25" y1="56.038" x2="40.25" y2="63.131"/>
	
		<line fill="none" stroke="#919191" stroke-width="2" stroke-linecap="round" stroke-linejoin="round" stroke-miterlimit="10" x1="40.25" y1="61.056" x2="40.25" y2="68.15"/>
	
		<line fill="none" stroke="#919191" stroke-width="2" stroke-linecap="round" stroke-linejoin="round" stroke-miterlimit="10" x1="40.25" y1="66.962" x2="40.25" y2="74.056"/>
	
		<ellipse fill="none" stroke="#919191" stroke-width="2" stroke-linecap="round" stroke-linejoin="round" stroke-miterlimit="10" cx="49" cy="44.038" rx="8.75" ry="4.906"/>
	<path fill="none" stroke="#919191" stroke-width="2" stroke-linecap="round" stroke-linejoin="round" stroke-miterlimit="10" d="
		M57.75,39.131"/>
	<path fill="none" stroke="#919191" stroke-width="2" stroke-linecap="round" stroke-linejoin="round" stroke-miterlimit="10" d="
		M57.75,50.038c0,2.709-3.917,4.906-8.75,4.906s-8.75-2.197-8.75-4.906"/>
	
		<line fill="none" stroke="#919191" stroke-width="2" stroke-linecap="round" stroke-linejoin="round" stroke-miterlimit="10" x1="57.75" y1="44.038" x2="57.75" y2="51.131"/>
	<path fill="none" stroke="#919191" stroke-width="2" stroke-linecap="round" stroke-linejoin="round" stroke-miterlimit="10" d="
		M57.75,56.038c0,2.709-3.917,4.906-8.75,4.906s-8.75-2.197-8.75-4.906"/>
	
		<line fill="none" stroke="#919191" stroke-width="2" stroke-linecap="round" stroke-linejoin="round" stroke-miterlimit="10" x1="57.75" y1="50.038" x2="57.75" y2="57.131"/>
	<path fill="none" stroke="#919191" stroke-width="2" stroke-linecap="round" stroke-linejoin="round" stroke-miterlimit="10" d="
		M57.75,62.038c0,2.709-3.917,4.906-8.75,4.906s-8.75-2.197-8.75-4.906"/>
	
		<line fill="none" stroke="#919191" stroke-width="2" stroke-linecap="round" stroke-linejoin="round" stroke-miterlimit="10" x1="57.75" y1="56.038" x2="57.75" y2="63.131"/>
	<path fill="none" stroke="#919191" stroke-width="2" stroke-linecap="round" stroke-linejoin="round" stroke-miterlimit="10" d="
		M57.75,68.056c0,2.709-3.917,4.906-8.75,4.906s-8.75-2.197-8.75-4.906"/>
	
		<line fill="none" stroke="#919191" stroke-width="2" stroke-linecap="round" stroke-linejoin="round" stroke-miterlimit="10" x1="57.75" y1="61.056" x2="57.75" y2="68.15"/>
	<path fill="none" stroke="#919191" stroke-width="2" stroke-linecap="round" stroke-linejoin="round" stroke-miterlimit="10" d="
		M57.75,73.962c0,2.709-3.917,4.906-8.75,4.906s-8.75-2.197-8.75-4.906"/>
	
		<line fill="none" stroke="#919191" stroke-width="2" stroke-linecap="round" stroke-linejoin="round" stroke-miterlimit="10" x1="57.75" y1="66.962" x2="57.75" y2="74.056"/>
	<path fill="none" stroke="#919191" stroke-width="2" stroke-linecap="round" stroke-linejoin="round" stroke-miterlimit="10" d="
		M17.25,57.131"/>
	<path fill="none" stroke="#919191" stroke-width="2" stroke-linecap="round" stroke-linejoin="round" stroke-miterlimit="10" d="
		M17.25,57.131"/>
	<path fill="none" stroke="#919191" stroke-width="2" stroke-linecap="round" stroke-linejoin="round" stroke-miterlimit="10" d="
		M17.25,63.131"/>
	
		<line fill="none" stroke="#919191" stroke-width="2" stroke-linecap="round" stroke-linejoin="round" stroke-miterlimit="10" x1="17.25" y1="62.056" x2="17.25" y2="68.15"/>
	
		<line fill="none" stroke="#919191" stroke-width="2" stroke-linecap="round" stroke-linejoin="round" stroke-miterlimit="10" x1="17.25" y1="66.962" x2="17.25" y2="74.056"/>
	
		<ellipse fill="none" stroke="#919191" stroke-width="2" stroke-linecap="round" stroke-linejoin="round" stroke-miterlimit="10" cx="26" cy="62.038" rx="8.75" ry="4.906"/>
	<path fill="none" stroke="#919191" stroke-width="2" stroke-linecap="round" stroke-linejoin="round" stroke-miterlimit="10" d="
		M34.75,57.131"/>
	<path fill="none" stroke="#919191" stroke-width="2" stroke-linecap="round" stroke-linejoin="round" stroke-miterlimit="10" d="
		M34.75,63.131"/>
	<path fill="none" stroke="#919191" stroke-width="2" stroke-linecap="round" stroke-linejoin="round" stroke-miterlimit="10" d="
		M34.75,68.056c0,2.709-3.917,4.906-8.75,4.906s-8.75-2.197-8.75-4.906"/>
	
		<line fill="none" stroke="#919191" stroke-width="2" stroke-linecap="round" stroke-linejoin="round" stroke-miterlimit="10" x1="34.75" y1="62.056" x2="34.75" y2="68.15"/>
	<path fill="none" stroke="#919191" stroke-width="2" stroke-linecap="round" stroke-linejoin="round" stroke-miterlimit="10" d="
		M34.75,73.962c0,2.709-3.917,4.906-8.75,4.906s-8.75-2.197-8.75-4.906"/>
	
		<line fill="none" stroke="#919191" stroke-width="2" stroke-linecap="round" stroke-linejoin="round" stroke-miterlimit="10" x1="34.75" y1="66.962" x2="34.75" y2="74.056"/>
</g>
<g id="dollar_x5F_signs">
</g>
</svg>
