<?xml version="1.0" encoding="utf-8"?>
<!-- Generator: Adobe Illustrator 16.0.0, SVG Export Plug-In . SVG Version: 6.00 Build 0)  -->
<!DOCTYPE svg PUBLIC "-//W3C//DTD SVG 1.1//EN" "http://www.w3.org/Graphics/SVG/1.1/DTD/svg11.dtd">
<svg version="1.1" xmlns="http://www.w3.org/2000/svg" xmlns:xlink="http://www.w3.org/1999/xlink" x="0px" y="0px" width="100px"
	 height="100px" viewBox="0 0 100 100" enable-background="new 0 0 100 100" xml:space="preserve">
<g id="outlines">
	<g>
		<path fill="none" stroke="#919191" stroke-width="2" stroke-linecap="round" stroke-linejoin="round" stroke-miterlimit="10" d="
			M76.167,83.165c0,3.3-2.7,6-6,6H29.833c-3.3,0-6-2.7-6-6V42.833c0-3.3,2.7-6,6-6h40.333c3.3,0,6,2.7,6,6V83.165z"/>
	</g>
	<path fill="none" stroke="#919191" stroke-width="2" stroke-linecap="round" stroke-linejoin="round" stroke-miterlimit="10" d="
		M50,10.835c-11.26,0-20.421,9.162-20.421,20.421h5.713c0-8.124,6.585-14.708,14.708-14.708s14.708,6.584,14.708,14.708h5.713
		C70.421,19.997,61.26,10.835,50,10.835z"/>
</g>
<g id="dollar_x5F_signs">
	<path fill="none" stroke="#919191" stroke-width="2" stroke-linecap="round" stroke-linejoin="bevel" stroke-miterlimit="10" d="
		M50,75.548l0,5.659 M50,44.79l0,5.698 M58.457,56.72v-4.608c0-0.896-0.648-1.624-1.449-1.624H42.992
		c-0.801,0-1.449,0.728-1.449,1.624v9.263c0,0.897,0.648,1.624,1.449,1.624h14.016c0.801,0,1.449,0.727,1.449,1.624v9.263
		c0,0.896-0.648,1.624-1.449,1.624H42.992c-0.801,0-1.449-0.728-1.449-1.624v-4.583"/>
</g>
</svg>
