<?xml version="1.0" encoding="utf-8"?>
<!-- Generator: Adobe Illustrator 16.0.0, SVG Export Plug-In . SVG Version: 6.00 Build 0)  -->
<!DOCTYPE svg PUBLIC "-//W3C//DTD SVG 1.1//EN" "http://www.w3.org/Graphics/SVG/1.1/DTD/svg11.dtd">
<svg version="1.1" id="Layer_1" xmlns="http://www.w3.org/2000/svg" xmlns:xlink="http://www.w3.org/1999/xlink" x="0px" y="0px"
	 width="64px" height="64px" viewBox="0 0 64 64" enable-background="new 0 0 64 64" xml:space="preserve">
<g>
	<g>
		<path d="M46.647,57.492H17.353c-1.93,0-3.5-1.57-3.5-3.5V10.527c0-1.93,1.57-3.5,3.5-3.5h29.295c1.93,0,3.5,1.57,3.5,3.5v43.465
			C50.147,55.922,48.577,57.492,46.647,57.492z M17.353,8.027c-1.379,0-2.5,1.121-2.5,2.5v43.465c0,1.379,1.121,2.5,2.5,2.5h29.295
			c1.379,0,2.5-1.121,2.5-2.5V10.527c0-1.379-1.121-2.5-2.5-2.5H17.353z"/>
	</g>
	<g>
		<path d="M33.293,53.115c0,0.713-0.579,1.293-1.295,1.293c-0.711,0-1.291-0.58-1.291-1.293c0-0.711,0.58-1.289,1.291-1.289
			C32.714,51.826,33.293,52.404,33.293,53.115z"/>
	</g>
	<g>
		<path d="M49.38,48.908H14.621c-0.276,0-0.5-0.224-0.5-0.5s0.224-0.5,0.5-0.5H49.38c0.276,0,0.5,0.224,0.5,0.5
			S49.656,48.908,49.38,48.908z"/>
	</g>
	<g>
		<g>
			<path d="M31.998,40.281c-6.518,0-11.82-5.304-11.82-11.822c0-6.518,5.303-11.82,11.82-11.82c6.521,0,11.826,5.303,11.826,11.82
				C43.824,34.978,38.519,40.281,31.998,40.281z M31.998,17.639c-5.967,0-10.82,4.854-10.82,10.82
				c0,5.968,4.854,10.822,10.82,10.822c5.97,0,10.826-4.854,10.826-10.822C42.824,22.492,37.968,17.639,31.998,17.639z"/>
		</g>
		<g>
			<g>
				<path d="M31.998,31.457c-0.276,0-0.5-0.224-0.5-0.5v-9.143c0-0.276,0.224-0.5,0.5-0.5s0.5,0.224,0.5,0.5v9.143
					C32.498,31.233,32.274,31.457,31.998,31.457z"/>
			</g>
			<g>
				<rect x="31.655" y="34.418" width="0.69" height="0.688"/>
				<path d="M32.346,35.605h-0.69c-0.276,0-0.5-0.224-0.5-0.5v-0.688c0-0.276,0.224-0.5,0.5-0.5h0.69c0.276,0,0.5,0.224,0.5,0.5
					v0.688C32.846,35.382,32.622,35.605,32.346,35.605z"/>
			</g>
		</g>
	</g>
</g>
</svg>
