<?xml version="1.0" encoding="utf-8"?>
<!-- Generator: Adobe Illustrator 16.0.0, SVG Export Plug-In . SVG Version: 6.00 Build 0)  -->
<!DOCTYPE svg PUBLIC "-//W3C//DTD SVG 1.1//EN" "http://www.w3.org/Graphics/SVG/1.1/DTD/svg11.dtd">
<svg version="1.1" id="Layer_1" xmlns="http://www.w3.org/2000/svg" xmlns:xlink="http://www.w3.org/1999/xlink" x="0px" y="0px"
	 width="64px" height="64px" viewBox="0 0 64 64" enable-background="new 0 0 64 64" xml:space="preserve">
<g>
	<g>
		<g>
			<path d="M50.383,44.805H13.617c-1.93,0-3.5-1.57-3.5-3.5V17.211c0-1.93,1.57-3.5,3.5-3.5h36.766c1.93,0,3.5,1.57,3.5,3.5v24.094
				C53.883,43.234,52.312,44.805,50.383,44.805z M13.617,14.711c-1.379,0-2.5,1.121-2.5,2.5v24.094c0,1.379,1.121,2.5,2.5,2.5
				h36.766c1.379,0,2.5-1.121,2.5-2.5V17.211c0-1.379-1.121-2.5-2.5-2.5H13.617z"/>
		</g>
		<g>
			<path d="M53.383,41.467H10.617c-0.276,0-0.5-0.224-0.5-0.5s0.224-0.5,0.5-0.5h42.766c0.276,0,0.5,0.224,0.5,0.5
				S53.659,41.467,53.383,41.467z"/>
		</g>
		<g>
			<g>
				<path d="M23.489,50.414c-0.107,0-0.215-0.034-0.307-0.104c-0.218-0.169-0.258-0.483-0.089-0.702l4.354-5.621
					c0.17-0.218,0.483-0.256,0.702-0.089c0.218,0.169,0.258,0.483,0.089,0.702l-4.354,5.621
					C23.786,50.348,23.639,50.414,23.489,50.414z"/>
			</g>
			<g>
				<path d="M40.509,50.414c-0.149,0-0.297-0.066-0.396-0.193L35.76,44.6c-0.169-0.219-0.129-0.533,0.089-0.702
					c0.219-0.169,0.532-0.129,0.702,0.089l4.354,5.621c0.169,0.219,0.129,0.533-0.089,0.702
					C40.724,50.38,40.616,50.414,40.509,50.414z"/>
			</g>
		</g>
		<g>
			<path d="M43.873,50.811H20.125c-0.276,0-0.5-0.224-0.5-0.5s0.224-0.5,0.5-0.5h23.748c0.276,0,0.5,0.224,0.5,0.5
				S44.149,50.811,43.873,50.811z"/>
		</g>
	</g>
	<g>
		<path fill="none" stroke="#000000" stroke-linecap="round" stroke-linejoin="round" stroke-miterlimit="10" d="M39.811,27.828
			c0,4.314-3.495,7.811-7.812,7.811c-4.313,0-7.811-3.496-7.811-7.811c0-4.316,3.497-7.814,7.811-7.814
			C36.315,20.014,39.811,23.512,39.811,27.828z"/>
		<g>
			
				<line fill="none" stroke="#000000" stroke-linecap="round" stroke-linejoin="round" stroke-miterlimit="10" x1="31.998" y1="23.24" x2="31.998" y2="29.551"/>
			
				<rect x="31.762" y="31.938" stroke="#000000" stroke-linecap="round" stroke-linejoin="round" stroke-miterlimit="10" width="0.477" height="0.475"/>
		</g>
	</g>
</g>
</svg>
