<?xml version="1.0" encoding="utf-8"?>
<!-- Generator: Adobe Illustrator 16.0.0, SVG Export Plug-In . SVG Version: 6.00 Build 0)  -->
<!DOCTYPE svg PUBLIC "-//W3C//DTD SVG 1.1//EN" "http://www.w3.org/Graphics/SVG/1.1/DTD/svg11.dtd">
<svg version="1.1" id="Layer_1" xmlns="http://www.w3.org/2000/svg" xmlns:xlink="http://www.w3.org/1999/xlink" x="0px" y="0px"
	 width="64px" height="64px" viewBox="0 0 64 64" enable-background="new 0 0 64 64" xml:space="preserve">
<g>
	<g>
		<path d="M40.461,56.545H23.539c-1.93,0-3.5-1.57-3.5-3.5V11.477c0-1.93,1.57-3.5,3.5-3.5h16.922c1.93,0,3.5,1.57,3.5,3.5v41.568
			C43.961,54.975,42.391,56.545,40.461,56.545z M23.539,8.977c-1.379,0-2.5,1.121-2.5,2.5v41.568c0,1.379,1.121,2.5,2.5,2.5h16.922
			c1.379,0,2.5-1.121,2.5-2.5V11.477c0-1.379-1.121-2.5-2.5-2.5H23.539z"/>
	</g>
	<g>
		<path d="M43.133,47.854H20.867c-0.276,0-0.5-0.224-0.5-0.5s0.224-0.5,0.5-0.5h22.266c0.276,0,0.5,0.224,0.5,0.5
			S43.409,47.854,43.133,47.854z"/>
	</g>
	<g>
		<circle cx="32.001" cy="51.852" r="1.292"/>
	</g>
	<g>
		<g>
			<path d="M32,36.771c-4.584,0-8.312-3.729-8.312-8.312c0-4.582,3.729-8.311,8.312-8.311s8.312,3.729,8.312,8.311
				C40.312,33.043,36.584,36.771,32,36.771z M32,21.148c-4.032,0-7.312,3.279-7.312,7.311c0,4.032,3.28,7.312,7.312,7.312
				s7.312-3.28,7.312-7.312C39.312,24.428,36.032,21.148,32,21.148z"/>
		</g>
		<g>
			<g>
				<path d="M32,30.684c-0.276,0-0.5-0.224-0.5-0.5v-6.309c0-0.276,0.224-0.5,0.5-0.5s0.5,0.224,0.5,0.5v6.309
					C32.5,30.46,32.276,30.684,32,30.684z"/>
			</g>
			<g>
				<rect x="31.764" y="32.57" width="0.477" height="0.475"/>
				<path d="M32.24,33.545h-0.477c-0.276,0-0.5-0.224-0.5-0.5V32.57c0-0.276,0.224-0.5,0.5-0.5h0.477c0.276,0,0.5,0.224,0.5,0.5
					v0.475C32.74,33.321,32.517,33.545,32.24,33.545z"/>
			</g>
		</g>
	</g>
</g>
</svg>
