<?xml version="1.0" encoding="utf-8"?>
<!-- Generator: Adobe Illustrator 16.0.0, SVG Export Plug-In . SVG Version: 6.00 Build 0)  -->
<!DOCTYPE svg PUBLIC "-//W3C//DTD SVG 1.1//EN" "http://www.w3.org/Graphics/SVG/1.1/DTD/svg11.dtd">
<svg version="1.1" id="Layer_1" xmlns="http://www.w3.org/2000/svg" xmlns:xlink="http://www.w3.org/1999/xlink" x="0px" y="0px"
	 width="64px" height="64px" viewBox="0 0 64 64" enable-background="new 0 0 64 64" xml:space="preserve">
<g>
	<g>
		<g>
			<path d="M36.146,44.688H25.574c-3.032,0-5.5-2.468-5.5-5.5V25.334c0-3.032,2.468-5.5,5.5-5.5h10.572c3.032,0,5.5,2.468,5.5,5.5
				v13.854C41.646,42.22,39.179,44.688,36.146,44.688z M25.574,20.834c-2.481,0-4.5,2.019-4.5,4.5v13.854c0,2.481,2.019,4.5,4.5,4.5
				h10.572c2.481,0,4.5-2.019,4.5-4.5V25.334c0-2.481-2.019-4.5-4.5-4.5H25.574z"/>
		</g>
		<g>
			<path d="M43.426,29.98c-0.276,0-0.5-0.224-0.5-0.5v-3.963c0-0.276,0.224-0.5,0.5-0.5s0.5,0.224,0.5,0.5v3.963
				C43.926,29.757,43.702,29.98,43.426,29.98z"/>
		</g>
		<g>
			<path d="M37.346,18.5c-0.276,0-0.5-0.224-0.5-0.5v-3.676c0-0.827-0.673-1.5-1.5-1.5h-8.969c-0.827,0-1.5,0.673-1.5,1.5V18
				c0,0.276-0.224,0.5-0.5,0.5s-0.5-0.224-0.5-0.5v-3.676c0-1.379,1.121-2.5,2.5-2.5h8.969c1.379,0,2.5,1.121,2.5,2.5V18
				C37.846,18.276,37.622,18.5,37.346,18.5z"/>
		</g>
		<g>
			<path d="M35.346,52.695h-8.969c-1.379,0-2.5-1.121-2.5-2.5v-3.674c0-0.276,0.224-0.5,0.5-0.5s0.5,0.224,0.5,0.5v3.674
				c0,0.827,0.673,1.5,1.5,1.5h8.969c0.827,0,1.5-0.673,1.5-1.5v-3.674c0-0.276,0.224-0.5,0.5-0.5s0.5,0.224,0.5,0.5v3.674
				C37.846,51.574,36.725,52.695,35.346,52.695z"/>
		</g>
	</g>
	<g>
		
			<circle fill="none" stroke="#000000" stroke-linecap="round" stroke-linejoin="round" stroke-miterlimit="10" cx="30.86" cy="32.26" r="6.642"/>
		<g>
			
				<line fill="none" stroke="#000000" stroke-linecap="round" stroke-linejoin="round" stroke-miterlimit="10" x1="30.861" y1="28.361" x2="30.861" y2="33.725"/>
			
				<rect x="30.658" y="35.754" stroke="#000000" stroke-linecap="round" stroke-linejoin="round" stroke-miterlimit="10" width="0.404" height="0.404"/>
		</g>
	</g>
</g>
</svg>
