<?xml version="1.0" encoding="utf-8"?>
<!-- Generator: Adobe Illustrator 16.0.0, SVG Export Plug-In . SVG Version: 6.00 Build 0)  -->
<!DOCTYPE svg PUBLIC "-//W3C//DTD SVG 1.1//EN" "http://www.w3.org/Graphics/SVG/1.1/DTD/svg11.dtd">
<svg version="1.1" id="Layer_1" xmlns="http://www.w3.org/2000/svg" xmlns:xlink="http://www.w3.org/1999/xlink" x="0px" y="0px"
	 width="32px" height="32px" viewBox="0 0 32 32" enable-background="new 0 0 32 32" xml:space="preserve">
<g>
	<g>
		<g>
			<g>
				<g>
					<path d="M19.677,22.751h-8.214c-1.108,0-2.009-0.902-2.009-2.009V10.636c0-1.108,0.9-2.009,2.009-2.009h8.214
						c1.108,0,2.01,0.901,2.01,2.009v10.105C21.687,21.849,20.785,22.751,19.677,22.751z M11.463,8.992
						c-0.906,0-1.644,0.737-1.644,1.644v10.105c0,0.907,0.737,1.644,1.644,1.644h8.214c0.906,0,1.645-0.737,1.645-1.644V10.636
						c0-0.907-0.738-1.644-1.645-1.644H11.463z"/>
				</g>
			</g>
			<g>
				<g>
					<path d="M22.818,14.268c-0.102,0-0.184-0.081-0.184-0.183v-2.286c0-0.101,0.082-0.183,0.184-0.183S23,11.698,23,11.799v2.286
						C23,14.187,22.92,14.268,22.818,14.268z"/>
				</g>
			</g>
			<g>
				<g>
					<path d="M19.311,7.646c-0.102,0-0.183-0.083-0.183-0.183V4.919c0-0.302-0.246-0.548-0.55-0.548h-6.017
						c-0.301,0-0.548,0.246-0.548,0.548v2.544c0,0.101-0.084,0.183-0.185,0.183s-0.182-0.083-0.182-0.183V4.919
						c0-0.503,0.409-0.913,0.914-0.913h6.017c0.506,0,0.914,0.41,0.914,0.913v2.544C19.492,7.563,19.411,7.646,19.311,7.646z"/>
				</g>
			</g>
			<g>
				<g>
					<path d="M18.578,27.371h-6.017c-0.505,0-0.914-0.409-0.914-0.913v-2.544c0-0.101,0.081-0.182,0.182-0.182
						s0.185,0.082,0.185,0.182v2.544c0,0.302,0.247,0.547,0.548,0.547h6.017c0.304,0,0.55-0.246,0.55-0.547v-2.544
						c0-0.101,0.081-0.182,0.183-0.182c0.101,0,0.182,0.082,0.182,0.182v2.544C19.492,26.962,19.084,27.371,18.578,27.371z"/>
				</g>
			</g>
		</g>
		<g>
			<g>
				<path d="M15.57,20.059c-0.102,0-0.183-0.083-0.183-0.183v-0.857c-1.131-0.074-2.021-0.833-2.021-1.753
					c0-0.101,0.082-0.182,0.182-0.182c0.102,0,0.184,0.081,0.184,0.182c0,0.722,0.728,1.318,1.656,1.387v-2.787
					c-1.131-0.075-2.021-0.833-2.021-1.754c0-0.921,0.891-1.68,2.021-1.753v-0.857c0-0.101,0.081-0.182,0.183-0.182
					s0.184,0.081,0.184,0.182v0.857c1.13,0.074,2.02,0.832,2.02,1.753c0,0.101-0.08,0.183-0.181,0.183
					c-0.103,0-0.183-0.082-0.183-0.183c0-0.723-0.729-1.318-1.656-1.387v2.788c1.13,0.074,2.02,0.833,2.02,1.753
					s-0.89,1.68-2.02,1.753v0.857C15.754,19.977,15.672,20.059,15.57,20.059z M15.754,15.878v2.774
					c0.928-0.069,1.656-0.665,1.656-1.387S16.682,15.948,15.754,15.878z M15.388,12.725c-0.929,0.069-1.656,0.665-1.656,1.387
					c0,0.722,0.728,1.318,1.656,1.387V12.725z"/>
			</g>
		</g>
	</g>
</g>
</svg>
