<?xml version="1.0" encoding="utf-8"?>
<!-- Generator: Adobe Illustrator 16.0.0, SVG Export Plug-In . SVG Version: 6.00 Build 0)  -->
<!DOCTYPE svg PUBLIC "-//W3C//DTD SVG 1.1//EN" "http://www.w3.org/Graphics/SVG/1.1/DTD/svg11.dtd">
<svg version="1.1" id="Layer_1" xmlns="http://www.w3.org/2000/svg" xmlns:xlink="http://www.w3.org/1999/xlink" x="0px" y="0px"
	 width="32px" height="32px" viewBox="0 0 32 32" enable-background="new 0 0 32 32" xml:space="preserve">
<g>
	<g>
		<g>
			<g>
				<g>
					<path d="M27.391,22.589H4.914c-0.705,0-1.278-0.574-1.278-1.279V6.146c0-0.706,0.573-1.279,1.278-1.279h22.477
						c0.703,0,1.278,0.574,1.278,1.279v15.165C28.669,22.015,28.094,22.589,27.391,22.589z M4.914,5.232
						c-0.504,0-0.913,0.41-0.913,0.913v15.165c0,0.504,0.409,0.914,0.913,0.914h22.477c0.503,0,0.913-0.409,0.913-0.914V6.146
						c0-0.503-0.41-0.913-0.913-0.913H4.914z"/>
				</g>
			</g>
			<g>
				<g>
					<path d="M30.705,26.511c-0.002,0-0.004,0-0.007,0H1.606c-0.07,0-0.136-0.042-0.166-0.106c-0.03-0.064-0.02-0.14,0.026-0.195
						l2.16-2.557c0.032-0.041,0.084-0.064,0.138-0.064h24.774c0.054,0,0.104,0.023,0.14,0.064l2.132,2.526
						c0.047,0.033,0.076,0.087,0.076,0.149C30.887,26.429,30.807,26.511,30.705,26.511z M1.999,26.145h28.305l-1.849-2.192H3.851
						L1.999,26.145z"/>
				</g>
			</g>
			<g>
				<g>
					<path d="M28.485,20.666H3.817c-0.101,0-0.182-0.082-0.182-0.183c0-0.101,0.081-0.182,0.182-0.182h24.668
						c0.102,0,0.184,0.082,0.184,0.182C28.669,20.584,28.587,20.666,28.485,20.666z"/>
				</g>
			</g>
		</g>
		<g>
			<g>
				<path d="M16.152,17.756c-0.102,0-0.184-0.083-0.184-0.184v-0.985c-1.269-0.074-2.272-0.92-2.272-1.949
					c0-0.101,0.083-0.182,0.184-0.182s0.183,0.082,0.183,0.182c0,0.83,0.84,1.513,1.906,1.583v-3.178
					c-1.269-0.074-2.272-0.921-2.272-1.949c0-1.03,1.004-1.875,2.272-1.95V8.16c0-0.1,0.082-0.182,0.184-0.182
					c0.101,0,0.183,0.082,0.183,0.182v0.985c1.27,0.075,2.271,0.92,2.271,1.95c0,0.101-0.081,0.183-0.182,0.183
					c-0.102,0-0.184-0.082-0.184-0.183c0-0.83-0.84-1.513-1.906-1.584v3.179c1.27,0.075,2.271,0.921,2.271,1.95
					s-1.002,1.875-2.271,1.949v0.985C16.335,17.673,16.253,17.756,16.152,17.756z M16.335,13.055v3.167
					c1.066-0.07,1.906-0.753,1.906-1.583S17.401,13.125,16.335,13.055z M15.969,9.51c-1.066,0.071-1.906,0.754-1.906,1.584
					s0.84,1.513,1.906,1.583V9.51z"/>
			</g>
		</g>
	</g>
</g>
</svg>
