<?xml version="1.0" encoding="utf-8"?>
<!-- Generator: Adobe Illustrator 16.0.0, SVG Export Plug-In . SVG Version: 6.00 Build 0)  -->
<!DOCTYPE svg PUBLIC "-//W3C//DTD SVG 1.1//EN" "http://www.w3.org/Graphics/SVG/1.1/DTD/svg11.dtd">
<svg version="1.1" id="Layer_1" xmlns="http://www.w3.org/2000/svg" xmlns:xlink="http://www.w3.org/1999/xlink" x="0px" y="0px"
	 width="32px" height="32px" viewBox="0 0 32 32" enable-background="new 0 0 32 32" xml:space="preserve">
<g>
	<g>
		<g>
			<g>
				<path d="M21.635,29.59H10.603c-0.704,0-1.279-0.574-1.279-1.278V3.065c0-0.706,0.575-1.279,1.279-1.279h11.032
					c0.705,0,1.278,0.574,1.278,1.279v25.247C22.913,29.017,22.34,29.59,21.635,29.59z M10.603,2.152
					c-0.504,0-0.914,0.41-0.914,0.914v25.247c0,0.503,0.41,0.914,0.914,0.914h11.032c0.503,0,0.913-0.41,0.913-0.914V3.065
					c0-0.503-0.41-0.914-0.913-0.914H10.603z"/>
			</g>
		</g>
		<g>
			<g>
				<path d="M22.54,24.578H9.697c-0.102,0-0.182-0.082-0.182-0.183c0-0.102,0.08-0.183,0.182-0.183H22.54
					c0.101,0,0.182,0.081,0.182,0.183C22.722,24.496,22.641,24.578,22.54,24.578z"/>
			</g>
		</g>
		<g>
			<g>
				<circle cx="16.118" cy="26.989" r="0.746"/>
			</g>
		</g>
		<g>
			<g>
				<path d="M16.118,18.287c-0.101,0-0.184-0.082-0.184-0.182v-0.937c-1.215-0.074-2.176-0.886-2.176-1.874
					c0-0.101,0.082-0.183,0.183-0.183c0.102,0,0.183,0.082,0.183,0.183c0,0.788,0.798,1.438,1.811,1.508v-3.028
					c-1.215-0.076-2.176-0.888-2.176-1.875s0.961-1.8,2.176-1.875V9.089c0-0.101,0.083-0.183,0.184-0.183s0.183,0.082,0.183,0.183
					v0.936c1.216,0.075,2.176,0.887,2.176,1.875c0,0.101-0.081,0.183-0.183,0.183c-0.101,0-0.182-0.082-0.182-0.183
					c0-0.788-0.797-1.438-1.812-1.509v3.029c1.216,0.075,2.176,0.887,2.176,1.875c0,0.988-0.96,1.8-2.176,1.874v0.937
					C16.301,18.206,16.219,18.287,16.118,18.287z M16.301,13.786v3.017c1.015-0.07,1.812-0.72,1.812-1.508
					C18.112,14.505,17.315,13.856,16.301,13.786z M15.935,10.391c-1.013,0.07-1.811,0.721-1.811,1.509
					c0,0.789,0.798,1.438,1.811,1.509V10.391z"/>
			</g>
		</g>
	</g>
</g>
</svg>
