<?xml version="1.0" encoding="utf-8"?>
<!-- Generator: Adobe Illustrator 16.0.0, SVG Export Plug-In . SVG Version: 6.00 Build 0)  -->
<!DOCTYPE svg PUBLIC "-//W3C//DTD SVG 1.1//EN" "http://www.w3.org/Graphics/SVG/1.1/DTD/svg11.dtd">
<svg version="1.1" id="Layer_1" xmlns="http://www.w3.org/2000/svg" xmlns:xlink="http://www.w3.org/1999/xlink" x="0px" y="0px"
	 width="32px" height="32px" viewBox="0 0 32 32" enable-background="new 0 0 32 32" xml:space="preserve">
<g>
	<g>
		<g>
			<g>
				<path d="M25.166,30.138H6.999c-0.706,0-1.279-0.574-1.279-1.279V2.518c0-0.705,0.573-1.279,1.279-1.279h18.167
					c0.705,0,1.278,0.574,1.278,1.279v26.341C26.444,29.564,25.871,30.138,25.166,30.138z M6.999,1.604
					c-0.504,0-0.914,0.409-0.914,0.914v26.341c0,0.504,0.41,0.913,0.914,0.913h18.167c0.503,0,0.913-0.409,0.913-0.913V2.518
					c0-0.504-0.41-0.914-0.913-0.914H6.999z"/>
			</g>
		</g>
		<g>
			<g>
				<circle cx="16.083" cy="27.72" r="0.746"/>
			</g>
		</g>
		<g>
			<g>
				<path d="M26.106,25.188H6.058c-0.1,0-0.182-0.082-0.182-0.183c0-0.101,0.082-0.182,0.182-0.182h20.049
					c0.102,0,0.182,0.082,0.182,0.182C26.288,25.105,26.208,25.188,26.106,25.188z"/>
			</g>
		</g>
		<g>
			<g>
				<path d="M16.082,19.722c-0.102,0-0.183-0.083-0.183-0.183V18.25c-1.599-0.075-2.869-1.129-2.869-2.415
					c0-0.102,0.082-0.183,0.183-0.183c0.102,0,0.183,0.082,0.183,0.183c0,1.085,1.107,1.977,2.504,2.05v-4.109
					c-1.599-0.076-2.869-1.13-2.869-2.416c0-1.285,1.271-2.341,2.869-2.416V7.655c0-0.101,0.081-0.183,0.183-0.183
					s0.183,0.082,0.183,0.183v1.288c1.599,0.075,2.869,1.131,2.869,2.416c0,0.101-0.081,0.182-0.183,0.182
					c-0.101,0-0.182-0.081-0.182-0.182c0-1.086-1.108-1.979-2.505-2.05v4.109c1.599,0.075,2.869,1.129,2.869,2.416
					c0,1.286-1.271,2.34-2.869,2.415v1.289C16.265,19.64,16.184,19.722,16.082,19.722z M16.265,13.784v4.101
					c1.396-0.073,2.505-0.964,2.505-2.05C18.77,14.749,17.661,13.856,16.265,13.784z M15.899,9.31
					c-1.396,0.071-2.504,0.964-2.504,2.05c0,1.086,1.107,1.978,2.504,2.05V9.31z"/>
			</g>
		</g>
	</g>
</g>
</svg>
