<?xml version="1.0" encoding="utf-8"?>
<!-- Generator: Adobe Illustrator 16.0.0, SVG Export Plug-In . SVG Version: 6.00 Build 0)  -->
<!DOCTYPE svg PUBLIC "-//W3C//DTD SVG 1.1//EN" "http://www.w3.org/Graphics/SVG/1.1/DTD/svg11.dtd">
<svg version="1.1" id="Layer_1" xmlns="http://www.w3.org/2000/svg" xmlns:xlink="http://www.w3.org/1999/xlink" x="0px" y="0px"
	 width="32px" height="32px" viewBox="0 0 32 32" enable-background="new 0 0 32 32" xml:space="preserve">
<g>
	<g>
		<g>
			<g>
				<g>
					<path d="M27.431,22.818H4.952c-0.704,0-1.277-0.574-1.277-1.279V6.374c0-0.706,0.573-1.279,1.277-1.279h22.479
						c0.702,0,1.276,0.573,1.276,1.279v15.165C28.707,22.244,28.133,22.818,27.431,22.818z M4.952,5.46
						c-0.504,0-0.912,0.41-0.912,0.914v15.165c0,0.503,0.408,0.913,0.912,0.913h22.479c0.501,0,0.912-0.41,0.912-0.913V6.374
						c0-0.504-0.411-0.914-0.912-0.914H4.952z"/>
				</g>
			</g>
			<g>
				<g>
					<path d="M28.525,20.894H3.856c-0.101,0-0.182-0.082-0.182-0.182c0-0.101,0.081-0.183,0.182-0.183h24.669
						c0.101,0,0.182,0.082,0.182,0.183C28.707,20.812,28.626,20.894,28.525,20.894z"/>
				</g>
			</g>
			<g>
				<g>
					<g>
						<path d="M11.281,26.054c-0.037,0-0.077-0.012-0.111-0.038c-0.078-0.062-0.095-0.177-0.033-0.257l2.512-3.243
							c0.062-0.079,0.177-0.093,0.257-0.032c0.08,0.062,0.095,0.177,0.031,0.256l-2.51,3.242
							C11.391,26.03,11.337,26.054,11.281,26.054z"/>
					</g>
				</g>
				<g>
					<g>
						<path d="M21.1,26.054c-0.055,0-0.108-0.023-0.145-0.071l-2.511-3.242c-0.062-0.079-0.048-0.194,0.032-0.256
							c0.081-0.061,0.193-0.047,0.257,0.032l2.512,3.243c0.061,0.08,0.046,0.195-0.033,0.257
							C21.177,26.042,21.139,26.054,21.1,26.054z"/>
					</g>
				</g>
			</g>
			<g>
				<g>
					<path d="M23.04,26.282H9.341c-0.101,0-0.181-0.082-0.181-0.183c0-0.101,0.08-0.182,0.181-0.182H23.04
						c0.102,0,0.183,0.081,0.183,0.182C23.223,26.2,23.142,26.282,23.04,26.282z"/>
				</g>
			</g>
		</g>
		<g>
			<g>
				<path d="M16.191,17.789c-0.102,0-0.184-0.082-0.184-0.183v-0.903c-1.181-0.075-2.112-0.864-2.112-1.825
					c0-0.101,0.082-0.182,0.183-0.182c0.103,0,0.183,0.082,0.183,0.182c0,0.761,0.769,1.388,1.747,1.458v-2.928
					c-1.181-0.075-2.112-0.864-2.112-1.825c0-0.959,0.932-1.75,2.112-1.824V8.857c0-0.101,0.082-0.182,0.184-0.182
					c0.099,0,0.182,0.082,0.182,0.182V9.76c1.182,0.074,2.113,0.865,2.113,1.824c0,0.102-0.082,0.183-0.183,0.183
					c-0.103,0-0.183-0.081-0.183-0.183c0-0.76-0.77-1.388-1.748-1.458v2.928c1.182,0.075,2.113,0.864,2.113,1.824
					c0,0.96-0.932,1.75-2.113,1.825v0.903C16.373,17.707,16.29,17.789,16.191,17.789z M16.373,13.421v2.916
					c0.979-0.07,1.748-0.697,1.748-1.458C18.121,14.118,17.352,13.491,16.373,13.421z M16.008,10.126
					c-0.979,0.07-1.747,0.698-1.747,1.458c0,0.761,0.769,1.389,1.747,1.458V10.126z"/>
			</g>
		</g>
	</g>
</g>
</svg>
