<?xml version="1.0" encoding="utf-8"?>
<!-- Generator: Adobe Illustrator 16.0.0, SVG Export Plug-In . SVG Version: 6.00 Build 0)  -->
<!DOCTYPE svg PUBLIC "-//W3C//DTD SVG 1.1//EN" "http://www.w3.org/Graphics/SVG/1.1/DTD/svg11.dtd">
<svg version="1.1" id="Layer_1" xmlns="http://www.w3.org/2000/svg" xmlns:xlink="http://www.w3.org/1999/xlink" x="0px" y="0px"
	 width="128px" height="128px" viewBox="0 0 128 128" enable-background="new 0 0 128 128" xml:space="preserve">
<g>
	<g>
		
			<line fill="none" stroke="#000000" stroke-width="2" stroke-linecap="round" stroke-linejoin="round" stroke-miterlimit="10" x1="52.916" y1="68.596" x2="75.164" y2="46.348"/>
		
			<line fill="none" stroke="#000000" stroke-width="2" stroke-linecap="round" stroke-linejoin="round" stroke-miterlimit="10" x1="75.164" y1="68.596" x2="52.917" y2="46.348"/>
	</g>
	<g>
		<g>
			<path d="M103.317,89.975H24.765c-2.206,0-4-1.794-4-4V32.484c0-2.206,1.794-4,4-4h78.553c2.206,0,4,1.794,4,4v53.491
				C107.317,88.181,105.523,89.975,103.317,89.975z M24.765,30.484c-1.103,0-2,0.897-2,2v53.491c0,1.103,0.897,2,2,2h78.553
				c1.103,0,2-0.897,2-2V32.484c0-1.103-0.897-2-2-2H24.765z"/>
		</g>
		<g>
			<path d="M106.317,83.386H21.765c-0.553,0-1-0.448-1-1s0.447-1,1-1h84.553c0.553,0,1,0.448,1,1S106.87,83.386,106.317,83.386z"/>
		</g>
		<g>
			<g>
				<path d="M47.213,101.071c-0.214,0-0.429-0.068-0.611-0.209c-0.437-0.338-0.517-0.966-0.179-1.403l8.607-11.113
					c0.339-0.437,0.966-0.516,1.403-0.178c0.437,0.338,0.517,0.966,0.179,1.403l-8.607,11.113
					C47.808,100.938,47.512,101.071,47.213,101.071z"/>
			</g>
			<g>
				<path d="M80.865,101.071c-0.299,0-0.595-0.133-0.792-0.388L71.466,89.57c-0.338-0.437-0.258-1.065,0.179-1.403
					c0.438-0.338,1.064-0.258,1.403,0.178l8.607,11.113c0.338,0.437,0.258,1.065-0.179,1.403
					C81.294,101.003,81.079,101.071,80.865,101.071z"/>
			</g>
		</g>
		<g>
			<path d="M87.515,101.852H40.562c-0.553,0-1-0.448-1-1s0.447-1,1-1h46.952c0.553,0,1,0.448,1,1S88.067,101.852,87.515,101.852z"/>
		</g>
	</g>
</g>
</svg>
