<?xml version="1.0" encoding="utf-8"?>
<!-- Generator: Adobe Illustrator 16.0.0, SVG Export Plug-In . SVG Version: 6.00 Build 0)  -->
<!DOCTYPE svg PUBLIC "-//W3C//DTD SVG 1.1//EN" "http://www.w3.org/Graphics/SVG/1.1/DTD/svg11.dtd">
<svg version="1.1" id="Layer_1" xmlns="http://www.w3.org/2000/svg" xmlns:xlink="http://www.w3.org/1999/xlink" x="0px" y="0px"
	 width="128px" height="128px" viewBox="0 0 128 128" enable-background="new 0 0 128 128" xml:space="preserve">
<g>
	<g>
		<path d="M74.514,70.196c-0.256,0-0.512-0.098-0.707-0.293L52.865,48.96c-0.391-0.391-0.391-1.023,0-1.414s1.023-0.391,1.414,0
			l20.941,20.943c0.391,0.391,0.391,1.023,0,1.414C75.025,70.099,74.77,70.196,74.514,70.196z"/>
	</g>
	<g>
		<path d="M53.572,70.196c-0.256,0-0.512-0.098-0.707-0.293c-0.391-0.391-0.391-1.023,0-1.414l20.941-20.943
			c0.391-0.391,1.023-0.391,1.414,0s0.391,1.023,0,1.414L54.279,69.903C54.084,70.099,53.828,70.196,53.572,70.196z"/>
	</g>
	<g>
		<path d="M83.701,113.193h-39.32c-2.206,0-4-1.794-4-4V21.145c0-2.206,1.794-4,4-4h39.32c2.206,0,4,1.794,4,4v88.048
			C87.701,111.398,85.907,113.193,83.701,113.193z M44.381,19.145c-1.103,0-2,0.897-2,2v88.048c0,1.103,0.897,2,2,2h39.32
			c1.103,0,2-0.897,2-2V21.145c0-1.103-0.897-2-2-2H44.381z"/>
	</g>
	<g>
		<path d="M86.053,96.011H42.029c-0.553,0-1-0.448-1-1s0.447-1,1-1h44.023c0.553,0,1,0.448,1,1S86.605,96.011,86.053,96.011z"/>
	</g>
	<g>
		<path d="M66.598,103.902c0,1.411-1.146,2.554-2.557,2.554c-1.414,0-2.553-1.143-2.553-2.554c0-1.41,1.139-2.555,2.553-2.555
			C65.451,101.348,66.598,102.493,66.598,103.902z"/>
	</g>
</g>
</svg>
