<?xml version="1.0" encoding="utf-8"?>
<!-- Generator: Adobe Illustrator 16.0.0, SVG Export Plug-In . SVG Version: 6.00 Build 0)  -->
<!DOCTYPE svg PUBLIC "-//W3C//DTD SVG 1.1//EN" "http://www.w3.org/Graphics/SVG/1.1/DTD/svg11.dtd">
<svg version="1.1" id="Layer_1" xmlns="http://www.w3.org/2000/svg" xmlns:xlink="http://www.w3.org/1999/xlink" x="0px" y="0px"
	 width="64px" height="64px" viewBox="0 0 64 64" enable-background="new 0 0 64 64" xml:space="preserve">
<g>
	<g>
		<path d="M46.647,57.492H17.353c-1.93,0-3.5-1.57-3.5-3.5V10.527c0-1.93,1.57-3.5,3.5-3.5h29.295c1.93,0,3.5,1.57,3.5,3.5v43.465
			C50.147,55.922,48.577,57.492,46.647,57.492z M17.353,8.027c-1.378,0-2.5,1.122-2.5,2.5v43.465c0,1.378,1.122,2.5,2.5,2.5h29.295
			c1.378,0,2.5-1.122,2.5-2.5V10.527c0-1.378-1.122-2.5-2.5-2.5H17.353z"/>
	</g>
	<g>
		<circle cx="32" cy="53.117" r="1.292"/>
	</g>
	<g>
		<path d="M49.379,48.91H14.621c-0.276,0-0.5-0.224-0.5-0.5s0.224-0.5,0.5-0.5h34.758c0.276,0,0.5,0.224,0.5,0.5
			S49.655,48.91,49.379,48.91z"/>
	</g>
	<g>
		<path d="M26.313,39.953c-0.064,0-0.129-0.012-0.191-0.038c-0.187-0.077-0.309-0.26-0.309-0.462v-4.09h-4.526
			c-0.276,0-0.5-0.224-0.5-0.5V20.056c0-0.276,0.224-0.5,0.5-0.5h21.426c0.276,0,0.5,0.224,0.5,0.5v14.808
			c0,0.276-0.224,0.5-0.5,0.5H31.111l-4.444,4.443C26.571,39.902,26.443,39.953,26.313,39.953z M21.787,34.363h4.526
			c0.276,0,0.5,0.224,0.5,0.5v3.383l3.737-3.736c0.094-0.094,0.221-0.146,0.354-0.146h11.309V20.556H21.787V34.363z"/>
	</g>
	<g>
		<g>
			<circle cx="28.2" cy="27.765" r="1.012"/>
		</g>
		<g>
			<circle cx="32" cy="27.765" r="1.013"/>
		</g>
		<g>
			<circle cx="35.8" cy="27.765" r="1.014"/>
		</g>
	</g>
</g>
</svg>
