<?xml version="1.0" encoding="utf-8"?>
<!-- Generator: Adobe Illustrator 16.0.0, SVG Export Plug-In . SVG Version: 6.00 Build 0)  -->
<!DOCTYPE svg PUBLIC "-//W3C//DTD SVG 1.1//EN" "http://www.w3.org/Graphics/SVG/1.1/DTD/svg11.dtd">
<svg version="1.1" id="Layer_1" xmlns="http://www.w3.org/2000/svg" xmlns:xlink="http://www.w3.org/1999/xlink" x="0px" y="0px"
	 width="64px" height="64px" viewBox="0 0 64 64" enable-background="new 0 0 64 64" xml:space="preserve">
<g>
	<g>
		<g>
			<path d="M50.383,44.803H13.617c-1.93,0-3.5-1.57-3.5-3.5V17.212c0-1.93,1.57-3.5,3.5-3.5h36.767c1.93,0,3.5,1.57,3.5,3.5v24.091
				C53.883,43.232,52.313,44.803,50.383,44.803z M13.617,14.712c-1.378,0-2.5,1.122-2.5,2.5v24.091c0,1.378,1.122,2.5,2.5,2.5
				h36.767c1.378,0,2.5-1.122,2.5-2.5V17.212c0-1.378-1.122-2.5-2.5-2.5H13.617z"/>
		</g>
		<g>
			<path d="M53.383,41.467H10.617c-0.276,0-0.5-0.224-0.5-0.5s0.224-0.5,0.5-0.5h42.767c0.276,0,0.5,0.224,0.5,0.5
				S53.66,41.467,53.383,41.467z"/>
		</g>
		<g>
			<g>
				<path d="M23.491,50.412c-0.107,0-0.214-0.034-0.306-0.104c-0.218-0.169-0.258-0.483-0.089-0.702l4.353-5.62
					c0.17-0.218,0.483-0.257,0.702-0.089c0.218,0.169,0.258,0.483,0.089,0.702l-4.353,5.62
					C23.788,50.346,23.64,50.412,23.491,50.412z"/>
			</g>
			<g>
				<path d="M40.511,50.412c-0.149,0-0.297-0.066-0.396-0.194l-4.354-5.62c-0.169-0.218-0.129-0.532,0.089-0.701
					c0.218-0.17,0.533-0.129,0.701,0.089l4.354,5.62c0.169,0.218,0.129,0.532-0.089,0.701
					C40.726,50.378,40.618,50.412,40.511,50.412z"/>
			</g>
		</g>
		<g>
			<path d="M43.874,50.809H20.125c-0.276,0-0.5-0.224-0.5-0.5s0.224-0.5,0.5-0.5h23.749c0.276,0,0.5,0.224,0.5,0.5
				S44.15,50.809,43.874,50.809z"/>
		</g>
	</g>
	<g>
		<polygon fill="none" stroke="#000000" stroke-linecap="round" stroke-linejoin="round" stroke-miterlimit="10" points="
			40.83,20.494 23.171,20.494 23.171,32.698 27.312,32.698 27.312,36.481 31.098,32.698 40.83,32.698 		"/>
		<g>
			<circle cx="28.868" cy="26.848" r="0.834"/>
			<circle cx="32" cy="26.848" r="0.835"/>
			<circle cx="35.132" cy="26.848" r="0.835"/>
		</g>
	</g>
</g>
</svg>
