<?xml version="1.0" encoding="utf-8"?>
<!-- Generator: Adobe Illustrator 16.0.0, SVG Export Plug-In . SVG Version: 6.00 Build 0)  -->
<!DOCTYPE svg PUBLIC "-//W3C//DTD SVG 1.1//EN" "http://www.w3.org/Graphics/SVG/1.1/DTD/svg11.dtd">
<svg version="1.1" id="Layer_1" xmlns="http://www.w3.org/2000/svg" xmlns:xlink="http://www.w3.org/1999/xlink" x="0px" y="0px"
	 width="64px" height="64px" viewBox="0 0 64 64" enable-background="new 0 0 64 64" xml:space="preserve">
<g>
	<g>
		<path d="M40.461,56.544H23.539c-1.93,0-3.5-1.57-3.5-3.5V11.476c0-1.93,1.57-3.5,3.5-3.5h16.923c1.93,0,3.5,1.57,3.5,3.5v41.568
			C43.961,54.974,42.391,56.544,40.461,56.544z M23.539,8.976c-1.378,0-2.5,1.122-2.5,2.5v41.568c0,1.378,1.122,2.5,2.5,2.5h16.923
			c1.378,0,2.5-1.122,2.5-2.5V11.476c0-1.378-1.122-2.5-2.5-2.5H23.539z"/>
	</g>
	<g>
		<path d="M43.132,47.854H20.867c-0.276,0-0.5-0.224-0.5-0.5s0.224-0.5,0.5-0.5h22.265c0.276,0,0.5,0.224,0.5,0.5
			S43.408,47.854,43.132,47.854z"/>
	</g>
	<g>
		<circle cx="32" cy="51.85" r="1.292"/>
	</g>
	<g>
		<path d="M28.172,36.783c-0.064,0-0.129-0.012-0.191-0.038c-0.187-0.077-0.309-0.26-0.309-0.462v-2.591H24.79
			c-0.276,0-0.5-0.224-0.5-0.5v-9.968c0-0.276,0.224-0.5,0.5-0.5h14.421c0.276,0,0.5,0.224,0.5,0.5v9.968c0,0.276-0.224,0.5-0.5,0.5
			h-7.742l-2.944,2.944C28.43,36.732,28.302,36.783,28.172,36.783z M25.29,32.692h2.882c0.276,0,0.5,0.224,0.5,0.5v1.884
			l2.237-2.237c0.094-0.094,0.221-0.146,0.354-0.146h7.449v-8.968H25.29V32.692z"/>
	</g>
	<g>
		<g>
			<circle cx="29.441" cy="28.415" r="0.682"/>
		</g>
		<g>
			<circle cx="32" cy="28.415" r="0.681"/>
		</g>
		<g>
			<circle cx="34.558" cy="28.415" r="0.682"/>
		</g>
	</g>
</g>
</svg>
