<?xml version="1.0" encoding="utf-8"?>
<!-- Generator: Adobe Illustrator 16.0.0, SVG Export Plug-In . SVG Version: 6.00 Build 0)  -->
<!DOCTYPE svg PUBLIC "-//W3C//DTD SVG 1.1//EN" "http://www.w3.org/Graphics/SVG/1.1/DTD/svg11.dtd">
<svg version="1.1" id="Layer_1" xmlns="http://www.w3.org/2000/svg" xmlns:xlink="http://www.w3.org/1999/xlink" x="0px" y="0px"
	 width="128px" height="128px" viewBox="0 0 128 128" enable-background="new 0 0 128 128" xml:space="preserve">
<g>
	<g>
		<g>
			
				<line fill="none" stroke="#000000" stroke-width="2" stroke-linecap="round" stroke-linejoin="round" stroke-miterlimit="10" x1="64.006" y1="50.134" x2="64.006" y2="64.049"/>
			
				<line fill="none" stroke="#000000" stroke-width="2" stroke-linecap="round" stroke-linejoin="round" stroke-miterlimit="10" x1="57.043" y1="57.09" x2="70.957" y2="57.09"/>
		</g>
		<path fill="none" stroke="#000000" stroke-width="2" stroke-linecap="round" stroke-linejoin="round" stroke-miterlimit="10" d="
			M76.24,57.09c0,6.764-5.479,12.239-12.234,12.239c-6.766,0-12.246-5.476-12.246-12.239c0-6.761,5.48-12.243,12.246-12.243
			C70.762,44.847,76.24,50.329,76.24,57.09z"/>
	</g>
	<g>
		<g>
			<path d="M99.635,87.225h-71.27c-2.206,0-4-1.794-4-4v-48.37c0-2.206,1.794-4,4-4h71.27c2.206,0,4,1.794,4,4v48.37
				C103.635,85.43,101.841,87.225,99.635,87.225z M28.365,32.854c-1.103,0-2,0.897-2,2v48.37c0,1.103,0.897,2,2,2h71.27
				c1.103,0,2-0.897,2-2v-48.37c0-1.103-0.897-2-2-2H28.365z"/>
		</g>
		<g>
			<path d="M102.635,81.196h-77.27c-0.553,0-1-0.448-1-1s0.447-1,1-1h77.27c0.553,0,1,0.448,1,1S103.188,81.196,102.635,81.196z"/>
		</g>
		<g>
			<g>
				<path d="M48.624,97.355c-0.214,0-0.43-0.068-0.611-0.21c-0.437-0.338-0.517-0.966-0.178-1.403l7.871-10.151
					c0.339-0.435,0.968-0.516,1.402-0.177c0.437,0.338,0.517,0.966,0.178,1.403l-7.871,10.151
					C49.218,97.222,48.923,97.355,48.624,97.355z"/>
			</g>
			<g>
				<path d="M79.374,97.355c-0.299,0-0.595-0.133-0.792-0.388l-7.859-10.151c-0.338-0.437-0.258-1.065,0.179-1.403
					c0.438-0.338,1.064-0.258,1.403,0.178l7.859,10.151c0.338,0.437,0.258,1.065-0.179,1.403
					C79.803,97.287,79.588,97.355,79.374,97.355z"/>
			</g>
		</g>
		<g>
			<path d="M85.463,98.07H42.547c-0.553,0-1-0.448-1-1s0.447-1,1-1h42.916c0.553,0,1,0.448,1,1S86.016,98.07,85.463,98.07z"/>
		</g>
	</g>
</g>
</svg>
