<?xml version="1.0" encoding="utf-8"?>
<!-- Generator: Adobe Illustrator 16.0.0, SVG Export Plug-In . SVG Version: 6.00 Build 0)  -->
<!DOCTYPE svg PUBLIC "-//W3C//DTD SVG 1.1//EN" "http://www.w3.org/Graphics/SVG/1.1/DTD/svg11.dtd">
<svg version="1.1" id="Layer_1" xmlns="http://www.w3.org/2000/svg" xmlns:xlink="http://www.w3.org/1999/xlink" x="0px" y="0px"
	 width="128px" height="128px" viewBox="0 0 128 128" enable-background="new 0 0 128 128" xml:space="preserve">
<g>
	<g>
		<g>
			<path d="M64,65.51c-0.553,0-1-0.448-1-1V49.667c0-0.552,0.447-1,1-1s1,0.448,1,1V64.51C65,65.062,64.553,65.51,64,65.51z"/>
		</g>
		<g>
			<path d="M71.42,58.09H56.576c-0.553,0-1-0.448-1-1s0.447-1,1-1H71.42c0.553,0,1,0.448,1,1S71.973,58.09,71.42,58.09z"/>
		</g>
	</g>
	<g>
		<path d="M64,71.149c-7.752,0-14.059-6.307-14.059-14.06c0-7.751,6.307-14.057,14.059-14.057c7.754,0,14.062,6.306,14.062,14.057
			C78.062,64.842,71.754,71.149,64,71.149z M64,45.033c-6.649,0-12.059,5.409-12.059,12.057c0,6.65,5.409,12.06,12.059,12.06
			c6.651,0,12.062-5.41,12.062-12.06C76.062,50.442,70.651,45.033,64,45.033z"/>
	</g>
	<g>
		<path d="M66.674,100.312c0,1.475-1.199,2.673-2.674,2.673c-1.477,0-2.67-1.198-2.67-2.673c0-1.472,1.193-2.669,2.67-2.669
			C65.475,97.644,66.674,98.841,66.674,100.312z"/>
	</g>
	<g>
		<path d="M81.709,108.435H46.291c-2.206,0-4-1.794-4-4v-79.94c0-2.206,1.794-4,4-4h35.418c2.206,0,4,1.794,4,4v79.94
			C85.709,106.64,83.915,108.435,81.709,108.435z M46.291,22.494c-1.103,0-2,0.897-2,2v79.94c0,1.103,0.897,2,2,2h35.418
			c1.103,0,2-0.897,2-2v-79.94c0-1.103-0.897-2-2-2H46.291z"/>
	</g>
	<g>
		<path d="M84.111,92.729H43.889c-0.553,0-1-0.448-1-1s0.447-1,1-1h40.223c0.553,0,1,0.448,1,1S84.664,92.729,84.111,92.729z"/>
	</g>
</g>
</svg>
