<?xml version="1.0" encoding="utf-8"?>
<!-- Generator: Adobe Illustrator 16.0.0, SVG Export Plug-In . SVG Version: 6.00 Build 0)  -->
<!DOCTYPE svg PUBLIC "-//W3C//DTD SVG 1.1//EN" "http://www.w3.org/Graphics/SVG/1.1/DTD/svg11.dtd">
<svg version="1.1" id="Layer_1" xmlns="http://www.w3.org/2000/svg" xmlns:xlink="http://www.w3.org/1999/xlink" x="0px" y="0px"
	 width="128px" height="128px" viewBox="0 0 128 128" enable-background="new 0 0 128 128" xml:space="preserve">
<g>
	<g>
		<g>
			<path d="M64,69.061c-0.553,0-1-0.448-1-1V46.123c0-0.552,0.447-1,1-1s1,0.448,1,1v21.938C65,68.613,64.553,69.061,64,69.061z"/>
		</g>
		<g>
			<path d="M74.975,58.09H53.031c-0.553,0-1-0.448-1-1s0.447-1,1-1h21.943c0.553,0,1,0.448,1,1S75.527,58.09,74.975,58.09z"/>
		</g>
	</g>
	<g>
		<path d="M64,77.389c-11.194,0-20.301-9.106-20.301-20.299c0-11.193,9.106-20.3,20.301-20.3c11.196,0,20.305,9.106,20.305,20.3
			C84.305,68.283,75.196,77.389,64,77.389z M64,38.79c-10.091,0-18.301,8.209-18.301,18.3c0,10.09,8.21,18.299,18.301,18.299
			c10.093,0,18.305-8.209,18.305-18.299C82.305,47,74.093,38.79,64,38.79z"/>
	</g>
	<g>
		<path d="M92.885,110.149h-57.77c-2.206,0-4-1.794-4-4V22.781c0-2.206,1.794-4,4-4h57.77c2.206,0,4,1.794,4,4v83.368
			C96.885,108.355,95.091,110.149,92.885,110.149z M35.115,20.781c-1.103,0-2,0.897-2,2v83.368c0,1.103,0.897,2,2,2h57.77
			c1.103,0,2-0.897,2-2V22.781c0-1.103-0.897-2-2-2H35.115z"/>
	</g>
	<g>
		<path d="M66.336,102.146c0,1.292-1.047,2.337-2.336,2.337c-1.285,0-2.334-1.045-2.334-2.337c0-1.285,1.049-2.336,2.334-2.336
			C65.289,99.81,66.336,100.86,66.336,102.146z"/>
	</g>
	<g>
		<path d="M95.402,94.646H32.602c-0.553,0-1-0.448-1-1s0.447-1,1-1h62.801c0.553,0,1,0.448,1,1S95.955,94.646,95.402,94.646z"/>
	</g>
</g>
</svg>
