<?xml version="1.0" encoding="utf-8"?>
<!-- Generator: Adobe Illustrator 16.0.0, SVG Export Plug-In . SVG Version: 6.00 Build 0)  -->
<!DOCTYPE svg PUBLIC "-//W3C//DTD SVG 1.1//EN" "http://www.w3.org/Graphics/SVG/1.1/DTD/svg11.dtd">
<svg version="1.1" id="Layer_1" xmlns="http://www.w3.org/2000/svg" xmlns:xlink="http://www.w3.org/1999/xlink" x="0px" y="0px"
	 width="128px" height="128px" viewBox="0 0 128 128" enable-background="new 0 0 128 128" xml:space="preserve">
<g>
	<g>
		<g>
			
				<line fill="none" stroke="#000000" stroke-width="2" stroke-linecap="round" stroke-linejoin="round" stroke-miterlimit="10" x1="61.944" y1="58.583" x2="61.944" y2="70.348"/>
			
				<line fill="none" stroke="#000000" stroke-width="2" stroke-linecap="round" stroke-linejoin="round" stroke-miterlimit="10" x1="56.058" y1="64.465" x2="67.821" y2="64.465"/>
		</g>
		
			<circle fill="none" stroke="#000000" stroke-width="2" stroke-linecap="round" stroke-linejoin="round" stroke-miterlimit="10" cx="61.943" cy="64.465" r="10.354"/>
	</g>
	<g>
		<g>
			<path d="M75.528,87.014H48.354c-3.309,0-6-2.691-6-6V47.916c0-3.309,2.691-6,6-6h27.174c3.309,0,6,2.691,6,6v33.098
				C81.528,84.322,78.837,87.014,75.528,87.014z M48.354,43.916c-2.206,0-4,1.794-4,4v33.098c0,2.206,1.794,4,4,4h27.174
				c2.206,0,4-1.794,4-4V47.916c0-2.206-1.794-4-4-4H48.354z"/>
		</g>
		<g>
			<path d="M84.646,60.442c-0.553,0-1-0.448-1-1v-7.163c0-0.552,0.447-1,1-1s1,0.448,1,1v7.163
				C85.646,59.995,85.198,60.442,84.646,60.442z"/>
		</g>
		<g>
			<path d="M73.656,39.7c-0.553,0-1-0.448-1-1v-8.253c0-0.551-0.448-1-1-1H52.226c-0.552,0-1,0.449-1,1V38.7c0,0.552-0.447,1-1,1
				s-1-0.448-1-1v-8.253c0-1.654,1.346-3,3-3h19.431c1.654,0,3,1.346,3,3V38.7C74.656,39.252,74.209,39.7,73.656,39.7z"/>
		</g>
		<g>
			<path d="M71.656,101.483H52.226c-1.654,0-3-1.346-3-3v-8.255c0-0.552,0.447-1,1-1s1,0.448,1,1v8.255c0,0.551,0.448,1,1,1h19.431
				c0.552,0,1-0.449,1-1v-8.255c0-0.552,0.447-1,1-1s1,0.448,1,1v8.255C74.656,100.138,73.311,101.483,71.656,101.483z"/>
		</g>
	</g>
</g>
</svg>
