<?xml version="1.0" encoding="utf-8"?>
<!-- Generator: Adobe Illustrator 16.0.0, SVG Export Plug-In . SVG Version: 6.00 Build 0)  -->
<!DOCTYPE svg PUBLIC "-//W3C//DTD SVG 1.1//EN" "http://www.w3.org/Graphics/SVG/1.1/DTD/svg11.dtd">
<svg version="1.1" id="Layer_1" xmlns="http://www.w3.org/2000/svg" xmlns:xlink="http://www.w3.org/1999/xlink" x="0px" y="0px"
	 width="128px" height="128px" viewBox="0 0 128 128" enable-background="new 0 0 128 128" xml:space="preserve">
<g>
	<g>
		<g>
			
				<line fill="none" stroke="#000000" stroke-width="2" stroke-linecap="round" stroke-linejoin="round" stroke-miterlimit="10" x1="64" y1="48.272" x2="64" y2="63.618"/>
			
				<line fill="none" stroke="#000000" stroke-width="2" stroke-linecap="round" stroke-linejoin="round" stroke-miterlimit="10" x1="56.33" y1="55.943" x2="71.679" y2="55.943"/>
		</g>
		<path fill="none" stroke="#000000" stroke-width="2" stroke-linecap="round" stroke-linejoin="round" stroke-miterlimit="10" d="
			M77.502,55.943c0,7.462-6.046,13.505-13.502,13.505c-7.463,0-13.501-6.043-13.501-13.505c0-7.453,6.038-13.5,13.501-13.5
			C71.456,42.443,77.502,48.49,77.502,55.943z"/>
	</g>
	<g>
		<g>
			<path d="M99.638,86.508H28.371c-2.206,0-4-1.794-4-4V34.14c0-2.206,1.794-4,4-4h71.267c2.206,0,4,1.794,4,4v48.368
				C103.638,84.713,101.844,86.508,99.638,86.508z M28.371,32.14c-1.103,0-2,0.897-2,2v48.368c0,1.103,0.897,2,2,2h71.267
				c1.103,0,2-0.897,2-2V34.14c0-1.103-0.897-2-2-2H28.371z"/>
		</g>
		<g>
			<path d="M109.574,98.787c-0.005,0-0.013,0-0.02,0H18.445c-0.39,0-0.743-0.226-0.907-0.579s-0.108-0.769,0.144-1.066l6.762-8.008
				c0.189-0.225,0.469-0.355,0.764-0.355h77.586c0.295,0,0.574,0.13,0.764,0.355l6.658,7.884c0.22,0.184,0.359,0.459,0.359,0.769
				C110.574,98.339,110.127,98.787,109.574,98.787z M20.599,96.787h86.803l-5.073-6.008H25.672L20.599,96.787z"/>
		</g>
		<g>
			<path d="M102.638,80.483H25.371c-0.553,0-1-0.448-1-1s0.447-1,1-1h77.267c0.553,0,1,0.448,1,1S103.19,80.483,102.638,80.483z"/>
		</g>
	</g>
</g>
</svg>
