<?xml version="1.0" encoding="utf-8"?>
<!-- Generator: Adobe Illustrator 16.0.0, SVG Export Plug-In . SVG Version: 6.00 Build 0)  -->
<!DOCTYPE svg PUBLIC "-//W3C//DTD SVG 1.1//EN" "http://www.w3.org/Graphics/SVG/1.1/DTD/svg11.dtd">
<svg version="1.1" id="Layer_1" xmlns="http://www.w3.org/2000/svg" xmlns:xlink="http://www.w3.org/1999/xlink" x="0px" y="0px"
	 width="64px" height="64px" viewBox="0 0 64 64" enable-background="new 0 0 64 64" xml:space="preserve">
<g>
	<g>
		<path d="M40.461,56.543H23.539c-1.93,0-3.5-1.57-3.5-3.5V11.476c0-1.93,1.57-3.5,3.5-3.5h16.922c1.93,0,3.5,1.57,3.5,3.5v41.567
			C43.961,54.973,42.391,56.543,40.461,56.543z M23.539,8.976c-1.379,0-2.5,1.122-2.5,2.5v41.567c0,1.378,1.121,2.5,2.5,2.5h16.922
			c1.379,0,2.5-1.122,2.5-2.5V11.476c0-1.378-1.121-2.5-2.5-2.5H23.539z"/>
	</g>
	<g>
		<path d="M43.133,47.853H20.867c-0.276,0-0.5-0.224-0.5-0.5s0.224-0.5,0.5-0.5h22.266c0.276,0,0.5,0.224,0.5,0.5
			S43.409,47.853,43.133,47.853z"/>
	</g>
	<g>
		<circle cx="32.001" cy="51.851" r="1.292"/>
	</g>
	<g>
		<g>
			<path d="M30.453,34.85h-3.18c-0.276,0-0.5-0.224-0.5-0.5V29.7c0-0.276,0.224-0.5,0.5-0.5h3.18c0.276,0,0.5,0.224,0.5,0.5v4.65
				C30.953,34.626,30.729,34.85,30.453,34.85z M27.773,33.85h2.18V30.2h-2.18V33.85z"/>
		</g>
		<g>
			<path d="M33.592,34.85H30.41c-0.276,0-0.5-0.224-0.5-0.5v-7.585c0-0.276,0.224-0.5,0.5-0.5h3.182c0.276,0,0.5,0.224,0.5,0.5
				v7.585C34.092,34.626,33.868,34.85,33.592,34.85z M30.91,33.85h2.182v-6.585H30.91V33.85z"/>
		</g>
		<g>
			<path d="M36.729,34.85h-3.182c-0.276,0-0.5-0.224-0.5-0.5V23.827c0-0.276,0.224-0.5,0.5-0.5h3.182c0.276,0,0.5,0.224,0.5,0.5
				V34.35C37.229,34.626,37.005,34.85,36.729,34.85z M34.047,33.85h2.182v-9.523h-2.182V33.85z"/>
		</g>
	</g>
</g>
</svg>
