<?xml version="1.0" encoding="utf-8"?>
<!-- Generator: Adobe Illustrator 16.0.0, SVG Export Plug-In . SVG Version: 6.00 Build 0)  -->
<!DOCTYPE svg PUBLIC "-//W3C//DTD SVG 1.1//EN" "http://www.w3.org/Graphics/SVG/1.1/DTD/svg11.dtd">
<svg version="1.1" id="Layer_1" xmlns="http://www.w3.org/2000/svg" xmlns:xlink="http://www.w3.org/1999/xlink" x="0px" y="0px"
	 width="128px" height="128px" viewBox="0 0 128 128" enable-background="new 0 0 128 128" xml:space="preserve">
<g>
	<g>
		<g>
			<path d="M63.184,68.663c-0.267,0-0.529-0.107-0.721-0.308l-6.37-6.632h-5.713c-0.552,0-1-0.447-1-1v-6.135c0-0.553,0.448-1,1-1
				h5.713l6.37-6.632c0.282-0.294,0.715-0.389,1.095-0.235c0.378,0.152,0.626,0.52,0.626,0.928v20.014
				c0,0.408-0.248,0.775-0.626,0.928C63.436,68.64,63.309,68.663,63.184,68.663z M51.379,59.724h5.14
				c0.272,0,0.533,0.111,0.721,0.308l4.944,5.147V50.134l-4.944,5.147c-0.188,0.196-0.449,0.308-0.721,0.308h-5.14V59.724z"/>
		</g>
		<g>
			<g>
				<path d="M67.868,61.806c-0.458,0-0.871-0.316-0.975-0.781c-0.121-0.539,0.218-1.074,0.757-1.194
					c0.522-0.117,1.086-0.982,1.086-2.177c0-1.186-0.563-2.046-1.086-2.163c-0.539-0.12-0.878-0.655-0.757-1.194
					c0.121-0.538,0.656-0.877,1.194-0.757c1.535,0.344,2.648,2.074,2.648,4.114c0,2.048-1.114,3.784-2.648,4.128
					C68.014,61.798,67.94,61.806,67.868,61.806z"/>
			</g>
			<g>
				<path d="M71.089,63.122c-0.455,0-0.867-0.312-0.974-0.775c-0.124-0.538,0.211-1.075,0.75-1.199
					c0.87-0.2,1.769-1.562,1.769-3.494c0-1.926-0.899-3.284-1.769-3.484c-0.538-0.124-0.874-0.661-0.75-1.199
					c0.125-0.539,0.665-0.872,1.2-0.75c1.923,0.444,3.318,2.729,3.318,5.434c0,2.71-1.396,4.999-3.318,5.443
					C71.24,63.114,71.164,63.122,71.089,63.122z"/>
			</g>
			<g>
				<path d="M74.142,65.106c-0.453,0-0.864-0.311-0.972-0.771c-0.127-0.538,0.206-1.076,0.744-1.203
					c1.371-0.322,2.789-2.461,2.789-5.479c0-3.012-1.419-5.148-2.791-5.475c-0.538-0.127-0.87-0.666-0.742-1.204
					c0.128-0.537,0.667-0.871,1.204-0.741c2.508,0.596,4.329,3.716,4.329,7.42c0,3.712-1.821,6.835-4.33,7.427
					C74.295,65.098,74.218,65.106,74.142,65.106z"/>
			</g>
		</g>
	</g>
	<g>
		<path d="M83.702,113.194H44.38c-2.206,0-4-1.794-4-4V21.146c0-2.206,1.794-4,4-4h39.321c2.206,0,4,1.794,4,4v88.049
			C87.702,111.4,85.907,113.194,83.702,113.194z M44.38,19.146c-1.103,0-2,0.897-2,2v88.049c0,1.103,0.897,2,2,2h39.321
			c1.103,0,2-0.897,2-2V21.146c0-1.103-0.897-2-2-2H44.38z"/>
	</g>
	<g>
		<path d="M86.05,96.011H42.03c-0.552,0-1-0.447-1-1s0.448-1,1-1h44.02c0.552,0,1,0.447,1,1S86.602,96.011,86.05,96.011z"/>
	</g>
	<g>
		<path d="M66.595,103.903c0,1.406-1.146,2.553-2.554,2.553c-1.411,0-2.557-1.146-2.557-2.553c0-1.412,1.146-2.557,2.557-2.557
			C65.449,101.347,66.595,102.491,66.595,103.903z"/>
	</g>
</g>
</svg>
