<?xml version="1.0" encoding="utf-8"?>
<!-- Generator: Adobe Illustrator 16.0.0, SVG Export Plug-In . SVG Version: 6.00 Build 0)  -->
<!DOCTYPE svg PUBLIC "-//W3C//DTD SVG 1.1//EN" "http://www.w3.org/Graphics/SVG/1.1/DTD/svg11.dtd">
<svg version="1.1" id="Layer_1" xmlns="http://www.w3.org/2000/svg" xmlns:xlink="http://www.w3.org/1999/xlink" x="0px" y="0px"
	 width="128px" height="128px" viewBox="0 0 128 128" enable-background="new 0 0 128 128" xml:space="preserve">
<g>
	<g>
		
			<polygon fill="none" stroke="#000000" stroke-width="2" stroke-linecap="round" stroke-linejoin="round" stroke-miterlimit="10" points="
			61,54.796 54.849,61.991 49.184,61.991 49.184,68.351 54.849,68.351 61,75.54 		"/>
		<g>
			<path fill="none" stroke="#000000" stroke-width="2" stroke-linecap="round" stroke-linejoin="round" stroke-miterlimit="10" d="
				M65.317,61.542c0.975,0.271,1.724,1.793,1.724,3.631c0,1.834-0.749,3.348-1.724,3.621"/>
			<path fill="none" stroke="#000000" stroke-width="2" stroke-linecap="round" stroke-linejoin="round" stroke-miterlimit="10" d="
				M68.289,60.021c1.33,0.383,2.348,2.537,2.348,5.152c0,2.605-1.018,4.762-2.348,5.146"/>
			<path fill="none" stroke="#000000" stroke-width="2" stroke-linecap="round" stroke-linejoin="round" stroke-miterlimit="10" d="
				M71.102,57.728c1.863,0.557,3.288,3.672,3.288,7.445c0,3.771-1.425,6.885-3.288,7.438"/>
		</g>
	</g>
	<g>
		<g>
			<path d="M77.125,89.751H46.451c-3.309,0-6-2.691-6-6v-37.16c0-3.309,2.691-6,6-6h30.674c3.309,0,6,2.691,6,6v37.16
				C83.125,87.06,80.434,89.751,77.125,89.751z M46.451,42.591c-2.206,0-4,1.794-4,4v37.16c0,2.206,1.794,4,4,4h30.674
				c2.206,0,4-1.794,4-4v-37.16c0-2.206-1.794-4-4-4H46.451z"/>
		</g>
		<g>
			<path d="M86.631,60.673c-0.552,0-1-0.447-1-1v-7.834c0-0.553,0.448-1,1-1s1,0.447,1,1v7.834
				C87.631,60.226,87.183,60.673,86.631,60.673z"/>
		</g>
		<g>
			<path d="M74.606,37.976c-0.552,0-1-0.447-1-1v-9.223c0-0.552-0.449-1-1-1H50.97c-0.551,0-1,0.448-1,1v9.223c0,0.553-0.448,1-1,1
				s-1-0.447-1-1v-9.223c0-1.654,1.346-3,3-3h21.637c1.654,0,3,1.346,3,3v9.223C75.606,37.528,75.159,37.976,74.606,37.976z"/>
		</g>
		<g>
			<path d="M72.606,105.583H50.97c-1.654,0-3-1.346-3-3v-9.217c0-0.553,0.448-1,1-1s1,0.447,1,1v9.217c0,0.552,0.449,1,1,1h21.637
				c0.551,0,1-0.448,1-1v-9.217c0-0.553,0.448-1,1-1s1,0.447,1,1v9.217C75.606,104.237,74.261,105.583,72.606,105.583z"/>
		</g>
	</g>
</g>
</svg>
