<?xml version="1.0" encoding="utf-8"?>
<!-- Generator: Adobe Illustrator 16.0.0, SVG Export Plug-In . SVG Version: 6.00 Build 0)  -->
<!DOCTYPE svg PUBLIC "-//W3C//DTD SVG 1.1//EN" "http://www.w3.org/Graphics/SVG/1.1/DTD/svg11.dtd">
<svg version="1.1" id="Layer_1" xmlns="http://www.w3.org/2000/svg" xmlns:xlink="http://www.w3.org/1999/xlink" x="0px" y="0px"
	 width="128px" height="128px" viewBox="0 0 128 128" enable-background="new 0 0 128 128" xml:space="preserve">
<g>
	<g>
		<g>
			<path d="M62.595,75.599c-0.267,0-0.529-0.107-0.721-0.308l-10.99-11.438h-9.966c-0.552,0-1-0.447-1-1V52.46c0-0.553,0.448-1,1-1
				h9.966l10.99-11.436c0.283-0.294,0.716-0.387,1.095-0.234s0.626,0.52,0.626,0.928v33.881c0,0.408-0.248,0.775-0.626,0.928
				C62.847,75.575,62.72,75.599,62.595,75.599z M41.918,61.853h9.392c0.272,0,0.533,0.111,0.721,0.308l9.564,9.954V43.201
				l-9.564,9.952c-0.189,0.195-0.449,0.307-0.721,0.307h-9.392V61.853z"/>
		</g>
		<g>
			<g>
				<path d="M70.516,63.979c-0.458,0-0.87-0.315-0.975-0.78c-0.121-0.539,0.217-1.074,0.756-1.195c1.335-0.3,2.38-2.211,2.38-4.351
					c0-2.138-1.045-4.046-2.379-4.345c-0.539-0.12-0.878-0.655-0.758-1.194c0.122-0.538,0.655-0.876,1.194-0.757
					c2.285,0.511,3.943,3.158,3.943,6.296s-1.658,5.788-3.942,6.302C70.662,63.972,70.588,63.979,70.516,63.979z"/>
			</g>
			<g>
				<path d="M75.971,66.212c-0.455,0-0.866-0.312-0.973-0.774c-0.125-0.538,0.21-1.075,0.749-1.2
					c2.013-0.466,3.531-3.296,3.531-6.584c0-3.284-1.518-6.112-3.531-6.578c-0.538-0.125-0.873-0.662-0.749-1.2
					c0.125-0.538,0.659-0.873,1.2-0.749c2.943,0.682,5.08,4.268,5.08,8.527c0,4.263-2.137,7.852-5.08,8.533
					C76.121,66.204,76.045,66.212,75.971,66.212z"/>
			</g>
			<g>
				<path d="M81.135,69.579c-0.452,0-0.862-0.309-0.972-0.769c-0.128-0.537,0.204-1.076,0.741-1.204
					c2.999-0.714,5.26-4.993,5.26-9.953c0-4.953-2.262-9.228-5.26-9.943c-0.538-0.128-0.869-0.668-0.741-1.205
					s0.674-0.865,1.205-0.74c3.938,0.94,6.796,5.939,6.796,11.889c0,5.957-2.858,10.961-6.797,11.898
					C81.29,69.57,81.211,69.579,81.135,69.579z"/>
			</g>
		</g>
	</g>
	<g>
		<path d="M95.932,115.067H32.15c-2.206,0-4-1.794-4-4V19.271c0-2.206,1.794-4,4-4h63.781c2.206,0,4,1.794,4,4v91.797
			C99.932,113.273,98.137,115.067,95.932,115.067z M32.15,17.271c-1.103,0-2,0.897-2,2v91.797c0,1.103,0.897,2,2,2h63.781
			c1.103,0,2-0.897,2-2V19.271c0-1.103-0.897-2-2-2H32.15z"/>
	</g>
	<g>
		<path d="M66.596,106.401c0,1.41-1.144,2.557-2.557,2.557c-1.407,0-2.553-1.146-2.553-2.557c0-1.404,1.146-2.547,2.553-2.547
			C65.452,103.854,66.596,104.997,66.596,106.401z"/>
	</g>
	<g>
		<path d="M98.401,98.097H29.681c-0.552,0-1-0.447-1-1s0.448-1,1-1h68.721c0.552,0,1,0.447,1,1S98.954,98.097,98.401,98.097z"/>
	</g>
</g>
</svg>
