<?xml version="1.0" encoding="utf-8"?>
<!-- Generator: Adobe Illustrator 16.0.0, SVG Export Plug-In . SVG Version: 6.00 Build 0)  -->
<!DOCTYPE svg PUBLIC "-//W3C//DTD SVG 1.1//EN" "http://www.w3.org/Graphics/SVG/1.1/DTD/svg11.dtd">
<svg version="1.1" id="Layer_1" xmlns="http://www.w3.org/2000/svg" xmlns:xlink="http://www.w3.org/1999/xlink" x="0px" y="0px"
	 width="128px" height="128px" viewBox="0 0 128 128" enable-background="new 0 0 128 128" xml:space="preserve">
<g>
	<g>
		
			<polygon fill="none" stroke="#000000" stroke-width="2" stroke-linecap="round" stroke-linejoin="round" stroke-miterlimit="10" points="
			62.825,42.185 53.354,52.04 44.631,52.04 44.631,60.767 53.354,60.767 62.825,70.624 		"/>
		<g>
			<path fill="none" stroke="#000000" stroke-width="2" stroke-linecap="round" stroke-linejoin="round" stroke-miterlimit="10" d="
				M69.476,51.942c1.504,0.328,2.655,2.201,2.655,4.465c0,2.262-1.15,4.131-2.655,4.463"/>
			<path fill="none" stroke="#000000" stroke-width="2" stroke-linecap="round" stroke-linejoin="round" stroke-miterlimit="10" d="
				M74.056,50.062c2.044,0.473,3.612,3.129,3.612,6.346c0,3.213-1.568,5.869-3.612,6.34"/>
			<path fill="none" stroke="#000000" stroke-width="2" stroke-linecap="round" stroke-linejoin="round" stroke-miterlimit="10" d="
				M78.391,47.239c2.863,0.684,5.059,4.518,5.059,9.168c0,4.645-2.195,8.479-5.059,9.162"/>
		</g>
	</g>
	<g>
		<g>
			<path d="M103.317,89.194H24.765c-2.206,0-4-1.794-4-4v-53.49c0-2.206,1.794-4,4-4h78.553c2.206,0,4,1.794,4,4v53.49
				C107.317,87.4,105.523,89.194,103.317,89.194z M24.765,29.704c-1.103,0-2,0.897-2,2v53.49c0,1.103,0.897,2,2,2h78.553
				c1.103,0,2-0.897,2-2v-53.49c0-1.103-0.897-2-2-2H24.765z"/>
		</g>
		<g>
			<path d="M113.917,102.638c-0.007-0.001-0.014-0.001-0.02,0H14.185c-0.389,0-0.743-0.226-0.907-0.578
				c-0.164-0.354-0.108-0.77,0.143-1.066l7.398-8.77c0.19-0.226,0.47-0.355,0.764-0.355h84.916c0.294,0,0.574,0.13,0.764,0.355
				l7.294,8.646c0.22,0.184,0.36,0.46,0.36,0.769C114.917,102.19,114.47,102.638,113.917,102.638z M16.336,100.638h95.409
				l-5.711-6.77H22.048L16.336,100.638z"/>
		</g>
		<g>
			<path d="M106.317,82.603H21.765c-0.552,0-1-0.447-1-1s0.448-1,1-1h84.553c0.552,0,1,0.447,1,1S106.87,82.603,106.317,82.603z"/>
		</g>
	</g>
</g>
</svg>
