<?xml version="1.0" encoding="utf-8"?>
<!-- Generator: Adobe Illustrator 16.0.0, SVG Export Plug-In . SVG Version: 6.00 Build 0)  -->
<!DOCTYPE svg PUBLIC "-//W3C//DTD SVG 1.1//EN" "http://www.w3.org/Graphics/SVG/1.1/DTD/svg11.dtd">
<svg version="1.1" id="Layer_1" xmlns="http://www.w3.org/2000/svg" xmlns:xlink="http://www.w3.org/1999/xlink" x="0px" y="0px"
	 width="128px" height="128px" viewBox="0 0 128 128" enable-background="new 0 0 128 128" xml:space="preserve">
<g>
	<g>
		
			<polygon fill="none" stroke="#000000" stroke-width="2" stroke-linecap="round" stroke-linejoin="round" stroke-miterlimit="10" points="
			62.595,39.466 51.309,51.21 40.919,51.21 40.919,61.597 51.309,61.597 62.595,73.343 		"/>
		<g>
			<path fill="none" stroke="#000000" stroke-width="2" stroke-linecap="round" stroke-linejoin="round" stroke-miterlimit="10" d="
				M70.52,51.085c1.787,0.395,3.16,2.627,3.16,5.322c0,2.691-1.373,4.92-3.16,5.32"/>
			<path fill="none" stroke="#000000" stroke-width="2" stroke-linecap="round" stroke-linejoin="round" stroke-miterlimit="10" d="
				M75.973,48.851c2.437,0.562,4.304,3.725,4.304,7.557c0,3.826-1.867,6.988-4.304,7.549"/>
			<path fill="none" stroke="#000000" stroke-width="2" stroke-linecap="round" stroke-linejoin="round" stroke-miterlimit="10" d="
				M81.137,45.481c3.414,0.816,6.027,5.389,6.027,10.926c0,5.533-2.613,10.109-6.027,10.92"/>
		</g>
	</g>
	<g>
		<g>
			<path d="M103.318,89.983H24.764c-2.206,0-4-1.794-4-4v-53.5c0-2.206,1.794-4,4-4h78.555c2.206,0,4,1.794,4,4v53.5
				C107.318,88.189,105.524,89.983,103.318,89.983z M24.764,30.483c-1.103,0-2,0.897-2,2v53.5c0,1.103,0.897,2,2,2h78.555
				c1.103,0,2-0.897,2-2v-53.5c0-1.103-0.897-2-2-2H24.764z"/>
		</g>
		<g>
			<path d="M106.318,83.384H21.764c-0.552,0-1-0.447-1-1s0.448-1,1-1h84.555c0.552,0,1,0.447,1,1S106.871,83.384,106.318,83.384z"/>
		</g>
		<g>
			<g>
				<path d="M47.218,101.073c-0.214,0-0.43-0.068-0.612-0.209c-0.437-0.339-0.517-0.967-0.178-1.403l8.606-11.113
					c0.338-0.438,0.968-0.516,1.403-0.179c0.437,0.339,0.517,0.967,0.178,1.403l-8.606,11.113
					C47.812,100.94,47.516,101.073,47.218,101.073z"/>
			</g>
			<g>
				<path d="M80.867,101.073c-0.298,0-0.594-0.133-0.791-0.388l-8.608-11.113c-0.338-0.437-0.258-1.064,0.178-1.403
					c0.435-0.337,1.064-0.259,1.403,0.179l8.608,11.113c0.338,0.437,0.258,1.064-0.178,1.403
					C81.297,101.005,81.082,101.073,80.867,101.073z"/>
			</g>
		</g>
		<g>
			<path d="M87.518,101.856H40.564c-0.552,0-1-0.447-1-1s0.448-1,1-1h46.954c0.552,0,1,0.447,1,1S88.07,101.856,87.518,101.856z"/>
		</g>
	</g>
</g>
</svg>
