<?xml version="1.0" encoding="utf-8"?>
<!-- Generator: Adobe Illustrator 16.0.0, SVG Export Plug-In . SVG Version: 6.00 Build 0)  -->
<!DOCTYPE svg PUBLIC "-//W3C//DTD SVG 1.1//EN" "http://www.w3.org/Graphics/SVG/1.1/DTD/svg11.dtd">
<svg version="1.1" id="Layer_1" xmlns="http://www.w3.org/2000/svg" xmlns:xlink="http://www.w3.org/1999/xlink" x="0px" y="0px"
	 width="128px" height="128px" viewBox="0 0 128 128" enable-background="new 0 0 128 128" xml:space="preserve">
<g>
	<g>
		<g>
			<path d="M76.383,75.124H51.707c-0.553,0-1-0.447-1-1v-24.68c0-0.553,0.447-1,1-1h24.676c0.553,0,1,0.447,1,1v24.68
				C77.383,74.677,76.936,75.124,76.383,75.124z M52.707,73.124h22.676v-22.68H52.707V73.124z"/>
		</g>
		<g>
			<path d="M64.041,63.964c-2.233,0-4.051-1.819-4.051-4.055c0-2.233,1.817-4.051,4.051-4.051c2.238,0,4.059,1.817,4.059,4.051
				C68.1,62.145,66.279,63.964,64.041,63.964z M64.041,57.858c-1.131,0-2.051,0.92-2.051,2.051c0,1.133,0.92,2.055,2.051,2.055
				c1.135,0,2.059-0.922,2.059-2.055C66.1,58.778,65.176,57.858,64.041,57.858z"/>
		</g>
		<g>
			<path d="M64.041,68.966c-0.553,0-1-0.447-1-1v-3.893c0-0.553,0.447-1,1-1s1,0.447,1,1v3.893
				C65.041,68.519,64.594,68.966,64.041,68.966z"/>
		</g>
		<g>
			<path d="M71.559,46.14c-0.553,0-1-0.447-1-1c0-3.593-2.924-6.516-6.518-6.516c-3.591,0-6.512,2.923-6.512,6.516
				c0,0.553-0.447,1-1,1s-1-0.447-1-1c0-4.695,3.818-8.516,8.512-8.516c4.696,0,8.518,3.82,8.518,8.516
				C72.559,45.692,72.111,46.14,71.559,46.14z"/>
		</g>
	</g>
	<g>
		<path d="M83.701,113.192h-39.32c-2.206,0-4-1.794-4-4V21.147c0-2.206,1.794-4,4-4h39.32c2.206,0,4,1.794,4,4v88.045
			C87.701,111.398,85.907,113.192,83.701,113.192z M44.381,19.147c-1.103,0-2,0.897-2,2v88.045c0,1.103,0.897,2,2,2h39.32
			c1.103,0,2-0.897,2-2V21.147c0-1.103-0.897-2-2-2H44.381z"/>
	</g>
	<g>
		<path d="M86.053,96.015H42.029c-0.553,0-1-0.447-1-1s0.447-1,1-1h44.023c0.553,0,1,0.447,1,1S86.605,96.015,86.053,96.015z"/>
	</g>
	<g>
		<path d="M66.598,103.901c0,1.416-1.146,2.555-2.557,2.555c-1.414,0-2.553-1.139-2.553-2.555c0-1.402,1.139-2.553,2.553-2.553
			C65.451,101.349,66.598,102.499,66.598,103.901z"/>
	</g>
</g>
</svg>
