<?xml version="1.0" encoding="utf-8"?>
<!-- Generator: Adobe Illustrator 16.0.0, SVG Export Plug-In . SVG Version: 6.00 Build 0)  -->
<!DOCTYPE svg PUBLIC "-//W3C//DTD SVG 1.1//EN" "http://www.w3.org/Graphics/SVG/1.1/DTD/svg11.dtd">
<svg version="1.1" id="Layer_1" xmlns="http://www.w3.org/2000/svg" xmlns:xlink="http://www.w3.org/1999/xlink" x="0px" y="0px"
	 width="128px" height="128px" viewBox="0 0 128 128" enable-background="new 0 0 128 128" xml:space="preserve">
<g>
	<g>
		<g>
			<path d="M78.555,78.183H49.527c-0.553,0-1-0.447-1-1V48.151c0-0.553,0.447-1,1-1h29.027c0.553,0,1,0.447,1,1v29.031
				C79.555,77.735,79.107,78.183,78.555,78.183z M50.527,76.183h27.027V49.151H50.527V76.183z"/>
		</g>
		<g>
			<g>
				<path d="M64.037,65.062c-2.533,0-4.594-2.063-4.594-4.6c0-2.532,2.061-4.592,4.594-4.592c2.536,0,4.6,2.06,4.6,4.592
					C68.637,62.998,66.573,65.062,64.037,65.062z M64.037,57.87c-1.431,0-2.594,1.163-2.594,2.592c0,1.434,1.163,2.6,2.594,2.6
					c1.434,0,2.6-1.166,2.6-2.6C66.637,59.033,65.471,57.87,64.037,57.87z"/>
			</g>
			<g>
				<path d="M64.037,69.464c-0.553,0-1-0.447-1-1v-4.576c0-0.553,0.447-1,1-1s1,0.447,1,1v4.576
					C65.037,69.017,64.59,69.464,64.037,69.464z"/>
			</g>
		</g>
		<g>
			<path d="M74.174,44.942c-0.553,0-1-0.447-1-1c0-5.036-4.099-9.133-9.137-9.133c-5.032,0-9.127,4.097-9.127,9.133
				c0,0.553-0.447,1-1,1s-1-0.447-1-1c0-6.139,4.991-11.133,11.127-11.133c6.141,0,11.137,4.994,11.137,11.133
				C75.174,44.495,74.727,44.942,74.174,44.942z"/>
		</g>
	</g>
	<g>
		<path d="M95.932,115.067H32.15c-2.206,0-4-1.794-4-4V19.271c0-2.206,1.794-4,4-4h63.781c2.206,0,4,1.794,4,4v91.797
			C99.932,113.273,98.138,115.067,95.932,115.067z M32.15,17.271c-1.103,0-2,0.897-2,2v91.797c0,1.103,0.897,2,2,2h63.781
			c1.103,0,2-0.897,2-2V19.271c0-1.103-0.897-2-2-2H32.15z"/>
	</g>
	<g>
		<path d="M66.598,106.411c0,1.408-1.145,2.553-2.561,2.553c-1.404,0-2.553-1.145-2.553-2.553c0-1.41,1.148-2.557,2.553-2.557
			C65.453,103.854,66.598,105.001,66.598,106.411z"/>
	</g>
	<g>
		<path d="M98.404,98.104H29.682c-0.553,0-1-0.447-1-1s0.447-1,1-1h68.723c0.553,0,1,0.447,1,1S98.957,98.104,98.404,98.104z"/>
	</g>
</g>
</svg>
