<?xml version="1.0" encoding="utf-8"?>
<!-- Generator: Adobe Illustrator 16.0.0, SVG Export Plug-In . SVG Version: 6.00 Build 0)  -->
<!DOCTYPE svg PUBLIC "-//W3C//DTD SVG 1.1//EN" "http://www.w3.org/Graphics/SVG/1.1/DTD/svg11.dtd">
<svg version="1.1" id="Layer_1" xmlns="http://www.w3.org/2000/svg" xmlns:xlink="http://www.w3.org/1999/xlink" x="0px" y="0px"
	 width="128px" height="128px" viewBox="0 0 128 128" enable-background="new 0 0 128 128" xml:space="preserve">
<g>
	<g>
		<g>
			
				<rect x="51.576" y="48.12" fill="none" stroke="#000000" stroke-width="2" stroke-linecap="round" stroke-linejoin="round" stroke-miterlimit="10" width="24.931" height="24.93"/>
			<path fill="none" stroke="#000000" stroke-width="2" stroke-linecap="round" stroke-linejoin="round" stroke-miterlimit="10" d="
				M67.13,58.69c0,1.705-1.382,3.088-3.089,3.088c-1.703,0-3.089-1.383-3.089-3.088c0-1.703,1.386-3.086,3.089-3.086
				C65.748,55.604,67.13,56.987,67.13,58.69z"/>
			
				<line fill="none" stroke="#000000" stroke-width="2" stroke-linecap="round" stroke-linejoin="round" stroke-miterlimit="10" x1="64.041" y1="62.884" x2="64.041" y2="66.813"/>
		</g>
		<path fill="none" stroke="#000000" stroke-width="2" stroke-linecap="round" stroke-linejoin="round" stroke-miterlimit="10" d="
			M56.526,44.097c0-4.15,3.363-7.514,7.515-7.514c4.147,0,7.515,3.363,7.515,7.514"/>
	</g>
	<g>
		<g>
			<path d="M103.317,89.196H24.765c-2.206,0-4-1.794-4-4V31.704c0-2.206,1.794-4,4-4h78.553c2.206,0,4,1.794,4,4v53.492
				C107.317,87.402,105.523,89.196,103.317,89.196z M24.765,29.704c-1.103,0-2,0.897-2,2v53.492c0,1.103,0.897,2,2,2h78.553
				c1.103,0,2-0.897,2-2V31.704c0-1.103-0.897-2-2-2H24.765z"/>
		</g>
		<g>
			<path d="M113.917,102.642c-0.004,0.001-0.012,0.001-0.02,0H14.185c-0.389,0-0.743-0.226-0.907-0.579
				c-0.164-0.353-0.108-0.769,0.143-1.065l7.398-8.766c0.19-0.226,0.47-0.355,0.765-0.355h84.916c0.295,0,0.574,0.13,0.765,0.355
				l7.294,8.642c0.22,0.184,0.359,0.46,0.359,0.769C114.917,102.194,114.47,102.642,113.917,102.642z M16.337,100.642h95.408
				l-5.711-6.766H22.048L16.337,100.642z"/>
		</g>
		<g>
			<path d="M106.317,82.608H21.765c-0.553,0-1-0.447-1-1s0.447-1,1-1h84.553c0.553,0,1,0.447,1,1S106.87,82.608,106.317,82.608z"/>
		</g>
	</g>
</g>
</svg>
