<?xml version="1.0" encoding="utf-8"?>
<!-- Generator: Adobe Illustrator 16.0.0, SVG Export Plug-In . SVG Version: 6.00 Build 0)  -->
<!DOCTYPE svg PUBLIC "-//W3C//DTD SVG 1.1//EN" "http://www.w3.org/Graphics/SVG/1.1/DTD/svg11.dtd">
<svg version="1.1" id="Layer_1" xmlns="http://www.w3.org/2000/svg" xmlns:xlink="http://www.w3.org/1999/xlink" x="0px" y="0px"
	 width="128px" height="128px" viewBox="0 0 128 128" enable-background="new 0 0 128 128" xml:space="preserve">
<g>
	<g>
		<g>
			<path d="M70.625,79.431H52.951c-0.553,0-1-0.447-1-1V60.747c0-0.553,0.447-1,1-1h17.674c0.553,0,1,0.447,1,1v17.684
				C71.625,78.983,71.178,79.431,70.625,79.431z M53.951,77.431h15.674V61.747H53.951V77.431z"/>
		</g>
		<g>
			<path d="M61.789,71.437c-1.759,0-3.189-1.431-3.189-3.189s1.431-3.189,3.189-3.189s3.189,1.431,3.189,3.189
				S63.548,71.437,61.789,71.437z M61.789,67.058c-0.656,0-1.189,0.533-1.189,1.189s0.533,1.189,1.189,1.189
				s1.189-0.533,1.189-1.189S62.445,67.058,61.789,67.058z"/>
		</g>
		<g>
			<path d="M61.789,74.116c-0.553,0-1-0.447-1-1v-1.533c0-0.553,0.447-1,1-1s1,0.447,1,1v1.533
				C62.789,73.669,62.342,74.116,61.789,74.116z"/>
		</g>
		<g>
			<path d="M66.799,57.925c-0.553,0-1-0.447-1-1c0-2.21-1.799-4.008-4.01-4.008c-2.21,0-4.008,1.798-4.008,4.008
				c0,0.553-0.447,1-1,1s-1-0.447-1-1c0-3.312,2.695-6.008,6.008-6.008c3.313,0,6.01,2.695,6.01,6.008
				C67.799,57.478,67.352,57.925,66.799,57.925z"/>
		</g>
	</g>
	<g>
		<path d="M77.125,89.747H46.451c-3.309,0-6-2.691-6-6V46.591c0-3.309,2.691-6,6-6h30.674c3.309,0,6,2.691,6,6v37.156
			C83.125,87.056,80.434,89.747,77.125,89.747z M46.451,42.591c-2.206,0-4,1.794-4,4v37.156c0,2.206,1.794,4,4,4h30.674
			c2.206,0,4-1.794,4-4V46.591c0-2.206-1.794-4-4-4H46.451z"/>
	</g>
	<g>
		<path d="M86.631,60.675c-0.553,0-1-0.447-1-1v-7.832c0-0.553,0.447-1,1-1s1,0.447,1,1v7.832
			C87.631,60.228,87.184,60.675,86.631,60.675z"/>
	</g>
	<g>
		<path d="M74.609,37.976c-0.553,0-1-0.447-1-1v-9.221c0-0.552-0.448-1-1-1H50.969c-0.552,0-1,0.448-1,1v9.221c0,0.553-0.447,1-1,1
			s-1-0.447-1-1v-9.221c0-1.654,1.346-3,3-3h21.641c1.654,0,3,1.346,3,3v9.221C75.609,37.528,75.162,37.976,74.609,37.976z"/>
	</g>
	<g>
		<path d="M72.609,105.585H50.969c-1.654,0-3-1.346-3-3v-9.223c0-0.553,0.447-1,1-1s1,0.447,1,1v9.223c0,0.552,0.448,1,1,1h21.641
			c0.552,0,1-0.448,1-1v-9.223c0-0.553,0.447-1,1-1s1,0.447,1,1v9.223C75.609,104.239,74.264,105.585,72.609,105.585z"/>
	</g>
</g>
</svg>
