<?xml version="1.0" encoding="utf-8"?>
<!-- Generator: Adobe Illustrator 16.0.0, SVG Export Plug-In . SVG Version: 6.00 Build 0)  -->
<!DOCTYPE svg PUBLIC "-//W3C//DTD SVG 1.1//EN" "http://www.w3.org/Graphics/SVG/1.1/DTD/svg11.dtd">
<svg version="1.1" id="Layer_1" xmlns="http://www.w3.org/2000/svg" xmlns:xlink="http://www.w3.org/1999/xlink" x="0px" y="0px"
	 width="64px" height="64px" viewBox="0 0 64 64" enable-background="new 0 0 64 64" xml:space="preserve">
<g>
	<g>
		<g>
			<path d="M50.383,44.406H13.617c-1.93,0-3.5-1.57-3.5-3.5V16.814c0-1.93,1.57-3.5,3.5-3.5h36.766c1.93,0,3.5,1.57,3.5,3.5v24.092
				C53.883,42.836,52.312,44.406,50.383,44.406z M13.617,14.314c-1.378,0-2.5,1.122-2.5,2.5v24.092c0,1.378,1.122,2.5,2.5,2.5
				h36.766c1.378,0,2.5-1.122,2.5-2.5V16.814c0-1.378-1.122-2.5-2.5-2.5H13.617z"/>
		</g>
		<g>
			<path d="M57.237,51.204c-0.007,0-0.013-0.001-0.02,0H6.783c-0.195,0-0.372-0.113-0.454-0.29
				c-0.082-0.176-0.054-0.384,0.071-0.533l3.742-4.434c0.095-0.113,0.235-0.178,0.382-0.178h42.949c0.147,0,0.287,0.065,0.382,0.178
				l3.671,4.349c0.126,0.091,0.209,0.239,0.209,0.407C57.737,50.98,57.513,51.204,57.237,51.204z M7.859,50.204h48.281l-2.898-3.434
				H10.758L7.859,50.204z"/>
		</g>
		<g>
			<path d="M53.383,41.071H10.617c-0.276,0-0.5-0.224-0.5-0.5s0.224-0.5,0.5-0.5h42.766c0.276,0,0.5,0.224,0.5,0.5
				S53.659,41.071,53.383,41.071z"/>
		</g>
	</g>
	<g>
		<polyline fill="none" stroke="#000000" stroke-linecap="round" stroke-linejoin="round" stroke-miterlimit="10" points="
			25.627,33.436 21.05,28.86 25.627,24.284 		"/>
		<polyline fill="none" stroke="#000000" stroke-linecap="round" stroke-linejoin="round" stroke-miterlimit="10" points="
			38.374,33.436 42.949,28.86 38.374,24.284 		"/>
		<path fill="none" stroke="#000000" stroke-linecap="round" stroke-linejoin="round" stroke-miterlimit="10" d="M34.887,28.86"/>
		
			<line fill="none" stroke="#000000" stroke-linecap="round" stroke-linejoin="round" stroke-miterlimit="10" x1="33.239" y1="24.325" x2="30.052" y2="33.396"/>
	</g>
</g>
</svg>
