<?xml version="1.0" encoding="utf-8"?>
<!-- Generator: Adobe Illustrator 16.0.0, SVG Export Plug-In . SVG Version: 6.00 Build 0)  -->
<!DOCTYPE svg PUBLIC "-//W3C//DTD SVG 1.1//EN" "http://www.w3.org/Graphics/SVG/1.1/DTD/svg11.dtd">
<svg version="1.1" id="Layer_1" xmlns="http://www.w3.org/2000/svg" xmlns:xlink="http://www.w3.org/1999/xlink" x="0px" y="0px"
	 width="64px" height="64px" viewBox="0 0 64 64" enable-background="new 0 0 64 64" xml:space="preserve">
<g>
	<g>
		<path d="M40.461,56.544H23.539c-1.93,0-3.5-1.57-3.5-3.5V11.476c0-1.93,1.57-3.5,3.5-3.5h16.923c1.93,0,3.5,1.57,3.5,3.5v41.568
			C43.961,54.974,42.391,56.544,40.461,56.544z M23.539,8.976c-1.378,0-2.5,1.122-2.5,2.5v41.568c0,1.378,1.122,2.5,2.5,2.5h16.923
			c1.378,0,2.5-1.122,2.5-2.5V11.476c0-1.378-1.122-2.5-2.5-2.5H23.539z"/>
	</g>
	<g>
		<path d="M43.132,47.854H20.867c-0.276,0-0.5-0.224-0.5-0.5s0.224-0.5,0.5-0.5h22.265c0.276,0,0.5,0.224,0.5,0.5
			S43.408,47.854,43.132,47.854z"/>
	</g>
	<g>
		<circle cx="32" cy="51.851" r="1.292"/>
	</g>
	<g>
		<path d="M27.692,32.452c-0.128,0-0.256-0.049-0.354-0.146l-3.092-3.092C24.152,29.12,24.1,28.993,24.1,28.86
			c0-0.132,0.053-0.26,0.146-0.354l3.092-3.093c0.195-0.195,0.512-0.195,0.707,0s0.195,0.512,0,0.707l-2.739,2.739l2.739,2.738
			c0.195,0.195,0.195,0.512,0,0.707C27.948,32.403,27.82,32.452,27.692,32.452z"/>
	</g>
	<g>
		<path d="M36.307,32.452c-0.128,0-0.256-0.049-0.354-0.146c-0.195-0.195-0.195-0.512,0-0.707l2.739-2.738l-2.739-2.739
			c-0.195-0.195-0.195-0.512,0-0.707s0.512-0.195,0.707,0l3.092,3.093c0.094,0.094,0.146,0.221,0.146,0.354
			c0,0.133-0.053,0.26-0.146,0.354l-3.092,3.092C36.563,32.403,36.435,32.452,36.307,32.452z"/>
	</g>
	<g>
		<path fill="none" stroke="#000000" stroke-linecap="round" stroke-linejoin="round" stroke-miterlimit="10" d="M33.951,28.86"/>
	</g>
	<g>
		<path d="M30.684,32.425c-0.055,0-0.111-0.009-0.166-0.028c-0.26-0.091-0.397-0.377-0.306-0.638l2.154-6.13
			c0.091-0.261,0.375-0.399,0.638-0.306c0.26,0.091,0.397,0.377,0.306,0.638l-2.154,6.13C31.083,32.296,30.89,32.425,30.684,32.425z
			"/>
	</g>
</g>
</svg>
