<?xml version="1.0" encoding="utf-8"?>
<!-- Generator: Adobe Illustrator 16.0.0, SVG Export Plug-In . SVG Version: 6.00 Build 0)  -->
<!DOCTYPE svg PUBLIC "-//W3C//DTD SVG 1.1//EN" "http://www.w3.org/Graphics/SVG/1.1/DTD/svg11.dtd">
<svg version="1.1" id="Layer_1" xmlns="http://www.w3.org/2000/svg" xmlns:xlink="http://www.w3.org/1999/xlink" x="0px" y="0px"
	 width="64px" height="64px" viewBox="0 0 64 64" enable-background="new 0 0 64 64" xml:space="preserve">
<g>
	<g>
		<path d="M46.647,57.493H17.353c-1.93,0-3.5-1.57-3.5-3.5V10.526c0-1.93,1.57-3.5,3.5-3.5h29.295c1.93,0,3.5,1.57,3.5,3.5v43.467
			C50.147,55.923,48.577,57.493,46.647,57.493z M17.353,8.026c-1.378,0-2.5,1.122-2.5,2.5v43.467c0,1.378,1.122,2.5,2.5,2.5h29.295
			c1.378,0,2.5-1.122,2.5-2.5V10.526c0-1.378-1.122-2.5-2.5-2.5H17.353z"/>
	</g>
	<g>
		<circle cx="32" cy="53.116" r="1.292"/>
	</g>
	<g>
		<path d="M49.379,48.909H14.621c-0.276,0-0.5-0.224-0.5-0.5s0.224-0.5,0.5-0.5h34.758c0.276,0,0.5,0.224,0.5,0.5
			S49.655,48.909,49.379,48.909z"/>
	</g>
	<g>
		<g>
			<path d="M25.626,33.936c-0.128,0-0.256-0.049-0.354-0.146l-4.575-4.575c-0.195-0.195-0.195-0.512,0-0.707l4.575-4.576
				c0.195-0.195,0.512-0.195,0.707,0s0.195,0.512,0,0.707l-4.222,4.223l4.222,4.222c0.195,0.195,0.195,0.512,0,0.707
				C25.882,33.887,25.754,33.936,25.626,33.936z"/>
		</g>
		<g>
			<path d="M38.373,33.936c-0.128,0-0.256-0.049-0.354-0.146c-0.195-0.195-0.195-0.512,0-0.707l4.224-4.222l-4.224-4.223
				c-0.195-0.195-0.195-0.512,0-0.707s0.512-0.195,0.707,0l4.577,4.576c0.094,0.094,0.146,0.221,0.146,0.354
				s-0.053,0.26-0.146,0.354l-4.577,4.575C38.629,33.887,38.501,33.936,38.373,33.936z"/>
		</g>
		<g>
			<path fill="none" stroke="#000000" stroke-linecap="round" stroke-linejoin="round" stroke-miterlimit="10" d="M34.888,28.86"/>
		</g>
		<g>
			<path d="M30.052,33.896c-0.055,0-0.111-0.009-0.166-0.028c-0.261-0.091-0.398-0.377-0.306-0.637l3.187-9.07
				c0.091-0.262,0.377-0.4,0.637-0.306c0.261,0.091,0.398,0.377,0.306,0.637l-3.187,9.07C30.451,33.767,30.258,33.896,30.052,33.896
				z"/>
		</g>
	</g>
</g>
</svg>
