<?xml version="1.0" encoding="utf-8"?>
<!-- Generator: Adobe Illustrator 16.0.0, SVG Export Plug-In . SVG Version: 6.00 Build 0)  -->
<!DOCTYPE svg PUBLIC "-//W3C//DTD SVG 1.1//EN" "http://www.w3.org/Graphics/SVG/1.1/DTD/svg11.dtd">
<svg version="1.1" id="Layer_1" xmlns="http://www.w3.org/2000/svg" xmlns:xlink="http://www.w3.org/1999/xlink" x="0px" y="0px"
	 width="32px" height="32px" viewBox="0 0 32 32" enable-background="new 0 0 32 32" xml:space="preserve">
<g>
	<g>
		<g>
			<g>
				<path d="M16,17.3c-0.08,0-0.146-0.064-0.146-0.146v-6.236c0-0.081,0.066-0.146,0.146-0.146c0.082,0,0.146,0.065,0.146,0.146
					v6.236C16.146,17.235,16.082,17.3,16,17.3z"/>
			</g>
			<g>
				<path d="M19.121,14.182h-6.238c-0.082,0-0.146-0.065-0.146-0.146c0-0.082,0.064-0.146,0.146-0.146h6.238
					c0.08,0,0.145,0.063,0.145,0.146C19.266,14.116,19.201,14.182,19.121,14.182z"/>
			</g>
		</g>
		<g>
			<path d="M16,19.669c-3.105,0-5.633-2.527-5.633-5.633c0-3.106,2.527-5.633,5.633-5.633c3.107,0,5.635,2.526,5.635,5.633
				C21.635,17.142,19.107,19.669,16,19.669z M16,8.695c-2.945,0-5.34,2.396-5.34,5.341c0,2.944,2.395,5.34,5.34,5.34
				s5.342-2.396,5.342-5.34C21.342,11.091,18.945,8.695,16,8.695z"/>
		</g>
	</g>
	<g>
		<path d="M24.188,28.98H7.814c-0.566,0-1.025-0.458-1.025-1.023V4.307c0-0.563,0.459-1.023,1.025-1.023h16.373
			c0.564,0,1.023,0.46,1.023,1.023v23.65C25.211,28.522,24.752,28.98,24.188,28.98z M7.814,3.575c-0.404,0-0.732,0.329-0.732,0.731
			v23.65c0,0.404,0.328,0.732,0.732,0.732h16.373c0.402,0,0.73-0.328,0.73-0.732V4.307c0-0.402-0.328-0.731-0.73-0.731H7.814z"/>
	</g>
	<g>
		<circle cx="16" cy="26.845" r="0.664"/>
	</g>
	<g>
		<path d="M24.928,24.573H7.074c-0.08,0-0.146-0.065-0.146-0.146c0-0.081,0.066-0.146,0.146-0.146h17.854
			c0.08,0,0.146,0.065,0.146,0.146C25.074,24.508,25.008,24.573,24.928,24.573z"/>
	</g>
</g>
</svg>
