<?xml version="1.0" encoding="utf-8"?>
<!-- Generator: Adobe Illustrator 16.0.0, SVG Export Plug-In . SVG Version: 6.00 Build 0)  -->
<!DOCTYPE svg PUBLIC "-//W3C//DTD SVG 1.1//EN" "http://www.w3.org/Graphics/SVG/1.1/DTD/svg11.dtd">
<svg version="1.1" id="Layer_1" xmlns="http://www.w3.org/2000/svg" xmlns:xlink="http://www.w3.org/1999/xlink" x="0px" y="0px"
	 width="32px" height="32px" viewBox="0 0 32 32" enable-background="new 0 0 32 32" xml:space="preserve">
<g>
	<g>
		<g>
			<g>
				<path d="M16.002,16.16c-0.082,0-0.146-0.065-0.146-0.146v-3.956c0-0.08,0.064-0.146,0.146-0.146c0.08,0,0.146,0.065,0.146,0.146
					v3.956C16.148,16.095,16.082,16.16,16.002,16.16z"/>
			</g>
			<g>
				<path d="M17.977,14.182h-3.955c-0.08,0-0.146-0.065-0.146-0.146c0-0.082,0.066-0.146,0.146-0.146h3.955
					c0.082,0,0.146,0.063,0.146,0.146C18.123,14.116,18.059,14.182,17.977,14.182z"/>
			</g>
		</g>
		<g>
			<path d="M16.002,17.661c-2,0-3.629-1.626-3.629-3.625c0-2,1.629-3.627,3.629-3.627c1.998,0,3.623,1.627,3.623,3.627
				C19.625,16.035,18,17.661,16.002,17.661z M16.002,10.702c-1.84,0-3.336,1.495-3.336,3.334c0,1.838,1.496,3.332,3.336,3.332
				c1.836,0,3.332-1.494,3.332-3.332C19.334,12.197,17.838,10.702,16.002,10.702z"/>
		</g>
	</g>
	<g>
		<g>
			<path d="M26.105,22.465H5.893c-0.562,0-1.021-0.46-1.021-1.023V7.739c0-0.565,0.459-1.023,1.021-1.023h20.213
				c0.564,0,1.023,0.458,1.023,1.023v13.702C27.129,22.005,26.67,22.465,26.105,22.465z M5.893,7.008
				c-0.402,0-0.73,0.327-0.73,0.731v13.702c0,0.402,0.328,0.73,0.73,0.73h20.213c0.404,0,0.732-0.328,0.732-0.73V7.739
				c0-0.404-0.328-0.731-0.732-0.731H5.893z"/>
		</g>
		<g>
			<path d="M26.982,20.751H5.016c-0.08,0-0.145-0.065-0.145-0.146c0-0.082,0.064-0.146,0.145-0.146h21.967
				c0.082,0,0.146,0.064,0.146,0.146C27.129,20.686,27.064,20.751,26.982,20.751z"/>
		</g>
		<g>
			<g>
				<path d="M11.629,25.345c-0.031,0-0.062-0.01-0.09-0.031c-0.064-0.05-0.076-0.142-0.025-0.205l2.236-2.886
					c0.051-0.063,0.143-0.076,0.205-0.026c0.064,0.051,0.076,0.143,0.027,0.206l-2.238,2.885
					C11.715,25.325,11.672,25.345,11.629,25.345z"/>
			</g>
			<g>
				<path d="M20.369,25.345c-0.043,0-0.086-0.02-0.115-0.058l-2.234-2.885c-0.049-0.063-0.037-0.155,0.027-0.206
					c0.062-0.05,0.154-0.037,0.205,0.026l2.234,2.886c0.049,0.063,0.037,0.155-0.027,0.205C20.434,25.335,20.4,25.345,20.369,25.345
					z"/>
			</g>
		</g>
		<g>
			<path d="M22.102,25.547H9.9c-0.08,0-0.146-0.065-0.146-0.146c0-0.081,0.066-0.146,0.146-0.146h12.201
				c0.08,0,0.145,0.064,0.145,0.146C22.246,25.481,22.182,25.547,22.102,25.547z"/>
		</g>
	</g>
</g>
</svg>
