<?xml version="1.0" encoding="utf-8"?>
<!-- Generator: Adobe Illustrator 16.0.0, SVG Export Plug-In . SVG Version: 6.00 Build 0)  -->
<!DOCTYPE svg PUBLIC "-//W3C//DTD SVG 1.1//EN" "http://www.w3.org/Graphics/SVG/1.1/DTD/svg11.dtd">
<svg version="1.1" id="Layer_1" xmlns="http://www.w3.org/2000/svg" xmlns:xlink="http://www.w3.org/1999/xlink" x="0px" y="0px"
	 width="32px" height="32px" viewBox="0 0 32 32" enable-background="new 0 0 32 32" xml:space="preserve">
<g>
	<g>
		<g>
			<g>
				<path d="M15.996,16.038c-0.08,0-0.145-0.065-0.145-0.146v-4.363c0-0.08,0.064-0.146,0.145-0.146
					c0.082,0,0.148,0.065,0.148,0.146v4.363C16.145,15.973,16.078,16.038,15.996,16.038z"/>
			</g>
			<g>
				<path d="M18.18,13.855h-4.363c-0.08,0-0.146-0.065-0.146-0.146c0-0.081,0.066-0.146,0.146-0.146h4.363
					c0.082,0,0.146,0.065,0.146,0.146C18.326,13.79,18.262,13.855,18.18,13.855z"/>
			</g>
		</g>
		<g>
			<path d="M15.996,17.694c-2.195,0-3.984-1.787-3.984-3.984c0-2.196,1.789-3.984,3.984-3.984c2.199,0,3.986,1.788,3.986,3.984
				C19.982,15.907,18.195,17.694,15.996,17.694z M15.996,10.019c-2.035,0-3.691,1.656-3.691,3.691c0,2.036,1.656,3.693,3.691,3.693
				c2.037,0,3.693-1.657,3.693-3.693C19.689,11.675,18.033,10.019,15.996,10.019z"/>
		</g>
	</g>
	<g>
		<g>
			<path d="M26.104,22.261H5.893c-0.564,0-1.023-0.46-1.023-1.023V7.536c0-0.564,0.459-1.023,1.023-1.023h20.211
				c0.564,0,1.023,0.459,1.023,1.023v13.701C27.127,21.801,26.668,22.261,26.104,22.261z M5.893,6.805
				c-0.402,0-0.73,0.328-0.73,0.731v13.701c0,0.402,0.328,0.73,0.73,0.73h20.211c0.404,0,0.732-0.328,0.732-0.73V7.536
				c0-0.403-0.328-0.731-0.732-0.731H5.893z"/>
		</g>
		<g>
			<path d="M28.953,25.751c-0.002,0-0.004,0-0.006,0h-25.9c-0.057,0-0.107-0.033-0.133-0.084c-0.023-0.052-0.016-0.113,0.021-0.156
				l1.922-2.276c0.027-0.033,0.068-0.052,0.111-0.052h22.057c0.043,0,0.084,0.019,0.111,0.052l1.902,2.252
				c0.037,0.026,0.061,0.07,0.061,0.119C29.1,25.686,29.033,25.751,28.953,25.751z M3.361,25.46h25.271l-1.676-1.985H5.037
				L3.361,25.46z"/>
		</g>
		<g>
			<path d="M26.98,20.548H5.016c-0.08,0-0.146-0.065-0.146-0.146c0-0.081,0.066-0.147,0.146-0.147H26.98
				c0.082,0,0.146,0.066,0.146,0.147C27.127,20.482,27.062,20.548,26.98,20.548z"/>
		</g>
	</g>
</g>
</svg>
