<?xml version="1.0" encoding="utf-8"?>
<!-- Generator: Adobe Illustrator 16.0.0, SVG Export Plug-In . SVG Version: 6.00 Build 0)  -->
<!DOCTYPE svg PUBLIC "-//W3C//DTD SVG 1.1//EN" "http://www.w3.org/Graphics/SVG/1.1/DTD/svg11.dtd">
<svg version="1.1" id="Layer_1" xmlns="http://www.w3.org/2000/svg" xmlns:xlink="http://www.w3.org/1999/xlink" x="0px" y="0px"
	 width="32px" height="32px" viewBox="0 0 32 32" enable-background="new 0 0 32 32" xml:space="preserve">
<g>
	<g>
		<g>
			<g>
				<path d="M16,16.292c-0.082,0-0.146-0.066-0.146-0.147v-4.219c0-0.082,0.064-0.147,0.146-0.147c0.08,0,0.146,0.065,0.146,0.147
					v4.219C16.146,16.226,16.08,16.292,16,16.292z"/>
			</g>
			<g>
				<path d="M18.109,14.182h-4.221c-0.08,0-0.146-0.065-0.146-0.146c0-0.082,0.066-0.146,0.146-0.146h4.221
					c0.08,0,0.146,0.063,0.146,0.146C18.256,14.116,18.189,14.182,18.109,14.182z"/>
			</g>
		</g>
		<g>
			<path d="M16,17.895c-2.127,0-3.859-1.73-3.859-3.858s1.732-3.859,3.859-3.859c2.129,0,3.859,1.731,3.859,3.859
				S18.129,17.895,16,17.895z M16,10.471c-1.967,0-3.566,1.599-3.566,3.565c0,1.966,1.6,3.565,3.566,3.565s3.566-1.6,3.566-3.565
				C19.566,12.069,17.967,10.471,16,10.471z"/>
		</g>
	</g>
	<g>
		<circle cx="16" cy="26.323" r="0.76"/>
	</g>
	<g>
		<path d="M21.01,28.493H10.99c-0.564,0-1.023-0.458-1.023-1.022V4.793c0-0.563,0.459-1.023,1.023-1.023h10.02
			c0.564,0,1.023,0.46,1.023,1.023v22.678C22.033,28.035,21.574,28.493,21.01,28.493z M10.99,4.062c-0.404,0-0.732,0.328-0.732,0.73
			v22.678c0,0.403,0.328,0.73,0.732,0.73h10.02c0.404,0,0.73-0.327,0.73-0.73V4.793c0-0.402-0.326-0.73-0.73-0.73H10.99z"/>
	</g>
	<g>
		<path d="M21.717,24.029H10.281c-0.08,0-0.145-0.065-0.145-0.146c0-0.08,0.064-0.146,0.145-0.146h11.436
			c0.08,0,0.146,0.065,0.146,0.146C21.863,23.964,21.797,24.029,21.717,24.029z"/>
	</g>
</g>
</svg>
