<?xml version="1.0" encoding="utf-8"?>
<!-- Generator: Adobe Illustrator 16.0.0, SVG Export Plug-In . SVG Version: 6.00 Build 0)  -->
<!DOCTYPE svg PUBLIC "-//W3C//DTD SVG 1.1//EN" "http://www.w3.org/Graphics/SVG/1.1/DTD/svg11.dtd">
<svg version="1.1" id="Layer_1" xmlns="http://www.w3.org/2000/svg" xmlns:xlink="http://www.w3.org/1999/xlink" x="0px" y="0px"
	 width="32px" height="32px" viewBox="0 0 32 32" enable-background="new 0 0 32 32" xml:space="preserve">
<g>
	<g>
		<g>
			<g>
				<path d="M15.416,16.96c-0.08,0-0.146-0.065-0.146-0.146v-3.345c0-0.08,0.066-0.146,0.146-0.146s0.146,0.065,0.146,0.146v3.345
					C15.562,16.895,15.496,16.96,15.416,16.96z"/>
			</g>
			<g>
				<path d="M17.086,15.287h-3.344c-0.08,0-0.146-0.065-0.146-0.146c0-0.081,0.066-0.146,0.146-0.146h3.344
					c0.082,0,0.146,0.065,0.146,0.146C17.232,15.222,17.168,15.287,17.086,15.287z"/>
			</g>
		</g>
		<g>
			<path d="M15.416,18.23c-1.705,0-3.09-1.386-3.09-3.089s1.385-3.09,3.09-3.09c1.703,0,3.09,1.387,3.09,3.09
				S17.119,18.23,15.416,18.23z M15.416,12.345c-1.543,0-2.797,1.255-2.797,2.797s1.254,2.796,2.797,2.796
				c1.541,0,2.797-1.254,2.797-2.796S16.957,12.345,15.416,12.345z"/>
		</g>
	</g>
	<g>
		<g>
			<path d="M19.236,21.413h-7.643c-0.887,0-1.609-0.721-1.609-1.608v-9.326c0-0.888,0.723-1.608,1.609-1.608h7.643
				c0.887,0,1.609,0.721,1.609,1.608v9.326C20.846,20.692,20.123,21.413,19.236,21.413z M11.594,9.161
				c-0.727,0-1.316,0.591-1.316,1.317v9.326c0,0.727,0.59,1.316,1.316,1.316h7.643c0.727,0,1.316-0.59,1.316-1.316v-9.326
				c0-0.727-0.59-1.317-1.316-1.317H11.594z"/>
		</g>
		<g>
			<path d="M21.869,13.859c-0.08,0-0.146-0.065-0.146-0.146v-2.037c0-0.08,0.066-0.146,0.146-0.146s0.146,0.065,0.146,0.146v2.037
				C22.016,13.794,21.949,13.859,21.869,13.859z"/>
		</g>
		<g>
			<path d="M18.746,7.964c-0.082,0-0.146-0.066-0.146-0.147V5.487c0-0.241-0.197-0.438-0.439-0.438h-5.49
				c-0.242,0-0.439,0.197-0.439,0.438v2.329c0,0.081-0.064,0.147-0.146,0.147c-0.08,0-0.146-0.066-0.146-0.147V5.487
				c0-0.402,0.328-0.732,0.732-0.732h5.49c0.402,0,0.73,0.33,0.73,0.732v2.329C18.891,7.897,18.826,7.964,18.746,7.964z"/>
		</g>
		<g>
			<path d="M18.16,25.527h-5.49c-0.404,0-0.732-0.328-0.732-0.732v-2.329c0-0.08,0.066-0.147,0.146-0.147
				c0.082,0,0.146,0.067,0.146,0.147v2.329c0,0.243,0.197,0.439,0.439,0.439h5.49c0.242,0,0.439-0.196,0.439-0.439v-2.329
				c0-0.08,0.064-0.147,0.146-0.147c0.08,0,0.145,0.067,0.145,0.147v2.329C18.891,25.199,18.562,25.527,18.16,25.527z"/>
		</g>
	</g>
</g>
</svg>
