<?xml version="1.0" encoding="utf-8"?>
<!-- Generator: Adobe Illustrator 16.0.0, SVG Export Plug-In . SVG Version: 6.00 Build 0)  -->
<!DOCTYPE svg PUBLIC "-//W3C//DTD SVG 1.1//EN" "http://www.w3.org/Graphics/SVG/1.1/DTD/svg11.dtd">
<svg version="1.1" id="Layer_1" xmlns="http://www.w3.org/2000/svg" xmlns:xlink="http://www.w3.org/1999/xlink" x="0px" y="0px"
	 width="128px" height="128px" viewBox="0 0 128 128" enable-background="new 0 0 128 128" xml:space="preserve">
<g>
	<g>
		<g>
			<path fill="none" stroke="#000000" stroke-width="2" stroke-linecap="round" stroke-linejoin="round" stroke-miterlimit="10" d="
				M64.041,78.399"/>
			<path fill="none" stroke="#000000" stroke-width="2" stroke-linecap="round" stroke-linejoin="round" stroke-miterlimit="10" d="
				M53.918,61.142c4.692,6.225,10.123,13.373,10.123,13.373s16.323-21.467,16.815-22.42l0.046-0.066h-0.017
				c0.645-1.273,1.016-2.707,1.016-4.236c0-5.244-4.289-9.496-9.586-9.496c-3.533,0-6.613,2.801-8.273,5.623
				c-1.665-2.822-4.74-5.623-8.275-5.623c-5.294,0-9.588,4.252-9.588,9.496c0,1.529,0.375,2.963,1.016,4.236H47.18l0.044,0.066
				c0.11,0.211,1.025,1.467,2.373,3.281"/>
		</g>
		
			<polyline fill="none" stroke="#000000" stroke-width="2" stroke-linecap="round" stroke-linejoin="round" stroke-miterlimit="10" points="
			46.521,58.198 58.339,58.198 60.537,54.138 62.456,64.181 64.852,48.021 67.321,62.03 68.98,58.063 72.513,58.063 		"/>
	</g>
	<g>
		<g>
			<path d="M103.317,89.196H24.765c-2.206,0-4-1.794-4-4V31.704c0-2.206,1.794-4,4-4h78.553c2.206,0,4,1.794,4,4v53.492
				C107.317,87.402,105.523,89.196,103.317,89.196z M24.765,29.704c-1.103,0-2,0.897-2,2v53.492c0,1.103,0.897,2,2,2h78.553
				c1.103,0,2-0.897,2-2V31.704c0-1.103-0.897-2-2-2H24.765z"/>
		</g>
		<g>
			<path d="M113.917,102.642c-0.007-0.001-0.014-0.001-0.02,0H14.185c-0.389,0-0.743-0.226-0.907-0.579
				c-0.164-0.353-0.108-0.769,0.143-1.065l7.398-8.766c0.19-0.226,0.47-0.355,0.764-0.355h84.916c0.294,0,0.574,0.13,0.764,0.355
				l7.294,8.642c0.22,0.184,0.36,0.46,0.36,0.769C114.917,102.194,114.47,102.642,113.917,102.642z M16.337,100.642h95.407
				l-5.71-6.766H22.047L16.337,100.642z"/>
		</g>
		<g>
			<path d="M106.317,82.608H21.765c-0.552,0-1-0.447-1-1s0.448-1,1-1h84.553c0.552,0,1,0.447,1,1S106.87,82.608,106.317,82.608z"/>
		</g>
	</g>
</g>
</svg>
