<?xml version="1.0" encoding="utf-8"?>
<!-- Generator: Adobe Illustrator 16.0.0, SVG Export Plug-In . SVG Version: 6.00 Build 0)  -->
<!DOCTYPE svg PUBLIC "-//W3C//DTD SVG 1.1//EN" "http://www.w3.org/Graphics/SVG/1.1/DTD/svg11.dtd">
<svg version="1.1" id="Layer_1" xmlns="http://www.w3.org/2000/svg" xmlns:xlink="http://www.w3.org/1999/xlink" x="0px" y="0px"
	 width="128px" height="128px" viewBox="0 0 128 128" enable-background="new 0 0 128 128" xml:space="preserve">
<g>
	<g>
		<g>
			<path fill="none" stroke="#000000" stroke-width="2" stroke-linecap="round" stroke-linejoin="round" stroke-miterlimit="10" d="
				M64.041,79.179"/>
			<path fill="none" stroke="#000000" stroke-width="2" stroke-linecap="round" stroke-linejoin="round" stroke-miterlimit="10" d="
				M54.164,62.339c4.578,6.074,9.877,13.045,9.877,13.045S79.968,54.446,80.45,53.511l0.042-0.061h-0.015
				c0.628-1.244,0.992-2.646,0.992-4.137c0-5.113-4.187-9.26-9.353-9.26c-3.447,0-6.452,2.73-8.075,5.48
				c-1.622-2.75-4.624-5.48-8.073-5.48c-5.168,0-9.352,4.146-9.352,9.26c0,1.49,0.361,2.893,0.989,4.137h-0.016l0.044,0.061
				c0.109,0.209,0.999,1.43,2.314,3.201"/>
		</g>
		
			<polyline fill="none" stroke="#000000" stroke-width="2" stroke-linecap="round" stroke-linejoin="round" stroke-miterlimit="10" points="
			46.95,59.466 58.479,59.466 60.623,55.499 62.498,65.308 64.832,49.538 67.242,63.2 68.861,59.339 72.307,59.339 		"/>
	</g>
	<g>
		<g>
			<path d="M103.318,89.983H24.764c-2.206,0-4-1.794-4-4V32.485c0-2.206,1.794-4,4-4h78.555c2.206,0,4,1.794,4,4v53.498
				C107.318,88.189,105.524,89.983,103.318,89.983z M24.764,30.485c-1.103,0-2,0.897-2,2v53.498c0,1.103,0.897,2,2,2h78.555
				c1.103,0,2-0.897,2-2V32.485c0-1.103-0.897-2-2-2H24.764z"/>
		</g>
		<g>
			<path d="M106.318,83.388H21.764c-0.552,0-1-0.447-1-1s0.448-1,1-1h84.555c0.552,0,1,0.447,1,1S106.871,83.388,106.318,83.388z"/>
		</g>
		<g>
			<g>
				<path d="M47.218,101.073c-0.214,0-0.43-0.068-0.612-0.209c-0.437-0.339-0.517-0.967-0.178-1.403l8.606-11.113
					c0.338-0.438,0.968-0.516,1.403-0.179c0.437,0.339,0.517,0.967,0.178,1.403l-8.606,11.113
					C47.812,100.94,47.516,101.073,47.218,101.073z"/>
			</g>
			<g>
				<path d="M80.867,101.073c-0.298,0-0.594-0.133-0.791-0.388l-8.608-11.113c-0.338-0.437-0.258-1.064,0.178-1.403
					c0.435-0.337,1.064-0.26,1.403,0.179l8.608,11.113c0.338,0.437,0.258,1.064-0.178,1.403
					C81.297,101.005,81.082,101.073,80.867,101.073z"/>
			</g>
		</g>
		<g>
			<path d="M87.518,101.858H40.564c-0.552,0-1-0.447-1-1s0.448-1,1-1h46.954c0.552,0,1,0.447,1,1S88.07,101.858,87.518,101.858z"/>
		</g>
	</g>
</g>
</svg>
