<?xml version="1.0" encoding="utf-8"?>
<!-- Generator: Adobe Illustrator 16.0.0, SVG Export Plug-In . SVG Version: 6.00 Build 0)  -->
<!DOCTYPE svg PUBLIC "-//W3C//DTD SVG 1.1//EN" "http://www.w3.org/Graphics/SVG/1.1/DTD/svg11.dtd">
<svg version="1.1" id="Layer_1" xmlns="http://www.w3.org/2000/svg" xmlns:xlink="http://www.w3.org/1999/xlink" x="0px" y="0px"
	 width="128px" height="128px" viewBox="0 0 128 128" enable-background="new 0 0 128 128" xml:space="preserve">
<g>
	<g>
		<g>
			<path d="M62.719,65.394c-0.479,0-0.892-0.341-0.982-0.812l-1.076-5.63l-0.498,0.923c-0.175,0.323-0.513,0.525-0.88,0.525H49.42
				c-0.552,0-1-0.447-1-1s0.448-1,1-1h9.266l1.549-2.873c0.201-0.373,0.616-0.576,1.033-0.514c0.418,0.064,0.75,0.385,0.83,0.801
				l0.597,3.126l1.039-5.711c0.085-0.468,0.488-0.812,0.963-0.821c0.461,0.016,0.892,0.316,0.996,0.781l1.375,6.128l0.174-0.415
				c0.156-0.371,0.52-0.613,0.922-0.613h2.947c0.552,0,1,0.447,1,1s-0.448,1-1,1h-2.282L67.7,62.979
				c-0.169,0.401-0.583,0.654-1.01,0.609c-0.434-0.038-0.792-0.353-0.888-0.777l-0.983-4.379l-1.116,6.14
				c-0.086,0.474-0.498,0.819-0.979,0.821C62.722,65.394,62.721,65.394,62.719,65.394z"/>
		</g>
		<g>
			<g>
				
					<path fill="none" stroke="#000000" stroke-width="2" stroke-linecap="round" stroke-linejoin="round" stroke-miterlimit="10" d="
					M64.041,77.511"/>
			</g>
			<g>
				<path d="M64.041,75.267L64.041,75.267c-0.312,0-0.607-0.146-0.796-0.395c0,0-4.534-5.963-8.451-11.164
					c-0.332-0.441-0.244-1.068,0.197-1.4c0.442-0.332,1.069-0.242,1.4,0.197c2.918,3.874,6.179,8.172,7.649,10.109
					c5.299-6.974,12.638-16.688,13.15-17.53c0.005-0.012,0.011-0.023,0.017-0.035c0.493-0.977,0.742-2.014,0.742-3.083
					c0-3.82-3.142-6.928-7.004-6.928c-2.629,0-4.899,2.264-6.044,4.202c-0.359,0.609-1.362,0.609-1.722,0
					c-1.145-1.938-3.416-4.202-6.047-4.202c-3.861,0-7.002,3.107-7.002,6.928c0,1.07,0.249,2.108,0.74,3.084
					c0.095,0.188,0.126,0.396,0.096,0.599c-0.031,0.266-0.163,0.517-0.391,0.684c-0.444,0.325-1.052,0.254-1.379-0.192
					c-0.043-0.06-0.081-0.124-0.11-0.191h-0.001c-0.633-1.257-0.954-2.597-0.954-3.982c0-4.923,4.038-8.928,9.002-8.928
					c2.884,0,5.318,1.851,6.908,3.914c1.59-2.063,4.023-3.914,6.905-3.914c4.965,0,9.004,4.005,9.004,8.928
					c0,1.334-0.299,2.627-0.888,3.846c-0.031,0.096-0.077,0.188-0.138,0.272c-0.375,0.739-10.878,14.569-14.087,18.788
					C64.648,75.121,64.354,75.267,64.041,75.267z"/>
			</g>
		</g>
	</g>
	<g>
		<path d="M83.702,113.192H44.38c-2.206,0-4-1.794-4-4V21.147c0-2.206,1.794-4,4-4h39.321c2.206,0,4,1.794,4,4v88.045
			C87.702,111.398,85.907,113.192,83.702,113.192z M44.38,19.147c-1.103,0-2,0.897-2,2v88.045c0,1.103,0.897,2,2,2h39.321
			c1.103,0,2-0.897,2-2V21.147c0-1.103-0.897-2-2-2H44.38z"/>
	</g>
	<g>
		<path d="M86.05,96.015H42.03c-0.552,0-1-0.447-1-1s0.448-1,1-1h44.02c0.552,0,1,0.447,1,1S86.602,96.015,86.05,96.015z"/>
	</g>
	<g>
		<path d="M66.595,103.901c0,1.416-1.146,2.555-2.554,2.555c-1.411,0-2.557-1.139-2.557-2.555c0-1.402,1.146-2.553,2.557-2.553
			C65.449,101.349,66.595,102.499,66.595,103.901z"/>
	</g>
</g>
</svg>
