<?xml version="1.0" encoding="utf-8"?>
<!-- Generator: Adobe Illustrator 16.0.0, SVG Export Plug-In . SVG Version: 6.00 Build 0)  -->
<!DOCTYPE svg PUBLIC "-//W3C//DTD SVG 1.1//EN" "http://www.w3.org/Graphics/SVG/1.1/DTD/svg11.dtd">
<svg version="1.1" id="Layer_1" xmlns="http://www.w3.org/2000/svg" xmlns:xlink="http://www.w3.org/1999/xlink" x="0px" y="0px"
	 width="128px" height="128px" viewBox="0 0 128 128" enable-background="new 0 0 128 128" xml:space="preserve">
<g>
	<g>
		<g>
			<path fill="none" stroke="#000000" stroke-width="2" stroke-linecap="round" stroke-linejoin="round" stroke-miterlimit="10" d="
				M61.786,81.817"/>
			<path fill="none" stroke="#000000" stroke-width="2" stroke-linecap="round" stroke-linejoin="round" stroke-miterlimit="10" d="
				M54.331,69.108c3.456,4.588,7.455,9.846,7.455,9.846s12.026-15.809,12.388-16.516l0.033-0.041h-0.012
				c0.477-0.943,0.747-2.002,0.747-3.121c0-3.861-3.157-6.992-7.059-6.992c-2.605,0-4.87,2.057-6.098,4.135
				c-1.227-2.078-3.489-4.135-6.096-4.135c-3.898,0-7.061,3.131-7.061,6.992c0,1.119,0.273,2.178,0.749,3.121h-0.012l0.033,0.041"/>
		</g>
		
			<polyline fill="none" stroke="#000000" stroke-width="2" stroke-linecap="round" stroke-linejoin="round" stroke-miterlimit="10" points="
			48.887,65.833 57.589,65.833 59.206,62.841 60.622,70.243 62.385,60.548 64.201,68.655 65.428,65.737 68.028,65.737 		"/>
	</g>
	<g>
		<g>
			<path d="M77.125,89.747H46.451c-3.309,0-6-2.691-6-6V46.591c0-3.309,2.691-6,6-6h30.674c3.309,0,6,2.691,6,6v37.156
				C83.125,87.056,80.434,89.747,77.125,89.747z M46.451,42.591c-2.206,0-4,1.794-4,4v37.156c0,2.206,1.794,4,4,4h30.674
				c2.206,0,4-1.794,4-4V46.591c0-2.206-1.794-4-4-4H46.451z"/>
		</g>
		<g>
			<path d="M86.631,60.675c-0.552,0-1-0.447-1-1v-7.832c0-0.553,0.448-1,1-1s1,0.447,1,1v7.832
				C87.631,60.228,87.183,60.675,86.631,60.675z"/>
		</g>
		<g>
			<path d="M74.606,37.976c-0.552,0-1-0.447-1-1v-9.221c0-0.552-0.449-1-1-1H50.97c-0.551,0-1,0.448-1,1v9.221c0,0.553-0.448,1-1,1
				s-1-0.447-1-1v-9.221c0-1.654,1.346-3,3-3h21.637c1.654,0,3,1.346,3,3v9.221C75.606,37.528,75.159,37.976,74.606,37.976z"/>
		</g>
		<g>
			<path d="M72.606,105.585H50.97c-1.654,0-3-1.346-3-3v-9.223c0-0.553,0.448-1,1-1s1,0.447,1,1v9.223c0,0.552,0.449,1,1,1h21.637
				c0.551,0,1-0.448,1-1v-9.223c0-0.553,0.448-1,1-1s1,0.447,1,1v9.223C75.606,104.239,74.261,105.585,72.606,105.585z"/>
		</g>
	</g>
</g>
</svg>
