<?xml version="1.0" encoding="utf-8"?>
<!-- Generator: Adobe Illustrator 16.0.0, SVG Export Plug-In . SVG Version: 6.00 Build 0)  -->
<!DOCTYPE svg PUBLIC "-//W3C//DTD SVG 1.1//EN" "http://www.w3.org/Graphics/SVG/1.1/DTD/svg11.dtd">
<svg version="1.1" id="Layer_1" xmlns="http://www.w3.org/2000/svg" xmlns:xlink="http://www.w3.org/1999/xlink" x="0px" y="0px"
	 width="128px" height="128px" viewBox="0 0 128 128" enable-background="new 0 0 128 128" xml:space="preserve">
<g>
	<g>
		<g>
			<path d="M62.073,67.972c-0.479,0-0.892-0.34-0.982-0.812l-1.861-9.736l-1.394,2.584c-0.175,0.323-0.513,0.525-0.88,0.525H42.262
				c-0.552,0-1-0.447-1-1s0.448-1,1-1h14.097l2.445-4.533c0.202-0.373,0.616-0.578,1.033-0.514c0.418,0.064,0.75,0.385,0.83,0.801
				l1.281,6.703l2.11-14.262c0.072-0.485,0.485-0.847,0.976-0.854c0.522,0.004,0.914,0.344,0.999,0.826l2.48,14.062l0.746-1.782
				c0.156-0.372,0.519-0.614,0.922-0.614h4.395c0.552,0,1,0.447,1,1s-0.448,1-1,1h-3.729l-1.805,4.312
				c-0.171,0.409-0.583,0.659-1.033,0.608c-0.441-0.05-0.797-0.384-0.874-0.82l-2.001-11.345l-2.071,13.997
				c-0.071,0.482-0.48,0.843-0.968,0.854C62.087,67.972,62.08,67.972,62.073,67.972z"/>
		</g>
		<g>
			<g>
				
					<path fill="none" stroke="#000000" stroke-width="2" stroke-linecap="round" stroke-linejoin="round" stroke-miterlimit="10" d="
					M64.039,84.647"/>
			</g>
			<g>
				<path d="M64.039,80.812L64.039,80.812c-0.312,0-0.607-0.146-0.796-0.395c0,0-6.753-8.883-12.586-16.627
					c-0.332-0.441-0.244-1.068,0.197-1.4c0.442-0.333,1.067-0.243,1.4,0.197c4.626,6.143,9.832,13.001,11.785,15.572
					c7.994-10.516,19.359-25.555,20.02-26.679c0.01-0.025,0.021-0.05,0.033-0.074c0.769-1.517,1.159-3.137,1.159-4.815
					c0-5.958-4.899-10.805-10.921-10.805c-4.129,0-7.66,3.499-9.43,6.495c-0.18,0.305-0.507,0.491-0.861,0.491h0
					c-0.354,0-0.681-0.188-0.861-0.492c-1.767-2.996-5.296-6.494-9.426-6.494c-6.022,0-10.921,4.847-10.921,10.805
					c0,1.68,0.389,3.3,1.155,4.816c0.008,0.017,0.017,0.034,0.024,0.052c0.006,0.01,0.011,0.019,0.014,0.025
					c0.094,0.165,0.673,0.995,2.861,3.939c0.329,0.443,0.237,1.07-0.206,1.399c-0.444,0.328-1.071,0.236-1.399-0.206
					c-2.484-3.344-2.894-3.957-3.023-4.196c-0.02-0.036-0.038-0.074-0.054-0.112l-0.002,0.001c-0.909-1.799-1.37-3.723-1.37-5.719
					c0-7.061,5.796-12.805,12.921-12.805c4.364,0,8.018,2.98,10.288,6.156c2.271-3.176,5.928-6.156,10.291-6.156
					c7.125,0,12.921,5.744,12.921,12.805c0,1.93-0.433,3.793-1.286,5.541c-0.03,0.11-0.08,0.217-0.15,0.313
					c-0.6,1.159-17.583,23.505-20.98,27.972C64.646,80.666,64.352,80.812,64.039,80.812z"/>
			</g>
		</g>
	</g>
	<g>
		<path d="M95.932,115.067H32.15c-2.206,0-4-1.794-4-4V19.271c0-2.206,1.794-4,4-4h63.781c2.206,0,4,1.794,4,4v91.797
			C99.932,113.273,98.137,115.067,95.932,115.067z M32.15,17.271c-1.103,0-2,0.897-2,2v91.797c0,1.103,0.897,2,2,2h63.781
			c1.103,0,2-0.897,2-2V19.271c0-1.103-0.897-2-2-2H32.15z"/>
	</g>
	<g>
		<path d="M66.596,106.411c0,1.408-1.144,2.553-2.557,2.553c-1.407,0-2.553-1.145-2.553-2.553c0-1.41,1.146-2.557,2.553-2.557
			C65.452,103.854,66.596,105.001,66.596,106.411z"/>
	</g>
	<g>
		<path d="M98.401,98.104H29.681c-0.552,0-1-0.447-1-1s0.448-1,1-1h68.721c0.552,0,1,0.447,1,1S98.954,98.104,98.401,98.104z"/>
	</g>
</g>
</svg>
