<?xml version="1.0" encoding="utf-8"?>
<!-- Generator: Adobe Illustrator 16.0.0, SVG Export Plug-In . SVG Version: 6.00 Build 0)  -->
<!DOCTYPE svg PUBLIC "-//W3C//DTD SVG 1.1//EN" "http://www.w3.org/Graphics/SVG/1.1/DTD/svg11.dtd">
<svg version="1.1" id="Layer_1" xmlns="http://www.w3.org/2000/svg" xmlns:xlink="http://www.w3.org/1999/xlink" x="0px" y="0px"
	 width="128px" height="128px" viewBox="0 0 128 128" enable-background="new 0 0 128 128" xml:space="preserve">
<g>
	<g>
		
			<polyline fill="none" stroke="#000000" stroke-width="2" stroke-linecap="round" stroke-linejoin="round" stroke-miterlimit="10" points="
			51.441,67.494 42.391,58.448 51.441,49.4 		"/>
		
			<polyline fill="none" stroke="#000000" stroke-width="2" stroke-linecap="round" stroke-linejoin="round" stroke-miterlimit="10" points="
			76.643,67.494 85.689,58.448 76.643,49.4 		"/>
		<path fill="none" stroke="#000000" stroke-width="2" stroke-linecap="round" stroke-linejoin="round" stroke-miterlimit="10" d="
			M69.749,58.448"/>
		
			<line fill="none" stroke="#000000" stroke-width="2" stroke-linecap="round" stroke-linejoin="round" stroke-miterlimit="10" x1="66.491" y1="49.481" x2="60.189" y2="67.414"/>
	</g>
	<g>
		<g>
			<path d="M103.317,89.195H24.765c-2.206,0-4-1.794-4-4V31.7c0-2.206,1.794-4,4-4h78.553c2.206,0,4,1.794,4,4v53.495
				C107.317,87.401,105.523,89.195,103.317,89.195z M24.765,29.7c-1.103,0-2,0.897-2,2v53.495c0,1.103,0.897,2,2,2h78.553
				c1.103,0,2-0.897,2-2V31.7c0-1.103-0.897-2-2-2H24.765z"/>
		</g>
		<g>
			<path d="M113.917,102.635c-0.007,0-0.014-0.001-0.02,0H14.185c-0.389,0-0.743-0.226-0.907-0.579
				c-0.164-0.353-0.108-0.769,0.143-1.066l7.398-8.766c0.19-0.225,0.47-0.355,0.764-0.355h84.916c0.294,0,0.574,0.13,0.764,0.355
				l7.294,8.642c0.22,0.184,0.36,0.46,0.36,0.769C114.917,102.188,114.47,102.635,113.917,102.635z M16.337,100.635h95.407
				l-5.71-6.766H22.047L16.337,100.635z"/>
		</g>
		<g>
			<path d="M106.317,82.602H21.765c-0.552,0-1-0.448-1-1s0.448-1,1-1h84.553c0.552,0,1,0.448,1,1S106.87,82.602,106.317,82.602z"/>
		</g>
	</g>
</g>
</svg>
