<?xml version="1.0" encoding="utf-8"?>
<!-- Generator: Adobe Illustrator 16.0.0, SVG Export Plug-In . SVG Version: 6.00 Build 0)  -->
<!DOCTYPE svg PUBLIC "-//W3C//DTD SVG 1.1//EN" "http://www.w3.org/Graphics/SVG/1.1/DTD/svg11.dtd">
<svg version="1.1" id="Layer_1" xmlns="http://www.w3.org/2000/svg" xmlns:xlink="http://www.w3.org/1999/xlink" x="0px" y="0px"
	 width="128px" height="128px" viewBox="0 0 128 128" enable-background="new 0 0 128 128" xml:space="preserve">
<g>
	<g>
		
			<polyline fill="none" stroke="#000000" stroke-width="2" stroke-linecap="round" stroke-linejoin="round" stroke-miterlimit="10" points="
			54.985,70.052 50.101,65.171 54.985,60.286 		"/>
		
			<polyline fill="none" stroke="#000000" stroke-width="2" stroke-linecap="round" stroke-linejoin="round" stroke-miterlimit="10" points="
			68.586,70.052 73.471,65.171 68.586,60.286 		"/>
		<path fill="none" stroke="#000000" stroke-width="2" stroke-linecap="round" stroke-linejoin="round" stroke-miterlimit="10" d="
			M64.867,65.171"/>
		
			<line fill="none" stroke="#000000" stroke-width="2" stroke-linecap="round" stroke-linejoin="round" stroke-miterlimit="10" x1="63.108" y1="60.33" x2="59.708" y2="70.009"/>
	</g>
	<g>
		<g>
			<path d="M77.125,89.75H46.451c-3.309,0-6-2.691-6-6V46.59c0-3.309,2.691-6,6-6h30.674c3.309,0,6,2.691,6,6V83.75
				C83.125,87.058,80.434,89.75,77.125,89.75z M46.451,42.59c-2.206,0-4,1.794-4,4V83.75c0,2.206,1.794,4,4,4h30.674
				c2.206,0,4-1.794,4-4V46.59c0-2.206-1.794-4-4-4H46.451z"/>
		</g>
		<g>
			<path d="M86.631,60.674c-0.552,0-1-0.448-1-1v-7.835c0-0.552,0.448-1,1-1s1,0.448,1,1v7.835
				C87.631,60.226,87.183,60.674,86.631,60.674z"/>
		</g>
		<g>
			<path d="M74.606,37.976c-0.552,0-1-0.448-1-1v-9.224c0-0.551-0.449-1-1-1H50.97c-0.551,0-1,0.449-1,1v9.224c0,0.552-0.448,1-1,1
				s-1-0.448-1-1v-9.224c0-1.654,1.346-3,3-3h21.637c1.654,0,3,1.346,3,3v9.224C75.606,37.528,75.159,37.976,74.606,37.976z"/>
		</g>
		<g>
			<path d="M72.606,105.583H50.97c-1.654,0-3-1.346-3-3v-9.22c0-0.552,0.448-1,1-1s1,0.448,1,1v9.22c0,0.551,0.449,1,1,1h21.637
				c0.551,0,1-0.449,1-1v-9.22c0-0.552,0.448-1,1-1s1,0.448,1,1v9.22C75.606,104.238,74.261,105.583,72.606,105.583z"/>
		</g>
	</g>
</g>
</svg>
