<?xml version="1.0" encoding="utf-8"?>
<!-- Generator: Adobe Illustrator 16.0.0, SVG Export Plug-In . SVG Version: 6.00 Build 0)  -->
<!DOCTYPE svg PUBLIC "-//W3C//DTD SVG 1.1//EN" "http://www.w3.org/Graphics/SVG/1.1/DTD/svg11.dtd">
<svg version="1.1" id="Layer_1" xmlns="http://www.w3.org/2000/svg" xmlns:xlink="http://www.w3.org/1999/xlink" x="0px" y="0px"
	 width="128px" height="128px" viewBox="0 0 128 128" enable-background="new 0 0 128 128" xml:space="preserve">
<g>
	<g>
		
			<polyline fill="none" stroke="#000000" stroke-width="2" stroke-linecap="round" stroke-linejoin="round" stroke-miterlimit="10" points="
			51.438,67.494 42.392,58.448 51.438,49.4 		"/>
		
			<polyline fill="none" stroke="#000000" stroke-width="2" stroke-linecap="round" stroke-linejoin="round" stroke-miterlimit="10" points="
			76.643,67.494 85.69,58.448 76.643,49.4 		"/>
		<path fill="none" stroke="#000000" stroke-width="2" stroke-linecap="round" stroke-linejoin="round" stroke-miterlimit="10" d="
			M69.751,58.448"/>
		
			<line fill="none" stroke="#000000" stroke-width="2" stroke-linecap="round" stroke-linejoin="round" stroke-miterlimit="10" x1="66.492" y1="49.481" x2="60.191" y2="67.414"/>
	</g>
	<g>
		<g>
			<path d="M103.318,89.975H24.764c-2.206,0-4-1.794-4-4V32.484c0-2.206,1.794-4,4-4h78.555c2.206,0,4,1.794,4,4v53.491
				C107.318,88.181,105.524,89.975,103.318,89.975z M24.764,30.484c-1.103,0-2,0.897-2,2v53.491c0,1.103,0.897,2,2,2h78.555
				c1.103,0,2-0.897,2-2V32.484c0-1.103-0.897-2-2-2H24.764z"/>
		</g>
		<g>
			<path d="M106.318,83.386H21.764c-0.552,0-1-0.448-1-1s0.448-1,1-1h84.555c0.552,0,1,0.448,1,1S106.871,83.386,106.318,83.386z"/>
		</g>
		<g>
			<g>
				<path d="M47.218,101.071c-0.214,0-0.43-0.068-0.612-0.209c-0.437-0.338-0.517-0.966-0.178-1.403l8.606-11.113
					c0.338-0.437,0.968-0.516,1.403-0.178c0.437,0.338,0.517,0.966,0.178,1.403l-8.606,11.113
					C47.812,100.938,47.516,101.071,47.218,101.071z"/>
			</g>
			<g>
				<path d="M80.867,101.071c-0.298,0-0.594-0.133-0.791-0.388L71.468,89.57c-0.338-0.437-0.258-1.064,0.178-1.403
					c0.435-0.337,1.064-0.258,1.403,0.178l8.608,11.113c0.338,0.437,0.258,1.064-0.178,1.403
					C81.297,101.003,81.082,101.071,80.867,101.071z"/>
			</g>
		</g>
		<g>
			<path d="M87.518,101.852H40.564c-0.552,0-1-0.448-1-1s0.448-1,1-1h46.954c0.552,0,1,0.448,1,1S88.07,101.852,87.518,101.852z"/>
		</g>
	</g>
</g>
</svg>
