<?xml version="1.0" encoding="utf-8"?>
<!-- Generator: Adobe Illustrator 16.0.0, SVG Export Plug-In . SVG Version: 6.00 Build 0)  -->
<!DOCTYPE svg PUBLIC "-//W3C//DTD SVG 1.1//EN" "http://www.w3.org/Graphics/SVG/1.1/DTD/svg11.dtd">
<svg version="1.1" id="Layer_1" xmlns="http://www.w3.org/2000/svg" xmlns:xlink="http://www.w3.org/1999/xlink" x="0px" y="0px"
	 width="128px" height="128px" viewBox="0 0 128 128" enable-background="new 0 0 128 128" xml:space="preserve">
<g>
	<g>
		<g>
			<path d="M55.523,65.561c-0.256,0-0.512-0.098-0.707-0.293l-6.114-6.113c-0.188-0.188-0.293-0.442-0.293-0.707
				s0.105-0.52,0.293-0.707l6.114-6.115c0.391-0.391,1.023-0.391,1.414,0c0.391,0.39,0.391,1.023,0,1.414l-5.407,5.408l5.407,5.406
				c0.391,0.39,0.391,1.023,0,1.414C56.035,65.463,55.779,65.561,55.523,65.561z"/>
		</g>
		<g>
			<path d="M72.557,65.561c-0.256,0-0.512-0.098-0.707-0.293c-0.391-0.391-0.391-1.024,0-1.414l5.407-5.406L71.85,53.04
				c-0.391-0.391-0.391-1.024,0-1.414c0.391-0.391,1.023-0.391,1.414,0l6.114,6.115c0.188,0.188,0.293,0.442,0.293,0.707
				s-0.105,0.52-0.293,0.707l-6.114,6.113C73.068,65.463,72.812,65.561,72.557,65.561z"/>
		</g>
		<g>
			<path fill="none" stroke="#000000" stroke-width="2" stroke-linecap="round" stroke-linejoin="round" stroke-miterlimit="10" d="
				M67.898,58.448"/>
		</g>
		<g>
			<path d="M61.438,65.507c-0.11,0-0.222-0.019-0.332-0.057c-0.521-0.183-0.795-0.754-0.612-1.275l4.26-12.119
				c0.183-0.521,0.753-0.796,1.275-0.612c0.521,0.183,0.795,0.754,0.612,1.275l-4.26,12.119
				C62.237,65.25,61.851,65.507,61.438,65.507z"/>
		</g>
	</g>
	<g>
		<path d="M83.702,113.193H44.38c-2.206,0-4-1.794-4-4V21.145c0-2.206,1.794-4,4-4h39.321c2.206,0,4,1.794,4,4v88.048
			C87.702,111.398,85.907,113.193,83.702,113.193z M44.38,19.145c-1.103,0-2,0.897-2,2v88.048c0,1.103,0.897,2,2,2h39.321
			c1.103,0,2-0.897,2-2V21.145c0-1.103-0.897-2-2-2H44.38z"/>
	</g>
	<g>
		<path d="M86.05,96.011H42.03c-0.552,0-1-0.448-1-1s0.448-1,1-1h44.02c0.552,0,1,0.448,1,1S86.602,96.011,86.05,96.011z"/>
	</g>
	<g>
		<path d="M66.595,103.902c0,1.411-1.146,2.554-2.554,2.554c-1.411,0-2.557-1.143-2.557-2.554c0-1.41,1.146-2.555,2.557-2.555
			C65.449,101.348,66.595,102.493,66.595,103.902z"/>
	</g>
</g>
</svg>
