<?xml version="1.0" encoding="utf-8"?>
<!-- Generator: Adobe Illustrator 16.0.0, SVG Export Plug-In . SVG Version: 6.00 Build 0)  -->
<!DOCTYPE svg PUBLIC "-//W3C//DTD SVG 1.1//EN" "http://www.w3.org/Graphics/SVG/1.1/DTD/svg11.dtd">
<svg version="1.1" id="Layer_1" xmlns="http://www.w3.org/2000/svg" xmlns:xlink="http://www.w3.org/1999/xlink" x="0px" y="0px"
	 width="128px" height="128px" viewBox="0 0 128 128" enable-background="new 0 0 128 128" xml:space="preserve">
<g>
	<g>
		<g>
			<path d="M51.438,68.494c-0.256,0-0.512-0.098-0.707-0.293l-9.045-9.046c-0.391-0.391-0.391-1.023,0-1.414l9.045-9.048
				c0.39-0.391,1.023-0.391,1.414,0c0.391,0.39,0.391,1.023,0,1.414l-8.338,8.341l8.338,8.339c0.391,0.391,0.391,1.023,0,1.414
				C51.95,68.396,51.694,68.494,51.438,68.494z"/>
		</g>
		<g>
			<path d="M76.642,68.494c-0.256,0-0.512-0.098-0.707-0.293c-0.391-0.391-0.391-1.024,0-1.414l8.341-8.339l-8.341-8.341
				c-0.391-0.391-0.391-1.023,0-1.414s1.023-0.391,1.414,0l9.049,9.048c0.188,0.188,0.293,0.442,0.293,0.707
				s-0.105,0.52-0.293,0.707l-9.049,9.046C77.153,68.396,76.897,68.494,76.642,68.494z"/>
		</g>
		<g>
			<path fill="none" stroke="#000000" stroke-width="2" stroke-linecap="round" stroke-linejoin="round" stroke-miterlimit="10" d="
				M69.75,58.448"/>
		</g>
		<g>
			<path d="M60.189,68.415c-0.11,0-0.222-0.019-0.332-0.057c-0.521-0.183-0.795-0.754-0.612-1.275l6.3-17.933
				c0.183-0.521,0.753-0.795,1.275-0.612c0.521,0.183,0.795,0.754,0.612,1.275l-6.3,17.933
				C60.988,68.157,60.602,68.415,60.189,68.415z"/>
		</g>
	</g>
	<g>
		<path d="M95.932,115.07H32.15c-2.206,0-4-1.794-4-4V19.268c0-2.206,1.794-4,4-4h63.781c2.206,0,4,1.794,4,4v91.802
			C99.932,113.275,98.137,115.07,95.932,115.07z M32.15,17.268c-1.103,0-2,0.897-2,2v91.802c0,1.103,0.897,2,2,2h63.781
			c1.103,0,2-0.897,2-2V19.268c0-1.103-0.897-2-2-2H32.15z"/>
	</g>
	<g>
		<path d="M66.596,106.404c0,1.414-1.144,2.557-2.557,2.557c-1.407,0-2.553-1.143-2.553-2.557c0-1.409,1.146-2.554,2.553-2.554
			C65.452,103.85,66.596,104.995,66.596,106.404z"/>
	</g>
	<g>
		<path d="M98.401,98.098H29.681c-0.552,0-1-0.448-1-1s0.448-1,1-1h68.721c0.552,0,1,0.448,1,1S98.954,98.098,98.401,98.098z"/>
	</g>
</g>
</svg>
