<?xml version="1.0" encoding="utf-8"?>
<!-- Generator: Adobe Illustrator 16.0.0, SVG Export Plug-In . SVG Version: 6.00 Build 0)  -->
<!DOCTYPE svg PUBLIC "-//W3C//DTD SVG 1.1//EN" "http://www.w3.org/Graphics/SVG/1.1/DTD/svg11.dtd">
<svg version="1.1" id="Layer_1" xmlns="http://www.w3.org/2000/svg" xmlns:xlink="http://www.w3.org/1999/xlink" x="0px" y="0px"
	 width="64px" height="64px" viewBox="0 0 64 64" enable-background="new 0 0 64 64" xml:space="preserve">
<g>
	<g>
		<g>
			
				<line fill="none" stroke="#000000" stroke-linecap="round" stroke-linejoin="round" stroke-miterlimit="10" x1="32" y1="21.948" x2="32" y2="31.756"/>
			
				<line fill="none" stroke="#000000" stroke-linecap="round" stroke-linejoin="round" stroke-miterlimit="10" x1="27.096" y1="26.851" x2="36.908" y2="26.851"/>
		</g>
		<path fill="none" stroke="#000000" stroke-linecap="round" stroke-linejoin="round" stroke-miterlimit="10" d="M40.629,26.851
			c0,4.769-3.864,8.632-8.629,8.632c-4.771,0-8.629-3.863-8.629-8.632c0-4.764,3.858-8.629,8.629-8.629
			C36.765,18.222,40.629,22.087,40.629,26.851z"/>
	</g>
	<g>
		<g>
			<path d="M53.696,46.249H10.308c-1.93,0-3.5-1.57-3.5-3.5V13.998c0-1.93,1.57-3.5,3.5-3.5h43.389c1.93,0,3.5,1.57,3.5,3.5v28.751
				C57.196,44.679,55.626,46.249,53.696,46.249z M10.308,11.498c-1.379,0-2.5,1.122-2.5,2.5v28.751c0,1.378,1.121,2.5,2.5,2.5
				h43.389c1.379,0,2.5-1.122,2.5-2.5V13.998c0-1.378-1.121-2.5-2.5-2.5H10.308z"/>
		</g>
		<g>
			<path d="M61.137,54.097c-0.005,0-0.012,0.001-0.02,0H2.883c-0.194,0-0.371-0.113-0.453-0.29
				c-0.082-0.176-0.055-0.384,0.071-0.533l4.32-5.118c0.095-0.112,0.234-0.177,0.382-0.177h49.593c0.147,0,0.287,0.065,0.382,0.177
				l4.251,5.034c0.126,0.091,0.208,0.239,0.208,0.407C61.637,53.873,61.413,54.097,61.137,54.097z M3.959,53.097h56.082
				l-3.478-4.118H7.436L3.959,53.097z"/>
		</g>
		<g>
			<path d="M56.696,42.398H7.308c-0.276,0-0.5-0.224-0.5-0.5s0.224-0.5,0.5-0.5h49.389c0.276,0,0.5,0.224,0.5,0.5
				S56.973,42.398,56.696,42.398z"/>
		</g>
	</g>
</g>
</svg>
