<?xml version="1.0" encoding="utf-8"?>
<!-- Generator: Adobe Illustrator 16.0.0, SVG Export Plug-In . SVG Version: 6.00 Build 0)  -->
<!DOCTYPE svg PUBLIC "-//W3C//DTD SVG 1.1//EN" "http://www.w3.org/Graphics/SVG/1.1/DTD/svg11.dtd">
<svg version="1.1" id="Layer_1" xmlns="http://www.w3.org/2000/svg" xmlns:xlink="http://www.w3.org/1999/xlink" x="0px" y="0px"
	 width="64px" height="64px" viewBox="0 0 64 64" enable-background="new 0 0 64 64" xml:space="preserve">
<g>
	<g>
		<g>
			
				<line fill="none" stroke="#000000" stroke-linecap="round" stroke-linejoin="round" stroke-miterlimit="10" x1="32.004" y1="23.139" x2="32.004" y2="32.032"/>
			
				<line fill="none" stroke="#000000" stroke-linecap="round" stroke-linejoin="round" stroke-miterlimit="10" x1="27.553" y1="27.584" x2="36.446" y2="27.584"/>
		</g>
		<path fill="none" stroke="#000000" stroke-linecap="round" stroke-linejoin="round" stroke-miterlimit="10" d="M39.823,27.584
			c0,4.323-3.502,7.823-7.819,7.823c-4.325,0-7.829-3.5-7.829-7.823c0-4.322,3.504-7.826,7.829-7.826
			C36.321,19.759,39.823,23.262,39.823,27.584z"/>
	</g>
	<g>
		<g>
			<path d="M53.694,46.707H10.306c-1.93,0-3.5-1.57-3.5-3.5V14.453c0-1.93,1.57-3.5,3.5-3.5h43.389c1.93,0,3.5,1.57,3.5,3.5v28.753
				C57.194,45.136,55.624,46.707,53.694,46.707z M10.306,11.953c-1.379,0-2.5,1.122-2.5,2.5v28.753c0,1.378,1.121,2.5,2.5,2.5
				h43.389c1.379,0,2.5-1.122,2.5-2.5V14.453c0-1.378-1.121-2.5-2.5-2.5H10.306z"/>
		</g>
		<g>
			<path d="M56.694,42.853H7.306c-0.276,0-0.5-0.224-0.5-0.5s0.224-0.5,0.5-0.5h49.389c0.276,0,0.5,0.224,0.5,0.5
				S56.971,42.853,56.694,42.853z"/>
		</g>
		<g>
			<g>
				<path d="M22.172,53.182c-0.107,0-0.215-0.034-0.307-0.105c-0.218-0.169-0.258-0.483-0.089-0.701l5.031-6.489
					c0.17-0.22,0.482-0.258,0.702-0.089c0.218,0.169,0.258,0.483,0.089,0.701l-5.031,6.489
					C22.469,53.116,22.32,53.182,22.172,53.182z"/>
			</g>
			<g>
				<path d="M41.824,53.182c-0.149,0-0.297-0.066-0.396-0.194L36.405,46.5c-0.169-0.218-0.129-0.533,0.09-0.702
					c0.217-0.169,0.531-0.13,0.701,0.089l5.023,6.489c0.169,0.218,0.129,0.533-0.09,0.702
					C42.039,53.148,41.932,53.182,41.824,53.182z"/>
			</g>
		</g>
		<g>
			<path d="M45.717,53.638h-27.43c-0.276,0-0.5-0.224-0.5-0.5s0.224-0.5,0.5-0.5h27.43c0.276,0,0.5,0.224,0.5,0.5
				S45.993,53.638,45.717,53.638z"/>
		</g>
	</g>
</g>
</svg>
