<?xml version="1.0" encoding="utf-8"?>
<!-- Generator: Adobe Illustrator 16.0.0, SVG Export Plug-In . SVG Version: 6.00 Build 0)  -->
<!DOCTYPE svg PUBLIC "-//W3C//DTD SVG 1.1//EN" "http://www.w3.org/Graphics/SVG/1.1/DTD/svg11.dtd">
<svg version="1.1" id="Layer_1" xmlns="http://www.w3.org/2000/svg" xmlns:xlink="http://www.w3.org/1999/xlink" x="0px" y="0px"
	 width="64px" height="64px" viewBox="0 0 64 64" enable-background="new 0 0 64 64" xml:space="preserve">
<g>
	<g>
		<g>
			<path d="M32,35.097c-0.276,0-0.5-0.224-0.5-0.5V20.574c0-0.276,0.224-0.5,0.5-0.5s0.5,0.224,0.5,0.5v14.022
				C32.5,34.873,32.276,35.097,32,35.097z"/>
		</g>
		<g>
			<path d="M39.016,28.084H24.989c-0.276,0-0.5-0.224-0.5-0.5s0.224-0.5,0.5-0.5h14.026c0.276,0,0.5,0.224,0.5,0.5
				S39.292,28.084,39.016,28.084z"/>
		</g>
	</g>
	<g>
		<path d="M32,40.419c-7.078,0-12.837-5.758-12.837-12.835c0-7.078,5.759-12.837,12.837-12.837c7.079,0,12.839,5.759,12.839,12.837
			C44.839,34.662,39.079,40.419,32,40.419z M32,15.748c-6.527,0-11.837,5.31-11.837,11.837c0,6.526,5.31,11.835,11.837,11.835
			c6.528,0,11.839-5.309,11.839-11.835C43.839,21.058,38.528,15.748,32,15.748z"/>
	</g>
	<g>
		<path d="M49.379,61.358H14.621c-1.93,0-3.5-1.57-3.5-3.5V6.737c0-1.93,1.57-3.5,3.5-3.5h34.758c1.93,0,3.5,1.57,3.5,3.5v51.121
			C52.879,59.788,51.309,61.358,49.379,61.358z M14.621,4.237c-1.379,0-2.5,1.122-2.5,2.5v51.121c0,1.378,1.121,2.5,2.5,2.5h34.758
			c1.379,0,2.5-1.122,2.5-2.5V6.737c0-1.378-1.121-2.5-2.5-2.5H14.621z"/>
	</g>
	<g>
		<path d="M33.491,56.383c0,0.826-0.666,1.494-1.491,1.494c-0.821,0-1.493-0.667-1.493-1.494c0-0.821,0.672-1.493,1.493-1.493
			C32.825,54.89,33.491,55.562,33.491,56.383z"/>
	</g>
	<g>
		<path d="M52.071,51.45H11.933c-0.276,0-0.5-0.224-0.5-0.5s0.224-0.5,0.5-0.5h40.139c0.276,0,0.5,0.224,0.5,0.5
			S52.348,51.45,52.071,51.45z"/>
	</g>
</g>
</svg>
