<?xml version="1.0" encoding="utf-8"?>
<!-- Generator: Adobe Illustrator 16.0.0, SVG Export Plug-In . SVG Version: 6.00 Build 0)  -->
<!DOCTYPE svg PUBLIC "-//W3C//DTD SVG 1.1//EN" "http://www.w3.org/Graphics/SVG/1.1/DTD/svg11.dtd">
<svg version="1.1" id="Layer_1" xmlns="http://www.w3.org/2000/svg" xmlns:xlink="http://www.w3.org/1999/xlink" x="0px" y="0px"
	 width="64px" height="64px" viewBox="0 0 64 64" enable-background="new 0 0 64 64" xml:space="preserve">
<g>
	<g>
		<g>
			<path d="M32,32.827c-0.276,0-0.5-0.224-0.5-0.5v-9.487c0-0.276,0.224-0.5,0.5-0.5s0.5,0.224,0.5,0.5v9.487
				C32.5,32.603,32.276,32.827,32,32.827z"/>
		</g>
		<g>
			<path d="M36.74,28.084h-9.486c-0.276,0-0.5-0.224-0.5-0.5s0.224-0.5,0.5-0.5h9.486c0.276,0,0.5,0.224,0.5,0.5
				S37.017,28.084,36.74,28.084z"/>
		</g>
	</g>
	<g>
		<path d="M32,36.432c-4.878,0-8.847-3.969-8.847-8.847c0-4.878,3.969-8.847,8.847-8.847c4.879,0,8.848,3.969,8.848,8.847
			C40.848,32.463,36.879,36.432,32,36.432z M32,19.738c-4.327,0-7.847,3.52-7.847,7.847c0,4.327,3.52,7.847,7.847,7.847
			s7.848-3.52,7.848-7.847C39.848,23.258,36.327,19.738,32,19.738z"/>
	</g>
	<g>
		<path d="M33.708,55.21c0,0.943-0.765,1.708-1.708,1.708c-0.944,0-1.707-0.765-1.707-1.708c0-0.94,0.763-1.706,1.707-1.706
			C32.943,53.505,33.708,54.271,33.708,55.21z"/>
	</g>
	<g>
		<path d="M42.237,60.263H21.763c-1.93,0-3.5-1.57-3.5-3.5V7.832c0-1.93,1.57-3.5,3.5-3.5h20.475c1.93,0,3.5,1.57,3.5,3.5v48.932
			C45.737,58.693,44.167,60.263,42.237,60.263z M21.763,5.332c-1.379,0-2.5,1.122-2.5,2.5v48.932c0,1.378,1.121,2.5,2.5,2.5h20.475
			c1.379,0,2.5-1.122,2.5-2.5V7.832c0-1.378-1.121-2.5-2.5-2.5H21.763z"/>
	</g>
	<g>
		<path d="M44.852,50.225H19.144c-0.276,0-0.5-0.224-0.5-0.5s0.224-0.5,0.5-0.5h25.708c0.276,0,0.5,0.224,0.5,0.5
			S45.128,50.225,44.852,50.225z"/>
	</g>
</g>
</svg>
