<?xml version="1.0" encoding="utf-8"?>
<!-- Generator: Adobe Illustrator 16.0.0, SVG Export Plug-In . SVG Version: 6.00 Build 0)  -->
<!DOCTYPE svg PUBLIC "-//W3C//DTD SVG 1.1//EN" "http://www.w3.org/Graphics/SVG/1.1/DTD/svg11.dtd">
<svg version="1.1" id="Layer_1" xmlns="http://www.w3.org/2000/svg" xmlns:xlink="http://www.w3.org/1999/xlink" x="0px" y="0px"
	 width="64px" height="64px" viewBox="0 0 64 64" enable-background="new 0 0 64 64" xml:space="preserve">
<g>
	<g>
		<g>
			
				<line fill="none" stroke="#000000" stroke-linecap="round" stroke-linejoin="round" stroke-miterlimit="10" x1="30.686" y1="28.539" x2="30.686" y2="36.058"/>
			
				<line fill="none" stroke="#000000" stroke-linecap="round" stroke-linejoin="round" stroke-miterlimit="10" x1="26.924" y1="32.298" x2="34.441" y2="32.298"/>
		</g>
		
			<circle fill="none" stroke="#000000" stroke-linecap="round" stroke-linejoin="round" stroke-miterlimit="10" cx="30.685" cy="32.298" r="6.618"/>
	</g>
	<g>
		<g>
			<path d="M37.564,46.571h-13.76c-3.032,0-5.5-2.467-5.5-5.5V23.525c0-3.033,2.468-5.5,5.5-5.5h13.76c3.032,0,5.5,2.467,5.5,5.5
				v17.546C43.064,44.104,40.597,46.571,37.564,46.571z M23.805,19.025c-2.481,0-4.5,2.019-4.5,4.5v17.546
				c0,2.481,2.019,4.5,4.5,4.5h13.76c2.481,0,4.5-2.019,4.5-4.5V23.525c0-2.481-2.019-4.5-4.5-4.5H23.805z"/>
		</g>
		<g>
			<path d="M45.195,29.587c-0.276,0-0.5-0.224-0.5-0.5v-4.578c0-0.276,0.224-0.5,0.5-0.5s0.5,0.224,0.5,0.5v4.578
				C45.695,29.364,45.472,29.587,45.195,29.587z"/>
		</g>
		<g>
			<path d="M38.172,16.329c-0.276,0-0.5-0.224-0.5-0.5v-4.553c0-0.827-0.673-1.5-1.5-1.5H25.195c-0.827,0-1.5,0.673-1.5,1.5v4.553
				c0,0.276-0.224,0.5-0.5,0.5s-0.5-0.224-0.5-0.5v-4.553c0-1.378,1.121-2.5,2.5-2.5h10.977c1.379,0,2.5,1.122,2.5,2.5v4.553
				C38.672,16.105,38.448,16.329,38.172,16.329z"/>
		</g>
		<g>
			<path d="M36.172,55.82H25.195c-1.379,0-2.5-1.122-2.5-2.5v-4.556c0-0.276,0.224-0.5,0.5-0.5s0.5,0.224,0.5,0.5v4.556
				c0,0.827,0.673,1.5,1.5,1.5h10.977c0.827,0,1.5-0.673,1.5-1.5v-4.556c0-0.276,0.224-0.5,0.5-0.5s0.5,0.224,0.5,0.5v4.556
				C38.672,54.699,37.551,55.82,36.172,55.82z"/>
		</g>
	</g>
</g>
</svg>
