<?xml version="1.0" encoding="utf-8"?>
<!-- Generator: Adobe Illustrator 16.0.0, SVG Export Plug-In . SVG Version: 6.00 Build 0)  -->
<!DOCTYPE svg PUBLIC "-//W3C//DTD SVG 1.1//EN" "http://www.w3.org/Graphics/SVG/1.1/DTD/svg11.dtd">
<svg version="1.1" id="Layer_1" xmlns="http://www.w3.org/2000/svg" xmlns:xlink="http://www.w3.org/1999/xlink" x="0px" y="0px"
	 width="32px" height="32px" viewBox="0 0 32 32" enable-background="new 0 0 32 32" xml:space="preserve">
<g>
	<g>
		<g>
			<g>
				<g>
					<path d="M27.431,22.933H4.952c-0.704,0-1.277-0.574-1.277-1.278V6.489c0-0.705,0.573-1.279,1.277-1.279h22.479
						c0.702,0,1.276,0.574,1.276,1.279v15.165C28.707,22.359,28.133,22.933,27.431,22.933z M4.952,5.576
						c-0.504,0-0.912,0.409-0.912,0.913v15.165c0,0.503,0.408,0.913,0.912,0.913h22.479c0.501,0,0.912-0.41,0.912-0.913V6.489
						c0-0.504-0.411-0.913-0.912-0.913H4.952z"/>
				</g>
			</g>
			<g>
				<g>
					<path d="M28.525,21.009H3.856c-0.101,0-0.182-0.082-0.182-0.183c0-0.101,0.081-0.182,0.182-0.182h24.669
						c0.101,0,0.182,0.082,0.182,0.182C28.707,20.927,28.626,21.009,28.525,21.009z"/>
				</g>
			</g>
			<g>
				<g>
					<g>
						<path d="M11.281,26.169c-0.037,0-0.077-0.012-0.111-0.038c-0.078-0.062-0.095-0.177-0.033-0.256l2.512-3.243
							c0.062-0.08,0.177-0.093,0.257-0.033c0.08,0.062,0.095,0.177,0.031,0.257l-2.51,3.242
							C11.391,26.146,11.337,26.169,11.281,26.169z"/>
					</g>
				</g>
				<g>
					<g>
						<path d="M21.1,26.169c-0.055,0-0.108-0.023-0.145-0.071l-2.511-3.242c-0.062-0.08-0.048-0.194,0.032-0.257
							c0.081-0.061,0.193-0.046,0.257,0.033l2.512,3.243c0.061,0.079,0.046,0.194-0.033,0.256
							C21.177,26.157,21.139,26.169,21.1,26.169z"/>
					</g>
				</g>
			</g>
			<g>
				<g>
					<path d="M23.04,26.397H9.341c-0.101,0-0.181-0.081-0.181-0.182s0.08-0.183,0.181-0.183H23.04c0.102,0,0.183,0.082,0.183,0.183
						S23.142,26.397,23.04,26.397z"/>
				</g>
			</g>
		</g>
		<g>
			<path d="M14.246,17.448c-0.045,0-0.091-0.018-0.128-0.052l0,0l-4.063-3.998c-0.072-0.071-0.072-0.187-0.003-0.259
				c0.073-0.072,0.188-0.072,0.261-0.002l3.933,3.87L22.069,9.1c0.07-0.072,0.185-0.072,0.258-0.001
				c0.071,0.071,0.071,0.187,0.003,0.259l-7.953,8.037c-0.004,0.005-0.01,0.01-0.017,0.015l0,0c-0.002,0-0.002,0-0.002,0
				s0.006-0.001,0,0.001l0,0l0,0l0,0c0,0,0,0,0,0c0,0,0.003,0-0.001,0l0,0v0l0,0c0,0,0,0,0,0.001l0,0l0,0l0,0c0,0,0,0,0,0
				s-0.002,0.001-0.002,0l0,0c0,0.001,0,0.001-0.001,0.001l0,0c0,0.001,0,0.001,0,0.001v0l0,0v0l0,0c0,0,0,0-0.002,0l0,0
				c0,0,0,0,0,0.001c0-0.001-0.002,0-0.002,0l0,0l0,0l0,0l0,0l0,0v0H14.35l0,0l0,0c0,0-0.002,0-0.002,0.001l0,0l0,0l0,0v0l0,0l0,0
				l0,0l0,0c0,0.001,0,0.001,0,0.001l0,0c0,0-0.001,0-0.001,0l0,0l0,0l0,0l0,0l0,0c0,0.001,0,0.001,0,0.001l0,0
				c-0.002,0-0.002,0-0.002,0l0,0c0,0,0,0-0.001,0l0,0c0,0,0.004,0.001,0,0l0,0l0,0c0,0,0,0,0,0.001h-0.002l0,0h-0.001l0,0
				c0,0,0,0,0,0l0,0l0,0v0.001l0,0c-0.002,0-0.002,0-0.002,0l0,0l-0.002,0.001l0,0l0,0l0,0v0l0,0l0,0l0,0l0,0v0.001l0,0
				c-0.002,0-0.002,0-0.002,0l0,0l0,0l0,0c0,0,0,0,0,0l0,0l0,0h-0.001v0c-0.002,0-0.002,0-0.002,0s0.005,0,0,0
				c0,0.001,0,0.001,0,0.001l0,0l0,0l0,0l0,0c0,0,0,0-0.002,0l0,0l0,0h-0.001c0,0,0,0.001,0,0c0,0.001,0,0.001,0,0.001l0,0l0,0l0,0
				c0,0,0,0-0.001,0c0,0-0.001,0,0,0h-0.001l0,0l0,0v0l0,0l0,0l0,0l0,0c0,0,0,0-0.001,0h-0.002c0,0,0,0.001,0,0l0,0v0l0,0l0,0l0,0
				c0,0,0,0-0.001,0v0.001l0,0h-0.001l0,0l0,0l0,0c0,0,0,0,0,0l0,0l0,0l0,0l0,0c-0.001,0-0.001,0-0.001,0c-0.002,0-0.002,0-0.002,0
				c0,0.001,0,0.001,0,0.001l0,0l0,0l0,0l0,0l0,0v0h-0.002l0,0l0,0l0,0c0,0,0,0,0,0l0,0l0,0l0,0l0,0l0,0l0,0l-0.002,0.001l0,0
				c-0.001,0-0.001,0-0.001,0l0,0l0,0l0,0v0l0,0l0,0l0,0C14.293,17.444,14.271,17.448,14.246,17.448z"/>
		</g>
	</g>
</g>
</svg>
