<?xml version="1.0" encoding="utf-8"?>
<!-- Generator: Adobe Illustrator 16.0.0, SVG Export Plug-In . SVG Version: 6.00 Build 0)  -->
<!DOCTYPE svg PUBLIC "-//W3C//DTD SVG 1.1//EN" "http://www.w3.org/Graphics/SVG/1.1/DTD/svg11.dtd">
<svg version="1.1" id="Layer_1" xmlns="http://www.w3.org/2000/svg" xmlns:xlink="http://www.w3.org/1999/xlink" x="0px" y="0px"
	 width="32px" height="32px" viewBox="0 0 32 32" enable-background="new 0 0 32 32" xml:space="preserve">
<g>
	<g>
		<g>
			<g>
				<path d="M21.635,29.706H10.603c-0.704,0-1.279-0.574-1.279-1.278V3.181c0-0.705,0.575-1.278,1.279-1.278h11.032
					c0.705,0,1.278,0.574,1.278,1.278v25.247C22.913,29.132,22.34,29.706,21.635,29.706z M10.603,2.268
					c-0.504,0-0.914,0.41-0.914,0.913v25.247c0,0.503,0.41,0.913,0.914,0.913h11.032c0.503,0,0.913-0.41,0.913-0.913V3.181
					c0-0.503-0.41-0.913-0.913-0.913H10.603z"/>
			</g>
		</g>
		<g>
			<g>
				<path d="M22.54,24.693H9.697c-0.102,0-0.182-0.082-0.182-0.183c0-0.101,0.08-0.182,0.182-0.182H22.54
					c0.101,0,0.182,0.082,0.182,0.182C22.722,24.611,22.641,24.693,22.54,24.693z"/>
			</g>
		</g>
		<g>
			<g>
				<circle cx="16.118" cy="27.104" r="0.746"/>
			</g>
		</g>
		<g>
			<g>
				<path d="M14.847,16.788c-0.04,0-0.08-0.013-0.113-0.041l0,0l0,0l0,0c0,0,0,0,0,0l0,0h-0.001l0,0v0h-0.001l0,0l0,0
					c0,0,0,0-0.001,0l0,0l0,0c-0.004-0.004-0.007-0.007-0.011-0.011l-2.658-2.614c-0.073-0.071-0.073-0.187-0.002-0.259
					c0.07-0.072,0.186-0.072,0.258-0.002l2.529,2.487l5.07-5.126c0.071-0.072,0.187-0.072,0.259-0.001
					c0.071,0.071,0.072,0.187,0.001,0.258l-5.199,5.255l0,0c-0.02,0.02-0.043,0.035-0.069,0.043l0,0l0,0l0,0v0.001h-0.001l0,0l0,0
					l0,0l0,0c0,0,0,0-0.001,0l0,0v0.001h-0.001l0,0l0,0h-0.001l0,0c0,0,0,0-0.001,0l0,0c0,0,0,0,0,0l0,0l0,0l0,0
					c-0.001,0-0.001,0-0.001,0h-0.001l0,0c0,0.001,0,0.001,0,0.001c-0.001,0-0.001,0-0.001,0l0,0l0,0c-0.001,0-0.001,0-0.001,0l0,0
					l0,0l0,0c0,0,0,0-0.001,0l0,0l0,0l0,0c-0.001,0-0.001,0-0.001,0l0,0C14.881,16.786,14.865,16.788,14.847,16.788z"/>
			</g>
		</g>
	</g>
</g>
</svg>
