<?xml version="1.0" encoding="utf-8"?>
<!-- Generator: Adobe Illustrator 16.0.0, SVG Export Plug-In . SVG Version: 6.00 Build 0)  -->
<!DOCTYPE svg PUBLIC "-//W3C//DTD SVG 1.1//EN" "http://www.w3.org/Graphics/SVG/1.1/DTD/svg11.dtd">
<svg version="1.1" id="Layer_1" xmlns="http://www.w3.org/2000/svg" xmlns:xlink="http://www.w3.org/1999/xlink" x="0px" y="0px"
	 width="32px" height="32px" viewBox="0 0 32 32" enable-background="new 0 0 32 32" xml:space="preserve">
<g>
	<g>
		<g>
			<g>
				<g>
					<path d="M27.391,22.705H4.914c-0.705,0-1.278-0.574-1.278-1.279V6.261c0-0.705,0.573-1.279,1.278-1.279h22.477
						c0.703,0,1.278,0.574,1.278,1.279v15.165C28.669,22.131,28.094,22.705,27.391,22.705z M4.914,5.348
						c-0.504,0-0.913,0.409-0.913,0.913v15.165c0,0.504,0.409,0.913,0.913,0.913h22.477c0.503,0,0.913-0.409,0.913-0.913V6.261
						c0-0.504-0.41-0.913-0.913-0.913H4.914z"/>
				</g>
			</g>
			<g>
				<g>
					<path d="M30.705,26.626c-0.002,0-0.004,0-0.007,0H1.606c-0.07,0-0.136-0.042-0.166-0.106s-0.02-0.14,0.026-0.195l2.16-2.557
						c0.032-0.041,0.084-0.064,0.138-0.064h24.774c0.054,0,0.104,0.024,0.14,0.064l2.132,2.526c0.047,0.034,0.076,0.087,0.076,0.149
						C30.887,26.544,30.807,26.626,30.705,26.626z M1.999,26.26h28.305l-1.849-2.191H3.851L1.999,26.26z"/>
				</g>
			</g>
			<g>
				<g>
					<path d="M28.485,20.781H3.817c-0.101,0-0.182-0.082-0.182-0.183c0-0.101,0.081-0.183,0.182-0.183h24.668
						c0.102,0,0.184,0.082,0.184,0.183C28.669,20.7,28.587,20.781,28.485,20.781z"/>
				</g>
			</g>
		</g>
		<g>
			<path d="M14.318,17.223c-0.023,0-0.046-0.004-0.067-0.013l0,0c-0.001,0-0.001,0-0.001,0l0,0l0,0v0l0,0l0,0l0,0h-0.001
				c0,0,0,0,0,0c-0.001,0-0.001-0.001-0.001-0.001h-0.001l0,0l0,0v-0.001l0,0c-0.001,0-0.001,0-0.001,0l0,0l0,0
				c-0.001,0-0.001,0-0.001,0l0,0c0,0,0,0-0.001,0c0.001,0,0,0,0,0s0,0-0.001,0l0,0l0,0v-0.001l0,0c0,0,0,0-0.001,0l0,0
				c-0.019-0.009-0.036-0.02-0.053-0.037l0,0l-3.837-3.773c-0.072-0.07-0.073-0.187-0.002-0.258c0.07-0.073,0.187-0.074,0.258-0.002
				l3.708,3.646l7.378-7.458c0.07-0.072,0.187-0.072,0.258-0.001c0.071,0.07,0.072,0.186,0.001,0.257l-7.505,7.586l0,0
				C14.412,17.205,14.364,17.223,14.318,17.223z"/>
		</g>
	</g>
</g>
</svg>
