<?xml version="1.0" encoding="utf-8"?>
<!-- Generator: Adobe Illustrator 16.0.0, SVG Export Plug-In . SVG Version: 6.00 Build 0)  -->
<!DOCTYPE svg PUBLIC "-//W3C//DTD SVG 1.1//EN" "http://www.w3.org/Graphics/SVG/1.1/DTD/svg11.dtd">
<svg version="1.1" id="Layer_1" xmlns="http://www.w3.org/2000/svg" xmlns:xlink="http://www.w3.org/1999/xlink" x="0px" y="0px"
	 width="32px" height="32px" viewBox="0 0 32 32" enable-background="new 0 0 32 32" xml:space="preserve">
<g>
	<g>
		<g>
			<g>
				<g>
					<path d="M19.677,22.866h-8.214c-1.108,0-2.009-0.901-2.009-2.01V10.751c0-1.108,0.9-2.009,2.009-2.009h8.214
						c1.108,0,2.01,0.901,2.01,2.009v10.105C21.687,21.965,20.785,22.866,19.677,22.866z M11.463,9.107
						c-0.906,0-1.644,0.737-1.644,1.644v10.105c0,0.907,0.737,1.644,1.644,1.644h8.214c0.906,0,1.645-0.737,1.645-1.644V10.751
						c0-0.907-0.738-1.644-1.645-1.644H11.463z"/>
				</g>
			</g>
			<g>
				<g>
					<path d="M22.818,14.383c-0.102,0-0.184-0.081-0.184-0.182v-2.286c0-0.101,0.082-0.183,0.184-0.183S23,11.814,23,11.915v2.286
						C23,14.302,22.92,14.383,22.818,14.383z"/>
				</g>
			</g>
			<g>
				<g>
					<path d="M19.311,7.761c-0.102,0-0.183-0.082-0.183-0.183V5.035c0-0.302-0.246-0.548-0.55-0.548h-6.017
						c-0.301,0-0.548,0.246-0.548,0.548v2.543c0,0.101-0.084,0.183-0.185,0.183s-0.182-0.082-0.182-0.183V5.035
						c0-0.504,0.409-0.914,0.914-0.914h6.017c0.506,0,0.914,0.409,0.914,0.914v2.543C19.492,7.679,19.411,7.761,19.311,7.761z"/>
				</g>
			</g>
			<g>
				<g>
					<path d="M18.578,27.487h-6.017c-0.505,0-0.914-0.41-0.914-0.914V24.03c0-0.101,0.081-0.183,0.182-0.183
						s0.185,0.082,0.185,0.183v2.542c0,0.303,0.247,0.549,0.548,0.549h6.017c0.304,0,0.55-0.246,0.55-0.549V24.03
						c0-0.101,0.081-0.183,0.183-0.183c0.101,0,0.182,0.082,0.182,0.183v2.542C19.492,27.077,19.084,27.487,18.578,27.487z"/>
				</g>
			</g>
		</g>
		<g>
			<path d="M14.614,17.966c-0.003,0-0.006,0-0.009,0l0,0c0,0,0,0-0.001,0l0,0l0,0h-0.001l0,0c-0.021-0.001-0.043-0.006-0.062-0.015
				l0,0h-0.002l0,0v0l0,0l0,0l0,0l0,0l0,0c0,0,0,0,0,0c-0.002,0-0.002,0-0.002,0s0.002,0,0,0c-0.001,0-0.001,0-0.001-0.001l0,0l0,0
				l0,0l0,0l0,0c0,0,0,0,0-0.001l0,0h-0.001l0,0c-0.019-0.008-0.036-0.02-0.05-0.036c-0.002,0-0.002,0-0.002,0l-2-1.968
				c-0.073-0.071-0.074-0.187-0.003-0.259c0.069-0.072,0.186-0.073,0.258-0.002l1.873,1.842l3.787-3.83
				c0.073-0.072,0.188-0.072,0.26-0.001s0.072,0.186,0,0.258l-3.915,3.958C14.706,17.948,14.66,17.966,14.614,17.966z"/>
		</g>
	</g>
</g>
</svg>
