<?xml version="1.0" encoding="utf-8"?>
<!-- Generator: Adobe Illustrator 16.0.0, SVG Export Plug-In . SVG Version: 6.00 Build 0)  -->
<!DOCTYPE svg PUBLIC "-//W3C//DTD SVG 1.1//EN" "http://www.w3.org/Graphics/SVG/1.1/DTD/svg11.dtd">
<svg version="1.1" id="Layer_1" xmlns="http://www.w3.org/2000/svg" xmlns:xlink="http://www.w3.org/1999/xlink" x="0px" y="0px"
	 width="64px" height="64px" viewBox="0 0 64 64" enable-background="new 0 0 64 64" xml:space="preserve">
<g>
	<g>
		<path d="M46.647,57.493H17.353c-1.93,0-3.5-1.57-3.5-3.5V10.526c0-1.93,1.57-3.5,3.5-3.5h29.295c1.93,0,3.5,1.57,3.5,3.5v43.467
			C50.147,55.923,48.577,57.493,46.647,57.493z M17.353,8.026c-1.379,0-2.5,1.121-2.5,2.5v43.467c0,1.379,1.121,2.5,2.5,2.5h29.295
			c1.379,0,2.5-1.121,2.5-2.5V10.526c0-1.379-1.121-2.5-2.5-2.5H17.353z"/>
	</g>
	<g>
		<path d="M33.293,53.116c0,0.713-0.579,1.293-1.295,1.293c-0.711,0-1.291-0.58-1.291-1.293c0-0.714,0.58-1.293,1.291-1.293
			C32.714,51.823,33.293,52.402,33.293,53.116z"/>
	</g>
	<g>
		<path d="M49.38,48.909H14.621c-0.276,0-0.5-0.224-0.5-0.5s0.224-0.5,0.5-0.5H49.38c0.276,0,0.5,0.224,0.5,0.5
			S49.656,48.909,49.38,48.909z"/>
	</g>
	<g>
		<path d="M27.191,38.497c-0.08,0-0.159-0.019-0.232-0.058c-0.165-0.086-0.268-0.257-0.268-0.442V19.53
			c0-0.186,0.103-0.356,0.268-0.442c0.165-0.088,0.362-0.075,0.516,0.03l13.418,9.233c0.136,0.094,0.217,0.247,0.217,0.412
			s-0.081,0.318-0.217,0.412l-13.418,9.233C27.39,38.468,27.291,38.497,27.191,38.497z M27.691,20.481v16.564l12.036-8.282
			L27.691,20.481z"/>
	</g>
</g>
</svg>
