<?xml version="1.0" encoding="utf-8"?>
<!-- Generator: Adobe Illustrator 16.0.0, SVG Export Plug-In . SVG Version: 6.00 Build 0)  -->
<!DOCTYPE svg PUBLIC "-//W3C//DTD SVG 1.1//EN" "http://www.w3.org/Graphics/SVG/1.1/DTD/svg11.dtd">
<svg version="1.1" id="Layer_1" xmlns="http://www.w3.org/2000/svg" xmlns:xlink="http://www.w3.org/1999/xlink" x="0px" y="0px"
	 width="64px" height="64px" viewBox="0 0 64 64" enable-background="new 0 0 64 64" xml:space="preserve">
<g>
	<g>
		<g>
			<path d="M50.383,44.801H13.617c-1.93,0-3.5-1.57-3.5-3.5V17.21c0-1.93,1.57-3.5,3.5-3.5h36.766c1.93,0,3.5,1.57,3.5,3.5v24.091
				C53.883,43.23,52.312,44.801,50.383,44.801z M13.617,14.71c-1.379,0-2.5,1.121-2.5,2.5v24.091c0,1.379,1.121,2.5,2.5,2.5h36.766
				c1.379,0,2.5-1.121,2.5-2.5V17.21c0-1.379-1.121-2.5-2.5-2.5H13.617z"/>
		</g>
		<g>
			<path d="M53.383,41.466H10.617c-0.276,0-0.5-0.224-0.5-0.5s0.224-0.5,0.5-0.5h42.766c0.276,0,0.5,0.224,0.5,0.5
				S53.659,41.466,53.383,41.466z"/>
		</g>
		<g>
			<g>
				<path d="M23.489,50.41c-0.107,0-0.215-0.034-0.307-0.104c-0.218-0.169-0.258-0.483-0.089-0.702l4.354-5.619
					c0.17-0.218,0.483-0.256,0.702-0.089c0.218,0.169,0.258,0.483,0.089,0.702l-4.354,5.619
					C23.786,50.344,23.639,50.41,23.489,50.41z"/>
			</g>
			<g>
				<path d="M40.509,50.41c-0.149,0-0.297-0.066-0.396-0.193l-4.354-5.619c-0.169-0.219-0.129-0.533,0.089-0.702
					c0.219-0.168,0.532-0.13,0.702,0.089l4.354,5.619c0.169,0.219,0.129,0.533-0.089,0.702C40.724,50.376,40.616,50.41,40.509,50.41
					z"/>
			</g>
		</g>
		<g>
			<path d="M43.873,50.808H20.125c-0.276,0-0.5-0.224-0.5-0.5s0.224-0.5,0.5-0.5h23.748c0.276,0,0.5,0.224,0.5,0.5
				S44.149,50.808,43.873,50.808z"/>
		</g>
	</g>
	<polygon fill="none" stroke="#000000" stroke-linecap="round" stroke-linejoin="round" stroke-miterlimit="10" points="
		29.645,21.341 39.509,28.131 29.645,34.919 	"/>
</g>
</svg>
