<?xml version="1.0" encoding="utf-8"?>
<!-- Generator: Adobe Illustrator 16.0.0, SVG Export Plug-In . SVG Version: 6.00 Build 0)  -->
<!DOCTYPE svg PUBLIC "-//W3C//DTD SVG 1.1//EN" "http://www.w3.org/Graphics/SVG/1.1/DTD/svg11.dtd">
<svg version="1.1" id="Layer_1" xmlns="http://www.w3.org/2000/svg" xmlns:xlink="http://www.w3.org/1999/xlink" x="0px" y="0px"
	 width="64px" height="64px" viewBox="0 0 64 64" enable-background="new 0 0 64 64" xml:space="preserve">
<g>
	<g>
		<path d="M40.461,56.544H23.539c-1.93,0-3.5-1.57-3.5-3.5v-41.57c0-1.93,1.57-3.5,3.5-3.5h16.922c1.93,0,3.5,1.57,3.5,3.5v41.57
			C43.961,54.974,42.391,56.544,40.461,56.544z M23.539,8.974c-1.379,0-2.5,1.121-2.5,2.5v41.57c0,1.379,1.121,2.5,2.5,2.5h16.922
			c1.379,0,2.5-1.121,2.5-2.5v-41.57c0-1.379-1.121-2.5-2.5-2.5H23.539z"/>
	</g>
	<g>
		<path d="M43.133,47.853H20.867c-0.276,0-0.5-0.224-0.5-0.5s0.224-0.5,0.5-0.5h22.266c0.276,0,0.5,0.224,0.5,0.5
			S43.409,47.853,43.133,47.853z"/>
	</g>
	<g>
		<circle cx="32.001" cy="51.851" r="1.292"/>
	</g>
	<g>
		<path d="M28.689,35.564c-0.08,0-0.159-0.019-0.232-0.058c-0.165-0.086-0.268-0.257-0.268-0.442V22.463
			c0-0.186,0.103-0.356,0.268-0.442c0.164-0.087,0.362-0.076,0.516,0.03l9.156,6.301c0.136,0.094,0.217,0.247,0.217,0.412
			s-0.081,0.318-0.217,0.412l-9.156,6.301C28.888,35.535,28.789,35.564,28.689,35.564z M29.189,23.414v10.699l7.774-5.35
			L29.189,23.414z"/>
	</g>
</g>
</svg>
