<?xml version="1.0" encoding="utf-8"?>
<!-- Generator: Adobe Illustrator 16.0.0, SVG Export Plug-In . SVG Version: 6.00 Build 0)  -->
<!DOCTYPE svg PUBLIC "-//W3C//DTD SVG 1.1//EN" "http://www.w3.org/Graphics/SVG/1.1/DTD/svg11.dtd">
<svg version="1.1" id="Layer_1" xmlns="http://www.w3.org/2000/svg" xmlns:xlink="http://www.w3.org/1999/xlink" x="0px" y="0px"
	 width="48px" height="48px" viewBox="0 0 48 48" enable-background="new 0 0 48 48" xml:space="preserve">
<g>
	<circle cx="24" cy="35.926" r="1.06"/>
</g>
<g>
	<path d="M31.978,32.727H16.023c-0.113,0-0.203-0.091-0.203-0.204s0.09-0.204,0.203-0.204h15.955c0.113,0,0.203,0.091,0.203,0.204
		S32.091,32.727,31.978,32.727z"/>
</g>
<g>
	<g>
		<path d="M30.99,41.246H17.01c-0.787,0-1.427-0.641-1.427-1.428V8.181c0-0.787,0.641-1.428,1.427-1.428H30.99
			c0.787,0,1.427,0.641,1.427,1.428v31.638C32.417,40.605,31.776,41.246,30.99,41.246z M17.01,7.161c-0.562,0-1.02,0.458-1.02,1.02
			v31.638c0,0.562,0.458,1.02,1.02,1.02H30.99c0.562,0,1.02-0.457,1.02-1.02V8.181c0-0.562-0.458-1.02-1.02-1.02H17.01z"/>
	</g>
	<g>
		<path d="M24,24.041c-1.365,0-2.475-1.111-2.475-2.477s1.11-2.477,2.475-2.477c1.365,0,2.476,1.111,2.476,2.477
			S25.366,24.041,24,24.041z M24,19.496c-1.14,0-2.067,0.928-2.067,2.068S22.86,23.633,24,23.633c1.14,0,2.068-0.928,2.068-2.068
			S25.14,19.496,24,19.496z"/>
	</g>
	<g>
		<path d="M24.811,27.428h-1.623c-0.087,0-0.165-0.055-0.192-0.137l-0.268-0.774c-0.464-0.118-0.91-0.303-1.328-0.551l-0.739,0.358
			c-0.078,0.038-0.171,0.022-0.233-0.039l-1.148-1.148c-0.062-0.062-0.078-0.155-0.04-0.233l0.357-0.737
			c-0.246-0.416-0.431-0.862-0.55-1.329l-0.773-0.268c-0.082-0.028-0.138-0.105-0.138-0.192v-1.624c0-0.087,0.056-0.164,0.138-0.193
			l0.773-0.269c0.12-0.466,0.304-0.912,0.55-1.328l-0.357-0.738c-0.038-0.078-0.022-0.172,0.04-0.233l1.148-1.146
			c0.062-0.062,0.154-0.078,0.233-0.04l0.739,0.357c0.418-0.248,0.863-0.434,1.328-0.551l0.268-0.772
			c0.029-0.082,0.105-0.137,0.192-0.137h1.623c0.087,0,0.164,0.055,0.192,0.137l0.27,0.772c0.465,0.117,0.912,0.303,1.329,0.55
			l0.738-0.356c0.079-0.037,0.172-0.021,0.233,0.04l1.147,1.147c0.062,0.062,0.078,0.155,0.04,0.233l-0.356,0.737
			c0.248,0.42,0.433,0.866,0.55,1.329l0.773,0.268c0.081,0.029,0.137,0.106,0.137,0.193v1.624c0,0.087-0.056,0.164-0.137,0.192
			l-0.773,0.269c-0.12,0.467-0.305,0.912-0.551,1.328l0.357,0.737c0.038,0.078,0.022,0.172-0.04,0.233l-1.147,1.148
			c-0.061,0.062-0.154,0.077-0.233,0.039l-0.74-0.358c-0.416,0.247-0.861,0.433-1.327,0.551l-0.27,0.774
			C24.976,27.373,24.898,27.428,24.811,27.428z M23.333,27.02h1.333l0.259-0.742c0.023-0.066,0.079-0.116,0.147-0.132
			c0.499-0.114,0.972-0.312,1.409-0.585c0.059-0.037,0.134-0.041,0.197-0.01l0.709,0.343l0.942-0.942l-0.342-0.708
			c-0.03-0.062-0.026-0.137,0.011-0.196c0.272-0.437,0.469-0.912,0.585-1.411c0.016-0.068,0.066-0.123,0.131-0.146l0.742-0.259
			v-1.334l-0.742-0.257c-0.065-0.023-0.115-0.079-0.131-0.146c-0.113-0.495-0.311-0.97-0.584-1.412
			c-0.037-0.06-0.041-0.134-0.01-0.196l0.341-0.707l-0.943-0.943l-0.707,0.342c-0.063,0.03-0.137,0.027-0.197-0.011
			c-0.439-0.273-0.914-0.47-1.411-0.585c-0.068-0.016-0.124-0.065-0.147-0.131l-0.259-0.741h-1.333l-0.257,0.74
			c-0.023,0.066-0.079,0.116-0.147,0.132c-0.496,0.114-0.97,0.312-1.411,0.585c-0.059,0.038-0.133,0.041-0.196,0.011l-0.708-0.342
			l-0.943,0.942l0.342,0.708c0.03,0.062,0.026,0.137-0.01,0.196c-0.272,0.438-0.47,0.912-0.586,1.412
			c-0.016,0.068-0.066,0.123-0.131,0.146l-0.741,0.257v1.334l0.741,0.257c0.065,0.022,0.115,0.078,0.131,0.146
			c0.116,0.5,0.313,0.975,0.586,1.412c0.036,0.06,0.041,0.134,0.01,0.196l-0.342,0.708l0.943,0.942l0.707-0.343
			c0.064-0.031,0.137-0.027,0.197,0.01c0.441,0.274,0.916,0.471,1.411,0.585c0.068,0.016,0.124,0.065,0.147,0.133L23.333,27.02z"/>
	</g>
</g>
</svg>
