<?xml version="1.0" encoding="utf-8"?>
<!-- Generator: Adobe Illustrator 16.0.0, SVG Export Plug-In . SVG Version: 6.00 Build 0)  -->
<!DOCTYPE svg PUBLIC "-//W3C//DTD SVG 1.1//EN" "http://www.w3.org/Graphics/SVG/1.1/DTD/svg11.dtd">
<svg version="1.1" id="Layer_1" xmlns="http://www.w3.org/2000/svg" xmlns:xlink="http://www.w3.org/1999/xlink" x="0px" y="0px"
	 width="48px" height="48px" viewBox="0 0 48 48" enable-background="new 0 0 48 48" xml:space="preserve">
<g>
	<g>
		<g>
			<path d="M38.099,32.832H9.902c-0.788,0-1.428-0.641-1.428-1.429V12.29c0-0.787,0.641-1.428,1.428-1.428h28.196
				c0.787,0,1.427,0.641,1.427,1.428v19.113C39.526,32.191,38.885,32.832,38.099,32.832z M9.902,11.271
				c-0.562,0-1.02,0.457-1.02,1.02v19.113c0,0.562,0.458,1.021,1.02,1.021h28.196c0.562,0,1.02-0.458,1.02-1.021V12.29
				c0-0.562-0.458-1.02-1.02-1.02H9.902z"/>
		</g>
		<g>
			<path d="M39.323,30.443H8.678c-0.113,0-0.204-0.091-0.204-0.204c0-0.112,0.091-0.204,0.204-0.204h30.645
				c0.113,0,0.203,0.092,0.203,0.204C39.526,30.353,39.436,30.443,39.323,30.443z"/>
		</g>
		<g>
			<g>
				<path d="M17.902,36.853c-0.044,0-0.088-0.014-0.126-0.042c-0.089-0.069-0.104-0.197-0.035-0.286l3.12-4.028
					c0.069-0.089,0.197-0.105,0.286-0.035c0.09,0.068,0.105,0.196,0.036,0.285l-3.12,4.027
					C18.023,36.826,17.962,36.853,17.902,36.853z"/>
			</g>
			<g>
				<path d="M30.099,36.853c-0.062,0-0.122-0.026-0.162-0.079l-3.121-4.027c-0.069-0.089-0.052-0.217,0.036-0.285
					c0.089-0.07,0.217-0.054,0.287,0.035l3.121,4.028c0.069,0.089,0.053,0.217-0.037,0.286
					C30.187,36.839,30.143,36.853,30.099,36.853z"/>
			</g>
		</g>
		<g>
			<path d="M32.509,37.136H15.493c-0.113,0-0.204-0.092-0.204-0.204c0-0.113,0.091-0.204,0.204-0.204h17.017
				c0.113,0,0.203,0.091,0.203,0.204C32.712,37.044,32.622,37.136,32.509,37.136z"/>
		</g>
	</g>
	<g>
		<g>
			<path d="M23.999,23.752c-1.455,0-2.64-1.185-2.64-2.641c0-1.457,1.185-2.643,2.64-2.643c1.458,0,2.644,1.186,2.644,2.643
				C26.643,22.567,25.457,23.752,23.999,23.752z M23.999,18.877c-1.23,0-2.232,1.003-2.232,2.234s1.002,2.232,2.232,2.232
				c1.233,0,2.236-1.001,2.236-2.232S25.232,18.877,23.999,18.877z"/>
		</g>
		<g>
			<path d="M24.872,27.388h-1.743c-0.087,0-0.165-0.055-0.192-0.138l-0.292-0.837c-0.506-0.129-0.988-0.329-1.435-0.596l-0.8,0.388
				c-0.078,0.037-0.172,0.022-0.233-0.04l-1.232-1.23c-0.061-0.062-0.077-0.155-0.039-0.233l0.387-0.8
				c-0.268-0.449-0.468-0.932-0.596-1.436l-0.838-0.29c-0.082-0.029-0.138-0.106-0.138-0.193v-1.743
				c0-0.087,0.056-0.165,0.138-0.193l0.838-0.29c0.129-0.507,0.329-0.988,0.596-1.436l-0.387-0.8
				c-0.038-0.078-0.022-0.172,0.039-0.233l1.232-1.231c0.061-0.062,0.155-0.078,0.233-0.04l0.799,0.387
				c0.45-0.268,0.933-0.467,1.438-0.596l0.29-0.837c0.029-0.083,0.105-0.138,0.193-0.138h1.743c0.087,0,0.164,0.055,0.192,0.138
				l0.291,0.837c0.503,0.129,0.985,0.328,1.437,0.596l0.798-0.387c0.079-0.037,0.172-0.021,0.234,0.04l1.232,1.231
				c0.061,0.062,0.078,0.155,0.04,0.233l-0.387,0.8c0.268,0.451,0.469,0.934,0.595,1.436l0.837,0.29
				c0.082,0.029,0.137,0.106,0.137,0.193l-0.001,1.743c0,0.087-0.054,0.164-0.137,0.192l-0.836,0.291
				c-0.129,0.504-0.329,0.986-0.596,1.436l0.388,0.799c0.038,0.078,0.022,0.172-0.04,0.232l-1.232,1.232
				c-0.062,0.062-0.155,0.077-0.234,0.04l-0.8-0.388c-0.445,0.266-0.926,0.466-1.434,0.596l-0.291,0.837
				C25.036,27.333,24.959,27.388,24.872,27.388z M23.274,26.979h1.452l0.279-0.805c0.023-0.065,0.078-0.115,0.146-0.132
				c0.543-0.127,1.053-0.339,1.518-0.631c0.059-0.037,0.134-0.041,0.197-0.011l0.77,0.373l1.028-1.027l-0.374-0.769
				c-0.03-0.062-0.027-0.137,0.01-0.196c0.294-0.471,0.506-0.982,0.631-1.52c0.016-0.067,0.065-0.123,0.131-0.146l0.804-0.28
				l0.001-1.453l-0.804-0.278c-0.066-0.023-0.117-0.079-0.132-0.147c-0.124-0.534-0.335-1.046-0.629-1.519
				c-0.037-0.06-0.041-0.134-0.01-0.197l0.372-0.769l-1.028-1.027l-0.768,0.372c-0.062,0.03-0.138,0.026-0.197-0.011
				c-0.473-0.294-0.984-0.506-1.52-0.63c-0.068-0.017-0.124-0.065-0.147-0.132l-0.279-0.806h-1.452l-0.278,0.806
				c-0.023,0.066-0.079,0.115-0.147,0.132c-0.537,0.124-1.049,0.336-1.521,0.63c-0.059,0.038-0.133,0.041-0.196,0.011l-0.769-0.372
				l-1.026,1.027l0.373,0.769c0.031,0.063,0.027,0.139-0.01,0.198c-0.293,0.468-0.504,0.979-0.63,1.518
				c-0.016,0.069-0.065,0.124-0.132,0.147l-0.805,0.278v1.453l0.805,0.279c0.067,0.023,0.117,0.079,0.132,0.146
				c0.125,0.537,0.336,1.049,0.63,1.52c0.037,0.06,0.041,0.133,0.01,0.196l-0.373,0.77l1.026,1.026l0.77-0.373
				c0.063-0.03,0.137-0.026,0.197,0.011c0.468,0.293,0.979,0.505,1.519,0.631c0.067,0.017,0.123,0.065,0.146,0.132L23.274,26.979z"
				/>
		</g>
	</g>
</g>
</svg>
