<?xml version="1.0" encoding="utf-8"?>
<!-- Generator: Adobe Illustrator 16.0.0, SVG Export Plug-In . SVG Version: 6.00 Build 0)  -->
<!DOCTYPE svg PUBLIC "-//W3C//DTD SVG 1.1//EN" "http://www.w3.org/Graphics/SVG/1.1/DTD/svg11.dtd">
<svg version="1.1" id="Layer_1" xmlns="http://www.w3.org/2000/svg" xmlns:xlink="http://www.w3.org/1999/xlink" x="0px" y="0px"
	 width="48px" height="48px" viewBox="0 0 48 48" enable-background="new 0 0 48 48" xml:space="preserve">
<g>
	<circle cx="24" cy="36.654" r="0.925"/>
</g>
<g>
	<path d="M36.453,33.485H11.546c-0.113,0-0.204-0.091-0.204-0.204s0.091-0.204,0.204-0.204h24.907c0.113,0,0.203,0.091,0.203,0.204
		S36.566,33.485,36.453,33.485z"/>
</g>
<g>
	<g>
		<path d="M35.421,41.927H12.578c-0.787,0-1.428-0.641-1.428-1.429V7.501c0-0.787,0.641-1.428,1.428-1.428h22.843
			c0.788,0,1.428,0.641,1.428,1.428v32.997C36.85,41.286,36.209,41.927,35.421,41.927z M12.578,6.481c-0.562,0-1.02,0.457-1.02,1.02
			v32.997c0,0.562,0.458,1.021,1.02,1.021h22.843c0.562,0,1.02-0.458,1.02-1.021V7.501c0-0.562-0.458-1.02-1.02-1.02H12.578z"/>
	</g>
	<g>
		<g>
			<path d="M24,24.495c-1.617,0-2.932-1.314-2.932-2.931s1.315-2.933,2.932-2.933s2.932,1.316,2.932,2.933S25.617,24.495,24,24.495z
				 M24,19.04c-1.392,0-2.523,1.133-2.523,2.524s1.132,2.522,2.523,2.522c1.391,0,2.524-1.131,2.524-2.522S25.391,19.04,24,19.04z"
				/>
		</g>
		<g>
			<path d="M24.975,28.563h-1.95c-0.087,0-0.164-0.056-0.192-0.138l-0.329-0.95c-0.573-0.145-1.118-0.37-1.623-0.673l-0.907,0.438
				c-0.077,0.038-0.172,0.022-0.233-0.039l-1.376-1.378c-0.062-0.062-0.078-0.155-0.04-0.233l0.438-0.905
				c-0.302-0.505-0.528-1.05-0.674-1.624l-0.949-0.33c-0.082-0.028-0.137-0.105-0.137-0.192v-1.948c0-0.087,0.055-0.164,0.137-0.193
				l0.948-0.33c0.144-0.572,0.37-1.117,0.674-1.624l-0.438-0.905c-0.038-0.078-0.022-0.172,0.04-0.233l1.376-1.377
				c0.062-0.062,0.155-0.077,0.233-0.039l0.905,0.438c0.508-0.305,1.054-0.531,1.625-0.675l0.33-0.948
				c0.028-0.082,0.105-0.138,0.192-0.138h1.95c0.087,0,0.165,0.056,0.193,0.138l0.329,0.948c0.569,0.144,1.115,0.37,1.625,0.675
				l0.905-0.438c0.078-0.038,0.172-0.022,0.233,0.039l1.379,1.377c0.061,0.062,0.077,0.155,0.039,0.233l-0.438,0.905
				c0.301,0.504,0.528,1.05,0.674,1.624l0.948,0.33c0.081,0.029,0.137,0.106,0.137,0.193v1.948c0,0.087-0.056,0.164-0.137,0.192
				l-0.95,0.33c-0.142,0.567-0.369,1.112-0.673,1.623l0.439,0.906c0.038,0.078,0.022,0.172-0.039,0.233l-1.379,1.378
				c-0.061,0.062-0.155,0.077-0.233,0.039l-0.906-0.438c-0.507,0.303-1.052,0.528-1.624,0.674l-0.329,0.949
				C25.139,28.508,25.062,28.563,24.975,28.563z M23.17,28.155h1.659l0.318-0.917c0.023-0.066,0.079-0.116,0.146-0.132
				c0.604-0.143,1.18-0.381,1.708-0.709c0.059-0.036,0.134-0.041,0.196-0.01l0.875,0.423l1.174-1.172l-0.424-0.876
				c-0.031-0.062-0.027-0.137,0.01-0.196c0.33-0.533,0.569-1.106,0.708-1.707c0.016-0.068,0.065-0.124,0.131-0.146l0.917-0.319
				v-1.658l-0.915-0.318c-0.066-0.023-0.115-0.078-0.131-0.146c-0.144-0.608-0.382-1.183-0.71-1.707
				c-0.037-0.06-0.041-0.134-0.01-0.197l0.424-0.876l-1.174-1.172l-0.875,0.424c-0.063,0.029-0.137,0.026-0.197-0.011
				c-0.532-0.331-1.107-0.57-1.708-0.709c-0.068-0.017-0.124-0.066-0.147-0.132l-0.318-0.917h-1.66l-0.318,0.917
				c-0.023,0.065-0.079,0.115-0.146,0.132c-0.603,0.14-1.178,0.378-1.708,0.709c-0.059,0.037-0.133,0.041-0.197,0.011l-0.874-0.424
				l-1.172,1.172l0.423,0.876c0.031,0.063,0.026,0.138-0.011,0.197c-0.33,0.527-0.568,1.101-0.708,1.706
				c-0.016,0.068-0.065,0.123-0.132,0.146l-0.917,0.319v1.658l0.917,0.319c0.066,0.022,0.116,0.078,0.131,0.146
				c0.144,0.608,0.381,1.183,0.709,1.708c0.037,0.059,0.042,0.134,0.011,0.196l-0.423,0.876l1.172,1.172l0.876-0.424
				c0.063-0.03,0.137-0.026,0.197,0.011c0.525,0.328,1.099,0.566,1.706,0.707c0.068,0.016,0.124,0.065,0.146,0.132L23.17,28.155z"/>
		</g>
	</g>
</g>
</svg>
