<?xml version="1.0" encoding="utf-8"?>
<!-- Generator: Adobe Illustrator 16.0.0, SVG Export Plug-In . SVG Version: 6.00 Build 0)  -->
<!DOCTYPE svg PUBLIC "-//W3C//DTD SVG 1.1//EN" "http://www.w3.org/Graphics/SVG/1.1/DTD/svg11.dtd">
<svg version="1.1" id="Layer_1" xmlns="http://www.w3.org/2000/svg" xmlns:xlink="http://www.w3.org/1999/xlink" x="0px" y="0px"
	 width="32px" height="32px" viewBox="0 0 32 32" enable-background="new 0 0 32 32" xml:space="preserve">
<g>
	<g>
		<g>
			<g>
				<g>
					<path d="M27.208,22.936H4.731c-0.705,0-1.278-0.573-1.278-1.278V6.491c0-0.704,0.573-1.277,1.278-1.277h22.476
						c0.705,0,1.279,0.573,1.279,1.277v15.166C28.486,22.362,27.913,22.936,27.208,22.936z M4.731,5.579
						c-0.504,0-0.914,0.409-0.914,0.912v15.166c0,0.503,0.41,0.914,0.914,0.914h22.476c0.504,0,0.914-0.411,0.914-0.914V6.491
						c0-0.503-0.41-0.912-0.914-0.912H4.731z"/>
				</g>
			</g>
			<g>
				<g>
					<path d="M30.522,26.857c-0.002,0-0.005,0-0.007,0H1.424c-0.071,0-0.136-0.043-0.167-0.105
						c-0.029-0.065-0.019-0.142,0.027-0.196l2.159-2.557c0.035-0.041,0.086-0.064,0.14-0.064h24.773c0.054,0,0.105,0.023,0.14,0.064
						l2.132,2.527c0.046,0.031,0.077,0.086,0.077,0.148C30.706,26.775,30.623,26.857,30.522,26.857z M1.817,26.492h28.305
						L28.271,24.3H3.667L1.817,26.492z"/>
				</g>
			</g>
			<g>
				<g>
					<path d="M28.303,21.014H3.635c-0.101,0-0.182-0.082-0.182-0.185c0-0.1,0.081-0.182,0.182-0.182h24.668
						c0.101,0,0.183,0.082,0.183,0.182C28.486,20.932,28.404,21.014,28.303,21.014z"/>
				</g>
			</g>
		</g>
		<g>
			<g>
				<path d="M20.735,12.771h-3.969c-0.101,0-0.182-0.081-0.182-0.183V8.785c0-0.052,0.021-0.102,0.06-0.136
					c0.039-0.035,0.09-0.051,0.142-0.045c2.121,0.215,3.819,1.843,4.13,3.957c0.008,0.053-0.007,0.105-0.042,0.146
					C20.838,12.747,20.788,12.771,20.735,12.771z M16.948,12.405h3.57c-0.351-1.779-1.779-3.146-3.57-3.413V12.405z"/>
			</g>
			<g>
				<path d="M15.688,18.342c-2.573,0-4.666-2.094-4.666-4.666c0-2.426,1.82-4.423,4.235-4.644c0.053-0.005,0.102,0.012,0.139,0.046
					c0.039,0.036,0.06,0.084,0.06,0.136v4.701h4.694c0.051,0,0.101,0.021,0.136,0.06c0.034,0.036,0.051,0.088,0.046,0.14
					C20.107,16.524,18.11,18.342,15.688,18.342z M15.09,9.419c-2.125,0.293-3.704,2.088-3.704,4.257
					c0,2.373,1.929,4.301,4.301,4.301c2.165,0,3.961-1.576,4.256-3.696h-4.671c-0.101,0-0.183-0.082-0.183-0.184V9.419z"/>
			</g>
		</g>
	</g>
</g>
</svg>
