<?xml version="1.0" encoding="utf-8"?>
<!-- Generator: Adobe Illustrator 16.0.0, SVG Export Plug-In . SVG Version: 6.00 Build 0)  -->
<!DOCTYPE svg PUBLIC "-//W3C//DTD SVG 1.1//EN" "http://www.w3.org/Graphics/SVG/1.1/DTD/svg11.dtd">
<svg version="1.1" id="Layer_1" xmlns="http://www.w3.org/2000/svg" xmlns:xlink="http://www.w3.org/1999/xlink" x="0px" y="0px"
	 width="32px" height="32px" viewBox="0 0 32 32" enable-background="new 0 0 32 32" xml:space="preserve">
<g>
	<g>
		<g>
			<g>
				<path d="M21.452,29.937H10.421c-0.705,0-1.278-0.572-1.278-1.278V3.411c0-0.704,0.574-1.277,1.278-1.277h11.031
					c0.706,0,1.279,0.573,1.279,1.277v25.247C22.731,29.364,22.158,29.937,21.452,29.937z M10.421,2.499
					c-0.504,0-0.913,0.409-0.913,0.912v25.247c0,0.505,0.409,0.913,0.913,0.913h11.031c0.504,0,0.914-0.408,0.914-0.913V3.411
					c0-0.503-0.41-0.912-0.914-0.912H10.421z"/>
			</g>
		</g>
		<g>
			<g>
				<path d="M22.358,24.925H9.516c-0.101,0-0.183-0.082-0.183-0.183c0-0.102,0.082-0.182,0.183-0.182h12.843
					c0.101,0,0.183,0.08,0.183,0.182C22.542,24.843,22.459,24.925,22.358,24.925z"/>
			</g>
		</g>
		<g>
			<g>
				<circle cx="15.937" cy="27.335" r="0.745"/>
			</g>
		</g>
		<g>
			<g>
				<path d="M20.188,13.231h-3.541c-0.101,0-0.183-0.081-0.183-0.183V9.656c0-0.052,0.021-0.101,0.061-0.136
					c0.038-0.034,0.091-0.051,0.141-0.045c1.901,0.193,3.423,1.651,3.701,3.546c0.008,0.053-0.008,0.106-0.042,0.146
					C20.291,13.209,20.24,13.231,20.188,13.231z M16.83,12.866h3.141c-0.318-1.561-1.57-2.758-3.141-3.002V12.866z"/>
			</g>
		</g>
		<g>
			<g>
				<path d="M15.686,18.2c-2.306,0-4.182-1.875-4.182-4.182c0-2.173,1.632-3.963,3.795-4.161c0.052-0.003,0.102,0.012,0.14,0.047
					s0.06,0.083,0.06,0.134v4.175h4.167c0.052,0,0.101,0.021,0.135,0.059c0.034,0.039,0.051,0.09,0.047,0.141
					C19.646,16.571,17.856,18.2,15.686,18.2z M15.133,10.245c-1.874,0.269-3.264,1.856-3.264,3.773c0,2.105,1.712,3.817,3.816,3.817
					c1.914,0,3.503-1.389,3.774-3.258h-4.144c-0.101,0-0.182-0.081-0.182-0.183V10.245z"/>
			</g>
		</g>
	</g>
</g>
</svg>
