<?xml version="1.0" encoding="utf-8"?>
<!-- Generator: Adobe Illustrator 16.0.0, SVG Export Plug-In . SVG Version: 6.00 Build 0)  -->
<!DOCTYPE svg PUBLIC "-//W3C//DTD SVG 1.1//EN" "http://www.w3.org/Graphics/SVG/1.1/DTD/svg11.dtd">
<svg version="1.1" id="Layer_1" xmlns="http://www.w3.org/2000/svg" xmlns:xlink="http://www.w3.org/1999/xlink" x="0px" y="0px"
	 width="32px" height="32px" viewBox="0 0 32 32" enable-background="new 0 0 32 32" xml:space="preserve">
<g>
	<g>
		<g>
			<g>
				<path d="M24.984,30.484H6.817c-0.705,0-1.279-0.573-1.279-1.279V2.864c0-0.704,0.574-1.278,1.279-1.278h18.167
					c0.705,0,1.279,0.574,1.279,1.278v26.341C26.263,29.911,25.689,30.484,24.984,30.484z M6.817,1.951
					c-0.504,0-0.914,0.41-0.914,0.913v26.341c0,0.504,0.409,0.914,0.914,0.914h18.167c0.503,0,0.914-0.41,0.914-0.914V2.864
					c0-0.503-0.41-0.913-0.914-0.913H6.817z"/>
			</g>
		</g>
		<g>
			<g>
				<circle cx="15.901" cy="28.066" r="0.746"/>
			</g>
		</g>
		<g>
			<g>
				<path d="M25.925,25.534H5.876c-0.101,0-0.183-0.083-0.183-0.183c0-0.102,0.082-0.184,0.183-0.184h20.049
					c0.101,0,0.182,0.082,0.182,0.184C26.107,25.451,26.026,25.534,25.925,25.534z"/>
			</g>
		</g>
		<g>
			<g>
				<path d="M22.519,12.792h-5.512c-0.101,0-0.183-0.081-0.183-0.182V7.328c0-0.052,0.022-0.101,0.061-0.137
					c0.038-0.034,0.089-0.052,0.141-0.045c2.914,0.297,5.247,2.533,5.674,5.437c0.007,0.053-0.008,0.105-0.043,0.146
					C22.623,12.77,22.572,12.792,22.519,12.792z M17.189,12.427h5.115c-0.47-2.568-2.531-4.542-5.115-4.894V12.427z"/>
			</g>
		</g>
		<g>
			<g>
				<path d="M15.509,20.529c-3.534,0-6.409-2.874-6.409-6.409c0-3.332,2.501-6.075,5.816-6.379c0.052-0.004,0.102,0.012,0.14,0.046
					c0.038,0.035,0.059,0.085,0.059,0.136v6.601h6.591c0.051,0,0.1,0.021,0.135,0.059c0.035,0.038,0.051,0.089,0.047,0.141
					C21.579,18.034,18.836,20.529,15.509,20.529z M14.75,8.127c-3.027,0.376-5.285,2.918-5.285,5.993
					c0,3.332,2.711,6.044,6.044,6.044c3.07,0,5.612-2.253,5.993-5.275h-6.569c-0.102,0-0.183-0.082-0.183-0.182V8.127z"/>
			</g>
		</g>
	</g>
</g>
</svg>
