<?xml version="1.0" encoding="utf-8"?>
<!-- Generator: Adobe Illustrator 16.0.0, SVG Export Plug-In . SVG Version: 6.00 Build 0)  -->
<!DOCTYPE svg PUBLIC "-//W3C//DTD SVG 1.1//EN" "http://www.w3.org/Graphics/SVG/1.1/DTD/svg11.dtd">
<svg version="1.1" id="Layer_1" xmlns="http://www.w3.org/2000/svg" xmlns:xlink="http://www.w3.org/1999/xlink" x="0px" y="0px"
	 width="32px" height="32px" viewBox="0 0 32 32" enable-background="new 0 0 32 32" xml:space="preserve">
<g>
	<g>
		<g>
			<g>
				<g>
					<path d="M27.248,23.164H4.771c-0.706,0-1.278-0.573-1.278-1.278V6.72c0-0.704,0.573-1.278,1.278-1.278h22.476
						c0.706,0,1.279,0.574,1.279,1.278v15.166C28.526,22.591,27.953,23.164,27.248,23.164z M4.771,5.807
						c-0.504,0-0.914,0.41-0.914,0.913v15.166c0,0.504,0.41,0.913,0.914,0.913h22.476c0.504,0,0.914-0.409,0.914-0.913V6.72
						c0-0.503-0.409-0.913-0.914-0.913H4.771z"/>
				</g>
			</g>
			<g>
				<g>
					<path d="M28.344,21.241H3.676c-0.102,0-0.183-0.083-0.183-0.184s0.081-0.183,0.183-0.183h24.668
						c0.102,0,0.183,0.082,0.183,0.183S28.445,21.241,28.344,21.241z"/>
				</g>
			</g>
			<g>
				<g>
					<g>
						<path d="M11.101,26.399c-0.039,0-0.078-0.012-0.111-0.037c-0.081-0.062-0.094-0.177-0.033-0.257l2.511-3.242
							c0.062-0.079,0.176-0.094,0.257-0.032c0.079,0.061,0.094,0.177,0.032,0.258l-2.511,3.24
							C11.21,26.376,11.156,26.399,11.101,26.399z"/>
					</g>
				</g>
				<g>
					<g>
						<path d="M20.918,26.399c-0.055,0-0.109-0.023-0.146-0.07l-2.511-3.24c-0.062-0.081-0.047-0.197,0.033-0.258
							c0.08-0.062,0.195-0.047,0.256,0.032l2.511,3.242c0.062,0.08,0.048,0.194-0.033,0.257
							C20.997,26.388,20.958,26.399,20.918,26.399z"/>
					</g>
				</g>
			</g>
			<g>
				<g>
					<path d="M22.859,26.63H9.16c-0.1,0-0.183-0.082-0.183-0.184c0-0.101,0.083-0.183,0.183-0.183h13.699
						c0.101,0,0.184,0.082,0.184,0.183C23.042,26.548,22.959,26.63,22.859,26.63z"/>
				</g>
			</g>
		</g>
		<g>
			<g>
				<path d="M20.774,13.136h-3.969c-0.101,0-0.182-0.082-0.182-0.182V9.149c0-0.052,0.021-0.101,0.06-0.135
					c0.039-0.034,0.091-0.05,0.142-0.046c2.121,0.216,3.819,1.844,4.131,3.957c0.008,0.054-0.008,0.106-0.042,0.147
					C20.878,13.112,20.828,13.136,20.774,13.136z M16.989,12.771h3.57c-0.352-1.779-1.78-3.146-3.57-3.414V12.771z"/>
			</g>
			<g>
				<path d="M15.728,18.707c-2.573,0-4.666-2.093-4.666-4.666c0-2.426,1.82-4.423,4.234-4.644c0.053-0.004,0.103,0.012,0.14,0.046
					c0.038,0.036,0.06,0.084,0.06,0.136v4.701h4.694c0.052,0,0.101,0.021,0.135,0.06c0.035,0.037,0.051,0.088,0.047,0.14
					C20.146,16.89,18.149,18.707,15.728,18.707z M15.131,9.783c-2.125,0.293-3.704,2.09-3.704,4.258c0,2.373,1.93,4.301,4.301,4.301
					c2.165,0,3.961-1.575,4.257-3.696h-4.672c-0.101,0-0.182-0.082-0.182-0.184V9.783z"/>
			</g>
		</g>
	</g>
</g>
</svg>
