<?xml version="1.0" encoding="utf-8"?>
<!-- Generator: Adobe Illustrator 16.0.0, SVG Export Plug-In . SVG Version: 6.00 Build 0)  -->
<!DOCTYPE svg PUBLIC "-//W3C//DTD SVG 1.1//EN" "http://www.w3.org/Graphics/SVG/1.1/DTD/svg11.dtd">
<svg version="1.1" id="Layer_1" xmlns="http://www.w3.org/2000/svg" xmlns:xlink="http://www.w3.org/1999/xlink" x="0px" y="0px"
	 width="32px" height="32px" viewBox="0 0 32 32" enable-background="new 0 0 32 32" xml:space="preserve">
<g>
	<g>
		<g>
			<g>
				<g>
					<path d="M19.496,23.097h-8.214c-1.107,0-2.009-0.901-2.009-2.009V10.982c0-1.107,0.901-2.009,2.009-2.009h8.214
						c1.107,0,2.009,0.901,2.009,2.009v10.105C21.504,22.195,20.603,23.097,19.496,23.097z M11.281,9.339
						c-0.907,0-1.644,0.737-1.644,1.644v10.105c0,0.906,0.737,1.644,1.644,1.644h8.214c0.906,0,1.644-0.737,1.644-1.644V10.982
						c0-0.906-0.738-1.644-1.644-1.644H11.281z"/>
				</g>
			</g>
			<g>
				<g>
					<path d="M22.637,14.613c-0.101,0-0.183-0.081-0.183-0.183v-2.284c0-0.101,0.082-0.184,0.183-0.184s0.183,0.083,0.183,0.184
						v2.284C22.819,14.532,22.738,14.613,22.637,14.613z"/>
				</g>
			</g>
			<g>
				<g>
					<path d="M19.128,7.991c-0.101,0-0.182-0.082-0.182-0.183V5.266c0-0.302-0.247-0.547-0.549-0.547h-6.018
						c-0.302,0-0.548,0.245-0.548,0.547v2.543c0,0.101-0.082,0.183-0.183,0.183c-0.101,0-0.183-0.082-0.183-0.183V5.266
						c0-0.504,0.409-0.914,0.913-0.914h6.018c0.504,0,0.914,0.41,0.914,0.914v2.543C19.312,7.909,19.229,7.991,19.128,7.991z"/>
				</g>
			</g>
			<g>
				<g>
					<path d="M18.397,27.718h-6.018c-0.504,0-0.913-0.41-0.913-0.913v-2.544c0-0.101,0.082-0.183,0.183-0.183
						c0.101,0,0.183,0.082,0.183,0.183v2.544c0,0.301,0.246,0.547,0.548,0.547h6.018c0.302,0,0.549-0.246,0.549-0.547v-2.544
						c0-0.101,0.082-0.183,0.182-0.183s0.183,0.082,0.183,0.183v2.544C19.312,27.308,18.901,27.718,18.397,27.718z"/>
				</g>
			</g>
		</g>
		<g>
			<g>
				<path d="M18.552,15.481h-2.483c-0.101,0-0.182-0.082-0.182-0.182v-2.379c0-0.052,0.022-0.101,0.06-0.137
					c0.039-0.033,0.09-0.051,0.141-0.045c1.357,0.138,2.445,1.181,2.645,2.534c0.007,0.053-0.008,0.105-0.042,0.146
					C18.655,15.46,18.605,15.481,18.552,15.481z M16.252,15.116h2.08c-0.235-1.019-1.052-1.8-2.08-1.985V15.116z"/>
			</g>
			<g>
				<path d="M15.03,19.332c-1.647,0-2.987-1.34-2.987-2.987c0-1.554,1.166-2.83,2.711-2.972c0.051-0.005,0.102,0.011,0.14,0.046
					c0.038,0.034,0.06,0.084,0.06,0.136v2.871h2.867c0.051,0,0.101,0.021,0.135,0.06c0.035,0.039,0.052,0.089,0.047,0.14
					C17.858,18.169,16.58,19.332,15.03,19.332z M14.587,13.762c-1.256,0.21-2.18,1.288-2.18,2.583c0,1.446,1.176,2.622,2.622,2.622
					c1.292,0,2.37-0.922,2.582-2.176H14.77c-0.101,0-0.183-0.082-0.183-0.183V13.762z"/>
			</g>
		</g>
	</g>
</g>
</svg>
