<?xml version="1.0" encoding="utf-8"?>
<!-- Generator: Adobe Illustrator 16.0.0, SVG Export Plug-In . SVG Version: 6.00 Build 0)  -->
<!DOCTYPE svg PUBLIC "-//W3C//DTD SVG 1.1//EN" "http://www.w3.org/Graphics/SVG/1.1/DTD/svg11.dtd">
<svg version="1.1" id="Layer_1" xmlns="http://www.w3.org/2000/svg" xmlns:xlink="http://www.w3.org/1999/xlink" x="0px" y="0px"
	 width="64px" height="64px" viewBox="0 0 64 64" enable-background="new 0 0 64 64" xml:space="preserve">
<g>
	<g>
		<path d="M40.461,56.543H23.539c-1.93,0-3.5-1.57-3.5-3.5V11.476c0-1.93,1.57-3.5,3.5-3.5h16.922c1.93,0,3.5,1.57,3.5,3.5v41.567
			C43.961,54.973,42.391,56.543,40.461,56.543z M23.539,8.976c-1.379,0-2.5,1.122-2.5,2.5v41.567c0,1.378,1.121,2.5,2.5,2.5h16.922
			c1.379,0,2.5-1.122,2.5-2.5V11.476c0-1.378-1.121-2.5-2.5-2.5H23.539z"/>
	</g>
	<g>
		<path d="M43.133,47.854H20.867c-0.276,0-0.5-0.224-0.5-0.5s0.224-0.5,0.5-0.5h22.266c0.276,0,0.5,0.224,0.5,0.5
			S43.409,47.854,43.133,47.854z"/>
	</g>
	<g>
		<circle cx="32.001" cy="51.849" r="1.292"/>
	</g>
	<g>
		<path d="M32,36.947c-0.276,0-0.5-0.224-0.5-0.5v-1.451c-2.121-0.2-3.771-1.658-3.771-3.421c0-0.276,0.224-0.5,0.5-0.5
			s0.5,0.224,0.5,0.5c0,1.221,1.204,2.235,2.771,2.416V29.11c-2.121-0.2-3.771-1.657-3.771-3.419c0-1.763,1.65-3.221,3.771-3.421
			v-1.45c0-0.276,0.224-0.5,0.5-0.5s0.5,0.224,0.5,0.5v1.45c2.122,0.2,3.773,1.658,3.773,3.421c0,0.276-0.224,0.5-0.5,0.5
			s-0.5-0.224-0.5-0.5c0-1.221-1.205-2.235-2.773-2.416v4.882c2.122,0.2,3.773,1.657,3.773,3.418c0,1.763-1.651,3.221-3.773,3.421
			v1.451C32.5,36.724,32.276,36.947,32,36.947z M32.5,29.162v4.83c1.568-0.181,2.773-1.195,2.773-2.416
			C35.273,30.356,34.068,29.342,32.5,29.162z M31.5,23.275c-1.567,0.181-2.771,1.195-2.771,2.416c0,1.22,1.204,2.234,2.771,2.414
			V23.275z"/>
	</g>
</g>
</svg>
