<?xml version="1.0" encoding="utf-8"?>
<!-- Generator: Adobe Illustrator 16.0.0, SVG Export Plug-In . SVG Version: 6.00 Build 0)  -->
<!DOCTYPE svg PUBLIC "-//W3C//DTD SVG 1.1//EN" "http://www.w3.org/Graphics/SVG/1.1/DTD/svg11.dtd">
<svg version="1.1" id="Layer_1" xmlns="http://www.w3.org/2000/svg" xmlns:xlink="http://www.w3.org/1999/xlink" x="0px" y="0px"
	 width="64px" height="64px" viewBox="0 0 64 64" enable-background="new 0 0 64 64" xml:space="preserve">
<g>
	<g>
		<path d="M46.647,57.493H17.353c-1.93,0-3.5-1.57-3.5-3.5V10.527c0-1.93,1.57-3.5,3.5-3.5h29.295c1.93,0,3.5,1.57,3.5,3.5v43.466
			C50.147,55.922,48.577,57.493,46.647,57.493z M17.353,8.027c-1.379,0-2.5,1.122-2.5,2.5v43.466c0,1.378,1.121,2.5,2.5,2.5h29.295
			c1.379,0,2.5-1.122,2.5-2.5V10.527c0-1.378-1.121-2.5-2.5-2.5H17.353z"/>
	</g>
	<g>
		<path d="M33.293,53.117c0,0.713-0.579,1.293-1.295,1.293c-0.711,0-1.291-0.58-1.291-1.293c0-0.714,0.58-1.292,1.291-1.292
			C32.714,51.825,33.293,52.403,33.293,53.117z"/>
	</g>
	<g>
		<path d="M49.38,48.91H14.621c-0.276,0-0.5-0.224-0.5-0.5s0.224-0.5,0.5-0.5H49.38c0.276,0,0.5,0.224,0.5,0.5
			S49.656,48.91,49.38,48.91z"/>
	</g>
	<g>
		<path d="M31.998,39.436c-0.276,0-0.5-0.224-0.5-0.5v-2.062c-2.784-0.203-4.973-2.081-4.973-4.36c0-0.276,0.224-0.5,0.5-0.5
			s0.5,0.224,0.5,0.5c0,1.735,1.741,3.169,3.973,3.357v-6.754c-2.784-0.203-4.973-2.082-4.973-4.361c0-2.279,2.188-4.158,4.973-4.36
			v-2.063c0-0.276,0.224-0.5,0.5-0.5s0.5,0.224,0.5,0.5v2.063c2.786,0.203,4.976,2.081,4.976,4.36c0,0.276-0.224,0.5-0.5,0.5
			s-0.5-0.224-0.5-0.5c0-1.735-1.742-3.169-3.976-3.357v6.755c2.786,0.203,4.976,2.081,4.976,4.361c0,2.279-2.189,4.158-4.976,4.36
			v2.062C32.498,39.212,32.274,39.436,31.998,39.436z M32.498,29.155v6.715c2.233-0.188,3.976-1.622,3.976-3.357
			S34.731,29.343,32.498,29.155z M31.498,21.397c-2.231,0.188-3.973,1.622-3.973,3.357c0,1.736,1.741,3.17,3.973,3.358V21.397z"/>
	</g>
</g>
</svg>
