<?xml version="1.0" encoding="utf-8"?>
<!-- Generator: Adobe Illustrator 16.0.0, SVG Export Plug-In . SVG Version: 6.00 Build 0)  -->
<!DOCTYPE svg PUBLIC "-//W3C//DTD SVG 1.1//EN" "http://www.w3.org/Graphics/SVG/1.1/DTD/svg11.dtd">
<svg version="1.1" id="Layer_1" xmlns="http://www.w3.org/2000/svg" xmlns:xlink="http://www.w3.org/1999/xlink" x="0px" y="0px"
	 width="48px" height="48px" viewBox="0 0 48 48" enable-background="new 0 0 48 48" xml:space="preserve">
<g>
	<g>
		<path d="M36.421,43.759H11.578c-0.964,0-1.748-0.785-1.748-1.749V5.99c0-0.965,0.784-1.749,1.748-1.749h24.843
			c0.965,0,1.749,0.784,1.749,1.749v36.02C38.17,42.974,37.386,43.759,36.421,43.759z M11.578,4.741
			c-0.688,0-1.248,0.56-1.248,1.249v36.02c0,0.688,0.56,1.249,1.248,1.249h24.843c0.689,0,1.25-0.561,1.25-1.249V5.99
			c0-0.689-0.561-1.249-1.25-1.249H11.578z"/>
	</g>
	<g>
		<circle cx="24" cy="40.451" r="1.02"/>
	</g>
	<g>
		<path d="M37.708,36.988H10.293c-0.139,0-0.25-0.111-0.25-0.249c0-0.139,0.111-0.25,0.25-0.25h27.415
			c0.137,0,0.249,0.111,0.249,0.25C37.957,36.877,37.845,36.988,37.708,36.988z"/>
	</g>
	<g>
		<path d="M24,29.515c-0.139,0-0.25-0.111-0.25-0.25v-1.762c-2.186-0.103-3.924-1.545-3.924-3.304c0-0.138,0.112-0.25,0.25-0.25
			c0.139,0,0.25,0.112,0.25,0.25c0,1.485,1.514,2.705,3.424,2.804v-5.619c-2.186-0.103-3.924-1.546-3.924-3.304
			c0-1.759,1.738-3.201,3.924-3.304v-1.762c0-0.139,0.111-0.25,0.25-0.25s0.25,0.111,0.25,0.25v1.762
			c2.186,0.103,3.924,1.545,3.924,3.304c0,0.138-0.112,0.25-0.25,0.25c-0.139,0-0.25-0.112-0.25-0.25
			c0-1.485-1.514-2.705-3.424-2.804v5.619c2.186,0.103,3.924,1.546,3.924,3.304c0,1.759-1.738,3.201-3.924,3.304v1.762
			C24.25,29.403,24.139,29.515,24,29.515z M24.25,21.396v5.607c1.91-0.099,3.424-1.318,3.424-2.804S26.16,21.494,24.25,21.396z
			 M23.75,15.276c-1.91,0.099-3.424,1.318-3.424,2.804s1.514,2.705,3.424,2.804V15.276z"/>
	</g>
</g>
</svg>
