<?xml version="1.0" encoding="utf-8"?>
<!-- Generator: Adobe Illustrator 16.0.0, SVG Export Plug-In . SVG Version: 6.00 Build 0)  -->
<!DOCTYPE svg PUBLIC "-//W3C//DTD SVG 1.1//EN" "http://www.w3.org/Graphics/SVG/1.1/DTD/svg11.dtd">
<svg version="1.1" id="Layer_1" xmlns="http://www.w3.org/2000/svg" xmlns:xlink="http://www.w3.org/1999/xlink" x="0px" y="0px"
	 width="48px" height="48px" viewBox="0 0 48 48" enable-background="new 0 0 48 48" xml:space="preserve">
<g>
	<g>
		<path d="M31.542,43.01H16.457c-0.964,0-1.748-0.784-1.748-1.748V6.738c0-0.964,0.784-1.748,1.748-1.748h15.085
			c0.964,0,1.749,0.784,1.749,1.748v34.523C33.291,42.226,32.506,43.01,31.542,43.01z M16.457,5.489
			c-0.689,0-1.249,0.561-1.249,1.249v34.523c0,0.688,0.56,1.249,1.249,1.249h15.085c0.688,0,1.249-0.561,1.249-1.249V6.738
			c0-0.688-0.561-1.249-1.249-1.249H16.457z"/>
	</g>
	<g>
		<path d="M32.78,36.155H15.219c-0.138,0-0.25-0.112-0.25-0.25s0.112-0.25,0.25-0.25H32.78c0.138,0,0.249,0.112,0.249,0.25
			S32.918,36.155,32.78,36.155z"/>
	</g>
	<g>
		<circle cx="24" cy="39.452" r="1.02"/>
	</g>
	<g>
		<path d="M24,27.553c-0.139,0-0.25-0.111-0.25-0.249v-1.279c-1.662-0.103-2.977-1.213-2.977-2.563c0-0.138,0.111-0.25,0.25-0.25
			s0.25,0.112,0.25,0.25c0,1.078,1.09,1.966,2.477,2.062v-4.142c-1.662-0.102-2.977-1.213-2.977-2.563s1.314-2.461,2.977-2.563
			v-1.279c0-0.138,0.111-0.249,0.25-0.249c0.138,0,0.25,0.111,0.25,0.249v1.279c1.662,0.103,2.976,1.213,2.976,2.563
			c0,0.138-0.112,0.25-0.25,0.25s-0.249-0.112-0.249-0.25c0-1.078-1.09-1.966-2.477-2.062v4.142
			c1.662,0.102,2.976,1.213,2.976,2.563s-1.313,2.461-2.976,2.563v1.279C24.25,27.441,24.138,27.553,24,27.553z M24.25,21.397v4.126
			c1.387-0.097,2.477-0.984,2.477-2.062S25.637,21.494,24.25,21.397z M23.75,16.756c-1.387,0.097-2.477,0.984-2.477,2.062
			s1.09,1.967,2.477,2.063V16.756z"/>
	</g>
</g>
</svg>
