<?xml version="1.0" encoding="utf-8"?>
<!-- Generator: Adobe Illustrator 16.0.0, SVG Export Plug-In . SVG Version: 6.00 Build 0)  -->
<!DOCTYPE svg PUBLIC "-//W3C//DTD SVG 1.1//EN" "http://www.w3.org/Graphics/SVG/1.1/DTD/svg11.dtd">
<svg version="1.1" id="Layer_1" xmlns="http://www.w3.org/2000/svg" xmlns:xlink="http://www.w3.org/1999/xlink" x="0px" y="0px"
	 width="48px" height="48px" viewBox="0 0 48 48" enable-background="new 0 0 48 48" xml:space="preserve">
<g>
	<g>
		<g>
			<path d="M39.367,33.748H8.633c-0.965,0-1.748-0.784-1.748-1.748V11.263c0-0.964,0.783-1.749,1.748-1.749h30.734
				c0.965,0,1.748,0.785,1.748,1.749V32C41.115,32.964,40.332,33.748,39.367,33.748z M8.633,10.014c-0.689,0-1.248,0.56-1.248,1.249
				V32c0,0.688,0.559,1.248,1.248,1.248h30.734c0.689,0,1.25-0.56,1.25-1.248V11.263c0-0.689-0.561-1.249-1.25-1.249H8.633z"/>
		</g>
		<g>
			<path d="M40.865,31.118H7.135c-0.139,0-0.25-0.112-0.25-0.25s0.111-0.25,0.25-0.25h33.73c0.139,0,0.25,0.112,0.25,0.25
				S41.004,31.118,40.865,31.118z"/>
		</g>
		<g>
			<g>
				<path d="M17.287,38.174c-0.053,0-0.107-0.018-0.152-0.053c-0.109-0.084-0.129-0.241-0.045-0.35l3.436-4.434
					c0.084-0.109,0.24-0.128,0.35-0.045c0.109,0.085,0.129,0.241,0.045,0.351l-3.434,4.434
					C17.436,38.141,17.363,38.174,17.287,38.174z"/>
			</g>
			<g>
				<path d="M30.713,38.174c-0.074,0-0.148-0.033-0.197-0.097l-3.436-4.434c-0.084-0.109-0.064-0.266,0.045-0.351
					c0.109-0.084,0.266-0.064,0.352,0.045l3.434,4.434c0.084,0.108,0.064,0.266-0.045,0.35
					C30.82,38.156,30.766,38.174,30.713,38.174z"/>
			</g>
		</g>
		<g>
			<path d="M33.365,38.486h-18.73c-0.139,0-0.25-0.112-0.25-0.25c0-0.139,0.111-0.25,0.25-0.25h18.73c0.139,0,0.25,0.111,0.25,0.25
				C33.615,38.374,33.504,38.486,33.365,38.486z"/>
		</g>
	</g>
	<g>
		<g>
			<path d="M24,26.871c-0.139,0-0.25-0.111-0.25-0.249v-1.235c-1.613-0.102-2.889-1.182-2.889-2.494c0-0.138,0.113-0.249,0.25-0.249
				c0.139,0,0.25,0.111,0.25,0.249c0,1.04,1.051,1.898,2.389,1.994v-4.005c-1.613-0.102-2.889-1.182-2.889-2.494
				s1.275-2.393,2.889-2.494v-1.235c0-0.138,0.111-0.249,0.25-0.249s0.25,0.111,0.25,0.249v1.235
				c1.613,0.102,2.889,1.182,2.889,2.494c0,0.138-0.111,0.249-0.25,0.249s-0.25-0.111-0.25-0.249c0-1.04-1.051-1.898-2.389-1.994
				v4.005c1.613,0.102,2.889,1.182,2.889,2.494s-1.275,2.393-2.889,2.494v1.235C24.25,26.76,24.139,26.871,24,26.871z M24.25,20.898
				v3.988c1.338-0.096,2.389-0.954,2.389-1.994S25.588,20.994,24.25,20.898z M23.75,16.394c-1.338,0.096-2.389,0.954-2.389,1.994
				s1.051,1.898,2.389,1.994V16.394z"/>
		</g>
	</g>
</g>
</svg>
