<?xml version="1.0" encoding="utf-8"?>
<!-- Generator: Adobe Illustrator 16.0.0, SVG Export Plug-In . SVG Version: 6.00 Build 0)  -->
<!DOCTYPE svg PUBLIC "-//W3C//DTD SVG 1.1//EN" "http://www.w3.org/Graphics/SVG/1.1/DTD/svg11.dtd">
<svg version="1.1" id="Layer_1" xmlns="http://www.w3.org/2000/svg" xmlns:xlink="http://www.w3.org/1999/xlink" x="0px" y="0px"
	 width="48px" height="48px" viewBox="0 0 48 48" enable-background="new 0 0 48 48" xml:space="preserve">
<g>
	<g>
		<g>
			<path d="M39.362,33.436H8.628c-0.964,0-1.748-0.784-1.748-1.748V10.95c0-0.964,0.784-1.748,1.748-1.748h30.734
				c0.965,0,1.748,0.784,1.748,1.748v20.737C41.11,32.651,40.327,33.436,39.362,33.436z M8.628,9.701
				c-0.689,0-1.249,0.561-1.249,1.249v20.737c0,0.688,0.56,1.249,1.249,1.249h30.734c0.689,0,1.249-0.561,1.249-1.249V10.95
				c0-0.688-0.56-1.249-1.249-1.249H8.628z"/>
		</g>
		<g>
			<path d="M43.896,38.798c-0.002,0-0.006,0-0.01,0H4.105c-0.097,0-0.186-0.056-0.227-0.145c-0.041-0.088-0.027-0.191,0.036-0.267
				l2.951-3.496c0.047-0.057,0.117-0.089,0.191-0.089h33.876c0.073,0,0.144,0.032,0.19,0.089l2.916,3.454
				c0.063,0.046,0.104,0.12,0.104,0.203C44.145,38.687,44.032,38.798,43.896,38.798z M4.643,38.299h38.705l-2.53-2.997H7.173
				L4.643,38.299z"/>
		</g>
		<g>
			<path d="M40.861,30.806H7.13c-0.139,0-0.25-0.111-0.25-0.25c0-0.138,0.111-0.249,0.25-0.249h33.731
				c0.138,0,0.249,0.111,0.249,0.249C41.11,30.694,40.999,30.806,40.861,30.806z"/>
		</g>
	</g>
	<g>
		<g>
			<path d="M23.995,26.825c-0.139,0-0.25-0.111-0.25-0.249v-1.347c-1.734-0.102-3.107-1.259-3.107-2.665
				c0-0.139,0.112-0.25,0.25-0.25c0.139,0,0.25,0.111,0.25,0.25c0,1.134,1.148,2.068,2.607,2.164v-4.346
				c-1.734-0.102-3.107-1.259-3.107-2.666c0-1.406,1.373-2.563,3.107-2.665v-1.347c0-0.138,0.111-0.249,0.25-0.249
				s0.25,0.111,0.25,0.249v1.347c1.734,0.102,3.107,1.259,3.107,2.665c0,0.139-0.111,0.25-0.25,0.25s-0.25-0.111-0.25-0.25
				c0-1.134-1.148-2.068-2.607-2.164v4.346c1.734,0.102,3.107,1.259,3.107,2.666c0,1.406-1.373,2.563-3.107,2.665v1.347
				C24.245,26.714,24.134,26.825,23.995,26.825z M24.245,20.398v4.33c1.459-0.096,2.607-1.03,2.607-2.164
				C26.853,21.43,25.704,20.495,24.245,20.398z M23.745,15.553c-1.459,0.096-2.607,1.03-2.607,2.164
				c0,1.135,1.148,2.069,2.607,2.166V15.553z"/>
		</g>
	</g>
</g>
</svg>
