<?xml version="1.0" encoding="utf-8"?>
<!-- Generator: Adobe Illustrator 16.0.0, SVG Export Plug-In . SVG Version: 6.00 Build 0)  -->
<!DOCTYPE svg PUBLIC "-//W3C//DTD SVG 1.1//EN" "http://www.w3.org/Graphics/SVG/1.1/DTD/svg11.dtd">
<svg version="1.1" id="Layer_1" xmlns="http://www.w3.org/2000/svg" xmlns:xlink="http://www.w3.org/1999/xlink" x="0px" y="0px"
	 width="48px" height="48px" viewBox="0 0 48 48" enable-background="new 0 0 48 48" xml:space="preserve">
<g>
	<g>
		<g>
			<path d="M28.718,35.704H17.485c-1.515,0-2.748-1.232-2.748-2.747V19.138c0-1.515,1.233-2.747,2.748-2.747h11.232
				c1.514,0,2.747,1.232,2.747,2.747v13.819C31.465,34.472,30.231,35.704,28.718,35.704z M17.485,16.89
				c-1.24,0-2.248,1.009-2.248,2.248v13.819c0,1.239,1.008,2.247,2.248,2.247h11.232c1.239,0,2.247-1.008,2.247-2.247V19.138
				c0-1.239-1.008-2.248-2.247-2.248H17.485z"/>
		</g>
		<g>
			<path d="M33.013,24.104c-0.138,0-0.25-0.112-0.25-0.25v-3.126c0-0.138,0.112-0.25,0.25-0.25c0.139,0,0.25,0.112,0.25,0.25v3.126
				C33.263,23.992,33.151,24.104,33.013,24.104z"/>
		</g>
		<g>
			<path d="M28.216,15.049c-0.139,0-0.25-0.112-0.25-0.25v-3.478c0-0.413-0.336-0.75-0.75-0.75h-8.229
				c-0.413,0-0.749,0.337-0.749,0.75v3.478c0,0.138-0.111,0.25-0.25,0.25c-0.138,0-0.25-0.112-0.25-0.25v-3.478
				c0-0.688,0.561-1.249,1.249-1.249h8.229c0.689,0,1.249,0.561,1.249,1.249v3.478C28.465,14.937,28.354,15.049,28.216,15.049z"/>
		</g>
		<g>
			<path d="M27.216,42.022h-8.229c-0.688,0-1.249-0.561-1.249-1.249v-3.478c0-0.139,0.112-0.25,0.25-0.25
				c0.139,0,0.25,0.111,0.25,0.25v3.478c0,0.413,0.336,0.749,0.749,0.749h8.229c0.414,0,0.75-0.336,0.75-0.749v-3.478
				c0-0.139,0.111-0.25,0.25-0.25c0.138,0,0.249,0.111,0.249,0.25v3.478C28.465,41.462,27.905,42.022,27.216,42.022z"/>
		</g>
	</g>
	<g>
		<g>
			<path d="M23.102,32.023c-0.139,0-0.25-0.112-0.25-0.25v-1.172c-1.546-0.102-2.765-1.139-2.765-2.397
				c0-0.139,0.111-0.25,0.249-0.25c0.139,0,0.25,0.111,0.25,0.25c0,0.987,0.996,1.802,2.266,1.896v-3.812
				c-1.546-0.102-2.765-1.139-2.765-2.398c0-1.259,1.219-2.296,2.765-2.397v-1.172c0-0.139,0.111-0.25,0.25-0.25
				c0.138,0,0.249,0.111,0.249,0.25v1.172c1.546,0.102,2.766,1.139,2.766,2.397c0,0.139-0.112,0.25-0.25,0.25
				c-0.139,0-0.25-0.111-0.25-0.25c0-0.987-0.995-1.802-2.266-1.897v3.812c1.546,0.102,2.766,1.139,2.766,2.398
				c0,1.259-1.22,2.296-2.766,2.397v1.172C23.351,31.911,23.239,32.023,23.102,32.023z M23.351,26.307v3.794
				c1.271-0.095,2.266-0.909,2.266-1.896C25.616,27.216,24.621,26.401,23.351,26.307z M22.852,21.993
				c-1.27,0.096-2.266,0.91-2.266,1.897s0.996,1.803,2.266,1.897V21.993z"/>
		</g>
	</g>
</g>
</svg>
