<?xml version="1.0" encoding="utf-8"?>
<!-- Generator: Adobe Illustrator 16.0.0, SVG Export Plug-In . SVG Version: 6.00 Build 0)  -->
<!DOCTYPE svg PUBLIC "-//W3C//DTD SVG 1.1//EN" "http://www.w3.org/Graphics/SVG/1.1/DTD/svg11.dtd">
<svg version="1.1" id="Layer_1" xmlns="http://www.w3.org/2000/svg" xmlns:xlink="http://www.w3.org/1999/xlink" x="0px" y="0px"
	 width="48px" height="48px" viewBox="0 0 48 48" enable-background="new 0 0 48 48" xml:space="preserve">
<g>
	<g>
		<path d="M31.542,43.01H16.457c-0.964,0-1.748-0.784-1.748-1.748V6.738c0-0.964,0.784-1.748,1.748-1.748h15.085
			c0.964,0,1.749,0.784,1.749,1.748v34.523C33.291,42.226,32.506,43.01,31.542,43.01z M16.457,5.489
			c-0.689,0-1.249,0.561-1.249,1.249v34.523c0,0.688,0.56,1.249,1.249,1.249h15.085c0.688,0,1.249-0.561,1.249-1.249V6.738
			c0-0.688-0.561-1.249-1.249-1.249H16.457z"/>
	</g>
	<g>
		<path d="M32.78,36.155H15.219c-0.138,0-0.25-0.111-0.25-0.25c0-0.138,0.112-0.25,0.25-0.25H32.78c0.138,0,0.249,0.112,0.249,0.25
			C33.029,36.044,32.918,36.155,32.78,36.155z"/>
	</g>
	<g>
		<circle cx="24" cy="39.452" r="1.02"/>
	</g>
	<g>
		<g>
			<path d="M23.35,23.451c-0.002,0-0.004,0-0.006,0l0,0l0,0c0,0,0,0-0.001,0l0,0c-0.001,0-0.001,0-0.001,0l0,0
				c-0.023-0.001-0.047-0.005-0.068-0.012l0,0c0-0.001-0.001-0.001-0.001-0.001l0,0l0,0c-0.001,0-0.001,0-0.001,0l0,0l0,0
				c-0.001,0-0.001,0-0.001,0l0,0c0-0.001,0-0.001-0.001-0.001l0,0l0,0c0,0,0,0-0.001,0l0,0h-0.001c0,0,0.001-0.001-0.001-0.001l0,0
				l0,0h-0.001l0,0h-0.001v-0.001c-0.001,0-0.001,0-0.001,0l0,0l0,0c-0.001,0-0.001,0-0.001,0l0,0c0,0,0,0-0.001,0v-0.001l0,0
				h-0.001l0,0l0,0H23.26l0,0c0,0-0.001,0-0.001-0.001l0,0c0,0,0,0-0.001,0l0,0l0,0l0,0c-0.001,0-0.001-0.001-0.001-0.001l0,0
				h-0.001l0,0c0,0,0,0-0.001,0l0,0l0,0l0,0c-0.001-0.001-0.001-0.001-0.001-0.001l0,0c-0.029-0.012-0.057-0.029-0.08-0.053l0,0
				l-2.054-2.021c-0.099-0.097-0.1-0.255-0.003-0.353c0.097-0.1,0.254-0.1,0.354-0.003l1.877,1.847l3.846-3.887
				c0.097-0.098,0.254-0.099,0.354-0.002c0.098,0.097,0.099,0.255,0.002,0.354l-4.021,4.062l0,0
				c-0.016,0.017-0.033,0.03-0.053,0.041l0,0c0,0.001,0,0.001,0,0.001l0,0c-0.001,0-0.001,0-0.001,0h-0.001c0,0,0,0,0,0.001l0,0l0,0
				l0,0c-0.001,0-0.001,0-0.001,0c-0.001,0-0.001,0-0.001,0c0,0.001,0,0.001,0,0.001l0,0l0,0H23.47l0,0
				c-0.001,0.001-0.001,0.001-0.001,0.001l0,0l0,0l0,0h-0.001c0,0,0,0.001-0.001,0.001l0,0l0,0l0,0l0,0
				c-0.001,0-0.001,0-0.001,0.001h-0.001l0,0l0,0l0,0l0,0c-0.001,0-0.001,0.001-0.002,0.001l0,0l0,0l0,0l0,0h-0.001
				c0,0.001,0,0.001-0.001,0.001l0,0l0,0l0,0c0,0,0,0-0.001,0l0,0C23.426,23.442,23.388,23.451,23.35,23.451z"/>
		</g>
		<g>
			<path d="M24.11,27.878h-0.222c-0.039,0-0.078-0.009-0.114-0.027c-3.072-1.576-5.479-6.326-5.479-10.815
				c0-0.138,0.111-0.25,0.25-0.25c2.629,0,5.298-1.605,5.324-1.622c0.08-0.049,0.18-0.049,0.26,0
				c0.027,0.017,2.697,1.622,5.326,1.622c0.138,0,0.25,0.112,0.25,0.25c0,4.489-2.408,9.239-5.48,10.815
				C24.189,27.869,24.15,27.878,24.11,27.878z M23.949,27.379h0.1c2.84-1.496,5.07-5.881,5.154-10.099
				c-2.375-0.082-4.64-1.292-5.203-1.614c-0.564,0.322-2.828,1.532-5.203,1.614C18.881,21.498,21.109,25.882,23.949,27.379z"/>
		</g>
	</g>
</g>
</svg>
