<?xml version="1.0" encoding="utf-8"?>
<!-- Generator: Adobe Illustrator 16.0.0, SVG Export Plug-In . SVG Version: 6.00 Build 0)  -->
<!DOCTYPE svg PUBLIC "-//W3C//DTD SVG 1.1//EN" "http://www.w3.org/Graphics/SVG/1.1/DTD/svg11.dtd">
<svg version="1.1" id="Layer_1" xmlns="http://www.w3.org/2000/svg" xmlns:xlink="http://www.w3.org/1999/xlink" x="0px" y="0px"
	 width="48px" height="48px" viewBox="0 0 48 48" enable-background="new 0 0 48 48" xml:space="preserve">
<g>
	<g>
		<g>
			<path d="M39.367,33.748H8.633c-0.965,0-1.748-0.784-1.748-1.748V11.263c0-0.964,0.783-1.749,1.748-1.749h30.734
				c0.965,0,1.748,0.785,1.748,1.749V32C41.115,32.964,40.332,33.748,39.367,33.748z M8.633,10.014c-0.689,0-1.248,0.56-1.248,1.249
				V32c0,0.688,0.559,1.249,1.248,1.249h30.734c0.689,0,1.25-0.561,1.25-1.249V11.263c0-0.689-0.561-1.249-1.25-1.249H8.633z"/>
		</g>
		<g>
			<path d="M40.865,31.118H7.135c-0.139,0-0.25-0.111-0.25-0.25c0-0.138,0.111-0.25,0.25-0.25h33.73c0.139,0,0.25,0.112,0.25,0.25
				C41.115,31.007,41.004,31.118,40.865,31.118z"/>
		</g>
		<g>
			<g>
				<path d="M17.287,38.174c-0.053,0-0.107-0.017-0.152-0.052c-0.109-0.085-0.129-0.242-0.045-0.352l3.436-4.433
					c0.084-0.109,0.24-0.128,0.35-0.045c0.109,0.085,0.129,0.242,0.045,0.351l-3.434,4.434
					C17.436,38.141,17.363,38.174,17.287,38.174z"/>
			</g>
			<g>
				<path d="M30.713,38.174c-0.074,0-0.148-0.033-0.197-0.097l-3.436-4.434c-0.084-0.108-0.064-0.266,0.045-0.351
					c0.109-0.084,0.266-0.064,0.352,0.045l3.434,4.433c0.084,0.109,0.064,0.267-0.045,0.352
					C30.82,38.157,30.766,38.174,30.713,38.174z"/>
			</g>
		</g>
		<g>
			<path d="M33.365,38.486h-18.73c-0.139,0-0.25-0.112-0.25-0.25s0.111-0.25,0.25-0.25h18.73c0.139,0,0.25,0.112,0.25,0.25
				S33.504,38.486,33.365,38.486z"/>
		</g>
	</g>
	<g>
		<g>
			<path d="M23.352,22.448c-0.062,0-0.125-0.024-0.174-0.072l-2.051-2.017c-0.098-0.097-0.1-0.255-0.004-0.353
				c0.098-0.099,0.256-0.1,0.354-0.003l1.873,1.842l3.836-3.877c0.098-0.098,0.256-0.1,0.354-0.002
				c0.098,0.097,0.1,0.255,0.002,0.353l-4.01,4.054l0,0c-0.016,0.016-0.031,0.027-0.049,0.038l0,0c0,0,0,0,0,0.001l0,0l0,0H23.48
				l0,0l0,0c0,0.001,0,0.001,0,0.001l0,0l0,0h-0.002c0,0,0,0,0,0.001l0,0l0,0l0,0l0,0c-0.002,0-0.002,0-0.002,0.001l0,0l0,0l0,0l0,0
				l0,0c-0.002,0.001-0.002,0.001-0.002,0.001l0,0l0,0l0,0c0,0,0,0,0,0.001l0,0c-0.031,0.017-0.064,0.026-0.098,0.029l0,0v0.001l0,0
				c0,0,0,0-0.002,0l0,0l0,0l0,0l0,0l0,0h-0.002l0,0l0,0l0,0l0,0C23.365,22.447,23.359,22.448,23.352,22.448z"/>
		</g>
		<g>
			<path d="M24.111,26.864h-0.221c-0.041,0-0.08-0.009-0.115-0.027c-3.066-1.572-5.467-6.312-5.467-10.791
				c0-0.138,0.111-0.249,0.25-0.249c2.621,0,5.285-1.602,5.312-1.618c0.08-0.049,0.18-0.049,0.26,0
				c0.025,0.017,2.689,1.618,5.312,1.618c0.137,0,0.248,0.111,0.248,0.249c0,4.479-2.4,9.219-5.467,10.791
				C24.189,26.855,24.15,26.864,24.111,26.864z M23.951,26.365h0.098c2.834-1.492,5.059-5.866,5.141-10.073
				c-2.367-0.083-4.627-1.289-5.189-1.61c-0.562,0.321-2.822,1.527-5.189,1.61C18.895,20.499,21.117,24.872,23.951,26.365z"/>
		</g>
	</g>
</g>
</svg>
