<?xml version="1.0" encoding="utf-8"?>
<!-- Generator: Adobe Illustrator 16.0.0, SVG Export Plug-In . SVG Version: 6.00 Build 0)  -->
<!DOCTYPE svg PUBLIC "-//W3C//DTD SVG 1.1//EN" "http://www.w3.org/Graphics/SVG/1.1/DTD/svg11.dtd">
<svg version="1.1" id="Layer_1" xmlns="http://www.w3.org/2000/svg" xmlns:xlink="http://www.w3.org/1999/xlink" x="0px" y="0px"
	 width="48px" height="48px" viewBox="0 0 48 48" enable-background="new 0 0 48 48" xml:space="preserve">
<g>
	<g>
		<path d="M36.421,43.758H11.578c-0.964,0-1.748-0.784-1.748-1.748V5.99c0-0.964,0.784-1.748,1.748-1.748h24.843
			c0.965,0,1.749,0.784,1.749,1.748v36.02C38.17,42.974,37.386,43.758,36.421,43.758z M11.578,4.741
			c-0.688,0-1.248,0.561-1.248,1.249v36.02c0,0.689,0.56,1.249,1.248,1.249h24.843c0.689,0,1.25-0.56,1.25-1.249V5.99
			c0-0.688-0.561-1.249-1.25-1.249H11.578z"/>
	</g>
	<g>
		<circle cx="24" cy="40.451" r="1.02"/>
	</g>
	<g>
		<path d="M37.708,36.988H10.293c-0.139,0-0.25-0.111-0.25-0.25c0-0.138,0.111-0.249,0.25-0.249h27.415
			c0.137,0,0.249,0.111,0.249,0.249C37.957,36.877,37.845,36.988,37.708,36.988z"/>
	</g>
	<g>
		<g>
			<path d="M23.026,23.3c-0.032,0-0.063-0.006-0.093-0.018l0,0l0,0c0,0,0,0-0.001,0c0,0,0,0-0.001-0.001l0,0l0,0l0,0
				c0,0,0,0-0.001,0l0,0H22.93l0,0V23.28l0,0c0,0-0.002,0-0.001,0c-0.001,0-0.001,0-0.001,0l0,0v-0.001l0,0h-0.001c0,0,0,0-0.001,0
				l0,0l0,0l0,0c0-0.001,0-0.001-0.001-0.001l0,0h-0.001l0,0l0,0l0,0l-0.001-0.001l0,0c-0.001,0-0.001,0-0.001,0l0,0l0,0l0,0
				l-0.001-0.001l0,0c-0.025-0.012-0.05-0.027-0.07-0.049l0,0l-3.081-3.03c-0.098-0.097-0.099-0.254-0.002-0.353
				c0.096-0.1,0.254-0.1,0.354-0.003l2.902,2.855l5.854-5.915c0.098-0.099,0.256-0.1,0.354-0.002
				c0.098,0.097,0.099,0.255,0.002,0.353l-6.028,6.093l0,0c-0.024,0.024-0.052,0.043-0.083,0.056l0,0l0,0l0,0
				c-0.001,0-0.001,0-0.001,0.001c0,0,0,0-0.001,0l0,0l0,0l0,0c0,0,0,0-0.001,0l0,0c0,0.001-0.001,0.001-0.001,0.001l0,0l0,0l0,0
				h-0.001c0,0,0,0-0.001,0c0,0,0,0,0,0.001l0,0l0,0h-0.001l0,0c-0.001,0-0.001,0-0.001,0l0,0l0,0v0.001c-0.001,0-0.001,0-0.001,0
				h-0.001l0,0l0,0l0,0H23.11l-0.001,0.001l0,0l0,0h-0.001h-0.001l0,0v0.001l0,0h-0.001c0,0,0,0-0.001,0l0,0l0,0l0,0
				c0,0,0,0-0.001,0v0.001c-0.001,0-0.001,0-0.001,0l0,0l0,0h-0.001h-0.001l0,0v0.001h-0.001l0,0c-0.001,0-0.001,0-0.001,0l0,0l0,0
				l0,0c-0.001,0-0.001,0-0.001,0c-0.001,0-0.001,0-0.001,0.001l0,0l0,0l0,0c-0.001,0-0.001,0-0.001,0h-0.001l0,0l0,0l0,0
				c0,0-0.001,0-0.001,0.001l0,0c-0.001,0-0.001,0-0.001,0l0,0l0,0c0,0-0.002,0.001-0.001,0c-0.001,0-0.001,0-0.001,0l0,0l0,0v0.001
				c-0.001,0-0.001,0-0.001,0H23.09l0,0l0,0l0,0h-0.001l0,0c-0.001,0-0.001,0-0.001,0l0,0v0.001l0,0c-0.001,0-0.001,0-0.002,0l0,0
				l0,0l0,0c0,0,0,0-0.001,0l0,0h-0.001l0,0l0,0c0,0,0,0,0,0.001h-0.001c0,0,0,0-0.001,0l0,0l0,0l0,0c0,0,0,0-0.001,0
				c0,0,0,0-0.001,0l0,0l0,0l0,0l-0.001,0.001c-0.001,0-0.001,0-0.001,0l0,0l0,0l0,0c-0.001,0-0.001,0-0.001,0h-0.001l0,0l0,0l0,0
				h-0.001c0,0,0,0-0.001,0l0,0c0,0.001,0,0.001,0,0.001l0,0c0,0,0,0-0.001,0l0,0h-0.001l0,0l0,0l0,0c-0.001,0-0.001,0-0.001,0
				c-0.001,0-0.001,0-0.001,0l0,0l0,0l0,0c-0.001,0-0.001,0-0.001,0l-0.001,0.001l0,0l0,0l0,0h-0.001c0,0,0,0-0.001,0l0,0l0,0l0,0
				c0,0,0,0-0.001,0l0,0c-0.001,0-0.001,0-0.001,0l0,0l0,0l0,0c-0.001,0-0.001,0-0.001,0c-0.001,0-0.001,0-0.001,0
				c0,0.001,0,0.001,0,0.001l0,0l0,0c-0.001,0-0.001,0-0.001,0h-0.001l0,0l0,0l0,0H23.06l0,0c-0.001,0-0.001,0-0.001,0l0,0l0,0l0,0
				C23.047,23.3,23.037,23.3,23.026,23.3z"/>
		</g>
		<g>
			<path d="M24.166,29.938h-0.332c-0.039,0-0.078-0.009-0.114-0.027c-4.569-2.343-8.149-9.417-8.149-16.105
				c0-0.138,0.111-0.25,0.25-0.25c3.982,0,8.01-2.425,8.05-2.449c0.079-0.049,0.18-0.049,0.26,0c0.04,0.024,4.072,2.449,8.05,2.449
				c0.138,0,0.249,0.112,0.249,0.25c0,6.688-3.579,13.763-8.149,16.105C24.244,29.929,24.205,29.938,24.166,29.938z M23.895,29.438
				h0.211c4.336-2.264,7.736-8.97,7.822-15.387c-3.672-0.086-7.202-2.022-7.928-2.442c-0.726,0.42-4.256,2.356-7.928,2.442
				C16.157,20.468,19.559,27.174,23.895,29.438z"/>
		</g>
	</g>
</g>
</svg>
