<?xml version="1.0" encoding="utf-8"?>
<!-- Generator: Adobe Illustrator 16.0.0, SVG Export Plug-In . SVG Version: 6.00 Build 0)  -->
<!DOCTYPE svg PUBLIC "-//W3C//DTD SVG 1.1//EN" "http://www.w3.org/Graphics/SVG/1.1/DTD/svg11.dtd">
<svg version="1.1" id="Layer_1" xmlns="http://www.w3.org/2000/svg" xmlns:xlink="http://www.w3.org/1999/xlink" x="0px" y="0px"
	 width="48px" height="48px" viewBox="0 0 48 48" enable-background="new 0 0 48 48" xml:space="preserve">
<g>
	<g>
		<g>
			<path d="M28.718,35.704H17.485c-1.515,0-2.748-1.232-2.748-2.747V19.138c0-1.515,1.233-2.747,2.748-2.747h11.232
				c1.514,0,2.747,1.232,2.747,2.747v13.819C31.465,34.472,30.231,35.704,28.718,35.704z M17.485,16.891
				c-1.24,0-2.248,1.008-2.248,2.247v13.819c0,1.239,1.008,2.248,2.248,2.248h11.232c1.239,0,2.247-1.009,2.247-2.248V19.138
				c0-1.239-1.008-2.247-2.247-2.247H17.485z"/>
		</g>
		<g>
			<path d="M33.013,24.104c-0.138,0-0.25-0.111-0.25-0.25v-3.126c0-0.138,0.112-0.249,0.25-0.249c0.139,0,0.25,0.111,0.25,0.249
				v3.126C33.263,23.993,33.151,24.104,33.013,24.104z"/>
		</g>
		<g>
			<path d="M28.216,15.049c-0.139,0-0.25-0.111-0.25-0.25v-3.478c0-0.413-0.336-0.749-0.75-0.749h-8.229
				c-0.413,0-0.749,0.336-0.749,0.749v3.478c0,0.139-0.111,0.25-0.25,0.25c-0.138,0-0.25-0.111-0.25-0.25v-3.478
				c0-0.688,0.561-1.249,1.249-1.249h8.229c0.689,0,1.249,0.561,1.249,1.249v3.478C28.465,14.938,28.354,15.049,28.216,15.049z"/>
		</g>
		<g>
			<path d="M27.216,42.022h-8.229c-0.688,0-1.249-0.561-1.249-1.249v-3.478c0-0.138,0.112-0.25,0.25-0.25
				c0.139,0,0.25,0.112,0.25,0.25v3.478c0,0.413,0.336,0.749,0.749,0.749h8.229c0.414,0,0.75-0.336,0.75-0.749v-3.478
				c0-0.138,0.111-0.25,0.25-0.25c0.138,0,0.249,0.112,0.249,0.25v3.478C28.465,41.462,27.905,42.022,27.216,42.022z"/>
		</g>
	</g>
	<g>
		<g>
			<path d="M22.541,27.762c-0.015,0-0.029-0.002-0.044-0.004l0,0h-0.001l0,0l-0.001-0.001l0,0l0,0l0,0c-0.001,0-0.001,0-0.001,0l0,0
				h-0.001l0,0l0,0c-0.001,0-0.001,0-0.001,0l0,0l0,0h-0.001l0,0l-0.001-0.001l0,0l0,0h-0.001l0,0l0,0c-0.001,0-0.001,0-0.001,0l0,0
				h-0.001l0,0l0,0h-0.001c0,0-0.001,0,0-0.001h-0.001l0,0c0,0,0,0-0.001,0l0,0l0,0h-0.001l0,0l0,0c-0.001,0-0.001,0-0.001,0l0,0
				l-0.001-0.001l0,0H22.48l0,0h-0.001l0,0l0,0h-0.001l0,0l-0.001-0.001l0,0l0,0h-0.001l0,0l0,0c-0.001,0-0.001,0-0.001,0l0,0
				h-0.001l0,0v-0.001h-0.001l0,0l0,0h-0.001l0,0c0,0,0,0-0.001,0l0,0l0,0l0,0c-0.001-0.001-0.001-0.001-0.001-0.001l0,0H22.47l0,0
				h-0.001l0,0l0,0l0,0c-0.001,0-0.001,0-0.001-0.001l0,0h-0.001l0,0c0,0,0,0-0.001,0l0,0l0,0l0,0h-0.001l0,0
				c0-0.001-0.001-0.001-0.001-0.001l0,0l0,0h-0.001l0,0l0,0c-0.001,0-0.001,0-0.001,0s0.001-0.001-0.001-0.001l0,0l0,0l0,0
				c-0.001,0-0.001,0-0.001,0l0,0h-0.001l0,0c0-0.001,0-0.001-0.001-0.001l0,0l0,0l0,0h-0.001l0,0h-0.001l0,0
				c0-0.001,0-0.001,0-0.001h-0.001l0,0l0,0c-0.001,0-0.001,0-0.001,0l0,0h-0.001v-0.001l0,0l0,0c-0.001,0-0.001,0-0.001,0l0,0
				h-0.001l0,0c0,0,0-0.001-0.001-0.001l0,0l0,0l0,0h-0.001l0,0c0,0,0,0-0.001,0l0,0c0-0.001,0-0.001,0-0.001h-0.001l0,0l0,0h-0.001
				l0,0l-0.001-0.001l0,0l0,0l0,0c-0.001,0-0.001,0-0.001,0l0,0l-0.001-0.001l0,0h-0.001l0,0l0,0h-0.001l0,0
				c0-0.001,0-0.001-0.001-0.001l0,0l0,0l0,0h-0.001l0,0c0,0,0-0.001-0.001-0.001l0,0l0,0h-0.001l0,0l0,0l-0.001-0.001l0,0l0,0
				c-0.001,0-0.001,0-0.001,0l0,0l0,0l-0.001-0.001l0,0c0,0,0,0-0.001,0l0,0l0,0h-0.001v-0.001l0,0c0,0,0,0-0.001,0l0,0l0,0h-0.001
				v-0.001l0,0H22.43l0,0l0,0h-0.001c0-0.001,0-0.001,0-0.001l0,0c-0.001,0-0.001,0-0.001,0l0,0l0,0c0,0-0.001,0-0.001-0.001l0,0
				c0,0,0,0-0.001,0l0,0l0,0l0,0l-0.001-0.001l0,0h-0.001l0,0l-0.001-0.001l0,0h-0.001l0,0l0,0l-0.001-0.001l0,0l0,0H22.42l0,0
				v-0.001h-0.001l0,0h-0.001l0,0c0-0.001,0-0.001,0-0.001h-0.001l0,0l0,0c0,0-0.001,0-0.001-0.001l0,0h-0.001l0,0l0,0l0,0
				l-0.001-0.001l0,0h-0.001l0,0c0,0,0,0,0-0.001l0,0c-0.001,0-0.002-0.001-0.003-0.001l0,0c-0.006-0.004-0.012-0.008-0.018-0.013
				l0,0c-0.001,0-0.001,0-0.002-0.001l0,0l0,0l0,0c0,0-0.001,0-0.001-0.001l0,0l0,0h-0.001c0,0,0,0,0-0.001l0,0h-0.001l0,0l0,0
				c0-0.001,0-0.001,0-0.001h-0.001l0,0l-0.001-0.001l0,0h-0.001l0,0c0-0.001,0-0.001,0-0.001l0,0c-0.001,0-0.001,0-0.001,0l0,0
				c0-0.001,0-0.001,0-0.001h-0.001l0,0l0,0c0-0.001-0.001-0.001-0.001-0.001l0,0c-0.006-0.005-0.011-0.01-0.016-0.015l-1.771-1.742
				c-0.099-0.097-0.1-0.255-0.003-0.353c0.096-0.1,0.254-0.1,0.353-0.003l1.595,1.567l3.291-3.326
				c0.097-0.098,0.255-0.1,0.353-0.002c0.099,0.097,0.1,0.255,0.002,0.353l-3.466,3.503l0,0c-0.017,0.018-0.035,0.031-0.056,0.043
				l0,0l0,0l0,0c0,0.001-0.001,0.001-0.001,0.001l0,0h-0.001l0,0v0.001H22.66h-0.001l0,0v0.001l0,0c-0.001,0-0.001,0-0.001,0h-0.001
				l0,0c0,0,0,0,0,0.001l0,0c0,0,0,0-0.001,0l0,0h-0.001l0,0v0.001l0,0h-0.001l0,0C22.619,27.753,22.58,27.762,22.541,27.762z"/>
		</g>
		<g>
			<path d="M23.196,31.578h-0.19c-0.039,0-0.078-0.009-0.114-0.027c-2.66-1.364-4.744-5.474-4.744-9.355
				c0-0.138,0.112-0.249,0.25-0.249c2.261,0,4.551-1.379,4.574-1.393c0.079-0.049,0.18-0.049,0.259,0
				c0.023,0.014,2.318,1.393,4.574,1.393c0.138,0,0.25,0.111,0.25,0.249c0,3.883-2.084,7.991-4.744,9.355
				C23.274,31.569,23.235,31.578,23.196,31.578z M23.067,31.079h0.068c2.428-1.284,4.333-5.028,4.416-8.639
				c-2.019-0.081-3.938-1.094-4.45-1.385c-0.513,0.291-2.433,1.304-4.451,1.385C18.733,26.051,20.64,29.794,23.067,31.079z"/>
		</g>
	</g>
</g>
</svg>
