<?xml version="1.0" encoding="utf-8"?>
<!-- Generator: Adobe Illustrator 16.0.0, SVG Export Plug-In . SVG Version: 6.00 Build 0)  -->
<!DOCTYPE svg PUBLIC "-//W3C//DTD SVG 1.1//EN" "http://www.w3.org/Graphics/SVG/1.1/DTD/svg11.dtd">
<svg version="1.1" id="Layer_1" xmlns="http://www.w3.org/2000/svg" xmlns:xlink="http://www.w3.org/1999/xlink" x="0px" y="0px"
	 width="48px" height="48px" viewBox="0 0 48 48" enable-background="new 0 0 48 48" xml:space="preserve">
<g>
	<g>
		<g>
			<path d="M39.362,33.437H8.628c-0.964,0-1.748-0.785-1.748-1.749V10.95c0-0.964,0.784-1.748,1.748-1.748h30.734
				c0.965,0,1.748,0.784,1.748,1.748v20.737C41.11,32.651,40.327,33.437,39.362,33.437z M8.628,9.701
				c-0.689,0-1.249,0.561-1.249,1.249v20.737c0,0.689,0.56,1.249,1.249,1.249h30.734c0.689,0,1.249-0.56,1.249-1.249V10.95
				c0-0.688-0.56-1.249-1.249-1.249H8.628z"/>
		</g>
		<g>
			<path d="M43.896,38.798c-0.002,0-0.006,0-0.01,0H4.105c-0.097,0-0.186-0.057-0.227-0.144c-0.041-0.089-0.027-0.192,0.036-0.267
				l2.951-3.497c0.047-0.057,0.117-0.089,0.191-0.089h33.876c0.073,0,0.144,0.032,0.19,0.089l2.916,3.455
				c0.063,0.045,0.104,0.119,0.104,0.203C44.145,38.687,44.032,38.798,43.896,38.798z M4.643,38.299h38.705l-2.53-2.997H7.173
				L4.643,38.299z"/>
		</g>
		<g>
			<path d="M40.861,30.806H7.13c-0.139,0-0.25-0.111-0.25-0.249c0-0.139,0.111-0.25,0.25-0.25h33.731
				c0.138,0,0.249,0.111,0.249,0.25C41.11,30.694,40.999,30.806,40.861,30.806z"/>
		</g>
	</g>
	<g>
		<g>
			<path d="M23.316,22.53c-0.038,0-0.075-0.009-0.11-0.025l0,0v-0.001l0,0h-0.001l0,0c-0.001,0-0.001,0-0.001,0l0,0v-0.001l0,0
				c-0.001,0-0.001,0-0.001,0l0,0c-0.001,0-0.001,0-0.001,0l0,0c0-0.001,0-0.001,0-0.001l0,0c-0.001,0-0.001,0-0.002,0l0,0l0,0
				c0-0.001,0-0.001,0-0.001l0,0l0,0c-0.001,0-0.001,0-0.002,0l0,0c0,0,0,0,0-0.001l0,0l0,0h-0.001c0,0,0,0-0.001,0l0,0v-0.001l0,0
				h-0.001c0,0,0,0-0.001,0c0,0,0,0,0-0.001l0,0c0,0,0.001-0.001-0.001,0l0,0c0,0-0.001,0-0.001-0.001l0,0l0,0l0,0c0,0,0,0-0.001,0
				l0,0c0-0.001-0.001-0.001-0.001-0.001l0,0l0,0l0,0c0,0,0,0-0.001-0.001l0,0h-0.001l0,0l0,0l0,0c0-0.001,0-0.001-0.001-0.001l0,0
				h-0.001l0,0v-0.001c0,0-0.002,0-0.001,0h-0.001c0,0,0,0,0-0.001l0,0l0,0c0,0,0,0-0.001,0l0,0l-0.001-0.001l0,0c0,0,0-0.001,0,0
				c0,0,0-0.001-0.001-0.001h-0.001l0,0l0,0l0,0c0,0,0-0.001-0.001-0.001l0,0h-0.001l0,0v-0.001l0,0c0,0,0,0-0.001,0l0,0
				c0,0-0.001,0-0.001-0.001l0,0l0,0l0,0c0,0,0,0-0.001,0v-0.001h-0.001l0,0l0,0l0,0c0-0.001,0-0.001-0.001-0.001l0,0h-0.001l0,0
				v-0.001l0,0c0,0,0,0-0.001,0l0,0l-0.001-0.001l0,0l0,0l0,0c0,0,0,0-0.001-0.001l0,0c0,0,0,0-0.001,0l0,0c0,0,0,0,0-0.001l0,0
				c0,0,0,0-0.001,0l0,0c-0.009-0.007-0.019-0.015-0.026-0.023l-2.15-2.114c-0.099-0.097-0.1-0.255-0.003-0.353
				c0.097-0.1,0.255-0.1,0.353-0.003l1.973,1.939l4.03-4.073c0.097-0.099,0.255-0.1,0.354-0.002
				c0.099,0.097,0.099,0.255,0.002,0.353l-4.206,4.251c-0.007,0.007-0.015,0.014-0.022,0.021l0,0H23.47l0,0v0.001l0,0
				c0,0,0,0-0.001,0l0,0l-0.001,0.001l0,0l0,0l0,0c0,0,0,0.001-0.001,0.001l0,0h-0.001l0,0v0.001l0,0l0,0c-0.001,0-0.001,0-0.001,0
				s0,0.001-0.001,0.001l0,0l0,0l0,0v0.001h-0.001c0,0,0,0-0.001,0l0,0c0,0,0,0,0,0.001l0,0l0,0h-0.001l-0.001,0.001l0,0l0,0l0,0
				c0,0.001-0.001,0.001-0.001,0.001l0,0c-0.001,0-0.001,0-0.001,0l0,0v0.001l0,0h-0.001l0,0c-0.001,0-0.001,0-0.001,0.001l0,0l0,0
				l0,0h-0.001c0,0.001,0,0.001,0,0.001c-0.001,0-0.001,0-0.001,0l0,0l0,0l0,0c0,0.001-0.001,0.001-0.001,0.001l0,0
				c-0.001,0-0.001,0-0.001,0l0,0v0.001l0,0h-0.001l0,0c-0.001,0-0.001,0-0.001,0.001l0,0l0,0h-0.001v0.001
				c-0.001,0-0.001,0-0.001,0l0,0l0,0l0,0l-0.001,0.001c0,0,0,0-0.001,0l0,0l0,0c0,0,0,0,0,0.001l0,0c-0.001,0-0.001,0-0.001,0
				h-0.001l0,0l0,0c0,0.001,0,0.001,0,0.001l0,0c-0.001,0-0.001,0-0.001,0c-0.001,0-0.001,0-0.001,0s0,0,0,0.001l0,0l0,0l0,0
				c-0.001,0-0.001,0-0.002,0l0,0c0,0.001,0,0.001,0,0.001l0,0l0,0h-0.001c0,0,0,0-0.001,0.001l0,0l0,0l0,0l0,0
				c-0.001,0-0.001,0-0.001,0c0,0.001,0,0.001-0.001,0.001l0,0l0,0l0,0L23.436,22.5h-0.001l0,0l0,0l0,0c0,0,0,0.001-0.001,0.001l0,0
				h-0.001l0,0l0,0l0,0c0,0.001-0.001,0.001-0.001,0.001l0,0c-0.001,0-0.001,0-0.001,0l0,0l0,0v0.001c-0.001,0-0.001,0-0.001,0
				s0.001,0-0.001,0l0,0c0,0,0,0,0,0.001c0,0,0,0-0.001,0l0,0c-0.001,0-0.001,0-0.001,0l0,0l0,0v0.001h-0.001c0,0,0,0-0.001,0l0,0
				l0,0l0,0v0.001c-0.001,0-0.001,0-0.001,0h-0.001l0,0l0,0l0,0c0,0.001,0,0.001-0.001,0.001l0,0c-0.001,0-0.001,0-0.001,0l0,0l0,0
				l0,0c-0.001,0.001-0.001,0.001-0.001,0.001s0,0-0.001,0l0,0l0,0l0,0c0,0,0,0-0.001,0v0.001h-0.001l0,0l0,0l0,0h-0.001
				l-0.001,0.001l0,0l0,0l0,0c-0.001,0-0.001,0-0.001,0c-0.001,0-0.001,0-0.001,0c0,0.001,0,0.001,0,0.001l0,0l0,0h-0.001
				c0,0,0,0-0.001,0l0,0c0,0,0,0,0,0.001l0,0c0,0,0,0-0.001,0l0,0h-0.001l0,0l0,0v0.001h-0.001l0,0c-0.001,0-0.001,0-0.001,0l0,0
				l0,0l0,0c-0.001,0-0.001,0.001-0.001,0.001h-0.001l0,0l0,0l0,0c-0.001,0-0.001,0-0.001,0h-0.001l0,0c0,0.001,0,0.001,0,0.001l0,0
				c0,0,0,0-0.001,0l0,0h-0.001l0,0c0,0,0,0,0,0.001l0,0H23.4l0,0c-0.001,0-0.001,0-0.001,0l0,0c0,0-0.001,0-0.002,0.001l0,0l0,0
				l0,0c-0.021,0.007-0.043,0.012-0.064,0.013l0,0h-0.001l0,0c-0.001,0-0.001,0-0.001,0l0,0l0,0c0,0,0,0-0.001,0c0,0,0,0-0.001,0
				l0,0l0,0l0,0c0,0,0,0-0.001,0l0,0c-0.001,0-0.001,0-0.001,0l0,0c0,0,0,0,0,0.001l0,0c-0.001,0-0.001,0-0.001,0h-0.001l0,0
				C23.322,22.53,23.319,22.53,23.316,22.53z"/>
		</g>
		<g>
			<path d="M24.11,27.16h-0.23c-0.04,0-0.079-0.009-0.114-0.027c-3.211-1.646-5.727-6.611-5.727-11.303
				c0-0.138,0.112-0.25,0.249-0.25c2.758,0,5.549-1.68,5.577-1.697c0.079-0.049,0.18-0.049,0.26,0
				c0.028,0.017,2.823,1.697,5.577,1.697c0.138,0,0.249,0.112,0.249,0.25c0,4.692-2.516,9.656-5.726,11.303
				C24.189,27.151,24.15,27.16,24.11,27.16z M23.94,26.661h0.109c2.979-1.567,5.315-6.165,5.399-10.586
				c-2.493-0.082-4.874-1.357-5.454-1.689c-0.58,0.332-2.961,1.607-5.454,1.689C18.625,20.496,20.962,25.094,23.94,26.661z"/>
		</g>
	</g>
</g>
</svg>
