<?xml version="1.0" encoding="utf-8"?>
<!-- Generator: Adobe Illustrator 16.0.0, SVG Export Plug-In . SVG Version: 6.00 Build 0)  -->
<!DOCTYPE svg PUBLIC "-//W3C//DTD SVG 1.1//EN" "http://www.w3.org/Graphics/SVG/1.1/DTD/svg11.dtd">
<svg version="1.1" id="Layer_1" xmlns="http://www.w3.org/2000/svg" xmlns:xlink="http://www.w3.org/1999/xlink" x="0px" y="0px"
	 width="128px" height="128px" viewBox="0 0 128 128" enable-background="new 0 0 128 128" xml:space="preserve">
<g>
	<g>
		<path fill="none" stroke="#000000" stroke-width="2" stroke-linecap="round" stroke-linejoin="round" stroke-miterlimit="10" d="
			M74.934,64c0,0-5.819,7.559-12.993,7.559C54.763,71.559,48.947,64,48.947,64s5.815-7.558,12.993-7.558
			C69.114,56.442,74.934,64,74.934,64z"/>
		<path fill="none" stroke="#000000" stroke-width="2" stroke-linecap="round" stroke-linejoin="round" stroke-miterlimit="10" d="
			M65.878,64c0,2.174-1.763,3.941-3.938,3.941c-2.179,0-3.939-1.768-3.939-3.941c0-2.173,1.761-3.935,3.939-3.935
			C64.115,60.065,65.878,61.827,65.878,64z"/>
		<circle cx="61.94" cy="64" r="1.264"/>
	</g>
	<g>
		<g>
			<path d="M75.525,86.549H48.354c-3.309,0-6-2.691-6-6V47.451c0-3.309,2.691-6,6-6h27.171c3.309,0,6,2.691,6,6v33.098
				C81.525,83.857,78.834,86.549,75.525,86.549z M48.354,43.451c-2.206,0-4,1.794-4,4v33.098c0,2.206,1.794,4,4,4h27.171
				c2.206,0,4-1.794,4-4V47.451c0-2.206-1.794-4-4-4H48.354z"/>
		</g>
		<g>
			<path d="M84.646,59.982c-0.552,0-1-0.448-1-1v-7.163c0-0.552,0.448-1,1-1s1,0.448,1,1v7.163
				C85.646,59.535,85.198,59.982,84.646,59.982z"/>
		</g>
		<g>
			<path d="M73.654,39.233c-0.552,0-1-0.448-1-1v-8.251c0-0.551-0.449-1-1-1H52.227c-0.551,0-1,0.449-1,1v8.251c0,0.552-0.448,1-1,1
				s-1-0.448-1-1v-8.251c0-1.654,1.346-3,3-3h19.428c1.654,0,3,1.346,3,3v8.251C74.654,38.786,74.207,39.233,73.654,39.233z"/>
		</g>
		<g>
			<path d="M71.654,101.021H52.227c-1.654,0-3-1.346-3-3v-8.253c0-0.552,0.448-1,1-1s1,0.448,1,1v8.253c0,0.551,0.449,1,1,1h19.428
				c0.551,0,1-0.449,1-1v-8.253c0-0.552,0.448-1,1-1s1,0.448,1,1v8.253C74.654,99.675,73.309,101.021,71.654,101.021z"/>
		</g>
	</g>
</g>
</svg>
