<?xml version="1.0" encoding="utf-8"?>
<!-- Generator: Adobe Illustrator 16.0.0, SVG Export Plug-In . SVG Version: 6.00 Build 0)  -->
<!DOCTYPE svg PUBLIC "-//W3C//DTD SVG 1.1//EN" "http://www.w3.org/Graphics/SVG/1.1/DTD/svg11.dtd">
<svg version="1.1" id="Layer_1" xmlns="http://www.w3.org/2000/svg" xmlns:xlink="http://www.w3.org/1999/xlink" x="0px" y="0px"
	 width="128px" height="128px" viewBox="0 0 128 128" enable-background="new 0 0 128 128" xml:space="preserve">
<g>
	<g>
		<path d="M64,66.618c-7.388,0-13.192-7.43-13.436-7.747c-0.277-0.359-0.277-0.86,0-1.22c0.243-0.316,6.048-7.742,13.436-7.742
			c7.392,0,13.193,7.426,13.436,7.743c0.277,0.359,0.277,0.86,0,1.22C77.193,59.188,71.392,66.618,64,66.618z M52.663,58.262
			c1.498,1.7,6.082,6.356,11.337,6.356c5.259,0,9.841-4.657,11.338-6.356c-1.497-1.698-6.079-6.353-11.338-6.353
			C58.744,51.909,54.16,56.563,52.663,58.262z"/>
	</g>
	<g>
		<path d="M64,63.06c-2.644,0-4.794-2.152-4.794-4.798c0-2.644,2.15-4.794,4.794-4.794c2.646,0,4.798,2.15,4.798,4.794
			C68.798,60.907,66.646,63.06,64,63.06z M64,55.468c-1.541,0-2.794,1.253-2.794,2.794c0,1.543,1.253,2.798,2.794,2.798
			c1.543,0,2.798-1.255,2.798-2.798C66.798,56.721,65.543,55.468,64,55.468z"/>
	</g>
	<g>
		<circle cx="64" cy="58.264" r="1.517"/>
	</g>
	<g>
		<path d="M66.67,99.854c0,1.474-1.193,2.668-2.67,2.668c-1.475,0-2.673-1.194-2.673-2.668s1.198-2.673,2.673-2.673
			C65.477,97.182,66.67,98.381,66.67,99.854z"/>
	</g>
	<g>
		<path d="M81.71,107.973H46.29c-2.206,0-4-1.794-4-4V24.03c0-2.206,1.794-4,4-4h35.42c2.206,0,4,1.794,4,4v79.942
			C85.71,106.178,83.916,107.973,81.71,107.973z M46.29,22.03c-1.103,0-2,0.897-2,2v79.942c0,1.103,0.897,2,2,2h35.42
			c1.103,0,2-0.897,2-2V24.03c0-1.103-0.897-2-2-2H46.29z"/>
	</g>
	<g>
		<path d="M84.115,92.27H43.887c-0.552,0-1-0.448-1-1s0.448-1,1-1h40.229c0.552,0,1,0.448,1,1S84.667,92.27,84.115,92.27z"/>
	</g>
</g>
</svg>
