<?xml version="1.0" encoding="utf-8"?>
<!-- Generator: Adobe Illustrator 16.0.0, SVG Export Plug-In . SVG Version: 6.00 Build 0)  -->
<!DOCTYPE svg PUBLIC "-//W3C//DTD SVG 1.1//EN" "http://www.w3.org/Graphics/SVG/1.1/DTD/svg11.dtd">
<svg version="1.1" id="Layer_1" xmlns="http://www.w3.org/2000/svg" xmlns:xlink="http://www.w3.org/1999/xlink" x="0px" y="0px"
	 width="128px" height="128px" viewBox="0 0 128 128" enable-background="new 0 0 128 128" xml:space="preserve">
<g>
	<g>
		<path fill="none" stroke="#000000" stroke-width="2" stroke-linecap="round" stroke-linejoin="round" stroke-miterlimit="10" d="
			M81.467,55.976c0,0-7.82,10.158-17.467,10.158c-9.647,0-17.464-10.158-17.464-10.158S54.353,45.814,64,45.814
			C73.646,45.814,81.467,55.976,81.467,55.976z"/>
		
			<circle fill="none" stroke="#000000" stroke-width="2" stroke-linecap="round" stroke-linejoin="round" stroke-miterlimit="10" cx="64.001" cy="55.976" r="5.856"/>
		<path d="M64,58.315c-1.288,0-2.339-1.05-2.339-2.34c0-1.292,1.051-2.341,2.339-2.341c1.292,0,2.341,1.049,2.341,2.341
			C66.341,57.266,65.292,58.315,64,58.315z"/>
	</g>
	<g>
		<g>
			<path d="M99.633,86.045H28.367c-2.206,0-4-1.794-4-4V33.678c0-2.206,1.794-4,4-4h71.266c2.206,0,4,1.794,4,4v48.367
				C103.633,84.25,101.838,86.045,99.633,86.045z M28.367,31.678c-1.103,0-2,0.897-2,2v48.367c0,1.103,0.897,2,2,2h71.266
				c1.103,0,2-0.897,2-2V33.678c0-1.103-0.897-2-2-2H28.367z"/>
		</g>
		<g>
			<path d="M109.581,98.328c-0.006-0.001-0.013,0-0.02,0H18.439c-0.389,0-0.743-0.226-0.907-0.579
				c-0.164-0.353-0.108-0.769,0.143-1.066l6.762-8.012c0.19-0.225,0.47-0.355,0.764-0.355h77.6c0.294,0,0.574,0.13,0.764,0.355
				l6.656,7.889c0.22,0.183,0.36,0.459,0.36,0.768C110.581,97.88,110.133,98.328,109.581,98.328z M20.592,96.328h86.816
				l-5.072-6.012h-76.67L20.592,96.328z"/>
		</g>
		<g>
			<path d="M102.633,80.018H25.367c-0.552,0-1-0.448-1-1s0.448-1,1-1h77.266c0.552,0,1,0.448,1,1S103.185,80.018,102.633,80.018z"/>
		</g>
	</g>
</g>
</svg>
