<?xml version="1.0" encoding="utf-8"?>
<!-- Generator: Adobe Illustrator 16.0.0, SVG Export Plug-In . SVG Version: 6.00 Build 0)  -->
<!DOCTYPE svg PUBLIC "-//W3C//DTD SVG 1.1//EN" "http://www.w3.org/Graphics/SVG/1.1/DTD/svg11.dtd">
<svg version="1.1" id="Layer_1" xmlns="http://www.w3.org/2000/svg" xmlns:xlink="http://www.w3.org/1999/xlink" x="0px" y="0px"
	 width="128px" height="128px" viewBox="0 0 128 128" enable-background="new 0 0 128 128" xml:space="preserve">
<g>
	<g>
		<path fill="none" stroke="#000000" stroke-width="2" stroke-linecap="round" stroke-linejoin="round" stroke-miterlimit="10" d="
			M83.461,55.976c0,0-8.712,11.319-19.463,11.319c-10.746,0-19.46-11.319-19.46-11.319s8.714-11.32,19.46-11.32
			C74.749,44.655,83.461,55.976,83.461,55.976z"/>
		<path fill="none" stroke="#000000" stroke-width="2" stroke-linecap="round" stroke-linejoin="round" stroke-miterlimit="10" d="
			M72.014,55.976c0,4.426-3.586,8.015-8.016,8.015c-4.423,0-8.014-3.589-8.014-8.015c0-4.428,3.591-8.016,8.014-8.016
			C68.428,47.96,72.014,51.548,72.014,55.976z"/>
		<path d="M63.998,59.176c-1.764,0-3.201-1.432-3.201-3.2s1.437-3.203,3.201-3.203c1.768,0,3.207,1.435,3.207,3.203
			S65.766,59.176,63.998,59.176z"/>
	</g>
	<g>
		<g>
			<path d="M99.633,86.76H28.367c-2.206,0-4-1.794-4-4V34.39c0-2.206,1.794-4,4-4h71.267c2.206,0,4,1.794,4,4v48.37
				C103.633,84.965,101.839,86.76,99.633,86.76z M28.367,32.39c-1.103,0-2,0.897-2,2v48.37c0,1.103,0.897,2,2,2h71.267
				c1.103,0,2-0.897,2-2V34.39c0-1.103-0.897-2-2-2H28.367z"/>
		</g>
		<g>
			<path d="M102.633,80.73H25.367c-0.552,0-1-0.448-1-1s0.448-1,1-1h77.267c0.552,0,1,0.448,1,1S103.186,80.73,102.633,80.73z"/>
		</g>
		<g>
			<g>
				<path d="M48.623,96.898c-0.214,0-0.43-0.068-0.612-0.209c-0.437-0.338-0.517-0.966-0.178-1.403l7.868-10.158
					c0.338-0.438,0.967-0.516,1.403-0.178c0.437,0.338,0.517,0.966,0.178,1.403l-7.868,10.158
					C49.217,96.765,48.921,96.898,48.623,96.898z"/>
			</g>
			<g>
				<path d="M79.376,96.898c-0.298,0-0.594-0.133-0.791-0.388l-7.87-10.158c-0.338-0.437-0.258-1.064,0.178-1.403
					c0.436-0.337,1.063-0.259,1.403,0.178l7.87,10.158c0.338,0.437,0.258,1.064-0.178,1.403
					C79.806,96.83,79.591,96.898,79.376,96.898z"/>
			</g>
		</g>
		<g>
			<path d="M85.454,97.611H42.548c-0.552,0-1-0.448-1-1s0.448-1,1-1h42.906c0.552,0,1,0.448,1,1S86.006,97.611,85.454,97.611z"/>
		</g>
	</g>
</g>
</svg>
