<?xml version="1.0" encoding="utf-8"?>
<!-- Generator: Adobe Illustrator 16.0.0, SVG Export Plug-In . SVG Version: 6.00 Build 0)  -->
<!DOCTYPE svg PUBLIC "-//W3C//DTD SVG 1.1//EN" "http://www.w3.org/Graphics/SVG/1.1/DTD/svg11.dtd">
<svg version="1.1" id="Layer_1" xmlns="http://www.w3.org/2000/svg" xmlns:xlink="http://www.w3.org/1999/xlink" x="0px" y="0px"
	 width="128px" height="128px" viewBox="0 0 128 128" enable-background="new 0 0 128 128" xml:space="preserve">
<g>
	<g>
		<path d="M64,69.438c-11.112,0-19.885-11.229-20.253-11.707c-0.277-0.359-0.277-0.86,0-1.22C44.115,56.033,52.887,44.8,64,44.8
			c11.112,0,19.885,11.233,20.253,11.711c0.277,0.359,0.277,0.86,0,1.22C83.885,58.209,75.112,69.438,64,69.438z M45.835,57.121
			C47.804,59.421,55.288,67.438,64,67.438c8.711,0,16.195-8.015,18.164-10.316C80.195,54.818,72.711,46.8,64,46.8
			C55.273,46.8,47.801,54.818,45.835,57.121z"/>
	</g>
	<g>
		<path d="M64,66.133c-4.974,0-9.02-4.042-9.02-9.012c0-4.974,4.046-9.021,9.02-9.021c4.972,0,9.016,4.046,9.016,9.021
			C73.016,62.09,68.972,66.133,64,66.133z M64,50.101c-3.871,0-7.02,3.149-7.02,7.021c0,3.866,3.149,7.012,7.02,7.012
			c3.869,0,7.016-3.146,7.016-7.012C71.016,53.25,67.869,50.101,64,50.101z"/>
	</g>
	<g>
		<path d="M64,60.321c-1.768,0-3.201-1.435-3.201-3.2c0-1.769,1.433-3.209,3.201-3.209s3.205,1.44,3.205,3.209
			C67.205,58.887,65.768,60.321,64,60.321z"/>
	</g>
	<g>
		<path d="M92.885,109.686h-57.77c-2.206,0-4-1.794-4-4V22.314c0-2.206,1.794-4,4-4h57.77c2.206,0,4,1.794,4,4v83.371
			C96.885,107.891,95.09,109.686,92.885,109.686z M35.115,20.314c-1.103,0-2,0.897-2,2v83.371c0,1.103,0.897,2,2,2h57.77
			c1.103,0,2-0.897,2-2V22.314c0-1.103-0.897-2-2-2H35.115z"/>
	</g>
	<g>
		<circle cx="64" cy="101.686" r="2.333"/>
	</g>
	<g>
		<path d="M95.399,94.179H32.6c-0.552,0-1-0.448-1-1s0.448-1,1-1h62.799c0.552,0,1,0.448,1,1S95.952,94.179,95.399,94.179z"/>
	</g>
</g>
</svg>
