<?xml version="1.0" encoding="utf-8"?>
<!-- Generator: Adobe Illustrator 16.0.0, SVG Export Plug-In . SVG Version: 6.00 Build 0)  -->
<!DOCTYPE svg PUBLIC "-//W3C//DTD SVG 1.1//EN" "http://www.w3.org/Graphics/SVG/1.1/DTD/svg11.dtd">
<svg version="1.1" id="Layer_1" xmlns="http://www.w3.org/2000/svg" xmlns:xlink="http://www.w3.org/1999/xlink" x="0px" y="0px"
	 width="64px" height="64px" viewBox="0 0 64 64" enable-background="new 0 0 64 64" xml:space="preserve">
<g>
	<g>
		<path d="M46.647,57.493H17.353c-1.93,0-3.5-1.57-3.5-3.5V10.526c0-1.93,1.57-3.5,3.5-3.5h29.295c1.93,0,3.5,1.57,3.5,3.5v43.467
			C50.147,55.923,48.577,57.493,46.647,57.493z M17.353,8.026c-1.379,0-2.5,1.122-2.5,2.5v43.467c0,1.378,1.121,2.5,2.5,2.5h29.295
			c1.379,0,2.5-1.122,2.5-2.5V10.526c0-1.378-1.121-2.5-2.5-2.5H17.353z"/>
	</g>
	<g>
		<path d="M33.293,53.117c0,0.714-0.579,1.292-1.295,1.292c-0.711,0-1.291-0.578-1.291-1.292c0-0.713,0.58-1.293,1.291-1.293
			C32.714,51.824,33.293,52.404,33.293,53.117z"/>
	</g>
	<g>
		<path d="M49.38,48.91H14.621c-0.276,0-0.5-0.224-0.5-0.5s0.224-0.5,0.5-0.5H49.38c0.276,0,0.5,0.224,0.5,0.5
			S49.656,48.91,49.38,48.91z"/>
	</g>
	<g>
		<path d="M28.288,37.27c-0.109,0-0.22-0.036-0.311-0.108l0,0c0,0-0.001,0-0.001,0v0c-0.001,0-0.001,0-0.001,0
			s-0.002,0.002-0.001-0.001c-0.001,0-0.001,0-0.001,0c0,0,0,0-0.001-0.001c0,0,0,0,0,0l-0.001,0c0,0,0,0-0.001,0v0l-0.001,0v0
			c-0.001,0-0.001,0-0.001-0.001c0,0,0.01,0.004-0.002-0.001l0,0c-0.01-0.008-0.02-0.018-0.029-0.027l-7.764-7.636
			c-0.197-0.194-0.199-0.51-0.006-0.707c0.193-0.198,0.51-0.199,0.707-0.006l7.408,7.286L43.12,21.066
			c0.194-0.197,0.51-0.198,0.707-0.004c0.196,0.194,0.198,0.511,0.004,0.707L28.645,37.12l0,0c-0.056,0.057-0.122,0.098-0.192,0.122
			l0,0c-0.001,0-0.001,0-0.002,0l0,0l-0.001,0c0,0,0,0-0.001,0l-0.001,0l0,0l-0.001,0c0,0,0,0-0.001,0c0,0,0,0-0.001,0l0,0l-0.001,0
			h-0.001c0,0,0,0-0.001,0l0,0l-0.001,0h-0.001c0,0,0,0-0.001,0l0,0c-0.001,0-0.001,0-0.001,0l-0.001,0c0,0,0,0.003-0.001,0
			c-0.001,0-0.001,0-0.001,0l-0.001,0l0,0c-0.001,0-0.001,0-0.001,0c-0.001,0-0.001,0-0.001,0l-0.001,0l0,0
			c-0.001,0-0.001,0-0.002,0l0,0h-0.001v0c-0.001,0-0.001,0-0.002,0l0,0c0,0-0.001,0-0.001,0l0,0c-0.001,0-0.001,0-0.002,0l0,0
			C28.379,37.263,28.334,37.27,28.288,37.27z"/>
	</g>
</g>
</svg>
