<?xml version="1.0" encoding="utf-8"?>
<!-- Generator: Adobe Illustrator 16.0.0, SVG Export Plug-In . SVG Version: 6.00 Build 0)  -->
<!DOCTYPE svg PUBLIC "-//W3C//DTD SVG 1.1//EN" "http://www.w3.org/Graphics/SVG/1.1/DTD/svg11.dtd">
<svg version="1.1" id="Layer_1" xmlns="http://www.w3.org/2000/svg" xmlns:xlink="http://www.w3.org/1999/xlink" x="0px" y="0px"
	 width="64px" height="64px" viewBox="0 0 64 64" enable-background="new 0 0 64 64" xml:space="preserve">
<g>
	<g>
		<path d="M40.461,56.544H23.539c-1.93,0-3.5-1.57-3.5-3.5V11.476c0-1.93,1.57-3.5,3.5-3.5h16.922c1.93,0,3.5,1.57,3.5,3.5v41.568
			C43.961,54.974,42.391,56.544,40.461,56.544z M23.539,8.976c-1.379,0-2.5,1.122-2.5,2.5v41.568c0,1.378,1.121,2.5,2.5,2.5h16.922
			c1.379,0,2.5-1.122,2.5-2.5V11.476c0-1.378-1.121-2.5-2.5-2.5H23.539z"/>
	</g>
	<g>
		<path d="M43.133,47.854H20.867c-0.276,0-0.5-0.224-0.5-0.5s0.224-0.5,0.5-0.5h22.266c0.276,0,0.5,0.224,0.5,0.5
			S43.409,47.854,43.133,47.854z"/>
	</g>
	<g>
		<circle cx="32.001" cy="51.851" r="1.292"/>
	</g>
	<g>
		<path d="M29.797,34.149c-0.127,0-0.253-0.048-0.351-0.144l-4.607-4.531c-0.197-0.193-0.199-0.51-0.006-0.707
			c0.193-0.198,0.51-0.199,0.707-0.006l4.252,4.182l8.665-8.758c0.194-0.197,0.511-0.198,0.707-0.004
			c0.196,0.194,0.198,0.511,0.004,0.707L30.153,34l0,0c-0.034,0.035-0.073,0.064-0.114,0.087l0,0c0,0-0.001,0-0.001,0v0
			c-0.001,0-0.001,0-0.002,0l0,0c0,0-0.001,0-0.001,0.001l0,0c-0.001,0-0.001,0-0.001,0c-0.001,0-0.001,0-0.001,0
			c0,0,0,0-0.001,0.001l0,0c-0.001,0-0.001,0-0.001,0l-0.001,0l0,0c-0.001,0-0.001,0-0.001,0l-0.001,0c0,0-0.001,0-0.001,0l-0.001,0
			c0,0,0,0-0.001,0c0,0-0.001,0-0.001,0l-0.001,0l0,0c-0.001,0-0.001,0-0.001,0l-0.001,0c0,0,0,0-0.001,0l0,0l-0.001,0v0
			c-0.001,0-0.001,0-0.002,0l0,0l-0.001,0l0,0c-0.001,0-0.001,0-0.002,0.001l0,0c-0.062,0.03-0.129,0.046-0.196,0.049l0,0
			c-0.001,0-0.002,0-0.003,0l0,0c-0.001,0-0.001,0-0.002,0l0,0h-0.001c0,0,0,0-0.001,0l0,0
			C29.807,34.149,29.802,34.149,29.797,34.149z"/>
	</g>
</g>
</svg>
