<?xml version="1.0" encoding="utf-8"?>
<!-- Generator: Adobe Illustrator 16.0.0, SVG Export Plug-In . SVG Version: 6.00 Build 0)  -->
<!DOCTYPE svg PUBLIC "-//W3C//DTD SVG 1.1//EN" "http://www.w3.org/Graphics/SVG/1.1/DTD/svg11.dtd">
<svg version="1.1" id="Layer_1" xmlns="http://www.w3.org/2000/svg" xmlns:xlink="http://www.w3.org/1999/xlink" x="0px" y="0px"
	 width="48px" height="48px" viewBox="0 0 48 48" enable-background="new 0 0 48 48" xml:space="preserve">
<g>
	<circle cx="24" cy="36.654" r="0.926"/>
</g>
<g>
	<path d="M36.454,33.485H11.547c-0.112,0-0.203-0.091-0.203-0.204s0.091-0.204,0.203-0.204h24.907c0.112,0,0.203,0.091,0.203,0.204
		S36.566,33.485,36.454,33.485z"/>
</g>
<g>
	<g>
		<path d="M35.422,41.927H12.579c-0.788,0-1.429-0.641-1.429-1.429V7.501c0-0.787,0.641-1.428,1.429-1.428h22.843
			c0.787,0,1.428,0.641,1.428,1.428v32.997C36.85,41.286,36.209,41.927,35.422,41.927z M12.579,6.481
			c-0.563,0-1.021,0.457-1.021,1.02v32.997c0,0.562,0.457,1.021,1.021,1.021h22.843c0.562,0,1.021-0.458,1.021-1.021V7.501
			c0-0.562-0.458-1.02-1.021-1.02H12.579z"/>
	</g>
	<g>
		<g>
			<path d="M29.362,24.255h-1.731c-0.113,0-0.204-0.091-0.204-0.204c0-0.112,0.091-0.203,0.204-0.203h1.731
				c1.717,0,3.112-1.396,3.112-3.112s-1.396-3.111-3.112-3.111h-0.342c-0.084,0-0.157-0.05-0.188-0.128
				c-0.381-0.938-1.285-1.545-2.305-1.545c-0.446,0-0.885,0.121-1.27,0.352c-0.049,0.029-0.105,0.036-0.161,0.021
				c-0.055-0.016-0.1-0.053-0.126-0.104c-0.667-1.293-1.982-2.098-3.433-2.098c-2.017,0-3.67,1.515-3.847,3.522
				c-0.008,0.079-0.06,0.146-0.132,0.174c-1.217,0.45-2.034,1.621-2.034,2.916c0,1.716,1.395,3.112,3.11,3.112h1.735
				c0.112,0,0.203,0.091,0.203,0.203c0,0.113-0.091,0.204-0.203,0.204h-1.735c-1.94,0-3.519-1.579-3.519-3.52
				c0-1.422,0.871-2.712,2.181-3.252c0.252-2.157,2.053-3.768,4.24-3.768c1.534,0,2.932,0.812,3.695,2.135
				c0.401-0.201,0.845-0.308,1.294-0.308c1.14,0,2.155,0.652,2.627,1.673h0.208c1.941,0,3.521,1.579,3.521,3.52
				S31.304,24.255,29.362,24.255z"/>
		</g>
		<g>
			<path fill="none" stroke="#000000" stroke-linecap="round" stroke-linejoin="round" stroke-miterlimit="10" d="M27.631,24.051"/>
		</g>
		<g>
			<path fill="none" stroke="#000000" stroke-linecap="round" stroke-linejoin="round" stroke-miterlimit="10" d="M20.371,24.051"/>
		</g>
		<g>
			<path d="M24.094,29.127c-0.028,0-0.055-0.006-0.08-0.017c-0.022-0.01-0.045-0.024-0.064-0.043l-2.591-2.589
				c-0.08-0.079-0.08-0.208,0-0.288c0.079-0.08,0.208-0.079,0.288,0l2.243,2.24v-6.188c0-0.112,0.091-0.204,0.204-0.204
				c0.112,0,0.203,0.092,0.203,0.204v6.188l2.244-2.24c0.079-0.079,0.209-0.08,0.288,0s0.079,0.209,0,0.288l-2.592,2.589
				c-0.019,0.019-0.041,0.033-0.065,0.043C24.148,29.121,24.121,29.127,24.094,29.127z"/>
		</g>
	</g>
</g>
</svg>
