<?xml version="1.0" encoding="utf-8"?>
<!-- Generator: Adobe Illustrator 16.0.0, SVG Export Plug-In . SVG Version: 6.00 Build 0)  -->
<!DOCTYPE svg PUBLIC "-//W3C//DTD SVG 1.1//EN" "http://www.w3.org/Graphics/SVG/1.1/DTD/svg11.dtd">
<svg version="1.1" id="Layer_1" xmlns="http://www.w3.org/2000/svg" xmlns:xlink="http://www.w3.org/1999/xlink" x="0px" y="0px"
	 width="48px" height="48px" viewBox="0 0 48 48" enable-background="new 0 0 48 48" xml:space="preserve">
<g>
	<g>
		<g>
			<path d="M38.096,32.55H9.899c-0.787,0-1.428-0.641-1.428-1.429V12.008c0-0.788,0.641-1.429,1.428-1.429h28.196
				c0.787,0,1.428,0.641,1.428,1.429v19.113C39.523,31.909,38.883,32.55,38.096,32.55z M9.899,10.987
				c-0.562,0-1.02,0.458-1.02,1.021v19.113c0,0.562,0.458,1.021,1.02,1.021h28.196c0.562,0,1.02-0.458,1.02-1.021V12.008
				c0-0.562-0.457-1.021-1.02-1.021H9.899z"/>
		</g>
		<g>
			<path d="M42.07,37.42c-0.002,0-0.005,0-0.008,0H5.929c-0.078,0-0.15-0.046-0.185-0.118c-0.033-0.072-0.022-0.157,0.029-0.218
				l2.682-3.176c0.038-0.046,0.096-0.072,0.156-0.072h30.77c0.061,0,0.117,0.026,0.156,0.072l2.652,3.142
				c0.052,0.037,0.085,0.098,0.085,0.166C42.274,37.328,42.183,37.42,42.07,37.42z M6.368,37.012h35.256l-2.338-2.768H8.705
				L6.368,37.012z"/>
		</g>
		<g>
			<path d="M39.319,30.16H8.676c-0.113,0-0.204-0.092-0.204-0.204c0-0.113,0.091-0.204,0.204-0.204h30.644
				c0.112,0,0.204,0.091,0.204,0.204C39.523,30.068,39.432,30.16,39.319,30.16z"/>
		</g>
	</g>
	<g>
		<g>
			<path d="M27.942,23.105h-1.278c-0.112,0-0.203-0.092-0.203-0.204c0-0.113,0.091-0.204,0.203-0.204h1.278
				c1.23,0,2.231-1.002,2.231-2.233c0-1.233-1.001-2.235-2.231-2.235h-0.256c-0.083,0-0.157-0.05-0.188-0.126
				c-0.275-0.671-0.92-1.104-1.643-1.104c-0.32,0-0.634,0.087-0.908,0.252c-0.047,0.029-0.105,0.037-0.16,0.021
				c-0.055-0.015-0.101-0.052-0.126-0.103c-0.479-0.932-1.428-1.512-2.475-1.512c-1.434,0-2.651,1.116-2.773,2.54
				c-0.007,0.079-0.059,0.147-0.133,0.175c-0.874,0.321-1.462,1.163-1.462,2.093c0,1.231,1.001,2.233,2.231,2.233h1.274
				c0.112,0,0.204,0.091,0.204,0.204c0,0.112-0.092,0.204-0.204,0.204H20.05c-1.456,0-2.64-1.186-2.64-2.642
				c0-1.058,0.642-2.018,1.609-2.43c0.2-1.571,1.566-2.785,3.167-2.785c1.131,0,2.161,0.589,2.736,1.552
				c0.291-0.139,0.609-0.211,0.933-0.211c0.842,0,1.599,0.479,1.964,1.23h0.123c1.456,0,2.64,1.186,2.64,2.644
				C30.582,21.92,29.398,23.105,27.942,23.105z"/>
		</g>
		<g>
			<path fill="none" stroke="#000000" stroke-linecap="round" stroke-linejoin="round" stroke-miterlimit="10" d="M26.664,22.901"/>
		</g>
		<g>
			<path fill="none" stroke="#000000" stroke-linecap="round" stroke-linejoin="round" stroke-miterlimit="10" d="M21.324,22.901"/>
		</g>
		<g>
			<path d="M24.063,26.688c-0.027,0-0.054-0.005-0.078-0.016c-0.022-0.009-0.043-0.021-0.062-0.039l0,0l0,0
				c-0.001-0.002-0.002-0.003-0.004-0.005l-1.903-1.903c-0.079-0.08-0.079-0.209,0-0.289c0.081-0.08,0.209-0.08,0.289,0l1.555,1.556
				v-4.42c0-0.112,0.091-0.203,0.203-0.203c0.113,0,0.205,0.091,0.205,0.203v4.421l1.559-1.557c0.08-0.079,0.209-0.08,0.288,0
				c0.08,0.08,0.08,0.209,0,0.289l-1.907,1.903c-0.02,0.021-0.042,0.035-0.066,0.045C24.118,26.683,24.092,26.688,24.063,26.688z"/>
		</g>
	</g>
</g>
</svg>
