<?xml version="1.0" encoding="utf-8"?>
<!-- Generator: Adobe Illustrator 16.0.0, SVG Export Plug-In . SVG Version: 6.00 Build 0)  -->
<!DOCTYPE svg PUBLIC "-//W3C//DTD SVG 1.1//EN" "http://www.w3.org/Graphics/SVG/1.1/DTD/svg11.dtd">
<svg version="1.1" id="Layer_1" xmlns="http://www.w3.org/2000/svg" xmlns:xlink="http://www.w3.org/1999/xlink" x="0px" y="0px"
	 width="48px" height="48px" viewBox="0 0 48 48" enable-background="new 0 0 48 48" xml:space="preserve">
<g>
	<g>
		<g>
			<path d="M38.099,32.832H9.9c-0.786,0-1.427-0.641-1.427-1.429V12.29c0-0.787,0.641-1.428,1.427-1.428h28.198
				c0.787,0,1.428,0.641,1.428,1.428v19.113C39.526,32.191,38.886,32.832,38.099,32.832z M9.9,11.271c-0.562,0-1.02,0.457-1.02,1.02
				v19.113c0,0.562,0.458,1.021,1.02,1.021h28.198c0.562,0,1.02-0.458,1.02-1.021V12.29c0-0.562-0.457-1.02-1.02-1.02H9.9z"/>
		</g>
		<g>
			<path d="M39.323,30.443H8.677c-0.113,0-0.203-0.091-0.203-0.204c0-0.112,0.09-0.204,0.203-0.204h30.646
				c0.111,0,0.203,0.092,0.203,0.204C39.526,30.353,39.435,30.443,39.323,30.443z"/>
		</g>
		<g>
			<g>
				<path d="M17.902,36.853c-0.044,0-0.088-0.014-0.126-0.042c-0.089-0.069-0.104-0.197-0.036-0.286l3.122-4.028
					c0.068-0.089,0.197-0.104,0.286-0.035c0.089,0.068,0.105,0.196,0.037,0.285l-3.122,4.027
					C18.023,36.826,17.963,36.853,17.902,36.853z"/>
			</g>
			<g>
				<path d="M30.097,36.853c-0.062,0-0.121-0.027-0.162-0.079l-3.116-4.027c-0.068-0.089-0.053-0.217,0.037-0.286
					c0.089-0.068,0.217-0.053,0.285,0.036l3.116,4.028c0.069,0.089,0.053,0.217-0.035,0.286
					C30.185,36.839,30.14,36.853,30.097,36.853z"/>
			</g>
		</g>
		<g>
			<path d="M32.511,37.136h-17.02c-0.113,0-0.204-0.092-0.204-0.204c0-0.113,0.091-0.204,0.204-0.204h17.02
				c0.113,0,0.205,0.091,0.205,0.204C32.716,37.044,32.624,37.136,32.511,37.136z"/>
		</g>
	</g>
	<g>
		<g>
			<path d="M28.239,23.249h-1.371c-0.113,0-0.204-0.092-0.204-0.204s0.091-0.204,0.204-0.204h1.371c1.332,0,2.416-1.083,2.416-2.415
				s-1.084-2.416-2.416-2.416h-0.273c-0.083,0-0.157-0.05-0.189-0.126c-0.296-0.727-0.994-1.195-1.776-1.195
				c-0.345,0-0.685,0.094-0.984,0.272c-0.048,0.028-0.105,0.036-0.16,0.021c-0.054-0.016-0.1-0.053-0.126-0.103
				c-0.521-1.008-1.546-1.633-2.674-1.633c-1.57,0-2.858,1.18-2.996,2.743c-0.007,0.079-0.059,0.146-0.133,0.174
				c-0.945,0.349-1.58,1.258-1.58,2.263c0,1.332,1.084,2.415,2.417,2.415h1.368c0.112,0,0.204,0.092,0.204,0.204
				s-0.092,0.204-0.204,0.204h-1.368c-1.558,0-2.825-1.267-2.825-2.823c0-1.132,0.689-2.16,1.729-2.599
				c0.213-1.713,1.648-2.989,3.389-2.989c1.213,0,2.32,0.636,2.937,1.673c0.314-0.151,0.659-0.23,1.008-0.23
				c0.902,0,1.711,0.515,2.099,1.321h0.141c1.557,0,2.824,1.267,2.824,2.824C31.063,21.982,29.796,23.249,28.239,23.249z"/>
		</g>
		<g>
			<path fill="none" stroke="#000000" stroke-linecap="round" stroke-linejoin="round" stroke-miterlimit="10" d="M26.868,23.045"/>
		</g>
		<g>
			<path fill="none" stroke="#000000" stroke-linecap="round" stroke-linejoin="round" stroke-miterlimit="10" d="M21.132,23.045"/>
		</g>
		<g>
			<path d="M24.073,27.098L24.073,27.098L24.073,27.098L24.073,27.098C24.073,27.098,24.073,27.098,24.073,27.098L24.073,27.098
				L24.073,27.098h-0.002l0,0c-0.025,0-0.052-0.005-0.074-0.015l0,0l0,0c-0.023-0.009-0.044-0.022-0.063-0.04l0,0l0,0
				c-0.002-0.002-0.004-0.003-0.005-0.005l-2.046-2.046c-0.079-0.08-0.079-0.209,0-0.288c0.08-0.08,0.209-0.08,0.289,0l1.697,1.697
				v-4.784c0-0.112,0.092-0.203,0.204-0.203c0.113,0,0.204,0.091,0.204,0.203v4.784l1.698-1.697c0.08-0.08,0.209-0.08,0.289,0
				c0.079,0.079,0.079,0.208,0,0.288l-2.047,2.046c-0.019,0.02-0.041,0.033-0.064,0.044l0,0l0,0
				c-0.023,0.01-0.051,0.016-0.078,0.016l0,0C24.075,27.098,24.075,27.098,24.073,27.098L24.073,27.098L24.073,27.098L24.073,27.098
				z"/>
		</g>
	</g>
</g>
</svg>
