<?xml version="1.0" encoding="utf-8"?>
<!-- Generator: Adobe Illustrator 16.0.0, SVG Export Plug-In . SVG Version: 6.00 Build 0)  -->
<!DOCTYPE svg PUBLIC "-//W3C//DTD SVG 1.1//EN" "http://www.w3.org/Graphics/SVG/1.1/DTD/svg11.dtd">
<svg version="1.1" id="Layer_1" xmlns="http://www.w3.org/2000/svg" xmlns:xlink="http://www.w3.org/1999/xlink" x="0px" y="0px"
	 width="48px" height="48px" viewBox="0 0 48 48" enable-background="new 0 0 48 48" xml:space="preserve">
<g>
	<circle cx="24" cy="35.926" r="1.061"/>
</g>
<g>
	<path d="M31.975,32.727H16.023c-0.113,0-0.205-0.091-0.205-0.204s0.092-0.204,0.205-0.204h15.951c0.113,0,0.205,0.091,0.205,0.204
		S32.088,32.727,31.975,32.727z"/>
</g>
<g>
	<g>
		<path d="M30.988,41.246H17.01c-0.787,0-1.428-0.641-1.428-1.428V8.181c0-0.787,0.641-1.428,1.428-1.428h13.979
			c0.789,0,1.43,0.641,1.43,1.428v31.638C32.418,40.605,31.777,41.246,30.988,41.246z M17.01,7.161c-0.562,0-1.02,0.458-1.02,1.02
			v31.638c0,0.562,0.457,1.02,1.02,1.02h13.979c0.562,0,1.02-0.457,1.02-1.02V8.181c0-0.562-0.457-1.02-1.02-1.02H17.01z"/>
	</g>
	<g>
		<g>
			<path d="M27.303,24.154h-1.064c-0.111,0-0.203-0.091-0.203-0.203c0-0.113,0.092-0.204,0.203-0.204h1.064
				c1.016,0,1.842-0.826,1.842-1.841c0-1.014-0.826-1.84-1.842-1.84h-0.205c-0.084,0-0.158-0.049-0.189-0.125
				c-0.227-0.552-0.756-0.907-1.348-0.907c-0.266,0-0.516,0.069-0.748,0.207c-0.049,0.029-0.107,0.037-0.16,0.021
				c-0.055-0.015-0.1-0.053-0.125-0.103c-0.396-0.771-1.182-1.251-2.045-1.251c-1.203,0-2.189,0.903-2.293,2.1
				c-0.008,0.079-0.061,0.146-0.133,0.174c-0.721,0.267-1.203,0.96-1.203,1.725c0,1.015,0.824,1.841,1.838,1.841h1.07
				c0.113,0,0.205,0.091,0.205,0.204c0,0.112-0.092,0.203-0.205,0.203h-1.07c-1.238,0-2.246-1.008-2.246-2.248
				c0-0.892,0.537-1.704,1.352-2.06c0.178-1.346,1.312-2.347,2.686-2.347c0.947,0,1.814,0.49,2.307,1.294
				c0.244-0.111,0.502-0.168,0.771-0.168c0.711,0,1.352,0.401,1.668,1.033h0.074c1.24,0,2.25,1.008,2.25,2.247
				C29.553,23.146,28.543,24.154,27.303,24.154z"/>
		</g>
		<g>
			<path fill="none" stroke="#000000" stroke-linecap="round" stroke-linejoin="round" stroke-miterlimit="10" d="M26.238,23.951"/>
		</g>
		<g>
			<path fill="none" stroke="#000000" stroke-linecap="round" stroke-linejoin="round" stroke-miterlimit="10" d="M21.762,23.951"/>
		</g>
		<g>
			<path d="M24.055,27.159c-0.027,0-0.053-0.005-0.078-0.016l0,0l0,0c-0.023-0.01-0.047-0.024-0.066-0.044l-1.596-1.599
				c-0.08-0.08-0.08-0.209,0-0.289c0.08-0.078,0.209-0.079,0.289,0.001l1.248,1.249v-3.625c0-0.112,0.092-0.204,0.203-0.204
				c0.113,0,0.203,0.092,0.203,0.204v3.626l1.252-1.25c0.08-0.079,0.209-0.079,0.289,0.001c0.08,0.079,0.08,0.208,0,0.288
				l-1.6,1.597c-0.002,0.002-0.004,0.004-0.006,0.005c-0.018,0.017-0.037,0.03-0.059,0.039
				C24.111,27.153,24.084,27.159,24.055,27.159z"/>
		</g>
	</g>
</g>
</svg>
