<?xml version="1.0" encoding="utf-8"?>
<!-- Generator: Adobe Illustrator 16.0.0, SVG Export Plug-In . SVG Version: 6.00 Build 0)  -->
<!DOCTYPE svg PUBLIC "-//W3C//DTD SVG 1.1//EN" "http://www.w3.org/Graphics/SVG/1.1/DTD/svg11.dtd">
<svg version="1.1" id="Layer_1" xmlns="http://www.w3.org/2000/svg" xmlns:xlink="http://www.w3.org/1999/xlink" x="0px" y="0px"
	 width="48px" height="48px" viewBox="0 0 48 48" enable-background="new 0 0 48 48" xml:space="preserve">
<g>
	<g>
		<g>
			<path d="M28.516,32.75H17.853c-1.237,0-2.244-1.007-2.244-2.244V17.495c0-1.237,1.007-2.244,2.244-2.244h10.663
				c1.237,0,2.244,1.007,2.244,2.244v13.011C30.76,31.743,29.753,32.75,28.516,32.75z M17.853,15.659
				c-1.013,0-1.836,0.823-1.836,1.836v13.011c0,1.013,0.823,1.836,1.836,1.836h10.663c1.013,0,1.836-0.823,1.836-1.836V17.495
				c0-1.013-0.823-1.836-1.836-1.836H17.853z"/>
		</g>
		<g>
			<path d="M32.188,22.212c-0.112,0-0.204-0.092-0.204-0.204v-2.841c0-0.112,0.092-0.204,0.204-0.204
				c0.113,0,0.203,0.092,0.203,0.204v2.841C32.392,22.12,32.302,22.212,32.188,22.212z"/>
		</g>
		<g>
			<path d="M27.831,13.985c-0.113,0-0.205-0.092-0.205-0.204V10.53c0-0.337-0.274-0.611-0.611-0.611h-7.661
				c-0.337,0-0.611,0.274-0.611,0.611v3.251c0,0.112-0.092,0.204-0.204,0.204s-0.204-0.092-0.204-0.204V10.53
				c0-0.562,0.458-1.02,1.02-1.02h7.661c0.562,0,1.02,0.458,1.02,1.02v3.251C28.034,13.894,27.943,13.985,27.831,13.985z"/>
		</g>
		<g>
			<path d="M27.015,38.489h-7.661c-0.562,0-1.02-0.458-1.02-1.021v-3.251c0-0.112,0.092-0.204,0.204-0.204s0.204,0.092,0.204,0.204
				v3.251c0,0.338,0.274,0.612,0.611,0.612h7.661c0.337,0,0.611-0.274,0.611-0.612v-3.251c0-0.112,0.092-0.204,0.205-0.204
				c0.112,0,0.203,0.092,0.203,0.204v3.251C28.034,38.031,27.577,38.489,27.015,38.489z"/>
		</g>
	</g>
	<g>
		<g>
			<path d="M26.19,25.676h-0.973c-0.112,0-0.203-0.091-0.203-0.204c0-0.112,0.091-0.204,0.203-0.204h0.973
				c0.909,0,1.648-0.741,1.648-1.652c0-0.91-0.739-1.652-1.648-1.652h-0.192c-0.082,0-0.157-0.049-0.188-0.126
				c-0.203-0.492-0.678-0.811-1.21-0.811c-0.232,0-0.462,0.063-0.664,0.184c-0.047,0.028-0.106,0.036-0.16,0.021
				s-0.1-0.053-0.125-0.103c-0.358-0.693-1.065-1.125-1.845-1.125c-1.082,0-1.969,0.813-2.065,1.891
				c-0.007,0.078-0.059,0.146-0.132,0.173c-0.646,0.24-1.082,0.862-1.082,1.549c0,0.911,0.742,1.652,1.656,1.652h0.972
				c0.111,0,0.203,0.092,0.203,0.204c0,0.113-0.092,0.204-0.203,0.204h-0.972c-1.139,0-2.063-0.924-2.063-2.061
				c0-0.813,0.488-1.555,1.229-1.883c0.17-1.228,1.204-2.138,2.457-2.138c0.864,0,1.654,0.443,2.106,1.169
				c0.217-0.096,0.45-0.146,0.688-0.146c0.651,0,1.237,0.363,1.53,0.938h0.061c1.134,0,2.057,0.924,2.057,2.06
				C28.247,24.752,27.324,25.676,26.19,25.676z"/>
		</g>
		<g>
			<path fill="none" stroke="#000000" stroke-linecap="round" stroke-linejoin="round" stroke-miterlimit="10" d="M25.218,25.472"/>
		</g>
		<g>
			<path fill="none" stroke="#000000" stroke-linecap="round" stroke-linejoin="round" stroke-miterlimit="10" d="M21.154,25.472"/>
		</g>
		<g>
			<path d="M23.236,28.405L23.236,28.405L23.236,28.405h-0.002l0,0l0,0c-0.056-0.001-0.105-0.023-0.143-0.06l-1.452-1.451
				c-0.079-0.079-0.079-0.208,0-0.288c0.08-0.08,0.209-0.08,0.289,0l1.104,1.103V24.46c0-0.112,0.092-0.203,0.204-0.203
				c0.113,0,0.204,0.091,0.204,0.203v3.248l1.101-1.102c0.08-0.08,0.209-0.079,0.289,0c0.079,0.08,0.079,0.209,0,0.288l-1.448,1.45
				C23.345,28.382,23.294,28.404,23.236,28.405L23.236,28.405L23.236,28.405L23.236,28.405L23.236,28.405L23.236,28.405
				L23.236,28.405z"/>
		</g>
	</g>
</g>
</svg>
