<?xml version="1.0" encoding="utf-8"?>
<!-- Generator: Adobe Illustrator 16.0.0, SVG Export Plug-In . SVG Version: 6.00 Build 0)  -->
<!DOCTYPE svg PUBLIC "-//W3C//DTD SVG 1.1//EN" "http://www.w3.org/Graphics/SVG/1.1/DTD/svg11.dtd">
<svg version="1.1" id="Layer_1" xmlns="http://www.w3.org/2000/svg" xmlns:xlink="http://www.w3.org/1999/xlink" x="0px" y="0px"
	 width="32px" height="32px" viewBox="0 0 32 32" enable-background="new 0 0 32 32" xml:space="preserve">
<g>
	<g>
		<g>
			<g>
				<g>
					<path d="M27.431,23.223H4.952c-0.704,0-1.277-0.573-1.277-1.279V6.778c0-0.705,0.573-1.278,1.277-1.278h22.479
						c0.702,0,1.276,0.573,1.276,1.278v15.165C28.707,22.649,28.133,23.223,27.431,23.223z M4.952,5.865
						c-0.504,0-0.912,0.409-0.912,0.913v15.165c0,0.505,0.408,0.914,0.912,0.914h22.479c0.501,0,0.912-0.409,0.912-0.914V6.778
						c0-0.504-0.411-0.913-0.912-0.913H4.952z"/>
				</g>
			</g>
			<g>
				<g>
					<path d="M28.525,21.3H3.856c-0.101,0-0.182-0.083-0.182-0.184s0.081-0.184,0.182-0.184h24.669c0.101,0,0.182,0.083,0.182,0.184
						S28.626,21.3,28.525,21.3z"/>
				</g>
			</g>
			<g>
				<g>
					<g>
						<path d="M11.281,26.459c-0.037,0-0.077-0.013-0.111-0.039c-0.078-0.062-0.095-0.177-0.033-0.256l2.512-3.242
							c0.062-0.079,0.177-0.094,0.257-0.032s0.095,0.177,0.031,0.257l-2.51,3.241C11.391,26.434,11.337,26.459,11.281,26.459z"/>
					</g>
				</g>
				<g>
					<g>
						<path d="M21.1,26.459c-0.055,0-0.108-0.025-0.145-0.071l-2.511-3.241c-0.062-0.08-0.048-0.195,0.032-0.257
							c0.081-0.062,0.193-0.048,0.257,0.032l2.512,3.242c0.061,0.079,0.046,0.194-0.033,0.256
							C21.177,26.446,21.139,26.459,21.1,26.459z"/>
					</g>
				</g>
			</g>
			<g>
				<g>
					<path d="M23.04,26.687H9.341c-0.101,0-0.181-0.081-0.181-0.183c0-0.101,0.08-0.182,0.181-0.182H23.04
						c0.102,0,0.183,0.081,0.183,0.182C23.223,26.605,23.142,26.687,23.04,26.687z"/>
				</g>
			</g>
		</g>
		<g>
			<g>
				<path d="M16.191,18.225c-2.586,0-4.689-2.103-4.689-4.688c0-2.585,2.104-4.689,4.689-4.689c2.584,0,4.688,2.104,4.688,4.689
					C20.88,16.122,18.775,18.225,16.191,18.225z M16.191,9.212c-2.386,0-4.326,1.939-4.326,4.324s1.94,4.323,4.326,4.323
					c2.384,0,4.324-1.938,4.324-4.323S18.575,9.212,16.191,9.212z"/>
			</g>
			<g>
				<g>
					<path d="M16.191,14.714c-0.102,0-0.184-0.083-0.184-0.184v-3.64c0-0.101,0.082-0.183,0.184-0.183
						c0.099,0,0.182,0.082,0.182,0.183v3.64C16.373,14.631,16.29,14.714,16.191,14.714z"/>
				</g>
				<g>
					<rect x="16.054" y="15.906" width="0.274" height="0.276"/>
					<path d="M16.328,16.364h-0.274c-0.103,0-0.182-0.082-0.182-0.182v-0.276c0-0.101,0.079-0.183,0.182-0.183h0.274
						c0.102,0,0.183,0.082,0.183,0.183v0.276C16.511,16.282,16.43,16.364,16.328,16.364z"/>
				</g>
			</g>
		</g>
	</g>
</g>
</svg>
