<?xml version="1.0" encoding="utf-8"?>
<!-- Generator: Adobe Illustrator 16.0.0, SVG Export Plug-In . SVG Version: 6.00 Build 0)  -->
<!DOCTYPE svg PUBLIC "-//W3C//DTD SVG 1.1//EN" "http://www.w3.org/Graphics/SVG/1.1/DTD/svg11.dtd">
<svg version="1.1" id="Layer_1" xmlns="http://www.w3.org/2000/svg" xmlns:xlink="http://www.w3.org/1999/xlink" x="0px" y="0px"
	 width="32px" height="32px" viewBox="0 0 32 32" enable-background="new 0 0 32 32" xml:space="preserve">
<g>
	<g>
		<g>
			<g>
				<path d="M25.166,30.542H6.999c-0.706,0-1.279-0.573-1.279-1.278V2.923c0-0.704,0.573-1.278,1.279-1.278h18.167
					c0.705,0,1.278,0.574,1.278,1.278v26.341C26.444,29.969,25.871,30.542,25.166,30.542z M6.999,2.01
					c-0.504,0-0.914,0.41-0.914,0.913v26.341c0,0.503,0.41,0.914,0.914,0.914h18.167c0.503,0,0.913-0.411,0.913-0.914V2.923
					c0-0.503-0.41-0.913-0.913-0.913H6.999z"/>
			</g>
		</g>
		<g>
			<g>
				<circle cx="16.083" cy="28.124" r="0.746"/>
			</g>
		</g>
		<g>
			<g>
				<path d="M26.106,25.591H6.058c-0.1,0-0.182-0.082-0.182-0.183s0.082-0.183,0.182-0.183h20.049c0.102,0,0.182,0.082,0.182,0.183
					S26.208,25.591,26.106,25.591z"/>
			</g>
		</g>
		<g>
			<g>
				<g>
					<path d="M16.082,20.615c-3.702,0-6.714-3.011-6.714-6.714c0-3.702,3.012-6.713,6.714-6.713s6.715,3.011,6.715,6.713
						C22.797,17.604,19.784,20.615,16.082,20.615z M16.082,7.553c-3.5,0-6.348,2.848-6.348,6.349s2.848,6.349,6.348,6.349
						c3.501,0,6.35-2.848,6.35-6.349S19.583,7.553,16.082,7.553z"/>
				</g>
			</g>
			<g>
				<g>
					<g>
						<path d="M16.082,15.524c-0.102,0-0.183-0.081-0.183-0.183v-5.275c0-0.101,0.081-0.182,0.183-0.182s0.183,0.081,0.183,0.182
							v5.275C16.265,15.443,16.184,15.524,16.082,15.524z"/>
					</g>
				</g>
				<g>
					<g>
						<rect x="15.883" y="17.338" width="0.398" height="0.397"/>
					</g>
					<g>
						<path d="M16.281,17.919h-0.398c-0.101,0-0.183-0.081-0.183-0.184v-0.397c0-0.101,0.082-0.183,0.183-0.183h0.398
							c0.102,0,0.184,0.082,0.184,0.183v0.397C16.465,17.838,16.383,17.919,16.281,17.919z"/>
					</g>
				</g>
			</g>
		</g>
	</g>
</g>
</svg>
