<?xml version="1.0" encoding="utf-8"?>
<!-- Generator: Adobe Illustrator 16.0.0, SVG Export Plug-In . SVG Version: 6.00 Build 0)  -->
<!DOCTYPE svg PUBLIC "-//W3C//DTD SVG 1.1//EN" "http://www.w3.org/Graphics/SVG/1.1/DTD/svg11.dtd">
<svg version="1.1" id="Layer_1" xmlns="http://www.w3.org/2000/svg" xmlns:xlink="http://www.w3.org/1999/xlink" x="0px" y="0px"
	 width="32px" height="32px" viewBox="0 0 32 32" enable-background="new 0 0 32 32" xml:space="preserve">
<g>
	<g>
		<g>
			<g>
				<g>
					<path d="M27.391,22.994H4.914c-0.705,0-1.278-0.574-1.278-1.278V6.549c0-0.704,0.573-1.278,1.278-1.278h22.477
						c0.703,0,1.278,0.574,1.278,1.278v15.167C28.669,22.42,28.094,22.994,27.391,22.994z M4.914,5.637
						c-0.504,0-0.913,0.41-0.913,0.912v15.167c0,0.503,0.409,0.914,0.913,0.914h22.477c0.503,0,0.913-0.411,0.913-0.914V6.549
						c0-0.502-0.41-0.912-0.913-0.912H4.914z"/>
				</g>
			</g>
			<g>
				<g>
					<path d="M30.705,26.916c-0.002,0-0.004,0-0.007,0H1.606c-0.07,0-0.136-0.043-0.166-0.106c-0.03-0.064-0.02-0.141,0.026-0.196
						l2.16-2.557c0.032-0.04,0.084-0.063,0.138-0.063h24.774c0.054,0,0.104,0.023,0.14,0.063l2.132,2.527
						c0.047,0.032,0.076,0.087,0.076,0.148C30.887,26.834,30.807,26.916,30.705,26.916z M1.999,26.55h28.305l-1.849-2.191H3.851
						L1.999,26.55z"/>
				</g>
			</g>
			<g>
				<g>
					<path d="M28.485,21.07H3.817c-0.101,0-0.182-0.081-0.182-0.183c0-0.101,0.081-0.183,0.182-0.183h24.668
						c0.102,0,0.184,0.082,0.184,0.183C28.669,20.989,28.587,21.07,28.485,21.07z"/>
				</g>
			</g>
		</g>
		<g>
			<g>
				<path d="M16.152,17.859c-2.586,0-4.689-2.103-4.689-4.688s2.104-4.688,4.689-4.688s4.689,2.103,4.689,4.688
					S18.738,17.859,16.152,17.859z M16.152,8.847c-2.385,0-4.325,1.939-4.325,4.324s1.94,4.324,4.325,4.324
					c2.384,0,4.323-1.939,4.323-4.324S18.536,8.847,16.152,8.847z"/>
			</g>
			<g>
				<g>
					<path d="M16.152,14.348c-0.102,0-0.184-0.082-0.184-0.182v-3.641c0-0.101,0.082-0.182,0.184-0.182
						c0.101,0,0.183,0.081,0.183,0.182v3.641C16.335,14.266,16.253,14.348,16.152,14.348z"/>
				</g>
				<g>
					<rect x="16.015" y="15.542" width="0.275" height="0.274"/>
					<path d="M16.29,15.999h-0.275c-0.101,0-0.183-0.082-0.183-0.183v-0.274c0-0.102,0.082-0.182,0.183-0.182h0.275
						c0.101,0,0.183,0.08,0.183,0.182v0.274C16.473,15.917,16.391,15.999,16.29,15.999z"/>
				</g>
			</g>
		</g>
	</g>
</g>
</svg>
