<?xml version="1.0" encoding="utf-8"?>
<!-- Generator: Adobe Illustrator 16.0.0, SVG Export Plug-In . SVG Version: 6.00 Build 0)  -->
<!DOCTYPE svg PUBLIC "-//W3C//DTD SVG 1.1//EN" "http://www.w3.org/Graphics/SVG/1.1/DTD/svg11.dtd">
<svg version="1.1" id="Layer_1" xmlns="http://www.w3.org/2000/svg" xmlns:xlink="http://www.w3.org/1999/xlink" x="0px" y="0px"
	 width="32px" height="32px" viewBox="0 0 32 32" enable-background="new 0 0 32 32" xml:space="preserve">
<g>
	<g>
		<g>
			<g>
				<path d="M21.635,29.995H10.603c-0.704,0-1.279-0.573-1.279-1.279V3.47c0-0.704,0.575-1.278,1.279-1.278h11.032
					c0.705,0,1.278,0.574,1.278,1.278v25.246C22.913,29.422,22.34,29.995,21.635,29.995z M10.603,2.557
					c-0.504,0-0.914,0.409-0.914,0.913v25.246c0,0.505,0.41,0.914,0.914,0.914h11.032c0.503,0,0.913-0.409,0.913-0.914V3.47
					c0-0.504-0.41-0.913-0.913-0.913H10.603z"/>
			</g>
		</g>
		<g>
			<g>
				<path d="M22.54,24.982H9.697c-0.102,0-0.182-0.081-0.182-0.183s0.08-0.182,0.182-0.182H22.54c0.101,0,0.182,0.08,0.182,0.182
					S22.641,24.982,22.54,24.982z"/>
			</g>
		</g>
		<g>
			<g>
				<circle cx="16.118" cy="27.394" r="0.746"/>
			</g>
		</g>
		<g>
			<g>
				<g>
					<path d="M16.118,18.591c-2.586,0-4.688-2.104-4.688-4.689s2.103-4.689,4.688-4.689s4.688,2.104,4.688,4.689
						S18.704,18.591,16.118,18.591z M16.118,9.577c-2.385,0-4.323,1.939-4.323,4.324s1.938,4.323,4.323,4.323
						s4.324-1.938,4.324-4.323S18.503,9.577,16.118,9.577z"/>
				</g>
			</g>
			<g>
				<g>
					<g>
						<path d="M16.118,15.078c-0.101,0-0.184-0.081-0.184-0.183v-3.64c0-0.101,0.083-0.183,0.184-0.183s0.183,0.082,0.183,0.183
							v3.64C16.301,14.997,16.219,15.078,16.118,15.078z"/>
					</g>
				</g>
				<g>
					<g>
						<rect x="15.982" y="16.272" width="0.273" height="0.275"/>
					</g>
					<g>
						<path d="M16.256,16.731h-0.273c-0.103,0-0.184-0.084-0.184-0.184v-0.275c0-0.101,0.081-0.184,0.184-0.184h0.273
							c0.102,0,0.183,0.083,0.183,0.184v0.275C16.438,16.647,16.357,16.731,16.256,16.731z"/>
					</g>
				</g>
			</g>
		</g>
	</g>
</g>
</svg>
