<?xml version="1.0" encoding="utf-8"?>
<!-- Generator: Adobe Illustrator 16.0.0, SVG Export Plug-In . SVG Version: 6.00 Build 0)  -->
<!DOCTYPE svg PUBLIC "-//W3C//DTD SVG 1.1//EN" "http://www.w3.org/Graphics/SVG/1.1/DTD/svg11.dtd">
<svg version="1.1" id="Layer_1" xmlns="http://www.w3.org/2000/svg" xmlns:xlink="http://www.w3.org/1999/xlink" x="0px" y="0px"
	 width="32px" height="32px" viewBox="0 0 32 32" enable-background="new 0 0 32 32" xml:space="preserve">
<g>
	<g>
		<g>
			<g>
				<g>
					<path d="M19.677,23.155h-8.214c-1.108,0-2.009-0.9-2.009-2.009V11.041c0-1.109,0.9-2.01,2.009-2.01h8.214
						c1.108,0,2.01,0.9,2.01,2.01v10.105C21.687,22.255,20.785,23.155,19.677,23.155z M11.463,9.396
						c-0.906,0-1.644,0.738-1.644,1.645v10.105c0,0.906,0.737,1.643,1.644,1.643h8.214c0.906,0,1.645-0.736,1.645-1.643V11.041
						c0-0.906-0.738-1.645-1.645-1.645H11.463z"/>
				</g>
			</g>
			<g>
				<g>
					<path d="M22.818,14.673c-0.102,0-0.184-0.082-0.184-0.184v-2.285c0-0.101,0.082-0.184,0.184-0.184S23,12.104,23,12.204v2.285
						C23,14.591,22.92,14.673,22.818,14.673z"/>
				</g>
			</g>
			<g>
				<g>
					<path d="M19.311,8.049c-0.102,0-0.183-0.081-0.183-0.182V5.324c0-0.303-0.246-0.548-0.55-0.548h-6.017
						c-0.301,0-0.548,0.245-0.548,0.548v2.543c0,0.101-0.084,0.182-0.185,0.182s-0.182-0.081-0.182-0.182V5.324
						c0-0.504,0.409-0.914,0.914-0.914h6.017c0.506,0,0.914,0.41,0.914,0.914v2.543C19.492,7.968,19.411,8.049,19.311,8.049z"/>
				</g>
			</g>
			<g>
				<g>
					<path d="M18.578,27.775h-6.017c-0.505,0-0.914-0.41-0.914-0.912v-2.544c0-0.101,0.081-0.183,0.182-0.183
						s0.185,0.082,0.185,0.183v2.544c0,0.302,0.247,0.547,0.548,0.547h6.017c0.304,0,0.55-0.245,0.55-0.547v-2.544
						c0-0.101,0.081-0.183,0.183-0.183c0.101,0,0.182,0.082,0.182,0.183v2.544C19.492,27.365,19.084,27.775,18.578,27.775z"/>
				</g>
			</g>
		</g>
		<g>
			<g>
				<path d="M15.57,20.107c-2.213,0-4.014-1.801-4.014-4.014s1.801-4.015,4.014-4.015c2.212,0,4.013,1.802,4.013,4.015
					S17.782,20.107,15.57,20.107z M15.57,12.444c-2.013,0-3.647,1.638-3.647,3.649c0,2.011,1.635,3.647,3.647,3.647
					c2.012,0,3.647-1.637,3.647-3.647C19.218,14.082,17.582,12.444,15.57,12.444z"/>
			</g>
			<g>
				<g>
					<path d="M15.57,17.12c-0.102,0-0.183-0.08-0.183-0.183v-3.094c0-0.101,0.081-0.183,0.183-0.183s0.184,0.082,0.184,0.183v3.094
						C15.754,17.04,15.672,17.12,15.57,17.12z"/>
				</g>
				<g>
					<rect x="15.452" y="18.108" width="0.236" height="0.233"/>
					<path d="M15.688,18.524h-0.236c-0.1,0-0.181-0.081-0.181-0.183v-0.233c0-0.1,0.081-0.184,0.181-0.184h0.236
						c0.099,0,0.181,0.084,0.181,0.184v0.233C15.869,18.443,15.787,18.524,15.688,18.524z"/>
				</g>
			</g>
		</g>
	</g>
</g>
</svg>
