<?xml version="1.0" encoding="utf-8"?>
<!-- Generator: Adobe Illustrator 16.0.0, SVG Export Plug-In . SVG Version: 6.00 Build 0)  -->
<!DOCTYPE svg PUBLIC "-//W3C//DTD SVG 1.1//EN" "http://www.w3.org/Graphics/SVG/1.1/DTD/svg11.dtd">
<svg version="1.1" id="Layer_1" xmlns="http://www.w3.org/2000/svg" xmlns:xlink="http://www.w3.org/1999/xlink" x="0px" y="0px"
	 width="32px" height="32px" viewBox="0 0 32 32" enable-background="new 0 0 32 32" xml:space="preserve">
<g>
	<g>
		<g>
			<path d="M15.997,15.655c-0.987,0-1.791-0.787-1.791-1.756v-3.612c0-0.967,0.804-1.753,1.791-1.753
				c0.988,0,1.792,0.786,1.792,1.753v3.612C17.789,14.868,16.985,15.655,15.997,15.655z M15.997,8.825
				c-0.826,0-1.499,0.656-1.499,1.462v3.612c0,0.808,0.672,1.463,1.499,1.463c0.827,0,1.499-0.655,1.499-1.463v-3.612
				C17.496,9.481,16.824,8.825,15.997,8.825z"/>
		</g>
		<g>
			<path d="M15.997,16.602c-1.542,0-2.797-0.986-2.797-2.199c0-0.08,0.065-0.146,0.146-0.146c0.081,0,0.146,0.065,0.146,0.146
				c0,1.052,1.124,1.906,2.505,1.906c1.381,0,2.505-0.854,2.505-1.906c0-0.08,0.065-0.146,0.146-0.146
				c0.081,0,0.146,0.065,0.146,0.146C18.794,15.615,17.54,16.602,15.997,16.602z"/>
		</g>
		<g>
			<path d="M15.997,18.378c-0.081,0-0.146-0.065-0.146-0.146v-1.778c0-0.08,0.065-0.146,0.146-0.146
				c0.081,0,0.146,0.065,0.146,0.146v1.778C16.143,18.312,16.078,18.378,15.997,18.378z"/>
		</g>
		<g>
			<path d="M17.742,18.416h-3.49c-0.081,0-0.146-0.065-0.146-0.146c0-0.082,0.065-0.146,0.146-0.146h3.49
				c0.082,0,0.147,0.064,0.147,0.146C17.889,18.351,17.823,18.416,17.742,18.416z"/>
		</g>
	</g>
	<g>
		<g>
			<path d="M26.102,22.261H5.892c-0.564,0-1.024-0.46-1.024-1.023V7.536c0-0.564,0.46-1.023,1.024-1.023h20.21
				c0.564,0,1.023,0.459,1.023,1.023v13.701C27.125,21.801,26.667,22.261,26.102,22.261z M5.892,6.805
				c-0.403,0-0.731,0.328-0.731,0.731v13.701c0,0.402,0.329,0.73,0.731,0.73h20.21c0.403,0,0.731-0.328,0.731-0.73V7.536
				c0-0.403-0.328-0.731-0.731-0.731H5.892z"/>
		</g>
		<g>
			<path d="M28.955,25.751c-0.001,0-0.004,0-0.006,0H3.045c-0.057,0-0.108-0.033-0.132-0.084c-0.024-0.052-0.016-0.113,0.021-0.156
				l1.922-2.276c0.028-0.033,0.068-0.052,0.112-0.052h22.06c0.043,0,0.084,0.019,0.112,0.052l1.901,2.252
				c0.037,0.026,0.061,0.07,0.061,0.119C29.101,25.686,29.036,25.751,28.955,25.751z M3.36,25.46h25.274l-1.675-1.985H5.035
				L3.36,25.46z"/>
		</g>
		<g>
			<path d="M26.979,20.548H5.015c-0.081,0-0.146-0.065-0.146-0.146c0-0.081,0.065-0.147,0.146-0.147h21.964
				c0.082,0,0.146,0.066,0.146,0.147C27.125,20.482,27.061,20.548,26.979,20.548z"/>
		</g>
	</g>
</g>
</svg>
