<?xml version="1.0" encoding="utf-8"?>
<!-- Generator: Adobe Illustrator 16.0.0, SVG Export Plug-In . SVG Version: 6.00 Build 0)  -->
<!DOCTYPE svg PUBLIC "-//W3C//DTD SVG 1.1//EN" "http://www.w3.org/Graphics/SVG/1.1/DTD/svg11.dtd">
<svg version="1.1" id="Layer_1" xmlns="http://www.w3.org/2000/svg" xmlns:xlink="http://www.w3.org/1999/xlink" x="0px" y="0px"
	 width="32px" height="32px" viewBox="0 0 32 32" enable-background="new 0 0 32 32" xml:space="preserve">
<g>
	<g>
		<path d="M16,16.486c-1.069,0-1.938-0.851-1.938-1.896v-3.935c0-1.046,0.869-1.897,1.938-1.897c1.068,0,1.938,0.852,1.938,1.897
			v3.935C17.938,15.636,17.068,16.486,16,16.486z M16,9.051c-0.907,0-1.645,0.72-1.645,1.604v3.935c0,0.885,0.738,1.604,1.645,1.604
			c0.907,0,1.646-0.72,1.646-1.604v-3.935C17.646,9.771,16.907,9.051,16,9.051z"/>
	</g>
	<g>
		<path d="M16,17.517c-1.672,0-3.032-1.067-3.032-2.381c0-0.08,0.065-0.146,0.146-0.146s0.146,0.065,0.146,0.146
			c0,1.152,1.229,2.09,2.74,2.09c1.511,0,2.74-0.938,2.74-2.09c0-0.08,0.065-0.146,0.146-0.146c0.081,0,0.146,0.065,0.146,0.146
			C19.033,16.449,17.672,17.517,16,17.517z"/>
	</g>
	<g>
		<path d="M16,19.452c-0.081,0-0.146-0.065-0.146-0.146v-1.935c0-0.08,0.065-0.146,0.146-0.146c0.081,0,0.146,0.065,0.146,0.146
			v1.935C16.146,19.387,16.081,19.452,16,19.452z"/>
	</g>
	<g>
		<path d="M17.9,19.493h-3.8c-0.082,0-0.146-0.066-0.146-0.146c0-0.081,0.065-0.146,0.146-0.146h3.8
			c0.081,0,0.146,0.065,0.146,0.146C18.046,19.427,17.981,19.493,17.9,19.493z"/>
	</g>
	<g>
		<circle cx="16" cy="26.323" r="0.76"/>
	</g>
	<g>
		<path d="M21.01,28.493H10.99c-0.564,0-1.023-0.458-1.023-1.022V4.793c0-0.563,0.459-1.023,1.023-1.023h10.02
			c0.565,0,1.024,0.46,1.024,1.023v22.678C22.034,28.035,21.575,28.493,21.01,28.493z M10.99,4.062c-0.403,0-0.73,0.328-0.73,0.73
			v22.678c0,0.403,0.328,0.73,0.73,0.73h10.02c0.404,0,0.731-0.327,0.731-0.73V4.793c0-0.402-0.328-0.73-0.731-0.73H10.99z"/>
	</g>
	<g>
		<path d="M21.718,24.029H10.282c-0.081,0-0.146-0.065-0.146-0.146c0-0.08,0.065-0.146,0.146-0.146h11.436
			c0.081,0,0.146,0.065,0.146,0.146C21.865,23.964,21.799,24.029,21.718,24.029z"/>
	</g>
</g>
</svg>
