<?xml version="1.0" encoding="utf-8"?>
<!-- Generator: Adobe Illustrator 16.0.0, SVG Export Plug-In . SVG Version: 6.00 Build 0)  -->
<!DOCTYPE svg PUBLIC "-//W3C//DTD SVG 1.1//EN" "http://www.w3.org/Graphics/SVG/1.1/DTD/svg11.dtd">
<svg version="1.1" id="Layer_1" xmlns="http://www.w3.org/2000/svg" xmlns:xlink="http://www.w3.org/1999/xlink" x="0px" y="0px"
	 width="32px" height="32px" viewBox="0 0 32 32" enable-background="new 0 0 32 32" xml:space="preserve">
<g>
	<g>
		<path d="M16,16.564c-1.366,0-2.477-1.088-2.477-2.424V9.019c0-1.336,1.111-2.422,2.477-2.422s2.477,1.086,2.477,2.422v5.122
			C18.477,15.477,17.366,16.564,16,16.564z M16,6.888c-1.205,0-2.185,0.956-2.185,2.131v5.122c0,1.175,0.98,2.132,2.185,2.132
			s2.185-0.957,2.185-2.132V9.019C18.185,7.844,17.205,6.888,16,6.888z"/>
	</g>
	<g>
		<path d="M16,17.906c-2.152,0-3.903-1.371-3.903-3.055c0-0.081,0.066-0.146,0.146-0.146s0.146,0.065,0.146,0.146
			c0,1.522,1.62,2.762,3.611,2.762c1.99,0,3.61-1.239,3.61-2.762c0-0.081,0.065-0.146,0.146-0.146s0.146,0.065,0.146,0.146
			C19.902,16.535,18.152,17.906,16,17.906z"/>
	</g>
	<g>
		<path d="M16,20.423c-0.081,0-0.146-0.065-0.146-0.147v-2.517c0-0.081,0.065-0.146,0.146-0.146c0.081,0,0.146,0.064,0.146,0.146
			v2.517C16.146,20.357,16.081,20.423,16,20.423z"/>
	</g>
	<g>
		<path d="M18.474,20.476h-4.946c-0.081,0-0.146-0.065-0.146-0.146c0-0.082,0.065-0.147,0.146-0.147h4.946
			c0.081,0,0.146,0.065,0.146,0.147C18.62,20.41,18.555,20.476,18.474,20.476z"/>
	</g>
	<g>
		<path d="M24.187,28.717H7.813c-0.564,0-1.023-0.46-1.023-1.023V4.043c0-0.565,0.459-1.023,1.023-1.023h16.374
			c0.565,0,1.024,0.458,1.024,1.023v23.65C25.21,28.257,24.751,28.717,24.187,28.717z M7.813,3.312
			c-0.403,0-0.731,0.327-0.731,0.731v23.65c0,0.402,0.329,0.73,0.731,0.73h16.374c0.404,0,0.731-0.328,0.731-0.73V4.043
			c0-0.404-0.328-0.731-0.731-0.731H7.813z"/>
	</g>
	<g>
		<circle cx="16" cy="26.579" r="0.663"/>
	</g>
	<g>
		<path d="M24.926,24.311H7.073c-0.081,0-0.146-0.065-0.146-0.146s0.065-0.146,0.146-0.146h17.853c0.081,0,0.146,0.065,0.146,0.146
			S25.007,24.311,24.926,24.311z"/>
	</g>
</g>
</svg>
