<?xml version="1.0" encoding="utf-8"?>
<!-- Generator: Adobe Illustrator 16.0.0, SVG Export Plug-In . SVG Version: 6.00 Build 0)  -->
<!DOCTYPE svg PUBLIC "-//W3C//DTD SVG 1.1//EN" "http://www.w3.org/Graphics/SVG/1.1/DTD/svg11.dtd">
<svg version="1.1" id="Layer_1" xmlns="http://www.w3.org/2000/svg" xmlns:xlink="http://www.w3.org/1999/xlink" x="0px" y="0px"
	 width="32px" height="32px" viewBox="0 0 32 32" enable-background="new 0 0 32 32" xml:space="preserve">
<g>
	<g>
		<g>
			<path d="M15.416,17.713c-0.795,0-1.441-0.632-1.441-1.408v-2.84c0-0.777,0.646-1.409,1.441-1.409
				c0.793,0,1.438,0.632,1.438,1.409v2.84C16.854,17.081,16.209,17.713,15.416,17.713z M15.416,12.347
				c-0.634,0-1.148,0.502-1.148,1.118v2.84c0,0.615,0.515,1.116,1.148,1.116c0.632,0,1.146-0.501,1.146-1.116v-2.84
				C16.562,12.849,16.048,12.347,15.416,12.347z"/>
		</g>
		<g>
			<path d="M15.416,18.785c-1.23,0-2.231-0.79-2.231-1.762c0-0.08,0.065-0.146,0.146-0.146c0.08,0,0.146,0.065,0.146,0.146
				c0,0.811,0.87,1.469,1.939,1.469c1.067,0,1.936-0.658,1.936-1.469c0-0.08,0.066-0.146,0.146-0.146
				c0.081,0,0.146,0.065,0.146,0.146C17.644,17.995,16.645,18.785,15.416,18.785z"/>
		</g>
		<g>
			<path d="M15.414,20.18c-0.08,0-0.146-0.065-0.146-0.146v-1.396c0-0.08,0.065-0.146,0.146-0.146c0.082,0,0.146,0.065,0.146,0.146
				v1.396C15.561,20.114,15.496,20.18,15.414,20.18z"/>
		</g>
		<g>
			<path d="M16.785,20.209h-2.741c-0.082,0-0.147-0.065-0.147-0.146c0-0.081,0.065-0.146,0.147-0.146h2.741
				c0.081,0,0.146,0.065,0.146,0.146C16.932,20.144,16.866,20.209,16.785,20.209z"/>
		</g>
	</g>
	<g>
		<g>
			<path d="M19.235,22.403h-7.643c-0.887,0-1.608-0.721-1.608-1.608v-9.326c0-0.888,0.722-1.608,1.608-1.608h7.643
				c0.888,0,1.609,0.721,1.609,1.608v9.326C20.845,21.683,20.123,22.403,19.235,22.403z M11.593,10.152
				c-0.725,0-1.315,0.59-1.315,1.316v9.326c0,0.727,0.591,1.317,1.315,1.317h7.643c0.727,0,1.316-0.591,1.316-1.317v-9.326
				c0-0.727-0.59-1.316-1.316-1.316H11.593z"/>
		</g>
		<g>
			<path d="M21.869,14.85c-0.08,0-0.146-0.064-0.146-0.146v-2.036c0-0.081,0.066-0.146,0.146-0.146c0.081,0,0.146,0.065,0.146,0.146
				v2.036C22.016,14.785,21.95,14.85,21.869,14.85z"/>
		</g>
		<g>
			<path d="M18.745,8.955c-0.081,0-0.146-0.067-0.146-0.147V6.479c0-0.242-0.197-0.439-0.438-0.439h-5.49
				c-0.242,0-0.439,0.197-0.439,0.439v2.329c0,0.08-0.064,0.147-0.146,0.147s-0.146-0.067-0.146-0.147V6.479
				c0-0.403,0.328-0.732,0.731-0.732h5.49c0.403,0,0.731,0.329,0.731,0.732v2.329C18.892,8.888,18.826,8.955,18.745,8.955z"/>
		</g>
		<g>
			<path d="M18.16,26.518h-5.49c-0.403,0-0.731-0.327-0.731-0.731v-2.329c0-0.081,0.065-0.147,0.146-0.147s0.146,0.066,0.146,0.147
				v2.329c0,0.243,0.197,0.438,0.439,0.438h5.49c0.241,0,0.438-0.195,0.438-0.438v-2.329c0-0.081,0.065-0.147,0.146-0.147
				s0.146,0.066,0.146,0.147v2.329C18.892,26.19,18.563,26.518,18.16,26.518z"/>
		</g>
	</g>
</g>
</svg>
