<?xml version="1.0" encoding="utf-8"?>
<!-- Generator: Adobe Illustrator 16.0.0, SVG Export Plug-In . SVG Version: 6.00 Build 0)  -->
<!DOCTYPE svg PUBLIC "-//W3C//DTD SVG 1.1//EN" "http://www.w3.org/Graphics/SVG/1.1/DTD/svg11.dtd">
<svg version="1.1" id="Layer_1" xmlns="http://www.w3.org/2000/svg" xmlns:xlink="http://www.w3.org/1999/xlink" x="0px" y="0px"
	 width="48px" height="48px" viewBox="0 0 48 48" enable-background="new 0 0 48 48" xml:space="preserve">
<g>
	<g>
		<g>
			<g>
				<path d="M24.002,24.223c-0.112,0-0.204-0.091-0.204-0.204V18.5c0-0.113,0.092-0.204,0.204-0.204
					c0.113,0,0.204,0.091,0.204,0.204v5.519C24.206,24.132,24.115,24.223,24.002,24.223z"/>
			</g>
			<g>
				<path d="M26.759,21.463h-5.52c-0.112,0-0.203-0.091-0.203-0.204s0.091-0.204,0.203-0.204h5.52c0.113,0,0.203,0.091,0.203,0.204
					S26.872,21.463,26.759,21.463z"/>
			</g>
		</g>
		<g>
			<path d="M24.002,26.317c-2.791,0-5.061-2.269-5.061-5.058s2.27-5.059,5.061-5.059c2.788,0,5.057,2.27,5.057,5.059
				S26.79,26.317,24.002,26.317z M24.002,16.608c-2.565,0-4.653,2.087-4.653,4.651s2.088,4.65,4.653,4.65
				c2.562,0,4.648-2.085,4.648-4.65S26.564,16.608,24.002,16.608z"/>
		</g>
	</g>
	<g>
		<g>
			<path d="M38.099,33.018H9.9c-0.786,0-1.427-0.641-1.427-1.428V12.475c0-0.787,0.641-1.427,1.427-1.427h28.198
				c0.787,0,1.428,0.641,1.428,1.427V31.59C39.526,32.377,38.886,33.018,38.099,33.018z M9.9,11.455c-0.562,0-1.02,0.458-1.02,1.02
				V31.59c0,0.562,0.458,1.02,1.02,1.02h28.198c0.562,0,1.02-0.458,1.02-1.02V12.475c0-0.562-0.457-1.02-1.02-1.02H9.9z"/>
		</g>
		<g>
			<path d="M39.323,30.627H8.677c-0.113,0-0.203-0.091-0.203-0.204s0.09-0.204,0.203-0.204h30.646c0.111,0,0.203,0.091,0.203,0.204
				S39.435,30.627,39.323,30.627z"/>
		</g>
		<g>
			<g>
				<path d="M17.902,37.036c-0.044,0-0.088-0.014-0.126-0.042c-0.089-0.068-0.104-0.197-0.036-0.287l3.122-4.025
					c0.068-0.089,0.197-0.105,0.286-0.036c0.089,0.068,0.105,0.197,0.037,0.286l-3.122,4.026
					C18.023,37.009,17.962,37.036,17.902,37.036z"/>
			</g>
			<g>
				<path d="M30.097,37.036c-0.062,0-0.121-0.027-0.162-0.079l-3.116-4.026c-0.068-0.089-0.053-0.217,0.037-0.286
					c0.089-0.069,0.217-0.054,0.285,0.036l3.116,4.025c0.069,0.09,0.053,0.218-0.035,0.287
					C30.185,37.022,30.14,37.036,30.097,37.036z"/>
			</g>
		</g>
		<g>
			<path d="M32.511,37.319h-17.02c-0.113,0-0.204-0.091-0.204-0.203c0-0.114,0.091-0.204,0.204-0.204h17.02
				c0.113,0,0.205,0.09,0.205,0.204C32.716,37.228,32.624,37.319,32.511,37.319z"/>
		</g>
	</g>
</g>
</svg>
