<?xml version="1.0" encoding="utf-8"?>
<!-- Generator: Adobe Illustrator 16.0.0, SVG Export Plug-In . SVG Version: 6.00 Build 0)  -->
<!DOCTYPE svg PUBLIC "-//W3C//DTD SVG 1.1//EN" "http://www.w3.org/Graphics/SVG/1.1/DTD/svg11.dtd">
<svg version="1.1" id="Layer_1" xmlns="http://www.w3.org/2000/svg" xmlns:xlink="http://www.w3.org/1999/xlink" x="0px" y="0px"
	 width="48px" height="48px" viewBox="0 0 48 48" enable-background="new 0 0 48 48" xml:space="preserve">
<g>
	<g>
		<g>
			<g>
				<path d="M23.996,24.053c-0.112,0-0.204-0.093-0.204-0.205v-6.086c0-0.113,0.092-0.204,0.204-0.204
					c0.113,0,0.204,0.091,0.204,0.204v6.086C24.2,23.96,24.109,24.053,23.996,24.053z"/>
			</g>
			<g>
				<path d="M27.042,21.009h-6.088c-0.113,0-0.204-0.091-0.204-0.204s0.091-0.204,0.204-0.204h6.088
					c0.112,0,0.203,0.091,0.203,0.204S27.154,21.009,27.042,21.009z"/>
			</g>
		</g>
		<g>
			<path d="M23.996,26.365c-3.065,0-5.559-2.494-5.559-5.56c0-3.064,2.493-5.558,5.559-5.558c3.064,0,5.559,2.494,5.559,5.558
				C29.555,23.871,27.061,26.365,23.996,26.365z M23.996,15.655c-2.84,0-5.151,2.311-5.151,5.15c0,2.841,2.312,5.152,5.151,5.152
				s5.15-2.311,5.15-5.152C29.146,17.965,26.836,15.655,23.996,15.655z"/>
		</g>
	</g>
	<g>
		<g>
			<path d="M38.096,32.734H9.899c-0.787,0-1.428-0.641-1.428-1.428V12.192c0-0.787,0.641-1.428,1.428-1.428h28.196
				c0.787,0,1.428,0.641,1.428,1.428v19.114C39.523,32.093,38.883,32.734,38.096,32.734z M9.899,11.172
				c-0.562,0-1.02,0.458-1.02,1.02v19.114c0,0.563,0.458,1.02,1.02,1.02h28.196c0.562,0,1.02-0.457,1.02-1.02V12.192
				c0-0.562-0.457-1.02-1.02-1.02H9.899z"/>
		</g>
		<g>
			<path d="M42.07,37.604c-0.002,0-0.005,0-0.008,0H5.929c-0.078,0-0.15-0.046-0.185-0.119c-0.033-0.072-0.022-0.156,0.029-0.217
				l2.682-3.176c0.038-0.045,0.096-0.072,0.156-0.072h30.77c0.061,0,0.117,0.027,0.156,0.072l2.652,3.142
				c0.052,0.037,0.085,0.097,0.085,0.166C42.274,37.513,42.183,37.604,42.07,37.604z M6.368,37.197h35.256l-2.338-2.769H8.705
				L6.368,37.197z"/>
		</g>
		<g>
			<path d="M39.319,30.345H8.676c-0.113,0-0.204-0.092-0.204-0.205s0.091-0.204,0.204-0.204h30.644c0.112,0,0.204,0.091,0.204,0.204
				S39.432,30.345,39.319,30.345z"/>
		</g>
	</g>
</g>
</svg>
