<?xml version="1.0" encoding="utf-8"?>
<!-- Generator: Adobe Illustrator 16.0.0, SVG Export Plug-In . SVG Version: 6.00 Build 0)  -->
<!DOCTYPE svg PUBLIC "-//W3C//DTD SVG 1.1//EN" "http://www.w3.org/Graphics/SVG/1.1/DTD/svg11.dtd">
<svg version="1.1" id="Layer_1" xmlns="http://www.w3.org/2000/svg" xmlns:xlink="http://www.w3.org/1999/xlink" x="0px" y="0px"
	 width="48px" height="48px" viewBox="0 0 48 48" enable-background="new 0 0 48 48" xml:space="preserve">
<g>
	<g>
		<g>
			<g>
				<path d="M23.185,26.721c-0.111,0-0.203-0.091-0.203-0.204v-4.666c0-0.112,0.092-0.204,0.203-0.204
					c0.113,0,0.205,0.092,0.205,0.204v4.666C23.39,26.63,23.298,26.721,23.185,26.721z"/>
			</g>
			<g>
				<path d="M25.517,24.389h-4.666c-0.112,0-0.204-0.092-0.204-0.204c0-0.113,0.092-0.204,0.204-0.204h4.666
					c0.112,0,0.203,0.09,0.203,0.204C25.72,24.297,25.629,24.389,25.517,24.389z"/>
			</g>
		</g>
		<g>
			<path d="M23.185,28.494c-2.377,0-4.311-1.933-4.311-4.31c0-2.377,1.934-4.31,4.311-4.31s4.312,1.933,4.312,4.31
				C27.496,26.561,25.562,28.494,23.185,28.494z M23.185,20.283c-2.152,0-3.902,1.75-3.902,3.901c0,2.151,1.75,3.901,3.902,3.901
				s3.902-1.75,3.902-3.901C27.087,22.033,25.337,20.283,23.185,20.283z"/>
		</g>
	</g>
	<g>
		<g>
			<path d="M28.516,32.935H17.853c-1.237,0-2.244-1.007-2.244-2.244V17.679c0-1.238,1.007-2.244,2.244-2.244h10.663
				c1.237,0,2.244,1.006,2.244,2.244v13.012C30.76,31.928,29.753,32.935,28.516,32.935z M17.853,15.843
				c-1.013,0-1.836,0.823-1.836,1.836v13.012c0,1.012,0.823,1.836,1.836,1.836h10.663c1.013,0,1.836-0.824,1.836-1.836V17.679
				c0-1.013-0.823-1.836-1.836-1.836H17.853z"/>
		</g>
		<g>
			<path d="M32.188,22.396c-0.112,0-0.204-0.092-0.204-0.205v-2.84c0-0.114,0.092-0.205,0.204-0.205
				c0.113,0,0.203,0.091,0.203,0.205v2.84C32.392,22.305,32.302,22.396,32.188,22.396z"/>
		</g>
		<g>
			<path d="M27.831,14.17c-0.113,0-0.205-0.091-0.205-0.203v-3.251c0-0.337-0.274-0.611-0.611-0.611h-7.661
				c-0.337,0-0.611,0.273-0.611,0.611v3.251c0,0.112-0.092,0.203-0.204,0.203s-0.204-0.091-0.204-0.203v-3.251
				c0-0.562,0.458-1.02,1.02-1.02h7.661c0.562,0,1.02,0.458,1.02,1.02v3.251C28.034,14.079,27.943,14.17,27.831,14.17z"/>
		</g>
		<g>
			<path d="M27.015,38.673h-7.661c-0.562,0-1.02-0.458-1.02-1.02v-3.251c0-0.113,0.092-0.204,0.204-0.204s0.204,0.091,0.204,0.204
				v3.251c0,0.337,0.274,0.612,0.611,0.612h7.661c0.337,0,0.611-0.274,0.611-0.612v-3.251c0-0.113,0.092-0.204,0.205-0.204
				c0.112,0,0.203,0.091,0.203,0.204v3.251C28.034,38.215,27.577,38.673,27.015,38.673z"/>
		</g>
	</g>
</g>
</svg>
