<?xml version="1.0" encoding="utf-8"?>
<!-- Generator: Adobe Illustrator 16.0.0, SVG Export Plug-In . SVG Version: 6.00 Build 0)  -->
<!DOCTYPE svg PUBLIC "-//W3C//DTD SVG 1.1//EN" "http://www.w3.org/Graphics/SVG/1.1/DTD/svg11.dtd">
<svg version="1.1" id="Layer_1" xmlns="http://www.w3.org/2000/svg" xmlns:xlink="http://www.w3.org/1999/xlink" x="0px" y="0px"
	 width="48px" height="48px" viewBox="0 0 48 48" enable-background="new 0 0 48 48" xml:space="preserve">
<g>
	<circle cx="24" cy="39.013" r="0.926"/>
</g>
<g>
	<g>
		<g>
			<g>
				<path d="M24,25.814c-0.112,0-0.204-0.091-0.204-0.204V16.91c0-0.113,0.092-0.204,0.204-0.204c0.113,0,0.204,0.091,0.204,0.204
					v8.701C24.204,25.724,24.113,25.814,24,25.814z"/>
			</g>
			<g>
				<path d="M28.353,21.463h-8.703c-0.111,0-0.203-0.091-0.203-0.204s0.092-0.204,0.203-0.204h8.703
					c0.113,0,0.204,0.091,0.204,0.204S28.466,21.463,28.353,21.463z"/>
			</g>
		</g>
		<g>
			<path d="M24,29.117c-4.333,0-7.859-3.525-7.859-7.858c0-4.332,3.526-7.857,7.859-7.857c4.334,0,7.86,3.525,7.86,7.857
				C31.86,25.592,28.334,29.117,24,29.117z M24,13.81c-4.108,0-7.45,3.342-7.45,7.45c0,4.108,3.342,7.45,7.45,7.45
				c4.109,0,7.452-3.341,7.452-7.45C31.452,17.152,28.109,13.81,24,13.81z"/>
		</g>
	</g>
	<g>
		<path d="M35.422,42.109H12.579c-0.788,0-1.429-0.641-1.429-1.427V7.687c0-0.787,0.641-1.427,1.429-1.427h22.843
			c0.787,0,1.428,0.641,1.428,1.427v32.996C36.85,41.469,36.209,42.109,35.422,42.109z M12.579,6.667
			c-0.563,0-1.021,0.458-1.021,1.02v32.996c0,0.562,0.457,1.02,1.021,1.02h22.843c0.562,0,1.021-0.458,1.021-1.02V7.687
			c0-0.562-0.458-1.02-1.021-1.02H12.579z"/>
	</g>
	<g>
		<path d="M36.454,35.961H11.547c-0.112,0-0.203-0.091-0.203-0.204s0.091-0.204,0.203-0.204h24.907c0.112,0,0.203,0.091,0.203,0.204
			S36.566,35.961,36.454,35.961z"/>
	</g>
</g>
</svg>
