<?xml version="1.0" encoding="utf-8"?>
<!-- Generator: Adobe Illustrator 16.0.0, SVG Export Plug-In . SVG Version: 6.00 Build 0)  -->
<!DOCTYPE svg PUBLIC "-//W3C//DTD SVG 1.1//EN" "http://www.w3.org/Graphics/SVG/1.1/DTD/svg11.dtd">
<svg version="1.1" id="Layer_1" xmlns="http://www.w3.org/2000/svg" xmlns:xlink="http://www.w3.org/1999/xlink" x="0px" y="0px"
	 width="48px" height="48px" viewBox="0 0 48 48" enable-background="new 0 0 48 48" xml:space="preserve">
<g>
	<circle cx="24" cy="38.285" r="1.061"/>
</g>
<g>
	<g>
		<g>
			<g>
				<path d="M24,24.406c-0.113,0-0.205-0.092-0.205-0.204v-5.887c0-0.113,0.092-0.204,0.205-0.204s0.203,0.091,0.203,0.204v5.887
					C24.203,24.314,24.113,24.406,24,24.406z"/>
			</g>
			<g>
				<path d="M26.941,21.463h-5.887c-0.111,0-0.203-0.091-0.203-0.204s0.092-0.204,0.203-0.204h5.887
					c0.113,0,0.205,0.091,0.205,0.204S27.055,21.463,26.941,21.463z"/>
			</g>
		</g>
		<g>
			<path d="M24,26.643c-2.969,0-5.383-2.415-5.383-5.383c0-2.968,2.414-5.382,5.383-5.382s5.385,2.415,5.385,5.382
				C29.385,24.228,26.969,26.643,24,26.643z M24,16.286c-2.744,0-4.977,2.231-4.977,4.974c0,2.744,2.232,4.976,4.977,4.976
				s4.977-2.232,4.977-4.976C28.977,18.517,26.744,16.286,24,16.286z"/>
		</g>
	</g>
	<g>
		<path d="M30.988,41.43H17.01c-0.787,0-1.428-0.641-1.428-1.427V8.366c0-0.788,0.641-1.428,1.428-1.428h13.979
			c0.789,0,1.43,0.641,1.43,1.428v31.636C32.418,40.789,31.777,41.43,30.988,41.43z M17.01,7.347c-0.562,0-1.02,0.458-1.02,1.02
			v31.636c0,0.562,0.457,1.02,1.02,1.02h13.979c0.562,0,1.02-0.458,1.02-1.02V8.366c0-0.562-0.457-1.02-1.02-1.02H17.01z"/>
	</g>
	<g>
		<path d="M31.975,35.202H16.023c-0.113,0-0.205-0.092-0.205-0.205s0.092-0.204,0.205-0.204h15.951c0.113,0,0.205,0.091,0.205,0.204
			S32.088,35.202,31.975,35.202z"/>
	</g>
</g>
</svg>
