<?xml version="1.0" encoding="utf-8"?>
<!-- Generator: Adobe Illustrator 16.0.0, SVG Export Plug-In . SVG Version: 6.00 Build 0)  -->
<!DOCTYPE svg PUBLIC "-//W3C//DTD SVG 1.1//EN" "http://www.w3.org/Graphics/SVG/1.1/DTD/svg11.dtd">
<svg version="1.1" id="Layer_1" xmlns="http://www.w3.org/2000/svg" xmlns:xlink="http://www.w3.org/1999/xlink" x="0px" y="0px"
	 width="48px" height="48px" viewBox="0 0 48 48" enable-background="new 0 0 48 48" xml:space="preserve">
<g>
	<g>
		<g>
			<path d="M39.362,33.438H8.627c-0.964,0-1.748-0.785-1.748-1.75V10.951c0-0.965,0.784-1.748,1.748-1.748h30.735
				c0.964,0,1.749,0.783,1.749,1.748v20.736C41.111,32.652,40.326,33.438,39.362,33.438z M8.627,9.701
				c-0.688,0-1.249,0.561-1.249,1.25v20.736c0,0.689,0.56,1.25,1.249,1.25h30.735c0.688,0,1.249-0.561,1.249-1.25V10.951
				c0-0.689-0.561-1.25-1.249-1.25H8.627z"/>
		</g>
		<g>
			<path d="M43.895,38.799c-0.003,0-0.006,0-0.01,0H4.105c-0.098,0-0.186-0.057-0.227-0.145c-0.041-0.088-0.027-0.191,0.036-0.266
				l2.952-3.498c0.047-0.057,0.117-0.088,0.19-0.088h33.876c0.074,0,0.144,0.031,0.191,0.088l2.917,3.455
				c0.063,0.045,0.104,0.119,0.104,0.203C44.145,38.688,44.033,38.799,43.895,38.799z M4.643,38.299h38.705l-2.53-2.996H7.173
				L4.643,38.299z"/>
		</g>
		<g>
			<path d="M40.861,30.807H7.129c-0.138,0-0.25-0.111-0.25-0.25s0.111-0.25,0.25-0.25h33.732c0.138,0,0.25,0.111,0.25,0.25
				S40.999,30.807,40.861,30.807z"/>
		</g>
	</g>
	<g>
		<g>
			<g>
				<path fill="none" stroke="#000000" stroke-linecap="round" stroke-linejoin="round" stroke-miterlimit="10" d="M23.995,29.277"
					/>
			</g>
			<g>
				<path d="M23.995,27.977L23.995,27.977c-0.078,0-0.152-0.037-0.199-0.1c0,0-2.167-2.85-4.039-5.334
					c-0.083-0.109-0.061-0.266,0.049-0.35c0.111-0.082,0.268-0.061,0.35,0.049c1.532,2.033,3.262,4.312,3.839,5.072
					c2.589-3.406,6.317-8.34,6.487-8.648c0.001,0,0.002-0.002,0.003-0.004c0.002-0.006,0.005-0.012,0.008-0.018
					c0.251-0.498,0.378-1.027,0.378-1.576c0-1.951-1.604-3.539-3.575-3.539c-1.356,0-2.51,1.143-3.086,2.119
					c-0.09,0.152-0.34,0.152-0.43,0c-0.577-0.977-1.731-2.119-3.086-2.119c-1.971,0-3.575,1.588-3.575,3.539
					c0,0.549,0.127,1.08,0.378,1.576c0.003,0.006,0.005,0.012,0.008,0.018c0.001,0.002,0.002,0.004,0.003,0.006
					c0.02,0.035,0.151,0.234,0.925,1.275c0.082,0.111,0.059,0.268-0.052,0.35c-0.111,0.082-0.268,0.059-0.35-0.051
					c-0.896-1.207-0.946-1.305-0.968-1.346c-0.018-0.023-0.03-0.049-0.038-0.076c-0.271-0.553-0.407-1.143-0.407-1.752
					c0-2.227,1.828-4.039,4.074-4.039c1.411,0,2.589,0.994,3.301,2.027c0.712-1.033,1.89-2.027,3.302-2.027
					c2.247,0,4.074,1.812,4.074,4.039c0,0.609-0.138,1.201-0.409,1.756c-0.007,0.029-0.021,0.057-0.039,0.08
					c-0.198,0.383-6.062,8.096-6.729,8.973C24.146,27.939,24.073,27.977,23.995,27.977z"/>
			</g>
		</g>
		<g>
			<path d="M23.364,23.855c-0.12,0-0.223-0.084-0.246-0.203l-0.635-3.318l-0.542,1.004c-0.044,0.08-0.128,0.131-0.22,0.131h-4.715
				c-0.138,0-0.25-0.111-0.25-0.25c0-0.137,0.112-0.25,0.25-0.25h4.566l0.806-1.49c0.05-0.094,0.155-0.145,0.258-0.129
				c0.104,0.018,0.187,0.096,0.207,0.201l0.49,2.561l0.738-4.99c0.018-0.121,0.122-0.211,0.244-0.213
				c0.104,0.014,0.229,0.086,0.25,0.207l0.838,4.75l0.333-0.795c0.039-0.094,0.129-0.154,0.23-0.154h1.409
				c0.138,0,0.25,0.111,0.25,0.25s-0.112,0.25-0.25,0.25h-1.243l-0.598,1.428c-0.043,0.102-0.146,0.164-0.258,0.15
				c-0.11-0.012-0.199-0.094-0.218-0.203l-0.719-4.072l-0.729,4.924c-0.018,0.121-0.12,0.211-0.242,0.213
				C23.367,23.855,23.365,23.855,23.364,23.855z"/>
		</g>
	</g>
</g>
</svg>
