<?xml version="1.0" encoding="utf-8"?>
<!-- Generator: Adobe Illustrator 16.0.0, SVG Export Plug-In . SVG Version: 6.00 Build 0)  -->
<!DOCTYPE svg PUBLIC "-//W3C//DTD SVG 1.1//EN" "http://www.w3.org/Graphics/SVG/1.1/DTD/svg11.dtd">
<svg version="1.1" id="Layer_1" xmlns="http://www.w3.org/2000/svg" xmlns:xlink="http://www.w3.org/1999/xlink" x="0px" y="0px"
	 width="48px" height="48px" viewBox="0 0 48 48" enable-background="new 0 0 48 48" xml:space="preserve">
<g>
	<g>
		<g>
			<path d="M39.367,33.748H8.632c-0.964,0-1.748-0.783-1.748-1.748V11.264c0-0.965,0.784-1.75,1.748-1.75h30.735
				c0.964,0,1.749,0.785,1.749,1.75V32C41.116,32.965,40.331,33.748,39.367,33.748z M8.632,10.014c-0.688,0-1.249,0.561-1.249,1.25
				V32c0,0.689,0.56,1.25,1.249,1.25h30.735c0.688,0,1.249-0.561,1.249-1.25V11.264c0-0.689-0.561-1.25-1.249-1.25H8.632z"/>
		</g>
		<g>
			<path d="M40.866,31.119H7.134c-0.138,0-0.25-0.113-0.25-0.25c0-0.139,0.111-0.25,0.25-0.25h33.732c0.138,0,0.25,0.111,0.25,0.25
				C41.116,31.006,41.004,31.119,40.866,31.119z"/>
		</g>
		<g>
			<g>
				<path d="M17.288,38.174c-0.054,0-0.107-0.018-0.153-0.053c-0.109-0.084-0.129-0.24-0.045-0.35l3.435-4.434
					c0.084-0.109,0.241-0.129,0.35-0.045c0.109,0.086,0.129,0.242,0.045,0.352l-3.434,4.434
					C17.436,38.141,17.362,38.174,17.288,38.174z"/>
			</g>
			<g>
				<path d="M30.712,38.174c-0.075,0-0.148-0.033-0.198-0.096l-3.434-4.434c-0.084-0.109-0.064-0.266,0.044-0.352
					c0.109-0.084,0.266-0.064,0.351,0.045l3.434,4.434c0.084,0.109,0.064,0.266-0.044,0.35
					C30.82,38.156,30.766,38.174,30.712,38.174z"/>
			</g>
		</g>
		<g>
			<path d="M33.366,38.486H14.634c-0.138,0-0.25-0.111-0.25-0.25s0.112-0.25,0.25-0.25h18.732c0.138,0,0.25,0.111,0.25,0.25
				S33.504,38.486,33.366,38.486z"/>
		</g>
	</g>
	<g>
		<g>
			<g>
				<path fill="none" stroke="#000000" stroke-linecap="round" stroke-linejoin="round" stroke-miterlimit="10" d="M24,29.588"/>
			</g>
			<g>
				<path d="M24,28.324c-0.078,0-0.151-0.037-0.199-0.1c0,0-2.115-2.779-3.941-5.203c-0.083-0.111-0.061-0.268,0.049-0.35
					c0.11-0.082,0.267-0.061,0.35,0.049c1.491,1.979,3.173,4.193,3.741,4.941c2.525-3.322,6.157-8.129,6.324-8.43
					c0-0.002,0.001-0.002,0.002-0.004c0.002-0.006,0.005-0.012,0.008-0.018c0.245-0.484,0.369-1.002,0.369-1.535
					c0-1.9-1.562-3.447-3.482-3.447c-1.321,0-2.444,1.113-3.006,2.064c-0.09,0.152-0.34,0.152-0.43,0
					c-0.562-0.951-1.687-2.064-3.006-2.064c-1.92,0-3.482,1.547-3.482,3.447c0,0.533,0.124,1.051,0.368,1.535
					c0.003,0.006,0.005,0.012,0.008,0.018c0.001,0.002,0.002,0.004,0.003,0.006c0.019,0.033,0.147,0.229,0.902,1.242
					c0.082,0.111,0.059,0.268-0.051,0.35c-0.112,0.082-0.268,0.061-0.35-0.051c-0.875-1.178-0.923-1.27-0.945-1.314
					c-0.018-0.023-0.031-0.049-0.039-0.076c-0.263-0.541-0.396-1.115-0.396-1.709c0-2.176,1.786-3.947,3.981-3.947
					c1.375,0,2.524,0.967,3.221,1.975c0.696-1.008,1.845-1.975,3.221-1.975c2.195,0,3.981,1.771,3.981,3.947
					c0,0.596-0.134,1.172-0.399,1.715c-0.007,0.027-0.02,0.055-0.037,0.078c-0.194,0.375-5.915,7.9-6.567,8.756
					C24.151,28.287,24.078,28.324,24,28.324z"/>
			</g>
		</g>
		<g>
			<path d="M23.384,24.305c-0.12,0-0.223-0.084-0.245-0.203l-0.616-3.223l-0.521,0.965c-0.043,0.08-0.128,0.131-0.22,0.131h-4.601
				c-0.138,0-0.25-0.111-0.25-0.25c0-0.137,0.112-0.25,0.25-0.25h4.452l0.784-1.451c0.05-0.094,0.154-0.145,0.258-0.127
				c0.104,0.016,0.187,0.096,0.207,0.199l0.471,2.465l0.715-4.834c0.018-0.121,0.121-0.211,0.244-0.213
				c0.119-0.004,0.228,0.086,0.249,0.205l0.814,4.617l0.317-0.758c0.039-0.094,0.13-0.154,0.23-0.154h1.375
				c0.138,0,0.25,0.111,0.25,0.25s-0.112,0.25-0.25,0.25h-1.208l-0.582,1.389c-0.043,0.102-0.147,0.162-0.258,0.15
				c-0.11-0.012-0.199-0.094-0.218-0.203l-0.695-3.938l-0.706,4.77c-0.018,0.121-0.12,0.211-0.242,0.213
				C23.387,24.305,23.386,24.305,23.384,24.305z"/>
		</g>
	</g>
</g>
</svg>
