<?xml version="1.0" encoding="utf-8"?>
<!-- Generator: Adobe Illustrator 16.0.0, SVG Export Plug-In . SVG Version: 6.00 Build 0)  -->
<!DOCTYPE svg PUBLIC "-//W3C//DTD SVG 1.1//EN" "http://www.w3.org/Graphics/SVG/1.1/DTD/svg11.dtd">
<svg version="1.1" id="Layer_1" xmlns="http://www.w3.org/2000/svg" xmlns:xlink="http://www.w3.org/1999/xlink" x="0px" y="0px"
	 width="48px" height="48px" viewBox="0 0 48 48" enable-background="new 0 0 48 48" xml:space="preserve">
<g>
	<g>
		<g>
			<path d="M28.717,33.656H17.485c-1.515,0-2.748-1.232-2.748-2.746V17.092c0-1.516,1.233-2.748,2.748-2.748h11.231
				c1.515,0,2.748,1.232,2.748,2.748V30.91C31.465,32.424,30.231,33.656,28.717,33.656z M17.485,14.844
				c-1.24,0-2.248,1.008-2.248,2.248V30.91c0,1.238,1.008,2.248,2.248,2.248h11.231c1.24,0,2.248-1.01,2.248-2.248V17.092
				c0-1.24-1.008-2.248-2.248-2.248H17.485z"/>
		</g>
		<g>
			<path d="M33.013,22.057c-0.138,0-0.25-0.111-0.25-0.248v-3.127c0-0.139,0.112-0.25,0.25-0.25c0.139,0,0.25,0.111,0.25,0.25v3.127
				C33.263,21.945,33.151,22.057,33.013,22.057z"/>
		</g>
		<g>
			<path d="M28.215,13.002c-0.138,0-0.249-0.111-0.249-0.25V9.275c0-0.414-0.336-0.75-0.75-0.75h-8.229
				c-0.413,0-0.749,0.336-0.749,0.75v3.477c0,0.139-0.112,0.25-0.25,0.25s-0.25-0.111-0.25-0.25V9.275
				c0-0.689,0.561-1.25,1.249-1.25h8.229c0.689,0,1.249,0.561,1.249,1.25v3.477C28.465,12.891,28.354,13.002,28.215,13.002z"/>
		</g>
		<g>
			<path d="M27.216,39.975h-8.229c-0.688,0-1.249-0.559-1.249-1.248v-3.479c0-0.137,0.112-0.248,0.25-0.248s0.25,0.111,0.25,0.248
				v3.479c0,0.412,0.336,0.75,0.749,0.75h8.229c0.414,0,0.75-0.338,0.75-0.75v-3.479c0-0.137,0.111-0.248,0.249-0.248
				c0.139,0,0.25,0.111,0.25,0.248v3.479C28.465,39.416,27.905,39.975,27.216,39.975z"/>
		</g>
	</g>
	<g>
		<g>
			<g>
				<path fill="none" stroke="#000000" stroke-linecap="round" stroke-linejoin="round" stroke-miterlimit="10" d="M23.102,30.641"
					/>
			</g>
			<g>
				<path d="M23.102,29.748c-0.078,0-0.151-0.037-0.199-0.098c0,0-1.596-2.1-2.976-3.93c-0.083-0.109-0.061-0.268,0.05-0.35
					c0.109-0.082,0.266-0.061,0.35,0.049c1.086,1.441,2.306,3.049,2.775,3.666c1.895-2.492,4.582-6.049,4.721-6.293h0.001
					c0.001-0.004,0.003-0.008,0.006-0.012c0.18-0.359,0.271-0.74,0.271-1.133c0-1.4-1.151-2.541-2.567-2.541
					c-0.971,0-1.801,0.822-2.217,1.527c-0.045,0.076-0.127,0.123-0.215,0.123l0,0c-0.088,0-0.17-0.047-0.215-0.123
					c-0.416-0.705-1.247-1.527-2.218-1.527c-1.415,0-2.566,1.141-2.566,2.541c0,0.393,0.091,0.773,0.271,1.133
					c0.024,0.049,0.031,0.104,0.021,0.156c-0.009,0.066-0.042,0.129-0.1,0.168c-0.113,0.08-0.262,0.061-0.341-0.051
					c-0.011-0.016-0.021-0.033-0.027-0.051h-0.001c-0.215-0.428-0.324-0.885-0.324-1.355c0-1.676,1.376-3.041,3.066-3.041
					c1.029,0,1.893,0.699,2.433,1.445c0.539-0.746,1.401-1.445,2.432-1.445c1.69,0,3.067,1.365,3.067,3.041
					c0,0.457-0.104,0.9-0.307,1.318c-0.008,0.023-0.019,0.047-0.034,0.068c-0.142,0.275-4.156,5.559-4.959,6.615
					C23.253,29.711,23.18,29.748,23.102,29.748z"/>
			</g>
		</g>
		<g>
			<path d="M22.637,26.273c-0.12,0-0.224-0.084-0.246-0.203l-0.433-2.264l-0.312,0.578c-0.044,0.08-0.128,0.131-0.22,0.131h-3.474
				c-0.138,0-0.25-0.111-0.25-0.25s0.112-0.25,0.25-0.25h3.324l0.574-1.064c0.051-0.092,0.153-0.143,0.258-0.127
				s0.188,0.096,0.207,0.199l0.313,1.637l0.463-2.549c0.021-0.117,0.122-0.203,0.24-0.205c0.002,0,0.004,0,0.006,0
				c0.116,0,0.218,0.08,0.244,0.195l0.555,2.471l0.186-0.443c0.038-0.092,0.13-0.152,0.23-0.152h1.037c0.138,0,0.25,0.111,0.25,0.25
				c0,0.137-0.112,0.248-0.25,0.248H24.72l-0.424,1.012c-0.042,0.1-0.146,0.16-0.252,0.152c-0.108-0.01-0.198-0.088-0.223-0.193
				l-0.457-2.035l-0.482,2.658C22.86,26.188,22.758,26.273,22.637,26.273L22.637,26.273z"/>
		</g>
	</g>
</g>
</svg>
