<?xml version="1.0" encoding="utf-8"?>
<!-- Generator: Adobe Illustrator 16.0.0, SVG Export Plug-In . SVG Version: 6.00 Build 0)  -->
<!DOCTYPE svg PUBLIC "-//W3C//DTD SVG 1.1//EN" "http://www.w3.org/Graphics/SVG/1.1/DTD/svg11.dtd">
<svg version="1.1" id="Layer_1" xmlns="http://www.w3.org/2000/svg" xmlns:xlink="http://www.w3.org/1999/xlink" x="0px" y="0px"
	 width="48px" height="48px" viewBox="0 0 48 48" enable-background="new 0 0 48 48" xml:space="preserve">
<g>
	<g>
		<path d="M36.421,43.758H11.579c-0.965,0-1.749-0.783-1.749-1.748V5.99c0-0.963,0.784-1.748,1.749-1.748h24.842
			c0.964,0,1.749,0.785,1.749,1.748v36.02C38.17,42.975,37.385,43.758,36.421,43.758z M11.579,4.742
			c-0.689,0-1.249,0.559-1.249,1.248v36.02c0,0.689,0.56,1.25,1.249,1.25h24.842c0.688,0,1.249-0.561,1.249-1.25V5.99
			c0-0.689-0.561-1.248-1.249-1.248H11.579z"/>
	</g>
	<g>
		<circle cx="24" cy="40.451" r="1.02"/>
	</g>
	<g>
		<path d="M37.707,36.988H10.293c-0.139,0-0.25-0.111-0.25-0.25c0-0.137,0.111-0.248,0.25-0.248h27.414
			c0.139,0,0.25,0.111,0.25,0.248C37.957,36.877,37.846,36.988,37.707,36.988z"/>
	</g>
	<g>
		<g>
			<path fill="none" stroke="#000000" stroke-linecap="round" stroke-linejoin="round" stroke-miterlimit="10" d="M24,31.77"/>
		</g>
		<g>
			<path d="M24,30.09c-0.078,0-0.151-0.037-0.199-0.098c0,0-2.694-3.543-5.021-6.633c-0.083-0.109-0.061-0.266,0.05-0.35
				c0.11-0.082,0.267-0.061,0.35,0.049c1.95,2.588,4.157,5.496,4.821,6.369c3.232-4.252,7.926-10.461,8.119-10.822
				c0.001-0.002,0.002-0.004,0.004-0.008c0.003-0.006,0.006-0.014,0.01-0.021c0.316-0.627,0.478-1.295,0.478-1.988
				c0-2.459-2.021-4.459-4.506-4.459c-1.712,0-3.165,1.436-3.89,2.664c-0.09,0.15-0.341,0.152-0.43,0
				c-0.726-1.229-2.18-2.664-3.89-2.664c-2.484,0-4.506,2-4.506,4.459c0,0.693,0.16,1.363,0.477,1.988
				c0.004,0.008,0.007,0.016,0.01,0.021c0.002,0.004,0.004,0.006,0.005,0.008c0.023,0.045,0.184,0.287,1.155,1.596
				c0.082,0.109,0.059,0.266-0.052,0.35c-0.111,0.08-0.268,0.059-0.35-0.053c-1.111-1.494-1.172-1.613-1.198-1.662
				c-0.018-0.025-0.031-0.051-0.039-0.08c-0.337-0.684-0.508-1.412-0.508-2.168c0-2.734,2.246-4.959,5.006-4.959
				c1.764,0,3.233,1.27,4.104,2.568c0.87-1.299,2.339-2.568,4.104-2.568c2.76,0,5.005,2.225,5.005,4.959
				c0,0.752-0.17,1.48-0.505,2.164c-0.007,0.029-0.021,0.059-0.039,0.084c-0.249,0.48-7.537,10.064-8.366,11.156
				C24.151,30.053,24.078,30.09,24,30.09z"/>
		</g>
	</g>
	<g>
		<path d="M23.215,24.969c-0.119,0-0.223-0.086-0.245-0.203l-0.821-4.297l-0.756,1.4C21.349,21.949,21.265,22,21.173,22h-5.862
			c-0.139,0-0.25-0.111-0.25-0.25s0.111-0.25,0.25-0.25h5.713l1.019-1.885c0.051-0.094,0.155-0.145,0.258-0.129
			c0.104,0.016,0.188,0.096,0.207,0.199l0.677,3.539l0.971-6.561c0.018-0.121,0.121-0.211,0.243-0.213
			c0.108-0.018,0.229,0.086,0.25,0.207l1.078,6.111l0.495-1.182c0.038-0.092,0.129-0.152,0.229-0.152h1.752
			c0.138,0,0.25,0.111,0.25,0.25c0,0.137-0.112,0.248-0.25,0.248h-1.586l-0.759,1.812c-0.043,0.102-0.145,0.164-0.258,0.152
			c-0.11-0.014-0.199-0.096-0.218-0.205l-0.959-5.432l-0.961,6.494c-0.018,0.119-0.12,0.209-0.241,0.213
			C23.219,24.969,23.217,24.969,23.215,24.969z"/>
	</g>
</g>
</svg>
