<?xml version="1.0" encoding="utf-8"?>
<!-- Generator: Adobe Illustrator 16.0.0, SVG Export Plug-In . SVG Version: 6.00 Build 0)  -->
<!DOCTYPE svg PUBLIC "-//W3C//DTD SVG 1.1//EN" "http://www.w3.org/Graphics/SVG/1.1/DTD/svg11.dtd">
<svg version="1.1" id="Layer_1" xmlns="http://www.w3.org/2000/svg" xmlns:xlink="http://www.w3.org/1999/xlink" x="0px" y="0px"
	 width="48px" height="48px" viewBox="0 0 48 48" enable-background="new 0 0 48 48" xml:space="preserve">
<g>
	<g>
		<path d="M31.543,43.01H16.457c-0.964,0-1.748-0.783-1.748-1.748V6.738c0-0.963,0.784-1.748,1.748-1.748h15.086
			c0.964,0,1.748,0.785,1.748,1.748v34.523C33.291,42.227,32.507,43.01,31.543,43.01z M16.457,5.49
			c-0.688,0-1.248,0.561-1.248,1.248v34.523c0,0.689,0.56,1.25,1.248,1.25h15.086c0.688,0,1.248-0.561,1.248-1.25V6.738
			c0-0.688-0.56-1.248-1.248-1.248H16.457z"/>
	</g>
	<g>
		<path d="M32.781,36.156H15.219c-0.138,0-0.249-0.113-0.249-0.25c0-0.139,0.111-0.25,0.249-0.25h17.562
			c0.138,0,0.249,0.111,0.249,0.25C33.03,36.043,32.919,36.156,32.781,36.156z"/>
	</g>
	<g>
		<circle cx="24" cy="39.453" r="1.02"/>
	</g>
	<g>
		<g>
			<path fill="none" stroke="#000000" stroke-linecap="round" stroke-linejoin="round" stroke-miterlimit="10" d="M24,28.924"/>
		</g>
		<g>
			<path d="M24,27.877c-0.078,0-0.151-0.035-0.199-0.098c0,0-1.809-2.379-3.371-4.453c-0.083-0.109-0.061-0.266,0.049-0.35
				c0.11-0.082,0.268-0.061,0.351,0.049c1.251,1.66,2.66,3.516,3.171,4.189c2.152-2.832,5.228-6.9,5.379-7.168v-0.002
				c0.002-0.004,0.005-0.01,0.008-0.016c0.206-0.41,0.312-0.846,0.312-1.297c0-1.605-1.32-2.912-2.942-2.912
				c-1.114,0-2.065,0.941-2.541,1.748c-0.09,0.15-0.34,0.15-0.43,0c-0.477-0.807-1.428-1.748-2.541-1.748
				c-1.622,0-2.942,1.307-2.942,2.912c0,0.451,0.104,0.887,0.312,1.297c0.025,0.051,0.032,0.107,0.021,0.162
				c-0.009,0.064-0.041,0.123-0.096,0.164c-0.111,0.08-0.26,0.064-0.341-0.045c-0.013-0.018-0.022-0.037-0.03-0.057h-0.001
				c-0.242-0.479-0.364-0.992-0.364-1.521c0-1.881,1.544-3.412,3.441-3.412c1.171,0,2.151,0.807,2.756,1.662
				c0.604-0.855,1.584-1.662,2.756-1.662c1.897,0,3.441,1.531,3.441,3.412c0,0.514-0.115,1.01-0.344,1.479
				c-0.007,0.027-0.02,0.055-0.037,0.078c-0.16,0.311-4.708,6.293-5.617,7.49C24.151,27.842,24.078,27.877,24,27.877z"/>
		</g>
	</g>
	<g>
		<path d="M23.473,23.939c-0.119,0-0.223-0.084-0.245-0.203L22.72,21.08l-0.398,0.736c-0.043,0.08-0.128,0.131-0.22,0.131h-3.936
			c-0.138,0-0.249-0.111-0.249-0.25s0.111-0.25,0.249-0.25h3.787l0.66-1.223c0.051-0.094,0.153-0.145,0.258-0.129
			c0.104,0.018,0.188,0.098,0.207,0.201l0.389,2.031l0.557-3.066c0.021-0.117,0.122-0.203,0.24-0.205
			c0.119,0.006,0.224,0.08,0.249,0.195l0.652,2.902l0.249-0.598c0.039-0.094,0.13-0.152,0.23-0.152h1.177
			c0.138,0,0.249,0.111,0.249,0.248c0,0.139-0.111,0.25-0.249,0.25h-1.011l-0.487,1.166c-0.043,0.1-0.146,0.16-0.253,0.152
			c-0.108-0.01-0.197-0.088-0.222-0.193l-0.554-2.465l-0.576,3.172c-0.021,0.119-0.124,0.205-0.244,0.205
			C23.474,23.939,23.474,23.939,23.473,23.939z"/>
	</g>
</g>
</svg>
