<?xml version="1.0" encoding="utf-8"?>
<!-- Generator: Adobe Illustrator 16.0.0, SVG Export Plug-In . SVG Version: 6.00 Build 0)  -->
<!DOCTYPE svg PUBLIC "-//W3C//DTD SVG 1.1//EN" "http://www.w3.org/Graphics/SVG/1.1/DTD/svg11.dtd">
<svg version="1.1" id="Layer_1" xmlns="http://www.w3.org/2000/svg" xmlns:xlink="http://www.w3.org/1999/xlink" x="0px" y="0px"
	 width="128px" height="128px" viewBox="0 0 128 128" enable-background="new 0 0 128 128" xml:space="preserve">
<g>
	<g>
		<g>
			<path d="M61.786,71.673L61.786,71.673c-0.283,0-0.552-0.12-0.742-0.329l-6.849-7.578c-0.265-0.294-0.333-0.716-0.172-1.077
				c0.161-0.361,0.519-0.594,0.914-0.594h2.508V51.53c0-0.553,0.448-1,1-1h6.683c0.552,0,1,0.447,1,1v10.564h2.511
				c0.396,0,0.753,0.232,0.914,0.594c0.16,0.361,0.093,0.784-0.172,1.077l-6.853,7.578C62.338,71.553,62.069,71.673,61.786,71.673z
				 M57.189,64.095l4.597,5.087l4.6-5.087h-1.258c-0.552,0-1-0.447-1-1V52.53h-4.683v10.564c0,0.553-0.448,1-1,1H57.189z"/>
		</g>
		<g>
			<path d="M73.316,79.808h-23.06c-0.552,0-1-0.447-1-1v-7.629c0-0.553,0.448-1,1-1h3.313c0.552,0,1,0.447,1,1v3.139h14.433v-3.139
				c0-0.553,0.448-1,1-1h3.313c0.552,0,1,0.447,1,1v7.629C74.316,79.36,73.869,79.808,73.316,79.808z M51.257,77.808h21.06v-5.629
				h-1.313v3.139c0,0.553-0.448,1-1,1H53.57c-0.552,0-1-0.447-1-1v-3.139h-1.313V77.808z"/>
		</g>
	</g>
	<g>
		<path d="M77.125,89.747H46.451c-3.309,0-6-2.691-6-6V46.591c0-3.309,2.691-6,6-6h30.674c3.309,0,6,2.691,6,6v37.156
			C83.125,87.056,80.434,89.747,77.125,89.747z M46.451,42.591c-2.206,0-4,1.794-4,4v37.156c0,2.206,1.794,4,4,4h30.674
			c2.206,0,4-1.794,4-4V46.591c0-2.206-1.794-4-4-4H46.451z"/>
	</g>
	<g>
		<path d="M86.631,60.671c-0.552,0-1-0.447-1-1v-7.832c0-0.553,0.448-1,1-1s1,0.447,1,1v7.832
			C87.631,60.224,87.183,60.671,86.631,60.671z"/>
	</g>
	<g>
		<path d="M74.606,37.976c-0.552,0-1-0.447-1-1v-9.221c0-0.552-0.449-1-1-1H50.97c-0.551,0-1,0.448-1,1v9.221c0,0.553-0.448,1-1,1
			s-1-0.447-1-1v-9.221c0-1.654,1.346-3,3-3h21.637c1.654,0,3,1.346,3,3v9.221C75.606,37.528,75.159,37.976,74.606,37.976z"/>
	</g>
	<g>
		<path d="M72.606,105.585H50.97c-1.654,0-3-1.346-3-3v-9.223c0-0.553,0.448-1,1-1s1,0.447,1,1v9.223c0,0.552,0.449,1,1,1h21.637
			c0.551,0,1-0.448,1-1v-9.223c0-0.553,0.448-1,1-1s1,0.447,1,1v9.223C75.606,104.239,74.261,105.585,72.606,105.585z"/>
	</g>
</g>
</svg>
