<?xml version="1.0" encoding="utf-8"?>
<!-- Generator: Adobe Illustrator 16.0.0, SVG Export Plug-In . SVG Version: 6.00 Build 0)  -->
<!DOCTYPE svg PUBLIC "-//W3C//DTD SVG 1.1//EN" "http://www.w3.org/Graphics/SVG/1.1/DTD/svg11.dtd">
<svg version="1.1" id="Layer_1" xmlns="http://www.w3.org/2000/svg" xmlns:xlink="http://www.w3.org/1999/xlink" x="0px" y="0px"
	 width="128px" height="128px" viewBox="0 0 128 128" enable-background="new 0 0 128 128" xml:space="preserve">
<g>
	<g>
		<g>
			<path d="M64.039,68.675L64.039,68.675c-0.283,0-0.552-0.119-0.742-0.329L51.404,55.197c-0.265-0.293-0.333-0.715-0.172-1.076
				c0.161-0.361,0.519-0.595,0.914-0.595h5.092V34.435c0-0.553,0.448-1,1-1h11.609c0.552,0,1,0.447,1,1v19.092h5.088
				c0.396,0,0.753,0.233,0.914,0.595c0.16,0.361,0.093,0.783-0.172,1.076L64.781,68.346C64.591,68.556,64.322,68.675,64.039,68.675z
				 M54.398,55.526l9.641,10.658l9.642-10.658h-3.834c-0.552,0-1-0.447-1-1V35.435h-9.609v19.092c0,0.553-0.448,1-1,1H54.398z"/>
		</g>
		<g>
			<path d="M84.062,79.321H44.019c-0.552,0-1-0.447-1-1V65.069c0-0.553,0.448-1,1-1h5.75c0.552,0,1,0.447,1,1v6.197h26.545v-6.197
				c0-0.553,0.448-1,1-1h5.748c0.552,0,1,0.447,1,1v13.252C85.062,78.874,84.614,79.321,84.062,79.321z M45.019,77.321h38.043
				V66.069h-3.748v6.197c0,0.553-0.448,1-1,1H49.769c-0.552,0-1-0.447-1-1v-6.197h-3.75V77.321z"/>
		</g>
	</g>
	<g>
		<path d="M95.932,115.067H32.15c-2.206,0-4-1.794-4-4V19.271c0-2.206,1.794-4,4-4h63.781c2.206,0,4,1.794,4,4v91.797
			C99.932,113.273,98.137,115.067,95.932,115.067z M32.15,17.271c-1.103,0-2,0.897-2,2v91.797c0,1.103,0.897,2,2,2h63.781
			c1.103,0,2-0.897,2-2V19.271c0-1.103-0.897-2-2-2H32.15z"/>
	</g>
	<g>
		<path d="M66.596,106.403c0,1.412-1.144,2.557-2.557,2.557c-1.407,0-2.553-1.145-2.553-2.557c0-1.406,1.146-2.557,2.553-2.557
			C65.452,103.847,66.596,104.997,66.596,106.403z"/>
	</g>
	<g>
		<path d="M98.401,98.097H29.681c-0.552,0-1-0.447-1-1s0.448-1,1-1h68.721c0.552,0,1,0.447,1,1S98.954,98.097,98.401,98.097z"/>
	</g>
</g>
</svg>
