<?xml version="1.0" encoding="utf-8"?>
<!-- Generator: Adobe Illustrator 16.0.0, SVG Export Plug-In . SVG Version: 6.00 Build 0)  -->
<!DOCTYPE svg PUBLIC "-//W3C//DTD SVG 1.1//EN" "http://www.w3.org/Graphics/SVG/1.1/DTD/svg11.dtd">
<svg version="1.1" id="Layer_1" xmlns="http://www.w3.org/2000/svg" xmlns:xlink="http://www.w3.org/1999/xlink" x="0px" y="0px"
	 width="128px" height="128px" viewBox="0 0 128 128" enable-background="new 0 0 128 128" xml:space="preserve">
<g>
	<g>
		
			<polygon fill="none" stroke="#000000" stroke-width="2" stroke-linecap="round" stroke-linejoin="round" stroke-miterlimit="10" points="
			68.578,54.933 68.578,39.224 59.502,39.224 59.502,54.933 54.744,54.933 64.041,65.204 73.336,54.933 		"/>
		
			<polygon fill="none" stroke="#000000" stroke-width="2" stroke-linecap="round" stroke-linejoin="round" stroke-miterlimit="10" points="
			75.193,63.169 75.193,68.796 52.885,68.796 52.885,63.169 48.39,63.169 48.39,68.796 48.39,69.567 48.39,73.53 79.69,73.53 
			79.69,69.567 79.69,68.796 79.69,63.169 		"/>
	</g>
	<g>
		<g>
			<path d="M103.317,89.196H24.765c-2.206,0-4-1.794-4-4V31.7c0-2.206,1.794-4,4-4h78.553c2.206,0,4,1.794,4,4v53.496
				C107.317,87.402,105.523,89.196,103.317,89.196z M24.765,29.7c-1.103,0-2,0.897-2,2v53.496c0,1.103,0.897,2,2,2h78.553
				c1.103,0,2-0.897,2-2V31.7c0-1.103-0.897-2-2-2H24.765z"/>
		</g>
		<g>
			<path d="M113.917,102.634c-0.007-0.001-0.014-0.001-0.02,0H14.185c-0.389,0-0.743-0.226-0.907-0.579
				c-0.164-0.353-0.108-0.769,0.143-1.066l7.398-8.762c0.19-0.225,0.47-0.354,0.764-0.354h84.916c0.294,0,0.574,0.13,0.764,0.354
				l7.294,8.639c0.22,0.184,0.36,0.46,0.36,0.769C114.917,102.187,114.47,102.634,113.917,102.634z M16.338,100.634h95.406
				l-5.709-6.762H22.047L16.338,100.634z"/>
		</g>
		<g>
			<path d="M106.317,82.604H21.765c-0.552,0-1-0.447-1-1s0.448-1,1-1h84.553c0.552,0,1,0.447,1,1S106.87,82.604,106.317,82.604z"/>
		</g>
	</g>
</g>
</svg>
