<?xml version="1.0" encoding="utf-8"?>
<!-- Generator: Adobe Illustrator 16.0.0, SVG Export Plug-In . SVG Version: 6.00 Build 0)  -->
<!DOCTYPE svg PUBLIC "-//W3C//DTD SVG 1.1//EN" "http://www.w3.org/Graphics/SVG/1.1/DTD/svg11.dtd">
<svg version="1.1" id="Layer_1" xmlns="http://www.w3.org/2000/svg" xmlns:xlink="http://www.w3.org/1999/xlink" x="0px" y="0px"
	 width="128px" height="128px" viewBox="0 0 128 128" enable-background="new 0 0 128 128" xml:space="preserve">
<g>
	<g>
		<g>
			<path d="M64.041,64.13c-0.283,0-0.552-0.119-0.741-0.329l-6.85-7.568c-0.266-0.293-0.333-0.715-0.173-1.076
				s0.519-0.595,0.914-0.595h2.506V43.997c0-0.553,0.448-1,1-1h6.686c0.552,0,1,0.447,1,1v10.564h2.506
				c0.396,0,0.753,0.233,0.914,0.595c0.16,0.361,0.093,0.783-0.172,1.076l-6.848,7.568C64.593,64.011,64.324,64.13,64.041,64.13z
				 M59.445,56.562l4.596,5.078l4.595-5.078h-1.252c-0.552,0-1-0.447-1-1V44.997h-4.686v10.564c0,0.553-0.448,1-1,1H59.445z"/>
		</g>
		<g>
			<path d="M75.568,72.267H52.514c-0.552,0-1-0.447-1-1v-7.631c0-0.553,0.448-1,1-1h3.309c0.552,0,1,0.447,1,1v3.145h14.436v-3.145
				c0-0.553,0.448-1,1-1h3.31c0.552,0,1,0.447,1,1v7.631C76.568,71.819,76.12,72.267,75.568,72.267z M53.514,70.267h21.054v-5.631
				h-1.31v3.145c0,0.553-0.448,1-1,1H55.823c-0.552,0-1-0.447-1-1v-3.145h-1.309V70.267z"/>
		</g>
	</g>
	<g>
		<path d="M83.702,113.192H44.38c-2.206,0-4-1.794-4-4V21.147c0-2.206,1.794-4,4-4h39.321c2.206,0,4,1.794,4,4v88.045
			C87.702,111.398,85.907,113.192,83.702,113.192z M44.38,19.147c-1.103,0-2,0.897-2,2v88.045c0,1.103,0.897,2,2,2h39.321
			c1.103,0,2-0.897,2-2V21.147c0-1.103-0.897-2-2-2H44.38z"/>
	</g>
	<g>
		<path d="M86.05,96.007H42.03c-0.552,0-1-0.447-1-1s0.448-1,1-1h44.02c0.552,0,1,0.447,1,1S86.602,96.007,86.05,96.007z"/>
	</g>
	<g>
		<path d="M66.595,103.901c0,1.408-1.146,2.557-2.554,2.557c-1.411,0-2.557-1.148-2.557-2.557c0-1.41,1.146-2.557,2.557-2.557
			C65.449,101.345,66.595,102.491,66.595,103.901z"/>
	</g>
</g>
</svg>
