<?xml version="1.0" encoding="utf-8"?>
<!-- Generator: Adobe Illustrator 16.0.0, SVG Export Plug-In . SVG Version: 6.00 Build 0)  -->
<!DOCTYPE svg PUBLIC "-//W3C//DTD SVG 1.1//EN" "http://www.w3.org/Graphics/SVG/1.1/DTD/svg11.dtd">
<svg version="1.1" id="Layer_1" xmlns="http://www.w3.org/2000/svg" xmlns:xlink="http://www.w3.org/1999/xlink" x="0px" y="0px"
	 width="100px" height="100px" viewBox="0 0 100 100" enable-background="new 0 0 100 100" xml:space="preserve">
<g>
	<g>
		<path fill-rule="evenodd" clip-rule="evenodd" d="M48.169,6.142c0.16,0,0.32,0,0.48,0c1.226-0.106,0.542,1.698,0.72,2.64
			c0.756,0.604,3.039-0.318,2.88,1.2c-0.245,0.955-1.688,0.713-2.88,0.72c-0.292,2.907,0.11,4.153,1.68,4.8
			c0.133,1.291,0.32,3.575,0.24,5.76c3.128,4.073,7.185,7.215,10.56,11.04c-0.179,1.539,0.28,2.44,0.24,3.84
			c8.32,0,16.641,0,24.96,0c0.952,18.169,0.485,39.032,0.24,57.6c-19.396,0.044-38.238,0-58.56,0c-5.915,0-11.838,0.556-17.28-0.72
			c1.201-19.049-0.093-39.091,0.48-57.36c7.817,0.342,15.772,0.547,24,0.48c-0.12-1.32,0.265-3.145-0.24-4.08
			c3.147-3.893,6.915-7.166,10.8-10.32c-0.534-1.626-0.099-4.221-0.24-6.24c-0.157-0.957,0.913-0.688,1.681-0.72
			c-0.125-1.525,0.232-2.59,0-3.6c-0.117-0.763-2.164,0.403-1.921-0.72c-0.055-1.095,0.677-1.403,1.921-1.2
			C48.027,8.239,47.698,6.79,48.169,6.142z M50.089,19.822c-0.67-0.69,0.175-2.894-0.479-3.6c-0.929-0.128-1.172,0.428-2.16,0.24
			c0.103,1.098,0.365,2.035,0.24,3.36C48.651,19.008,49.629,19.873,50.089,19.822z M48.65,21.742
			c-2.778,2.466-6.296,5.314-8.88,7.92c-0.82,0.827-2.305,2.052-1.92,2.64c7.208,0.048,15.121-0.071,21.6,0
			C56.027,28.604,53.022,24.49,48.65,21.742z M37.37,34.462c0.53,0.03,0.102,1.018,0.24,1.44c7.121,0.4,15.919,0.4,23.041,0
			c-0.545-0.2,0.478-1.475-0.24-1.92C53.257,33.71,44.271,33.683,37.37,34.462z M13.609,37.582c0.069-0.65-1.13,0.549-0.48,0.48
			c0.145,6.021-0.305,14.701,0.24,21.12c23.281,0.001,48.639-0.001,72.72,0c-0.082-6.181,0.226-14.307-0.24-21.36
			C61.053,37.772,37.926,38.06,13.609,37.582z M13.129,61.102c-0.198,0.679,0.338,0.622,0.24,1.2
			c10.963,0.439,24.032,0.239,36.72,0.239c10.834,0,22.34,0.275,32.88,0c0.83-0.021,3.271,0.497,3.12-1.199
			c0.168-1.686-2.337-0.94-3.12-0.96c-23.043-0.601-46.864,0.452-69.36,0C13.272,60.445,13.336,60.909,13.129,61.102z
			 M13.129,64.462c0.159,8.883-0.318,19.8,0.24,27.359c8.561,0.401,18.798,0.398,27.36,0c0.262-6.51-0.557-14.932,0.48-19.92
			c4.945,0.28,12.045-0.671,15.12,0.72c0,6.48,0,12.96,0,19.44c9.767,0.004,20.792-0.006,29.76,0c0.036-8.382,0.138-19.867,0-28.32
			c-24.239,0-48.48,0-72.72,0C13.09,63.783,13.109,64.122,13.129,64.462z M41.93,73.582c0.506,5.774-0.716,12.433,0.48,18.48
			c0.48,0,0.96,0,1.44,0c0.118-2.914,0-9.113-0.48-12.96c0.362-3.889,6.986-5.228,9.12-1.92c1.166,4.031-0.098,11.51,0.72,15.12
			c2.167,0.387,1.63-1.975,1.68-3.36c0.184-5.037,0.049-11.298-0.239-15.36C50.41,73.582,46.169,73.582,41.93,73.582z
			 M51.049,77.902c-1.322-2.224-5.344-1.38-6,0.96c-0.253,4.583,0.519,9.39,0.24,13.2c2.195,0.245,3.895-0.1,6.48,0
			C51.777,86.57,51.892,82.304,51.049,77.902z"/>
		<path fill-rule="evenodd" clip-rule="evenodd" d="M56.57,53.422c-4.641,0-9.28,0-13.92,0c0.013-2.596,0.157-6.284,0.48-8.88
			c1.982-3.138,7.848-3.86,11.04-1.68C56.939,44.753,56.812,49.444,56.57,53.422z M45.049,45.022c-0.659,1.9-0.563,4.557-0.72,6.96
			c3.167-0.634,7.708,0.095,10.32,0c0.396-2.153-0.229-5.737-1.44-7.68C50.676,43.281,46.656,42.846,45.049,45.022z"/>
		<path fill-rule="evenodd" clip-rule="evenodd" d="M30.41,53.422c-2.96,0-5.92,0-8.88,0c-0.263-1.737-0.278-3.723-0.24-5.76
			c1.363-1.605,2.577-3.81,4.8-3.84C30.045,43.769,29.868,49.191,30.41,53.422z M23.209,48.142c0,1.28,0,2.56,0,3.84
			c1.76,0,3.52,0,5.28,0C29.493,47.074,25.123,43.431,23.209,48.142z"/>
		<path fill-rule="evenodd" clip-rule="evenodd" d="M76.009,45.022c1.446,1.482,1.615,5.359,1.44,7.68
			c-2.811-0.149-6.226,0.306-8.641-0.239C67.219,47.134,71.346,42.611,76.009,45.022z M70.969,46.702
			c-0.438,1.283-0.964,3.346-0.479,4.799c2.079-0.286,3.866,0.617,5.52,0C76.089,47.984,74.593,44.431,70.969,46.702z"/>
		<path fill-rule="evenodd" clip-rule="evenodd" d="M50.57,45.262c1.125-0.245,1.364,0.395,1.92,0.72
			c-0.088,0.712-0.416,1.184-0.96,1.44C50.49,47.318,50.125,46.168,50.57,45.262z"/>
		<path fill-rule="evenodd" clip-rule="evenodd" d="M46.25,45.502c0.854-0.054,1.438,0.162,1.681,0.72
			c0.073,0.954-0.462,1.299-1.44,1.2C46.185,46.752,45.898,46.236,46.25,45.502z"/>
		<path fill-rule="evenodd" clip-rule="evenodd" d="M74.089,47.902c0.404,0.801-0.152,0.819-0.24,1.68
			c-1.178,0.138-1.769-0.312-1.92-1.2C72.448,47.538,72.963,47.78,74.089,47.902z"/>
		<path fill-rule="evenodd" clip-rule="evenodd" d="M26.569,47.902c0.088,0.861,0.645,0.879,0.24,1.68
			C24.719,51.015,23.608,47.16,26.569,47.902z"/>
		<path fill-rule="evenodd" clip-rule="evenodd" d="M48.41,50.062c-0.315,0.085-0.378,0.422-0.72,0.48
			C44.629,49.896,48.451,46.646,48.41,50.062z"/>
		<path fill-rule="evenodd" clip-rule="evenodd" d="M50.809,48.382c1.19-0.07,1.751,0.49,1.681,1.68
			c-0.478,0.003-0.306,0.655-0.96,0.48C50.457,50.689,50.332,49.035,50.809,48.382z"/>
		<path fill-rule="evenodd" clip-rule="evenodd" d="M76.969,71.182c0.202,2.418-0.196,6.62-0.239,8.88
			c-2.187,0.396-5.975,0.396-8.16,0c-0.515-1.667-0.321-6.045,0-8.4C70.632,70.765,74.175,71.348,76.969,71.182z M69.77,72.862
			c0,1.92,0,3.84,0,5.76c1.92,0,3.84,0,5.76,0c0-2.08,0-4.159,0-6.239C73.371,72.303,71.48,72.493,69.77,72.862z"/>
		<path fill-rule="evenodd" clip-rule="evenodd" d="M31.196,79.927c-2.41,0.283-6.623,0.026-8.883,0.06
			c-0.47-2.173-0.597-5.958-0.274-8.156c1.649-0.57,6.031-0.523,8.396-0.282C32.008,74.859,30.893,76.674,31.196,79.927z
			 M23.613,72.862c0,1.92,0,3.84,0,5.76c1.92,0,3.84,0,5.76,0c0-2.08,0-4.159,0-6.239C27.214,72.303,25.323,72.493,23.613,72.862z"
			/>
	</g>
</g>
</svg>
