<?xml version="1.0" encoding="utf-8"?>
<!-- Generator: Adobe Illustrator 16.0.0, SVG Export Plug-In . SVG Version: 6.00 Build 0)  -->
<!DOCTYPE svg PUBLIC "-//W3C//DTD SVG 1.1//EN" "http://www.w3.org/Graphics/SVG/1.1/DTD/svg11.dtd">
<svg version="1.1" id="Layer_1" xmlns="http://www.w3.org/2000/svg" xmlns:xlink="http://www.w3.org/1999/xlink" x="0px" y="0px"
	 width="100px" height="100px" viewBox="0 0 100 100" enable-background="new 0 0 100 100" xml:space="preserve">
<g>
	<g>
		<path fill-rule="evenodd" clip-rule="evenodd" d="M54.637,10.071c0.331,1.071,0.152,2.652,0.548,3.657
			c0.493,0.421,1.764,0.065,2.561,0.183c0.05,1.202,0.275,2.124,0,3.475c-0.671,0.437-1.928-0.357-2.743,0.183
			c-0.458,2.575-0.004,6.022-0.183,8.411c1.714,1.029,3.812,1.674,4.389,3.84c2.925,0,5.851,0,8.776,0
			c0.174,5.757-0.362,15.109-0.183,21.943c2.521,1.867,4.927,3.85,5.852,7.314c3.244-0.013,6.147,0.313,9.508,0.183
			c-0.013,11.031-0.118,20.667-0.183,31.086c-4.163,0.523-8.686,0.037-14.08,0.183c-0.082-7.748-0.202-17.704-0.183-27.063
			c-0.382,0.17-2.441,0.237-3.657,0.183c2.09,1.496,1.952,4.442,2.194,7.497c-1.957,0.112-5.42,0.189-7.132-0.548
			c0.32-2.545,0.646-5.083,1.829-6.766c-0.955-0.136-2.409,0.146-3.474,0.182c0.339,8.724,0.358,18.114,0,26.332
			c-3.956-0.049-8.703,0.068-12.069,0c-0.225-7.961-0.327-17.58-0.366-26.332c-1.061-0.402-2.847-0.079-4.206-0.182
			c1.259,1.118,1.722,4.616,2.012,7.314c-1.82,0.276-5.837,0.736-7.863,0.183c0.196-2.314,0.722-5.854,2.194-7.497
			c-0.879,0.181-2.158,0.188-3.474,0.365c0.205,9.387,0.389,17.548,0.183,26.697c-4.518,0.42-9.809,0.065-14.629,0.183
			c0.3-10.319,0.311-20.727,0.183-30.721c2.219-0.828,6.098,0.003,8.411-0.731c1.273-3.481,4.267-5.241,7.314-6.948
			c0.637-8.234-0.532-15.35,0-23.589c2.958-0.466,6.77,0.052,9.509-0.183c1.544-0.832,2.877-1.877,4.754-2.377
			c0.278-3.021,0.507-5.315,0.366-8.959c-0.726-0.167-2.191-0.096-3.291-0.366c-0.293-1.238-0.288-2.754,0.183-3.475
			c0.867-0.25,1.751,0.067,2.743,0.183c0.552-1.114-0.036-2.444,0.366-3.474C51.473,9.711,53.39,10.226,54.637,10.071z
			 M52.077,15.008c-1.064,0.094-2.522-0.205-3.292,0.183c0,0.366,0,0.731,0,1.097c0.712,0.384,2.103,0.091,3.108,0.183
			c1.095,1.828-0.609,5.346,0.731,6.949c0.183,0,0.366,0,0.549,0c0.547-1.891-0.181-5.058,0.366-6.949
			c0.891-0.084,2.142,0.191,2.742-0.183c0-0.488,0-0.976,0-1.463c-0.339-0.278-1.844,0.026-2.376-0.549
			c-0.286-0.811-0.205-1.99-0.366-2.925C51.264,10.773,51.91,13.708,52.077,15.008z M51.711,27.625
			c-2.177,0.505-3.878,1.486-5.12,2.926c-3.324-0.112-5.819-0.112-9.143,0c0.336,1.79-0.012,6.651,0.366,8.412
			c2.536-0.207,5.3-0.186,7.863-0.366c0-0.975,0-1.951,0-2.926c1.475-2.547,3.255-4.791,6.217-5.852
			c5.363-0.182,7.083,3.28,6.949,8.595c3.344,0.032,5.038-0.07,7.68-0.183c0.117-2.556-0.157-4.719-0.183-7.131
			c-2.235-0.286-5.885,0.454-8.045-0.366c-0.26-0.777-0.568-1.504-1.098-2.012c-0.874-0.71-2.29-0.879-3.291-1.463
			c0.028-1.003,0.02-1.97-0.183-2.743C51.431,23.932,51.602,25.81,51.711,27.625z M49.151,33.66
			c2.312-0.647,5.287,0.384,7.497-0.183C55.301,30.791,50.238,30.624,49.151,33.66z M47.871,34.94
			c-0.898,1.701-0.539,4.464-0.548,7.497c-0.011,3.298-0.289,6.465,0.548,8.046c1.475-0.414,6.192-0.415,9.509-0.183
			c0.059-5.048,0.443-10.267-0.183-14.995c-0.873-0.285-1.865-0.452-3.108-0.366c0.957,1.626,2.183,4.65,1.462,6.766
			c-1.923-0.099-4.593,0.428-6.948-0.366c0.79-2.889,0.479-4.826,2.377-6.4C49.944,34.94,48.907,34.94,47.871,34.94z M50.431,40.06
			c1.517,0.357,2.6-0.138,3.84,0.183c-0.023-1.622-0.584-2.707-1.097-3.84C50.535,35.897,50.852,38.347,50.431,40.06z
			 M58.843,40.608c1.824-0.128,5.888,0.403,7.68-0.366c0-0.183,0-0.366,0-0.548C64.564,39.647,59.737,38.917,58.843,40.608z
			 M37.997,40.608c0,0.244,0,0.488,0,0.731c2.248-0.129,7.581,1.333,7.68-1.097C43.667,39.52,39.948,40.072,37.997,40.608z
			 M59.026,42.071c-0.372,2.951-0.147,6.735-0.183,9.509c-3.946,0.375-9.589,0.183-12.983,0c-0.211-3.02,0.443-6.903-0.366-9.326
			c0.119,0.729-0.695,0.524-1.28,0.548c-2.247-0.112-4.122,0.145-6.217,0.183c0.122,4.123-0.41,7.216,0,10.971
			c-3.846,1.152-6.851,3.146-8.046,6.948c-2.393,0.412-5.676-0.068-8.046,0.366c0.212,3.241-0.102,8.482-0.183,10.423
			c3.19,0.746,9.068,0.76,11.886,0.183c-0.447-5.875-1.02-13.955,5.303-14.629c1.522,0.04,2.162-0.162,3.474,0
			c2.748,1.093,3.854,3.827,4.938,6.583c0,2.316,0,4.631,0,6.948c3.194,0.287,7.431-0.959,9.874,0.366
			c-0.094-3.294-0.599-8.304,0.549-11.703c1.632-2.166,4.553-3.322,8.411-2.743c4.188,1.597,4.279,7.87,3.84,13.531
			c4.186,0.034,8.229-0.054,11.703,0.183c0.092-3.261-0.202-6.907,0.183-9.875c-2.886-0.222-6.019-0.199-9.143-0.183
			c-1.147-3.545-3.484-5.902-6.4-7.68c-0.24-2.705-0.047-6.993,0.183-10.606C63.978,41.655,62.048,42.286,59.026,42.071z
			 M58.66,62.003c3.23,0,6.461,0,9.692,0C69.265,56.49,58.534,56.62,58.66,62.003z M34.889,62.368c3.473,0.236,6.872-0.554,10.057,0
			C44.583,57.341,35.438,57.829,34.889,62.368z M40.74,64.746c-2.814-0.532-2.587,3.159-3.109,5.486
			c1.357-0.176,3.525-0.278,4.571-0.183C42.023,67.973,41.864,65.876,40.74,64.746z M65.06,65.477
			c-2.297-2.46-3.279,1.643-3.292,4.206c1.28,0,2.56,0,3.84,0C65.729,67.977,65.393,66.729,65.06,65.477z M78.958,71.877
			c-2.117-0.132-3.75-0.013-6.035,0c-0.966,0.005-2.49-0.444-2.743,0.548c2.896,0.871,8.85,0.608,11.52,0.366
			C82,71.33,79.942,71.938,78.958,71.877z M47.323,72.609c2.043,1.553,6.84,0.353,10.057,0.731c0-0.487,0-0.975,0-1.462
			C54.801,72.232,49.346,71.107,47.323,72.609z M21.905,72.975c0,0.609,0,1.219,0,1.828c3.577-0.732,8.375,0.735,11.703-0.365
			c0-0.244,0-0.488,0-0.731C29.988,73.182,25.504,73.521,21.905,72.975z M70.18,74.438c0.267,4.335-0.113,9.907,0,14.811
			c3.84,0,7.68,0,11.52,0c0-4.875,0-9.752,0-14.629C77.998,74.14,74.362,74.562,70.18,74.438z M48.054,74.438
			c-0.213,0.031-0.199,0.289-0.183,0.548c-0.661,3.906-0.532,10.153,0,14.08c3.109,0,6.217,0,9.326,0
			c0.396-3.888-0.059-9.999,0.366-14.446C54.753,74.199,51.167,74.555,48.054,74.438z M21.905,76.083
			c-0.45,4.91-0.002,8.606-0.548,13.532c3.782,0.423,8.348,0.063,12.435,0.182c-0.046-3.17-0.018-9.287,0-13.348
			C29.509,76.645,25.826,75.69,21.905,76.083z"/>
	</g>
</g>
</svg>
