<?xml version="1.0" encoding="utf-8"?>
<!-- Generator: Adobe Illustrator 16.0.0, SVG Export Plug-In . SVG Version: 6.00 Build 0)  -->
<!DOCTYPE svg PUBLIC "-//W3C//DTD SVG 1.1//EN" "http://www.w3.org/Graphics/SVG/1.1/DTD/svg11.dtd">
<svg version="1.1" id="Layer_1" xmlns="http://www.w3.org/2000/svg" xmlns:xlink="http://www.w3.org/1999/xlink" x="0px" y="0px"
	 width="100px" height="100px" viewBox="0 0 100 100" enable-background="new 0 0 100 100" xml:space="preserve">
<g>
	<g>
		<path fill-rule="evenodd" clip-rule="evenodd" d="M79.462,31.241c1.991-0.385,3.605,0.159,5.101,0.785c0,6.539,0,13.078,0,19.618
			c3.816,0.182,7.729-0.373,10.79,0.195c0,12.01-0.011,22.855,0,34.724c-7.43,0.505-16.42-0.33-24.719,0.197
			c-0.304,1.723-0.352,3.702-0.393,5.689c-10.6,0.084-23.572-0.199-32.565,0.195c-0.565-1.434-0.412-4.282-0.393-5.689
			c-8.3-1.1-19.749,0.293-27.464-0.785c0-9.592,0.559-22.125,0.588-33.742c1.035-0.744,2.551-0.206,4.12-0.197
			c2.583,0.015,5.48-0.699,7.651-0.393c-0.298-7.165,0.507-13.226,0.393-20.206c1.288-0.182,2.522-0.444,3.727-0.196
			c0.337-2.998,1.029-5.642,1.766-8.239C33.231,15.286,40.07,8,50.82,6.326c1.375,0.457,3.595,0.067,5.297,0.196
			c10.552,2.199,16.428,9.075,21.579,16.675C78.437,25.726,79.064,28.368,79.462,31.241z M68.083,14.565
			c-3.415-3.04-7.513-5.555-12.359-6.278c-1.961,0-3.923,0-5.885,0c-2.688,0.884-5.064,1.228-7.259,2.55
			c-5.012,3.021-10.842,8.566-13.144,14.125c-1.018,2.458-0.675,5.384-1.962,8.043c-1.079-0.155-1.888,0.416-3.531,0.196
			c0,6.082,0,12.163,0,18.245c4.408,0.018,10.765-0.531,14.713,0.981c0,1.504,0,3.008,0,4.512c0.85,0,1.7,0,2.55,0
			c-0.788-8.534,0.89-18.359-0.196-26.681c7.09-1.501,16.818-0.459,23.541-0.588c0.84,7.962,0.475,19.98,0.785,26.877
			c1.112,0,2.224,0,3.335,0c0.129-1.506-0.26-3.53,0.196-4.709c3.251,0.118,9.758-0.356,13.929-0.392
			c-0.129-6.083,0.259-12.685-0.196-18.44c-1.625-0.009-3.354,0.084-4.708-0.196C77.233,23.973,73.102,19.032,68.083,14.565z
			 M42.776,31.241c0.802,8.726-0.78,17.415,0,26.092c6.82-0.806,14.271,0.134,20.991-0.589c-0.535-7.729,0.243-17.699-0.785-25.502
			C56.715,30.949,48.853,30.902,42.776,31.241z M11.977,53.408c-0.028,10.489-0.375,19.504-0.393,31.585c1.112,0,2.224,0,3.335,0
			c-0.074-7.341-0.22-13.458,0.196-21.187c2.093-4.146,7.887-6.09,13.929-4.12c1.625,1.056,3.132,2.229,4.119,3.923
			c0.408,6.721,0.102,14.154,0.196,21.187c1.046,0.636,2.876,0.371,3.923,0.196c-0.726-0.424-0.395-1.567-0.392-2.354
			c0.028-9.421-0.161-20.663,0.196-29.231C29.181,51.941,20.156,54.198,11.977,53.408z M70.241,53.408c0,10.463,0,20.926,0,31.389
			c1.088,0.291,2.458,0.556,3.335,0c0.457-7.129,0.066-15.104,0.196-22.56c1.72-6.209,14.976-6.087,17.656-0.785
			c0,5.876,0,12.498,0,18.244c0,1.854-0.494,4.063,0.589,5.493c0.68,0.158,0.753-0.292,1.373-0.196
			c0.144-9.587,0.135-21.762,0-31.977C85.958,53.396,78.58,53.03,70.241,53.408z M38.657,58.509c0,1.373,0,2.747,0,4.12
			c10.349-0.141,20.376-0.404,30.015-0.785c0-1.178,0-2.354,0-3.532C59.182,58.573,48.818,58.842,38.657,58.509z M75.342,63.217
			c0.118,7.445,0.186,14.608,0,21.776c0.851,0,1.7,0,2.551,0c0.129-6.344-0.26-13.208,0.196-19.226
			c3.008,0.131,6.538-0.261,9.22,0.196c0.01,5.513-0.007,12.671,0,18.833c0.668,0.182,1.151,0.549,2.158,0.392
			c0.457-7.39,0.066-15.627,0.196-23.345C86.789,58.199,76.614,57.929,75.342,63.217z M30.614,63.021
			c-3.253-4.04-12.382-3.164-13.929,1.765c-0.401,7.482-0.369,13.046-0.196,20.402c0.896-0.084,2.16,0.199,2.747-0.196
			c0.452-5.694,0.069-12.224,0.196-18.245c3.139,0.13,6.8-0.261,9.613,0.196c0.707,5.591-0.445,13.073,0.588,18.244
			c0.479,0.529,1.279-0.279,2.158,0C31.374,77.824,32.835,68.582,30.614,63.021z M38.657,64.198c0,1.766,0,3.531,0,5.297
			c9.6,0.051,19.384-0.3,30.015-0.589c0-1.765,0-3.531,0-5.296C60.322,63.74,48.128,63.843,38.657,64.198z M79.658,67.141
			c-0.458,5.559-0.065,11.967-0.196,17.852c2.219,0.329,4.01,0.059,6.474-0.196c0-5.885,0-11.771,0-17.656
			C83.843,67.141,81.75,67.141,79.658,67.141z M20.805,68.318c0,5.558,0,11.117,0,16.675c2.208,0.514,4.761,0.524,7.062,0.196
			c-0.403-5.344-0.097-12.842-0.392-17.067C25.034,67.97,23.189,68.414,20.805,68.318z M38.657,71.065c0,1.438,0,2.876,0,4.315
			c8.631,0.339,20.361,0.331,30.015,0.197c0-1.635,0-3.27,0-4.905C58.336,70.213,49.146,71.407,38.657,71.065z M38.657,77.146
			c0,1.177,0,2.354,0,3.531c9.042,0.014,20.235,0.327,30.015,0c0-1.046,0-2.092,0-3.139C57.721,77.125,50.188,77.176,38.657,77.146z
			 M38.657,82.247c-0.198,1.79,0.323,3.383,0.785,3.923c9.697-0.516,19.528,0.056,29.035-0.195
			c-0.496-0.827,0.109-2.013,0.196-3.335C58.699,82.473,49.794,82.21,38.657,82.247z M38.853,87.936
			c0.162,1.255-0.084,1.725,0.196,2.747c9.744-0.13,20.009,0.261,29.427-0.196c0.302-0.68,0.173-1.788,0.196-2.747
			C59.26,88.034,48.67,86.987,38.853,87.936z"/>
		<path fill-rule="evenodd" clip-rule="evenodd" d="M53.958,13.584c0.197,1.044,0.051,3.097-0.196,4.316
			c-1.68-0.111-3.008,0.131-4.512,0.196c-0.134-1.401-0.623-3.39-0.196-4.708C50.724,13.091,52.654,13.096,53.958,13.584z
			 M50.624,16.331c0.739-0.15,0.938,0.24,1.569,0.197c0.212-0.573,0.439-1.13,0.392-1.962c-0.654,0-1.308,0-1.961,0
			C50.624,15.154,50.624,15.743,50.624,16.331z"/>
		<path fill-rule="evenodd" clip-rule="evenodd" d="M61.61,32.81c0.586,6.743,0.343,12.327,0.785,17.459
			c-0.365,0.616-1.13,0.833-1.373,1.569c-4.594,0.082-8.676-0.348-13.34-0.195c-1.143-0.371-1.661,1.346-2.354,0.195
			c-0.561-6.429-0.02-12.191-0.589-19.029C49.601,32.634,56.677,32.565,61.61,32.81z M46.7,50.073
			c2.107-0.014,4.231-0.046,6.081,0.196c-0.538-5.02-0.19-10.926-0.588-16.086c-1.928-0.099-4.273,0.218-5.886-0.196
			C46.712,39.971,46.444,44.354,46.7,50.073z M54.743,50.27c2.052,0.135,4.67-0.141,5.886-0.196
			c-0.162-5.486,0.04-10.615-0.588-15.89c-2.093,0-4.186,0-6.278,0C54.248,40.101,53.697,46.244,54.743,50.27z"/>
	</g>
</g>
</svg>
