<?xml version="1.0" encoding="utf-8"?>
<!-- Generator: Adobe Illustrator 16.0.0, SVG Export Plug-In . SVG Version: 6.00 Build 0)  -->
<!DOCTYPE svg PUBLIC "-//W3C//DTD SVG 1.1//EN" "http://www.w3.org/Graphics/SVG/1.1/DTD/svg11.dtd">
<svg version="1.1" id="Layer_1" xmlns="http://www.w3.org/2000/svg" xmlns:xlink="http://www.w3.org/1999/xlink" x="0px" y="0px"
	 width="100px" height="100px" viewBox="0 0 100 100" enable-background="new 0 0 100 100" xml:space="preserve">
<g>
	<g>
		<g>
			<path fill-rule="evenodd" clip-rule="evenodd" d="M48.762,6.406c0.256,0,0.513,0,0.769,0c0.404,0.749,0.096,2.21,0.192,3.268
				c0.715,0.823,3.318-0.242,3.652,0.961c-0.002,1.407-2.297,0.523-3.46,0.769c-0.472,2.311-0.089,4.288-0.192,6.92
				c0.908,0.374,3.238-0.7,3.46,0.769c-1.825,0.739-5.744,0.406-7.881,0.192c-0.136-1.785,1.463-0.688,2.884-0.961
				c0.567-1.804-0.181-4.922,0.384-6.728c-0.868-0.542-3.177,0.357-3.268-0.961c0.165-1.117,1.895-0.668,3.076-0.77
				C48.924,9.132,48.224,7.15,48.762,6.406z"/>
			<path fill-rule="evenodd" clip-rule="evenodd" d="M60.487,31.587c1.699-1.338,3.435,2.619,0.961,2.691
				C60.28,34.313,59.368,32.469,60.487,31.587z"/>
			<path fill-rule="evenodd" clip-rule="evenodd" d="M50.684,32.548c0.896,2.346-2.678,2.477-2.691,0.77
				C47.984,32.15,49.52,31.934,50.684,32.548z"/>
			<path fill-rule="evenodd" clip-rule="evenodd" d="M37.998,32.74c2.467,2.013-1.817,3.756-2.115,1.538
				C35.745,33.251,36.475,32.634,37.998,32.74z"/>
			<path fill-rule="evenodd" clip-rule="evenodd" d="M81.44,43.89c1.181,7.634,0.769,16.206,0.769,24.604
				c0,8.38,0.373,16.822,0.193,24.99c-20.604,0.358-43.352,0.86-64.395,0.384c-0.901-14.916-0.192-26.924-0.192-43.442
				c0-2.115-0.283-5.094,0.384-5.767c1.42-1.43,12.049-0.577,14.994-0.577C48.595,44.082,65.419,43.295,81.44,43.89z M39.151,47.157
				c6.572,0.101,12.735,0,19.222,0c1.321,0,6.968,0.642,7.113-0.769c0.128-1.254-1.707-0.929-2.5-0.961
				c-8.055-0.333-17.892,0.041-24.604,0.192c-0.111,0.003-2.762-0.477-2.307,0.769C36.431,47.624,38.111,47.142,39.151,47.157z
				 M74.328,45.428c-2.451,0-4.997,0-7.112,0c-0.55,0.026-0.353,0.802-0.385,1.345c3.175,0.051,7.685,0.495,10.957,0.384
				c1.011-0.034,2.443-0.094,2.884-0.961C79.451,44.844,76.588,45.428,74.328,45.428z M32.039,45.812
				c-3.737-0.146-9.343-0.291-12.879-0.193c0,0.513,0,1.025,0,1.538c4.271-0.229,9.606,0.154,13.647-0.192
				c0.522-0.044,1.757,0.394,1.922-0.384C34.859,45.172,33.002,45.85,32.039,45.812z M36.075,48.311
				c-0.256,14.547-0.271,30.138-0.384,44.211c10.271,0.148,19.954-0.294,30.179-0.192c0.688-15.069-0.73-29.258-0.384-44.02
				C55.885,47.763,46.031,48.578,36.075,48.311z M66.831,48.695c0.199,15.113,0.504,28.736,0.961,43.635
				c4.015-0.407,8.604-0.239,12.687-0.577c-0.128-14.481,0.256-29.474-0.192-43.634c-3.806,0.04-8.689-0.027-13.07,0
				C66.974,48.197,66.822,48.367,66.831,48.695z M19.16,48.695c-0.035,14.457,0.047,29.802,0,43.635
				c5.333-0.038,9.785-0.083,14.994,0.192c0.379-15.709,0.143-28.96,0.576-44.019C29.913,48.436,24.084,47.943,19.16,48.695z"/>
			<path fill-rule="evenodd" clip-rule="evenodd" d="M57.412,77.336c-3.681,0.347-8.64-0.357-13.264,0.192
				c-0.365-2.484,0.071-5.503,0.192-8.265c0.074-1.683-0.345-3.447,0.192-4.806c1.771-4.489,10.54-3.004,12.11,1.153
				C58.101,69.471,56.896,73.197,57.412,77.336z M51.645,63.304c-7.997-1.495-5.442,6.681-6.343,12.687c0.576,0,1.153,0,1.73,0
				c-0.032-3.318,0.037-7.192,0.192-9.227c1.867,0.018,5.421-0.233,7.304,0.384c0.251,2.761-0.505,6.528,0.385,8.65
				c0.321,0,0.641,0,0.961,0C56.253,70.911,56.132,64.143,51.645,63.304z M48.377,67.917c0.152,3.021-0.127,5.432,0.192,8.074
				c1.613-0.053,3.481,0.149,4.805-0.192c0.156-2.693-0.253-5.498,0-7.688C51.691,67.671,50.47,67.948,48.377,67.917z"/>
			<path fill-rule="evenodd" clip-rule="evenodd" d="M77.403,75.798c-2.124-0.119-4.729,0.244-6.536-0.191
				c0.395-2.902-0.815-6.067,0-9.227c0.697-2.7,4.38-3.394,5.767-0.961C78.165,68.105,76.707,72.53,77.403,75.798z M75.288,65.996
				c-0.976-1.367-2.622-0.764-3.075,0.769c-0.774,2.619,0.355,4.648,0,7.689c1.463-0.232,2.159,0.084,3.653,0.192
				C75.56,71.976,76.475,67.656,75.288,65.996z"/>
			<path fill-rule="evenodd" clip-rule="evenodd" d="M28.963,77.528c-1.857-0.385-4.375-0.109-6.536-0.192
				c-0.041-3.417-1.603-11.14,1.538-12.494C29.759,62.345,28.933,73.672,28.963,77.528z M26.464,66.187
				c-3.834-3.111-2.988,6.683-3.268,9.804c1.22,0.383,3.201,0.002,4.421,0.385C26.891,73.035,28.435,67.787,26.464,66.187z"/>
		</g>
	</g>
	<g>
		<rect x="48.492" y="16.46" transform="matrix(0.0034 1 -1 0.0034 96.6093 -1.97)" width="1.602" height="62.045"/>
	</g>
	<g>
		<path d="M82.093,45.58H19.071v-1.602h61.034c-1.213-4.693-7.646-24.429-30.012-24.429c-26.931,0-30.198,24.083-30.227,24.326
			l-1.59-0.195c0.032-0.257,3.485-25.732,31.817-25.732c26.17,0,31.754,26.407,31.808,26.674L82.093,45.58z"/>
	</g>
</g>
</svg>
