<?xml version="1.0" encoding="utf-8"?>
<!-- Generator: Adobe Illustrator 16.0.0, SVG Export Plug-In . SVG Version: 6.00 Build 0)  -->
<!DOCTYPE svg PUBLIC "-//W3C//DTD SVG 1.1//EN" "http://www.w3.org/Graphics/SVG/1.1/DTD/svg11.dtd">
<svg version="1.1" id="Layer_1" xmlns="http://www.w3.org/2000/svg" xmlns:xlink="http://www.w3.org/1999/xlink" x="0px" y="0px"
	 width="100px" height="100px" viewBox="0 0 100 100" enable-background="new 0 0 100 100" xml:space="preserve">
<g>
	<g>
		<path fill-rule="evenodd" clip-rule="evenodd" d="M70.211,42.827c0.648-1.739,5.08-0.744,6.479-0.96
			c0.803,1.998,0.645,4.956,0.721,7.68c1.004,0.213,3.326-0.143,5.041,0c1.131,14.403-0.02,30.61,0.959,44.64
			c-2.537,1.69-6.586,0.238-9.6,0.48c-0.416-5.974,0.271-11.341-0.24-17.28c-0.131-1.511-0.371-3.973-1.199-5.279
			c-2.377-3.742-11.285-2.262-12.721,1.439c-1.924,4.962,1.025,15.334-0.48,21.12c-4.139,0.664-8.514,0.007-13.199,0
			c-5.799-0.009-11.865,0.951-17.521,0.96c-3.13,0.005-6.659,0.039-9.36-0.96c0-17.2,0-34.399,0-51.6
			c2.404,0.274,4.283,0.18,6.721,0c-0.051-4.017-0.05-8.741,0.24-12.48c0.308-3.98-0.773-8.946,0-12.24
			c0.444-1.895,3.328-4.77,4.56-5.76c1.174-0.945,3.077-1.921,4.56-2.88c5.547-3.587,15.651-6.179,23.041-2.16
			c2.412,1.312,7.568,5.627,9.119,7.68C71.75,21.073,69.191,32.341,70.211,42.827z M54.85,43.067
			c4.35-0.371,8.672-0.768,13.441-0.72c-0.59-9.012,1.016-16.883-0.961-23.04c-1.594-4.966-9.742-10.893-16.08-12
			c-6.539-1.143-15.24,3.187-19.439,6.72c-1.405,1.182-4.039,4.052-4.32,6c-0.15,1.041,0.416,1.906,0.48,2.88
			c0.395,5.989-1.461,12.641-0.24,19.92c4.306-0.483,8.791-0.096,13.199,0c0.312-4.738,0.361-9.938-0.239-14.4
			c3.292-1.449,9.334-1.358,13.681-0.96C54.586,32.697,55.123,39.443,54.85,43.067z M42.61,29.387c-0.104,3.43,0.332,9.295,0,13.44
			c3.464,0.212,7.046,0.284,11.28,0.24c-0.023-0.776-1.088-0.512-0.721-1.68c0.408-3.703-0.295-7.881-0.48-12.24
			C49.082,28.979,46.055,29.392,42.61,29.387z M49.09,45.227c-9.18-0.149-18.461-1.27-28.32,0c0.139,15.302-0.289,31.169,0.24,46.08
			c2.194-1.066,3.453-3.314,5.041-5.04c1.689-1.835,3.523-3.523,5.279-5.279c10.701-10.7,22.012-20.953,32.881-31.2
			c4.135,0.15,7.121,0.114,11.279,0c0.084-2.084-0.059-3.942-0.24-5.76C65.654,43.767,57.818,45.368,49.09,45.227z M80.77,51.707
			c-0.24,0.001-0.285-0.194-0.479-0.24c-4.102,0.471-10.26,0.182-15.121,0.24c-13.789,12.29-27.881,25.904-40.56,39.12
			c-0.708,0.737-2.11,1.364-1.92,2.64c11.435,0.551,23.12-1.353,34.56-0.479c1.543-6.124-1.559-13.482,0.24-19.44
			c1.602-5.306,8.834-6.34,14.4-4.56c6.055,4.214,2.854,14.858,4.08,24c2.111-0.109,3.963,0.651,5.52-0.24
			C80.957,79.359,81.812,64.584,80.77,51.707z"/>
		<path fill-rule="evenodd" clip-rule="evenodd" d="M50.53,14.027c-0.12,1.312-0.145,3.936-0.24,5.52c-1.2,0-2.399,0-3.6,0
			c-1.815-1.331-1.491-3.423-2.4-5.76C45.888,13.435,49.281,13.243,50.53,14.027z M46.93,17.867c0.561,0,1.121,0,1.681,0
			c0-0.8,0-1.6,0-2.4c-0.72,0-1.44,0-2.16,0C46.561,16.317,46.984,16.853,46.93,17.867z"/>
		<path fill-rule="evenodd" clip-rule="evenodd" d="M35.891,35.387c-1.652-0.188-3.579-0.102-5.041-0.48
			c-2.045-4.133,0.514-10.224,4.801-6.96C36.505,29.565,37.34,33.695,35.891,35.387z M32.29,33.227
			c0.454,0.426,1.585,0.175,2.4,0.24c0.278-2.188-0.101-2.929-0.72-4.56C31.495,28.432,32.5,31.436,32.29,33.227z"/>
		<path fill-rule="evenodd" clip-rule="evenodd" d="M62.77,26.987c1.137,1.532,1.244,5.006,1.441,6.72
			c-1.316,0.905-4.463,1.055-6,0.48C57.93,30.931,57.809,25.796,62.77,26.987z M61.09,28.667c-1.246,0.434-0.943,2.416-0.959,4.08
			c0.955-0.175,0.965-0.175,1.92,0C62.08,31.928,62.264,29.065,61.09,28.667z"/>
	</g>
</g>
</svg>
