<?xml version="1.0" encoding="utf-8"?>
<!-- Generator: Adobe Illustrator 16.0.0, SVG Export Plug-In . SVG Version: 6.00 Build 0)  -->
<!DOCTYPE svg PUBLIC "-//W3C//DTD SVG 1.1//EN" "http://www.w3.org/Graphics/SVG/1.1/DTD/svg11.dtd">
<svg version="1.1" id="Layer_1" xmlns="http://www.w3.org/2000/svg" xmlns:xlink="http://www.w3.org/1999/xlink" x="0px" y="0px"
	 width="100px" height="100px" viewBox="0 0 100 100" enable-background="new 0 0 100 100" xml:space="preserve">
<g>
	<g>
		<path fill-rule="evenodd" clip-rule="evenodd" d="M51.939,43.093c0.035,0.796,0.132,2.223,0,3.049
			c-0.889,0.624-2.132-0.024-3.558,0.169c-0.223-1.125-0.053-2.085-0.508-3.219C49.194,42.68,50.829,42.434,51.939,43.093z
			 M49.567,45.126c0.396,0,0.791,0,1.186,0c0-0.396,0-0.791,0-1.186c-0.396,0-0.791,0-1.186,0
			C49.567,44.335,49.567,44.73,49.567,45.126z"/>
		<path fill-rule="evenodd" clip-rule="evenodd" d="M64.645,62.914c-0.568,4.58,0.358,9.419-0.169,14.23
			c2.372-0.226,5.078-0.118,7.285-0.508c0.523-3.412-0.191-8.285-0.339-12.028c-0.029-0.733-0.72-2.12,0.509-2.371
			c1.047,1.392,0.548,3.678,0.677,5.759c0.174,2.798,1.019,7.395,0,9.995c-2.581-0.088-6.192,0.682-9.148,0.169
			c0.321-4.468-0.231-10.488,0-15.247c-1.209-0.392-1.356-2.684-1.355-3.727c3.342-0.452,8.03-0.424,11.35-0.339
			c0.104,1.026,0.475,1.785,0.678,2.711C71.852,62.465,67.438,62.032,64.645,62.914z M63.29,60.204
			c-0.136,0.587,0.252,0.65,0.169,1.186c2.134-0.414,5.08-0.139,7.284-0.508c0.581-0.098,1.731-0.194,1.864-0.847
			C69.821,60.054,66.789,60.29,63.29,60.204z"/>
		<path fill-rule="evenodd" clip-rule="evenodd" d="M36.692,59.356c0.639,0.603,0.103,2.382,0.508,3.219
			c-0.315,0.362-1.05,0.306-1.186,0.847c0.138,3.799-0.063,9.416-0.339,14.23c-2.676,0.192-5.695-0.093-8.47,0.338
			c-1.507-3.405-0.054-10.025-0.339-14.908c-0.149-0.233-0.681,0.448-1.186,0c0-1.129,0-2.258,0-3.388
			C29.582,59.682,33.416,59.059,36.692,59.356z M26.697,60.881c0,0.395,0,0.79,0,1.186c1.303,0.077,4.097,0.295,6.269,0.17
			c1.166-0.068,3.208,0.069,3.049-1.355C33.354,59.993,29.77,61.057,26.697,60.881z M28.053,63.422
			c-0.114,4.075-0.476,8.585-0.339,13.383c2.017-0.411,4.506-0.35,6.945-0.339c0.146-4.76,0.578-8.823,0-13.044
			C32.457,63.422,30.254,63.422,28.053,63.422z"/>
		<path fill-rule="evenodd" clip-rule="evenodd" d="M69.388,63.93c1.101,2.796,0.332,7.462,1.186,10.503
			c-1.256,0.167-3.144,0.515-4.235,0.678c-0.491-3.236-0.288-7.166-0.847-10.334C66.458,64.162,68.238,64.361,69.388,63.93z
			 M67.017,65.455c-0.148,2.562,0.355,5.028,0.338,8.132c0.782,0.104,0.975-0.38,1.694-0.339c0.136-3.179-0.339-4.82-0.339-7.962
			C67.989,65.185,67.59,65.407,67.017,65.455z"/>
		<path fill-rule="evenodd" clip-rule="evenodd" d="M32.965,65.624c-0.11,2.387,0.253,7.196-0.169,9.318
			c-0.982-0.807-2.166-0.406-3.558-0.678c0.346-2.666,0.121-6.454,0-8.64C30.091,64.825,32.027,65.101,32.965,65.624z
			 M30.424,66.471c0.115,2.087,0.235,4.168,0.169,6.438c0.452,0,0.904,0,1.355,0c-0.349-1.864-0.17-4.541,0-6.438
			C31.674,66.216,30.699,66.216,30.424,66.471z"/>
		<path fill-rule="evenodd" clip-rule="evenodd" d="M79.611,90.075h1.304c0.352-14.795-0.604-29.118-0.847-43.411h-4.783
			c-1.512,0.45-4.284-0.048-6.236,0.155c0.131-1.43-0.228-2.37-0.169-3.727c-1.089-0.36-3.273,0.248-4.235,0
			c-0.257-3.682,0.266-7.123-0.339-9.487c0.505-0.399,1.912,0.104,2.202-0.508c-0.174-1.011-0.124-2.248-0.677-2.88
			c-1.217-0.351-2.514,0.177-4.066,0c-0.931-2.796-0.968-6.486-1.186-9.995c-1.396-0.477-3.209-0.111-4.913,0
			c-0.471-4.272-1.841-7.646-5.929-8.301c-0.125-0.803,0.191-1.165,0.169-1.863c0.635,0.014,1.37,0.128,1.186-0.678
			c0.047-0.668-1.193-0.049-1.355-0.508c0.307-0.356,0.28-1.407-0.339-1.355c-0.14,0.164-0.25,0.358-0.355,0.557
			c-0.001,0.024-0.009,0.046-0.012,0.07c-0.007,0.059-0.019,0.118-0.03,0.177c-0.008,0.039-0.009,0.079-0.02,0.117
			c0.053,0.079,0.065,0.167,0.051,0.254c0.076,0.205-0.085,0.421-0.284,0.462c-0.003,0.005-0.007,0.008-0.01,0.013
			c-0.082,0.121-0.2,0.161-0.314,0.154C48.368,9.386,48.283,9.43,48.17,9.43c-0.045,0-0.082-0.012-0.118-0.024
			c-0.103,0.061-0.215,0.113-0.348,0.144c-0.214,0.893,1.145,0.211,1.355,0.678c-0.151,0.354-0.178,0.96-0.169,1.863
			c-3.628,0.72-4.932,3.765-5.082,7.962c-1.505,0.246-3.342,0.159-5.083,0.169c-0.741,2.917,0.125,7.522,0,10.673
			c-1.811,0.335-4.252,0.039-5.76,0.677c0.146,0.982,0.639,0.861,0.339,2.033c0.473,0.374,1.517,0.177,2.033,0.508
			c-0.703,2.061-0.226,6.32-0.678,9.148c-1.292-0.104-3.407-0.148-4.405,0.169c-0.079,1.434,0.301,2.409,0.17,3.896
			c-3.99-0.202-8.4,0.391-11.351,0.169c0.351,8.359,0.039,17.343,0.169,26.089c0.063,4.229,0.282,9.662,0,13.892
			c-0.064,0.959-0.586,1.927,0.169,2.71c2.327-0.097,4.218-0.226,6.268-0.17c7.899,0.217,17.126,0.678,25.919,0.678
			c9.565,0,19.608,0.158,27.783-0.678C79.471,90.026,79.544,90.048,79.611,90.075z M67.863,44.109
			c-0.015,0.974-0.037,1.956,0.169,2.71c-0.623,0.337-1.869,0.051-2.541,0.339c-0.236-1.062-0.68-1.917-1.017-2.88
			C65.751,44.369,66.547,43.979,67.863,44.109z M51.939,13.955c1.598,1.027,2.027,4.065,2.203,6.268
			c-1.271-0.786-0.847-2.699-1.355-3.896c-1.359-3.201-7.666-1.082-5.76,3.896c-0.761,0.083-1.27-0.086-1.864-0.169
			C44.616,16.097,48.045,11.451,51.939,13.955z M52.108,20.223h-3.896c-0.63-2.196,0.313-5.06,2.88-4.066
			C51.875,17.067,52.111,18.526,52.108,20.223z M59.562,21.239c0.318,2.958,0.409,6.142,0.847,8.979h-1.525
			c0.005-2.732-0.411-5.93-3.05-6.268c-3.21-0.412-4.548,2.576-3.727,6.438h-4.235c-0.001-0.098,0.026-0.168,0.069-0.223
			c-0.073-0.057-0.125-0.143-0.125-0.265v-0.529c0-0.037,0.011-0.065,0.02-0.097c-0.041-0.069-0.051-0.158-0.007-0.262
			c0.037-0.088,0.056-0.173,0.065-0.26c-0.008-0.02-0.017-0.036-0.022-0.06c-0.287-2.102-0.477-4.047-2.202-4.404
			c-3.577-0.741-4.59,2.795-3.558,6.268c-0.384,0.463-1.376,0.318-2.202,0.339c-0.308-2.968-0.28-6.271-0.508-9.318
			C45.942,20.782,52.508,21.747,59.562,21.239z M53.464,25.982c2.501-2.658,4.506,0.931,4.235,4.066
			c-1.131,0.394-2.992,0.058-4.405,0.169C53.456,28.894,53.015,27.611,53.464,25.982z M43.052,30.025v-1.498
			c-0.231-2.078,1.303-4.436,3.127-2.545c-0.096,1.623,0.901,2.86,0.339,4.405c-1.093,0.036-1.957,0.302-3.049,0.339
			c-0.271,0.027-0.32-0.042-0.275-0.145C42.966,30.499,42.918,30.199,43.052,30.025z M34.49,32.42
			c9.483-0.702,20.434-1.781,30.833-0.847c-0.452,1.445-2.485,0.786-3.558,0.847c-5.786,0.333-13.6,0.212-20.329,0.508
			C38.917,33.039,36.312,33.659,34.49,32.42z M63.459,42.246c-2.194-3.327-5.145-6.211-9.826-6.945
			c-7.676-1.205-14.595,2.356-17.788,6.606c0.222-2.376,0.228-4.967,0.339-7.454c8.561-0.916,19.09-0.613,27.444-0.678
			C63.301,36.034,63.464,39.255,63.459,42.246z M31.44,44.448c1.106-0.041,2.199-0.354,3.219,0c-0.256,0.929-0.719,1.652-0.847,2.71
			c-0.648,0.143-1.359,0.221-2.202,0.169C31.388,46.534,31.436,45.469,31.44,44.448z M21.954,88.833
			c-0.558,0.007-0.843,0.286-1.525,0.17c-0.482-0.643-0.006-2.056,0-3.05c0.014-2.329-0.421-4.752-0.338-7.285
			c0.312-9.586,0.477-20.418,0-29.816c0.619-0.115,1.231-0.236,2.033-0.169C22.034,64.593,23,74.666,21.954,88.833z M48.89,89.511
			h-4.066c-0.591-5.386,0.904-10.695,0.339-16.094c0.811-0.432,2.564,0.08,3.388-0.339c1.018,1.283,0.309,3.2,0.339,4.913
			C48.957,81.782,49.377,86.246,48.89,89.511z M50.076,89.341c0.235-5.571-0.247-9.909-0.169-16.263
			c1.145,0.21,2.624,0.086,3.727,0.339c0.753,4.792,1.026,10.931,1.016,15.924H50.076z M56.513,89.341
			c-0.804-0.42-0.633-1.768-0.678-2.541c-0.273-4.807-0.469-10.418-1.016-14.908c-2.807,0.019-7.199,0.219-10.503,0
			c-0.441,5.37-0.325,11.861-1.186,17.619c-1.258,0.149-0.797-1.398-0.847-2.202c-0.284-4.568,0.32-11.71,0-17.28
			c4.912-0.001,9.37-0.456,14.061-0.677C56.7,75.461,57.332,82.786,56.513,89.341z M40.588,67.318
			c4.825-0.11,11.103-0.432,15.755-0.338c0.443,0.009,1.765-0.756,1.694,0.508c-0.55,0.961-1.95,0.442-2.88,0.508
			c-4.59,0.33-10.455,1.094-14.399,0.847C40.875,68.162,40.596,67.875,40.588,67.318z M58.376,89.511
			c-0.384-6.749-0.027-12.992-0.677-19.99c0.076-0.658,1.167-0.3,1.524-0.678c-0.245-1.128,0.043-2.195-0.169-3.049
			c-5.614-0.622-12.954,0.318-19.482,0.338c-0.26,1.374-0.054,4.337,1.525,3.896c0.084,6.795-0.393,12.978-0.17,19.482
			c-5.046-0.405-12.145-0.45-17.449-0.678c0.52-14.144-0.229-27.028-0.169-39.98c3.265-0.708,8.226-0.077,11.181,0
			c0.809-3.162,2.243-6.524,4.744-8.64c1.871-1.583,4.804-3.346,7.454-3.727c0.183-0.026,0.367-0.025,0.553-0.014
			c0.433-0.11,0.873-0.16,1.32-0.15c0.893-0.133,1.816-0.143,2.702-0.013c0.491-0.087,0.998-0.012,1.459,0.19
			c6.908,0.652,9.638,5.727,11.753,11.506c3.625,0.461,8.009-0.206,11.181,0.169c0.843,13.662,0.503,27.152,0.848,40.828
			C70.549,89.26,64.314,89.236,58.376,89.511z M77.689,89.171c-0.341-11.777,0.349-23.202-0.508-35.915
			c-0.17-2.523-1.279-6.14,1.525-5.59c0.678,11.839,1.215,27.064,1.186,41.336C79.061,88.963,78.609,89.301,77.689,89.171z"/>
		<path fill-rule="evenodd" clip-rule="evenodd" d="M54.989,40.891c0.047,2.776-0.19,5.837,0.338,8.131
			c-2.903-0.018-6.914,0.003-9.826,0.508c-0.814-1.697-0.684-6.378,0-8.979C48.796,40.886,52.757,39.517,54.989,40.891z
			 M46.518,41.737c-0.192,2.274-0.48,4.173-0.169,6.269c2.451-0.146,5.041-0.155,7.454-0.339c-0.005-1.243-0.062-3.991-0.169-6.099
			C51.088,41.452,49.063,41.854,46.518,41.737z"/>
	</g>
</g>
</svg>
