<?xml version="1.0" encoding="utf-8"?>
<!-- Generator: Adobe Illustrator 16.0.0, SVG Export Plug-In . SVG Version: 6.00 Build 0)  -->
<!DOCTYPE svg PUBLIC "-//W3C//DTD SVG 1.1//EN" "http://www.w3.org/Graphics/SVG/1.1/DTD/svg11.dtd">
<svg version="1.1" id="Layer_1" xmlns="http://www.w3.org/2000/svg" xmlns:xlink="http://www.w3.org/1999/xlink" x="0px" y="0px"
	 width="48px" height="48px" viewBox="0 0 48 48" enable-background="new 0 0 48 48" xml:space="preserve">
<g>
	<g>
		<path d="M31.542,43.01H16.457c-0.964,0-1.748-0.784-1.748-1.748V6.738c0-0.964,0.784-1.748,1.748-1.748h15.085
			c0.964,0,1.749,0.784,1.749,1.748v34.523C33.291,42.226,32.506,43.01,31.542,43.01z M16.457,5.489
			c-0.689,0-1.249,0.561-1.249,1.249v34.523c0,0.688,0.56,1.249,1.249,1.249h15.085c0.688,0,1.249-0.561,1.249-1.249V6.738
			c0-0.688-0.561-1.249-1.249-1.249H16.457z"/>
	</g>
	<g>
		<path d="M32.78,36.155H15.219c-0.138,0-0.25-0.111-0.25-0.25c0-0.138,0.112-0.25,0.25-0.25H32.78c0.138,0,0.249,0.112,0.249,0.25
			C33.029,36.044,32.918,36.155,32.78,36.155z"/>
	</g>
	<g>
		<circle cx="24" cy="39.452" r="1.02"/>
	</g>
	<g>
		<path d="M19.822,25.856c-0.064,0-0.128-0.024-0.177-0.073c-0.098-0.098-0.098-0.256,0-0.354L28,17.075
			c0.098-0.098,0.256-0.098,0.354,0s0.098,0.256,0,0.354l-8.355,8.354C19.949,25.832,19.886,25.856,19.822,25.856z"/>
	</g>
	<g>
		<path d="M28.178,25.856c-0.064,0-0.129-0.024-0.178-0.073l-8.354-8.354c-0.098-0.098-0.098-0.256,0-0.354
			c0.097-0.098,0.255-0.098,0.353,0l8.354,8.354c0.098,0.098,0.098,0.256,0,0.354C28.305,25.832,28.241,25.856,28.178,25.856z"/>
	</g>
</g>
</svg>
