<?xml version="1.0" encoding="utf-8"?>
<!-- Generator: Adobe Illustrator 16.0.0, SVG Export Plug-In . SVG Version: 6.00 Build 0)  -->
<!DOCTYPE svg PUBLIC "-//W3C//DTD SVG 1.1//EN" "http://www.w3.org/Graphics/SVG/1.1/DTD/svg11.dtd">
<svg version="1.1" id="Layer_1" xmlns="http://www.w3.org/2000/svg" xmlns:xlink="http://www.w3.org/1999/xlink" x="0px" y="0px"
	 width="48px" height="48px" viewBox="0 0 48 48" enable-background="new 0 0 48 48" xml:space="preserve">
<g>
	<g>
		<g>
			<path d="M39.367,33.748H8.633c-0.965,0-1.748-0.784-1.748-1.748V11.263c0-0.964,0.783-1.749,1.748-1.749h30.734
				c0.965,0,1.748,0.785,1.748,1.749V32C41.115,32.964,40.332,33.748,39.367,33.748z M8.633,10.014
				c-0.689,0-1.248,0.561-1.248,1.249V32c0,0.688,0.559,1.249,1.248,1.249h30.734c0.689,0,1.25-0.561,1.25-1.249V11.263
				c0-0.688-0.561-1.249-1.25-1.249H8.633z"/>
		</g>
		<g>
			<path d="M40.865,31.118H7.135c-0.139,0-0.25-0.112-0.25-0.25s0.111-0.25,0.25-0.25h33.73c0.139,0,0.25,0.112,0.25,0.25
				S41.004,31.118,40.865,31.118z"/>
		</g>
		<g>
			<g>
				<path d="M17.287,38.174c-0.053,0-0.107-0.018-0.152-0.053c-0.109-0.084-0.129-0.241-0.045-0.35l3.436-4.434
					c0.084-0.109,0.24-0.129,0.35-0.045c0.109,0.085,0.129,0.241,0.045,0.351l-3.434,4.434
					C17.436,38.141,17.363,38.174,17.287,38.174z"/>
			</g>
			<g>
				<path d="M30.713,38.174c-0.074,0-0.148-0.033-0.197-0.097l-3.436-4.434c-0.084-0.109-0.064-0.266,0.045-0.351
					c0.109-0.084,0.266-0.065,0.352,0.045l3.434,4.434c0.084,0.108,0.064,0.266-0.045,0.35
					C30.82,38.156,30.766,38.174,30.713,38.174z"/>
			</g>
		</g>
		<g>
			<path d="M33.365,38.486h-18.73c-0.139,0-0.25-0.112-0.25-0.25c0-0.139,0.111-0.25,0.25-0.25h18.73c0.139,0,0.25,0.111,0.25,0.25
				C33.615,38.374,33.504,38.486,33.365,38.486z"/>
		</g>
	</g>
	<g>
		<g>
			<path d="M19.562,25.617c-0.064,0-0.129-0.024-0.178-0.073c-0.098-0.098-0.098-0.256,0-0.354l8.877-8.875
				c0.098-0.098,0.256-0.098,0.354,0c0.096,0.098,0.096,0.256,0,0.353l-8.877,8.876C19.689,25.593,19.625,25.617,19.562,25.617z"/>
		</g>
		<g>
			<path d="M28.438,25.617c-0.062,0-0.127-0.024-0.176-0.073l-8.875-8.876c-0.098-0.097-0.098-0.255,0-0.353s0.254-0.098,0.352,0
				l8.877,8.875c0.098,0.098,0.098,0.256,0,0.354C28.566,25.593,28.502,25.617,28.438,25.617z"/>
		</g>
	</g>
</g>
</svg>
