<?xml version="1.0" encoding="utf-8"?>
<!-- Generator: Adobe Illustrator 16.0.0, SVG Export Plug-In . SVG Version: 6.00 Build 0)  -->
<!DOCTYPE svg PUBLIC "-//W3C//DTD SVG 1.1//EN" "http://www.w3.org/Graphics/SVG/1.1/DTD/svg11.dtd">
<svg version="1.1" id="Layer_1" xmlns="http://www.w3.org/2000/svg" xmlns:xlink="http://www.w3.org/1999/xlink" x="0px" y="0px"
	 width="48px" height="48px" viewBox="0 0 48 48" enable-background="new 0 0 48 48" xml:space="preserve">
<g>
	<g>
		<path d="M36.421,43.759H11.578c-0.964,0-1.748-0.785-1.748-1.749V5.99c0-0.964,0.784-1.749,1.748-1.749h24.843
			c0.965,0,1.749,0.785,1.749,1.749v36.02C38.17,42.974,37.386,43.759,36.421,43.759z M11.578,4.741
			c-0.688,0-1.248,0.56-1.248,1.249v36.02c0,0.688,0.56,1.249,1.248,1.249h24.843c0.689,0,1.25-0.561,1.25-1.249V5.99
			c0-0.689-0.561-1.249-1.25-1.249H11.578z"/>
	</g>
	<g>
		<circle cx="24" cy="40.451" r="1.02"/>
	</g>
	<g>
		<path d="M37.708,36.988H10.293c-0.139,0-0.25-0.111-0.25-0.249c0-0.139,0.111-0.25,0.25-0.25h27.415
			c0.137,0,0.249,0.111,0.249,0.25C37.957,36.877,37.845,36.988,37.708,36.988z"/>
	</g>
	<g>
		<path d="M18.182,27.996c-0.063,0-0.127-0.024-0.176-0.073c-0.098-0.098-0.098-0.256,0-0.354l11.635-11.635
			c0.098-0.098,0.256-0.098,0.354,0s0.098,0.255,0,0.353L18.358,27.923C18.31,27.972,18.246,27.996,18.182,27.996z"/>
	</g>
	<g>
		<path d="M29.818,27.996c-0.064,0-0.128-0.024-0.177-0.073L18.006,16.287c-0.098-0.098-0.098-0.255,0-0.353s0.256-0.098,0.354,0
			l11.635,11.635c0.098,0.098,0.098,0.256,0,0.354C29.945,27.972,29.882,27.996,29.818,27.996z"/>
	</g>
</g>
</svg>
