<?xml version="1.0" encoding="utf-8"?>
<!-- Generator: Adobe Illustrator 16.0.0, SVG Export Plug-In . SVG Version: 6.00 Build 0)  -->
<!DOCTYPE svg PUBLIC "-//W3C//DTD SVG 1.1//EN" "http://www.w3.org/Graphics/SVG/1.1/DTD/svg11.dtd">
<svg version="1.1" id="Layer_1" xmlns="http://www.w3.org/2000/svg" xmlns:xlink="http://www.w3.org/1999/xlink" x="0px" y="0px"
	 width="64px" height="64px" viewBox="0 0 64 64" enable-background="new 0 0 64 64" xml:space="preserve">
<g>
	<g>
		<path d="M40.461,56.544H23.539c-1.93,0-3.5-1.57-3.5-3.5V11.476c0-1.93,1.57-3.5,3.5-3.5h16.922c1.93,0,3.5,1.57,3.5,3.5v41.568
			C43.961,54.974,42.391,56.544,40.461,56.544z M23.539,8.976c-1.379,0-2.5,1.122-2.5,2.5v41.568c0,1.378,1.121,2.5,2.5,2.5h16.922
			c1.379,0,2.5-1.122,2.5-2.5V11.476c0-1.378-1.121-2.5-2.5-2.5H23.539z"/>
	</g>
	<g>
		<path d="M43.133,47.854H20.867c-0.276,0-0.5-0.224-0.5-0.5s0.224-0.5,0.5-0.5h22.266c0.276,0,0.5,0.224,0.5,0.5
			S43.409,47.854,43.133,47.854z"/>
	</g>
	<g>
		<circle cx="32.001" cy="51.851" r="1.292"/>
	</g>
	<g>
		<path d="M26.705,34.797c-0.128,0-0.256-0.049-0.354-0.146c-0.195-0.195-0.195-0.512,0-0.707l10.592-10.593
			c0.195-0.195,0.512-0.195,0.707,0s0.195,0.512,0,0.707L27.059,34.65C26.961,34.748,26.833,34.797,26.705,34.797z"/>
	</g>
	<g>
		<path d="M37.297,34.797c-0.128,0-0.256-0.049-0.354-0.146L26.352,24.058c-0.195-0.195-0.195-0.512,0-0.707s0.512-0.195,0.707,0
			L37.65,33.943c0.195,0.195,0.195,0.512,0,0.707C37.553,34.748,37.425,34.797,37.297,34.797z"/>
	</g>
</g>
</svg>
