<?xml version="1.0" encoding="utf-8"?>
<!-- Generator: Adobe Illustrator 16.0.0, SVG Export Plug-In . SVG Version: 6.00 Build 0)  -->
<!DOCTYPE svg PUBLIC "-//W3C//DTD SVG 1.1//EN" "http://www.w3.org/Graphics/SVG/1.1/DTD/svg11.dtd">
<svg version="1.1" id="Layer_1" xmlns="http://www.w3.org/2000/svg" xmlns:xlink="http://www.w3.org/1999/xlink" x="0px" y="0px"
	 width="64px" height="64px" viewBox="0 0 64 64" enable-background="new 0 0 64 64" xml:space="preserve">
<g>
	<g>
		<path d="M46.647,57.493H17.353c-1.93,0-3.5-1.57-3.5-3.5V10.526c0-1.93,1.57-3.5,3.5-3.5h29.295c1.93,0,3.5,1.57,3.5,3.5v43.467
			C50.147,55.923,48.577,57.493,46.647,57.493z M17.353,8.026c-1.379,0-2.5,1.122-2.5,2.5v43.467c0,1.378,1.121,2.5,2.5,2.5h29.295
			c1.379,0,2.5-1.122,2.5-2.5V10.526c0-1.378-1.121-2.5-2.5-2.5H17.353z"/>
	</g>
	<g>
		<path d="M33.293,53.116c0,0.715-0.579,1.293-1.295,1.293c-0.711,0-1.291-0.578-1.291-1.293c0-0.713,0.58-1.292,1.291-1.292
			C32.714,51.824,33.293,52.403,33.293,53.116z"/>
	</g>
	<g>
		<path d="M49.38,48.909H14.621c-0.276,0-0.5-0.224-0.5-0.5s0.224-0.5,0.5-0.5H49.38c0.276,0,0.5,0.224,0.5,0.5
			S49.656,48.909,49.38,48.909z"/>
	</g>
	<g>
		<path d="M24.624,37.51c-0.128,0-0.256-0.049-0.354-0.146c-0.195-0.195-0.195-0.512,0-0.707l14.752-14.752
			c0.195-0.195,0.512-0.195,0.707,0s0.195,0.512,0,0.707L24.978,37.363C24.88,37.461,24.752,37.51,24.624,37.51z"/>
	</g>
	<g>
		<path d="M39.377,37.51c-0.128,0-0.256-0.049-0.354-0.146L24.271,22.611c-0.195-0.195-0.195-0.512,0-0.707s0.512-0.195,0.707,0
			L39.73,36.656c0.195,0.195,0.195,0.512,0,0.707C39.633,37.461,39.505,37.51,39.377,37.51z"/>
	</g>
</g>
</svg>
