<?xml version="1.0" encoding="utf-8"?>
<!-- Generator: Adobe Illustrator 16.0.0, SVG Export Plug-In . SVG Version: 6.00 Build 0)  -->
<!DOCTYPE svg PUBLIC "-//W3C//DTD SVG 1.1//EN" "http://www.w3.org/Graphics/SVG/1.1/DTD/svg11.dtd">
<svg version="1.1" id="Layer_1" xmlns="http://www.w3.org/2000/svg" xmlns:xlink="http://www.w3.org/1999/xlink" x="0px" y="0px"
	 width="32px" height="32px" viewBox="0 0 32 32" enable-background="new 0 0 32 32" xml:space="preserve">
<g>
	<g>
		<path d="M13.203,18.415c-0.029,0-0.059-0.009-0.084-0.026c-0.059-0.041-0.08-0.118-0.049-0.183l1.812-3.829h-1.467
			c-0.047,0-0.092-0.023-0.119-0.063s-0.033-0.09-0.016-0.135l1.91-4.986c0.021-0.057,0.076-0.094,0.137-0.094h3.463
			c0.057,0,0.105,0.031,0.131,0.079c0.025,0.05,0.021,0.108-0.012,0.153l-2.143,2.955h2.023c0.059,0,0.111,0.035,0.135,0.089
			s0.012,0.116-0.029,0.158l-5.588,5.836C13.279,18.398,13.24,18.415,13.203,18.415z M13.631,14.085h1.482
			c0.051,0,0.098,0.025,0.123,0.067c0.027,0.043,0.031,0.096,0.01,0.141l-1.525,3.223l4.729-4.938h-1.967
			c-0.055,0-0.105-0.03-0.131-0.079s-0.02-0.108,0.012-0.152l2.143-2.955h-3.078L13.631,14.085z"/>
	</g>
	<g>
		<g>
			<path d="M26.104,22.128H5.893c-0.564,0-1.023-0.459-1.023-1.023V7.403c0-0.564,0.459-1.023,1.023-1.023h20.211
				c0.564,0,1.023,0.459,1.023,1.023v13.701C27.127,21.669,26.668,22.128,26.104,22.128z M5.893,6.672
				c-0.402,0-0.73,0.328-0.73,0.731v13.701c0,0.403,0.328,0.73,0.73,0.73h20.211c0.404,0,0.732-0.327,0.732-0.73V7.403
				c0-0.403-0.328-0.731-0.732-0.731H5.893z"/>
		</g>
		<g>
			<path d="M28.953,25.62c-0.002,0-0.004,0-0.006,0h-25.9c-0.057,0-0.107-0.034-0.133-0.086c-0.023-0.052-0.016-0.111,0.021-0.155
				l1.922-2.276c0.027-0.032,0.068-0.051,0.111-0.051h22.057c0.043,0,0.084,0.019,0.111,0.051l1.902,2.252
				c0.037,0.026,0.061,0.07,0.061,0.118C29.1,25.554,29.033,25.62,28.953,25.62z M3.361,25.326h25.271l-1.676-1.982H5.037
				L3.361,25.326z"/>
		</g>
		<g>
			<path d="M26.98,20.416H5.016c-0.08,0-0.146-0.065-0.146-0.146s0.066-0.146,0.146-0.146H26.98c0.082,0,0.146,0.065,0.146,0.146
				S27.062,20.416,26.98,20.416z"/>
		</g>
	</g>
</g>
</svg>
