<?xml version="1.0" encoding="utf-8"?>
<!-- Generator: Adobe Illustrator 16.0.0, SVG Export Plug-In . SVG Version: 6.00 Build 0)  -->
<!DOCTYPE svg PUBLIC "-//W3C//DTD SVG 1.1//EN" "http://www.w3.org/Graphics/SVG/1.1/DTD/svg11.dtd">
<svg version="1.1" id="Layer_1" xmlns="http://www.w3.org/2000/svg" xmlns:xlink="http://www.w3.org/1999/xlink" x="0px" y="0px"
	 width="32px" height="32px" viewBox="0 0 32 32" enable-background="new 0 0 32 32" xml:space="preserve">
<g>
	<g>
		<path d="M11.725,21.135c-0.029,0-0.059-0.009-0.082-0.026c-0.061-0.04-0.08-0.118-0.051-0.183l2.828-5.973h-2.371
			c-0.049,0-0.092-0.023-0.121-0.063c-0.025-0.039-0.031-0.09-0.016-0.135l2.93-7.631c0.021-0.057,0.076-0.094,0.137-0.094h5.299
			c0.055,0,0.105,0.03,0.131,0.079s0.02,0.108-0.012,0.152l-3.369,4.647h3.25c0.059,0,0.111,0.034,0.135,0.089
			c0.021,0.054,0.012,0.116-0.029,0.158l-8.553,8.933C11.803,21.119,11.764,21.135,11.725,21.135z M12.262,14.661h2.389
			c0.049,0,0.096,0.025,0.123,0.067c0.027,0.043,0.029,0.096,0.01,0.142l-2.541,5.366l7.693-8.035H16.74
			c-0.055,0-0.105-0.03-0.129-0.08c-0.025-0.049-0.021-0.107,0.012-0.151l3.367-4.647h-4.912L12.262,14.661z"/>
	</g>
	<g>
		<path d="M24.188,28.85H7.814c-0.566,0-1.025-0.459-1.025-1.023V4.174c0-0.564,0.459-1.023,1.025-1.023h16.373
			c0.564,0,1.023,0.459,1.023,1.023v23.652C25.211,28.391,24.752,28.85,24.188,28.85z M7.814,3.442
			c-0.404,0-0.732,0.328-0.732,0.731v23.652c0,0.403,0.328,0.731,0.732,0.731h16.373c0.402,0,0.73-0.328,0.73-0.731V4.174
			c0-0.403-0.328-0.731-0.73-0.731H7.814z"/>
	</g>
	<g>
		<circle cx="16" cy="26.714" r="0.664"/>
	</g>
	<g>
		<path d="M24.928,24.442H7.074c-0.08,0-0.146-0.065-0.146-0.146c0-0.08,0.066-0.146,0.146-0.146h17.854
			c0.08,0,0.146,0.065,0.146,0.146C25.074,24.377,25.008,24.442,24.928,24.442z"/>
	</g>
</g>
</svg>
