<?xml version="1.0" encoding="utf-8"?>
<!-- Generator: Adobe Illustrator 16.0.0, SVG Export Plug-In . SVG Version: 6.00 Build 0)  -->
<!DOCTYPE svg PUBLIC "-//W3C//DTD SVG 1.1//EN" "http://www.w3.org/Graphics/SVG/1.1/DTD/svg11.dtd">
<svg version="1.1" id="Layer_1" xmlns="http://www.w3.org/2000/svg" xmlns:xlink="http://www.w3.org/1999/xlink" x="0px" y="0px"
	 width="32px" height="32px" viewBox="0 0 32 32" enable-background="new 0 0 32 32" xml:space="preserve">
<g>
	<g>
		<path d="M12.973,19.114c-0.027,0-0.057-0.009-0.082-0.026c-0.059-0.04-0.08-0.117-0.049-0.183l1.971-4.163h-1.609
			c-0.049,0-0.094-0.023-0.121-0.063c-0.027-0.039-0.033-0.09-0.016-0.136l2.072-5.4c0.023-0.057,0.076-0.094,0.137-0.094h3.75
			c0.055,0,0.105,0.031,0.131,0.08s0.02,0.107-0.012,0.152l-2.334,3.22h2.215c0.059,0,0.111,0.034,0.135,0.089
			c0.023,0.054,0.012,0.116-0.029,0.158l-6.053,6.321C13.051,19.099,13.012,19.114,12.973,19.114z M13.416,14.449h1.629
			c0.049,0,0.096,0.026,0.123,0.068s0.029,0.096,0.008,0.141l-1.684,3.557l5.191-5.422h-2.16c-0.055,0-0.105-0.03-0.131-0.08
			c-0.023-0.049-0.02-0.107,0.012-0.151l2.336-3.22h-3.363L13.416,14.449z"/>
	</g>
	<g>
		<circle cx="16" cy="26.192" r="0.76"/>
	</g>
	<g>
		<path d="M21.01,28.362H10.99c-0.564,0-1.023-0.459-1.023-1.023V4.661c0-0.563,0.459-1.023,1.023-1.023h10.02
			c0.564,0,1.023,0.46,1.023,1.023v22.678C22.033,27.903,21.574,28.362,21.01,28.362z M10.99,3.931c-0.404,0-0.732,0.328-0.732,0.73
			v22.678c0,0.402,0.328,0.731,0.732,0.731h10.02c0.404,0,0.73-0.329,0.73-0.731V4.661c0-0.402-0.326-0.73-0.73-0.73H10.99z"/>
	</g>
	<g>
		<path d="M21.717,23.899H10.281c-0.08,0-0.145-0.065-0.145-0.146c0-0.082,0.064-0.147,0.145-0.147h11.436
			c0.08,0,0.146,0.065,0.146,0.147C21.863,23.834,21.797,23.899,21.717,23.899z"/>
	</g>
</g>
</svg>
