<?xml version="1.0" encoding="utf-8"?>
<!-- Generator: Adobe Illustrator 16.0.0, SVG Export Plug-In . SVG Version: 6.00 Build 0)  -->
<!DOCTYPE svg PUBLIC "-//W3C//DTD SVG 1.1//EN" "http://www.w3.org/Graphics/SVG/1.1/DTD/svg11.dtd">
<svg version="1.1" id="Layer_1" xmlns="http://www.w3.org/2000/svg" xmlns:xlink="http://www.w3.org/1999/xlink" x="0px" y="0px"
	 width="32px" height="32px" viewBox="0 0 32 32" enable-background="new 0 0 32 32" xml:space="preserve">
<g>
	<g>
		<path d="M13.135,18.497c-0.029,0-0.059-0.008-0.082-0.026c-0.061-0.04-0.08-0.117-0.051-0.183l1.863-3.933h-1.512
			c-0.049,0-0.092-0.023-0.121-0.062c-0.025-0.04-0.033-0.091-0.016-0.136l1.959-5.114c0.023-0.058,0.076-0.094,0.137-0.094h3.553
			c0.057,0,0.105,0.03,0.131,0.079s0.02,0.108-0.012,0.152l-2.201,3.037h2.082c0.061,0,0.113,0.035,0.135,0.089
			c0.023,0.055,0.012,0.116-0.027,0.158l-5.732,5.987C13.211,18.482,13.174,18.497,13.135,18.497z M13.566,14.063h1.529
			c0.051,0,0.098,0.025,0.123,0.068c0.027,0.042,0.031,0.096,0.01,0.141l-1.574,3.325l4.869-5.087h-2.027
			c-0.055,0-0.105-0.031-0.131-0.08s-0.021-0.107,0.012-0.152l2.203-3.037h-3.166L13.566,14.063z"/>
	</g>
	<g>
		<g>
			<path d="M26.105,22.332H5.893c-0.562,0-1.021-0.46-1.021-1.024v-13.7c0-0.564,0.459-1.024,1.021-1.024h20.213
				c0.564,0,1.023,0.46,1.023,1.024v13.7C27.129,21.872,26.67,22.332,26.105,22.332z M5.893,6.876c-0.402,0-0.73,0.328-0.73,0.731
				v13.7c0,0.403,0.328,0.731,0.73,0.731h20.213c0.404,0,0.732-0.328,0.732-0.731v-13.7c0-0.403-0.328-0.731-0.732-0.731H5.893z"/>
		</g>
		<g>
			<path d="M26.982,20.618H5.016c-0.08,0-0.145-0.065-0.145-0.146c0-0.08,0.064-0.146,0.145-0.146h21.967
				c0.082,0,0.146,0.065,0.146,0.146C27.129,20.553,27.064,20.618,26.982,20.618z"/>
		</g>
		<g>
			<g>
				<path d="M11.629,25.213c-0.031,0-0.062-0.01-0.09-0.03c-0.064-0.05-0.076-0.142-0.025-0.205l2.236-2.887
					c0.051-0.063,0.143-0.076,0.205-0.026c0.064,0.05,0.076,0.142,0.027,0.205l-2.238,2.887
					C11.715,25.194,11.672,25.213,11.629,25.213z"/>
			</g>
			<g>
				<path d="M20.369,25.213c-0.043,0-0.086-0.02-0.115-0.057L18.02,22.27c-0.049-0.064-0.037-0.156,0.027-0.205
					c0.062-0.05,0.154-0.037,0.205,0.026l2.234,2.887c0.049,0.064,0.037,0.156-0.027,0.205C20.434,25.203,20.4,25.213,20.369,25.213
					z"/>
			</g>
		</g>
		<g>
			<path d="M22.102,25.416H9.9c-0.08,0-0.146-0.065-0.146-0.146c0-0.081,0.066-0.146,0.146-0.146h12.201
				c0.08,0,0.145,0.065,0.145,0.146C22.246,25.351,22.182,25.416,22.102,25.416z"/>
		</g>
	</g>
</g>
</svg>
