<?xml version="1.0" encoding="utf-8"?>
<!-- Generator: Adobe Illustrator 16.0.0, SVG Export Plug-In . SVG Version: 6.00 Build 0)  -->
<!DOCTYPE svg PUBLIC "-//W3C//DTD SVG 1.1//EN" "http://www.w3.org/Graphics/SVG/1.1/DTD/svg11.dtd">
<svg version="1.1" id="Layer_1" xmlns="http://www.w3.org/2000/svg" xmlns:xlink="http://www.w3.org/1999/xlink" x="0px" y="0px"
	 width="128px" height="128px" viewBox="0 0 128 128" enable-background="new 0 0 128 128" xml:space="preserve">
<g>
	
		<polygon fill="none" stroke="#000000" stroke-width="2" stroke-linecap="round" stroke-linejoin="round" stroke-miterlimit="10" points="
		59.384,43.581 78.887,57.005 59.384,70.427 	"/>
	<g>
		<g>
			<path d="M103.317,89.976H24.765c-2.206,0-4-1.794-4-4V32.481c0-2.206,1.794-4,4-4h78.553c2.206,0,4,1.794,4,4v53.494
				C107.317,88.182,105.523,89.976,103.317,89.976z M24.765,30.481c-1.103,0-2,0.897-2,2v53.494c0,1.103,0.897,2,2,2h78.553
				c1.103,0,2-0.897,2-2V32.481c0-1.103-0.897-2-2-2H24.765z"/>
		</g>
		<g>
			<path d="M106.317,83.382H21.765c-0.553,0-1-0.447-1-1s0.447-1,1-1h84.553c0.553,0,1,0.447,1,1S106.87,83.382,106.317,83.382z"/>
		</g>
		<g>
			<g>
				<path d="M47.213,101.065c-0.214,0-0.43-0.068-0.611-0.21c-0.437-0.338-0.517-0.966-0.178-1.402l8.607-11.109
					c0.338-0.437,0.968-0.517,1.402-0.178c0.437,0.338,0.517,0.966,0.178,1.402l-8.607,11.109
					C47.808,100.933,47.512,101.065,47.213,101.065z"/>
			</g>
			<g>
				<path d="M80.865,101.065c-0.299,0-0.595-0.133-0.791-0.388l-8.607-11.109c-0.339-0.437-0.259-1.064,0.178-1.402
					c0.436-0.339,1.065-0.259,1.402,0.178l8.607,11.109c0.339,0.437,0.259,1.064-0.178,1.402
					C81.295,100.997,81.079,101.065,80.865,101.065z"/>
			</g>
		</g>
		<g>
			<path d="M87.515,101.853H40.562c-0.553,0-1-0.447-1-1s0.447-1,1-1h46.952c0.553,0,1,0.447,1,1S88.067,101.853,87.515,101.853z"/>
		</g>
	</g>
</g>
</svg>
