<?xml version="1.0" encoding="utf-8"?>
<!-- Generator: Adobe Illustrator 16.0.0, SVG Export Plug-In . SVG Version: 6.00 Build 0)  -->
<!DOCTYPE svg PUBLIC "-//W3C//DTD SVG 1.1//EN" "http://www.w3.org/Graphics/SVG/1.1/DTD/svg11.dtd">
<svg version="1.1" id="Layer_1" xmlns="http://www.w3.org/2000/svg" xmlns:xlink="http://www.w3.org/1999/xlink" x="0px" y="0px"
	 width="128px" height="128px" viewBox="0 0 128 128" enable-background="new 0 0 128 128" xml:space="preserve">
<g>
	
		<polygon fill="none" stroke="#000000" stroke-width="2" stroke-linecap="round" stroke-linejoin="round" stroke-miterlimit="10" points="
		59.384,43.581 78.889,57.005 59.384,70.427 	"/>
	<g>
		<g>
			<path d="M103.317,89.192H24.765c-2.206,0-4-1.794-4-4v-53.49c0-2.206,1.794-4,4-4h78.553c2.206,0,4,1.794,4,4v53.49
				C107.317,87.398,105.523,89.192,103.317,89.192z M24.765,29.702c-1.103,0-2,0.897-2,2v53.49c0,1.103,0.897,2,2,2h78.553
				c1.103,0,2-0.897,2-2v-53.49c0-1.103-0.897-2-2-2H24.765z"/>
		</g>
		<g>
			<path d="M113.917,102.634c-0.004,0.001-0.012,0.001-0.02,0H14.185c-0.389,0-0.743-0.226-0.907-0.579
				c-0.164-0.353-0.108-0.769,0.143-1.065l7.398-8.766c0.19-0.226,0.47-0.355,0.765-0.355h84.916c0.295,0,0.574,0.13,0.765,0.355
				l7.294,8.642c0.22,0.184,0.359,0.46,0.359,0.769C114.917,102.187,114.47,102.634,113.917,102.634z M16.337,100.634h95.408
				l-5.711-6.766H22.048L16.337,100.634z"/>
		</g>
		<g>
			<path d="M106.317,82.601H21.765c-0.553,0-1-0.447-1-1s0.447-1,1-1h84.553c0.553,0,1,0.447,1,1S106.87,82.601,106.317,82.601z"/>
		</g>
	</g>
</g>
</svg>
