<?xml version="1.0" encoding="utf-8"?>
<!-- Generator: Adobe Illustrator 16.0.0, SVG Export Plug-In . SVG Version: 6.00 Build 0)  -->
<!DOCTYPE svg PUBLIC "-//W3C//DTD SVG 1.1//EN" "http://www.w3.org/Graphics/SVG/1.1/DTD/svg11.dtd">
<svg version="1.1" id="Layer_1" xmlns="http://www.w3.org/2000/svg" xmlns:xlink="http://www.w3.org/1999/xlink" x="0px" y="0px"
	 width="128px" height="128px" viewBox="0 0 128 128" enable-background="new 0 0 128 128" xml:space="preserve">
<g>
	<g>
		<path d="M57.496,71.714c-0.159,0-0.319-0.038-0.466-0.115c-0.328-0.173-0.534-0.514-0.534-0.885V45.8
			c0-0.371,0.206-0.712,0.534-0.885c0.329-0.174,0.727-0.148,1.033,0.061l18.102,12.457c0.271,0.188,0.433,0.495,0.433,0.824
			s-0.162,0.637-0.433,0.824L58.063,71.538C57.894,71.654,57.695,71.714,57.496,71.714z M58.496,47.702v21.109l15.338-10.555
			L58.496,47.702z"/>
	</g>
	<g>
		<path d="M83.701,113.192h-39.32c-2.206,0-4-1.794-4-4V21.142c0-2.206,1.794-4,4-4h39.32c2.206,0,4,1.794,4,4v88.051
			C87.701,111.398,85.907,113.192,83.701,113.192z M44.381,19.142c-1.103,0-2,0.897-2,2v88.051c0,1.103,0.897,2,2,2h39.32
			c1.103,0,2-0.897,2-2V21.142c0-1.103-0.897-2-2-2H44.381z"/>
	</g>
	<g>
		<path d="M86.053,96.009H42.029c-0.553,0-1-0.447-1-1s0.447-1,1-1h44.023c0.553,0,1,0.447,1,1S86.605,96.009,86.053,96.009z"/>
	</g>
	<g>
		<path d="M66.598,103.901c0,1.412-1.146,2.551-2.557,2.551c-1.414,0-2.553-1.139-2.553-2.551s1.139-2.553,2.553-2.553
			C65.451,101.349,66.598,102.489,66.598,103.901z"/>
	</g>
</g>
</svg>
