<?xml version="1.0" encoding="utf-8"?>
<!-- Generator: Adobe Illustrator 16.0.0, SVG Export Plug-In . SVG Version: 6.00 Build 0)  -->
<!DOCTYPE svg PUBLIC "-//W3C//DTD SVG 1.1//EN" "http://www.w3.org/Graphics/SVG/1.1/DTD/svg11.dtd">
<svg version="1.1" id="Layer_1" xmlns="http://www.w3.org/2000/svg" xmlns:xlink="http://www.w3.org/1999/xlink" x="0px" y="0px"
	 width="128px" height="128px" viewBox="0 0 128 128" enable-background="new 0 0 128 128" xml:space="preserve">
<g>
	<g>
		<path d="M54.535,77.513c-0.159,0-0.319-0.038-0.466-0.115c-0.328-0.173-0.534-0.514-0.534-0.885V40.001
			c0-0.371,0.206-0.712,0.534-0.885c0.33-0.174,0.728-0.148,1.033,0.061L81.63,57.433c0.271,0.188,0.433,0.495,0.433,0.824
			s-0.162,0.637-0.433,0.824L55.103,77.337C54.933,77.453,54.734,77.513,54.535,77.513z M55.535,41.903V74.61l23.764-16.354
			L55.535,41.903z"/>
	</g>
	<g>
		<path d="M95.932,115.069H32.15c-2.206,0-4-1.794-4-4V19.269c0-2.206,1.794-4,4-4h63.781c2.206,0,4,1.794,4,4v91.801
			C99.932,113.275,98.138,115.069,95.932,115.069z M32.15,17.269c-1.103,0-2,0.897-2,2v91.801c0,1.103,0.897,2,2,2h63.781
			c1.103,0,2-0.897,2-2V19.269c0-1.103-0.897-2-2-2H32.15z"/>
	</g>
	<g>
		<path d="M66.598,106.405c0,1.408-1.145,2.555-2.561,2.555c-1.404,0-2.553-1.146-2.553-2.555c0-1.412,1.148-2.557,2.553-2.557
			C65.453,103.849,66.598,104.993,66.598,106.405z"/>
	</g>
	<g>
		<path d="M98.404,98.099H29.682c-0.553,0-1-0.447-1-1s0.447-1,1-1h68.723c0.553,0,1,0.447,1,1S98.957,98.099,98.404,98.099z"/>
	</g>
</g>
</svg>
