<?xml version="1.0" encoding="utf-8"?>
<!-- Generator: Adobe Illustrator 16.0.0, SVG Export Plug-In . SVG Version: 6.00 Build 0)  -->
<!DOCTYPE svg PUBLIC "-//W3C//DTD SVG 1.1//EN" "http://www.w3.org/Graphics/SVG/1.1/DTD/svg11.dtd">
<svg version="1.1" id="Layer_1" xmlns="http://www.w3.org/2000/svg" xmlns:xlink="http://www.w3.org/1999/xlink" x="0px" y="0px"
	 width="128px" height="128px" viewBox="0 0 128 128" enable-background="new 0 0 128 128" xml:space="preserve">
<g>
	
		<polygon fill="none" stroke="#000000" stroke-width="2" stroke-linecap="round" stroke-linejoin="round" stroke-miterlimit="10" points="
		56.816,54.884 71.768,65.167 56.816,75.454 	"/>
	<g>
		<g>
			<path d="M77.125,89.743H46.451c-3.309,0-6-2.691-6-6V46.589c0-3.309,2.691-6,6-6h30.674c3.309,0,6,2.691,6,6v37.154
				C83.125,87.052,80.434,89.743,77.125,89.743z M46.451,42.589c-2.206,0-4,1.794-4,4v37.154c0,2.206,1.794,4,4,4h30.674
				c2.206,0,4-1.794,4-4V46.589c0-2.206-1.794-4-4-4H46.451z"/>
		</g>
		<g>
			<path d="M86.631,60.673c-0.553,0-1-0.447-1-1v-7.84c0-0.553,0.447-1,1-1s1,0.447,1,1v7.84
				C87.631,60.226,87.184,60.673,86.631,60.673z"/>
		</g>
		<g>
			<path d="M74.609,37.974c-0.553,0-1-0.447-1-1v-9.225c0-0.552-0.448-1-1-1H50.969c-0.552,0-1,0.448-1,1v9.225c0,0.553-0.447,1-1,1
				s-1-0.447-1-1v-9.225c0-1.654,1.346-3,3-3h21.641c1.654,0,3,1.346,3,3v9.225C75.609,37.526,75.162,37.974,74.609,37.974z"/>
		</g>
		<g>
			<path d="M72.609,105.579H50.969c-1.654,0-3-1.346-3-3v-9.215c0-0.553,0.447-1,1-1s1,0.447,1,1v9.215c0,0.552,0.448,1,1,1h21.641
				c0.552,0,1-0.448,1-1v-9.215c0-0.553,0.447-1,1-1s1,0.447,1,1v9.215C75.609,104.233,74.264,105.579,72.609,105.579z"/>
		</g>
	</g>
</g>
</svg>
