<?xml version="1.0" encoding="utf-8"?>
<!-- Generator: Adobe Illustrator 16.0.0, SVG Export Plug-In . SVG Version: 6.00 Build 0)  -->
<!DOCTYPE svg PUBLIC "-//W3C//DTD SVG 1.1//EN" "http://www.w3.org/Graphics/SVG/1.1/DTD/svg11.dtd">
<svg version="1.1" id="Layer_1" xmlns="http://www.w3.org/2000/svg" xmlns:xlink="http://www.w3.org/1999/xlink" x="0px" y="0px"
	 width="32px" height="32px" viewBox="0 0 32 32" enable-background="new 0 0 32 32" xml:space="preserve">
<g>
	<g>
		<g>
			<g>
				<path d="M27.208,22.589H4.731c-0.705,0-1.278-0.574-1.278-1.279V6.146c0-0.706,0.573-1.279,1.278-1.279h22.476
					c0.705,0,1.279,0.574,1.279,1.279v15.165C28.486,22.015,27.913,22.589,27.208,22.589z M4.731,5.232
					c-0.504,0-0.914,0.41-0.914,0.913v15.165c0,0.504,0.41,0.914,0.914,0.914h22.476c0.504,0,0.914-0.409,0.914-0.914V6.146
					c0-0.503-0.41-0.913-0.914-0.913H4.731z"/>
			</g>
		</g>
		<g>
			<g>
				<path d="M30.522,26.511c-0.002-0.001-0.005,0-0.007,0H1.424c-0.071,0-0.136-0.042-0.167-0.106
					c-0.029-0.064-0.019-0.14,0.027-0.195l2.159-2.557c0.035-0.041,0.086-0.064,0.14-0.064h24.773c0.054,0,0.105,0.023,0.14,0.064
					l2.132,2.526c0.046,0.033,0.077,0.087,0.077,0.149C30.706,26.429,30.623,26.511,30.522,26.511z M1.817,26.145h28.305
					l-1.851-2.192H3.667L1.817,26.145z"/>
			</g>
		</g>
		<g>
			<g>
				<path d="M28.303,20.666H3.635c-0.101,0-0.182-0.082-0.182-0.183c0-0.101,0.081-0.182,0.182-0.182h24.668
					c0.101,0,0.183,0.082,0.183,0.182C28.486,20.584,28.404,20.666,28.303,20.666z"/>
			</g>
		</g>
	</g>
</g>
</svg>
