<?xml version="1.0" encoding="utf-8"?>
<!-- Generator: Adobe Illustrator 16.0.0, SVG Export Plug-In . SVG Version: 6.00 Build 0)  -->
<!DOCTYPE svg PUBLIC "-//W3C//DTD SVG 1.1//EN" "http://www.w3.org/Graphics/SVG/1.1/DTD/svg11.dtd">
<svg version="1.1" id="Layer_1" xmlns="http://www.w3.org/2000/svg" xmlns:xlink="http://www.w3.org/1999/xlink" x="0px" y="0px"
	 width="32px" height="32px" viewBox="0 0 32 32" enable-background="new 0 0 32 32" xml:space="preserve">
<g>
	<g>
		<g>
			<g>
				<path d="M19.496,22.751h-8.214c-1.107,0-2.009-0.902-2.009-2.009V10.636c0-1.108,0.901-2.009,2.009-2.009h8.214
					c1.107,0,2.009,0.901,2.009,2.009v10.105C21.504,21.849,20.603,22.751,19.496,22.751z M11.281,8.992
					c-0.907,0-1.644,0.737-1.644,1.644v10.105c0,0.907,0.737,1.644,1.644,1.644h8.214c0.906,0,1.644-0.737,1.644-1.644V10.636
					c0-0.907-0.738-1.644-1.644-1.644H11.281z"/>
			</g>
		</g>
		<g>
			<g>
				<path d="M22.637,14.268c-0.101,0-0.183-0.081-0.183-0.183v-2.286c0-0.101,0.082-0.183,0.183-0.183s0.183,0.082,0.183,0.183
					v2.286C22.819,14.187,22.738,14.268,22.637,14.268z"/>
			</g>
		</g>
		<g>
			<g>
				<path d="M19.128,7.646c-0.101,0-0.182-0.083-0.182-0.183V4.919c0-0.302-0.247-0.548-0.549-0.548h-6.018
					c-0.302,0-0.548,0.246-0.548,0.548v2.544c0,0.101-0.082,0.183-0.183,0.183c-0.101,0-0.183-0.083-0.183-0.183V4.919
					c0-0.503,0.409-0.913,0.913-0.913h6.018c0.504,0,0.914,0.41,0.914,0.913v2.544C19.312,7.563,19.229,7.646,19.128,7.646z"/>
			</g>
		</g>
		<g>
			<g>
				<path d="M18.397,27.371h-6.018c-0.504,0-0.913-0.409-0.913-0.913v-2.544c0-0.101,0.082-0.182,0.183-0.182
					c0.101,0,0.183,0.082,0.183,0.182v2.544c0,0.302,0.246,0.547,0.548,0.547h6.018c0.302,0,0.549-0.246,0.549-0.547v-2.544
					c0-0.101,0.082-0.182,0.182-0.182s0.183,0.082,0.183,0.182v2.544C19.312,26.962,18.901,27.371,18.397,27.371z"/>
			</g>
		</g>
	</g>
</g>
</svg>
