<?xml version="1.0" encoding="utf-8"?>
<!-- Generator: Adobe Illustrator 16.0.0, SVG Export Plug-In . SVG Version: 6.00 Build 0)  -->
<!DOCTYPE svg PUBLIC "-//W3C//DTD SVG 1.1//EN" "http://www.w3.org/Graphics/SVG/1.1/DTD/svg11.dtd">
<svg version="1.1" id="Layer_1" xmlns="http://www.w3.org/2000/svg" xmlns:xlink="http://www.w3.org/1999/xlink" x="0px" y="0px"
	 width="32px" height="32px" viewBox="0 0 32 32" enable-background="new 0 0 32 32" xml:space="preserve">
<g>
	<g>
		<g>
			<g>
				<path d="M27.248,22.818H4.771c-0.706,0-1.278-0.574-1.278-1.279V6.374c0-0.706,0.573-1.279,1.278-1.279h22.476
					c0.706,0,1.279,0.573,1.279,1.279v15.165C28.526,22.244,27.953,22.818,27.248,22.818z M4.771,5.46
					c-0.504,0-0.914,0.41-0.914,0.914v15.165c0,0.503,0.41,0.913,0.914,0.913h22.476c0.504,0,0.914-0.41,0.914-0.913V6.374
					c0-0.504-0.409-0.914-0.914-0.914H4.771z"/>
			</g>
		</g>
		<g>
			<g>
				<path d="M28.344,20.894H3.676c-0.102,0-0.183-0.082-0.183-0.182c0-0.101,0.081-0.183,0.183-0.183h24.668
					c0.102,0,0.183,0.082,0.183,0.183C28.526,20.812,28.445,20.894,28.344,20.894z"/>
			</g>
		</g>
		<g>
			<g>
				<g>
					<path d="M11.101,26.054c-0.039,0-0.078-0.012-0.111-0.038c-0.081-0.062-0.094-0.177-0.033-0.257l2.511-3.243
						c0.062-0.079,0.176-0.093,0.257-0.032c0.079,0.062,0.094,0.177,0.032,0.256l-2.511,3.242
						C11.21,26.03,11.156,26.054,11.101,26.054z"/>
				</g>
			</g>
			<g>
				<g>
					<path d="M20.918,26.054c-0.055,0-0.109-0.023-0.146-0.071l-2.511-3.242c-0.062-0.079-0.047-0.194,0.033-0.256
						c0.08-0.062,0.195-0.047,0.256,0.032l2.511,3.243c0.062,0.08,0.048,0.195-0.033,0.257
						C20.997,26.042,20.958,26.054,20.918,26.054z"/>
				</g>
			</g>
		</g>
		<g>
			<g>
				<path d="M22.859,26.282H9.16c-0.1,0-0.183-0.082-0.183-0.183c0-0.101,0.083-0.182,0.183-0.182h13.699
					c0.101,0,0.184,0.081,0.184,0.182C23.042,26.2,22.959,26.282,22.859,26.282z"/>
			</g>
		</g>
	</g>
</g>
</svg>
