<?xml version="1.0" encoding="utf-8"?>
<!-- Generator: Adobe Illustrator 16.0.0, SVG Export Plug-In . SVG Version: 6.00 Build 0)  -->
<!DOCTYPE svg PUBLIC "-//W3C//DTD SVG 1.1//EN" "http://www.w3.org/Graphics/SVG/1.1/DTD/svg11.dtd">
<svg version="1.1" id="Layer_1" xmlns="http://www.w3.org/2000/svg" xmlns:xlink="http://www.w3.org/1999/xlink" x="0px" y="0px"
	 width="32px" height="32px" viewBox="0 0 32 32" enable-background="new 0 0 32 32" xml:space="preserve">
<g>
	<g>
		<g>
			<g>
				<path d="M24.984,30.138H6.817c-0.705,0-1.279-0.574-1.279-1.279V2.518c0-0.705,0.574-1.279,1.279-1.279h18.167
					c0.705,0,1.279,0.574,1.279,1.279v26.341C26.263,29.564,25.689,30.138,24.984,30.138z M6.817,1.604
					c-0.504,0-0.914,0.409-0.914,0.914v26.341c0,0.504,0.409,0.913,0.914,0.913h18.167c0.503,0,0.914-0.409,0.914-0.913V2.518
					c0-0.504-0.41-0.914-0.914-0.914H6.817z"/>
			</g>
		</g>
		<g>
			<g>
				<circle cx="15.901" cy="27.72" r="0.746"/>
			</g>
		</g>
		<g>
			<g>
				<path d="M25.925,25.188H5.876c-0.101,0-0.183-0.082-0.183-0.183c0-0.101,0.082-0.182,0.183-0.182h20.049
					c0.101,0,0.182,0.082,0.182,0.182C26.107,25.105,26.026,25.188,25.925,25.188z"/>
			</g>
		</g>
	</g>
</g>
</svg>
