<?xml version="1.0" encoding="utf-8"?>
<!-- Generator: Adobe Illustrator 16.0.0, SVG Export Plug-In . SVG Version: 6.00 Build 0)  -->
<!DOCTYPE svg PUBLIC "-//W3C//DTD SVG 1.1//EN" "http://www.w3.org/Graphics/SVG/1.1/DTD/svg11.dtd">
<svg version="1.1" id="Layer_1" xmlns="http://www.w3.org/2000/svg" xmlns:xlink="http://www.w3.org/1999/xlink" x="0px" y="0px"
	 width="32px" height="32px" viewBox="0 0 32 32" enable-background="new 0 0 32 32" xml:space="preserve">
<g>
	<g>
		<g>
			<g>
				<circle cx="15.937" cy="26.989" r="0.745"/>
			</g>
		</g>
		<g>
			<g>
				<path d="M21.452,29.59H10.421c-0.705,0-1.278-0.574-1.278-1.278V3.065c0-0.706,0.574-1.279,1.278-1.279h11.031
					c0.706,0,1.279,0.574,1.279,1.279v25.247C22.731,29.017,22.158,29.59,21.452,29.59z M10.421,2.152
					c-0.504,0-0.913,0.41-0.913,0.914v25.247c0,0.503,0.409,0.914,0.913,0.914h11.031c0.504,0,0.914-0.41,0.914-0.914V3.065
					c0-0.503-0.41-0.914-0.914-0.914H10.421z"/>
			</g>
		</g>
		<g>
			<g>
				<path d="M22.358,24.578H9.516c-0.101,0-0.183-0.082-0.183-0.183c0-0.102,0.082-0.183,0.183-0.183h12.843
					c0.101,0,0.183,0.081,0.183,0.183C22.542,24.496,22.459,24.578,22.358,24.578z"/>
			</g>
		</g>
	</g>
</g>
</svg>
