<?xml version="1.0" encoding="utf-8"?>
<!-- Generator: Adobe Illustrator 16.0.0, SVG Export Plug-In . SVG Version: 6.00 Build 0)  -->
<!DOCTYPE svg PUBLIC "-//W3C//DTD SVG 1.1//EN" "http://www.w3.org/Graphics/SVG/1.1/DTD/svg11.dtd">
<svg version="1.1" id="Layer_1" xmlns="http://www.w3.org/2000/svg" xmlns:xlink="http://www.w3.org/1999/xlink" x="0px" y="0px"
	 width="32px" height="32px" viewBox="0 0 32 32" enable-background="new 0 0 32 32" xml:space="preserve">
<g>
	<g>
		<g>
			<g>
				<g>
					<path d="M19.677,22.924h-8.214c-1.108,0-2.009-0.901-2.009-2.009V10.809c0-1.107,0.9-2.009,2.009-2.009h8.214
						c1.108,0,2.01,0.902,2.01,2.009v10.106C21.687,22.022,20.785,22.924,19.677,22.924z M11.463,9.165
						c-0.906,0-1.644,0.737-1.644,1.644v10.106c0,0.906,0.737,1.644,1.644,1.644h8.214c0.906,0,1.645-0.738,1.645-1.644V10.809
						c0-0.906-0.738-1.644-1.645-1.644H11.463z"/>
				</g>
			</g>
			<g>
				<g>
					<path d="M22.818,14.441c-0.102,0-0.184-0.082-0.184-0.183v-2.286c0-0.101,0.082-0.183,0.184-0.183S23,11.872,23,11.973v2.286
						C23,14.359,22.92,14.441,22.818,14.441z"/>
				</g>
			</g>
			<g>
				<g>
					<path d="M19.311,7.819c-0.102,0-0.183-0.083-0.183-0.183V5.092c0-0.301-0.246-0.548-0.55-0.548h-6.017
						c-0.301,0-0.548,0.247-0.548,0.548v2.544c0,0.1-0.084,0.183-0.185,0.183s-0.182-0.083-0.182-0.183V5.092
						c0-0.503,0.409-0.913,0.914-0.913h6.017c0.506,0,0.914,0.41,0.914,0.913v2.544C19.492,7.736,19.411,7.819,19.311,7.819z"/>
				</g>
			</g>
			<g>
				<g>
					<path d="M18.578,27.545h-6.017c-0.505,0-0.914-0.41-0.914-0.914v-2.543c0-0.101,0.081-0.183,0.182-0.183
						s0.185,0.083,0.185,0.183v2.543c0,0.302,0.247,0.548,0.548,0.548h6.017c0.304,0,0.55-0.246,0.55-0.548v-2.543
						c0-0.101,0.081-0.183,0.183-0.183c0.101,0,0.182,0.083,0.182,0.183v2.543C19.492,27.135,19.084,27.545,18.578,27.545z"/>
				</g>
			</g>
		</g>
		<g>
			<g>
				<path d="M15.161,17.116c-0.01,0-0.023-0.001-0.032-0.003l0,0l0,0l0,0c-0.002,0-0.002,0-0.002,0l0,0l0,0l0,0l0,0l0,0c0,0,0,0,0,0
					l0,0c-0.001,0-0.001,0-0.001,0l0,0h-0.002l0,0l0,0l0,0l0,0l0,0c-0.002,0-0.002,0-0.002,0l0,0v0h-0.001l0,0l0,0l0,0l0,0l0,0l0,0
					l0,0c-0.001,0-0.001,0-0.001,0l0,0h-0.001V17.11l0,0l0,0l0,0l0,0l0,0h-0.002l0,0c-0.002,0-0.002,0-0.002,0l0,0c0,0,0,0,0,0l0,0
					l0,0l0,0c-0.001,0-0.001,0-0.001,0l0,0l-0.002-0.001l0,0l0,0l0,0l0,0l0,0h-0.001l0,0l0,0H15.11v0l0,0l0,0l0,0l0,0l0,0l0,0l0,0
					c0,0-0.001,0-0.001-0.001l0,0h-0.001l0,0l0,0l0,0l0,0l0,0c0-0.001,0-0.001-0.002-0.001l0,0l0,0l0,0h-0.001l0,0l0,0l0,0v0l0,0
					l0,0l0,0c-0.002,0-0.002,0-0.002,0h-0.001l0,0v0l0,0l0,0l0,0l0,0l0,0c-0.001,0-0.001,0-0.001,0l0,0c0,0-0.001,0-0.001,0l0,0l0,0
					l0,0l0,0l0,0c0,0,0,0,0-0.001l0,0H15.1l0,0c-0.002,0-0.002,0-0.002,0l0,0l0,0v0l0,0l0,0l0,0h-0.002l0,0h-0.001l0,0c0,0,0,0,0,0
					l0,0l0,0l0,0l0,0l0,0c-0.002,0-0.002,0-0.002,0s0,0-0.001,0l0,0l0,0l0,0v0l0,0l0,0l0,0h-0.001l0,0c0,0,0,0,0-0.001l0,0
					c-0.002,0.001-0.002,0-0.002,0l0,0l0,0l0,0l0,0v0l0,0h-0.001l0,0c-0.002,0-0.002,0-0.002,0l0,0v0l0,0l0,0l0,0c0,0,0,0,0-0.001
					l0,0h-0.001c0,0,0.004,0.001-0.002,0l0,0l0,0v0l0,0l0,0l0,0l0,0l-0.001-0.001h-0.001l0,0l0,0l0,0l0,0v-0.001l0,0l0,0l0,0
					c0,0-0.001,0-0.001,0l0,0l0,0h-0.001c0,0,0,0,0,0v0c0,0,0,0.001,0,0l0,0h-0.002l0,0c0,0,0,0,0,0h-0.002c0,0,0.002,0,0,0l0,0l0,0
					c0-0.001,0-0.001,0-0.001l0,0l0,0l0,0v-0.001l0,0c0,0,0,0-0.002,0l0,0l0,0c0,0,0,0,0,0l0,0l0,0l0,0l0,0l-0.001-0.001l0,0l0,0
					c-0.002,0-0.002,0-0.002,0l0,0l0,0v0l0,0l0,0l0,0c0-0.001,0-0.001,0-0.001l0,0h-0.001l0,0c0,0,0,0-0.001,0l0,0l0,0l0,0l0,0l0,0
					l0,0l0,0h-0.002l0,0c-0.001-0.001-0.001-0.001-0.001-0.001l0,0c-0.006-0.003-0.01-0.007-0.014-0.009l0,0
					c0-0.001,0-0.001-0.002-0.001l0,0v0l0,0h-0.001l0,0v0l0,0l0,0l0,0c0-0.001,0-0.001,0-0.001l0,0c0,0,0,0-0.001,0l0,0h-0.001l0,0
					l0,0l0,0v0l0,0l0,0l0,0l-0.001-0.001l0,0l0,0c0,0-0.002,0-0.002-0.001l0,0l0,0l0,0c-0.004-0.003-0.009-0.007-0.012-0.011
					l-1.294-1.274c-0.074-0.07-0.074-0.187-0.004-0.258c0.072-0.072,0.187-0.072,0.261-0.002l1.164,1.147l2.407-2.433
					c0.07-0.072,0.187-0.072,0.258-0.001c0.072,0.071,0.073,0.186,0.001,0.259l-2.534,2.562l0,0
					c-0.013,0.013-0.026,0.022-0.042,0.031l0,0l0,0l0,0l0,0l0,0c0,0.001,0,0.001,0,0.001s0,0-0.001,0l0,0l0,0h-0.002c0,0,0,0,0,0
					l0,0l0,0c0,0,0,0.002,0,0v0.001l0,0l0,0c-0.002,0-0.002,0-0.002,0s0,0,0,0.001l0,0l0,0l0,0l0,0c0,0,0,0,0,0l0,0l0,0l0,0
					C15.217,17.109,15.188,17.116,15.161,17.116z"/>
			</g>
			<g>
				<path d="M15.64,19.907H15.5c-0.028,0-0.056-0.007-0.082-0.02c-1.945-0.998-3.47-4.003-3.47-6.842
					c0-0.101,0.082-0.183,0.183-0.183c1.652,0,3.327-1.008,3.344-1.019c0.058-0.035,0.133-0.035,0.19,0
					c0.017,0.011,1.695,1.019,3.346,1.019c0.1,0,0.183,0.083,0.183,0.183c0,2.839-1.526,5.844-3.471,6.842
					C15.698,19.9,15.669,19.907,15.64,19.907z M15.547,19.541h0.048c1.776-0.938,3.17-3.676,3.229-6.317
					c-1.475-0.059-2.881-0.801-3.254-1.013c-0.375,0.213-1.779,0.954-3.254,1.013C12.376,15.864,13.769,18.602,15.547,19.541z"/>
			</g>
		</g>
	</g>
</g>
</svg>
