<?xml version="1.0" encoding="utf-8"?>
<!-- Generator: Adobe Illustrator 16.0.0, SVG Export Plug-In . SVG Version: 6.00 Build 0)  -->
<!DOCTYPE svg PUBLIC "-//W3C//DTD SVG 1.1//EN" "http://www.w3.org/Graphics/SVG/1.1/DTD/svg11.dtd">
<svg version="1.1" id="Layer_1" xmlns="http://www.w3.org/2000/svg" xmlns:xlink="http://www.w3.org/1999/xlink" x="0px" y="0px"
	 width="32px" height="32px" viewBox="0 0 32 32" enable-background="new 0 0 32 32" xml:space="preserve">
<g>
	<g>
		<g>
			<g>
				<g>
					<path d="M27.391,22.763H4.914c-0.705,0-1.278-0.574-1.278-1.279V6.318c0-0.705,0.573-1.278,1.278-1.278h22.477
						c0.703,0,1.278,0.574,1.278,1.278v15.166C28.669,22.188,28.094,22.763,27.391,22.763z M4.914,5.405
						c-0.504,0-0.913,0.41-0.913,0.913v15.166c0,0.503,0.409,0.913,0.913,0.913h22.477c0.503,0,0.913-0.41,0.913-0.913V6.318
						c0-0.502-0.41-0.913-0.913-0.913H4.914z"/>
				</g>
			</g>
			<g>
				<g>
					<path d="M30.705,26.684c-0.002,0-0.004,0-0.007,0H1.606c-0.07,0-0.136-0.041-0.166-0.106c-0.03-0.064-0.02-0.14,0.026-0.195
						l2.16-2.557c0.032-0.041,0.084-0.064,0.138-0.064h24.774c0.054,0,0.104,0.023,0.14,0.064l2.132,2.526
						c0.047,0.034,0.076,0.088,0.076,0.149C30.887,26.602,30.807,26.684,30.705,26.684z M1.999,26.318h28.305l-1.849-2.192H3.851
						L1.999,26.318z"/>
				</g>
			</g>
			<g>
				<g>
					<path d="M28.485,20.839H3.817c-0.101,0-0.182-0.082-0.182-0.182c0-0.101,0.081-0.183,0.182-0.183h24.668
						c0.102,0,0.184,0.082,0.184,0.183C28.669,20.757,28.587,20.839,28.485,20.839z"/>
				</g>
			</g>
		</g>
		<g>
			<g>
				<path d="M15.654,14.787c-0.04,0-0.082-0.014-0.116-0.042l0,0c0,0,0,0,0,0l0,0l0,0c-0.001-0.001-0.001-0.001-0.001-0.001
					s0.001,0.002,0,0l0,0l0,0l0,0l-0.001-0.001l0,0c-0.003-0.002-0.007-0.005-0.009-0.007l-1.572-1.546
					c-0.071-0.071-0.072-0.186-0.002-0.258c0.071-0.072,0.187-0.072,0.258-0.002l1.443,1.419l2.947-2.979
					c0.07-0.071,0.187-0.072,0.259-0.001c0.071,0.071,0.072,0.187,0.001,0.259l-3.076,3.108
					C15.75,14.769,15.703,14.787,15.654,14.787z"/>
			</g>
			<g>
				<path d="M16.236,18.173h-0.169c-0.028,0-0.057-0.007-0.084-0.02c-2.347-1.205-4.187-4.835-4.187-8.266
					c0-0.101,0.081-0.182,0.183-0.182c2.017,0,4.058-1.229,4.077-1.242c0.059-0.036,0.132-0.036,0.19,0
					c0.02,0.013,2.066,1.242,4.078,1.242c0.101,0,0.183,0.081,0.183,0.182c0,3.431-1.839,7.062-4.188,8.266
					C16.294,18.167,16.267,18.173,16.236,18.173z M16.112,17.808h0.08c2.178-1.145,3.887-4.508,3.947-7.741
					c-1.821-0.06-3.563-0.994-3.987-1.236c-0.424,0.242-2.166,1.176-3.989,1.236C12.224,13.299,13.935,16.662,16.112,17.808z"/>
			</g>
		</g>
	</g>
</g>
</svg>
