<?xml version="1.0" encoding="utf-8"?>
<!-- Generator: Adobe Illustrator 16.0.0, SVG Export Plug-In . SVG Version: 6.00 Build 0)  -->
<!DOCTYPE svg PUBLIC "-//W3C//DTD SVG 1.1//EN" "http://www.w3.org/Graphics/SVG/1.1/DTD/svg11.dtd">
<svg version="1.1" id="Layer_1" xmlns="http://www.w3.org/2000/svg" xmlns:xlink="http://www.w3.org/1999/xlink" x="0px" y="0px"
	 width="32px" height="32px" viewBox="0 0 32 32" enable-background="new 0 0 32 32" xml:space="preserve">
<g>
	<g>
		<g>
			<g>
				<g>
					<path d="M27.431,22.99H4.952c-0.704,0-1.277-0.573-1.277-1.278V6.546c0-0.705,0.573-1.278,1.277-1.278h22.479
						c0.702,0,1.276,0.574,1.276,1.278v15.166C28.707,22.417,28.133,22.99,27.431,22.99z M4.952,5.633
						c-0.504,0-0.912,0.41-0.912,0.913v15.166c0,0.503,0.408,0.913,0.912,0.913h22.479c0.501,0,0.912-0.41,0.912-0.913V6.546
						c0-0.503-0.411-0.913-0.912-0.913H4.952z"/>
				</g>
			</g>
			<g>
				<g>
					<path d="M28.525,21.067H3.856c-0.101,0-0.182-0.082-0.182-0.183c0-0.102,0.081-0.183,0.182-0.183h24.669
						c0.101,0,0.182,0.082,0.182,0.183C28.707,20.986,28.626,21.067,28.525,21.067z"/>
				</g>
			</g>
			<g>
				<g>
					<g>
						<path d="M11.281,26.228c-0.037,0-0.077-0.013-0.111-0.039c-0.078-0.062-0.095-0.177-0.033-0.256l2.512-3.243
							c0.062-0.079,0.177-0.093,0.257-0.033c0.08,0.062,0.095,0.177,0.031,0.256l-2.51,3.242
							C11.391,26.203,11.337,26.228,11.281,26.228z"/>
					</g>
				</g>
				<g>
					<g>
						<path d="M21.1,26.228c-0.055,0-0.108-0.025-0.145-0.071l-2.511-3.242c-0.062-0.08-0.048-0.194,0.032-0.256
							c0.081-0.061,0.193-0.047,0.257,0.033l2.512,3.243c0.061,0.079,0.046,0.194-0.033,0.256
							C21.177,26.215,21.139,26.228,21.1,26.228z"/>
					</g>
				</g>
			</g>
			<g>
				<g>
					<path d="M23.04,26.456H9.341c-0.101,0-0.181-0.082-0.181-0.183s0.08-0.183,0.181-0.183H23.04c0.102,0,0.183,0.082,0.183,0.183
						S23.142,26.456,23.04,26.456z"/>
				</g>
			</g>
		</g>
		<g>
			<g>
				<path d="M15.717,14.726c-0.046,0-0.093-0.017-0.128-0.052l0,0l-1.499-1.475c-0.073-0.07-0.073-0.186-0.003-0.258
					c0.071-0.072,0.187-0.072,0.26-0.001l1.369,1.347l2.805-2.835c0.07-0.072,0.186-0.072,0.258-0.001
					c0.071,0.07,0.071,0.186,0.003,0.259l-2.934,2.964l0,0c-0.012,0.012-0.024,0.021-0.036,0.028l0,0c0,0,0,0-0.002,0l0,0l0,0l0,0
					c0,0,0,0.001,0,0c0,0.001,0,0.001,0,0.001l0,0l0,0c0,0.001-0.002,0.001-0.002,0.001v0c0,0,0,0-0.001,0c0.001,0,0,0,0,0l0,0l0,0
					l0,0l0,0c0,0,0,0-0.001,0.001l0,0l0,0l0,0c-0.001,0-0.001,0-0.001,0l0,0C15.777,14.72,15.747,14.726,15.717,14.726z"/>
			</g>
			<g>
				<path d="M16.272,17.957h-0.163c-0.029,0-0.056-0.007-0.082-0.02c-2.242-1.15-3.999-4.617-3.999-7.892
					c0-0.101,0.081-0.183,0.183-0.183c1.919,0,3.867-1.171,3.885-1.183c0.059-0.035,0.132-0.035,0.19,0
					c0.02,0.012,1.968,1.183,3.885,1.183c0.101,0,0.183,0.083,0.183,0.183c0,3.275-1.758,6.742-3.999,7.892
					C16.328,17.949,16.301,17.957,16.272,17.957z M16.154,17.591h0.073c2.072-1.092,3.696-4.29,3.759-7.367
					c-1.732-0.061-3.385-0.942-3.795-1.177c-0.413,0.235-2.064,1.116-3.796,1.177C12.457,13.301,14.083,16.5,16.154,17.591z"/>
			</g>
		</g>
	</g>
</g>
</svg>
