<?xml version="1.0" encoding="utf-8"?>
<!-- Generator: Adobe Illustrator 16.0.0, SVG Export Plug-In . SVG Version: 6.00 Build 0)  -->
<!DOCTYPE svg PUBLIC "-//W3C//DTD SVG 1.1//EN" "http://www.w3.org/Graphics/SVG/1.1/DTD/svg11.dtd">
<svg version="1.1" id="Layer_1" xmlns="http://www.w3.org/2000/svg" xmlns:xlink="http://www.w3.org/1999/xlink" x="0px" y="0px"
	 width="32px" height="32px" viewBox="0 0 32 32" enable-background="new 0 0 32 32" xml:space="preserve">
<g>
	<g>
		<g>
			<g>
				<path d="M25.166,30.312H6.999c-0.706,0-1.279-0.574-1.279-1.279V2.691c0-0.705,0.573-1.278,1.279-1.278h18.167
					c0.705,0,1.278,0.573,1.278,1.278v26.342C26.444,29.737,25.871,30.312,25.166,30.312z M6.999,1.778
					c-0.504,0-0.914,0.41-0.914,0.913v26.342c0,0.504,0.41,0.913,0.914,0.913h18.167c0.503,0,0.913-0.409,0.913-0.913V2.691
					c0-0.503-0.41-0.913-0.913-0.913H6.999z"/>
			</g>
		</g>
		<g>
			<g>
				<circle cx="16.083" cy="27.893" r="0.746"/>
			</g>
		</g>
		<g>
			<g>
				<path d="M26.106,25.36H6.058c-0.1,0-0.182-0.082-0.182-0.182c0-0.101,0.082-0.183,0.182-0.183h20.049
					c0.102,0,0.182,0.082,0.182,0.183C26.288,25.279,26.208,25.36,26.106,25.36z"/>
			</g>
		</g>
		<g>
			<g>
				<g>
					<path d="M15.37,15.35c-0.023,0-0.046-0.004-0.067-0.013l0,0h-0.001l0,0c0,0,0,0-0.001,0l0,0l0,0l0,0l0,0l0,0
						c0,0-0.001,0-0.001-0.001l0,0c-0.001,0-0.001,0-0.001,0l0,0l0,0c-0.001,0-0.001,0-0.001,0s0,0,0-0.001c0,0,0,0-0.001,0l0,0l0,0
						l0,0c0,0,0,0,0,0l0,0c0,0,0,0-0.001,0l0,0l0,0l0,0c-0.001-0.001-0.001-0.001-0.001-0.001l0,0h-0.001l0,0l0,0l0,0v0l0,0h-0.001
						l0,0c-0.019-0.008-0.036-0.02-0.052-0.036l0,0l-2.252-2.215c-0.072-0.071-0.073-0.187-0.003-0.259
						c0.071-0.072,0.188-0.073,0.259-0.002l2.123,2.088l4.281-4.326c0.069-0.072,0.186-0.073,0.258-0.001
						c0.071,0.07,0.072,0.186,0.002,0.258l-4.408,4.455l0,0c-0.018,0.018-0.038,0.032-0.061,0.041l0,0h-0.001l0,0
						c-0.001,0-0.001,0-0.001,0l0,0c0,0,0,0-0.001,0l0,0l0,0h-0.001l0,0l0,0c0,0,0,0,0,0l0,0l0,0l0,0l0,0c0,0,0.003,0-0.001,0l0,0
						h-0.001l0,0l0,0l0,0l0,0v0.001l0,0c-0.001,0-0.001,0-0.001,0l0,0l0,0c-0.001,0-0.001,0-0.001,0s-0.001,0-0.001,0.001l0,0l0,0
						h-0.001l0,0l0,0l0,0l0,0c0,0,0,0-0.001,0l0,0l0,0h-0.001c0,0,0,0-0.001,0l0,0v0.001h-0.001l0,0l0,0l0,0l0,0c0,0,0,0-0.001,0v0
						h-0.001l0,0l0,0c-0.001,0-0.001,0-0.001,0l0,0l0,0l0,0l0,0v0.001l0,0c-0.001,0-0.001,0-0.001,0l0,0h-0.001l0,0
						c-0.001,0-0.001,0-0.001,0l0,0c0,0,0,0,0,0l0,0l0,0l0,0l0,0c0,0,0,0-0.001,0l0,0v0l0,0c-0.001,0-0.001,0-0.001,0h-0.001l0,0
						c-0.001,0-0.001,0-0.001,0l0,0l0,0l0,0v0c-0.001,0-0.001,0-0.001,0l0,0l0,0c-0.001,0-0.001,0-0.001,0l0,0h-0.001l0,0l0,0l0,0
						l0,0l0,0l0,0h-0.001c0,0,0.002,0-0.001,0l0,0h-0.001l0,0c0,0,0,0-0.001,0l0,0c0,0.001,0,0.001,0,0.001l0,0l0,0l0,0h-0.001
						c0,0,0.003,0.001,0,0l0,0c0,0,0,0,0,0.001h-0.001l0,0l0,0c-0.001,0-0.001,0-0.001,0l0,0l0,0c-0.001,0-0.001,0-0.001,0l0,0
						h-0.001l0,0l0,0c0,0-0.001,0-0.001,0l0,0l0,0c-0.001,0-0.001,0-0.001,0l0,0l0,0l0,0l0,0l0,0c0,0,0,0-0.001,0l0,0
						c-0.001,0-0.001,0-0.001,0l0,0c0,0,0,0-0.001,0v0l0,0l0,0c0,0,0,0,0,0c-0.001,0-0.001,0-0.001,0l0,0c0,0,0,0-0.001,0l0,0l0,0
						l0,0l0,0c0,0-0.001,0-0.001,0l0,0l0,0c0,0,0,0-0.001,0l0,0h-0.001l0,0c0,0,0,0-0.001,0l0,0l0,0l0,0c-0.001,0-0.001,0-0.001,0
						l0,0l0,0l0,0C15.385,15.35,15.378,15.35,15.37,15.35z"/>
				</g>
			</g>
			<g>
				<g>
					<path d="M16.203,20.204h-0.242c-0.028,0-0.058-0.006-0.084-0.02c-3.341-1.713-5.959-6.887-5.959-11.778
						c0-0.101,0.082-0.183,0.182-0.183c2.913,0,5.858-1.772,5.888-1.79c0.058-0.036,0.132-0.036,0.19,0
						c0.029,0.018,2.978,1.79,5.887,1.79c0.1,0,0.183,0.083,0.183,0.183c0,4.891-2.618,10.064-5.96,11.778
						C16.262,20.197,16.232,20.204,16.203,20.204z M16.006,19.839h0.153c3.171-1.655,5.658-6.56,5.721-11.252
						c-2.685-0.063-5.267-1.479-5.798-1.787c-0.53,0.308-3.112,1.724-5.798,1.787C10.347,13.279,12.835,18.184,16.006,19.839z"/>
				</g>
			</g>
		</g>
	</g>
</g>
</svg>
