<?xml version="1.0" encoding="utf-8"?>
<!-- Generator: Adobe Illustrator 16.0.0, SVG Export Plug-In . SVG Version: 6.00 Build 0)  -->
<!DOCTYPE svg PUBLIC "-//W3C//DTD SVG 1.1//EN" "http://www.w3.org/Graphics/SVG/1.1/DTD/svg11.dtd">
<svg version="1.1" id="Layer_1" xmlns="http://www.w3.org/2000/svg" xmlns:xlink="http://www.w3.org/1999/xlink" x="0px" y="0px"
	 width="32px" height="32px" viewBox="0 0 32 32" enable-background="new 0 0 32 32" xml:space="preserve">
<g>
	<g>
		<g>
			<g>
				<path d="M21.635,29.764H10.603c-0.704,0-1.279-0.573-1.279-1.279V3.238c0-0.705,0.575-1.278,1.279-1.278h11.032
					c0.705,0,1.278,0.573,1.278,1.278v25.247C22.913,29.19,22.34,29.764,21.635,29.764z M10.603,2.325
					c-0.504,0-0.914,0.41-0.914,0.914v25.247c0,0.503,0.41,0.914,0.914,0.914h11.032c0.503,0,0.913-0.411,0.913-0.914V3.238
					c0-0.503-0.41-0.914-0.913-0.914H10.603z"/>
			</g>
		</g>
		<g>
			<g>
				<path d="M22.54,24.751H9.697c-0.102,0-0.182-0.083-0.182-0.183c0-0.101,0.08-0.183,0.182-0.183H22.54
					c0.101,0,0.182,0.082,0.182,0.183C22.722,24.669,22.641,24.751,22.54,24.751z"/>
			</g>
		</g>
		<g>
			<g>
				<circle cx="16.118" cy="27.162" r="0.746"/>
			</g>
		</g>
		<g>
			<g>
				<g>
					<path d="M15.644,15.459L15.644,15.459c-0.03,0-0.059-0.006-0.085-0.021l0,0c-0.001,0-0.001,0-0.001,0v0h-0.001l0,0l0,0l0,0
						c0,0,0,0-0.001,0l0,0l0,0l0,0l0,0v-0.001c0,0,0,0.001-0.001,0l0,0c0,0,0-0.001-0.001-0.001l0,0l0,0c0,0,0,0-0.001,0l0,0l0,0
						l-0.001,0l0,0l0,0l0,0c-0.014-0.007-0.025-0.017-0.036-0.028l0,0l-1.503-1.478c-0.072-0.071-0.072-0.187-0.002-0.258
						s0.188-0.072,0.259-0.001l1.373,1.35l2.812-2.842c0.07-0.072,0.186-0.072,0.259-0.001c0.07,0.071,0.071,0.187,0.001,0.258
						l-2.94,2.972l0,0c-0.012,0.01-0.022,0.02-0.034,0.027l0,0c-0.001,0-0.001,0-0.001,0l0,0v0.001l0,0h-0.001c0,0,0.001,0,0,0
						h-0.001l0,0l0,0l-0.001,0l0,0l0,0h-0.001c0,0,0,0,0,0l0,0l0,0l0,0c-0.001,0-0.001,0-0.001,0l0,0v0l0,0
						C15.705,15.453,15.675,15.459,15.644,15.459z"/>
				</g>
			</g>
			<g>
				<g>
					<path d="M16.199,18.697h-0.162c-0.028,0-0.057-0.006-0.083-0.02c-2.247-1.152-4.007-4.626-4.007-7.91
						c0-0.101,0.081-0.182,0.182-0.182c1.926,0,3.875-1.175,3.895-1.187c0.058-0.035,0.132-0.035,0.191,0
						c0.019,0.012,1.971,1.187,3.892,1.187c0.102,0,0.184,0.081,0.184,0.182c0,3.284-1.761,6.758-4.007,7.91
						C16.257,18.691,16.228,18.697,16.199,18.697z M16.082,18.332h0.073c2.076-1.094,3.707-4.3,3.769-7.384
						c-1.737-0.061-3.395-0.944-3.806-1.18c-0.413,0.236-2.068,1.12-3.806,1.18C12.374,14.032,14.005,17.238,16.082,18.332z"/>
				</g>
			</g>
		</g>
	</g>
</g>
</svg>
