<?xml version="1.0" encoding="utf-8"?>
<!-- Generator: Adobe Illustrator 16.0.0, SVG Export Plug-In . SVG Version: 6.00 Build 0)  -->
<!DOCTYPE svg PUBLIC "-//W3C//DTD SVG 1.1//EN" "http://www.w3.org/Graphics/SVG/1.1/DTD/svg11.dtd">
<svg version="1.1" id="Layer_1" xmlns="http://www.w3.org/2000/svg" xmlns:xlink="http://www.w3.org/1999/xlink" x="0px" y="0px"
	 width="48px" height="48px" viewBox="0 0 48 48" enable-background="new 0 0 48 48" xml:space="preserve">
<g>
	<g>
		<path d="M26.736,17.283h-5.473c-0.113,0-0.204-0.091-0.204-0.204v-3.528c0-0.113,0.091-0.205,0.204-0.205h5.473
			c0.113,0,0.205,0.092,0.205,0.205v3.528C26.941,17.191,26.849,17.283,26.736,17.283z M21.467,16.874h5.065v-3.12h-5.065V16.874z"
			/>
	</g>
	<g>
		<g>
			<path d="M19.915,29.768h-4.083c-0.113,0-0.204-0.091-0.204-0.204v-4.083c0-0.113,0.091-0.204,0.204-0.204h4.083
				c0.113,0,0.204,0.091,0.204,0.204v4.083C20.119,29.677,20.027,29.768,19.915,29.768z M16.036,29.359h3.674v-3.674h-3.674V29.359z
				"/>
		</g>
		<g>
			<path d="M26.041,29.768h-4.083c-0.113,0-0.204-0.091-0.204-0.204v-4.083c0-0.113,0.091-0.204,0.204-0.204h4.083
				c0.113,0,0.203,0.091,0.203,0.204v4.083C26.244,29.677,26.153,29.768,26.041,29.768z M22.162,29.359h3.674v-3.674h-3.674V29.359z
				"/>
		</g>
		<g>
			<path d="M32.167,29.768h-4.082c-0.113,0-0.205-0.091-0.205-0.204v-4.083c0-0.113,0.092-0.204,0.205-0.204h4.082
				c0.112,0,0.203,0.091,0.203,0.204v4.083C32.37,29.677,32.279,29.768,32.167,29.768z M28.289,29.359h3.674v-3.674h-3.674V29.359z"
				/>
		</g>
	</g>
	<g>
		<path d="M24,25.19c-0.113,0-0.205-0.09-0.205-0.203v-7.908c0-0.113,0.092-0.205,0.205-0.205s0.204,0.092,0.204,0.205v7.908
			C24.204,25.1,24.113,25.19,24,25.19z"/>
	</g>
	<g>
		<path d="M30.086,25.686c-0.113,0-0.204-0.091-0.204-0.204v-4.248H18.118v4.248c0,0.113-0.091,0.204-0.204,0.204
			s-0.204-0.091-0.204-0.204V21.03c0-0.113,0.091-0.204,0.204-0.204h12.172c0.113,0,0.203,0.091,0.203,0.204v4.452
			C30.289,25.594,30.199,25.686,30.086,25.686z"/>
	</g>
	<g>
		<path d="M35.421,42.723H12.578c-0.787,0-1.428-0.641-1.428-1.428V8.298c0-0.788,0.641-1.428,1.428-1.428h22.843
			c0.788,0,1.428,0.641,1.428,1.428v32.997C36.85,42.083,36.209,42.723,35.421,42.723z M12.578,7.278c-0.562,0-1.02,0.458-1.02,1.02
			v32.997c0,0.562,0.458,1.02,1.02,1.02h22.843c0.562,0,1.02-0.458,1.02-1.02V8.298c0-0.562-0.458-1.02-1.02-1.02H12.578z"/>
	</g>
	<g>
		<circle cx="24" cy="39.743" r="0.925"/>
	</g>
	<g>
		<path d="M36.453,36.572H11.546c-0.113,0-0.204-0.091-0.204-0.204s0.091-0.204,0.204-0.204h24.907c0.113,0,0.203,0.091,0.203,0.204
			S36.566,36.572,36.453,36.572z"/>
	</g>
</g>
</svg>
