<?xml version="1.0" encoding="utf-8"?>
<!-- Generator: Adobe Illustrator 16.0.0, SVG Export Plug-In . SVG Version: 6.00 Build 0)  -->
<!DOCTYPE svg PUBLIC "-//W3C//DTD SVG 1.1//EN" "http://www.w3.org/Graphics/SVG/1.1/DTD/svg11.dtd">
<svg version="1.1" id="Layer_1" xmlns="http://www.w3.org/2000/svg" xmlns:xlink="http://www.w3.org/1999/xlink" x="0px" y="0px"
	 width="48px" height="48px" viewBox="0 0 48 48" enable-background="new 0 0 48 48" xml:space="preserve">
<g>
	<g>
		<path d="M25.872,19.15h-3.744c-0.113,0-0.204-0.092-0.204-0.205v-2.415c0-0.113,0.091-0.204,0.204-0.204h3.744
			c0.113,0,0.205,0.091,0.205,0.204v2.415C26.076,19.059,25.984,19.15,25.872,19.15z M22.332,18.742h3.337v-2.006h-3.337V18.742z"/>
	</g>
	<g>
		<g>
			<path d="M21.205,27.691h-2.792c-0.113,0-0.204-0.091-0.204-0.204v-2.792c0-0.113,0.091-0.204,0.204-0.204h2.792
				c0.113,0,0.205,0.091,0.205,0.204v2.792C21.409,27.6,21.317,27.691,21.205,27.691z M18.617,27.283H21v-2.384h-2.383V27.283z"/>
		</g>
		<g>
			<path d="M25.396,27.691h-2.793c-0.113,0-0.203-0.091-0.203-0.204v-2.792c0-0.113,0.09-0.204,0.203-0.204h2.793
				c0.113,0,0.204,0.091,0.204,0.204v2.792C25.6,27.6,25.509,27.691,25.396,27.691z M22.808,27.283h2.384v-2.384h-2.384V27.283z"/>
		</g>
		<g>
			<path d="M29.588,27.691h-2.793c-0.113,0-0.204-0.091-0.204-0.204v-2.792c0-0.113,0.091-0.204,0.204-0.204h2.793
				c0.112,0,0.204,0.091,0.204,0.204v2.792C29.792,27.6,29.701,27.691,29.588,27.691z M27,27.283h2.384v-2.384H27V27.283z"/>
		</g>
	</g>
	<g>
		<path d="M24,24.562c-0.113,0-0.204-0.091-0.204-0.204v-5.413c0-0.113,0.091-0.204,0.204-0.204s0.204,0.091,0.204,0.204v5.413
			C24.204,24.472,24.113,24.562,24,24.562z"/>
	</g>
	<g>
		<path d="M28.165,24.899c-0.113,0-0.204-0.091-0.204-0.204v-2.841h-7.92v2.841c0,0.113-0.092,0.204-0.205,0.204
			s-0.204-0.091-0.204-0.204V21.65c0-0.113,0.091-0.203,0.204-0.203h8.328c0.113,0,0.204,0.09,0.204,0.203v3.045
			C28.369,24.808,28.277,24.899,28.165,24.899z"/>
	</g>
	<g>
		<circle cx="24" cy="39.015" r="1.06"/>
	</g>
	<g>
		<path d="M30.99,42.042H17.01c-0.787,0-1.427-0.641-1.427-1.427V8.978c0-0.788,0.641-1.428,1.427-1.428H30.99
			c0.787,0,1.427,0.641,1.427,1.428v31.636C32.417,41.401,31.776,42.042,30.99,42.042z M17.01,7.958c-0.562,0-1.02,0.458-1.02,1.02
			v31.636c0,0.562,0.458,1.02,1.02,1.02H30.99c0.562,0,1.02-0.458,1.02-1.02V8.978c0-0.562-0.458-1.02-1.02-1.02H17.01z"/>
	</g>
	<g>
		<path d="M31.978,35.816H16.023c-0.113,0-0.203-0.092-0.203-0.205s0.09-0.204,0.203-0.204h15.955c0.113,0,0.203,0.091,0.203,0.204
			S32.091,35.816,31.978,35.816z"/>
	</g>
</g>
</svg>
