<?xml version="1.0" encoding="utf-8"?>
<!-- Generator: Adobe Illustrator 16.0.0, SVG Export Plug-In . SVG Version: 6.00 Build 0)  -->
<!DOCTYPE svg PUBLIC "-//W3C//DTD SVG 1.1//EN" "http://www.w3.org/Graphics/SVG/1.1/DTD/svg11.dtd">
<svg version="1.1" id="Layer_1" xmlns="http://www.w3.org/2000/svg" xmlns:xlink="http://www.w3.org/1999/xlink" x="0px" y="0px"
	 width="48px" height="48px" viewBox="0 0 48 48" enable-background="new 0 0 48 48" xml:space="preserve">
<g>
	<g>
		<g>
			<path d="M24.904,22.414h-3.441c-0.113,0-0.205-0.09-0.205-0.203v-2.04c0-0.113,0.092-0.203,0.205-0.203h3.441
				c0.113,0,0.204,0.09,0.204,0.203v2.04C25.108,22.323,25.017,22.414,24.904,22.414z M21.667,22.006H24.7v-1.631h-3.034V22.006z"/>
		</g>
		<g>
			<g>
				<path d="M20.615,29.626h-2.566c-0.113,0-0.205-0.09-0.205-0.203v-2.359c0-0.113,0.092-0.204,0.205-0.204h2.566
					c0.113,0,0.204,0.091,0.204,0.204v2.359C20.819,29.536,20.728,29.626,20.615,29.626z M18.251,29.219h2.159v-1.951h-2.159V29.219
					z"/>
			</g>
			<g>
				<path d="M24.466,29.626H21.9c-0.113,0-0.205-0.09-0.205-0.203v-2.359c0-0.113,0.092-0.204,0.205-0.204h2.566
					c0.112,0,0.203,0.091,0.203,0.204v2.359C24.669,29.536,24.578,29.626,24.466,29.626z M22.104,29.219h2.158v-1.951h-2.158V29.219
					z"/>
			</g>
			<g>
				<path d="M28.317,29.626h-2.566c-0.113,0-0.204-0.09-0.204-0.203v-2.359c0-0.113,0.091-0.204,0.204-0.204h2.566
					c0.113,0,0.204,0.091,0.204,0.204v2.359C28.521,29.536,28.43,29.626,28.317,29.626z M25.955,29.219h2.159v-1.951h-2.159V29.219z
					"/>
			</g>
		</g>
		<g>
			<path d="M23.184,26.982c-0.113,0-0.204-0.09-0.204-0.203V22.21c0-0.113,0.091-0.205,0.204-0.205s0.204,0.092,0.204,0.205v4.569
				C23.387,26.892,23.296,26.982,23.184,26.982z"/>
		</g>
		<g>
			<path d="M27.01,27.268c-0.113,0-0.204-0.091-0.204-0.204v-2.368h-7.247v2.368c0,0.113-0.091,0.204-0.204,0.204
				s-0.204-0.091-0.204-0.204v-2.572c0-0.113,0.091-0.204,0.204-0.204h7.655c0.113,0,0.204,0.091,0.204,0.204v2.572
				C27.214,27.177,27.123,27.268,27.01,27.268z"/>
		</g>
	</g>
	<g>
		<g>
			<path d="M28.515,33.545H17.852c-1.237,0-2.244-1.006-2.244-2.244V18.291c0-1.238,1.007-2.244,2.244-2.244h10.663
				c1.237,0,2.244,1.006,2.244,2.244v13.011C30.758,32.54,29.751,33.545,28.515,33.545z M17.852,16.455
				c-1.012,0-1.836,0.824-1.836,1.836v13.011c0,1.012,0.824,1.836,1.836,1.836h10.663c1.012,0,1.836-0.824,1.836-1.836V18.291
				c0-1.012-0.824-1.836-1.836-1.836H17.852z"/>
		</g>
		<g>
			<path d="M32.188,23.008c-0.113,0-0.205-0.091-0.205-0.204v-2.839c0-0.113,0.092-0.205,0.205-0.205s0.203,0.092,0.203,0.205v2.839
				C32.392,22.917,32.301,23.008,32.188,23.008z"/>
		</g>
		<g>
			<path d="M27.83,14.782c-0.113,0-0.205-0.091-0.205-0.204v-3.251c0-0.337-0.274-0.612-0.612-0.612h-7.66
				c-0.337,0-0.612,0.274-0.612,0.612v3.251c0,0.113-0.092,0.204-0.205,0.204s-0.203-0.091-0.203-0.204v-3.251
				c0-0.562,0.458-1.02,1.02-1.02h7.66c0.563,0,1.02,0.458,1.02,1.02v3.251C28.033,14.691,27.942,14.782,27.83,14.782z"/>
		</g>
		<g>
			<path d="M27.013,39.287h-7.66c-0.562,0-1.02-0.458-1.02-1.02v-3.251c0-0.113,0.09-0.205,0.203-0.205s0.205,0.092,0.205,0.205
				v3.251c0,0.337,0.274,0.612,0.612,0.612h7.66c0.337,0,0.612-0.274,0.612-0.612v-3.251c0-0.113,0.092-0.205,0.205-0.205
				s0.203,0.092,0.203,0.205v3.251C28.033,38.829,27.576,39.287,27.013,39.287z"/>
		</g>
	</g>
</g>
</svg>
