<?xml version="1.0" encoding="utf-8"?>
<!-- Generator: Adobe Illustrator 16.0.0, SVG Export Plug-In . SVG Version: 6.00 Build 0)  -->
<!DOCTYPE svg PUBLIC "-//W3C//DTD SVG 1.1//EN" "http://www.w3.org/Graphics/SVG/1.1/DTD/svg11.dtd">
<svg version="1.1" id="Layer_1" xmlns="http://www.w3.org/2000/svg" xmlns:xlink="http://www.w3.org/1999/xlink" x="0px" y="0px"
	 width="48px" height="48px" viewBox="0 0 48 48" enable-background="new 0 0 48 48" xml:space="preserve">
<g>
	<g>
		<g>
			<path d="M26.541,18.782h-5.08c-0.113,0-0.203-0.091-0.203-0.204v-2.349c0-0.113,0.09-0.204,0.203-0.204h5.08
				c0.113,0,0.205,0.091,0.205,0.204v2.349C26.745,18.691,26.653,18.782,26.541,18.782z M21.665,18.375h4.672v-1.941h-4.672V18.375z
				"/>
		</g>
		<g>
			<g>
				<path d="M20.209,27.087h-3.788c-0.113,0-0.204-0.091-0.204-0.204v-2.715c0-0.113,0.091-0.203,0.204-0.203h3.788
					c0.113,0,0.204,0.09,0.204,0.203v2.715C20.413,26.996,20.322,27.087,20.209,27.087z M16.625,26.679h3.38v-2.307h-3.38V26.679z"
					/>
			</g>
			<g>
				<path d="M25.895,27.087h-3.787c-0.113,0-0.205-0.091-0.205-0.204v-2.715c0-0.113,0.092-0.203,0.205-0.203h3.787
					c0.113,0,0.203,0.09,0.203,0.203v2.715C26.098,26.996,26.007,27.087,25.895,27.087z M22.311,26.679h3.379v-2.307h-3.379V26.679z
					"/>
			</g>
			<g>
				<path d="M31.579,27.087h-3.787c-0.113,0-0.205-0.091-0.205-0.204v-2.715c0-0.113,0.092-0.203,0.205-0.203h3.787
					c0.113,0,0.205,0.09,0.205,0.203v2.715C31.784,26.996,31.692,27.087,31.579,27.087z M27.997,26.679h3.378v-2.307h-3.378V26.679z
					"/>
			</g>
		</g>
		<g>
			<path d="M23.999,24.042c-0.113,0-0.203-0.092-0.203-0.205v-5.259c0-0.113,0.09-0.204,0.203-0.204s0.205,0.091,0.205,0.204v5.259
				C24.204,23.95,24.112,24.042,23.999,24.042z"/>
		</g>
		<g>
			<path d="M29.649,24.372c-0.113,0-0.204-0.092-0.204-0.205v-2.757h-10.89v2.757c0,0.113-0.09,0.205-0.203,0.205
				s-0.205-0.092-0.205-0.205v-2.961c0-0.113,0.092-0.205,0.205-0.205h11.296c0.113,0,0.204,0.092,0.204,0.205v2.961
				C29.853,24.28,29.762,24.372,29.649,24.372z"/>
		</g>
	</g>
	<g>
		<g>
			<path d="M38.099,33.63H9.902c-0.788,0-1.428-0.641-1.428-1.428V13.086c0-0.787,0.641-1.427,1.428-1.427h28.196
				c0.787,0,1.427,0.641,1.427,1.427v19.116C39.526,32.989,38.885,33.63,38.099,33.63z M9.902,12.067c-0.562,0-1.02,0.458-1.02,1.02
				v19.116c0,0.562,0.458,1.02,1.02,1.02h28.196c0.562,0,1.02-0.458,1.02-1.02V13.086c0-0.562-0.458-1.02-1.02-1.02H9.902z"/>
		</g>
		<g>
			<path d="M39.323,31.241H8.678c-0.113,0-0.204-0.091-0.204-0.204s0.091-0.205,0.204-0.205h30.645c0.113,0,0.203,0.092,0.203,0.205
				S39.436,31.241,39.323,31.241z"/>
		</g>
		<g>
			<g>
				<path d="M17.902,37.649c-0.044,0-0.088-0.015-0.126-0.043c-0.089-0.068-0.104-0.197-0.035-0.286l3.12-4.027
					c0.069-0.088,0.197-0.105,0.286-0.037c0.09,0.069,0.105,0.198,0.036,0.287l-3.12,4.027
					C18.023,37.622,17.962,37.649,17.902,37.649z"/>
			</g>
			<g>
				<path d="M30.099,37.649c-0.062,0-0.122-0.028-0.162-0.08l-3.121-4.027c-0.069-0.089-0.052-0.217,0.036-0.287
					c0.089-0.068,0.217-0.052,0.287,0.037l3.121,4.027c0.069,0.089,0.053,0.217-0.037,0.286
					C30.187,37.635,30.143,37.649,30.099,37.649z"/>
			</g>
		</g>
		<g>
			<path d="M32.509,37.934H15.493c-0.113,0-0.204-0.091-0.204-0.204s0.091-0.205,0.204-0.205h17.017
				c0.113,0,0.203,0.092,0.203,0.205S32.622,37.934,32.509,37.934z"/>
		</g>
	</g>
</g>
</svg>
