<?xml version="1.0" encoding="utf-8"?>
<!-- Generator: Adobe Illustrator 16.0.0, SVG Export Plug-In . SVG Version: 6.00 Build 0)  -->
<!DOCTYPE svg PUBLIC "-//W3C//DTD SVG 1.1//EN" "http://www.w3.org/Graphics/SVG/1.1/DTD/svg11.dtd">
<svg version="1.1" id="Layer_1" xmlns="http://www.w3.org/2000/svg" xmlns:xlink="http://www.w3.org/1999/xlink" x="0px" y="0px"
	 width="48px" height="48px" viewBox="0 0 48 48" enable-background="new 0 0 48 48" xml:space="preserve">
<g>
	<g>
		<g>
			<path d="M26.536,18.328h-5.079c-0.113,0-0.204-0.092-0.204-0.205v-2.348c0-0.113,0.091-0.204,0.204-0.204h5.079
				c0.112,0,0.204,0.091,0.204,0.204v2.348C26.74,18.236,26.648,18.328,26.536,18.328z M21.66,17.92h4.673v-1.94H21.66V17.92z"/>
		</g>
		<g>
			<g>
				<path d="M20.205,26.634h-3.788c-0.112,0-0.204-0.092-0.204-0.205v-2.717c0-0.113,0.092-0.204,0.204-0.204h3.788
					c0.112,0,0.203,0.091,0.203,0.204v2.717C20.408,26.542,20.317,26.634,20.205,26.634z M16.622,26.226h3.379v-2.309h-3.379V26.226
					z"/>
			</g>
			<g>
				<path d="M25.89,26.634h-3.787c-0.113,0-0.205-0.092-0.205-0.205v-2.717c0-0.113,0.092-0.204,0.205-0.204h3.787
					c0.113,0,0.204,0.091,0.204,0.204v2.717C26.094,26.542,26.003,26.634,25.89,26.634z M22.307,26.226h3.38v-2.309h-3.38V26.226z"
					/>
			</g>
			<g>
				<path d="M31.574,26.634h-3.787c-0.113,0-0.204-0.092-0.204-0.205v-2.717c0-0.113,0.091-0.204,0.204-0.204h3.787
					c0.113,0,0.204,0.091,0.204,0.204v2.717C31.778,26.542,31.688,26.634,31.574,26.634z M27.991,26.226h3.38v-2.309h-3.38V26.226z"
					/>
			</g>
		</g>
		<g>
			<path d="M23.995,23.589c-0.112,0-0.203-0.092-0.203-0.205v-5.261c0-0.112,0.091-0.203,0.203-0.203
				c0.113,0,0.205,0.091,0.205,0.203v5.261C24.2,23.497,24.108,23.589,23.995,23.589z"/>
		</g>
		<g>
			<path d="M29.644,23.917c-0.113,0-0.205-0.091-0.205-0.204v-2.756H18.552v2.756c0,0.113-0.091,0.204-0.204,0.204
				c-0.112,0-0.203-0.091-0.203-0.204v-2.96c0-0.112,0.091-0.204,0.203-0.204h11.296c0.112,0,0.204,0.092,0.204,0.204v2.96
				C29.848,23.826,29.756,23.917,29.644,23.917z"/>
		</g>
	</g>
	<g>
		<g>
			<path d="M38.093,33.347H9.898c-0.787,0-1.428-0.641-1.428-1.428V12.805c0-0.787,0.641-1.428,1.428-1.428h28.194
				c0.788,0,1.429,0.641,1.429,1.428v19.114C39.521,32.706,38.881,33.347,38.093,33.347z M9.898,11.784
				c-0.562,0-1.021,0.458-1.021,1.021v19.114c0,0.563,0.458,1.02,1.021,1.02h28.194c0.563,0,1.021-0.457,1.021-1.02V12.805
				c0-0.562-0.457-1.021-1.021-1.021H9.898z"/>
		</g>
		<g>
			<path d="M42.073,38.218c-0.003,0-0.006,0-0.009,0H5.927c-0.079,0-0.151-0.046-0.186-0.118c-0.033-0.072-0.021-0.156,0.029-0.217
				l2.682-3.177c0.038-0.046,0.096-0.072,0.156-0.072h30.775c0.06,0,0.117,0.026,0.156,0.072l2.652,3.143
				c0.051,0.037,0.085,0.097,0.085,0.166C42.277,38.126,42.186,38.218,42.073,38.218z M6.366,37.811h35.26l-2.337-2.77H8.703
				L6.366,37.811z"/>
		</g>
		<g>
			<path d="M39.317,30.956H8.675c-0.113,0-0.204-0.09-0.204-0.203s0.091-0.205,0.204-0.205h30.643c0.112,0,0.204,0.092,0.204,0.205
				S39.43,30.956,39.317,30.956z"/>
		</g>
	</g>
</g>
</svg>
