<?xml version="1.0" encoding="utf-8"?>
<!-- Generator: Adobe Illustrator 16.0.0, SVG Export Plug-In . SVG Version: 6.00 Build 0)  -->
<!DOCTYPE svg PUBLIC "-//W3C//DTD SVG 1.1//EN" "http://www.w3.org/Graphics/SVG/1.1/DTD/svg11.dtd">
<svg version="1.1" id="Layer_1" xmlns="http://www.w3.org/2000/svg" xmlns:xlink="http://www.w3.org/1999/xlink" x="0px" y="0px"
	 width="32px" height="32px" viewBox="0 0 32 32" enable-background="new 0 0 32 32" xml:space="preserve">
<g>
	<g>
		<g>
			<g>
				<path d="M12.697,13.937c-0.031,0-0.062-0.009-0.088-0.029c-0.064-0.049-0.078-0.141-0.029-0.205
					c0.045-0.06,1.141-1.481,3.449-1.481c2.311,0,3.35,1.425,3.393,1.485c0.047,0.065,0.031,0.156-0.035,0.204
					c-0.064,0.046-0.156,0.031-0.203-0.035c-0.01-0.013-1.002-1.361-3.154-1.361c-2.156,0-3.205,1.352-3.215,1.365
					C12.785,13.916,12.74,13.937,12.697,13.937z"/>
			</g>
			<g>
				<path d="M13.51,15.075c-0.031,0-0.062-0.01-0.09-0.029c-0.062-0.049-0.076-0.14-0.027-0.205
					c0.035-0.046,0.873-1.132,2.631-1.132s2.553,1.089,2.584,1.136c0.047,0.065,0.031,0.156-0.033,0.203s-0.156,0.031-0.205-0.033
					c-0.006-0.011-0.746-1.013-2.346-1.013c-1.605,0-2.391,1.005-2.398,1.016C13.598,15.056,13.553,15.075,13.51,15.075z"/>
			</g>
			<g>
				<path d="M17.266,16.124c-0.047,0-0.092-0.021-0.121-0.062c-0.014-0.019-0.361-0.483-1.135-0.483
					c-0.775,0-1.145,0.468-1.158,0.487c-0.049,0.064-0.141,0.077-0.205,0.027c-0.064-0.048-0.076-0.139-0.029-0.204
					c0.02-0.023,0.465-0.604,1.393-0.604c0.93,0,1.357,0.582,1.373,0.607c0.049,0.065,0.033,0.157-0.033,0.203
					C17.324,16.116,17.295,16.124,17.266,16.124z"/>
			</g>
		</g>
		<g>
			<circle cx="15.999" cy="16.919" r="0.313"/>
		</g>
	</g>
	<g>
		<circle cx="16" cy="26.192" r="0.76"/>
	</g>
	<g>
		<path d="M21.01,28.362H10.99c-0.564,0-1.023-0.46-1.023-1.023V4.661c0-0.564,0.459-1.023,1.023-1.023h10.02
			c0.564,0,1.023,0.459,1.023,1.023v22.678C22.033,27.902,21.574,28.362,21.01,28.362z M10.99,3.931
			c-0.404,0-0.732,0.328-0.732,0.73v22.678c0,0.402,0.328,0.73,0.732,0.73h10.02c0.404,0,0.73-0.328,0.73-0.73V4.661
			c0-0.402-0.326-0.73-0.73-0.73H10.99z"/>
	</g>
	<g>
		<path d="M21.717,23.898H10.281c-0.08,0-0.145-0.065-0.145-0.146c0-0.081,0.064-0.146,0.145-0.146h11.436
			c0.08,0,0.146,0.065,0.146,0.146C21.863,23.833,21.797,23.898,21.717,23.898z"/>
	</g>
</g>
</svg>
