<?xml version="1.0" encoding="utf-8"?>
<!-- Generator: Adobe Illustrator 16.0.0, SVG Export Plug-In . SVG Version: 6.00 Build 0)  -->
<!DOCTYPE svg PUBLIC "-//W3C//DTD SVG 1.1//EN" "http://www.w3.org/Graphics/SVG/1.1/DTD/svg11.dtd">
<svg version="1.1" id="Layer_1" xmlns="http://www.w3.org/2000/svg" xmlns:xlink="http://www.w3.org/1999/xlink" x="0px" y="0px"
	 width="32px" height="32px" viewBox="0 0 32 32" enable-background="new 0 0 32 32" xml:space="preserve">
<g>
	<g>
		<g>
			<g>
				<path d="M10.684,12.407c-0.031,0-0.061-0.01-0.088-0.029c-0.064-0.049-0.076-0.141-0.027-0.205
					c0.072-0.096,1.811-2.35,5.48-2.35c3.672,0,5.318,2.257,5.387,2.354c0.047,0.065,0.031,0.156-0.035,0.203
					c-0.064,0.047-0.156,0.032-0.203-0.034c-0.016-0.022-1.635-2.229-5.148-2.229c-3.518,0-5.23,2.211-5.248,2.233
					C10.771,12.388,10.729,12.407,10.684,12.407z"/>
			</g>
			<g>
				<path d="M11.992,14.239c-0.029,0-0.061-0.01-0.086-0.03c-0.066-0.048-0.078-0.14-0.029-0.204
					c0.055-0.072,1.375-1.785,4.16-1.785s4.039,1.715,4.09,1.788c0.047,0.066,0.031,0.157-0.033,0.204
					c-0.066,0.047-0.158,0.032-0.205-0.034c-0.012-0.017-1.223-1.666-3.852-1.666c-2.633,0-3.916,1.652-3.928,1.669
					C12.08,14.219,12.037,14.239,11.992,14.239z"/>
			</g>
			<g>
				<path d="M13.967,15.926c-0.031,0-0.062-0.009-0.088-0.028c-0.064-0.049-0.078-0.141-0.029-0.205
					c0.027-0.038,0.719-0.936,2.17-0.936c1.453,0,2.107,0.899,2.137,0.938c0.045,0.065,0.031,0.156-0.035,0.204
					c-0.066,0.046-0.156,0.031-0.205-0.034c-0.023-0.033-0.602-0.815-1.896-0.815c-1.307,0-1.93,0.81-1.936,0.818
					C14.055,15.906,14.01,15.926,13.967,15.926z"/>
			</g>
		</g>
		<g>
			<circle cx="16" cy="17.298" r="0.506"/>
		</g>
	</g>
	<g>
		<g>
			<path d="M26.105,22.332H5.893c-0.562,0-1.021-0.459-1.021-1.023V7.607c0-0.565,0.459-1.024,1.021-1.024h20.213
				c0.564,0,1.023,0.459,1.023,1.024v13.701C27.129,21.873,26.67,22.332,26.105,22.332z M5.893,6.876
				c-0.402,0-0.73,0.327-0.73,0.731v13.701c0,0.403,0.328,0.731,0.73,0.731h20.213c0.404,0,0.732-0.328,0.732-0.731V7.607
				c0-0.404-0.328-0.731-0.732-0.731H5.893z"/>
		</g>
		<g>
			<path d="M26.982,20.62H5.016c-0.08,0-0.145-0.066-0.145-0.146c0-0.081,0.064-0.146,0.145-0.146h21.967
				c0.082,0,0.146,0.065,0.146,0.146C27.129,20.554,27.064,20.62,26.982,20.62z"/>
		</g>
		<g>
			<g>
				<path d="M11.629,25.213c-0.031,0-0.062-0.01-0.09-0.03c-0.064-0.05-0.076-0.142-0.025-0.205l2.236-2.887
					c0.051-0.063,0.143-0.075,0.205-0.026c0.064,0.05,0.076,0.142,0.027,0.205l-2.238,2.887
					C11.715,25.194,11.672,25.213,11.629,25.213z"/>
			</g>
			<g>
				<path d="M20.369,25.213c-0.043,0-0.086-0.019-0.115-0.057L18.02,22.27c-0.049-0.064-0.037-0.156,0.027-0.205
					c0.062-0.049,0.154-0.037,0.205,0.026l2.234,2.887c0.049,0.063,0.037,0.155-0.027,0.205
					C20.434,25.203,20.4,25.213,20.369,25.213z"/>
			</g>
		</g>
		<g>
			<path d="M22.102,25.417H9.9c-0.08,0-0.146-0.065-0.146-0.146c0-0.081,0.066-0.147,0.146-0.147h12.201
				c0.08,0,0.145,0.066,0.145,0.147C22.246,25.352,22.182,25.417,22.102,25.417z"/>
		</g>
	</g>
</g>
</svg>
