<?xml version="1.0" encoding="utf-8"?>
<!-- Generator: Adobe Illustrator 16.0.0, SVG Export Plug-In . SVG Version: 6.00 Build 0)  -->
<!DOCTYPE svg PUBLIC "-//W3C//DTD SVG 1.1//EN" "http://www.w3.org/Graphics/SVG/1.1/DTD/svg11.dtd">
<svg version="1.1" id="Layer_1" xmlns="http://www.w3.org/2000/svg" xmlns:xlink="http://www.w3.org/1999/xlink" x="0px" y="0px"
	 width="32px" height="32px" viewBox="0 0 32 32" enable-background="new 0 0 32 32" xml:space="preserve">
<g>
	<g>
		<g>
			<path d="M10.684,12.732c-0.031,0-0.061-0.01-0.088-0.029c-0.064-0.049-0.078-0.141-0.029-0.205
				c0.072-0.096,1.811-2.351,5.482-2.351c3.67,0,5.318,2.258,5.387,2.354c0.047,0.066,0.031,0.157-0.033,0.204
				c-0.066,0.046-0.158,0.032-0.205-0.034c-0.016-0.022-1.635-2.23-5.148-2.23c-3.527,0-5.23,2.211-5.248,2.234
				C10.771,12.713,10.729,12.732,10.684,12.732z"/>
		</g>
		<g>
			<path d="M11.992,14.563c-0.029,0-0.061-0.01-0.088-0.03c-0.064-0.048-0.076-0.14-0.029-0.204
				c0.057-0.072,1.377-1.784,4.162-1.784c2.787,0,4.039,1.715,4.092,1.787c0.045,0.066,0.031,0.157-0.035,0.204
				s-0.156,0.031-0.203-0.034c-0.012-0.017-1.225-1.665-3.854-1.665c-2.633,0-3.914,1.651-3.928,1.668
				C12.08,14.543,12.037,14.563,11.992,14.563z"/>
		</g>
		<g>
			<path d="M13.965,16.252c-0.031,0-0.062-0.01-0.088-0.029c-0.064-0.049-0.078-0.141-0.029-0.205
				c0.029-0.038,0.721-0.936,2.172-0.936c1.453,0,2.109,0.9,2.137,0.939c0.047,0.065,0.031,0.156-0.035,0.203
				c-0.064,0.047-0.156,0.032-0.203-0.034c-0.023-0.033-0.604-0.815-1.898-0.815c-1.299,0-1.912,0.786-1.939,0.819
				C14.053,16.231,14.008,16.252,13.965,16.252z"/>
		</g>
	</g>
	<g>
		<circle cx="16" cy="17.623" r="0.506"/>
	</g>
	<g>
		<path d="M24.188,28.85H7.814c-0.566,0-1.025-0.459-1.025-1.023V4.174c0-0.564,0.459-1.023,1.025-1.023h16.373
			c0.564,0,1.023,0.459,1.023,1.023v23.652C25.211,28.391,24.752,28.85,24.188,28.85z M7.814,3.442
			c-0.404,0-0.732,0.328-0.732,0.731v23.652c0,0.403,0.328,0.731,0.732,0.731h16.373c0.402,0,0.73-0.328,0.73-0.731V4.174
			c0-0.403-0.328-0.731-0.73-0.731H7.814z"/>
	</g>
	<g>
		<circle cx="16" cy="26.714" r="0.664"/>
	</g>
	<g>
		<path d="M24.928,24.441H7.074c-0.08,0-0.146-0.065-0.146-0.146s0.066-0.146,0.146-0.146h17.854c0.08,0,0.146,0.065,0.146,0.146
			S25.008,24.441,24.928,24.441z"/>
	</g>
</g>
</svg>
