<?xml version="1.0" encoding="utf-8"?>
<!-- Generator: Adobe Illustrator 16.0.0, SVG Export Plug-In . SVG Version: 6.00 Build 0)  -->
<!DOCTYPE svg PUBLIC "-//W3C//DTD SVG 1.1//EN" "http://www.w3.org/Graphics/SVG/1.1/DTD/svg11.dtd">
<svg version="1.1" id="Layer_1" xmlns="http://www.w3.org/2000/svg" xmlns:xlink="http://www.w3.org/1999/xlink" x="0px" y="0px"
	 width="32px" height="32px" viewBox="0 0 32 32" enable-background="new 0 0 32 32" xml:space="preserve">
<g>
	<g>
		<g>
			<g>
				<path d="M11.863,14.232c-0.031,0-0.062-0.01-0.088-0.029c-0.066-0.049-0.078-0.14-0.029-0.205
					c0.049-0.064,1.225-1.59,3.703-1.59s3.592,1.528,3.639,1.594c0.045,0.065,0.031,0.156-0.035,0.203s-0.156,0.032-0.203-0.033
					c-0.012-0.015-1.08-1.472-3.4-1.472c-2.328,0-3.459,1.459-3.471,1.474C11.949,14.213,11.906,14.232,11.863,14.232z"/>
			</g>
			<g>
				<path d="M12.736,15.457c-0.031,0-0.062-0.01-0.088-0.03c-0.066-0.048-0.078-0.14-0.029-0.204
					c0.037-0.049,0.938-1.213,2.82-1.213c1.889,0,2.738,1.167,2.773,1.216c0.047,0.066,0.031,0.157-0.035,0.204
					c-0.064,0.047-0.156,0.031-0.203-0.034c-0.008-0.011-0.803-1.094-2.535-1.094s-2.578,1.087-2.588,1.097
					C12.822,15.437,12.779,15.457,12.736,15.457z"/>
			</g>
			<g>
				<path d="M16.777,16.586c-0.047,0-0.092-0.021-0.119-0.062c-0.016-0.021-0.393-0.526-1.23-0.526c-0.85,0-1.254,0.524-1.258,0.53
					c-0.049,0.063-0.141,0.077-0.205,0.028s-0.076-0.141-0.027-0.205c0.02-0.026,0.498-0.646,1.49-0.646
					c0.996,0,1.449,0.623,1.469,0.649c0.047,0.065,0.031,0.156-0.035,0.203C16.836,16.577,16.807,16.586,16.777,16.586z"/>
			</g>
		</g>
		<g>
			<circle cx="15.414" cy="17.452" r="0.338"/>
		</g>
	</g>
	<g>
		<g>
			<path d="M19.236,21.281h-7.643c-0.887,0-1.609-0.722-1.609-1.608v-9.327c0-0.887,0.723-1.608,1.609-1.608h7.643
				c0.887,0,1.609,0.722,1.609,1.608v9.327C20.846,20.56,20.123,21.281,19.236,21.281z M11.594,9.03
				c-0.727,0-1.316,0.59-1.316,1.315v9.327c0,0.726,0.59,1.316,1.316,1.316h7.643c0.727,0,1.316-0.591,1.316-1.316v-9.327
				c0-0.726-0.59-1.315-1.316-1.315H11.594z"/>
		</g>
		<g>
			<path d="M21.869,13.728c-0.08,0-0.146-0.065-0.146-0.146v-2.035c0-0.081,0.066-0.146,0.146-0.146s0.146,0.065,0.146,0.146v2.035
				C22.016,13.662,21.949,13.728,21.869,13.728z"/>
		</g>
		<g>
			<path d="M18.746,7.832c-0.082,0-0.146-0.066-0.146-0.146V5.354c0-0.242-0.197-0.438-0.439-0.438h-5.49
				c-0.242,0-0.439,0.196-0.439,0.438v2.331c0,0.08-0.064,0.146-0.146,0.146c-0.08,0-0.146-0.066-0.146-0.146V5.354
				c0-0.403,0.328-0.73,0.732-0.73h5.49c0.402,0,0.73,0.327,0.73,0.73v2.331C18.891,7.766,18.826,7.832,18.746,7.832z"/>
		</g>
		<g>
			<path d="M18.16,25.396h-5.49c-0.404,0-0.732-0.328-0.732-0.731v-2.331c0-0.08,0.066-0.146,0.146-0.146
				c0.082,0,0.146,0.065,0.146,0.146v2.331c0,0.242,0.197,0.438,0.439,0.438h5.49c0.242,0,0.439-0.196,0.439-0.438v-2.331
				c0-0.08,0.064-0.146,0.146-0.146c0.08,0,0.145,0.065,0.145,0.146v2.331C18.891,25.068,18.562,25.396,18.16,25.396z"/>
		</g>
	</g>
</g>
</svg>
