<?xml version="1.0" encoding="utf-8"?>
<!-- Generator: Adobe Illustrator 16.0.0, SVG Export Plug-In . SVG Version: 6.00 Build 0)  -->
<!DOCTYPE svg PUBLIC "-//W3C//DTD SVG 1.1//EN" "http://www.w3.org/Graphics/SVG/1.1/DTD/svg11.dtd">
<svg version="1.1" id="Layer_1" xmlns="http://www.w3.org/2000/svg" xmlns:xlink="http://www.w3.org/1999/xlink" x="0px" y="0px"
	 width="32px" height="32px" viewBox="0 0 32 32" enable-background="new 0 0 32 32" xml:space="preserve">
<g>
	<g>
		<g>
			<g>
				<path d="M10.68,12.082c-0.029,0-0.061-0.01-0.086-0.03c-0.064-0.048-0.078-0.14-0.029-0.204c0.072-0.097,1.811-2.351,5.48-2.351
					c3.672,0,5.32,2.258,5.389,2.354c0.047,0.066,0.031,0.157-0.035,0.203c-0.064,0.048-0.156,0.032-0.203-0.033
					c-0.016-0.022-1.635-2.231-5.15-2.231c-3.518,0-5.23,2.212-5.248,2.234C10.77,12.062,10.725,12.082,10.68,12.082z"/>
			</g>
			<g>
				<path d="M11.99,13.913c-0.029,0-0.061-0.01-0.086-0.029c-0.064-0.049-0.078-0.141-0.029-0.205
					c0.055-0.073,1.375-1.785,4.158-1.785c2.787,0,4.039,1.716,4.09,1.789c0.047,0.065,0.031,0.156-0.033,0.203
					c-0.066,0.047-0.158,0.032-0.205-0.034c-0.012-0.017-1.221-1.665-3.852-1.665c-2.641,0-3.912,1.652-3.926,1.669
					C12.08,13.894,12.035,13.913,11.99,13.913z"/>
			</g>
			<g>
				<path d="M13.963,15.603c-0.031,0-0.062-0.01-0.09-0.029c-0.064-0.049-0.076-0.141-0.029-0.204
					c0.029-0.038,0.723-0.938,2.172-0.938c1.451,0,2.109,0.903,2.137,0.941c0.047,0.065,0.031,0.156-0.033,0.203
					c-0.066,0.048-0.158,0.032-0.203-0.033c-0.025-0.034-0.605-0.818-1.9-0.818c-1.299,0-1.912,0.788-1.938,0.821
					C14.049,15.582,14.006,15.603,13.963,15.603z"/>
			</g>
		</g>
		<g>
			<circle cx="15.998" cy="16.972" r="0.506"/>
		</g>
	</g>
	<g>
		<g>
			<path d="M26.104,22.129H5.893c-0.564,0-1.023-0.459-1.023-1.023V7.404c0-0.563,0.459-1.023,1.023-1.023h20.211
				c0.564,0,1.023,0.46,1.023,1.023v13.701C27.127,21.67,26.668,22.129,26.104,22.129z M5.893,6.674c-0.402,0-0.73,0.327-0.73,0.73
				v13.701c0,0.403,0.328,0.731,0.73,0.731h20.211c0.404,0,0.732-0.328,0.732-0.731V7.404c0-0.403-0.328-0.73-0.732-0.73H5.893z"/>
		</g>
		<g>
			<path d="M28.953,25.621c-0.002,0-0.004,0-0.006,0h-25.9c-0.057,0-0.107-0.033-0.133-0.085c-0.023-0.051-0.016-0.112,0.021-0.156
				l1.922-2.277c0.027-0.032,0.068-0.052,0.111-0.052h22.057c0.043,0,0.084,0.02,0.111,0.052l1.902,2.253
				c0.037,0.026,0.061,0.069,0.061,0.119C29.1,25.556,29.033,25.621,28.953,25.621z M3.361,25.329h25.271l-1.676-1.986H5.037
				L3.361,25.329z"/>
		</g>
		<g>
			<path d="M26.98,20.416H5.016c-0.08,0-0.146-0.065-0.146-0.146s0.066-0.146,0.146-0.146H26.98c0.082,0,0.146,0.065,0.146,0.146
				S27.062,20.416,26.98,20.416z"/>
		</g>
	</g>
</g>
</svg>
