<?xml version="1.0" encoding="utf-8"?>
<!-- Generator: Adobe Illustrator 16.0.0, SVG Export Plug-In . SVG Version: 6.00 Build 0)  -->
<!DOCTYPE svg PUBLIC "-//W3C//DTD SVG 1.1//EN" "http://www.w3.org/Graphics/SVG/1.1/DTD/svg11.dtd">
<svg version="1.1" id="Layer_1" xmlns="http://www.w3.org/2000/svg" xmlns:xlink="http://www.w3.org/1999/xlink" x="0px" y="0px"
	 width="128px" height="128px" viewBox="0 0 128 128" enable-background="new 0 0 128 128" xml:space="preserve">
<g>
	<g>
		<path fill="none" stroke="#000000" stroke-width="2" stroke-linecap="round" stroke-linejoin="round" stroke-miterlimit="10" d="
			M74.92,65.169c0,7.252-5.883,13.129-13.131,13.129c-7.256,0-13.133-5.877-13.133-13.129S54.533,52.04,61.789,52.04
			C69.037,52.04,74.92,57.917,74.92,65.169z"/>
		<g>
			
				<line fill="none" stroke="#000000" stroke-width="2" stroke-linecap="round" stroke-linejoin="round" stroke-miterlimit="10" x1="61.789" y1="57.46" x2="61.789" y2="68.065"/>
			
				<rect x="61.389" y="72.077" stroke="#000000" stroke-width="2" stroke-linecap="round" stroke-linejoin="round" stroke-miterlimit="10" width="0.799" height="0.799"/>
		</g>
	</g>
	<g>
		<g>
			<path d="M77.125,89.751H46.451c-3.309,0-6-2.691-6-6v-37.16c0-3.309,2.691-6,6-6h30.674c3.309,0,6,2.691,6,6v37.16
				C83.125,87.06,80.434,89.751,77.125,89.751z M46.451,42.591c-2.206,0-4,1.794-4,4v37.16c0,2.206,1.794,4,4,4h30.674
				c2.206,0,4-1.794,4-4v-37.16c0-2.206-1.794-4-4-4H46.451z"/>
		</g>
		<g>
			<path d="M86.631,60.673c-0.553,0-1-0.447-1-1v-7.834c0-0.553,0.447-1,1-1s1,0.447,1,1v7.834
				C87.631,60.226,87.184,60.673,86.631,60.673z"/>
		</g>
		<g>
			<path d="M74.609,37.976c-0.553,0-1-0.447-1-1v-9.223c0-0.552-0.448-1-1-1H50.969c-0.552,0-1,0.448-1,1v9.223c0,0.553-0.447,1-1,1
				s-1-0.447-1-1v-9.223c0-1.654,1.346-3,3-3h21.641c1.654,0,3,1.346,3,3v9.223C75.609,37.528,75.162,37.976,74.609,37.976z"/>
		</g>
		<g>
			<path d="M72.609,105.583H50.969c-1.654,0-3-1.346-3-3v-9.217c0-0.553,0.447-1,1-1s1,0.447,1,1v9.217c0,0.552,0.448,1,1,1h21.641
				c0.552,0,1-0.448,1-1v-9.217c0-0.553,0.447-1,1-1s1,0.447,1,1v9.217C75.609,104.237,74.264,105.583,72.609,105.583z"/>
		</g>
	</g>
</g>
</svg>
