<?xml version="1.0" encoding="utf-8"?>
<!-- Generator: Adobe Illustrator 16.0.0, SVG Export Plug-In . SVG Version: 6.00 Build 0)  -->
<!DOCTYPE svg PUBLIC "-//W3C//DTD SVG 1.1//EN" "http://www.w3.org/Graphics/SVG/1.1/DTD/svg11.dtd">
<svg version="1.1" id="Layer_1" xmlns="http://www.w3.org/2000/svg" xmlns:xlink="http://www.w3.org/1999/xlink" x="0px" y="0px"
	 width="128px" height="128px" viewBox="0 0 128 128" enable-background="new 0 0 128 128" xml:space="preserve">
<g>
	<g>
		<g>
			<path d="M64.037,81.04c-12.893,0-23.381-10.491-23.381-23.387c0-12.893,10.488-23.381,23.381-23.381
				c12.899,0,23.395,10.488,23.395,23.381C87.432,70.549,76.937,81.04,64.037,81.04z M64.037,36.272
				c-11.789,0-21.381,9.592-21.381,21.381c0,11.793,9.592,21.387,21.381,21.387c11.797,0,21.395-9.594,21.395-21.387
				C85.432,45.864,75.834,36.272,64.037,36.272z"/>
		</g>
		<g>
			<g>
				<path d="M64.037,63.593c-0.553,0-1-0.447-1-1V44.517c0-0.553,0.447-1,1-1s1,0.447,1,1v18.076
					C65.037,63.146,64.59,63.593,64.037,63.593z"/>
			</g>
			<g>
				<rect x="63.359" y="69.437" width="1.365" height="1.357"/>
				<path d="M64.725,71.794h-1.365c-0.553,0-1-0.447-1-1v-1.357c0-0.553,0.447-1,1-1h1.365c0.553,0,1,0.447,1,1v1.357
					C65.725,71.347,65.277,71.794,64.725,71.794z"/>
			</g>
		</g>
	</g>
	<g>
		<path d="M95.932,115.067H32.15c-2.206,0-4-1.794-4-4V19.271c0-2.206,1.794-4,4-4h63.781c2.206,0,4,1.794,4,4v91.797
			C99.932,113.273,98.138,115.067,95.932,115.067z M32.15,17.271c-1.103,0-2,0.897-2,2v91.797c0,1.103,0.897,2,2,2h63.781
			c1.103,0,2-0.897,2-2V19.271c0-1.103-0.897-2-2-2H32.15z"/>
	</g>
	<g>
		<path d="M66.598,106.401c0,1.41-1.145,2.557-2.561,2.557c-1.404,0-2.553-1.146-2.553-2.557c0-1.404,1.148-2.547,2.553-2.547
			C65.453,103.854,66.598,104.997,66.598,106.401z"/>
	</g>
	<g>
		<path d="M98.404,98.097H29.682c-0.553,0-1-0.447-1-1s0.447-1,1-1h68.723c0.553,0,1,0.447,1,1S98.957,98.097,98.404,98.097z"/>
	</g>
</g>
</svg>
