<?xml version="1.0" encoding="utf-8"?>
<!-- Generator: Adobe Illustrator 16.0.0, SVG Export Plug-In . SVG Version: 6.00 Build 0)  -->
<!DOCTYPE svg PUBLIC "-//W3C//DTD SVG 1.1//EN" "http://www.w3.org/Graphics/SVG/1.1/DTD/svg11.dtd">
<svg version="1.1" id="Layer_1" xmlns="http://www.w3.org/2000/svg" xmlns:xlink="http://www.w3.org/1999/xlink" x="0px" y="0px"
	 width="128px" height="128px" viewBox="0 0 128 128" enable-background="new 0 0 128 128" xml:space="preserve">
<g>
	<g>
		<path fill="none" stroke="#000000" stroke-width="2" stroke-linecap="round" stroke-linejoin="round" stroke-miterlimit="10" d="
			M79.483,56.407c0,8.529-6.91,15.441-15.446,15.441c-8.528,0-15.442-6.912-15.442-15.441c0-8.535,6.914-15.451,15.442-15.451
			C72.573,40.956,79.483,47.872,79.483,56.407z"/>
		<g>
			
				<line fill="none" stroke="#000000" stroke-width="2" stroke-linecap="round" stroke-linejoin="round" stroke-miterlimit="10" x1="64.037" y1="47.335" x2="64.037" y2="59.813"/>
			
				<rect x="63.569" y="64.532" stroke="#000000" stroke-width="2" stroke-linecap="round" stroke-linejoin="round" stroke-miterlimit="10" width="0.942" height="0.938"/>
		</g>
	</g>
	<g>
		<g>
			<path d="M103.317,89.983H24.765c-2.206,0-4-1.794-4-4v-53.5c0-2.206,1.794-4,4-4h78.553c2.206,0,4,1.794,4,4v53.5
				C107.317,88.189,105.523,89.983,103.317,89.983z M24.765,30.483c-1.103,0-2,0.897-2,2v53.5c0,1.103,0.897,2,2,2h78.553
				c1.103,0,2-0.897,2-2v-53.5c0-1.103-0.897-2-2-2H24.765z"/>
		</g>
		<g>
			<path d="M106.317,83.384H21.765c-0.553,0-1-0.447-1-1s0.447-1,1-1h84.553c0.553,0,1,0.447,1,1S106.87,83.384,106.317,83.384z"/>
		</g>
		<g>
			<g>
				<path d="M47.213,101.073c-0.214,0-0.429-0.068-0.611-0.209c-0.437-0.339-0.517-0.967-0.179-1.403l8.607-11.113
					c0.339-0.437,0.966-0.516,1.403-0.179c0.437,0.339,0.517,0.967,0.179,1.403l-8.607,11.113
					C47.808,100.94,47.512,101.073,47.213,101.073z"/>
			</g>
			<g>
				<path d="M80.865,101.073c-0.299,0-0.595-0.133-0.792-0.388l-8.607-11.113c-0.338-0.437-0.258-1.064,0.179-1.403
					c0.438-0.337,1.064-0.259,1.403,0.179l8.607,11.113c0.338,0.437,0.258,1.064-0.179,1.403
					C81.294,101.005,81.079,101.073,80.865,101.073z"/>
			</g>
		</g>
		<g>
			<path d="M87.515,101.856H40.562c-0.553,0-1-0.447-1-1s0.447-1,1-1h46.952c0.553,0,1,0.447,1,1S88.067,101.856,87.515,101.856z"/>
		</g>
	</g>
</g>
</svg>
