<?xml version="1.0" encoding="utf-8"?>
<!-- Generator: Adobe Illustrator 16.0.0, SVG Export Plug-In . SVG Version: 6.00 Build 0)  -->
<!DOCTYPE svg PUBLIC "-//W3C//DTD SVG 1.1//EN" "http://www.w3.org/Graphics/SVG/1.1/DTD/svg11.dtd">
<svg version="1.1" id="Layer_1" xmlns="http://www.w3.org/2000/svg" xmlns:xlink="http://www.w3.org/1999/xlink" x="0px" y="0px"
	 width="128px" height="128px" viewBox="0 0 128 128" enable-background="new 0 0 128 128" xml:space="preserve">
<g>
	<g>
		<path fill="none" stroke="#000000" stroke-width="2" stroke-linecap="round" stroke-linejoin="round" stroke-miterlimit="10" d="
			M79.487,55.155c0,8.531-6.916,15.443-15.446,15.443s-15.446-6.912-15.446-15.443c0-8.533,6.916-15.445,15.446-15.445
			S79.487,46.622,79.487,55.155z"/>
		<g>
			
				<line fill="none" stroke="#000000" stroke-width="2" stroke-linecap="round" stroke-linejoin="round" stroke-miterlimit="10" x1="64.041" y1="46.085" x2="64.041" y2="58.562"/>
			
				<rect x="63.57" y="63.28" stroke="#000000" stroke-width="2" stroke-linecap="round" stroke-linejoin="round" stroke-miterlimit="10" width="0.946" height="0.938"/>
		</g>
	</g>
	<g>
		<g>
			<path d="M103.317,89.194H24.765c-2.206,0-4-1.794-4-4v-53.49c0-2.206,1.794-4,4-4h78.553c2.206,0,4,1.794,4,4v53.49
				C107.317,87.4,105.523,89.194,103.317,89.194z M24.765,29.704c-1.103,0-2,0.897-2,2v53.49c0,1.103,0.897,2,2,2h78.553
				c1.103,0,2-0.897,2-2v-53.49c0-1.103-0.897-2-2-2H24.765z"/>
		</g>
		<g>
			<path d="M113.917,102.638c-0.004,0.001-0.012,0-0.02,0H14.185c-0.389,0-0.743-0.226-0.907-0.578
				c-0.164-0.354-0.108-0.77,0.143-1.066l7.398-8.77c0.19-0.226,0.47-0.355,0.765-0.355h84.916c0.295,0,0.574,0.13,0.765,0.355
				l7.294,8.646c0.22,0.184,0.359,0.46,0.359,0.769C114.917,102.19,114.47,102.638,113.917,102.638z M16.337,100.638h95.408
				l-5.711-6.77H22.048L16.337,100.638z"/>
		</g>
		<g>
			<path d="M106.317,82.603H21.765c-0.553,0-1-0.447-1-1s0.447-1,1-1h84.553c0.553,0,1,0.447,1,1S106.87,82.603,106.317,82.603z"/>
		</g>
	</g>
</g>
</svg>
