<?xml version="1.0" encoding="utf-8"?>
<!-- Generator: Adobe Illustrator 16.0.0, SVG Export Plug-In . SVG Version: 6.00 Build 0)  -->
<!DOCTYPE svg PUBLIC "-//W3C//DTD SVG 1.1//EN" "http://www.w3.org/Graphics/SVG/1.1/DTD/svg11.dtd">
<svg version="1.1" id="Layer_1" xmlns="http://www.w3.org/2000/svg" xmlns:xlink="http://www.w3.org/1999/xlink" x="0px" y="0px"
	 width="128px" height="128px" viewBox="0 0 128 128" enable-background="new 0 0 128 128" xml:space="preserve">
<g>
	<g>
		<g>
			<path d="M64.041,74.101c-9.069,0-16.447-7.378-16.447-16.447c0-9.065,7.378-16.441,16.447-16.441
				c9.068,0,16.445,7.376,16.445,16.441C80.486,66.723,73.109,74.101,64.041,74.101z M64.041,43.212
				c-7.966,0-14.447,6.479-14.447,14.441c0,7.966,6.481,14.447,14.447,14.447c7.965,0,14.445-6.481,14.445-14.447
				C78.486,49.69,72.006,43.212,64.041,43.212z"/>
		</g>
		<g>
			<g>
				<path d="M64.041,62.063c-0.553,0-1-0.447-1-1V48.591c0-0.553,0.447-1,1-1s1,0.447,1,1v12.473
					C65.041,61.616,64.594,62.063,64.041,62.063z"/>
			</g>
			<g>
				<rect x="63.574" y="65.782" width="0.941" height="0.939"/>
				<path d="M64.516,67.722h-0.941c-0.553,0-1-0.447-1-1v-0.939c0-0.553,0.447-1,1-1h0.941c0.553,0,1,0.447,1,1v0.939
					C65.516,67.274,65.068,67.722,64.516,67.722z"/>
			</g>
		</g>
	</g>
	<g>
		<path d="M83.701,113.194h-39.32c-2.206,0-4-1.794-4-4V21.146c0-2.206,1.794-4,4-4h39.32c2.206,0,4,1.794,4,4v88.049
			C87.701,111.4,85.907,113.194,83.701,113.194z M44.381,19.146c-1.103,0-2,0.897-2,2v88.049c0,1.103,0.897,2,2,2h39.32
			c1.103,0,2-0.897,2-2V21.146c0-1.103-0.897-2-2-2H44.381z"/>
	</g>
	<g>
		<path d="M86.053,96.011H42.029c-0.553,0-1-0.447-1-1s0.447-1,1-1h44.023c0.553,0,1,0.447,1,1S86.605,96.011,86.053,96.011z"/>
	</g>
	<g>
		<path d="M66.598,103.903c0,1.406-1.146,2.553-2.557,2.553c-1.414,0-2.553-1.146-2.553-2.553c0-1.412,1.139-2.557,2.553-2.557
			C65.451,101.347,66.598,102.491,66.598,103.903z"/>
	</g>
</g>
</svg>
