<?xml version="1.0" encoding="utf-8"?>
<!-- Generator: Adobe Illustrator 16.0.0, SVG Export Plug-In . SVG Version: 6.00 Build 0)  -->
<!DOCTYPE svg PUBLIC "-//W3C//DTD SVG 1.1//EN" "http://www.w3.org/Graphics/SVG/1.1/DTD/svg11.dtd">
<svg version="1.1" id="Layer_1" xmlns="http://www.w3.org/2000/svg" xmlns:xlink="http://www.w3.org/1999/xlink" x="0px" y="0px"
	 width="64px" height="64px" viewBox="0 0 64 64" enable-background="new 0 0 64 64" xml:space="preserve">
<g>
	<g>
		<circle cx="32" cy="51.852" r="1.292"/>
	</g>
	<g>
		<path d="M40.461,56.543H23.539c-1.93,0-3.5-1.57-3.5-3.5V11.477c0-1.93,1.57-3.5,3.5-3.5h16.923c1.93,0,3.5,1.57,3.5,3.5v41.566
			C43.961,54.973,42.391,56.543,40.461,56.543z M23.539,8.977c-1.378,0-2.5,1.121-2.5,2.5v41.566c0,1.379,1.122,2.5,2.5,2.5h16.923
			c1.378,0,2.5-1.121,2.5-2.5V11.477c0-1.379-1.122-2.5-2.5-2.5H23.539z"/>
	</g>
	<g>
		<path d="M43.132,47.854H20.867c-0.276,0-0.5-0.224-0.5-0.5s0.224-0.5,0.5-0.5h22.265c0.276,0,0.5,0.224,0.5,0.5
			S43.408,47.854,43.132,47.854z"/>
	</g>
	<g>
		<path d="M26.679,31.375c-0.835,0-1.515-0.68-1.515-1.516s0.68-1.516,1.515-1.516c0.836,0,1.516,0.68,1.516,1.516
			S27.515,31.375,26.679,31.375z M26.679,29.344c-0.284,0-0.515,0.231-0.515,0.516s0.231,0.516,0.515,0.516s0.516-0.231,0.516-0.516
			S26.963,29.344,26.679,29.344z"/>
	</g>
	<g>
		<circle cx="33.651" cy="29.859" r="1.015"/>
		<path d="M33.65,31.375c-0.835,0-1.515-0.68-1.515-1.516s0.68-1.516,1.515-1.516c0.836,0,1.516,0.68,1.516,1.516
			S34.486,31.375,33.65,31.375z M33.65,29.344c-0.284,0-0.515,0.231-0.515,0.516s0.231,0.516,0.515,0.516s0.516-0.231,0.516-0.516
			S33.935,29.344,33.65,29.344z"/>
	</g>
	<g>
		<circle cx="30.349" cy="26.191" r="1.016"/>
		<path d="M30.349,27.705c-0.836,0-1.516-0.679-1.516-1.514c0-0.837,0.68-1.518,1.516-1.518s1.516,0.681,1.516,1.518
			C31.865,27.026,31.185,27.705,30.349,27.705z M30.349,25.674c-0.284,0-0.516,0.232-0.516,0.518c0,0.283,0.231,0.514,0.516,0.514
			c0.285,0,0.516-0.23,0.516-0.514C30.865,25.906,30.634,25.674,30.349,25.674z"/>
	</g>
	<g>
		<path d="M37.321,27.705c-0.836,0-1.516-0.679-1.516-1.514c0-0.837,0.68-1.518,1.516-1.518s1.516,0.681,1.516,1.518
			C38.836,27.026,38.157,27.705,37.321,27.705z M37.321,25.674c-0.284,0-0.516,0.232-0.516,0.518c0,0.283,0.231,0.514,0.516,0.514
			s0.516-0.23,0.516-0.514C37.836,25.906,37.605,25.674,37.321,25.674z"/>
	</g>
	<g>
		<path d="M27.447,29.701c-0.128,0-0.256-0.049-0.354-0.146c-0.195-0.195-0.195-0.512,0-0.707l2.153-2.154
			c0.195-0.195,0.512-0.195,0.707,0s0.195,0.512,0,0.707L27.8,29.555C27.703,29.652,27.575,29.701,27.447,29.701z"/>
	</g>
	<g>
		<path d="M34.418,29.701c-0.128,0-0.256-0.049-0.354-0.146c-0.195-0.195-0.195-0.512,0-0.707l2.153-2.154
			c0.195-0.195,0.512-0.195,0.707,0s0.195,0.512,0,0.707l-2.153,2.154C34.674,29.652,34.546,29.701,34.418,29.701z"/>
	</g>
	<g>
		<path d="M32.954,29.387c-0.128,0-0.256-0.049-0.354-0.146l-1.883-1.885c-0.195-0.195-0.195-0.512,0-0.707s0.512-0.195,0.707,0
			l1.883,1.885c0.195,0.195,0.195,0.512,0,0.707C33.209,29.338,33.082,29.387,32.954,29.387z"/>
	</g>
</g>
</svg>
