<?xml version="1.0" encoding="utf-8"?>
<!-- Generator: Adobe Illustrator 16.0.0, SVG Export Plug-In . SVG Version: 6.00 Build 0)  -->
<!DOCTYPE svg PUBLIC "-//W3C//DTD SVG 1.1//EN" "http://www.w3.org/Graphics/SVG/1.1/DTD/svg11.dtd">
<svg version="1.1" id="Layer_1" xmlns="http://www.w3.org/2000/svg" xmlns:xlink="http://www.w3.org/1999/xlink" x="0px" y="0px"
	 width="64px" height="64px" viewBox="0 0 64 64" enable-background="new 0 0 64 64" xml:space="preserve">
<g>
	<g>
		<path d="M46.647,57.492H17.353c-1.93,0-3.5-1.57-3.5-3.5V10.527c0-1.93,1.57-3.5,3.5-3.5h29.295c1.93,0,3.5,1.57,3.5,3.5v43.465
			C50.147,55.922,48.577,57.492,46.647,57.492z M17.353,8.027c-1.378,0-2.5,1.121-2.5,2.5v43.465c0,1.379,1.122,2.5,2.5,2.5h29.295
			c1.378,0,2.5-1.121,2.5-2.5V10.527c0-1.379-1.122-2.5-2.5-2.5H17.353z"/>
	</g>
	<g>
		<path d="M33.292,53.119c0,0.711-0.578,1.289-1.293,1.289c-0.712,0-1.291-0.578-1.291-1.289c0-0.717,0.579-1.295,1.291-1.295
			C32.714,51.824,33.292,52.402,33.292,53.119z"/>
	</g>
	<g>
		<path d="M49.379,48.91H14.621c-0.276,0-0.5-0.224-0.5-0.5s0.224-0.5,0.5-0.5h34.758c0.276,0,0.5,0.224,0.5,0.5
			S49.655,48.91,49.379,48.91z"/>
	</g>
	<g>
		<path d="M22.817,33.445c-1.242,0-2.253-1.012-2.253-2.256c0-1.242,1.011-2.252,2.253-2.252s2.253,1.01,2.253,2.252
			C25.07,32.434,24.06,33.445,22.817,33.445z M22.817,29.938c-0.691,0-1.253,0.562-1.253,1.252c0,0.692,0.562,1.256,1.253,1.256
			s1.253-0.563,1.253-1.256C24.07,30.499,23.508,29.938,22.817,29.938z"/>
	</g>
	<g>
		<path d="M36.603,31.189c0,0.969-0.785,1.756-1.753,1.756s-1.752-0.787-1.752-1.756c0-0.967,0.784-1.752,1.752-1.752
			S36.603,30.223,36.603,31.189z"/>
		<path d="M34.85,33.445c-1.242,0-2.252-1.012-2.252-2.256c0-1.242,1.01-2.252,2.252-2.252c1.242,0,2.253,1.01,2.253,2.252
			C37.103,32.434,36.092,33.445,34.85,33.445z M34.85,29.938c-0.69,0-1.252,0.562-1.252,1.252c0,0.692,0.562,1.256,1.252,1.256
			c0.691,0,1.253-0.563,1.253-1.256C36.103,30.499,35.541,29.938,34.85,29.938z"/>
	</g>
	<g>
		<circle cx="29.15" cy="24.857" r="1.753"/>
		<path d="M29.15,27.111c-1.243,0-2.254-1.011-2.254-2.254s1.011-2.254,2.254-2.254c1.242,0,2.253,1.011,2.253,2.254
			S30.393,27.111,29.15,27.111z M29.15,23.604c-0.691,0-1.254,0.562-1.254,1.254s0.562,1.254,1.254,1.254
			c0.691,0,1.253-0.562,1.253-1.254S29.841,23.604,29.15,23.604z"/>
	</g>
	<g>
		<path d="M41.184,27.111c-1.243,0-2.254-1.011-2.254-2.254s1.011-2.254,2.254-2.254c1.242,0,2.252,1.011,2.252,2.254
			S42.425,27.111,41.184,27.111z M41.184,23.604c-0.691,0-1.254,0.562-1.254,1.254s0.562,1.254,1.254,1.254
			c0.69,0,1.252-0.562,1.252-1.254S41.874,23.604,41.184,23.604z"/>
	</g>
	<g>
		<path d="M24.142,30.557c-0.128,0-0.256-0.049-0.354-0.146c-0.195-0.195-0.195-0.512,0-0.707l3.717-3.717
			c0.195-0.195,0.512-0.195,0.707,0s0.195,0.512,0,0.707l-3.717,3.717C24.397,30.508,24.27,30.557,24.142,30.557z"/>
	</g>
	<g>
		<path d="M36.175,30.557c-0.128,0-0.256-0.049-0.354-0.146c-0.195-0.195-0.195-0.512,0-0.707l3.715-3.717
			c0.195-0.195,0.512-0.195,0.707,0s0.195,0.512,0,0.707l-3.715,3.717C36.431,30.508,36.303,30.557,36.175,30.557z"/>
	</g>
	<g>
		<path d="M33.646,30.014c-0.128,0-0.256-0.049-0.354-0.146l-3.25-3.254c-0.195-0.195-0.195-0.512,0-0.707s0.512-0.195,0.708,0
			L34,29.16c0.195,0.195,0.195,0.512,0,0.707C33.902,29.965,33.774,30.014,33.646,30.014z"/>
	</g>
</g>
</svg>
