<?xml version="1.0" encoding="utf-8"?>
<!-- Generator: Adobe Illustrator 16.0.0, SVG Export Plug-In . SVG Version: 6.00 Build 0)  -->
<!DOCTYPE svg PUBLIC "-//W3C//DTD SVG 1.1//EN" "http://www.w3.org/Graphics/SVG/1.1/DTD/svg11.dtd">
<svg version="1.1" id="Layer_1" xmlns="http://www.w3.org/2000/svg" xmlns:xlink="http://www.w3.org/1999/xlink" x="0px" y="0px"
	 width="64px" height="64px" viewBox="0 0 64 64" enable-background="new 0 0 64 64" xml:space="preserve">
<g>
	<g>
		<g>
			<path d="M36.146,44.688H25.574c-3.033,0-5.5-2.468-5.5-5.5V25.332c0-3.032,2.467-5.5,5.5-5.5h10.572c3.033,0,5.5,2.468,5.5,5.5
				v13.855C41.646,42.22,39.179,44.688,36.146,44.688z M25.574,20.832c-2.481,0-4.5,2.019-4.5,4.5v13.855c0,2.481,2.019,4.5,4.5,4.5
				h10.572c2.481,0,4.5-2.019,4.5-4.5V25.332c0-2.481-2.019-4.5-4.5-4.5H25.574z"/>
		</g>
		<g>
			<path d="M43.426,29.979c-0.276,0-0.5-0.224-0.5-0.5v-3.961c0-0.276,0.224-0.5,0.5-0.5s0.5,0.224,0.5,0.5v3.961
				C43.926,29.755,43.702,29.979,43.426,29.979z"/>
		</g>
		<g>
			<path d="M37.344,18.498c-0.276,0-0.5-0.224-0.5-0.5v-3.674c0-0.827-0.673-1.5-1.5-1.5h-8.967c-0.827,0-1.5,0.673-1.5,1.5v3.674
				c0,0.276-0.224,0.5-0.5,0.5s-0.5-0.224-0.5-0.5v-3.674c0-1.379,1.122-2.5,2.5-2.5h8.967c1.378,0,2.5,1.121,2.5,2.5v3.674
				C37.844,18.274,37.62,18.498,37.344,18.498z"/>
		</g>
		<g>
			<path d="M35.344,52.695h-8.967c-1.378,0-2.5-1.121-2.5-2.5V46.52c0-0.276,0.224-0.5,0.5-0.5s0.5,0.224,0.5,0.5v3.676
				c0,0.827,0.673,1.5,1.5,1.5h8.967c0.827,0,1.5-0.673,1.5-1.5V46.52c0-0.276,0.224-0.5,0.5-0.5s0.5,0.224,0.5,0.5v3.676
				C37.844,51.574,36.722,52.695,35.344,52.695z"/>
		</g>
	</g>
	<g>
		<path stroke="#000000" stroke-linecap="round" stroke-linejoin="round" stroke-miterlimit="10" d="M26.556,34.096
			c0,0.561-0.454,1.012-1.015,1.012c-0.562,0-1.018-0.451-1.018-1.012s0.456-1.018,1.018-1.018
			C26.102,33.078,26.556,33.535,26.556,34.096z"/>
		<circle stroke="#000000" stroke-miterlimit="10" cx="32.511" cy="34.096" r="1.015"/>
		<circle stroke="#000000" stroke-miterlimit="10" cx="29.209" cy="30.426" r="1.016"/>
		
			<circle stroke="#000000" stroke-linecap="round" stroke-linejoin="round" stroke-miterlimit="10" cx="36.18" cy="30.426" r="1.016"/>
		
			<line fill="none" stroke="#000000" stroke-linecap="round" stroke-linejoin="round" stroke-miterlimit="10" x1="26.307" y1="33.436" x2="28.46" y2="31.281"/>
		
			<line fill="none" stroke="#000000" stroke-linecap="round" stroke-linejoin="round" stroke-miterlimit="10" x1="33.278" y1="33.436" x2="35.431" y2="31.281"/>
		
			<line fill="none" stroke="#000000" stroke-linecap="round" stroke-linejoin="round" stroke-miterlimit="10" x1="31.815" y1="33.123" x2="29.931" y2="31.236"/>
	</g>
</g>
</svg>
