<?xml version="1.0" encoding="utf-8"?>
<!-- Generator: Adobe Illustrator 16.0.0, SVG Export Plug-In . SVG Version: 6.00 Build 0)  -->
<!DOCTYPE svg PUBLIC "-//W3C//DTD SVG 1.1//EN" "http://www.w3.org/Graphics/SVG/1.1/DTD/svg11.dtd">
<svg version="1.1" id="Layer_1" xmlns="http://www.w3.org/2000/svg" xmlns:xlink="http://www.w3.org/1999/xlink" x="0px" y="0px"
	 width="64px" height="64px" viewBox="0 0 64 64" enable-background="new 0 0 64 64" xml:space="preserve">
<g>
	<g>
		<g>
			<path d="M50.383,44.803H13.617c-1.93,0-3.5-1.57-3.5-3.5v-24.09c0-1.93,1.57-3.5,3.5-3.5h36.767c1.93,0,3.5,1.57,3.5,3.5v24.09
				C53.883,43.232,52.313,44.803,50.383,44.803z M13.617,14.713c-1.378,0-2.5,1.121-2.5,2.5v24.09c0,1.379,1.122,2.5,2.5,2.5h36.767
				c1.378,0,2.5-1.121,2.5-2.5v-24.09c0-1.379-1.122-2.5-2.5-2.5H13.617z"/>
		</g>
		<g>
			<path d="M53.383,41.467H10.617c-0.276,0-0.5-0.224-0.5-0.5s0.224-0.5,0.5-0.5h42.767c0.276,0,0.5,0.224,0.5,0.5
				S53.66,41.467,53.383,41.467z"/>
		</g>
		<g>
			<g>
				<path d="M23.491,50.412c-0.107,0-0.215-0.034-0.306-0.104c-0.218-0.169-0.258-0.483-0.089-0.702l4.353-5.619
					c0.17-0.218,0.484-0.258,0.702-0.089c0.218,0.169,0.258,0.483,0.089,0.702l-4.353,5.619
					C23.788,50.346,23.64,50.412,23.491,50.412z"/>
			</g>
			<g>
				<path d="M40.511,50.412c-0.149,0-0.297-0.066-0.396-0.193L35.761,44.6c-0.169-0.219-0.129-0.533,0.089-0.702
					c0.218-0.169,0.533-0.129,0.701,0.089l4.354,5.619c0.169,0.219,0.129,0.533-0.089,0.702
					C40.726,50.378,40.618,50.412,40.511,50.412z"/>
			</g>
		</g>
		<g>
			<path d="M43.874,50.809H20.125c-0.276,0-0.5-0.224-0.5-0.5s0.224-0.5,0.5-0.5h23.749c0.276,0,0.5,0.224,0.5,0.5
				S44.15,50.809,43.874,50.809z"/>
		</g>
	</g>
	<g>
		<path fill="none" stroke="#000000" stroke-linecap="round" stroke-linejoin="round" stroke-miterlimit="10" d="M24.571,31.189
			c0,0.969-0.785,1.756-1.753,1.756s-1.753-0.787-1.753-1.756c0-0.967,0.785-1.752,1.753-1.752S24.571,30.223,24.571,31.189z"/>
		<path stroke="#000000" stroke-miterlimit="10" d="M36.604,31.189c0,0.969-0.785,1.756-1.753,1.756
			c-0.968,0-1.753-0.787-1.753-1.756c0-0.967,0.785-1.752,1.753-1.752C35.818,29.438,36.604,30.223,36.604,31.189z"/>
		<circle stroke="#000000" stroke-miterlimit="10" cx="29.15" cy="24.857" r="1.753"/>
		
			<circle fill="none" stroke="#000000" stroke-linecap="round" stroke-linejoin="round" stroke-miterlimit="10" cx="41.183" cy="24.857" r="1.753"/>
		
			<line fill="none" stroke="#000000" stroke-linecap="round" stroke-linejoin="round" stroke-miterlimit="10" x1="24.142" y1="30.057" x2="27.858" y2="26.34"/>
		
			<line fill="none" stroke="#000000" stroke-linecap="round" stroke-linejoin="round" stroke-miterlimit="10" x1="36.175" y1="30.057" x2="39.89" y2="26.34"/>
		
			<line fill="none" stroke="#000000" stroke-linecap="round" stroke-linejoin="round" stroke-miterlimit="10" x1="33.648" y1="29.514" x2="30.396" y2="26.26"/>
	</g>
</g>
</svg>
