<?xml version="1.0" encoding="utf-8"?>
<!-- Generator: Adobe Illustrator 16.0.0, SVG Export Plug-In . SVG Version: 6.00 Build 0)  -->
<!DOCTYPE svg PUBLIC "-//W3C//DTD SVG 1.1//EN" "http://www.w3.org/Graphics/SVG/1.1/DTD/svg11.dtd">
<svg version="1.1" id="Layer_1" xmlns="http://www.w3.org/2000/svg" xmlns:xlink="http://www.w3.org/1999/xlink" x="0px" y="0px"
	 width="128px" height="128px" viewBox="0 0 128 128" enable-background="new 0 0 128 128" xml:space="preserve">
<g>
	<g>
		<g>
			<path d="M56.472,74.124c-0.129,0-0.259-0.025-0.383-0.076c-0.374-0.155-0.617-0.52-0.617-0.924v-5.111h-5.687
				c-0.552,0-1-0.448-1-1V47.306c0-0.552,0.448-1,1-1h28.513c0.552,0,1,0.448,1,1v19.708c0,0.552-0.448,1-1,1H62.996l-5.817,5.818
				C56.988,74.022,56.732,74.124,56.472,74.124z M50.785,66.013h5.687c0.552,0,1,0.448,1,1v3.696l4.403-4.403
				c0.188-0.188,0.442-0.293,0.707-0.293h14.716V48.306H50.785V66.013z"/>
		</g>
		<g>
			<g>
				<circle cx="58.982" cy="57.567" r="1.349"/>
			</g>
			<g>
				<circle cx="64.041" cy="57.567" r="1.347"/>
			</g>
			<g>
				<circle cx="69.098" cy="57.567" r="1.349"/>
			</g>
		</g>
	</g>
	<g>
		<path d="M83.702,113.193H44.38c-2.206,0-4-1.794-4-4V21.145c0-2.206,1.794-4,4-4h39.321c2.206,0,4,1.794,4,4v88.048
			C87.702,111.398,85.907,113.193,83.702,113.193z M44.38,19.145c-1.103,0-2,0.897-2,2v88.048c0,1.103,0.897,2,2,2h39.321
			c1.103,0,2-0.897,2-2V21.145c0-1.103-0.897-2-2-2H44.38z"/>
	</g>
	<g>
		<path d="M86.05,96.013H42.03c-0.552,0-1-0.448-1-1s0.448-1,1-1h44.02c0.552,0,1,0.448,1,1S86.602,96.013,86.05,96.013z"/>
	</g>
	<g>
		<path d="M66.595,103.9c0,1.412-1.146,2.554-2.554,2.554c-1.411,0-2.557-1.143-2.557-2.554c0-1.41,1.146-2.552,2.557-2.552
			C65.449,101.348,66.595,102.491,66.595,103.9z"/>
	</g>
</g>
</svg>
