<?xml version="1.0" encoding="utf-8"?>
<!-- Generator: Adobe Illustrator 16.0.0, SVG Export Plug-In . SVG Version: 6.00 Build 0)  -->
<!DOCTYPE svg PUBLIC "-//W3C//DTD SVG 1.1//EN" "http://www.w3.org/Graphics/SVG/1.1/DTD/svg11.dtd">
<svg version="1.1" id="Layer_1" xmlns="http://www.w3.org/2000/svg" xmlns:xlink="http://www.w3.org/1999/xlink" x="0px" y="0px"
	 width="128px" height="128px" viewBox="0 0 128 128" enable-background="new 0 0 128 128" xml:space="preserve">
<g>
	<g>
		
			<polygon fill="none" stroke="#000000" stroke-width="2" stroke-linecap="round" stroke-linejoin="round" stroke-miterlimit="10" points="
			73.158,54.874 50.416,54.874 50.416,70.591 55.748,70.591 55.748,75.466 60.624,70.591 73.158,70.591 		"/>
		<g>
			<circle cx="57.754" cy="63.057" r="1.078"/>
			<circle cx="61.788" cy="63.057" r="1.076"/>
			<circle cx="65.819" cy="63.057" r="1.075"/>
		</g>
	</g>
	<g>
		<g>
			<path d="M77.125,89.748H46.451c-3.309,0-6-2.691-6-6V46.59c0-3.309,2.691-6,6-6h30.674c3.309,0,6,2.691,6,6v37.157
				C83.125,87.056,80.434,89.748,77.125,89.748z M46.451,42.59c-2.206,0-4,1.794-4,4v37.157c0,2.206,1.794,4,4,4h30.674
				c2.206,0,4-1.794,4-4V46.59c0-2.206-1.794-4-4-4H46.451z"/>
		</g>
		<g>
			<path d="M86.631,60.672c-0.552,0-1-0.448-1-1v-7.835c0-0.552,0.448-1,1-1s1,0.448,1,1v7.835
				C87.631,60.225,87.183,60.672,86.631,60.672z"/>
		</g>
		<g>
			<path d="M74.606,37.974c-0.552,0-1-0.448-1-1v-9.222c0-0.551-0.449-1-1-1H50.97c-0.551,0-1,0.449-1,1v9.222c0,0.552-0.448,1-1,1
				s-1-0.448-1-1v-9.222c0-1.654,1.346-3,3-3h21.637c1.654,0,3,1.346,3,3v9.222C75.606,37.526,75.159,37.974,74.606,37.974z"/>
		</g>
		<g>
			<path d="M72.606,105.588H50.97c-1.654,0-3-1.346-3-3v-9.224c0-0.552,0.448-1,1-1s1,0.448,1,1v9.224c0,0.551,0.449,1,1,1h21.637
				c0.551,0,1-0.449,1-1v-9.224c0-0.552,0.448-1,1-1s1,0.448,1,1v9.224C75.606,104.242,74.261,105.588,72.606,105.588z"/>
		</g>
	</g>
</g>
</svg>
