<?xml version="1.0" encoding="utf-8"?>
<!-- Generator: Adobe Illustrator 16.0.0, SVG Export Plug-In . SVG Version: 6.00 Build 0)  -->
<!DOCTYPE svg PUBLIC "-//W3C//DTD SVG 1.1//EN" "http://www.w3.org/Graphics/SVG/1.1/DTD/svg11.dtd">
<svg version="1.1" id="Layer_1" xmlns="http://www.w3.org/2000/svg" xmlns:xlink="http://www.w3.org/1999/xlink" x="0px" y="0px"
	 width="128px" height="128px" viewBox="0 0 128 128" enable-background="new 0 0 128 128" xml:space="preserve">
<g>
	<g>
		<g>
			<path d="M52.798,80.391c-0.129,0-0.259-0.025-0.383-0.076c-0.374-0.155-0.617-0.52-0.617-0.924v-8.075H42.86
				c-0.552,0-1-0.448-1-1V41.04c0-0.552,0.448-1,1-1h42.361c0.552,0,1,0.448,1,1v29.276c0,0.552-0.448,1-1,1H62.289l-8.784,8.782
				C53.313,80.29,53.058,80.391,52.798,80.391z M43.86,69.316h8.938c0.552,0,1,0.448,1,1v6.661l7.37-7.368
				c0.188-0.188,0.442-0.293,0.707-0.293h22.347V42.04H43.86V69.316z"/>
		</g>
		<g>
			<g>
				<path d="M58.528,56.282c0,1.104-0.894,2-2,2s-2.002-0.896-2.002-2c0-1.106,0.896-2.006,2.002-2.006S58.528,55.175,58.528,56.282
					z"/>
			</g>
			<g>
				<path d="M66.043,56.282c0,1.104-0.896,2-2.004,2c-1.103,0-2-0.896-2-2c0-1.106,0.897-2.006,2-2.006
					C65.147,54.275,66.043,55.175,66.043,56.282z"/>
			</g>
			<g>
				<circle cx="71.554" cy="56.282" r="2.004"/>
			</g>
		</g>
	</g>
	<g>
		<path d="M95.932,115.068H32.15c-2.206,0-4-1.794-4-4V19.27c0-2.206,1.794-4,4-4h63.781c2.206,0,4,1.794,4,4v91.798
			C99.932,113.273,98.137,115.068,95.932,115.068z M32.15,17.27c-1.103,0-2,0.897-2,2v91.798c0,1.103,0.897,2,2,2h63.781
			c1.103,0,2-0.897,2-2V19.27c0-1.103-0.897-2-2-2H32.15z"/>
	</g>
	<g>
		<path d="M66.596,106.407c0,1.409-1.144,2.552-2.557,2.552c-1.407,0-2.553-1.143-2.553-2.552c0-1.412,1.146-2.555,2.553-2.555
			C65.452,103.852,66.596,104.995,66.596,106.407z"/>
	</g>
	<g>
		<path d="M98.401,98.1H29.681c-0.552,0-1-0.448-1-1s0.448-1,1-1h68.721c0.552,0,1,0.448,1,1S98.954,98.1,98.401,98.1z"/>
	</g>
</g>
</svg>
