<?xml version="1.0" encoding="utf-8"?>
<!-- Generator: Adobe Illustrator 16.0.0, SVG Export Plug-In . SVG Version: 6.00 Build 0)  -->
<!DOCTYPE svg PUBLIC "-//W3C//DTD SVG 1.1//EN" "http://www.w3.org/Graphics/SVG/1.1/DTD/svg11.dtd">
<svg version="1.1" id="Layer_1" xmlns="http://www.w3.org/2000/svg" xmlns:xlink="http://www.w3.org/1999/xlink" x="0px" y="0px"
	 width="48px" height="48px" viewBox="0 0 48 48" enable-background="new 0 0 48 48" xml:space="preserve">
<g>
	<path d="M32.188,22.466c-0.112,0-0.204-0.091-0.204-0.204v-2.84c0-0.113,0.092-0.205,0.204-0.205c0.113,0,0.203,0.092,0.203,0.205
		v2.84C32.392,22.375,32.302,22.466,32.188,22.466z"/>
</g>
<g>
	<path d="M27.831,14.238c-0.113,0-0.205-0.092-0.205-0.205v-3.249c0-0.337-0.274-0.612-0.611-0.612h-7.661
		c-0.337,0-0.611,0.275-0.611,0.612v3.249c0,0.113-0.092,0.205-0.204,0.205s-0.204-0.092-0.204-0.205v-3.249
		c0-0.562,0.458-1.02,1.02-1.02h7.661c0.562,0,1.02,0.458,1.02,1.02v3.249C28.034,14.146,27.943,14.238,27.831,14.238z"/>
</g>
<g>
	<g>
		<g>
			<path d="M25.143,28.599h-3.919c-0.112,0-0.203-0.091-0.203-0.204v-7.518c0-0.113,0.091-0.205,0.203-0.205h3.919
				c0.112,0,0.204,0.092,0.204,0.205v7.518C25.347,28.508,25.255,28.599,25.143,28.599z M21.429,28.19h3.51v-7.11h-3.51V28.19z"/>
		</g>
		<g>
			<path d="M26.294,30.165h-6.215c-0.113,0-0.205-0.091-0.205-0.204v-10.56c0-0.113,0.092-0.204,0.205-0.204h1.631v-0.653
				c0-0.113,0.091-0.205,0.204-0.205h2.567c0.112,0,0.204,0.092,0.204,0.205v0.653h1.608c0.113,0,0.204,0.091,0.204,0.204v10.56
				C26.498,30.074,26.407,30.165,26.294,30.165z M20.282,29.757h5.808V19.605h-1.608c-0.113,0-0.205-0.091-0.205-0.204v-0.654
				h-2.159v0.654c0,0.113-0.091,0.204-0.203,0.204h-1.632V29.757z"/>
		</g>
		<g>
			<polyline points="24.276,24.256 24.276,27.501 22.092,27.501 22.092,24.256 			"/>
		</g>
	</g>
	<g>
		<path d="M28.516,33.002H17.853c-1.237,0-2.244-1.007-2.244-2.244V17.746c0-1.237,1.007-2.244,2.244-2.244h10.663
			c1.237,0,2.244,1.006,2.244,2.244v13.013C30.76,31.996,29.753,33.002,28.516,33.002z M17.853,15.91
			c-1.013,0-1.836,0.824-1.836,1.836v13.013c0,1.012,0.823,1.836,1.836,1.836h10.663c1.013,0,1.836-0.824,1.836-1.836V17.746
			c0-1.012-0.823-1.836-1.836-1.836H17.853z"/>
	</g>
	<g>
		<path d="M27.015,38.742h-7.661c-0.562,0-1.02-0.458-1.02-1.02v-3.25c0-0.113,0.092-0.204,0.204-0.204s0.204,0.091,0.204,0.204
			v3.25c0,0.337,0.274,0.612,0.611,0.612h7.661c0.337,0,0.611-0.274,0.611-0.612v-3.25c0-0.113,0.092-0.204,0.205-0.204
			c0.112,0,0.203,0.091,0.203,0.204v3.25C28.034,38.284,27.577,38.742,27.015,38.742z"/>
	</g>
</g>
</svg>
