<?xml version="1.0" encoding="utf-8"?>
<!-- Generator: Adobe Illustrator 16.0.0, SVG Export Plug-In . SVG Version: 6.00 Build 0)  -->
<!DOCTYPE svg PUBLIC "-//W3C//DTD SVG 1.1//EN" "http://www.w3.org/Graphics/SVG/1.1/DTD/svg11.dtd">
<svg version="1.1" id="Layer_1" xmlns="http://www.w3.org/2000/svg" xmlns:xlink="http://www.w3.org/1999/xlink" x="0px" y="0px"
	 width="48px" height="48px" viewBox="0 0 48 48" enable-background="new 0 0 48 48" xml:space="preserve">
<g>
	<g>
		<g>
			<path d="M26.695,26.81h-5.395c-0.113,0-0.203-0.091-0.203-0.204V16.249c0-0.113,0.09-0.204,0.203-0.204h5.395
				c0.111,0,0.203,0.091,0.203,0.204v10.357C26.898,26.718,26.807,26.81,26.695,26.81z M21.504,26.402h4.988v-9.949h-4.988V26.402z"
				/>
		</g>
		<g>
			<path d="M28.311,29.024h-8.625c-0.113,0-0.203-0.091-0.203-0.204V14.169c0-0.113,0.09-0.204,0.203-0.204h2.346v-0.984
				c0-0.113,0.09-0.204,0.203-0.204h3.562c0.113,0,0.205,0.091,0.205,0.204v0.984h2.309c0.113,0,0.205,0.091,0.205,0.204v14.652
				C28.516,28.934,28.424,29.024,28.311,29.024z M19.891,28.616h8.217V14.373h-2.311c-0.113,0-0.203-0.092-0.203-0.204v-0.984
				h-3.156v0.984c0,0.112-0.09,0.204-0.203,0.204h-2.344V28.616z"/>
		</g>
		<g>
			<polyline points="25.506,20.906 25.506,25.375 22.494,25.375 22.494,20.906 			"/>
		</g>
	</g>
	<g>
		<circle cx="24" cy="38.472" r="1.061"/>
	</g>
	<g>
		<path d="M30.988,41.499H17.01c-0.787,0-1.428-0.641-1.428-1.428V8.435c0-0.787,0.641-1.428,1.428-1.428h13.979
			c0.789,0,1.43,0.641,1.43,1.428v31.637C32.418,40.858,31.777,41.499,30.988,41.499z M17.01,7.415c-0.562,0-1.02,0.458-1.02,1.02
			v31.637c0,0.562,0.457,1.02,1.02,1.02h13.979c0.562,0,1.02-0.458,1.02-1.02V8.435c0-0.562-0.457-1.02-1.02-1.02H17.01z"/>
	</g>
	<g>
		<path d="M31.975,35.271H16.023c-0.113,0-0.205-0.091-0.205-0.204s0.092-0.204,0.205-0.204h15.951c0.113,0,0.205,0.091,0.205,0.204
			S32.088,35.271,31.975,35.271z"/>
	</g>
</g>
</svg>
