<?xml version="1.0" encoding="utf-8"?>
<!-- Generator: Adobe Illustrator 16.0.0, SVG Export Plug-In . SVG Version: 6.00 Build 0)  -->
<!DOCTYPE svg PUBLIC "-//W3C//DTD SVG 1.1//EN" "http://www.w3.org/Graphics/SVG/1.1/DTD/svg11.dtd">
<svg version="1.1" id="Layer_1" xmlns="http://www.w3.org/2000/svg" xmlns:xlink="http://www.w3.org/1999/xlink" x="0px" y="0px"
	 width="48px" height="48px" viewBox="0 0 48 48" enable-background="new 0 0 48 48" xml:space="preserve">
<g>
	<g>
		<g>
			<path d="M26.514,26.426h-5.028c-0.112,0-0.204-0.091-0.204-0.204v-9.66c0-0.113,0.092-0.204,0.204-0.204h5.028
				c0.113,0,0.205,0.091,0.205,0.204v9.66C26.719,26.335,26.627,26.426,26.514,26.426z M21.69,26.019h4.62v-9.252h-4.62V26.019z"/>
		</g>
		<g>
			<path d="M27.915,28.293h-7.829c-0.112,0-0.203-0.091-0.203-0.204V14.79c0-0.113,0.091-0.204,0.203-0.204h2.109v-0.874
				c0-0.113,0.092-0.204,0.205-0.204h3.23c0.113,0,0.204,0.091,0.204,0.204v0.874h2.08c0.112,0,0.204,0.091,0.204,0.204v13.299
				C28.119,28.202,28.027,28.293,27.915,28.293z M20.29,27.885h7.421V14.994h-2.08c-0.112,0-0.204-0.091-0.204-0.204v-0.874h-2.823
				v0.874c0,0.113-0.091,0.204-0.203,0.204h-2.11V27.885z"/>
		</g>
		<g>
			<polyline points="25.403,20.906 25.403,25.073 22.596,25.073 22.596,20.906 			"/>
		</g>
	</g>
	<g>
		<g>
			<path d="M38.099,33.086H9.9c-0.786,0-1.427-0.641-1.427-1.428V12.543c0-0.788,0.641-1.428,1.427-1.428h28.198
				c0.787,0,1.428,0.641,1.428,1.428v19.115C39.526,32.445,38.886,33.086,38.099,33.086z M9.9,11.523c-0.562,0-1.02,0.458-1.02,1.02
				v19.115c0,0.562,0.458,1.02,1.02,1.02h28.198c0.562,0,1.02-0.458,1.02-1.02V12.543c0-0.562-0.457-1.02-1.02-1.02H9.9z"/>
		</g>
		<g>
			<path d="M39.323,30.695H8.677c-0.113,0-0.203-0.091-0.203-0.204s0.09-0.204,0.203-0.204h30.646c0.111,0,0.203,0.091,0.203,0.204
				S39.435,30.695,39.323,30.695z"/>
		</g>
		<g>
			<g>
				<path d="M17.902,37.107c-0.044,0-0.088-0.014-0.126-0.043c-0.089-0.069-0.104-0.197-0.036-0.286l3.122-4.029
					c0.068-0.089,0.197-0.105,0.286-0.036c0.089,0.069,0.105,0.197,0.037,0.286l-3.122,4.029
					C18.023,37.08,17.963,37.107,17.902,37.107z"/>
			</g>
			<g>
				<path d="M30.097,37.107c-0.062,0-0.121-0.027-0.162-0.079L26.818,33c-0.068-0.089-0.053-0.217,0.037-0.286
					c0.089-0.069,0.217-0.052,0.285,0.036l3.116,4.029c0.069,0.089,0.053,0.218-0.035,0.287
					C30.185,37.093,30.14,37.107,30.097,37.107z"/>
			</g>
		</g>
		<g>
			<path d="M32.511,37.39h-17.02c-0.113,0-0.204-0.091-0.204-0.204s0.091-0.205,0.204-0.205h17.02c0.113,0,0.205,0.092,0.205,0.205
				S32.624,37.39,32.511,37.39z"/>
		</g>
	</g>
</g>
</svg>
