<?xml version="1.0" encoding="utf-8"?>
<!-- Generator: Adobe Illustrator 16.0.0, SVG Export Plug-In . SVG Version: 6.00 Build 0)  -->
<!DOCTYPE svg PUBLIC "-//W3C//DTD SVG 1.1//EN" "http://www.w3.org/Graphics/SVG/1.1/DTD/svg11.dtd">
<svg version="1.1" id="Layer_1" xmlns="http://www.w3.org/2000/svg" xmlns:xlink="http://www.w3.org/1999/xlink" x="0px" y="0px"
	 width="48px" height="48px" viewBox="0 0 48 48" enable-background="new 0 0 48 48" xml:space="preserve">
<g>
	<g>
		<g>
			<path d="M26.125,25.607h-4.262c-0.111,0-0.203-0.091-0.203-0.204v-8.175c0-0.112,0.092-0.204,0.203-0.204h4.262
				c0.112,0,0.204,0.092,0.204,0.204v8.175C26.329,25.516,26.237,25.607,26.125,25.607z M22.067,25.199h3.854v-7.766h-3.854V25.199z
				"/>
		</g>
		<g>
			<path d="M27.376,27.311h-6.762c-0.112,0-0.203-0.091-0.203-0.204V15.625c0-0.113,0.091-0.204,0.203-0.204h1.793v-0.728
				c0-0.113,0.092-0.204,0.204-0.204h2.79c0.113,0,0.204,0.091,0.204,0.204v0.728h1.771c0.113,0,0.205,0.091,0.205,0.204v11.481
				C27.581,27.219,27.489,27.311,27.376,27.311z M20.818,26.903h6.354V15.83h-1.771c-0.112,0-0.204-0.092-0.204-0.205v-0.728h-2.383
				v0.728c0,0.113-0.09,0.205-0.203,0.205h-1.793V26.903z"/>
		</g>
		<g>
			<polyline points="25.185,20.906 25.185,24.432 22.809,24.432 22.809,20.906 			"/>
		</g>
	</g>
	<g>
		<g>
			<path d="M38.096,32.803H9.899c-0.787,0-1.428-0.641-1.428-1.428V12.261c0-0.788,0.641-1.429,1.428-1.429h28.196
				c0.787,0,1.428,0.641,1.428,1.429v19.114C39.523,32.162,38.883,32.803,38.096,32.803z M9.899,11.241
				c-0.562,0-1.02,0.458-1.02,1.021v19.114c0,0.562,0.458,1.02,1.02,1.02h28.196c0.562,0,1.02-0.458,1.02-1.02V12.261
				c0-0.563-0.457-1.021-1.02-1.021H9.899z"/>
		</g>
		<g>
			<path d="M42.07,37.674c-0.002,0-0.005,0-0.008,0H5.929c-0.078,0-0.15-0.046-0.185-0.118c-0.033-0.072-0.022-0.157,0.029-0.217
				l2.682-3.177c0.038-0.046,0.096-0.073,0.156-0.073h30.77c0.061,0,0.117,0.026,0.156,0.073l2.652,3.143
				c0.052,0.037,0.085,0.097,0.085,0.166C42.274,37.583,42.183,37.674,42.07,37.674z M6.368,37.266h35.256l-2.338-2.77H8.705
				L6.368,37.266z"/>
		</g>
		<g>
			<path d="M39.319,30.412H8.676c-0.113,0-0.204-0.091-0.204-0.204c0-0.112,0.091-0.204,0.204-0.204h30.644
				c0.112,0,0.204,0.091,0.204,0.204C39.523,30.321,39.432,30.412,39.319,30.412z"/>
		</g>
	</g>
</g>
</svg>
