<?xml version="1.0" encoding="utf-8"?>
<!-- Generator: Adobe Illustrator 16.0.0, SVG Export Plug-In . SVG Version: 6.00 Build 0)  -->
<!DOCTYPE svg PUBLIC "-//W3C//DTD SVG 1.1//EN" "http://www.w3.org/Graphics/SVG/1.1/DTD/svg11.dtd">
<svg version="1.1" id="Layer_1" xmlns="http://www.w3.org/2000/svg" xmlns:xlink="http://www.w3.org/1999/xlink" x="0px" y="0px"
	 width="48px" height="48px" viewBox="0 0 48 48" enable-background="new 0 0 48 48" xml:space="preserve">
<g>
	<g>
		<g>
			<path d="M27.988,29.995h-7.976c-0.112,0-0.204-0.091-0.204-0.204V14.478c0-0.113,0.092-0.204,0.204-0.204h7.976
				c0.113,0,0.204,0.091,0.204,0.204v15.314C28.192,29.904,28.102,29.995,27.988,29.995z M20.216,29.587h7.568V14.681h-7.568V29.587
				z"/>
		</g>
		<g>
			<path d="M29.66,31.946H18.343c-0.112,0-0.204-0.091-0.204-0.204V12.524c0-0.113,0.092-0.204,0.204-0.204h3.139v-1.356
				c0-0.113,0.092-0.204,0.205-0.204h4.668c0.113,0,0.205,0.091,0.205,0.204v1.356h3.101c0.112,0,0.204,0.091,0.204,0.204v19.218
				C29.864,31.855,29.772,31.946,29.66,31.946z M18.548,31.538h10.909v-18.81h-3.103c-0.112,0-0.204-0.091-0.204-0.204v-1.355h-4.26
				v1.355c0,0.113-0.092,0.204-0.204,0.204h-3.139V31.538z"/>
		</g>
		<g>
			<polyline points="26.226,21.817 26.226,28.423 21.775,28.423 21.775,21.817 			"/>
		</g>
	</g>
	<g>
		<path d="M35.422,42.179H12.579c-0.788,0-1.429-0.641-1.429-1.428V7.754c0-0.787,0.641-1.428,1.429-1.428h22.843
			c0.787,0,1.428,0.641,1.428,1.428v32.997C36.85,41.538,36.209,42.179,35.422,42.179z M12.579,6.734
			c-0.563,0-1.021,0.458-1.021,1.02v32.997c0,0.562,0.457,1.02,1.021,1.02h22.843c0.562,0,1.021-0.458,1.021-1.02V7.754
			c0-0.562-0.458-1.02-1.021-1.02H12.579z"/>
	</g>
	<g>
		<circle cx="24" cy="39.199" r="0.926"/>
	</g>
	<g>
		<path d="M36.454,36.028H11.547c-0.112,0-0.203-0.091-0.203-0.204s0.091-0.204,0.203-0.204h24.907c0.112,0,0.203,0.091,0.203,0.204
			S36.566,36.028,36.454,36.028z"/>
	</g>
</g>
</svg>
