<?xml version="1.0" encoding="utf-8"?>
<!-- Generator: Adobe Illustrator 16.0.0, SVG Export Plug-In . SVG Version: 6.00 Build 0)  -->
<!DOCTYPE svg PUBLIC "-//W3C//DTD SVG 1.1//EN" "http://www.w3.org/Graphics/SVG/1.1/DTD/svg11.dtd">
<svg version="1.1" xmlns="http://www.w3.org/2000/svg" xmlns:xlink="http://www.w3.org/1999/xlink" x="0px" y="0px" width="100px"
	 height="100px" viewBox="0 0 100 100" enable-background="new 0 0 100 100" xml:space="preserve">
<g id="basic_x5F_heart_x5F_outline">
	<polygon fill="none" stroke="#000000" stroke-width="2" stroke-miterlimit="10" points="53.898,27.65 61.459,20.09 80.358,20.09 
		87.918,27.65 87.918,46.549 53.898,84.347 19.881,46.549 19.881,27.65 27.439,20.09 46.339,20.09 	"/>
</g>
<g id="details">
	<g>
		<g>
			<line fill="none" stroke="#000000" stroke-width="2" stroke-miterlimit="10" x1="20" y1="20" x2="5.064" y2="5.064"/>
			<line fill="none" stroke="#000000" stroke-width="2" stroke-miterlimit="10" x1="7.792" y1="13.247" x2="13.246" y2="13.247"/>
			<line fill="none" stroke="#000000" stroke-width="2" stroke-miterlimit="10" x1="5.064" y1="10.519" x2="10.52" y2="10.519"/>
			<line fill="none" stroke="#000000" stroke-width="2" stroke-miterlimit="10" x1="10.52" y1="15.974" x2="15.974" y2="15.974"/>
			<line fill="none" stroke="#000000" stroke-width="2" stroke-miterlimit="10" x1="15.974" y1="15.974" x2="15.974" y2="10.519"/>
			<line fill="none" stroke="#000000" stroke-width="2" stroke-miterlimit="10" x1="13.246" y1="13.247" x2="13.246" y2="7.792"/>
			<line fill="none" stroke="#000000" stroke-width="2" stroke-miterlimit="10" x1="10.52" y1="10.519" x2="10.52" y2="5.064"/>
		</g>
		<g>
			<line fill="none" stroke="#000000" stroke-width="2" stroke-miterlimit="10" x1="72.122" y1="72.123" x2="82.5" y2="82.5"/>
			<polygon fill="none" stroke="#000000" stroke-width="2" stroke-miterlimit="10" points="87.707,78.048 78.048,87.708 
				92.538,92.537 			"/>
		</g>
	</g>
</g>
</svg>
