<?xml version="1.0" encoding="utf-8"?>
<!-- Generator: Adobe Illustrator 16.0.0, SVG Export Plug-In . SVG Version: 6.00 Build 0)  -->
<!DOCTYPE svg PUBLIC "-//W3C//DTD SVG 1.1//EN" "http://www.w3.org/Graphics/SVG/1.1/DTD/svg11.dtd">
<svg version="1.1" xmlns="http://www.w3.org/2000/svg" xmlns:xlink="http://www.w3.org/1999/xlink" x="0px" y="0px" width="100px"
	 height="100px" viewBox="0 0 100 100" enable-background="new 0 0 100 100" xml:space="preserve">
<g id="basic_x5F_heart_x5F_outline">
	<polygon fill="none" stroke="#000000" stroke-width="2" stroke-miterlimit="10" points="50,20 60,10 85,10 95,20 95,45 50,95 5,45 
		5,20 15,10 40,10 	"/>
</g>
<g id="details">
	<g>
		<g>
			<path fill="none" stroke="#000000" stroke-width="2" stroke-miterlimit="10" d="M84.836,29.225c0,2.125-1.722,3.847-3.847,3.847
				s-3.847-1.722-3.847-3.847s3.847-8.463,3.847-8.463S84.836,27.1,84.836,29.225z"/>
		</g>
		<line fill="none" stroke="#000000" stroke-width="2" stroke-miterlimit="10" x1="35" y1="25" x2="35" y2="35"/>
		<line fill="none" stroke="#000000" stroke-width="2" stroke-miterlimit="10" x1="65" y1="25" x2="65" y2="35"/>
		<rect x="35" y="55" fill="none" stroke="#000000" stroke-width="2" stroke-miterlimit="10" width="30" height="10"/>
		<line fill="none" stroke="#000000" stroke-width="2" stroke-miterlimit="10" x1="40" y1="55" x2="40" y2="65"/>
		<line fill="none" stroke="#000000" stroke-width="2" stroke-miterlimit="10" x1="45" y1="55" x2="45" y2="65"/>
		<line fill="none" stroke="#000000" stroke-width="2" stroke-miterlimit="10" x1="50" y1="55" x2="50" y2="65"/>
		<line fill="none" stroke="#000000" stroke-width="2" stroke-miterlimit="10" x1="55" y1="55" x2="55" y2="65"/>
		<line fill="none" stroke="#000000" stroke-width="2" stroke-miterlimit="10" x1="60" y1="55" x2="60" y2="65"/>
	</g>
</g>
</svg>
