<?xml version="1.0" encoding="utf-8"?>
<!-- Generator: Adobe Illustrator 16.0.0, SVG Export Plug-In . SVG Version: 6.00 Build 0)  -->
<!DOCTYPE svg PUBLIC "-//W3C//DTD SVG 1.1//EN" "http://www.w3.org/Graphics/SVG/1.1/DTD/svg11.dtd">
<svg version="1.1" xmlns="http://www.w3.org/2000/svg" xmlns:xlink="http://www.w3.org/1999/xlink" x="0px" y="0px" width="100px"
	 height="100px" viewBox="0 0 100 100" enable-background="new 0 0 100 100" xml:space="preserve">
<g id="basic_x5F_heart_x5F_outline">
	<polygon fill="none" stroke="#000000" stroke-width="2" stroke-miterlimit="10" points="50,20 60,10 85,10 95,20 95,45 50,95 5,45 
		5,20 15,10 40,10 	"/>
</g>
<g id="details">
	<g>
		<path fill="none" stroke="#000000" stroke-width="2" stroke-miterlimit="10" d="M35.466,52.669
			c0-8.027,6.507-14.534,14.534-14.534s14.534,6.507,14.534,14.534"/>
		<path fill="none" stroke="#000000" stroke-width="2" stroke-miterlimit="10" d="M72.839,52.669h-16.61
			c0-3.435-2.794-6.229-6.229-6.229s-6.229,2.794-6.229,6.229h-16.61c0-12.593,10.246-22.839,22.839-22.839
			S72.839,40.076,72.839,52.669z"/>
	</g>
</g>
</svg>
