<?xml version="1.0" encoding="utf-8"?>
<!-- Generator: Adobe Illustrator 16.0.0, SVG Export Plug-In . SVG Version: 6.00 Build 0)  -->
<!DOCTYPE svg PUBLIC "-//W3C//DTD SVG 1.1//EN" "http://www.w3.org/Graphics/SVG/1.1/DTD/svg11.dtd">
<svg version="1.1" xmlns="http://www.w3.org/2000/svg" xmlns:xlink="http://www.w3.org/1999/xlink" x="0px" y="0px" width="100px"
	 height="100px" viewBox="0 0 100 100" enable-background="new 0 0 100 100" xml:space="preserve">
<g id="basic_x5F_heart_x5F_outline">
	<polygon fill="none" stroke="#000000" stroke-width="2" stroke-miterlimit="10" points="50,20 60,10 85,10 95,20 95,45 50,95 5,45 
		5,20 15,10 40,10 	"/>
</g>
<g id="details">
	<g>
		<path fill="none" stroke="#000000" stroke-width="2" stroke-miterlimit="10" d="M67.968,25.113
			c2.779,2.778,3.447,6.613,1.496,8.565L41.179,61.963c-1.952,1.952-5.787,1.283-8.565-1.495l0,0
			c-2.778-2.778-3.447-6.613-1.495-8.565l28.285-28.285C61.355,21.666,65.191,22.335,67.968,25.113L67.968,25.113z"/>
		<g>
			
				<rect x="41.541" y="35.677" transform="matrix(0.7071 -0.7071 0.7071 0.7071 -15.5277 48.0933)" fill="none" stroke="#000000" stroke-width="2" stroke-miterlimit="10" width="17.501" height="14.228"/>
			<line fill="none" stroke="#000000" stroke-width="2" stroke-miterlimit="10" x1="43.357" y1="44.695" x2="45.125" y2="42.927"/>
			<line fill="none" stroke="#000000" stroke-width="2" stroke-miterlimit="10" x1="46.892" y1="41.16" x2="48.66" y2="39.392"/>
			<line fill="none" stroke="#000000" stroke-width="2" stroke-miterlimit="10" x1="50.427" y1="37.624" x2="52.195" y2="35.856"/>
			<line fill="none" stroke="#000000" stroke-width="2" stroke-miterlimit="10" x1="45.872" y1="47.21" x2="47.64" y2="45.442"/>
			<line fill="none" stroke="#000000" stroke-width="2" stroke-miterlimit="10" x1="49.408" y1="43.675" x2="51.175" y2="41.907"/>
			<line fill="none" stroke="#000000" stroke-width="2" stroke-miterlimit="10" x1="52.943" y1="40.139" x2="54.71" y2="38.372"/>
			<line fill="none" stroke="#000000" stroke-width="2" stroke-miterlimit="10" x1="48.386" y1="49.726" x2="50.155" y2="47.958"/>
			<line fill="none" stroke="#000000" stroke-width="2" stroke-miterlimit="10" x1="51.922" y1="46.19" x2="53.691" y2="44.422"/>
			<line fill="none" stroke="#000000" stroke-width="2" stroke-miterlimit="10" x1="55.458" y1="42.654" x2="57.226" y2="40.887"/>
		</g>
	</g>
</g>
</svg>
