<?xml version="1.0" encoding="utf-8"?>
<!-- Generator: Adobe Illustrator 16.0.0, SVG Export Plug-In . SVG Version: 6.00 Build 0)  -->
<!DOCTYPE svg PUBLIC "-//W3C//DTD SVG 1.1//EN" "http://www.w3.org/Graphics/SVG/1.1/DTD/svg11.dtd">
<svg version="1.1" id="Layer_1" xmlns="http://www.w3.org/2000/svg" xmlns:xlink="http://www.w3.org/1999/xlink" x="0px" y="0px"
	 width="32px" height="32px" viewBox="0 0 32 32" enable-background="new 0 0 32 32" xml:space="preserve">
<g>
	<g>
		<g>
			<g>
				<path d="M25.166,30.196H6.999c-0.706,0-1.279-0.574-1.279-1.279V2.575c0-0.704,0.573-1.278,1.279-1.278h18.167
					c0.705,0,1.278,0.574,1.278,1.278v26.342C26.444,29.622,25.871,30.196,25.166,30.196z M6.999,1.662
					c-0.504,0-0.914,0.41-0.914,0.913v26.342c0,0.504,0.41,0.914,0.914,0.914h18.167c0.503,0,0.913-0.41,0.913-0.914V2.575
					c0-0.503-0.41-0.913-0.913-0.913H6.999z"/>
			</g>
		</g>
		<g>
			<g>
				<circle cx="16.083" cy="27.777" r="0.746"/>
			</g>
		</g>
		<g>
			<g>
				<path d="M26.106,25.245H6.058c-0.1,0-0.182-0.083-0.182-0.183c0-0.101,0.082-0.183,0.182-0.183h20.049
					c0.102,0,0.182,0.082,0.182,0.183C26.288,25.163,26.208,25.245,26.106,25.245z"/>
			</g>
		</g>
		<g>
			<g>
				<path d="M11.828,18.668c-0.048,0-0.094-0.018-0.13-0.053c-0.071-0.071-0.071-0.188,0-0.258l8.509-8.509
					c0.071-0.072,0.188-0.072,0.259,0c0.072,0.072,0.072,0.187,0,0.258l-8.509,8.509C11.921,18.65,11.874,18.668,11.828,18.668z"/>
			</g>
		</g>
		<g>
			<g>
				<path d="M20.337,18.668c-0.047,0-0.093-0.018-0.129-0.053l-8.509-8.509c-0.072-0.072-0.072-0.187,0-0.258
					c0.071-0.072,0.187-0.072,0.258,0l8.51,8.509c0.071,0.07,0.071,0.187,0,0.258C20.431,18.65,20.384,18.668,20.337,18.668z"/>
			</g>
		</g>
	</g>
</g>
</svg>
