<?xml version="1.0" encoding="utf-8"?>
<!-- Generator: Adobe Illustrator 16.0.0, SVG Export Plug-In . SVG Version: 6.00 Build 0)  -->
<!DOCTYPE svg PUBLIC "-//W3C//DTD SVG 1.1//EN" "http://www.w3.org/Graphics/SVG/1.1/DTD/svg11.dtd">
<svg version="1.1" id="Layer_1" xmlns="http://www.w3.org/2000/svg" xmlns:xlink="http://www.w3.org/1999/xlink" x="0px" y="0px"
	 width="32px" height="32px" viewBox="0 0 32 32" enable-background="new 0 0 32 32" xml:space="preserve">
<g>
	<g>
		<g>
			<g>
				<g>
					<path d="M27.391,22.646H4.914c-0.705,0-1.278-0.574-1.278-1.278V6.202c0-0.705,0.573-1.278,1.278-1.278h22.477
						c0.703,0,1.278,0.574,1.278,1.278v15.166C28.669,22.072,28.094,22.646,27.391,22.646z M4.914,5.29
						c-0.504,0-0.913,0.41-0.913,0.913v15.166c0,0.503,0.409,0.913,0.913,0.913h22.477c0.503,0,0.913-0.409,0.913-0.913V6.202
						c0-0.503-0.41-0.913-0.913-0.913H4.914z"/>
				</g>
			</g>
			<g>
				<g>
					<path d="M30.705,26.568c-0.002,0-0.004,0-0.007,0H1.606c-0.07,0-0.136-0.041-0.166-0.106c-0.03-0.063-0.02-0.14,0.026-0.194
						l2.16-2.557c0.032-0.042,0.084-0.064,0.138-0.064h24.774c0.054,0,0.104,0.023,0.14,0.064l2.132,2.526
						c0.047,0.034,0.076,0.088,0.076,0.149C30.887,26.486,30.807,26.568,30.705,26.568z M1.999,26.203h28.305l-1.849-2.192H3.851
						L1.999,26.203z"/>
				</g>
			</g>
			<g>
				<g>
					<path d="M28.485,20.723H3.817c-0.101,0-0.182-0.082-0.182-0.183c0-0.101,0.081-0.182,0.182-0.182h24.668
						c0.102,0,0.184,0.082,0.184,0.182C28.669,20.641,28.587,20.723,28.485,20.723z"/>
				</g>
			</g>
		</g>
		<g>
			<g>
				<path d="M12.654,16.815c-0.047,0-0.095-0.018-0.129-0.053c-0.072-0.071-0.072-0.187,0-0.258l6.994-6.995
					c0.071-0.072,0.188-0.072,0.259,0c0.072,0.07,0.072,0.186,0,0.258l-6.995,6.995C12.748,16.797,12.701,16.815,12.654,16.815z"/>
			</g>
			<g>
				<path d="M19.65,16.815c-0.048,0-0.094-0.018-0.131-0.053l-6.993-6.995c-0.072-0.072-0.072-0.188,0-0.258
					c0.07-0.072,0.186-0.072,0.257,0l6.996,6.995c0.071,0.071,0.071,0.187,0,0.258C19.742,16.797,19.696,16.815,19.65,16.815z"/>
			</g>
		</g>
	</g>
</g>
</svg>
