<?xml version="1.0" encoding="utf-8"?>
<!-- Generator: Adobe Illustrator 16.0.0, SVG Export Plug-In . SVG Version: 6.00 Build 0)  -->
<!DOCTYPE svg PUBLIC "-//W3C//DTD SVG 1.1//EN" "http://www.w3.org/Graphics/SVG/1.1/DTD/svg11.dtd">
<svg version="1.1" id="Layer_1" xmlns="http://www.w3.org/2000/svg" xmlns:xlink="http://www.w3.org/1999/xlink" x="0px" y="0px"
	 width="32px" height="32px" viewBox="0 0 32 32" enable-background="new 0 0 32 32" xml:space="preserve">
<g>
	<g>
		<g>
			<g>
				<g>
					<path d="M19.677,22.808h-8.214c-1.108,0-2.009-0.902-2.009-2.009V10.693c0-1.108,0.9-2.008,2.009-2.008h8.214
						c1.108,0,2.01,0.9,2.01,2.008v10.106C21.687,21.906,20.785,22.808,19.677,22.808z M11.463,9.049
						c-0.906,0-1.644,0.737-1.644,1.644v10.106c0,0.906,0.737,1.644,1.644,1.644h8.214c0.906,0,1.645-0.738,1.645-1.644V10.693
						c0-0.906-0.738-1.644-1.645-1.644H11.463z"/>
				</g>
			</g>
			<g>
				<g>
					<path d="M22.818,14.325c-0.102,0-0.184-0.081-0.184-0.182v-2.287c0-0.101,0.082-0.182,0.184-0.182S23,11.755,23,11.856v2.287
						C23,14.244,22.92,14.325,22.818,14.325z"/>
				</g>
			</g>
			<g>
				<g>
					<path d="M19.311,7.703c-0.102,0-0.183-0.083-0.183-0.183V4.977c0-0.302-0.246-0.548-0.55-0.548h-6.017
						c-0.301,0-0.548,0.246-0.548,0.548V7.52c0,0.101-0.084,0.183-0.185,0.183s-0.182-0.083-0.182-0.183V4.977
						c0-0.503,0.409-0.914,0.914-0.914h6.017c0.506,0,0.914,0.41,0.914,0.914V7.52C19.492,7.621,19.411,7.703,19.311,7.703z"/>
				</g>
			</g>
			<g>
				<g>
					<path d="M18.578,27.428h-6.017c-0.505,0-0.914-0.41-0.914-0.913v-2.543c0-0.101,0.081-0.183,0.182-0.183
						s0.185,0.082,0.185,0.183v2.543c0,0.301,0.247,0.548,0.548,0.548h6.017c0.304,0,0.55-0.247,0.55-0.548v-2.543
						c0-0.101,0.081-0.183,0.183-0.183c0.101,0,0.182,0.082,0.182,0.183v2.543C19.492,27.019,19.084,27.428,18.578,27.428z"/>
				</g>
			</g>
		</g>
		<g>
			<g>
				<path d="M12.516,18.983c-0.048,0-0.095-0.018-0.131-0.053c-0.07-0.071-0.07-0.187,0-0.258l6.111-6.109
					c0.071-0.072,0.186-0.072,0.26,0c0.068,0.071,0.068,0.187,0,0.258l-6.111,6.109C12.607,18.965,12.562,18.983,12.516,18.983z"/>
			</g>
			<g>
				<path d="M18.626,18.983c-0.048,0-0.094-0.018-0.13-0.053l-6.109-6.109c-0.07-0.072-0.07-0.187,0-0.258
					c0.07-0.072,0.187-0.072,0.258,0l6.111,6.109c0.069,0.072,0.069,0.187,0,0.258C18.719,18.965,18.673,18.983,18.626,18.983z"/>
			</g>
		</g>
	</g>
</g>
</svg>
