<?xml version="1.0" encoding="utf-8"?>
<!-- Generator: Adobe Illustrator 16.0.0, SVG Export Plug-In . SVG Version: 6.00 Build 0)  -->
<!DOCTYPE svg PUBLIC "-//W3C//DTD SVG 1.1//EN" "http://www.w3.org/Graphics/SVG/1.1/DTD/svg11.dtd">
<svg version="1.1" id="Layer_1" xmlns="http://www.w3.org/2000/svg" xmlns:xlink="http://www.w3.org/1999/xlink" x="0px" y="0px"
	 width="32px" height="32px" viewBox="0 0 32 32" enable-background="new 0 0 32 32" xml:space="preserve">
<g>
	<g>
		<g>
			<g>
				<path d="M21.635,29.648H10.603c-0.704,0-1.279-0.574-1.279-1.279V3.123c0-0.705,0.575-1.279,1.279-1.279h11.032
					c0.705,0,1.278,0.574,1.278,1.279v25.247C22.913,29.074,22.34,29.648,21.635,29.648z M10.603,2.209
					c-0.504,0-0.914,0.41-0.914,0.913v25.247c0,0.504,0.41,0.914,0.914,0.914h11.032c0.503,0,0.913-0.41,0.913-0.914V3.123
					c0-0.503-0.41-0.913-0.913-0.913H10.603z"/>
			</g>
		</g>
		<g>
			<g>
				<path d="M22.54,24.635H9.697c-0.102,0-0.182-0.082-0.182-0.182c0-0.101,0.08-0.183,0.182-0.183H22.54
					c0.101,0,0.182,0.082,0.182,0.183C22.722,24.553,22.641,24.635,22.54,24.635z"/>
			</g>
		</g>
		<g>
			<g>
				<circle cx="16.118" cy="27.046" r="0.746"/>
			</g>
		</g>
		<g>
			<g>
				<path d="M13.063,17.104c-0.048,0-0.094-0.018-0.13-0.054c-0.07-0.071-0.07-0.187,0-0.258l6.11-6.11
					c0.07-0.071,0.187-0.071,0.258,0c0.071,0.072,0.071,0.188,0,0.259l-6.109,6.109C13.156,17.086,13.11,17.104,13.063,17.104z"/>
			</g>
		</g>
		<g>
			<g>
				<path d="M19.173,17.104c-0.047,0-0.092-0.018-0.129-0.054l-6.11-6.109c-0.07-0.071-0.07-0.187,0-0.259
					c0.073-0.071,0.188-0.071,0.259,0l6.11,6.11c0.071,0.071,0.071,0.187,0,0.258C19.267,17.086,19.22,17.104,19.173,17.104z"/>
			</g>
		</g>
	</g>
</g>
</svg>
