<?xml version="1.0" encoding="utf-8"?>
<!-- Generator: Adobe Illustrator 16.0.0, SVG Export Plug-In . SVG Version: 6.00 Build 0)  -->
<!DOCTYPE svg PUBLIC "-//W3C//DTD SVG 1.1//EN" "http://www.w3.org/Graphics/SVG/1.1/DTD/svg11.dtd">
<svg version="1.1" id="Layer_1" xmlns="http://www.w3.org/2000/svg" xmlns:xlink="http://www.w3.org/1999/xlink" x="0px" y="0px"
	 width="32px" height="32px" viewBox="0 0 32 32" enable-background="new 0 0 32 32" xml:space="preserve">
<g>
	<g>
		<g>
			<g>
				<g>
					<path d="M27.431,22.875H4.952c-0.704,0-1.277-0.574-1.277-1.278V6.431c0-0.706,0.573-1.278,1.277-1.278h22.479
						c0.702,0,1.276,0.572,1.276,1.278v15.166C28.707,22.301,28.133,22.875,27.431,22.875z M4.952,5.518
						c-0.504,0-0.912,0.41-0.912,0.913v15.166c0,0.503,0.408,0.913,0.912,0.913h22.479c0.501,0,0.912-0.41,0.912-0.913V6.431
						c0-0.503-0.411-0.913-0.912-0.913H4.952z"/>
				</g>
			</g>
			<g>
				<g>
					<path d="M28.525,20.951H3.856c-0.101,0-0.182-0.082-0.182-0.182s0.081-0.182,0.182-0.182h24.669
						c0.101,0,0.182,0.082,0.182,0.182S28.626,20.951,28.525,20.951z"/>
				</g>
			</g>
			<g>
				<g>
					<g>
						<path d="M11.281,26.111c-0.037,0-0.077-0.012-0.111-0.038c-0.078-0.062-0.095-0.176-0.033-0.256l2.512-3.243
							c0.062-0.079,0.177-0.093,0.257-0.032c0.08,0.062,0.095,0.176,0.031,0.256l-2.51,3.242
							C11.391,26.087,11.337,26.111,11.281,26.111z"/>
					</g>
				</g>
				<g>
					<g>
						<path d="M21.1,26.111c-0.055,0-0.108-0.024-0.145-0.071l-2.511-3.242c-0.062-0.08-0.048-0.194,0.032-0.256
							c0.081-0.061,0.193-0.047,0.257,0.032l2.512,3.243c0.061,0.08,0.046,0.194-0.033,0.256
							C21.177,26.099,21.139,26.111,21.1,26.111z"/>
					</g>
				</g>
			</g>
			<g>
				<g>
					<path d="M23.04,26.339H9.341c-0.101,0-0.181-0.081-0.181-0.182s0.08-0.183,0.181-0.183H23.04c0.102,0,0.183,0.081,0.183,0.183
						S23.142,26.339,23.04,26.339z"/>
				</g>
			</g>
		</g>
		<g>
			<g>
				<path d="M12.946,16.929c-0.048,0-0.095-0.019-0.13-0.054c-0.071-0.071-0.071-0.187,0-0.258l6.491-6.491
					c0.071-0.071,0.188-0.071,0.258,0c0.071,0.072,0.071,0.188,0,0.259l-6.491,6.49C13.04,16.91,12.991,16.929,12.946,16.929z"/>
			</g>
			<g>
				<path d="M19.436,16.929c-0.045,0-0.094-0.019-0.128-0.054l-6.491-6.49c-0.071-0.071-0.071-0.187,0-0.259
					c0.07-0.071,0.188-0.071,0.258,0l6.491,6.491c0.071,0.072,0.071,0.187,0,0.258C19.528,16.91,19.484,16.929,19.436,16.929z"/>
			</g>
		</g>
	</g>
</g>
</svg>
