<?xml version="1.0" encoding="utf-8"?>
<!-- Generator: Adobe Illustrator 16.0.0, SVG Export Plug-In . SVG Version: 6.00 Build 0)  -->
<!DOCTYPE svg PUBLIC "-//W3C//DTD SVG 1.1//EN" "http://www.w3.org/Graphics/SVG/1.1/DTD/svg11.dtd">
<svg version="1.1" id="Layer_1" xmlns="http://www.w3.org/2000/svg" xmlns:xlink="http://www.w3.org/1999/xlink" x="0px" y="0px"
	 width="64px" height="64px" viewBox="0 0 64 64" enable-background="new 0 0 64 64" xml:space="preserve">
<g>
	<g>
		<path fill="none" stroke="#000000" stroke-linecap="round" stroke-linejoin="round" stroke-miterlimit="10" d="M44.438,26.872
			c0,0-5.569,7.234-12.44,7.234c-6.869,0-12.438-7.234-12.438-7.234s5.568-7.236,12.438-7.236
			C38.869,19.636,44.438,26.872,44.438,26.872z"/>
		<path fill="none" stroke="#000000" stroke-linecap="round" stroke-linejoin="round" stroke-miterlimit="10" d="M37.122,26.872
			c0,2.828-2.291,5.122-5.124,5.122c-2.828,0-5.122-2.294-5.122-5.122c0-2.832,2.294-5.125,5.122-5.125
			C34.831,21.747,37.122,24.04,37.122,26.872z"/>
		<path d="M31.998,28.917c-1.127,0-2.046-0.916-2.046-2.044c0-1.132,0.919-2.048,2.046-2.048c1.131,0,2.05,0.917,2.05,2.048
			C34.048,28.001,33.129,28.917,31.998,28.917z"/>
	</g>
	<g>
		<g>
			<path d="M53.693,46.409H10.307c-1.93,0-3.5-1.57-3.5-3.5V14.156c0-1.93,1.57-3.5,3.5-3.5h43.387c1.93,0,3.5,1.57,3.5,3.5v28.753
				C57.193,44.838,55.623,46.409,53.693,46.409z M10.307,11.656c-1.378,0-2.5,1.122-2.5,2.5v28.753c0,1.378,1.122,2.5,2.5,2.5
				h43.387c1.378,0,2.5-1.122,2.5-2.5V14.156c0-1.378-1.122-2.5-2.5-2.5H10.307z"/>
		</g>
		<g>
			<path d="M56.693,42.555H7.307c-0.276,0-0.5-0.224-0.5-0.5s0.224-0.5,0.5-0.5h49.387c0.276,0,0.5,0.224,0.5,0.5
				S56.97,42.555,56.693,42.555z"/>
		</g>
		<g>
			<g>
				<path d="M22.17,52.889c-0.107,0-0.214-0.034-0.306-0.104c-0.218-0.169-0.258-0.483-0.089-0.702l5.029-6.493
					c0.169-0.218,0.483-0.257,0.702-0.089c0.218,0.169,0.258,0.483,0.089,0.702l-5.029,6.493
					C22.468,52.822,22.32,52.889,22.17,52.889z"/>
			</g>
			<g>
				<path d="M41.828,52.889c-0.149,0-0.297-0.066-0.396-0.194l-5.03-6.493c-0.169-0.218-0.129-0.532,0.089-0.702
					c0.217-0.169,0.533-0.129,0.702,0.089l5.03,6.493c0.169,0.218,0.129,0.532-0.089,0.702
					C42.042,52.854,41.935,52.889,41.828,52.889z"/>
			</g>
		</g>
		<g>
			<path d="M45.713,53.344H18.288c-0.276,0-0.5-0.224-0.5-0.5s0.224-0.5,0.5-0.5h27.425c0.276,0,0.5,0.224,0.5,0.5
				S45.989,53.344,45.713,53.344z"/>
		</g>
	</g>
</g>
</svg>
