<?xml version="1.0" encoding="utf-8"?>
<!-- Generator: Adobe Illustrator 16.0.0, SVG Export Plug-In . SVG Version: 6.00 Build 0)  -->
<!DOCTYPE svg PUBLIC "-//W3C//DTD SVG 1.1//EN" "http://www.w3.org/Graphics/SVG/1.1/DTD/svg11.dtd">
<svg version="1.1" id="Layer_1" xmlns="http://www.w3.org/2000/svg" xmlns:xlink="http://www.w3.org/1999/xlink" x="0px" y="0px"
	 width="64px" height="64px" viewBox="0 0 64 64" enable-background="new 0 0 64 64" xml:space="preserve">
<g>
	<g>
		<path d="M32.001,35.337c-7.036,0-12.603-7.125-12.836-7.429c-0.139-0.18-0.139-0.43,0-0.61c0.233-0.303,5.8-7.431,12.836-7.431
			c7.034,0,12.601,7.127,12.834,7.431c0.139,0.18,0.139,0.431,0,0.61C44.602,28.212,39.035,35.337,32.001,35.337z M20.207,27.604
			c1.142,1.353,6.047,6.734,11.794,6.734c5.753,0,10.652-5.381,11.792-6.734c-1.142-1.353-6.047-6.736-11.792-6.736
			C26.253,20.868,21.348,26.25,20.207,27.604z"/>
	</g>
	<g>
		<path d="M32.001,33.224c-3.103,0-5.627-2.521-5.627-5.621c0-3.103,2.524-5.627,5.627-5.627c3.101,0,5.623,2.524,5.623,5.627
			C37.624,30.703,35.102,33.224,32.001,33.224z M32.001,22.976c-2.551,0-4.627,2.076-4.627,4.627c0,2.548,2.076,4.621,4.627,4.621
			c2.549,0,4.623-2.073,4.623-4.621C36.624,25.052,34.55,22.976,32.001,22.976z"/>
	</g>
	<g>
		<path d="M32.001,29.649c-1.131,0-2.047-0.917-2.047-2.045c0-1.131,0.916-2.051,2.047-2.051c1.129,0,2.047,0.92,2.047,2.051
			C34.048,28.731,33.13,29.649,32.001,29.649z"/>
	</g>
	<g>
		<path d="M49.38,61.062H14.62c-1.93,0-3.5-1.57-3.5-3.5V6.438c0-1.93,1.57-3.5,3.5-3.5h34.76c1.93,0,3.5,1.57,3.5,3.5v51.125
			C52.88,59.492,51.31,61.062,49.38,61.062z M14.62,3.938c-1.378,0-2.5,1.122-2.5,2.5v51.125c0,1.378,1.122,2.5,2.5,2.5h34.76
			c1.378,0,2.5-1.122,2.5-2.5V6.438c0-1.378-1.122-2.5-2.5-2.5H14.62z"/>
	</g>
	<g>
		<circle cx="32" cy="56.087" r="1.491"/>
	</g>
	<g>
		<path d="M52.07,51.151h-40.14c-0.276,0-0.5-0.224-0.5-0.5s0.224-0.5,0.5-0.5h40.14c0.276,0,0.5,0.224,0.5,0.5
			S52.347,51.151,52.07,51.151z"/>
	</g>
</g>
</svg>
