<?xml version="1.0" encoding="utf-8"?>
<!-- Generator: Adobe Illustrator 16.0.0, SVG Export Plug-In . SVG Version: 6.00 Build 0)  -->
<!DOCTYPE svg PUBLIC "-//W3C//DTD SVG 1.1//EN" "http://www.w3.org/Graphics/SVG/1.1/DTD/svg11.dtd">
<svg version="1.1" id="Layer_1" xmlns="http://www.w3.org/2000/svg" xmlns:xlink="http://www.w3.org/1999/xlink" x="0px" y="0px"
	 width="64px" height="64px" viewBox="0 0 64 64" enable-background="new 0 0 64 64" xml:space="preserve">
<g>
	<g>
		<path fill="none" stroke="#000000" stroke-linecap="round" stroke-linejoin="round" stroke-miterlimit="10" d="M38.989,31.999
			c0,0-3.72,4.833-8.306,4.833c-4.588,0-8.304-4.833-8.304-4.833s3.716-4.83,8.304-4.83C35.269,27.169,38.989,31.999,38.989,31.999z
			"/>
		<path fill="none" stroke="#000000" stroke-linecap="round" stroke-linejoin="round" stroke-miterlimit="10" d="M33.201,31.999
			c0,1.391-1.127,2.521-2.518,2.521c-1.392,0-2.517-1.13-2.517-2.521c0-1.388,1.125-2.514,2.517-2.514
			C32.074,29.485,33.201,30.611,33.201,31.999z"/>
		<circle cx="30.683" cy="32.001" r="0.807"/>
	</g>
	<g>
		<g>
			<path d="M37.562,46.273H23.803c-3.033,0-5.5-2.467-5.5-5.5V23.226c0-3.033,2.467-5.5,5.5-5.5h13.759c3.033,0,5.5,2.467,5.5,5.5
				v17.548C43.062,43.806,40.595,46.273,37.562,46.273z M23.803,18.726c-2.481,0-4.5,2.019-4.5,4.5v17.548
				c0,2.481,2.019,4.5,4.5,4.5h13.759c2.481,0,4.5-2.019,4.5-4.5V23.226c0-2.481-2.019-4.5-4.5-4.5H23.803z"/>
		</g>
		<g>
			<path d="M45.197,29.293c-0.276,0-0.5-0.224-0.5-0.5v-4.579c0-0.276,0.224-0.5,0.5-0.5s0.5,0.224,0.5,0.5v4.579
				C45.697,29.069,45.473,29.293,45.197,29.293z"/>
		</g>
		<g>
			<path d="M38.169,16.031c-0.276,0-0.5-0.224-0.5-0.5v-4.552c0-0.827-0.673-1.5-1.5-1.5H25.196c-0.827,0-1.5,0.673-1.5,1.5v4.552
				c0,0.276-0.224,0.5-0.5,0.5s-0.5-0.224-0.5-0.5v-4.552c0-1.378,1.122-2.5,2.5-2.5h10.973c1.378,0,2.5,1.122,2.5,2.5v4.552
				C38.669,15.807,38.446,16.031,38.169,16.031z"/>
		</g>
		<g>
			<path d="M36.169,55.524H25.196c-1.378,0-2.5-1.122-2.5-2.5v-4.555c0-0.276,0.224-0.5,0.5-0.5s0.5,0.224,0.5,0.5v4.555
				c0,0.827,0.673,1.5,1.5,1.5h10.973c0.827,0,1.5-0.673,1.5-1.5v-4.555c0-0.276,0.224-0.5,0.5-0.5s0.5,0.224,0.5,0.5v4.555
				C38.669,54.402,37.548,55.524,36.169,55.524z"/>
		</g>
	</g>
</g>
</svg>
