<?xml version="1.0" encoding="utf-8"?>
<!-- Generator: Adobe Illustrator 16.0.0, SVG Export Plug-In . SVG Version: 6.00 Build 0)  -->
<!DOCTYPE svg PUBLIC "-//W3C//DTD SVG 1.1//EN" "http://www.w3.org/Graphics/SVG/1.1/DTD/svg11.dtd">
<svg version="1.1" id="Layer_1" xmlns="http://www.w3.org/2000/svg" xmlns:xlink="http://www.w3.org/1999/xlink" x="0px" y="0px"
	 width="64px" height="64px" viewBox="0 0 64 64" enable-background="new 0 0 64 64" xml:space="preserve">
<g>
	<g>
		<path fill="none" stroke="#000000" stroke-linecap="round" stroke-linejoin="round" stroke-miterlimit="10" d="M43.165,26.872
			c0,0-4.999,6.492-11.165,6.492s-11.162-6.492-11.162-6.492S25.834,20.377,32,20.377S43.165,26.872,43.165,26.872z"/>
		
			<circle fill="none" stroke="#000000" stroke-linecap="round" stroke-linejoin="round" stroke-miterlimit="10" cx="32" cy="26.872" r="3.744"/>
		<circle cx="32" cy="26.871" r="1.496"/>
	</g>
	<g>
		<g>
			<path d="M53.693,45.952H10.307c-1.93,0-3.5-1.57-3.5-3.5v-28.75c0-1.93,1.57-3.5,3.5-3.5h43.387c1.93,0,3.5,1.57,3.5,3.5v28.75
				C57.193,44.381,55.623,45.952,53.693,45.952z M10.307,11.202c-1.378,0-2.5,1.122-2.5,2.5v28.75c0,1.378,1.122,2.5,2.5,2.5h43.387
				c1.378,0,2.5-1.122,2.5-2.5v-28.75c0-1.378-1.122-2.5-2.5-2.5H10.307z"/>
		</g>
		<g>
			<path d="M61.14,53.803c-0.007-0.001-0.013,0-0.02,0H2.88c-0.194,0-0.372-0.113-0.454-0.289c-0.082-0.177-0.054-0.385,0.071-0.533
				l4.321-5.122c0.095-0.113,0.235-0.178,0.382-0.178H56.8c0.147,0,0.287,0.065,0.382,0.178l4.25,5.038
				c0.126,0.09,0.208,0.239,0.208,0.406C61.64,53.58,61.417,53.803,61.14,53.803z M3.956,52.803h56.088l-3.477-4.122H7.434
				L3.956,52.803z"/>
		</g>
		<g>
			<path d="M56.693,42.099H7.307c-0.276,0-0.5-0.224-0.5-0.5s0.224-0.5,0.5-0.5h49.387c0.276,0,0.5,0.224,0.5,0.5
				S56.97,42.099,56.693,42.099z"/>
		</g>
	</g>
</g>
</svg>
