<?xml version="1.0" encoding="utf-8"?>
<!-- Generator: Adobe Illustrator 16.0.0, SVG Export Plug-In . SVG Version: 6.00 Build 0)  -->
<!DOCTYPE svg PUBLIC "-//W3C//DTD SVG 1.1//EN" "http://www.w3.org/Graphics/SVG/1.1/DTD/svg11.dtd">
<svg version="1.1" id="Layer_1" xmlns="http://www.w3.org/2000/svg" xmlns:xlink="http://www.w3.org/1999/xlink" x="0px" y="0px"
	 width="64px" height="64px" viewBox="0 0 64 64" enable-background="new 0 0 64 64" xml:space="preserve">
<g>
	<g>
		<path d="M31.999,33.535c-4.653,0-8.323-4.698-8.477-4.897c-0.139-0.18-0.139-0.431,0-0.61c0.154-0.2,3.823-4.895,8.477-4.895
			c4.658,0,8.325,4.695,8.479,4.895c0.138,0.18,0.138,0.43,0,0.61C40.324,28.837,36.657,33.535,31.999,33.535z M24.568,28.332
			c0.877,1.014,3.916,4.203,7.431,4.203c3.525,0,6.558-3.188,7.432-4.202c-0.876-1.013-3.914-4.2-7.432-4.2
			C28.477,24.132,25.444,27.318,24.568,28.332z"/>
	</g>
	<g>
		<path d="M31.999,31.26c-1.612,0-2.924-1.313-2.924-2.928c0-1.613,1.312-2.925,2.924-2.925c1.614,0,2.928,1.312,2.928,2.925
			C34.927,29.946,33.613,31.26,31.999,31.26z M31.999,26.407c-1.061,0-1.924,0.863-1.924,1.925c0,1.063,0.863,1.928,1.924,1.928
			c1.063,0,1.928-0.865,1.928-1.928C33.927,27.271,33.062,26.407,31.999,26.407z"/>
	</g>
	<g>
		<circle cx="31.999" cy="28.334" r="0.969"/>
	</g>
	<g>
		<circle cx="31.999" cy="54.917" r="1.707"/>
	</g>
	<g>
		<path d="M42.237,59.968H21.763c-1.93,0-3.5-1.57-3.5-3.5V7.535c0-1.93,1.57-3.5,3.5-3.5h20.474c1.93,0,3.5,1.57,3.5,3.5v48.933
			C45.737,58.397,44.167,59.968,42.237,59.968z M21.763,5.035c-1.378,0-2.5,1.122-2.5,2.5v48.933c0,1.378,1.122,2.5,2.5,2.5h20.474
			c1.378,0,2.5-1.122,2.5-2.5V7.535c0-1.378-1.122-2.5-2.5-2.5H21.763z"/>
	</g>
	<g>
		<path d="M44.857,49.931H19.144c-0.276,0-0.5-0.224-0.5-0.5s0.224-0.5,0.5-0.5h25.713c0.276,0,0.5,0.224,0.5,0.5
			S45.134,49.931,44.857,49.931z"/>
	</g>
</g>
</svg>
