<?xml version="1.0" encoding="utf-8"?>
<!-- Generator: Adobe Illustrator 16.0.0, SVG Export Plug-In . SVG Version: 6.00 Build 0)  -->
<!DOCTYPE svg PUBLIC "-//W3C//DTD SVG 1.1//EN" "http://www.w3.org/Graphics/SVG/1.1/DTD/svg11.dtd">
<svg version="1.1" id="Layer_1" xmlns="http://www.w3.org/2000/svg" xmlns:xlink="http://www.w3.org/1999/xlink" x="0px" y="0px"
	 width="48px" height="48px" viewBox="0 0 48 48" enable-background="new 0 0 48 48" xml:space="preserve">
<g>
	<g>
		<g>
			<path d="M28.718,35.704H17.485c-1.515,0-2.748-1.232-2.748-2.748V19.138c0-1.514,1.233-2.746,2.748-2.746h11.232
				c1.514,0,2.747,1.232,2.747,2.746v13.818C31.465,34.472,30.231,35.704,28.718,35.704z M17.485,16.89
				c-1.24,0-2.248,1.01-2.248,2.248v13.818c0,1.24,1.008,2.248,2.248,2.248h11.232c1.239,0,2.247-1.008,2.247-2.248V19.138
				c0-1.238-1.008-2.248-2.247-2.248H17.485z"/>
		</g>
		<g>
			<path d="M33.013,24.104c-0.138,0-0.25-0.111-0.25-0.25v-3.125c0-0.139,0.112-0.25,0.25-0.25c0.139,0,0.25,0.111,0.25,0.25v3.125
				C33.263,23.993,33.151,24.104,33.013,24.104z"/>
		</g>
		<g>
			<path d="M28.216,15.048c-0.139,0-0.25-0.111-0.25-0.248v-3.479c0-0.412-0.336-0.75-0.75-0.75h-8.229
				c-0.413,0-0.749,0.338-0.749,0.75V14.8c0,0.137-0.111,0.248-0.25,0.248c-0.138,0-0.25-0.111-0.25-0.248v-3.479
				c0-0.689,0.561-1.248,1.249-1.248h8.229c0.689,0,1.249,0.559,1.249,1.248V14.8C28.465,14.937,28.354,15.048,28.216,15.048z"/>
		</g>
		<g>
			<path d="M27.216,42.022h-8.229c-0.688,0-1.249-0.561-1.249-1.25v-3.477c0-0.139,0.112-0.25,0.25-0.25
				c0.139,0,0.25,0.111,0.25,0.25v3.477c0,0.414,0.336,0.75,0.749,0.75h8.229c0.414,0,0.75-0.336,0.75-0.75v-3.477
				c0-0.139,0.111-0.25,0.25-0.25c0.138,0,0.249,0.111,0.249,0.25v3.477C28.465,41.462,27.905,42.022,27.216,42.022z"/>
		</g>
	</g>
	<g>
		<g>
			<path d="M23.102,31.536c-3.026,0-5.488-2.463-5.488-5.488s2.462-5.488,5.488-5.488c3.025,0,5.487,2.463,5.487,5.488
				S26.127,31.536,23.102,31.536z M23.102,21.06c-2.751,0-4.989,2.236-4.989,4.988c0,2.75,2.238,4.988,4.989,4.988
				c2.75,0,4.988-2.238,4.988-4.988C28.09,23.296,25.852,21.06,23.102,21.06z"/>
		</g>
		<g>
			<g>
				<path d="M23.102,27.452c-0.139,0-0.25-0.111-0.25-0.25v-4.23c0-0.137,0.111-0.25,0.25-0.25c0.138,0,0.249,0.113,0.249,0.25v4.23
					C23.351,27.341,23.239,27.452,23.102,27.452z"/>
			</g>
			<g>
				<rect x="22.941" y="28.804" width="0.319" height="0.318"/>
				<path d="M23.261,29.372h-0.319c-0.138,0-0.25-0.111-0.25-0.25v-0.318c0-0.139,0.112-0.25,0.25-0.25h0.319
					c0.138,0,0.25,0.111,0.25,0.25v0.318C23.511,29.261,23.398,29.372,23.261,29.372z"/>
			</g>
		</g>
	</g>
</g>
</svg>
