<?xml version="1.0" encoding="utf-8"?>
<!-- Generator: Adobe Illustrator 16.0.0, SVG Export Plug-In . SVG Version: 6.00 Build 0)  -->
<!DOCTYPE svg PUBLIC "-//W3C//DTD SVG 1.1//EN" "http://www.w3.org/Graphics/SVG/1.1/DTD/svg11.dtd">
<svg version="1.1" id="Layer_1" xmlns="http://www.w3.org/2000/svg" xmlns:xlink="http://www.w3.org/1999/xlink" x="0px" y="0px"
	 width="48px" height="48px" viewBox="0 0 48 48" enable-background="new 0 0 48 48" xml:space="preserve">
<g>
	<g>
		<path d="M31.542,43.01H16.457c-0.964,0-1.748-0.784-1.748-1.748V6.738c0-0.964,0.784-1.748,1.748-1.748h15.085
			c0.964,0,1.749,0.784,1.749,1.748v34.523C33.291,42.226,32.506,43.01,31.542,43.01z M16.457,5.489
			c-0.689,0-1.249,0.561-1.249,1.249v34.523c0,0.688,0.56,1.249,1.249,1.249h15.085c0.688,0,1.249-0.561,1.249-1.249V6.738
			c0-0.688-0.561-1.249-1.249-1.249H16.457z"/>
	</g>
	<g>
		<path d="M32.78,36.155H15.219c-0.138,0-0.25-0.111-0.25-0.25c0-0.138,0.112-0.249,0.25-0.249H32.78
			c0.138,0,0.249,0.111,0.249,0.249C33.029,36.044,32.918,36.155,32.78,36.155z"/>
	</g>
	<g>
		<circle cx="24" cy="39.452" r="1.02"/>
	</g>
	<g>
		<g>
			<path d="M24,27.415c-3.536,0-6.412-2.876-6.412-6.412s2.876-6.412,6.412-6.412c3.535,0,6.411,2.876,6.411,6.412
				S27.535,27.415,24,27.415z M24,15.091c-3.261,0-5.912,2.652-5.912,5.912s2.651,5.912,5.912,5.912c3.26,0,5.912-2.652,5.912-5.912
				S27.26,15.091,24,15.091z"/>
		</g>
		<g>
			<g>
				<path d="M24,22.611c-0.139,0-0.25-0.111-0.25-0.249v-4.977c0-0.139,0.111-0.25,0.25-0.25c0.138,0,0.25,0.111,0.25,0.25v4.977
					C24.25,22.5,24.138,22.611,24,22.611z"/>
			</g>
			<g>
				<rect x="23.812" y="24.245" width="0.376" height="0.375"/>
				<path d="M24.188,24.87h-0.376c-0.138,0-0.249-0.111-0.249-0.25v-0.375c0-0.139,0.111-0.25,0.249-0.25h0.376
					c0.138,0,0.25,0.111,0.25,0.25v0.375C24.438,24.759,24.325,24.87,24.188,24.87z"/>
			</g>
		</g>
	</g>
</g>
</svg>
