<?xml version="1.0" encoding="utf-8"?>
<!-- Generator: Adobe Illustrator 16.0.0, SVG Export Plug-In . SVG Version: 6.00 Build 0)  -->
<!DOCTYPE svg PUBLIC "-//W3C//DTD SVG 1.1//EN" "http://www.w3.org/Graphics/SVG/1.1/DTD/svg11.dtd">
<svg version="1.1" id="Layer_1" xmlns="http://www.w3.org/2000/svg" xmlns:xlink="http://www.w3.org/1999/xlink" x="0px" y="0px"
	 width="48px" height="48px" viewBox="0 0 48 48" enable-background="new 0 0 48 48" xml:space="preserve">
<g>
	<g>
		<g>
			<path d="M39.362,33.437H8.628c-0.964,0-1.748-0.785-1.748-1.749V10.95c0-0.964,0.784-1.748,1.748-1.748h30.734
				c0.965,0,1.748,0.784,1.748,1.748v20.737C41.11,32.651,40.327,33.437,39.362,33.437z M8.628,9.701
				c-0.689,0-1.249,0.561-1.249,1.249v20.737c0,0.689,0.56,1.249,1.249,1.249h30.734c0.689,0,1.249-0.56,1.249-1.249V10.95
				c0-0.688-0.56-1.249-1.249-1.249H8.628z"/>
		</g>
		<g>
			<path d="M43.896,38.798c-0.002,0-0.006,0-0.01,0H4.105c-0.097,0-0.186-0.057-0.227-0.144c-0.041-0.089-0.027-0.192,0.036-0.267
				l2.951-3.497c0.047-0.057,0.117-0.089,0.191-0.089h33.876c0.073,0,0.144,0.032,0.19,0.089l2.916,3.455
				c0.063,0.045,0.104,0.119,0.104,0.203C44.145,38.687,44.032,38.798,43.896,38.798z M4.643,38.299h38.705l-2.53-2.997H7.173
				L4.643,38.299z"/>
		</g>
		<g>
			<path d="M40.861,30.806H7.13c-0.139,0-0.25-0.111-0.25-0.249c0-0.139,0.111-0.25,0.25-0.25h33.731
				c0.138,0,0.249,0.111,0.249,0.25C41.11,30.694,40.999,30.806,40.861,30.806z"/>
		</g>
	</g>
	<g>
		<g>
			<path d="M23.995,26.416c-3.535,0-6.412-2.877-6.412-6.412s2.877-6.412,6.412-6.412s6.412,2.877,6.412,6.412
				S27.53,26.416,23.995,26.416z M23.995,14.092c-3.26,0-5.912,2.652-5.912,5.912s2.652,5.912,5.912,5.912s5.912-2.652,5.912-5.912
				S27.255,14.092,23.995,14.092z"/>
		</g>
		<g>
			<g>
				<path d="M23.995,21.612c-0.139,0-0.25-0.111-0.25-0.249v-4.977c0-0.139,0.111-0.25,0.25-0.25s0.25,0.111,0.25,0.25v4.977
					C24.245,21.501,24.134,21.612,23.995,21.612z"/>
			</g>
			<g>
				<rect x="23.808" y="23.246" width="0.375" height="0.375"/>
				<path d="M24.183,23.871h-0.375c-0.139,0-0.25-0.111-0.25-0.25v-0.375c0-0.139,0.111-0.25,0.25-0.25h0.375
					c0.139,0,0.25,0.111,0.25,0.25v0.375C24.433,23.76,24.321,23.871,24.183,23.871z"/>
			</g>
		</g>
	</g>
</g>
</svg>
