<?xml version="1.0" encoding="utf-8"?>
<!-- Generator: Adobe Illustrator 16.0.0, SVG Export Plug-In . SVG Version: 6.00 Build 0)  -->
<!DOCTYPE svg PUBLIC "-//W3C//DTD SVG 1.1//EN" "http://www.w3.org/Graphics/SVG/1.1/DTD/svg11.dtd">
<svg version="1.1" id="Layer_1" xmlns="http://www.w3.org/2000/svg" xmlns:xlink="http://www.w3.org/1999/xlink" x="0px" y="0px"
	 width="48px" height="48px" viewBox="0 0 48 48" enable-background="new 0 0 48 48" xml:space="preserve">
<g>
	<g>
		<path d="M36.421,43.758H11.578c-0.964,0-1.748-0.784-1.748-1.748V5.99c0-0.964,0.784-1.748,1.748-1.748h24.843
			c0.965,0,1.749,0.784,1.749,1.748v36.02C38.17,42.974,37.386,43.758,36.421,43.758z M11.578,4.741
			c-0.688,0-1.248,0.561-1.248,1.249v36.02c0,0.689,0.56,1.249,1.248,1.249h24.843c0.689,0,1.25-0.56,1.25-1.249V5.99
			c0-0.688-0.561-1.249-1.25-1.249H11.578z"/>
	</g>
	<g>
		<circle cx="24" cy="40.451" r="1.02"/>
	</g>
	<g>
		<path d="M37.708,36.988H10.293c-0.139,0-0.25-0.111-0.25-0.25c0-0.138,0.111-0.249,0.25-0.249h27.415
			c0.137,0,0.249,0.111,0.249,0.249C37.957,36.877,37.845,36.988,37.708,36.988z"/>
	</g>
	<g>
		<g>
			<path d="M24,30.184c-5.062,0-9.182-4.118-9.182-9.181s4.119-9.181,9.182-9.181s9.181,4.118,9.181,9.181S29.062,30.184,24,30.184z
				 M24,12.321c-4.787,0-8.682,3.895-8.682,8.682s3.895,8.682,8.682,8.682s8.682-3.895,8.682-8.682S28.787,12.321,24,12.321z"/>
		</g>
		<g>
			<g>
				<path d="M24,23.223c-0.139,0-0.25-0.112-0.25-0.25V15.76c0-0.138,0.111-0.25,0.25-0.25s0.25,0.112,0.25,0.25v7.213
					C24.25,23.11,24.139,23.223,24,23.223z"/>
			</g>
			<g>
				<rect x="23.728" y="25.701" width="0.544" height="0.545"/>
				<path d="M24.271,26.496h-0.544c-0.138,0-0.249-0.112-0.249-0.25v-0.545c0-0.138,0.111-0.249,0.249-0.249h0.544
					c0.139,0,0.25,0.111,0.25,0.249v0.545C24.521,26.384,24.41,26.496,24.271,26.496z"/>
			</g>
		</g>
	</g>
</g>
</svg>
