<?xml version="1.0" encoding="utf-8"?>
<!-- Generator: Adobe Illustrator 16.0.0, SVG Export Plug-In . SVG Version: 6.00 Build 0)  -->
<!DOCTYPE svg PUBLIC "-//W3C//DTD SVG 1.1//EN" "http://www.w3.org/Graphics/SVG/1.1/DTD/svg11.dtd">
<svg version="1.1" id="Layer_1" xmlns="http://www.w3.org/2000/svg" xmlns:xlink="http://www.w3.org/1999/xlink" x="0px" y="0px"
	 width="48px" height="48px" viewBox="0 0 48 48" enable-background="new 0 0 48 48" xml:space="preserve">
<g>
	<g>
		<g>
			<path d="M39.367,33.748H8.633c-0.965,0-1.748-0.784-1.748-1.748V11.263c0-0.964,0.783-1.749,1.748-1.749h30.734
				c0.965,0,1.748,0.785,1.748,1.749V32C41.115,32.964,40.332,33.748,39.367,33.748z M8.633,10.014c-0.689,0-1.248,0.56-1.248,1.249
				V32c0,0.688,0.559,1.249,1.248,1.249h30.734c0.689,0,1.25-0.561,1.25-1.249V11.263c0-0.689-0.561-1.249-1.25-1.249H8.633z"/>
		</g>
		<g>
			<path d="M40.865,31.118H7.135c-0.139,0-0.25-0.111-0.25-0.25c0-0.138,0.111-0.249,0.25-0.249h33.73
				c0.139,0,0.25,0.111,0.25,0.249C41.115,31.007,41.004,31.118,40.865,31.118z"/>
		</g>
		<g>
			<g>
				<path d="M17.287,38.174c-0.053,0-0.107-0.018-0.152-0.052c-0.109-0.085-0.129-0.242-0.045-0.352l3.436-4.433
					c0.084-0.109,0.24-0.129,0.35-0.045c0.109,0.085,0.129,0.242,0.045,0.352l-3.434,4.433
					C17.436,38.141,17.363,38.174,17.287,38.174z"/>
			</g>
			<g>
				<path d="M30.713,38.174c-0.074,0-0.148-0.033-0.197-0.097l-3.436-4.433c-0.084-0.109-0.064-0.267,0.045-0.352
					c0.109-0.084,0.266-0.064,0.352,0.045l3.434,4.433c0.084,0.109,0.064,0.267-0.045,0.352
					C30.82,38.156,30.766,38.174,30.713,38.174z"/>
			</g>
		</g>
		<g>
			<path d="M33.365,38.486h-18.73c-0.139,0-0.25-0.112-0.25-0.25s0.111-0.25,0.25-0.25h18.73c0.139,0,0.25,0.112,0.25,0.25
				S33.504,38.486,33.365,38.486z"/>
		</g>
	</g>
	<g>
		<g>
			<path d="M24,26.915c-3.535,0-6.412-2.876-6.412-6.411c0-3.536,2.877-6.412,6.412-6.412s6.412,2.876,6.412,6.412
				C30.412,24.039,27.535,26.915,24,26.915z M24,14.591c-3.26,0-5.912,2.652-5.912,5.913c0,3.26,2.652,5.912,5.912,5.912
				s5.912-2.652,5.912-5.912C29.912,17.243,27.26,14.591,24,14.591z"/>
		</g>
		<g>
			<g>
				<path d="M24,22.112c-0.139,0-0.25-0.112-0.25-0.25v-4.977c0-0.138,0.111-0.25,0.25-0.25s0.25,0.112,0.25,0.25v4.977
					C24.25,22,24.139,22.112,24,22.112z"/>
			</g>
			<g>
				<rect x="23.812" y="23.745" width="0.375" height="0.376"/>
				<path d="M24.188,24.371h-0.375c-0.139,0-0.25-0.112-0.25-0.25v-0.376c0-0.138,0.111-0.249,0.25-0.249h0.375
					c0.139,0,0.25,0.111,0.25,0.249v0.376C24.438,24.259,24.326,24.371,24.188,24.371z"/>
			</g>
		</g>
	</g>
</g>
</svg>
