<?xml version="1.0" encoding="utf-8"?>
<!-- Generator: Adobe Illustrator 16.0.0, SVG Export Plug-In . SVG Version: 6.00 Build 0)  -->
<!DOCTYPE svg PUBLIC "-//W3C//DTD SVG 1.1//EN" "http://www.w3.org/Graphics/SVG/1.1/DTD/svg11.dtd">
<svg version="1.1" id="Layer_1" xmlns="http://www.w3.org/2000/svg" xmlns:xlink="http://www.w3.org/1999/xlink" x="0px" y="0px"
	 width="64px" height="64px" viewBox="0 0 64 64" enable-background="new 0 0 64 64" xml:space="preserve">
<g>
	<g>
		<path d="M40.461,56.543H23.539c-1.93,0-3.5-1.57-3.5-3.5V11.477c0-1.93,1.57-3.5,3.5-3.5h16.922c1.93,0,3.5,1.57,3.5,3.5v41.566
			C43.961,54.973,42.391,56.543,40.461,56.543z M23.539,8.977c-1.379,0-2.5,1.121-2.5,2.5v41.566c0,1.379,1.121,2.5,2.5,2.5h16.922
			c1.379,0,2.5-1.121,2.5-2.5V11.477c0-1.379-1.121-2.5-2.5-2.5H23.539z"/>
	</g>
	<g>
		<path d="M43.133,47.852H20.867c-0.276,0-0.5-0.224-0.5-0.5s0.224-0.5,0.5-0.5h22.266c0.276,0,0.5,0.224,0.5,0.5
			S43.409,47.852,43.133,47.852z"/>
	</g>
	<g>
		<circle cx="32.001" cy="51.85" r="1.292"/>
	</g>
	<g>
		<g>
			<path d="M32,39.76c-0.163,0-0.316-0.08-0.41-0.214c-0.299-0.428-7.33-10.537-7.33-14.647c0-4.268,3.473-7.74,7.74-7.74
				s7.74,3.473,7.74,7.74c0,4.11-7.031,14.22-7.33,14.647C32.316,39.68,32.163,39.76,32,39.76z M32,18.158
				c-3.717,0-6.74,3.023-6.74,6.74c0,3.261,5.221,11.226,6.74,13.476c1.52-2.25,6.74-10.215,6.74-13.476
				C38.74,21.182,35.717,18.158,32,18.158z"/>
		</g>
		<g>
			<path d="M32,28.959c-2.273,0-4.123-1.85-4.123-4.123c0-2.274,1.85-4.125,4.123-4.125c2.274,0,4.125,1.851,4.125,4.125
				C36.125,27.109,34.274,28.959,32,28.959z M32,21.711c-1.722,0-3.123,1.402-3.123,3.125c0,1.722,1.401,3.123,3.123,3.123
				c1.723,0,3.125-1.401,3.125-3.123C35.125,23.113,33.723,21.711,32,21.711z"/>
		</g>
	</g>
</g>
</svg>
