<?xml version="1.0" encoding="utf-8"?>
<!-- Generator: Adobe Illustrator 16.0.0, SVG Export Plug-In . SVG Version: 6.00 Build 0)  -->
<!DOCTYPE svg PUBLIC "-//W3C//DTD SVG 1.1//EN" "http://www.w3.org/Graphics/SVG/1.1/DTD/svg11.dtd">
<svg version="1.1" id="Layer_1" xmlns="http://www.w3.org/2000/svg" xmlns:xlink="http://www.w3.org/1999/xlink" x="0px" y="0px"
	 width="64px" height="64px" viewBox="0 0 64 64" enable-background="new 0 0 64 64" xml:space="preserve">
<g>
	<g>
		<path d="M46.647,57.492H17.353c-1.93,0-3.5-1.57-3.5-3.5V10.527c0-1.93,1.57-3.5,3.5-3.5h29.295c1.93,0,3.5,1.57,3.5,3.5v43.465
			C50.147,55.922,48.577,57.492,46.647,57.492z M17.353,8.027c-1.379,0-2.5,1.121-2.5,2.5v43.465c0,1.379,1.121,2.5,2.5,2.5h29.295
			c1.379,0,2.5-1.121,2.5-2.5V10.527c0-1.379-1.121-2.5-2.5-2.5H17.353z"/>
	</g>
	<g>
		<path d="M33.293,53.115c0,0.715-0.579,1.293-1.295,1.293c-0.711,0-1.291-0.578-1.291-1.293c0-0.711,0.58-1.293,1.291-1.293
			C32.714,51.822,33.293,52.404,33.293,53.115z"/>
	</g>
	<g>
		<path d="M49.38,48.908H14.621c-0.276,0-0.5-0.224-0.5-0.5s0.224-0.5,0.5-0.5H49.38c0.276,0,0.5,0.224,0.5,0.5
			S49.656,48.908,49.38,48.908z"/>
	</g>
	<g>
		<g>
			<path d="M31.998,42.406L31.998,42.406c-0.163,0-0.316-0.08-0.41-0.214c-0.371-0.532-9.103-13.09-9.103-18.165
				c0-5.247,4.268-9.516,9.513-9.516c5.248,0,9.518,4.269,9.518,9.516c0,5.075-8.736,17.633-9.107,18.165
				C32.314,42.326,32.161,42.406,31.998,42.406z M31.998,15.512c-4.694,0-8.513,3.82-8.513,8.516c0,4.167,6.761,14.41,8.513,16.994
				c1.753-2.584,8.518-12.827,8.518-16.994C40.516,19.332,36.694,15.512,31.998,15.512z"/>
		</g>
		<g>
			<path d="M31.998,28.959c-2.763,0-5.011-2.248-5.011-5.012s2.248-5.012,5.011-5.012c2.765,0,5.015,2.248,5.015,5.012
				S34.763,28.959,31.998,28.959z M31.998,19.936c-2.212,0-4.011,1.8-4.011,4.012s1.799,4.012,4.011,4.012
				c2.214,0,4.015-1.8,4.015-4.012S34.212,19.936,31.998,19.936z"/>
		</g>
	</g>
</g>
</svg>
