<?xml version="1.0" encoding="utf-8"?>
<!-- Generator: Adobe Illustrator 16.0.0, SVG Export Plug-In . SVG Version: 6.00 Build 0)  -->
<!DOCTYPE svg PUBLIC "-//W3C//DTD SVG 1.1//EN" "http://www.w3.org/Graphics/SVG/1.1/DTD/svg11.dtd">
<svg version="1.1" id="Layer_1" xmlns="http://www.w3.org/2000/svg" xmlns:xlink="http://www.w3.org/1999/xlink" x="0px" y="0px"
	 width="64px" height="64px" viewBox="0 0 64 64" enable-background="new 0 0 64 64" xml:space="preserve">
<g>
	<g>
		<g>
			<path d="M50.383,44.801H13.617c-1.93,0-3.5-1.57-3.5-3.5V17.213c0-1.93,1.57-3.5,3.5-3.5h36.766c1.93,0,3.5,1.57,3.5,3.5v24.088
				C53.883,43.23,52.312,44.801,50.383,44.801z M13.617,14.713c-1.379,0-2.5,1.121-2.5,2.5v24.088c0,1.379,1.121,2.5,2.5,2.5h36.766
				c1.379,0,2.5-1.121,2.5-2.5V17.213c0-1.379-1.121-2.5-2.5-2.5H13.617z"/>
		</g>
		<g>
			<path d="M53.383,41.469H10.617c-0.276,0-0.5-0.224-0.5-0.5s0.224-0.5,0.5-0.5h42.766c0.276,0,0.5,0.224,0.5,0.5
				S53.659,41.469,53.383,41.469z"/>
		</g>
		<g>
			<g>
				<path d="M23.489,50.412c-0.107,0-0.215-0.034-0.307-0.104c-0.218-0.169-0.258-0.483-0.089-0.702l4.354-5.621
					c0.17-0.219,0.483-0.256,0.702-0.089c0.218,0.169,0.258,0.483,0.089,0.702l-4.354,5.621
					C23.786,50.346,23.639,50.412,23.489,50.412z"/>
			</g>
			<g>
				<path d="M40.509,50.412c-0.149,0-0.297-0.066-0.396-0.193l-4.354-5.621c-0.169-0.219-0.129-0.533,0.089-0.702
					c0.219-0.168,0.532-0.13,0.702,0.089l4.354,5.621c0.169,0.219,0.129,0.533-0.089,0.702
					C40.724,50.378,40.616,50.412,40.509,50.412z"/>
			</g>
		</g>
		<g>
			<path d="M43.873,50.807H20.125c-0.276,0-0.5-0.224-0.5-0.5s0.224-0.5,0.5-0.5h23.748c0.276,0,0.5,0.224,0.5,0.5
				S44.149,50.807,43.873,50.807z"/>
		</g>
	</g>
	<g>
		<path fill="none" stroke="#000000" stroke-linecap="round" stroke-linejoin="round" stroke-miterlimit="10" d="M37.872,24.939
			c0,3.242-5.874,11.648-5.874,11.648s-5.872-8.406-5.872-11.648c0-3.246,2.631-5.875,5.872-5.875
			C35.242,19.064,37.872,21.693,37.872,24.939z"/>
		<path fill="none" stroke="#000000" stroke-linecap="round" stroke-linejoin="round" stroke-miterlimit="10" d="M34.939,24.887
			c0,1.625-1.314,2.939-2.941,2.939c-1.621,0-2.938-1.314-2.938-2.939c0-1.623,1.317-2.939,2.938-2.939
			C33.625,21.947,34.939,23.264,34.939,24.887z"/>
	</g>
</g>
</svg>
