<?xml version="1.0" encoding="utf-8"?>
<!-- Generator: Adobe Illustrator 16.0.0, SVG Export Plug-In . SVG Version: 6.00 Build 0)  -->
<!DOCTYPE svg PUBLIC "-//W3C//DTD SVG 1.1//EN" "http://www.w3.org/Graphics/SVG/1.1/DTD/svg11.dtd">
<svg version="1.1" id="Layer_1" xmlns="http://www.w3.org/2000/svg" xmlns:xlink="http://www.w3.org/1999/xlink" x="0px" y="0px"
	 width="128px" height="128px" viewBox="0 0 128 128" enable-background="new 0 0 128 128" xml:space="preserve">
<g>
	<g>
		<path d="M64,66.196c-4.026,0-7.302-3.21-7.302-7.156V45.196c0-3.946,3.275-7.157,7.302-7.157s7.302,3.211,7.302,7.157V59.04
			C71.302,62.986,68.026,66.196,64,66.196z M64,40.039c-2.923,0-5.302,2.313-5.302,5.157V59.04c0,2.843,2.378,5.156,5.302,5.156
			s5.302-2.313,5.302-5.156V45.196C69.302,42.353,66.923,40.039,64,40.039z"/>
	</g>
	<g>
		<path d="M64,69.822c-6.15,0-11.153-3.976-11.153-8.862c0-0.552,0.448-1,1-1s1,0.448,1,1c0,3.784,4.106,6.862,9.153,6.862
			c5.046,0,9.152-3.079,9.152-6.862c0-0.552,0.448-1,1-1s1,0.448,1,1C75.152,65.847,70.149,69.822,64,69.822z"/>
	</g>
	<g>
		<path d="M64,76.63c-0.552,0-1-0.448-1-1v-6.808c0-0.552,0.448-1,1-1s1,0.448,1,1v6.808C65,76.182,64.552,76.63,64,76.63z"/>
	</g>
	<g>
		<path d="M70.683,76.771H57.315c-0.552,0-1-0.448-1-1s0.448-1,1-1h13.367c0.552,0,1,0.448,1,1S71.235,76.771,70.683,76.771z"/>
	</g>
	<g>
		<path d="M66.67,100.312c0,1.475-1.193,2.673-2.67,2.673c-1.475,0-2.673-1.198-2.673-2.673c0-1.472,1.198-2.669,2.673-2.669
			C65.477,97.644,66.67,98.841,66.67,100.312z"/>
	</g>
	<g>
		<path d="M81.71,108.435H46.29c-2.206,0-4-1.794-4-4v-79.94c0-2.206,1.794-4,4-4h35.42c2.206,0,4,1.794,4,4v79.94
			C85.71,106.64,83.916,108.435,81.71,108.435z M46.29,22.494c-1.103,0-2,0.897-2,2v79.94c0,1.103,0.897,2,2,2h35.42
			c1.103,0,2-0.897,2-2v-79.94c0-1.103-0.897-2-2-2H46.29z"/>
	</g>
	<g>
		<path d="M84.115,92.729H43.887c-0.552,0-1-0.448-1-1s0.448-1,1-1h40.229c0.552,0,1,0.448,1,1S84.667,92.729,84.115,92.729z"/>
	</g>
</g>
</svg>
