<?xml version="1.0" encoding="utf-8"?>
<!-- Generator: Adobe Illustrator 16.0.0, SVG Export Plug-In . SVG Version: 6.00 Build 0)  -->
<!DOCTYPE svg PUBLIC "-//W3C//DTD SVG 1.1//EN" "http://www.w3.org/Graphics/SVG/1.1/DTD/svg11.dtd">
<svg version="1.1" id="Layer_1" xmlns="http://www.w3.org/2000/svg" xmlns:xlink="http://www.w3.org/1999/xlink" x="0px" y="0px"
	 width="128px" height="128px" viewBox="0 0 128 128" enable-background="new 0 0 128 128" xml:space="preserve">
<g>
	<g>
		<path fill="none" stroke="#000000" stroke-width="2" stroke-linecap="round" stroke-linejoin="round" stroke-miterlimit="10" d="
			M69.989,57.819c0,3.226-2.677,5.851-5.991,5.851l0,0c-3.308,0-5.987-2.625-5.987-5.851V44.654c0-3.233,2.679-5.85,5.987-5.85l0,0
			c3.313,0,5.991,2.616,5.991,5.85V57.819z"/>
		<path fill="none" stroke="#000000" stroke-width="2" stroke-linecap="round" stroke-linejoin="round" stroke-miterlimit="10" d="
			M73.651,59.641c0,4.129-4.318,7.478-9.653,7.478l0,0c-5.33,0-9.65-3.349-9.65-7.478"/>
		
			<line fill="none" stroke="#000000" stroke-width="2" stroke-linecap="round" stroke-linejoin="round" stroke-miterlimit="10" x1="63.998" y1="67.118" x2="63.998" y2="73.589"/>
		
			<line fill="none" stroke="#000000" stroke-width="2" stroke-linecap="round" stroke-linejoin="round" stroke-miterlimit="10" x1="57.646" y1="73.722" x2="70.354" y2="73.722"/>
	</g>
	<g>
		<g>
			<path d="M99.633,87.225H28.367c-2.206,0-4-1.794-4-4v-48.37c0-2.206,1.794-4,4-4h71.267c2.206,0,4,1.794,4,4v48.37
				C103.633,85.43,101.839,87.225,99.633,87.225z M28.367,32.854c-1.103,0-2,0.897-2,2v48.37c0,1.103,0.897,2,2,2h71.267
				c1.103,0,2-0.897,2-2v-48.37c0-1.103-0.897-2-2-2H28.367z"/>
		</g>
		<g>
			<path d="M102.633,81.196H25.367c-0.552,0-1-0.448-1-1s0.448-1,1-1h77.267c0.552,0,1,0.448,1,1S103.186,81.196,102.633,81.196z"/>
		</g>
		<g>
			<g>
				<path d="M48.623,97.355c-0.214,0-0.43-0.068-0.612-0.209c-0.437-0.338-0.516-0.967-0.178-1.403l7.868-10.151
					c0.339-0.436,0.967-0.515,1.403-0.178c0.437,0.338,0.516,0.967,0.178,1.403l-7.868,10.151
					C49.216,97.222,48.921,97.355,48.623,97.355z"/>
			</g>
			<g>
				<path d="M79.376,97.355c-0.298,0-0.594-0.133-0.791-0.387l-7.87-10.151c-0.338-0.437-0.259-1.065,0.178-1.403
					c0.436-0.337,1.064-0.258,1.403,0.178l7.87,10.151c0.338,0.437,0.259,1.065-0.178,1.403
					C79.807,97.287,79.591,97.355,79.376,97.355z"/>
			</g>
		</g>
		<g>
			<path d="M85.454,98.07H42.548c-0.552,0-1-0.448-1-1s0.448-1,1-1h42.906c0.552,0,1,0.448,1,1S86.006,98.07,85.454,98.07z"/>
		</g>
	</g>
</g>
</svg>
