<?xml version="1.0" encoding="utf-8"?>
<!-- Generator: Adobe Illustrator 16.0.0, SVG Export Plug-In . SVG Version: 6.00 Build 0)  -->
<!DOCTYPE svg PUBLIC "-//W3C//DTD SVG 1.1//EN" "http://www.w3.org/Graphics/SVG/1.1/DTD/svg11.dtd">
<svg version="1.1" id="Layer_1" xmlns="http://www.w3.org/2000/svg" xmlns:xlink="http://www.w3.org/1999/xlink" x="0px" y="0px"
	 width="128px" height="128px" viewBox="0 0 128 128" enable-background="new 0 0 128 128" xml:space="preserve">
<g>
	<g>
		<path d="M64,66.472c-5.073,0-9.2-4.044-9.2-9.015V39.442c0-4.967,4.127-9.008,9.2-9.008c5.071,0,9.197,4.041,9.197,9.008v18.015
			C73.197,62.428,69.071,66.472,64,66.472z M64,32.435c-3.97,0-7.2,3.144-7.2,7.008v18.015c0,3.868,3.23,7.015,7.2,7.015
			c3.969,0,7.197-3.147,7.197-7.015V39.442C71.197,35.578,67.969,32.435,64,32.435z"/>
	</g>
	<g>
		<path d="M64,71.188c-7.838,0-14.214-5.038-14.214-11.23c0-0.552,0.448-1,1-1s1,0.448,1,1c0,5.09,5.479,9.23,12.214,9.23
			c6.733,0,12.21-4.141,12.21-9.23c0-0.552,0.448-1,1-1s1,0.448,1,1C78.21,66.15,71.835,71.188,64,71.188z"/>
	</g>
	<g>
		<path d="M64,80.043c-0.552,0-1-0.448-1-1v-8.854c0-0.552,0.448-1,1-1s1,0.448,1,1v8.854C65,79.595,64.552,80.043,64,80.043z"/>
	</g>
	<g>
		<path d="M72.701,80.228H55.303c-0.552,0-1-0.448-1-1s0.448-1,1-1h17.397c0.552,0,1,0.448,1,1S73.253,80.228,72.701,80.228z"/>
	</g>
	<g>
		<path d="M92.885,109.218h-57.77c-2.206,0-4-1.794-4-4V21.851c0-2.206,1.794-4,4-4h57.77c2.206,0,4,1.794,4,4v83.367
			C96.885,107.423,95.09,109.218,92.885,109.218z M35.115,19.851c-1.103,0-2,0.897-2,2v83.367c0,1.103,0.897,2,2,2h57.77
			c1.103,0,2-0.897,2-2V21.851c0-1.103-0.897-2-2-2H35.115z"/>
	</g>
	<g>
		<path d="M66.333,101.216c0,1.292-1.045,2.338-2.333,2.338c-1.288,0-2.333-1.046-2.333-2.338c0-1.286,1.045-2.337,2.333-2.337
			C65.287,98.879,66.333,99.93,66.333,101.216z"/>
	</g>
	<g>
		<path d="M95.399,93.719H32.6c-0.552,0-1-0.448-1-1s0.448-1,1-1h62.799c0.552,0,1,0.448,1,1S95.952,93.719,95.399,93.719z"/>
	</g>
</g>
</svg>
