<?xml version="1.0" encoding="utf-8"?>
<!-- Generator: Adobe Illustrator 16.0.0, SVG Export Plug-In . SVG Version: 6.00 Build 0)  -->
<!DOCTYPE svg PUBLIC "-//W3C//DTD SVG 1.1//EN" "http://www.w3.org/Graphics/SVG/1.1/DTD/svg11.dtd">
<svg version="1.1" id="Layer_1" xmlns="http://www.w3.org/2000/svg" xmlns:xlink="http://www.w3.org/1999/xlink" x="0px" y="0px"
	 width="128px" height="128px" viewBox="0 0 128 128" enable-background="new 0 0 128 128" xml:space="preserve">
<g>
	<g>
		<path fill="none" stroke="#000000" stroke-width="2" stroke-linecap="round" stroke-linejoin="round" stroke-miterlimit="10" d="
			M66.488,65.069c0,2.458-2.037,4.442-4.544,4.442l0,0c-2.519,0-4.556-1.984-4.556-4.442v-9.987c0-2.458,2.037-4.445,4.556-4.445
			l0,0c2.507,0,4.544,1.987,4.544,4.445V65.069z"/>
		<path fill="none" stroke="#000000" stroke-width="2" stroke-linecap="round" stroke-linejoin="round" stroke-miterlimit="10" d="
			M69.269,67.604c0,3.133-3.281,5.677-7.324,5.677l0,0c-4.055,0-7.336-2.544-7.336-5.677"/>
		
			<line fill="none" stroke="#000000" stroke-width="2" stroke-linecap="round" stroke-linejoin="round" stroke-miterlimit="10" x1="61.94" y1="73.28" x2="61.94" y2="78.19"/>
		
			<line fill="none" stroke="#000000" stroke-width="2" stroke-linecap="round" stroke-linejoin="round" stroke-miterlimit="10" x1="57.115" y1="78.293" x2="66.762" y2="78.293"/>
	</g>
	<g>
		<g>
			<path d="M75.525,87.014H48.354c-3.309,0-6-2.691-6-6V47.916c0-3.309,2.691-6,6-6h27.171c3.309,0,6,2.691,6,6v33.098
				C81.525,84.322,78.834,87.014,75.525,87.014z M48.354,43.916c-2.206,0-4,1.794-4,4v33.098c0,2.206,1.794,4,4,4h27.171
				c2.206,0,4-1.794,4-4V47.916c0-2.206-1.794-4-4-4H48.354z"/>
		</g>
		<g>
			<path d="M84.646,60.442c-0.552,0-1-0.448-1-1v-7.163c0-0.552,0.448-1,1-1s1,0.448,1,1v7.163
				C85.646,59.995,85.198,60.442,84.646,60.442z"/>
		</g>
		<g>
			<path d="M73.654,39.7c-0.552,0-1-0.448-1-1v-8.253c0-0.551-0.449-1-1-1H52.227c-0.551,0-1,0.449-1,1V38.7c0,0.552-0.448,1-1,1
				s-1-0.448-1-1v-8.253c0-1.654,1.346-3,3-3h19.428c1.654,0,3,1.346,3,3V38.7C74.654,39.252,74.207,39.7,73.654,39.7z"/>
		</g>
		<g>
			<path d="M71.654,101.483H52.227c-1.654,0-3-1.346-3-3v-8.255c0-0.552,0.448-1,1-1s1,0.448,1,1v8.255c0,0.551,0.449,1,1,1h19.428
				c0.551,0,1-0.449,1-1v-8.255c0-0.552,0.448-1,1-1s1,0.448,1,1v8.255C74.654,100.138,73.309,101.483,71.654,101.483z"/>
		</g>
	</g>
</g>
</svg>
