<?xml version="1.0" encoding="utf-8"?>
<!-- Generator: Adobe Illustrator 16.0.0, SVG Export Plug-In . SVG Version: 6.00 Build 0)  -->
<!DOCTYPE svg PUBLIC "-//W3C//DTD SVG 1.1//EN" "http://www.w3.org/Graphics/SVG/1.1/DTD/svg11.dtd">
<svg version="1.1" id="Layer_1" xmlns="http://www.w3.org/2000/svg" xmlns:xlink="http://www.w3.org/1999/xlink" x="0px" y="0px"
	 width="48px" height="48px" viewBox="0 0 48 48" enable-background="new 0 0 48 48" xml:space="preserve">
<g>
	<g>
		<path d="M39.367,33.748H8.632c-0.964,0-1.748-0.784-1.748-1.748V11.263c0-0.964,0.784-1.749,1.748-1.749h30.735
			c0.964,0,1.749,0.785,1.749,1.749V32C41.116,32.964,40.331,33.748,39.367,33.748z M8.632,10.014c-0.688,0-1.249,0.56-1.249,1.249
			V32c0,0.688,0.56,1.248,1.249,1.248h30.735c0.688,0,1.249-0.56,1.249-1.248V11.263c0-0.689-0.561-1.249-1.249-1.249H8.632z"/>
	</g>
	<g>
		<path d="M40.866,31.118H7.134c-0.138,0-0.25-0.112-0.25-0.25s0.111-0.25,0.25-0.25h33.732c0.138,0,0.25,0.112,0.25,0.25
			S41.004,31.118,40.866,31.118z"/>
	</g>
	<g>
		<g>
			<path d="M17.288,38.174c-0.054,0-0.107-0.018-0.153-0.053c-0.109-0.084-0.129-0.241-0.045-0.35l3.435-4.434
				c0.084-0.109,0.241-0.129,0.35-0.045c0.109,0.085,0.129,0.241,0.045,0.351l-3.434,4.434
				C17.436,38.141,17.362,38.174,17.288,38.174z"/>
		</g>
		<g>
			<path d="M30.712,38.174c-0.075,0-0.148-0.033-0.198-0.097l-3.434-4.434c-0.084-0.109-0.064-0.266,0.044-0.351
				c0.109-0.084,0.266-0.064,0.351,0.045l3.434,4.434c0.084,0.108,0.064,0.266-0.044,0.35C30.82,38.156,30.766,38.174,30.712,38.174
				z"/>
		</g>
	</g>
	<g>
		<path d="M33.366,38.486H14.634c-0.138,0-0.25-0.112-0.25-0.25c0-0.139,0.112-0.25,0.25-0.25h18.732c0.138,0,0.25,0.111,0.25,0.25
			C33.616,38.374,33.504,38.486,33.366,38.486z"/>
	</g>
</g>
</svg>
