<?xml version="1.0" encoding="utf-8"?>
<!-- Generator: Adobe Illustrator 16.0.0, SVG Export Plug-In . SVG Version: 6.00 Build 0)  -->
<!DOCTYPE svg PUBLIC "-//W3C//DTD SVG 1.1//EN" "http://www.w3.org/Graphics/SVG/1.1/DTD/svg11.dtd">
<svg version="1.1" id="Layer_1" xmlns="http://www.w3.org/2000/svg" xmlns:xlink="http://www.w3.org/1999/xlink" x="0px" y="0px"
	 width="48px" height="48px" viewBox="0 0 48 48" enable-background="new 0 0 48 48" xml:space="preserve">
<g>
	<g>
		<circle cx="24" cy="39.452" r="1.02"/>
	</g>
	<g>
		<path d="M31.543,43.01H16.457c-0.964,0-1.748-0.784-1.748-1.748V6.738c0-0.964,0.784-1.748,1.748-1.748h15.086
			c0.964,0,1.748,0.784,1.748,1.748v34.523C33.291,42.226,32.507,43.01,31.543,43.01z M16.457,5.489
			c-0.688,0-1.248,0.561-1.248,1.249v34.523c0,0.688,0.56,1.249,1.248,1.249h15.086c0.688,0,1.248-0.561,1.248-1.249V6.738
			c0-0.688-0.56-1.249-1.248-1.249H16.457z"/>
	</g>
	<g>
		<path d="M32.781,36.155H15.219c-0.138,0-0.249-0.112-0.249-0.25s0.111-0.25,0.249-0.25h17.562c0.138,0,0.249,0.112,0.249,0.25
			S32.919,36.155,32.781,36.155z"/>
	</g>
</g>
</svg>
