<?xml version="1.0" encoding="utf-8"?>
<!-- Generator: Adobe Illustrator 16.0.0, SVG Export Plug-In . SVG Version: 6.00 Build 0)  -->
<!DOCTYPE svg PUBLIC "-//W3C//DTD SVG 1.1//EN" "http://www.w3.org/Graphics/SVG/1.1/DTD/svg11.dtd">
<svg version="1.1" id="Layer_1" xmlns="http://www.w3.org/2000/svg" xmlns:xlink="http://www.w3.org/1999/xlink" x="0px" y="0px"
	 width="48px" height="48px" viewBox="0 0 48 48" enable-background="new 0 0 48 48" xml:space="preserve">
<g>
	<g>
		<path d="M36.421,43.759H11.579c-0.965,0-1.749-0.785-1.749-1.749V5.99c0-0.965,0.784-1.749,1.749-1.749h24.842
			c0.964,0,1.749,0.784,1.749,1.749v36.02C38.17,42.974,37.385,43.759,36.421,43.759z M11.579,4.741
			c-0.689,0-1.249,0.56-1.249,1.249v36.02c0,0.688,0.56,1.249,1.249,1.249h24.842c0.688,0,1.249-0.561,1.249-1.249V5.99
			c0-0.689-0.561-1.249-1.249-1.249H11.579z"/>
	</g>
	<g>
		<circle cx="24" cy="40.451" r="1.02"/>
	</g>
	<g>
		<path d="M37.707,36.988H10.293c-0.139,0-0.25-0.111-0.25-0.249c0-0.139,0.111-0.25,0.25-0.25h27.414c0.139,0,0.25,0.111,0.25,0.25
			C37.957,36.877,37.846,36.988,37.707,36.988z"/>
	</g>
</g>
</svg>
