<?xml version="1.0" encoding="utf-8"?>
<!-- Generator: Adobe Illustrator 16.0.0, SVG Export Plug-In . SVG Version: 6.00 Build 0)  -->
<!DOCTYPE svg PUBLIC "-//W3C//DTD SVG 1.1//EN" "http://www.w3.org/Graphics/SVG/1.1/DTD/svg11.dtd">
<svg version="1.1" id="Layer_1" xmlns="http://www.w3.org/2000/svg" xmlns:xlink="http://www.w3.org/1999/xlink" x="0px" y="0px"
	 width="48px" height="48px" viewBox="0 0 48 48" enable-background="new 0 0 48 48" xml:space="preserve">
<g>
	<g>
		<path d="M28.717,33.656H17.485c-1.515,0-2.748-1.232-2.748-2.747V17.091c0-1.515,1.233-2.748,2.748-2.748h11.231
			c1.515,0,2.748,1.233,2.748,2.748v13.818C31.465,32.424,30.231,33.656,28.717,33.656z M17.485,14.843
			c-1.24,0-2.248,1.008-2.248,2.248v13.818c0,1.239,1.008,2.248,2.248,2.248h11.231c1.24,0,2.248-1.009,2.248-2.248V17.091
			c0-1.24-1.008-2.248-2.248-2.248H17.485z"/>
	</g>
	<g>
		<path d="M33.013,22.057c-0.138,0-0.25-0.111-0.25-0.249v-3.126c0-0.139,0.112-0.25,0.25-0.25c0.139,0,0.25,0.111,0.25,0.25v3.126
			C33.263,21.945,33.151,22.057,33.013,22.057z"/>
	</g>
	<g>
		<path d="M28.215,13.001c-0.138,0-0.249-0.111-0.249-0.249V9.273c0-0.413-0.336-0.749-0.75-0.749h-8.229
			c-0.413,0-0.749,0.336-0.749,0.749v3.479c0,0.138-0.112,0.249-0.25,0.249s-0.25-0.111-0.25-0.249V9.273
			c0-0.688,0.561-1.248,1.249-1.248h8.229c0.689,0,1.249,0.56,1.249,1.248v3.479C28.465,12.89,28.354,13.001,28.215,13.001z"/>
	</g>
	<g>
		<path d="M27.216,39.975h-8.229c-0.688,0-1.249-0.56-1.249-1.248v-3.479c0-0.138,0.112-0.249,0.25-0.249s0.25,0.111,0.25,0.249
			v3.479c0,0.413,0.336,0.749,0.749,0.749h8.229c0.414,0,0.75-0.336,0.75-0.749v-3.479c0-0.138,0.111-0.249,0.249-0.249
			c0.139,0,0.25,0.111,0.25,0.249v3.479C28.465,39.415,27.905,39.975,27.216,39.975z"/>
	</g>
</g>
</svg>
