<?xml version="1.0" encoding="utf-8"?>
<!-- Generator: Adobe Illustrator 16.0.0, SVG Export Plug-In . SVG Version: 6.00 Build 0)  -->
<!DOCTYPE svg PUBLIC "-//W3C//DTD SVG 1.1//EN" "http://www.w3.org/Graphics/SVG/1.1/DTD/svg11.dtd">
<svg version="1.1" id="Layer_1" xmlns="http://www.w3.org/2000/svg" xmlns:xlink="http://www.w3.org/1999/xlink" x="0px" y="0px"
	 width="128px" height="128px" viewBox="0 0 128 128" enable-background="new 0 0 128 128" xml:space="preserve">
<g>
	<g>
		<path d="M70.9,45.54H57.099c-0.552,0-1-0.448-1-1v-8.896c0-0.552,0.448-1,1-1H70.9c0.552,0,1,0.448,1,1v8.896
			C71.9,45.092,71.453,45.54,70.9,45.54z M58.099,43.54H69.9v-6.896H58.099V43.54z"/>
	</g>
	<g>
		<g>
			<path d="M53.699,77.021H43.406c-0.552,0-1-0.448-1-1V65.729c0-0.552,0.448-1,1-1h10.293c0.552,0,1,0.448,1,1v10.293
				C54.699,76.574,54.251,77.021,53.699,77.021z M44.406,75.021h8.293v-8.293h-8.293V75.021z"/>
		</g>
		<g>
			<path d="M69.144,77.021H58.851c-0.552,0-1-0.448-1-1V65.729c0-0.552,0.448-1,1-1h10.293c0.552,0,1,0.448,1,1v10.293
				C70.144,76.574,69.696,77.021,69.144,77.021z M59.851,75.021h8.293v-8.293h-8.293V75.021z"/>
		</g>
		<g>
			<path d="M84.592,77.021H74.301c-0.552,0-1-0.448-1-1V65.729c0-0.552,0.448-1,1-1h10.292c0.552,0,1,0.448,1,1v10.293
				C85.592,76.574,85.145,77.021,84.592,77.021z M75.301,75.021h8.292v-8.293h-8.292V75.021z"/>
		</g>
	</g>
	<g>
		<path d="M64,65.479c-0.552,0-1-0.448-1-1V44.54c0-0.552,0.448-1,1-1s1,0.448,1,1v19.939C65,65.032,64.552,65.479,64,65.479z"/>
	</g>
	<g>
		<path d="M79.345,66.729c-0.552,0-1-0.448-1-1V55.503H49.654v10.226c0,0.552-0.448,1-1,1s-1-0.448-1-1V54.503c0-0.552,0.448-1,1-1
			h30.691c0.552,0,1,0.448,1,1v11.226C80.345,66.281,79.897,66.729,79.345,66.729z"/>
	</g>
	<g>
		<path d="M92.885,109.687h-57.77c-2.206,0-4-1.794-4-4V22.313c0-2.206,1.794-4,4-4h57.77c2.206,0,4,1.794,4,4v83.373
			C96.885,107.892,95.09,109.687,92.885,109.687z M35.115,20.313c-1.103,0-2,0.897-2,2v83.373c0,1.103,0.897,2,2,2h57.77
			c1.103,0,2-0.897,2-2V22.313c0-1.103-0.897-2-2-2H35.115z"/>
	</g>
	<g>
		<path d="M66.333,101.687c0,1.287-1.045,2.33-2.333,2.33c-1.288,0-2.333-1.043-2.333-2.33c0-1.291,1.045-2.333,2.333-2.333
			C65.287,99.354,66.333,100.396,66.333,101.687z"/>
	</g>
	<g>
		<path d="M95.399,94.179H32.6c-0.552,0-1-0.448-1-1s0.448-1,1-1h62.799c0.552,0,1,0.448,1,1S95.952,94.179,95.399,94.179z"/>
	</g>
</g>
</svg>
