<?xml version="1.0" encoding="utf-8"?>
<!-- Generator: Adobe Illustrator 16.0.0, SVG Export Plug-In . SVG Version: 6.00 Build 0)  -->
<!DOCTYPE svg PUBLIC "-//W3C//DTD SVG 1.1//EN" "http://www.w3.org/Graphics/SVG/1.1/DTD/svg11.dtd">
<svg version="1.1" id="Layer_1" xmlns="http://www.w3.org/2000/svg" xmlns:xlink="http://www.w3.org/1999/xlink" x="0px" y="0px"
	 width="128px" height="128px" viewBox="0 0 128 128" enable-background="new 0 0 128 128" xml:space="preserve">
<g>
	<g>
		
			<rect x="57.596" y="42.398" fill="none" stroke="#000000" stroke-width="2" stroke-linecap="round" stroke-linejoin="round" stroke-miterlimit="10" width="12.81" height="5.923"/>
		<g>
			
				<rect x="44.889" y="62.416" fill="none" stroke="#000000" stroke-width="2" stroke-linecap="round" stroke-linejoin="round" stroke-miterlimit="10" width="9.551" height="6.847"/>
			
				<rect x="59.227" y="62.416" fill="none" stroke="#000000" stroke-width="2" stroke-linecap="round" stroke-linejoin="round" stroke-miterlimit="10" width="9.548" height="6.847"/>
			
				<rect x="73.561" y="62.416" fill="none" stroke="#000000" stroke-width="2" stroke-linecap="round" stroke-linejoin="round" stroke-miterlimit="10" width="9.548" height="6.847"/>
		</g>
		
			<line fill="none" stroke="#000000" stroke-width="2" stroke-linecap="round" stroke-linejoin="round" stroke-miterlimit="10" x1="63.998" y1="48.321" x2="63.998" y2="61.584"/>
		
			<polyline fill="none" stroke="#000000" stroke-width="2" stroke-linecap="round" stroke-linejoin="round" stroke-miterlimit="10" points="
			49.758,62.416 49.758,54.948 78.243,54.948 78.243,62.416 		"/>
	</g>
	<g>
		<g>
			<path d="M99.633,86.76H28.367c-2.206,0-4-1.794-4-4V34.39c0-2.206,1.794-4,4-4h71.267c2.206,0,4,1.794,4,4v48.37
				C103.633,84.965,101.839,86.76,99.633,86.76z M28.367,32.39c-1.103,0-2,0.897-2,2v48.37c0,1.103,0.897,2,2,2h71.267
				c1.103,0,2-0.897,2-2V34.39c0-1.103-0.897-2-2-2H28.367z"/>
		</g>
		<g>
			<path d="M102.633,80.734H25.367c-0.552,0-1-0.448-1-1s0.448-1,1-1h77.267c0.552,0,1,0.448,1,1S103.186,80.734,102.633,80.734z"/>
		</g>
		<g>
			<g>
				<path d="M48.623,96.894c-0.214,0-0.43-0.068-0.612-0.209c-0.437-0.338-0.517-0.966-0.178-1.403l7.868-10.154
					c0.339-0.437,0.967-0.516,1.403-0.178c0.437,0.338,0.517,0.966,0.178,1.403l-7.868,10.154
					C49.216,96.76,48.921,96.894,48.623,96.894z"/>
			</g>
			<g>
				<path d="M79.376,96.894c-0.298,0-0.594-0.133-0.791-0.387l-7.87-10.154c-0.338-0.437-0.259-1.065,0.178-1.403
					c0.437-0.338,1.064-0.259,1.403,0.178l7.87,10.154c0.338,0.437,0.259,1.065-0.178,1.403
					C79.806,96.825,79.591,96.894,79.376,96.894z"/>
			</g>
		</g>
		<g>
			<path d="M85.454,97.611H42.548c-0.552,0-1-0.448-1-1s0.448-1,1-1h42.906c0.552,0,1,0.448,1,1S86.006,97.611,85.454,97.611z"/>
		</g>
	</g>
</g>
</svg>
