<?xml version="1.0" encoding="utf-8"?>
<!-- Generator: Adobe Illustrator 16.0.0, SVG Export Plug-In . SVG Version: 6.00 Build 0)  -->
<!DOCTYPE svg PUBLIC "-//W3C//DTD SVG 1.1//EN" "http://www.w3.org/Graphics/SVG/1.1/DTD/svg11.dtd">
<svg version="1.1" id="Layer_1" xmlns="http://www.w3.org/2000/svg" xmlns:xlink="http://www.w3.org/1999/xlink" x="0px" y="0px"
	 width="128px" height="128px" viewBox="0 0 128 128" enable-background="new 0 0 128 128" xml:space="preserve">
<g>
	<g>
		
			<rect x="57.603" y="52.338" fill="none" stroke="#000000" stroke-width="2" stroke-linecap="round" stroke-linejoin="round" stroke-miterlimit="10" width="8.676" height="5.142"/>
		<g>
			
				<rect x="48.991" y="69.718" fill="none" stroke="#000000" stroke-width="2" stroke-linecap="round" stroke-linejoin="round" stroke-miterlimit="10" width="6.473" height="5.948"/>
			
				<rect x="58.703" y="69.718" fill="none" stroke="#000000" stroke-width="2" stroke-linecap="round" stroke-linejoin="round" stroke-miterlimit="10" width="6.471" height="5.948"/>
			
				<rect x="68.414" y="69.718" fill="none" stroke="#000000" stroke-width="2" stroke-linecap="round" stroke-linejoin="round" stroke-miterlimit="10" width="6.471" height="5.948"/>
		</g>
		
			<line fill="none" stroke="#000000" stroke-width="2" stroke-linecap="round" stroke-linejoin="round" stroke-miterlimit="10" x1="61.94" y1="57.479" x2="61.94" y2="68.999"/>
		
			<polyline fill="none" stroke="#000000" stroke-width="2" stroke-linecap="round" stroke-linejoin="round" stroke-miterlimit="10" points="
			52.288,69.718 52.288,63.233 71.589,63.233 71.589,69.718 		"/>
	</g>
	<g>
		<g>
			<path d="M75.525,86.548H48.354c-3.309,0-6-2.691-6-6V47.452c0-3.309,2.691-6,6-6h27.171c3.309,0,6,2.691,6,6v33.096
				C81.525,83.856,78.834,86.548,75.525,86.548z M48.354,43.452c-2.206,0-4,1.794-4,4v33.096c0,2.206,1.794,4,4,4h27.171
				c2.206,0,4-1.794,4-4V47.452c0-2.206-1.794-4-4-4H48.354z"/>
		</g>
		<g>
			<path d="M84.646,59.978c-0.552,0-1-0.448-1-1V51.82c0-0.552,0.448-1,1-1s1,0.448,1,1v7.157
				C85.646,59.53,85.198,59.978,84.646,59.978z"/>
		</g>
		<g>
			<path d="M73.654,39.236c-0.552,0-1-0.448-1-1V29.98c0-0.551-0.449-1-1-1H52.227c-0.551,0-1,0.449-1,1v8.256c0,0.552-0.448,1-1,1
				s-1-0.448-1-1V29.98c0-1.654,1.346-3,3-3h19.428c1.654,0,3,1.346,3,3v8.256C74.654,38.789,74.207,39.236,73.654,39.236z"/>
		</g>
		<g>
			<path d="M71.654,101.023H52.227c-1.654,0-3-1.346-3-3v-8.256c0-0.552,0.448-1,1-1s1,0.448,1,1v8.256c0,0.551,0.449,1,1,1h19.428
				c0.551,0,1-0.449,1-1v-8.256c0-0.552,0.448-1,1-1s1,0.448,1,1v8.256C74.654,99.678,73.309,101.023,71.654,101.023z"/>
		</g>
	</g>
</g>
</svg>
