<?xml version="1.0" encoding="utf-8"?>
<!-- Generator: Adobe Illustrator 16.0.0, SVG Export Plug-In . SVG Version: 6.00 Build 0)  -->
<!DOCTYPE svg PUBLIC "-//W3C//DTD SVG 1.1//EN" "http://www.w3.org/Graphics/SVG/1.1/DTD/svg11.dtd">
<svg version="1.1" id="Layer_1" xmlns="http://www.w3.org/2000/svg" xmlns:xlink="http://www.w3.org/1999/xlink" x="0px" y="0px"
	 width="128px" height="128px" viewBox="0 0 128 128" enable-background="new 0 0 128 128" xml:space="preserve">
<g>
	<g>
		<path d="M68.72,50.249h-9.441c-0.552,0-1-0.448-1-1v-6.088c0-0.552,0.448-1,1-1h9.441c0.552,0,1,0.448,1,1v6.088
			C69.72,49.801,69.272,50.249,68.72,50.249z M60.278,48.249h7.441v-4.088h-7.441V48.249z"/>
	</g>
	<g>
		<g>
			<path d="M56.951,71.785h-7.039c-0.552,0-1-0.448-1-1v-7.04c0-0.552,0.448-1,1-1h7.039c0.552,0,1,0.448,1,1v7.04
				C57.951,71.337,57.503,71.785,56.951,71.785z M50.912,69.785h5.039v-5.04h-5.039V69.785z"/>
		</g>
		<g>
			<path d="M67.521,71.785h-7.041c-0.552,0-1-0.448-1-1v-7.04c0-0.552,0.448-1,1-1h7.041c0.552,0,1,0.448,1,1v7.04
				C68.521,71.337,68.073,71.785,67.521,71.785z M61.479,69.785h5.041v-5.04h-5.041V69.785z"/>
		</g>
		<g>
			<path d="M78.09,71.785h-7.041c-0.552,0-1-0.448-1-1v-7.04c0-0.552,0.448-1,1-1h7.041c0.552,0,1,0.448,1,1v7.04
				C79.09,71.337,78.642,71.785,78.09,71.785z M72.049,69.785h5.041v-5.04h-5.041V69.785z"/>
		</g>
	</g>
	<g>
		<path d="M64,63.897c-0.552,0-1-0.448-1-1V49.249c0-0.552,0.448-1,1-1s1,0.448,1,1v13.648C65,63.45,64.552,63.897,64,63.897z"/>
	</g>
	<g>
		<path d="M74.5,64.745c-0.552,0-1-0.448-1-1v-6.677H54.501v6.677c0,0.552-0.448,1-1,1s-1-0.448-1-1v-7.677c0-0.552,0.448-1,1-1
			H74.5c0.552,0,1,0.448,1,1v7.677C75.5,64.297,75.052,64.745,74.5,64.745z"/>
	</g>
	<g>
		<circle cx="63.999" cy="99.852" r="2.671"/>
	</g>
	<g>
		<path d="M81.71,107.971H46.29c-2.206,0-4-1.794-4-4V24.028c0-2.206,1.794-4,4-4h35.42c2.206,0,4,1.794,4,4v79.942
			C85.71,106.176,83.916,107.971,81.71,107.971z M46.29,22.028c-1.103,0-2,0.897-2,2v79.942c0,1.103,0.897,2,2,2h35.42
			c1.103,0,2-0.897,2-2V24.028c0-1.103-0.897-2-2-2H46.29z"/>
	</g>
	<g>
		<path d="M84.115,92.271H43.887c-0.552,0-1-0.448-1-1s0.448-1,1-1h40.229c0.552,0,1,0.448,1,1S84.667,92.271,84.115,92.271z"/>
	</g>
</g>
</svg>
