<?xml version="1.0" encoding="utf-8"?>
<!-- Generator: Adobe Illustrator 16.0.0, SVG Export Plug-In . SVG Version: 6.00 Build 0)  -->
<!DOCTYPE svg PUBLIC "-//W3C//DTD SVG 1.1//EN" "http://www.w3.org/Graphics/SVG/1.1/DTD/svg11.dtd">
<svg version="1.1" id="Layer_1" xmlns="http://www.w3.org/2000/svg" xmlns:xlink="http://www.w3.org/1999/xlink" x="0px" y="0px"
	 width="48px" height="48px" viewBox="0 0 48 48" enable-background="new 0 0 48 48" xml:space="preserve">
<g>
	<g>
		<g>
			<g>
				<path d="M18.228,23.713c-0.042,0-0.086-0.014-0.123-0.042c-0.089-0.067-0.106-0.195-0.039-0.286
					c0.068-0.089,1.708-2.219,5.166-2.219s5.012,2.133,5.076,2.225c0.064,0.091,0.043,0.218-0.048,0.283
					c-0.092,0.065-0.22,0.045-0.285-0.047c-0.015-0.02-1.505-2.051-4.743-2.051c-3.246,0-4.825,2.036-4.84,2.056
					C18.351,23.685,18.29,23.713,18.228,23.713z"/>
			</g>
			<g>
				<path d="M19.446,25.42c-0.043,0-0.086-0.014-0.123-0.042c-0.09-0.067-0.107-0.195-0.04-0.285
					c0.052-0.069,1.307-1.693,3.936-1.693c2.635,0,3.82,1.628,3.869,1.698c0.065,0.091,0.044,0.219-0.048,0.284
					s-0.218,0.044-0.285-0.047c-0.01-0.016-1.121-1.525-3.536-1.525c-2.417,0-3.598,1.515-3.609,1.53
					C19.569,25.393,19.508,25.42,19.446,25.42z"/>
			</g>
			<g>
				<path d="M25.085,26.996c-0.064,0-0.127-0.03-0.167-0.086c-0.021-0.029-0.547-0.734-1.718-0.734
					c-1.182,0-1.747,0.731-1.752,0.739c-0.068,0.091-0.196,0.107-0.286,0.041c-0.09-0.069-0.108-0.196-0.041-0.286
					c0.029-0.037,0.696-0.902,2.079-0.902c1.39,0,2.024,0.868,2.05,0.905c0.065,0.092,0.045,0.22-0.047,0.285
					C25.167,26.983,25.126,26.996,25.085,26.996z"/>
			</g>
		</g>
		<g>
			<circle cx="23.183" cy="28.204" r="0.472"/>
		</g>
	</g>
	<g>
		<g>
			<path d="M28.516,33.545H17.853c-1.237,0-2.244-1.006-2.244-2.244V18.291c0-1.238,1.007-2.244,2.244-2.244h10.663
				c1.237,0,2.244,1.006,2.244,2.244v13.011C30.76,32.54,29.753,33.545,28.516,33.545z M17.853,16.455
				c-1.013,0-1.836,0.824-1.836,1.836v13.011c0,1.012,0.823,1.836,1.836,1.836h10.663c1.013,0,1.836-0.824,1.836-1.836V18.291
				c0-1.012-0.823-1.836-1.836-1.836H17.853z"/>
		</g>
		<g>
			<path d="M32.188,23.008c-0.112,0-0.204-0.091-0.204-0.204v-2.839c0-0.113,0.092-0.205,0.204-0.205
				c0.113,0,0.203,0.092,0.203,0.205v2.839C32.392,22.917,32.302,23.008,32.188,23.008z"/>
		</g>
		<g>
			<path d="M27.831,14.782c-0.113,0-0.205-0.091-0.205-0.204v-3.251c0-0.337-0.274-0.612-0.611-0.612h-7.661
				c-0.337,0-0.611,0.274-0.611,0.612v3.251c0,0.113-0.092,0.204-0.204,0.204s-0.204-0.091-0.204-0.204v-3.251
				c0-0.562,0.458-1.02,1.02-1.02h7.661c0.562,0,1.02,0.458,1.02,1.02v3.251C28.034,14.691,27.943,14.782,27.831,14.782z"/>
		</g>
		<g>
			<path d="M27.015,39.287h-7.661c-0.562,0-1.02-0.458-1.02-1.02v-3.251c0-0.113,0.092-0.205,0.204-0.205s0.204,0.092,0.204,0.205
				v3.251c0,0.337,0.274,0.612,0.611,0.612h7.661c0.337,0,0.611-0.274,0.611-0.612v-3.251c0-0.113,0.092-0.205,0.205-0.205
				c0.112,0,0.203,0.092,0.203,0.205v3.251C28.034,38.829,27.577,39.287,27.015,39.287z"/>
		</g>
	</g>
</g>
</svg>
