<?xml version="1.0" encoding="utf-8"?>
<!-- Generator: Adobe Illustrator 16.0.0, SVG Export Plug-In . SVG Version: 6.00 Build 0)  -->
<!DOCTYPE svg PUBLIC "-//W3C//DTD SVG 1.1//EN" "http://www.w3.org/Graphics/SVG/1.1/DTD/svg11.dtd">
<svg version="1.1" id="Layer_1" xmlns="http://www.w3.org/2000/svg" xmlns:xlink="http://www.w3.org/1999/xlink" x="0px" y="0px"
	 width="48px" height="48px" viewBox="0 0 48 48" enable-background="new 0 0 48 48" xml:space="preserve">
<g>
	<g>
		<g>
			<g>
				<path d="M16.578,19.33c-0.042,0-0.086-0.014-0.122-0.042c-0.091-0.067-0.108-0.195-0.041-0.285
					c0.102-0.134,2.528-3.28,7.647-3.28c5.124,0,7.421,3.151,7.517,3.285c0.065,0.092,0.044,0.218-0.047,0.284
					c-0.092,0.066-0.22,0.044-0.285-0.048c-0.022-0.031-2.28-3.112-7.185-3.112c-4.907,0-7.298,3.085-7.32,3.116
					C16.701,19.302,16.641,19.33,16.578,19.33z"/>
			</g>
			<g>
				<path d="M18.407,21.884c-0.043,0-0.086-0.013-0.122-0.041c-0.091-0.067-0.108-0.196-0.041-0.286
					c0.077-0.102,1.918-2.491,5.802-2.491c3.889,0,5.634,2.394,5.706,2.496c0.066,0.091,0.045,0.218-0.047,0.284
					c-0.092,0.064-0.219,0.044-0.285-0.047c-0.017-0.023-1.705-2.323-5.374-2.323c-3.683,0-5.458,2.305-5.477,2.328
					C18.529,21.856,18.469,21.884,18.407,21.884z"/>
			</g>
			<g>
				<path d="M21.156,24.242c-0.043,0-0.086-0.014-0.123-0.041c-0.09-0.068-0.108-0.195-0.04-0.285
					c0.04-0.054,1.006-1.309,3.029-1.309c2.024,0,2.943,1.259,2.981,1.313c0.064,0.091,0.043,0.218-0.048,0.284
					c-0.093,0.065-0.219,0.044-0.284-0.047c-0.034-0.046-0.844-1.141-2.649-1.141c-1.812,0-2.667,1.098-2.703,1.146
					C21.279,24.214,21.218,24.242,21.156,24.242z"/>
			</g>
		</g>
		<g>
			<circle cx="23.997" cy="26.152" r="0.705"/>
		</g>
	</g>
	<g>
		<g>
			<path d="M38.096,33.347H9.899c-0.787,0-1.428-0.641-1.428-1.428V12.805c0-0.787,0.641-1.428,1.428-1.428h28.196
				c0.787,0,1.428,0.641,1.428,1.428v19.114C39.523,32.706,38.883,33.347,38.096,33.347z M9.899,11.784
				c-0.562,0-1.02,0.458-1.02,1.021v19.114c0,0.563,0.458,1.02,1.02,1.02h28.196c0.562,0,1.02-0.457,1.02-1.02V12.805
				c0-0.562-0.457-1.021-1.02-1.021H9.899z"/>
		</g>
		<g>
			<path d="M42.07,38.218c-0.002,0-0.005,0-0.008,0H5.929c-0.078,0-0.15-0.046-0.185-0.118c-0.033-0.072-0.022-0.156,0.029-0.217
				l2.682-3.177c0.038-0.046,0.096-0.072,0.156-0.072h30.77c0.061,0,0.117,0.026,0.156,0.072l2.652,3.143
				c0.052,0.037,0.085,0.097,0.085,0.166C42.274,38.126,42.183,38.218,42.07,38.218z M6.368,37.811h35.256l-2.338-2.77H8.705
				L6.368,37.811z"/>
		</g>
		<g>
			<path d="M39.319,30.956H8.676c-0.113,0-0.204-0.09-0.204-0.203s0.091-0.205,0.204-0.205h30.644c0.112,0,0.204,0.092,0.204,0.205
				S39.432,30.956,39.319,30.956z"/>
		</g>
	</g>
</g>
</svg>
