<?xml version="1.0" encoding="utf-8"?>
<!-- Generator: Adobe Illustrator 16.0.0, SVG Export Plug-In . SVG Version: 6.00 Build 0)  -->
<!DOCTYPE svg PUBLIC "-//W3C//DTD SVG 1.1//EN" "http://www.w3.org/Graphics/SVG/1.1/DTD/svg11.dtd">
<svg version="1.1" id="Layer_1" xmlns="http://www.w3.org/2000/svg" xmlns:xlink="http://www.w3.org/1999/xlink" x="0px" y="0px"
	 width="48px" height="48px" viewBox="0 0 48 48" enable-background="new 0 0 48 48" xml:space="preserve">
<g>
	<g>
		<g>
			<g>
				<path d="M19.393,21.917c-0.045,0-0.088-0.013-0.123-0.042c-0.092-0.067-0.109-0.195-0.041-0.285
					c0.064-0.084,1.592-2.068,4.812-2.068c3.223,0,4.672,1.988,4.732,2.073c0.064,0.091,0.043,0.218-0.047,0.284
					c-0.092,0.065-0.221,0.044-0.285-0.047c-0.014-0.019-1.398-1.9-4.4-1.9c-3.008,0-4.473,1.886-4.486,1.905
					C19.514,21.89,19.453,21.917,19.393,21.917z"/>
			</g>
			<g>
				<path d="M20.525,23.506c-0.043,0-0.086-0.014-0.123-0.042c-0.09-0.068-0.107-0.195-0.041-0.286
					c0.049-0.064,1.219-1.579,3.672-1.579c2.451,0,3.559,1.519,3.605,1.584c0.066,0.091,0.043,0.218-0.049,0.284
					c-0.09,0.065-0.217,0.044-0.283-0.047c-0.01-0.014-1.041-1.413-3.273-1.413c-2.24,0-3.334,1.403-3.346,1.417
					C20.648,23.478,20.586,23.506,20.525,23.506z"/>
			</g>
			<g>
				<path d="M25.764,24.969c-0.062,0-0.125-0.03-0.166-0.085c-0.02-0.026-0.506-0.676-1.584-0.676c-1.082,0-1.596,0.653-1.617,0.681
					c-0.068,0.09-0.195,0.107-0.285,0.039c-0.09-0.067-0.107-0.195-0.041-0.285c0.027-0.034,0.65-0.842,1.943-0.842
					c1.297,0,1.893,0.812,1.916,0.847c0.066,0.091,0.045,0.219-0.047,0.285C25.848,24.957,25.805,24.969,25.764,24.969z"/>
			</g>
		</g>
		<g>
			<circle cx="23.999" cy="26.079" r="0.437"/>
		</g>
	</g>
	<g>
		<circle cx="24" cy="39.015" r="1.061"/>
	</g>
	<g>
		<path d="M30.988,42.042H17.01c-0.787,0-1.428-0.641-1.428-1.427V8.978c0-0.788,0.641-1.428,1.428-1.428h13.979
			c0.789,0,1.43,0.641,1.43,1.428v31.636C32.418,41.401,31.777,42.042,30.988,42.042z M17.01,7.958c-0.562,0-1.02,0.458-1.02,1.02
			v31.636c0,0.562,0.457,1.02,1.02,1.02h13.979c0.562,0,1.02-0.458,1.02-1.02V8.978c0-0.562-0.457-1.02-1.02-1.02H17.01z"/>
	</g>
	<g>
		<path d="M31.975,35.816H16.023c-0.113,0-0.205-0.092-0.205-0.205s0.092-0.204,0.205-0.204h15.951c0.113,0,0.205,0.091,0.205,0.204
			S32.088,35.816,31.975,35.816z"/>
	</g>
</g>
</svg>
