<?xml version="1.0" encoding="utf-8"?>
<!-- Generator: Adobe Illustrator 16.0.0, SVG Export Plug-In . SVG Version: 6.00 Build 0)  -->
<!DOCTYPE svg PUBLIC "-//W3C//DTD SVG 1.1//EN" "http://www.w3.org/Graphics/SVG/1.1/DTD/svg11.dtd">
<svg version="1.1" id="Layer_1" xmlns="http://www.w3.org/2000/svg" xmlns:xlink="http://www.w3.org/1999/xlink" x="0px" y="0px"
	 width="48px" height="48px" viewBox="0 0 48 48" enable-background="new 0 0 48 48" xml:space="preserve">
<g>
	<g>
		<g>
			<path d="M16.583,20.237c-0.044,0-0.086-0.014-0.123-0.042c-0.09-0.067-0.108-0.195-0.04-0.286
				c0.102-0.133,2.526-3.279,7.646-3.279c5.122,0,7.422,3.15,7.518,3.284c0.064,0.092,0.043,0.219-0.048,0.284
				c-0.092,0.065-0.22,0.045-0.285-0.046c-0.022-0.031-2.281-3.113-7.185-3.113c-4.919,0-7.297,3.085-7.32,3.117
				C16.706,20.21,16.645,20.237,16.583,20.237z"/>
		</g>
		<g>
			<path d="M18.409,22.792c-0.043,0-0.086-0.013-0.122-0.042c-0.091-0.068-0.108-0.195-0.041-0.285
				c0.077-0.102,1.92-2.49,5.806-2.49c3.887,0,5.634,2.394,5.707,2.495c0.065,0.091,0.044,0.218-0.048,0.284
				c-0.092,0.065-0.219,0.044-0.285-0.047c-0.016-0.023-1.707-2.323-5.374-2.323c-3.674,0-5.462,2.304-5.479,2.327
				C18.532,22.764,18.471,22.792,18.409,22.792z"/>
		</g>
		<g>
			<path d="M21.16,25.147c-0.044,0-0.086-0.014-0.123-0.042c-0.09-0.067-0.108-0.195-0.04-0.285c0.04-0.054,1.005-1.307,3.03-1.307
				s2.942,1.257,2.979,1.311c0.065,0.092,0.044,0.218-0.047,0.284c-0.092,0.065-0.219,0.044-0.284-0.047
				c-0.034-0.047-0.843-1.139-2.648-1.139c-1.813,0-2.669,1.097-2.704,1.144C21.282,25.12,21.221,25.147,21.16,25.147z"/>
		</g>
	</g>
	<g>
		<circle cx="24" cy="27.06" r="0.705"/>
	</g>
	<g>
		<path d="M35.422,42.723H12.579c-0.788,0-1.429-0.641-1.429-1.428V8.298c0-0.788,0.641-1.428,1.429-1.428h22.843
			c0.787,0,1.428,0.641,1.428,1.428v32.997C36.85,42.083,36.209,42.723,35.422,42.723z M12.579,7.278
			c-0.563,0-1.021,0.458-1.021,1.02v32.997c0,0.562,0.457,1.02,1.021,1.02h22.843c0.562,0,1.021-0.458,1.021-1.02V8.298
			c0-0.562-0.458-1.02-1.021-1.02H12.579z"/>
	</g>
	<g>
		<circle cx="24" cy="39.743" r="0.926"/>
	</g>
	<g>
		<path d="M36.454,36.572H11.547c-0.112,0-0.203-0.091-0.203-0.204s0.091-0.204,0.203-0.204h24.907c0.112,0,0.203,0.091,0.203,0.204
			S36.566,36.572,36.454,36.572z"/>
	</g>
</g>
</svg>
