<?xml version="1.0" encoding="utf-8"?>
<!-- Generator: Adobe Illustrator 16.0.0, SVG Export Plug-In . SVG Version: 6.00 Build 0)  -->
<!DOCTYPE svg PUBLIC "-//W3C//DTD SVG 1.1//EN" "http://www.w3.org/Graphics/SVG/1.1/DTD/svg11.dtd">
<svg version="1.1" id="Layer_1" xmlns="http://www.w3.org/2000/svg" xmlns:xlink="http://www.w3.org/1999/xlink" x="0px" y="0px"
	 width="48px" height="48px" viewBox="0 0 48 48" enable-background="new 0 0 48 48" xml:space="preserve">
<g>
	<g>
		<g>
			<g>
				<path d="M16.584,19.784c-0.043,0-0.086-0.013-0.123-0.042c-0.09-0.068-0.107-0.195-0.04-0.285
					c0.102-0.134,2.526-3.278,7.646-3.278c5.124,0,7.42,3.149,7.516,3.283c0.065,0.091,0.044,0.219-0.048,0.284
					c-0.091,0.066-0.22,0.044-0.284-0.047c-0.022-0.032-2.279-3.112-7.184-3.112c-4.908,0-7.297,3.085-7.32,3.116
					C16.707,19.756,16.646,19.784,16.584,19.784z"/>
			</g>
			<g>
				<path d="M18.41,22.34c-0.043,0-0.086-0.014-0.123-0.042c-0.09-0.068-0.107-0.195-0.04-0.286
					c0.077-0.102,1.918-2.491,5.803-2.491c3.889,0,5.636,2.394,5.708,2.495c0.065,0.092,0.045,0.219-0.047,0.284
					c-0.092,0.065-0.219,0.044-0.285-0.047c-0.017-0.023-1.707-2.324-5.376-2.324c-3.673,0-5.46,2.306-5.477,2.329
					C18.533,22.311,18.472,22.34,18.41,22.34z"/>
			</g>
			<g>
				<path d="M21.162,24.692c-0.043,0-0.085-0.013-0.122-0.041c-0.09-0.067-0.108-0.195-0.041-0.286
					c0.04-0.053,1.003-1.304,3.028-1.304c2.027,0,2.941,1.255,2.979,1.309c0.064,0.091,0.043,0.218-0.048,0.284
					c-0.092,0.064-0.219,0.044-0.285-0.047c-0.033-0.046-0.839-1.138-2.646-1.138c-1.823,0-2.693,1.13-2.701,1.142
					C21.286,24.665,21.224,24.692,21.162,24.692z"/>
			</g>
		</g>
		<g>
			<circle cx="24.001" cy="26.606" r="0.706"/>
		</g>
	</g>
	<g>
		<g>
			<path d="M38.099,33.63H9.9c-0.786,0-1.427-0.641-1.427-1.428V13.086c0-0.787,0.641-1.427,1.427-1.427h28.198
				c0.787,0,1.428,0.641,1.428,1.427v19.116C39.526,32.989,38.886,33.63,38.099,33.63z M9.9,12.067c-0.562,0-1.02,0.458-1.02,1.02
				v19.116c0,0.562,0.458,1.02,1.02,1.02h28.198c0.562,0,1.02-0.458,1.02-1.02V13.086c0-0.562-0.457-1.02-1.02-1.02H9.9z"/>
		</g>
		<g>
			<path d="M39.323,31.241H8.677c-0.113,0-0.203-0.091-0.203-0.204s0.09-0.205,0.203-0.205h30.646c0.111,0,0.203,0.092,0.203,0.205
				S39.435,31.241,39.323,31.241z"/>
		</g>
		<g>
			<g>
				<path d="M17.902,37.649c-0.044,0-0.088-0.015-0.126-0.043c-0.089-0.068-0.104-0.197-0.036-0.286l3.122-4.027
					c0.068-0.088,0.197-0.105,0.286-0.037c0.089,0.069,0.105,0.198,0.037,0.287l-3.122,4.027
					C18.023,37.622,17.963,37.649,17.902,37.649z"/>
			</g>
			<g>
				<path d="M30.097,37.649c-0.062,0-0.121-0.028-0.162-0.08l-3.116-4.027c-0.068-0.09-0.053-0.217,0.037-0.287
					c0.089-0.068,0.217-0.052,0.285,0.037l3.116,4.027c0.069,0.089,0.053,0.217-0.035,0.286
					C30.185,37.635,30.14,37.649,30.097,37.649z"/>
			</g>
		</g>
		<g>
			<path d="M32.511,37.934h-17.02c-0.113,0-0.204-0.091-0.204-0.204s0.091-0.205,0.204-0.205h17.02c0.113,0,0.205,0.092,0.205,0.205
				S32.624,37.934,32.511,37.934z"/>
		</g>
	</g>
</g>
</svg>
