<?xml version="1.0" encoding="utf-8"?>
<!-- Generator: Adobe Illustrator 16.0.0, SVG Export Plug-In . SVG Version: 6.00 Build 0)  -->
<!DOCTYPE svg PUBLIC "-//W3C//DTD SVG 1.1//EN" "http://www.w3.org/Graphics/SVG/1.1/DTD/svg11.dtd">
<svg version="1.1" id="Layer_1" xmlns="http://www.w3.org/2000/svg" xmlns:xlink="http://www.w3.org/1999/xlink" x="0px" y="0px"
	 width="48px" height="48px" viewBox="0 0 48 48" enable-background="new 0 0 48 48" xml:space="preserve">
<g>
	<g>
		<g>
			<path d="M23.999,25.763c-4.312,0-7.735-4.381-7.879-4.568c-0.056-0.073-0.056-0.175,0-0.249c0.145-0.187,3.567-4.569,7.879-4.569
				c4.315,0,7.737,4.382,7.881,4.569c0.056,0.073,0.056,0.175-0.001,0.249C31.736,21.381,28.314,25.763,23.999,25.763z
				 M16.544,21.07c0.596,0.717,3.741,4.285,7.455,4.285c3.721,0,6.864-3.567,7.457-4.285c-0.594-0.718-3.739-4.286-7.457-4.286
				C20.285,16.784,17.14,20.352,16.544,21.07z"/>
		</g>
		<g>
			<path d="M23.999,24.452c-1.865,0-3.382-1.517-3.382-3.382c0-1.866,1.517-3.383,3.382-3.383c1.866,0,3.384,1.518,3.384,3.383
				C27.383,22.935,25.865,24.452,23.999,24.452z M23.999,18.095c-1.639,0-2.974,1.334-2.974,2.975c0,1.64,1.335,2.974,2.974,2.974
				c1.641,0,2.976-1.334,2.976-2.974C26.975,19.43,25.64,18.095,23.999,18.095z"/>
		</g>
		<g>
			<circle cx="23.999" cy="21.069" r="1.27"/>
		</g>
	</g>
	<g>
		<g>
			<path d="M38.099,33.086H9.902c-0.788,0-1.428-0.641-1.428-1.428V12.543c0-0.788,0.641-1.428,1.428-1.428h28.196
				c0.787,0,1.427,0.641,1.427,1.428v19.115C39.526,32.445,38.885,33.086,38.099,33.086z M9.902,11.523
				c-0.562,0-1.02,0.458-1.02,1.02v19.115c0,0.562,0.458,1.02,1.02,1.02h28.196c0.562,0,1.02-0.458,1.02-1.02V12.543
				c0-0.562-0.458-1.02-1.02-1.02H9.902z"/>
		</g>
		<g>
			<path d="M39.323,30.695H8.678c-0.113,0-0.204-0.091-0.204-0.204s0.091-0.204,0.204-0.204h30.645c0.113,0,0.203,0.091,0.203,0.204
				S39.436,30.695,39.323,30.695z"/>
		</g>
		<g>
			<g>
				<path d="M17.902,37.107c-0.044,0-0.088-0.014-0.126-0.042c-0.089-0.069-0.104-0.198-0.036-0.287l3.121-4.029
					c0.069-0.089,0.197-0.105,0.286-0.036c0.09,0.069,0.105,0.197,0.037,0.286l-3.121,4.029
					C18.023,37.08,17.962,37.107,17.902,37.107z"/>
			</g>
			<g>
				<path d="M30.099,37.107c-0.062,0-0.122-0.027-0.162-0.079L26.816,33c-0.069-0.089-0.052-0.217,0.036-0.286
					c0.089-0.069,0.217-0.053,0.287,0.036l3.121,4.029c0.069,0.089,0.053,0.217-0.037,0.286
					C30.187,37.093,30.143,37.107,30.099,37.107z"/>
			</g>
		</g>
		<g>
			<path d="M32.509,37.39H15.493c-0.113,0-0.204-0.091-0.204-0.204s0.091-0.205,0.204-0.205h17.017c0.113,0,0.203,0.092,0.203,0.205
				S32.622,37.39,32.509,37.39z"/>
		</g>
	</g>
</g>
</svg>
