<?xml version="1.0" encoding="utf-8"?>
<!-- Generator: Adobe Illustrator 16.0.0, SVG Export Plug-In . SVG Version: 6.00 Build 0)  -->
<!DOCTYPE svg PUBLIC "-//W3C//DTD SVG 1.1//EN" "http://www.w3.org/Graphics/SVG/1.1/DTD/svg11.dtd">
<svg version="1.1" id="Layer_1" xmlns="http://www.w3.org/2000/svg" xmlns:xlink="http://www.w3.org/1999/xlink" x="0px" y="0px"
	 width="48px" height="48px" viewBox="0 0 48 48" enable-background="new 0 0 48 48" xml:space="preserve">
<g>
	<g>
		<g>
			<path d="M23.184,27.454c-2.914,0-5.219-2.952-5.314-3.078c-0.057-0.073-0.057-0.175,0-0.249c0.096-0.125,2.401-3.077,5.314-3.077
				c2.913,0,5.218,2.951,5.314,3.077c0.056,0.073,0.056,0.176,0,0.249C28.402,24.502,26.096,27.454,23.184,27.454z M18.294,24.252
				c0.47,0.558,2.504,2.794,4.89,2.794c2.387,0,4.419-2.236,4.89-2.793c-0.47-0.557-2.505-2.793-4.89-2.793
				C20.798,21.459,18.764,23.695,18.294,24.252z"/>
		</g>
		<g>
			<path d="M23.184,26.02c-0.974,0-1.767-0.793-1.767-1.768c0-0.972,0.792-1.764,1.767-1.764c0.974,0,1.765,0.792,1.765,1.764
				C24.949,25.227,24.157,26.02,23.184,26.02z M23.184,22.896c-0.75,0-1.359,0.608-1.359,1.356c0,0.75,0.609,1.359,1.359,1.359
				c0.748,0,1.357-0.609,1.357-1.359C24.541,23.504,23.932,22.896,23.184,22.896z"/>
		</g>
		<g>
			<circle cx="23.184" cy="24.252" r="0.501"/>
		</g>
	</g>
	<g>
		<g>
			<path d="M28.515,33.002H17.852c-1.237,0-2.244-1.007-2.244-2.244V17.746c0-1.237,1.007-2.244,2.244-2.244h10.663
				c1.237,0,2.244,1.006,2.244,2.244v13.013C30.758,31.996,29.751,33.002,28.515,33.002z M17.852,15.91
				c-1.012,0-1.836,0.824-1.836,1.836v13.013c0,1.012,0.824,1.836,1.836,1.836h10.663c1.012,0,1.836-0.824,1.836-1.836V17.746
				c0-1.012-0.824-1.836-1.836-1.836H17.852z"/>
		</g>
		<g>
			<path d="M32.188,22.466c-0.113,0-0.205-0.091-0.205-0.204v-2.84c0-0.113,0.092-0.205,0.205-0.205s0.203,0.092,0.203,0.205v2.84
				C32.392,22.375,32.301,22.466,32.188,22.466z"/>
		</g>
		<g>
			<path d="M27.83,14.238c-0.113,0-0.205-0.092-0.205-0.205v-3.249c0-0.337-0.274-0.612-0.612-0.612h-7.66
				c-0.337,0-0.612,0.275-0.612,0.612v3.249c0,0.113-0.092,0.205-0.205,0.205s-0.203-0.092-0.203-0.205v-3.249
				c0-0.562,0.458-1.02,1.02-1.02h7.66c0.563,0,1.02,0.458,1.02,1.02v3.249C28.033,14.146,27.942,14.238,27.83,14.238z"/>
		</g>
		<g>
			<path d="M27.013,38.742h-7.66c-0.562,0-1.02-0.458-1.02-1.02v-3.25c0-0.113,0.09-0.204,0.203-0.204s0.205,0.091,0.205,0.204v3.25
				c0,0.337,0.274,0.612,0.612,0.612h7.66c0.337,0,0.612-0.274,0.612-0.612v-3.25c0-0.113,0.092-0.204,0.205-0.204
				s0.203,0.091,0.203,0.204v3.25C28.033,38.284,27.576,38.742,27.013,38.742z"/>
		</g>
	</g>
</g>
</svg>
