<?xml version="1.0" encoding="utf-8"?>
<!-- Generator: Adobe Illustrator 16.0.0, SVG Export Plug-In . SVG Version: 6.00 Build 0)  -->
<!DOCTYPE svg PUBLIC "-//W3C//DTD SVG 1.1//EN" "http://www.w3.org/Graphics/SVG/1.1/DTD/svg11.dtd">
<svg version="1.1" id="Layer_1" xmlns="http://www.w3.org/2000/svg" xmlns:xlink="http://www.w3.org/1999/xlink" x="0px" y="0px"
	 width="48px" height="48px" viewBox="0 0 48 48" enable-background="new 0 0 48 48" xml:space="preserve">
<g>
	<circle cx="24" cy="21.977" r="0.601"/>
</g>
<g>
	<g>
		<path d="M24,25.098c-2.836,0-5.082-2.875-5.176-2.997c-0.056-0.074-0.056-0.176,0-0.25c0.094-0.123,2.34-2.996,5.176-2.996
			c2.837,0,5.082,2.873,5.175,2.996c0.057,0.074,0.057,0.176,0,0.249C29.083,22.223,26.838,25.098,24,25.098z M19.25,21.977
			c0.462,0.548,2.438,2.714,4.751,2.714s4.288-2.166,4.75-2.714c-0.462-0.547-2.437-2.712-4.75-2.712S19.712,21.429,19.25,21.977z"
			/>
	</g>
	<g>
		<path d="M24,23.687c-0.942,0-1.708-0.768-1.708-1.71c0-0.942,0.767-1.709,1.708-1.709c0.943,0,1.709,0.767,1.709,1.709
			C25.71,22.919,24.943,23.687,24,23.687z M24,20.676c-0.717,0-1.301,0.583-1.301,1.301c0,0.718,0.583,1.302,1.301,1.302
			s1.302-0.584,1.302-1.302C25.302,21.259,24.718,20.676,24,20.676z"/>
	</g>
	<g>
		<circle cx="24" cy="38.472" r="1.06"/>
	</g>
	<g>
		<path d="M30.99,41.499H17.01c-0.787,0-1.427-0.641-1.427-1.428V8.435c0-0.787,0.641-1.428,1.427-1.428H30.99
			c0.787,0,1.427,0.641,1.427,1.428v31.637C32.417,40.858,31.776,41.499,30.99,41.499z M17.01,7.415c-0.562,0-1.02,0.458-1.02,1.02
			v31.637c0,0.562,0.458,1.02,1.02,1.02H30.99c0.562,0,1.02-0.458,1.02-1.02V8.435c0-0.562-0.458-1.02-1.02-1.02H17.01z"/>
	</g>
	<g>
		<path d="M31.978,35.271H16.023c-0.113,0-0.203-0.091-0.203-0.204s0.09-0.204,0.203-0.204h15.955c0.113,0,0.203,0.091,0.203,0.204
			S32.091,35.271,31.978,35.271z"/>
	</g>
</g>
</svg>
