<?xml version="1.0" encoding="utf-8"?>
<!-- Generator: Adobe Illustrator 16.0.0, SVG Export Plug-In . SVG Version: 6.00 Build 0)  -->
<!DOCTYPE svg PUBLIC "-//W3C//DTD SVG 1.1//EN" "http://www.w3.org/Graphics/SVG/1.1/DTD/svg11.dtd">
<svg version="1.1" id="Layer_1" xmlns="http://www.w3.org/2000/svg" xmlns:xlink="http://www.w3.org/1999/xlink" x="0px" y="0px"
	 width="48px" height="48px" viewBox="0 0 48 48" enable-background="new 0 0 48 48" xml:space="preserve">
<g>
	<circle cx="24" cy="21.523" r="1.271"/>
</g>
<g>
	<g>
		<path d="M24,26.216c-4.314,0-7.736-4.381-7.879-4.567c-0.057-0.074-0.057-0.176,0-0.25c0.144-0.186,3.566-4.569,7.88-4.569
			c4.312,0,7.736,4.383,7.879,4.569c0.057,0.074,0.057,0.176,0,0.25C31.736,21.835,28.312,26.216,24,26.216z M16.544,21.524
			c0.594,0.717,3.739,4.284,7.456,4.284c3.715,0,6.861-3.567,7.455-4.284c-0.594-0.718-3.74-4.286-7.455-4.286
			C20.28,17.238,17.138,20.807,16.544,21.524z"/>
	</g>
	<g>
		<path d="M24,24.906c-1.867,0-3.385-1.517-3.385-3.381c0-1.867,1.519-3.385,3.385-3.385c1.866,0,3.383,1.519,3.383,3.385
			C27.383,23.389,25.866,24.906,24,24.906z M24,18.547c-1.642,0-2.977,1.335-2.977,2.978c0,1.64,1.335,2.973,2.977,2.973
			c1.64,0,2.975-1.333,2.975-2.973C26.975,19.882,25.64,18.547,24,18.547z"/>
	</g>
	<g>
		<path d="M35.421,42.179H12.578c-0.787,0-1.428-0.641-1.428-1.428V7.754c0-0.787,0.641-1.428,1.428-1.428h22.843
			c0.788,0,1.428,0.641,1.428,1.428v32.997C36.85,41.538,36.209,42.179,35.421,42.179z M12.578,6.734c-0.562,0-1.02,0.458-1.02,1.02
			v32.997c0,0.562,0.458,1.02,1.02,1.02h22.843c0.562,0,1.02-0.458,1.02-1.02V7.754c0-0.562-0.458-1.02-1.02-1.02H12.578z"/>
	</g>
	<g>
		<circle cx="24" cy="39.199" r="0.925"/>
	</g>
	<g>
		<path d="M36.453,36.028H11.546c-0.113,0-0.204-0.091-0.204-0.204s0.091-0.204,0.204-0.204h24.907c0.113,0,0.203,0.091,0.203,0.204
			S36.566,36.028,36.453,36.028z"/>
	</g>
</g>
</svg>
