<?xml version="1.0" encoding="utf-8"?>
<!-- Generator: Adobe Illustrator 16.0.0, SVG Export Plug-In . SVG Version: 6.00 Build 0)  -->
<!DOCTYPE svg PUBLIC "-//W3C//DTD SVG 1.1//EN" "http://www.w3.org/Graphics/SVG/1.1/DTD/svg11.dtd">
<svg version="1.1" id="Layer_1" xmlns="http://www.w3.org/2000/svg" xmlns:xlink="http://www.w3.org/1999/xlink" x="0px" y="0px"
	 width="48px" height="48px" viewBox="0 0 48 48" enable-background="new 0 0 48 48" xml:space="preserve">
<g>
	<g>
		<g>
			<path d="M23.995,25.302c-3.882,0-6.958-3.94-7.087-4.108c-0.057-0.073-0.057-0.175,0-0.249c0.129-0.168,3.205-4.11,7.087-4.11
				s6.961,3.942,7.09,4.11c0.056,0.073,0.056,0.176,0,0.249C30.956,21.362,27.877,25.302,23.995,25.302z M17.333,21.07
				c0.558,0.671,3.358,3.824,6.662,3.824c3.305,0,6.106-3.153,6.665-3.824c-0.559-0.672-3.36-3.826-6.665-3.826
				C20.691,17.244,17.891,20.398,17.333,21.07z"/>
		</g>
		<g>
			<path d="M23.995,23.595c-1.392,0-2.525-1.133-2.525-2.525c0-1.394,1.134-2.527,2.525-2.527c1.395,0,2.528,1.134,2.528,2.527
				C26.523,22.462,25.39,23.595,23.995,23.595z M23.995,18.951c-1.167,0-2.118,0.95-2.118,2.119c0,1.167,0.951,2.117,2.118,2.117
				c1.169,0,2.119-0.949,2.119-2.117C26.114,19.901,25.164,18.951,23.995,18.951z"/>
		</g>
		<g>
			<circle cx="23.995" cy="21.07" r="0.928"/>
		</g>
	</g>
	<g>
		<g>
			<path d="M38.093,32.803H9.898c-0.787,0-1.428-0.641-1.428-1.428V12.261c0-0.788,0.641-1.429,1.428-1.429h28.194
				c0.788,0,1.429,0.641,1.429,1.429v19.114C39.521,32.162,38.881,32.803,38.093,32.803z M9.898,11.241
				c-0.562,0-1.021,0.458-1.021,1.021v19.114c0,0.562,0.458,1.02,1.021,1.02h28.194c0.563,0,1.021-0.458,1.021-1.02V12.261
				c0-0.563-0.457-1.021-1.021-1.021H9.898z"/>
		</g>
		<g>
			<path d="M42.073,37.674c-0.003,0-0.006,0-0.009,0H5.927c-0.079,0-0.151-0.046-0.186-0.118c-0.033-0.072-0.021-0.157,0.029-0.217
				l2.682-3.177c0.038-0.046,0.096-0.073,0.156-0.073h30.775c0.06,0,0.117,0.026,0.156,0.073l2.652,3.143
				c0.051,0.037,0.085,0.097,0.085,0.166C42.277,37.583,42.186,37.674,42.073,37.674z M6.366,37.266h35.26l-2.337-2.77H8.703
				L6.366,37.266z"/>
		</g>
		<g>
			<path d="M39.317,30.412H8.675c-0.113,0-0.204-0.091-0.204-0.204c0-0.112,0.091-0.204,0.204-0.204h30.643
				c0.112,0,0.204,0.091,0.204,0.204C39.521,30.321,39.43,30.412,39.317,30.412z"/>
		</g>
	</g>
</g>
</svg>
