<?xml version="1.0" encoding="utf-8"?>
<!-- Generator: Adobe Illustrator 16.0.0, SVG Export Plug-In . SVG Version: 6.00 Build 0)  -->
<!DOCTYPE svg PUBLIC "-//W3C//DTD SVG 1.1//EN" "http://www.w3.org/Graphics/SVG/1.1/DTD/svg11.dtd">
<svg version="1.1" id="Layer_1" xmlns="http://www.w3.org/2000/svg" xmlns:xlink="http://www.w3.org/1999/xlink" x="0px" y="0px"
	 width="64px" height="64px" viewBox="0 0 64 64" enable-background="new 0 0 64 64" xml:space="preserve">
<g>
	<g>
		<path d="M40.461,56.544H23.539c-1.93,0-3.5-1.57-3.5-3.5V11.476c0-1.93,1.57-3.5,3.5-3.5h16.922c1.93,0,3.5,1.57,3.5,3.5v41.568
			C43.961,54.974,42.391,56.544,40.461,56.544z M23.539,8.976c-1.379,0-2.5,1.122-2.5,2.5v41.568c0,1.378,1.121,2.5,2.5,2.5h16.922
			c1.379,0,2.5-1.122,2.5-2.5V11.476c0-1.378-1.121-2.5-2.5-2.5H23.539z"/>
	</g>
	<g>
		<path d="M43.133,47.854H20.867c-0.276,0-0.5-0.224-0.5-0.5s0.224-0.5,0.5-0.5h22.266c0.276,0,0.5,0.224,0.5,0.5
			S43.409,47.854,43.133,47.854z"/>
	</g>
	<g>
		<circle cx="32.001" cy="51.85" r="1.292"/>
	</g>
	<g>
		<g>
			<path d="M31.176,31.747c-0.07,0-0.14-0.015-0.205-0.044l0,0c-0.001,0-0.001,0-0.001,0l0,0c-0.001,0-0.001,0-0.002,0l0,0
				c0,0-0.001,0-0.001-0.001l0,0c-0.001,0-0.001,0-0.002,0l0,0l-0.001,0l0,0c-0.002-0.001-0.002-0.001-0.002-0.001s0,0-0.001,0l0,0
				l-0.001,0l0,0c-0.001,0-0.001,0-0.002-0.001l0,0l-0.001,0l0,0c-0.001,0-0.001,0-0.001,0s-0.001,0-0.001,0c0,0,0,0-0.001,0l0,0
				c-0.001,0-0.001,0-0.001,0s0,0.001-0.001,0c-0.001,0-0.001,0-0.001,0l-0.001,0l0,0c-0.001,0-0.001,0-0.001,0l-0.001,0l-0.001,0
				c-0.001,0-0.001,0-0.001,0s0,0-0.001,0l0,0c-0.001,0-0.001,0-0.001,0s0,0-0.001,0c0,0,0,0-0.001,0l0,0l-0.001,0
				c0,0-0.001,0-0.001-0.001h-0.001c0,0,0,0-0.001,0l0,0c0,0-0.001,0-0.001,0v0c-0.001,0-0.001,0-0.002,0l0,0
				c0,0-0.001,0-0.001-0.001l0,0c-0.001,0-0.001,0-0.001,0l0,0c-0.001,0-0.001,0-0.002-0.001l0,0l-0.001,0l0,0
				c-0.001,0-0.001,0-0.001-0.001c0,0,0,0-0.001,0c0,0,0,0-0.001,0l0,0c0,0-0.001,0-0.001,0v0c-0.001,0-0.001,0-0.002-0.001l0,0
				c0,0,0,0-0.001,0l0,0c-0.027-0.016-0.054-0.035-0.078-0.056v0l-0.001-0.001l0,0l-0.001-0.001l0,0c-0.001,0-0.001,0-0.001,0
				l-0.001,0c0,0,0,0-0.001-0.001l0,0c0,0,0-0.001-0.001-0.001v0l-0.001,0c0,0,0,0,0,0c-0.001,0-0.001,0-0.001,0
				c0,0-0.001,0.006-0.001-0.001c-0.001,0-0.001,0-0.001,0c0,0,0,0-0.001,0v0l-0.001,0v0c-0.001,0-0.001,0-0.001,0
				c0,0,0,0-0.001-0.001l0,0c0,0-0.001-0.001-0.001-0.001v0c-0.002-0.002-0.004-0.003-0.006-0.005l-2.604-2.564
				c-0.197-0.194-0.199-0.511-0.006-0.708c0.194-0.197,0.513-0.198,0.707-0.005l2.248,2.215l4.749-4.797
				c0.194-0.197,0.511-0.198,0.707-0.004c0.196,0.194,0.198,0.511,0.004,0.707l-5.1,5.151c-0.027,0.028-0.058,0.052-0.09,0.072l0,0
				l-0.001,0.001l0,0c-0.001,0-0.001,0-0.002,0l0,0c0,0-0.001,0-0.001,0.001l0,0c-0.001,0-0.001,0-0.001,0.001c0,0,0,0-0.001,0
				c0,0,0,0-0.001,0l0,0c0,0-0.001,0-0.001,0v0c-0.001,0,0,0.002-0.002,0.001c0,0,0,0-0.001,0l0,0c0,0-0.001,0-0.001,0v0
				c-0.001,0-0.001,0-0.002,0v0c0,0-0.001,0-0.001,0l0,0c-0.001,0-0.001,0-0.001,0.001h-0.001c0,0,0,0-0.001,0l0,0
				c0,0-0.001,0-0.001,0v0c-0.001,0-0.001,0-0.001,0c-0.001,0-0.001,0-0.001,0s-0.001,0-0.001,0.001l0,0c-0.001,0-0.001,0-0.001,0
				s0,0-0.001,0c0,0,0,0-0.001,0l0,0c0,0-0.001,0-0.001,0v0c-0.001,0-0.001,0-0.001,0c-0.001,0-0.001,0-0.001,0s0.001,0-0.001,0.001
				c-0.001,0-0.001,0-0.001,0c0,0,0.008,0.003-0.002,0v0l-0.001,0l0,0c-0.001,0-0.001,0-0.001,0c-0.001,0-0.001,0-0.001,0
				s0,0-0.001,0l0,0c-0.001,0-0.001,0-0.001,0s0,0-0.001,0c0,0,0,0-0.001,0l0,0l-0.001,0c0,0-0.002,0-0.001,0.001
				c-0.001,0-0.001,0-0.001,0l-0.001,0l0,0c-0.001,0-0.001,0-0.001,0c0,0-0.001,0-0.001,0s0,0-0.001,0l0,0c0,0-0.001,0-0.001,0
				s0,0-0.001,0c0,0-0.001,0-0.001,0l-0.001,0l0,0c-0.001,0-0.001,0-0.001,0c-0.001,0-0.001,0-0.001,0s0,0-0.001,0l0,0
				c-0.001,0-0.001,0-0.001,0l-0.001,0c0,0,0,0-0.001,0l-0.001,0c0,0,0,0-0.001,0v0c-0.001,0-0.001,0-0.001,0l-0.001,0v0
				c-0.003,0-0.001,0.001-0.002,0c0,0,0,0-0.001,0l0,0c-0.001,0-0.001,0-0.001,0l-0.001,0c0,0,0.001,0.001-0.001,0
				c-0.001,0-0.001,0-0.001,0c0,0,0,0-0.001,0c0,0,0,0-0.001,0l0,0c0,0-0.001,0-0.001,0s0,0-0.001,0l0,0c-0.001,0-0.001,0-0.001,0
				l-0.001,0l0,0c-0.001,0-0.001,0-0.001,0c-0.001,0-0.001,0-0.001,0s0,0-0.001,0c0,0-0.001,0-0.001,0l-0.001,0c0,0-0.001,0-0.001,0
				c-0.001,0-0.001,0-0.001,0l-0.001,0c0,0,0,0-0.001,0l0,0l-0.001,0c0,0,0,0.003-0.001,0c-0.001,0-0.001,0-0.001,0l-0.001,0
				c0,0,0,0-0.001,0l0,0c-0.001,0-0.001,0-0.001,0h-0.001c0,0,0,0-0.001,0c0,0,0,0-0.001,0l-0.001,0l0,0c-0.001,0-0.001,0-0.001,0
				H31.35c0,0,0,0-0.001,0l0,0c-0.001,0-0.001,0-0.001,0s-0.001,0-0.001,0c0,0,0,0-0.001,0l-0.001,0c0,0-0.001,0-0.001,0
				c0,0,0,0-0.001,0c0,0-0.001,0-0.001,0l-0.001,0l0,0c-0.001,0-0.001,0-0.001,0c-0.001,0-0.001,0-0.001,0l-0.001,0l0,0
				c-0.001,0-0.001,0-0.001,0h-0.001c0,0,0,0-0.001,0l0,0c-0.001,0-0.001,0-0.001,0h-0.001c0,0,0,0-0.001,0l0,0
				c-0.001,0-0.001,0-0.001,0H31.33c0,0,0,0-0.001,0l0,0c-0.001,0-0.001,0-0.001,0h-0.001c0,0,0,0-0.001,0l0,0
				c-0.001,0-0.001,0-0.001,0h-0.001c0,0-0.001,0-0.001,0h-0.001l-0.001,0c0,0,0,0-0.001,0c0,0-0.001,0.001-0.001,0
				c0,0-0.001,0-0.001,0c0,0,0,0-0.001,0l0,0l-0.001,0c0,0,0,0-0.001,0c0,0,0,0-0.001,0l0,0l-0.001,0c0,0,0,0-0.001,0
				c0,0,0,0-0.001,0l0,0h-0.001c0,0,0,0-0.001,0c0,0,0,0-0.001,0l0,0c0,0-0.001,0-0.001,0s0,0-0.001,0c0,0,0,0-0.001,0l0,0
				c0,0-0.001,0-0.001,0c0,0,0,0-0.001,0c0,0,0.001,0.003-0.001,0h-0.001c0,0,0.007,0.002-0.002,0l0,0l-0.001,0c0,0,0,0-0.001,0
				c0,0,0,0-0.001,0l0,0h-0.001c0,0,0.009,0.001-0.002,0l0,0l-0.001,0c0,0,0,0-0.001,0l-0.001,0H31.29c0,0,0,0-0.001,0
				c0,0,0,0-0.001,0l0,0l-0.001,0l0,0c-0.001,0-0.002,0-0.003,0l0,0c-0.001,0-0.002,0-0.003,0l0,0
				C31.246,31.743,31.211,31.747,31.176,31.747z"/>
		</g>
		<g>
			<path d="M32.143,37.36h-0.283c-0.079,0-0.157-0.019-0.229-0.055c-3.95-2.025-7.045-8.12-7.045-13.875c0-0.276,0.224-0.5,0.5-0.5
				c3.286,0,6.62-2.009,6.654-2.029c0.158-0.098,0.359-0.097,0.52,0c0.033,0.021,3.379,2.03,6.658,2.03c0.276,0,0.5,0.224,0.5,0.5
				c0,5.754-3.096,11.849-7.047,13.875C32.3,37.341,32.222,37.36,32.143,37.36z M31.982,36.36h0.037
				c3.488-1.867,6.229-7.234,6.391-12.444c-2.868-0.153-5.572-1.542-6.41-2.011c-0.837,0.469-3.539,1.858-6.406,2.011
				C25.756,29.128,28.496,34.495,31.982,36.36z"/>
		</g>
	</g>
</g>
</svg>
