<?xml version="1.0" encoding="utf-8"?>
<!-- Generator: Adobe Illustrator 16.0.0, SVG Export Plug-In . SVG Version: 6.00 Build 0)  -->
<!DOCTYPE svg PUBLIC "-//W3C//DTD SVG 1.1//EN" "http://www.w3.org/Graphics/SVG/1.1/DTD/svg11.dtd">
<svg version="1.1" id="Layer_1" xmlns="http://www.w3.org/2000/svg" xmlns:xlink="http://www.w3.org/1999/xlink" x="0px" y="0px"
	 width="64px" height="64px" viewBox="0 0 64 64" enable-background="new 0 0 64 64" xml:space="preserve">
<g>
	<g>
		<path d="M46.647,57.492H17.353c-1.93,0-3.5-1.57-3.5-3.5V10.527c0-1.93,1.57-3.5,3.5-3.5h29.295c1.93,0,3.5,1.57,3.5,3.5v43.465
			C50.147,55.922,48.577,57.492,46.647,57.492z M17.353,8.027c-1.379,0-2.5,1.122-2.5,2.5v43.465c0,1.378,1.121,2.5,2.5,2.5h29.295
			c1.379,0,2.5-1.122,2.5-2.5V10.527c0-1.378-1.121-2.5-2.5-2.5H17.353z"/>
	</g>
	<g>
		<path d="M33.293,53.117c0,0.713-0.579,1.291-1.295,1.291c-0.711,0-1.291-0.578-1.291-1.291c0-0.714,0.58-1.292,1.291-1.292
			C32.714,51.825,33.293,52.403,33.293,53.117z"/>
	</g>
	<g>
		<path d="M49.38,48.91H14.621c-0.276,0-0.5-0.224-0.5-0.5s0.224-0.5,0.5-0.5H49.38c0.276,0,0.5,0.224,0.5,0.5
			S49.656,48.91,49.38,48.91z"/>
	</g>
	<g>
		<g>
			<path d="M30.766,31.556c-0.067,0-0.135-0.014-0.198-0.041l0,0c0,0-0.001,0-0.001,0l0,0c-0.001,0-0.001,0-0.002,0l0,0l-0.001,0
				l0,0c-0.001,0-0.001,0-0.001,0c-0.001,0-0.001,0-0.001,0s0,0-0.001,0l0,0c-0.001,0-0.001,0-0.001,0s0.009,0-0.002,0v0h-0.001
				c0,0,0,0-0.001,0c0,0-0.001,0-0.001,0s0,0-0.001,0c0,0-0.001,0-0.001,0l-0.001,0l0,0c-0.001,0-0.001,0-0.001,0l-0.001,0
				c0,0,0,0-0.001,0l0,0l-0.001,0l0,0c-0.001,0-0.002,0-0.002-0.001l-0.001,0l0,0c-0.001,0-0.001,0-0.001,0l0,0
				c-0.047-0.023-0.091-0.054-0.13-0.093v0l-3.905-3.84c-0.197-0.193-0.199-0.51-0.006-0.707c0.194-0.198,0.511-0.199,0.707-0.006
				l3.551,3.492l7.293-7.369c0.194-0.196,0.511-0.198,0.707-0.004c0.196,0.194,0.198,0.511,0.004,0.707l-7.643,7.723l0,0
				c-0.062,0.064-0.139,0.107-0.219,0.13l0,0c-0.001,0-0.001,0-0.002,0l0,0H30.9l0,0c-0.001,0-0.001,0-0.002,0l0,0l-0.001,0l0,0
				c-0.001,0-0.001,0-0.002,0l0,0l-0.001,0l0,0c-0.001,0-0.001,0-0.002,0v0h-0.001l0,0c-0.001,0-0.001,0-0.002,0l0,0
				c-0.001,0-0.003,0.001-0.004,0.001l0,0c-0.001,0-0.002,0-0.003,0.001l0,0c-0.001,0-0.002,0-0.003,0l0,0
				C30.842,31.551,30.804,31.556,30.766,31.556z"/>
		</g>
		<g>
			<path d="M32.209,39.971h-0.42c-0.079,0-0.157-0.019-0.229-0.055c-5.85-2.999-10.432-12.039-10.432-20.581
				c0-0.276,0.224-0.5,0.5-0.5c4.999,0,10.059-3.048,10.109-3.079c0.158-0.098,0.359-0.097,0.52,0
				c0.051,0.031,5.123,3.08,10.111,3.08c0.276,0,0.5,0.224,0.5,0.5c0,8.543-4.582,17.583-10.433,20.581
				C32.366,39.952,32.288,39.971,32.209,39.971z M31.911,38.971h0.176c5.384-2.838,9.61-11.145,9.777-19.145
				c-4.491-0.164-8.773-2.441-9.866-3.064c-1.092,0.624-5.371,2.9-9.864,3.064C22.302,27.824,26.527,36.131,31.911,38.971z"/>
		</g>
	</g>
</g>
</svg>
