<?xml version="1.0" encoding="utf-8"?>
<!-- Generator: Adobe Illustrator 16.0.0, SVG Export Plug-In . SVG Version: 6.00 Build 0)  -->
<!DOCTYPE svg PUBLIC "-//W3C//DTD SVG 1.1//EN" "http://www.w3.org/Graphics/SVG/1.1/DTD/svg11.dtd">
<svg version="1.1" id="Layer_1" xmlns="http://www.w3.org/2000/svg" xmlns:xlink="http://www.w3.org/1999/xlink" x="0px" y="0px"
	 width="64px" height="64px" viewBox="0 0 64 64" enable-background="new 0 0 64 64" xml:space="preserve">
<g>
	<g>
		<g>
			<path d="M36.146,44.686H25.574c-3.032,0-5.5-2.467-5.5-5.5V25.334c0-3.033,2.468-5.5,5.5-5.5h10.572c3.032,0,5.5,2.467,5.5,5.5
				v13.852C41.646,42.218,39.179,44.686,36.146,44.686z M25.574,20.834c-2.481,0-4.5,2.019-4.5,4.5v13.852
				c0,2.481,2.019,4.5,4.5,4.5h10.572c2.481,0,4.5-2.019,4.5-4.5V25.334c0-2.481-2.019-4.5-4.5-4.5H25.574z"/>
		</g>
		<g>
			<path d="M43.426,29.979c-0.276,0-0.5-0.224-0.5-0.5v-3.963c0-0.276,0.224-0.5,0.5-0.5s0.5,0.224,0.5,0.5v3.963
				C43.926,29.756,43.702,29.979,43.426,29.979z"/>
		</g>
		<g>
			<path d="M37.346,18.499c-0.276,0-0.5-0.224-0.5-0.5v-3.676c0-0.827-0.673-1.5-1.5-1.5h-8.969c-0.827,0-1.5,0.673-1.5,1.5v3.676
				c0,0.276-0.224,0.5-0.5,0.5s-0.5-0.224-0.5-0.5v-3.676c0-1.378,1.121-2.5,2.5-2.5h8.969c1.379,0,2.5,1.122,2.5,2.5v3.676
				C37.846,18.275,37.622,18.499,37.346,18.499z"/>
		</g>
		<g>
			<path d="M35.346,52.697h-8.969c-1.379,0-2.5-1.122-2.5-2.5v-3.677c0-0.276,0.224-0.5,0.5-0.5s0.5,0.224,0.5,0.5v3.677
				c0,0.827,0.673,1.5,1.5,1.5h8.969c0.827,0,1.5-0.673,1.5-1.5v-3.677c0-0.276,0.224-0.5,0.5-0.5s0.5,0.224,0.5,0.5v3.677
				C37.846,51.576,36.725,52.697,35.346,52.697z"/>
		</g>
	</g>
	<g>
		<path fill="none" stroke="#000000" stroke-linecap="round" stroke-linejoin="round" stroke-miterlimit="10" d="M27.904,31.908
			l2.248,2.208 M30.152,34.116l4.393-4.441"/>
		<path fill="none" stroke="#000000" stroke-linecap="round" stroke-linejoin="round" stroke-miterlimit="10" d="M30.861,25.563
			c0,0,2.977,1.812,5.963,1.812c0,4.557-2.385,9.807-5.844,11.58h-0.24c-3.457-1.773-5.842-7.023-5.842-11.58
			C27.885,27.376,30.861,25.563,30.861,25.563"/>
	</g>
</g>
</svg>
