<?xml version="1.0" encoding="utf-8"?>
<!-- Generator: Adobe Illustrator 16.0.0, SVG Export Plug-In . SVG Version: 6.00 Build 0)  -->
<!DOCTYPE svg PUBLIC "-//W3C//DTD SVG 1.1//EN" "http://www.w3.org/Graphics/SVG/1.1/DTD/svg11.dtd">
<svg version="1.1" id="Layer_1" xmlns="http://www.w3.org/2000/svg" xmlns:xlink="http://www.w3.org/1999/xlink" x="0px" y="0px"
	 width="48px" height="48px" viewBox="0 0 48 48" enable-background="new 0 0 48 48" xml:space="preserve">
<g>
	<g>
		<g>
			<path d="M29.528,27.88H18.473c-0.113,0-0.205-0.091-0.205-0.204v-1.331c0-0.113,0.092-0.204,0.205-0.204h11.055
				c0.113,0,0.204,0.091,0.204,0.204v1.331C29.732,27.789,29.641,27.88,29.528,27.88z M18.677,27.471h10.647V26.55H18.677V27.471z"
				/>
		</g>
		<g>
			<path d="M20.234,24.812h-1.331c-0.113,0-0.203-0.091-0.203-0.204v-4.007c0-0.113,0.09-0.205,0.203-0.205h1.331
				c0.113,0,0.204,0.092,0.204,0.205v4.007C20.438,24.721,20.347,24.812,20.234,24.812z M19.108,24.404h0.922v-3.598h-0.922V24.404z
				"/>
		</g>
		<g>
			<path d="M29.097,24.812h-1.33c-0.113,0-0.204-0.091-0.204-0.204v-4.007c0-0.113,0.091-0.205,0.204-0.205h1.33
				c0.113,0,0.205,0.092,0.205,0.205v4.007C29.301,24.721,29.209,24.812,29.097,24.812z M27.971,24.404h0.923v-3.598h-0.923V24.404z
				"/>
		</g>
		<g>
			<path d="M23.188,24.812h-1.331c-0.113,0-0.204-0.091-0.204-0.204v-4.007c0-0.113,0.091-0.205,0.204-0.205h1.331
				c0.113,0,0.204,0.092,0.204,0.205v4.007C23.393,24.721,23.301,24.812,23.188,24.812z M22.062,24.404h0.921v-3.598h-0.921V24.404z
				"/>
		</g>
		<g>
			<path d="M26.142,24.812h-1.33c-0.113,0-0.205-0.091-0.205-0.204v-4.007c0-0.113,0.092-0.205,0.205-0.205h1.33
				c0.113,0,0.204,0.092,0.204,0.205v4.007C26.346,24.721,26.255,24.812,26.142,24.812z M25.015,24.404h0.923v-3.598h-0.923V24.404z
				"/>
		</g>
		<g>
			<path d="M29.533,19.071H18.468c-0.113,0-0.204-0.091-0.204-0.204v-1.19c0-0.075,0.042-0.144,0.107-0.179l5.532-2.97
				c0.061-0.032,0.133-0.032,0.193,0l5.534,2.97c0.066,0.035,0.107,0.104,0.107,0.179v1.19
				C29.737,18.98,29.646,19.071,29.533,19.071z M18.671,18.663H29.33V17.8l-5.331-2.86l-5.328,2.86V18.663z"/>
		</g>
	</g>
	<g>
		<g>
			<path d="M38.099,33.173H9.902c-0.788,0-1.428-0.641-1.428-1.428V12.631c0-0.788,0.641-1.428,1.428-1.428h28.196
				c0.787,0,1.427,0.641,1.427,1.428v19.114C39.526,32.532,38.885,33.173,38.099,33.173z M9.902,11.611
				c-0.562,0-1.02,0.458-1.02,1.021v19.114c0,0.562,0.458,1.02,1.02,1.02h28.196c0.562,0,1.02-0.458,1.02-1.02V12.631
				c0-0.562-0.458-1.021-1.02-1.021H9.902z"/>
		</g>
		<g>
			<path d="M39.323,30.783H8.678c-0.113,0-0.204-0.092-0.204-0.205s0.091-0.204,0.204-0.204h30.645c0.113,0,0.203,0.091,0.203,0.204
				S39.436,30.783,39.323,30.783z"/>
		</g>
		<g>
			<g>
				<path d="M17.902,37.193c-0.044,0-0.088-0.014-0.126-0.042c-0.089-0.069-0.104-0.198-0.035-0.287l3.12-4.027
					c0.069-0.09,0.197-0.105,0.286-0.037c0.09,0.069,0.105,0.198,0.036,0.287l-3.12,4.027
					C18.023,37.166,17.962,37.193,17.902,37.193z"/>
			</g>
			<g>
				<path d="M30.099,37.193c-0.062,0-0.122-0.028-0.162-0.08l-3.121-4.027c-0.069-0.089-0.052-0.217,0.036-0.287
					c0.089-0.068,0.217-0.053,0.287,0.037l3.121,4.027c0.069,0.089,0.053,0.217-0.037,0.287
					C30.187,37.18,30.143,37.193,30.099,37.193z"/>
			</g>
		</g>
		<g>
			<path d="M32.509,37.477H15.493c-0.113,0-0.204-0.092-0.204-0.204c0-0.113,0.091-0.204,0.204-0.204h17.017
				c0.113,0,0.203,0.091,0.203,0.204C32.712,37.385,32.622,37.477,32.509,37.477z"/>
		</g>
	</g>
</g>
</svg>
