<?xml version="1.0" encoding="utf-8"?>
<!-- Generator: Adobe Illustrator 16.0.0, SVG Export Plug-In . SVG Version: 6.00 Build 0)  -->
<!DOCTYPE svg PUBLIC "-//W3C//DTD SVG 1.1//EN" "http://www.w3.org/Graphics/SVG/1.1/DTD/svg11.dtd">
<svg version="1.1" id="Layer_1" xmlns="http://www.w3.org/2000/svg" xmlns:xlink="http://www.w3.org/1999/xlink" x="0px" y="0px"
	 width="48px" height="48px" viewBox="0 0 48 48" enable-background="new 0 0 48 48" xml:space="preserve">
<g>
	<g>
		<path d="M28.873,27.619h-9.745c-0.113,0-0.204-0.09-0.204-0.203v-1.172c0-0.113,0.091-0.203,0.204-0.203h9.745
			c0.113,0,0.204,0.09,0.204,0.203v1.172C29.077,27.529,28.985,27.619,28.873,27.619z M19.331,27.211h9.338v-0.763h-9.338V27.211z"
			/>
	</g>
	<g>
		<path d="M20.572,24.861H19.4c-0.113,0-0.205-0.091-0.205-0.204v-3.533c0-0.113,0.092-0.204,0.205-0.204h1.172
			c0.113,0,0.205,0.091,0.205,0.204v3.533C20.777,24.77,20.685,24.861,20.572,24.861z M19.604,24.453h0.765v-3.125h-0.765V24.453z"
			/>
	</g>
	<g>
		<path d="M28.6,24.861h-1.172c-0.113,0-0.204-0.091-0.204-0.204v-3.533c0-0.113,0.091-0.204,0.204-0.204H28.6
			c0.113,0,0.204,0.091,0.204,0.204v3.533C28.803,24.77,28.712,24.861,28.6,24.861z M27.632,24.453h0.764v-3.125h-0.764V24.453z"/>
	</g>
	<g>
		<path d="M23.249,24.861h-1.173c-0.113,0-0.204-0.091-0.204-0.204v-3.533c0-0.113,0.091-0.204,0.204-0.204h1.173
			c0.113,0,0.204,0.091,0.204,0.204v3.533C23.453,24.77,23.362,24.861,23.249,24.861z M22.28,24.453h0.766v-3.125H22.28V24.453z"/>
	</g>
	<g>
		<path d="M25.925,24.861h-1.173c-0.113,0-0.204-0.091-0.204-0.204v-3.533c0-0.113,0.091-0.204,0.204-0.204h1.173
			c0.113,0,0.204,0.091,0.204,0.204v3.533C26.129,24.77,26.038,24.861,25.925,24.861z M24.957,24.453h0.765v-3.125h-0.765V24.453z"
			/>
	</g>
	<g>
		<path d="M28.878,19.747h-9.756c-0.113,0-0.205-0.091-0.205-0.204v-1.05c0-0.075,0.042-0.144,0.107-0.179l4.878-2.616
			c0.06-0.032,0.133-0.032,0.193,0l4.877,2.616c0.066,0.035,0.107,0.104,0.107,0.179v1.05
			C29.082,19.656,28.991,19.747,28.878,19.747z M19.325,19.339h9.349v-0.724L24,16.108l-4.675,2.507V19.339z"/>
	</g>
	<g>
		<circle cx="24" cy="38.559" r="1.06"/>
	</g>
	<g>
		<path d="M30.99,41.586H17.01c-0.787,0-1.427-0.641-1.427-1.428V8.522c0-0.788,0.641-1.428,1.427-1.428H30.99
			c0.787,0,1.427,0.641,1.427,1.428v31.636C32.417,40.946,31.776,41.586,30.99,41.586z M17.01,7.502c-0.562,0-1.02,0.458-1.02,1.02
			v31.636c0,0.562,0.458,1.02,1.02,1.02H30.99c0.562,0,1.02-0.458,1.02-1.02V8.522c0-0.562-0.458-1.02-1.02-1.02H17.01z"/>
	</g>
	<g>
		<path d="M31.978,35.36H16.023c-0.113,0-0.203-0.091-0.203-0.204s0.09-0.204,0.203-0.204h15.955c0.113,0,0.203,0.091,0.203,0.204
			S32.091,35.36,31.978,35.36z"/>
	</g>
</g>
</svg>
