<?xml version="1.0" encoding="utf-8"?>
<!-- Generator: Adobe Illustrator 16.0.0, SVG Export Plug-In . SVG Version: 6.00 Build 0)  -->
<!DOCTYPE svg PUBLIC "-//W3C//DTD SVG 1.1//EN" "http://www.w3.org/Graphics/SVG/1.1/DTD/svg11.dtd">
<svg version="1.1" id="Layer_1" xmlns="http://www.w3.org/2000/svg" xmlns:xlink="http://www.w3.org/1999/xlink" x="0px" y="0px"
	 width="48px" height="48px" viewBox="0 0 48 48" enable-background="new 0 0 48 48" xml:space="preserve">
<g>
	<g>
		<g>
			<path d="M29.523,27.424H18.469c-0.112,0-0.204-0.091-0.204-0.204v-1.328c0-0.113,0.092-0.205,0.204-0.205h11.055
				c0.112,0,0.204,0.092,0.204,0.205v1.328C29.728,27.333,29.636,27.424,29.523,27.424z M18.672,27.017h10.647v-0.921H18.672V27.017
				z"/>
		</g>
		<g>
			<path d="M20.229,24.357h-1.331c-0.112,0-0.203-0.091-0.203-0.204v-4.008c0-0.113,0.091-0.203,0.203-0.203h1.331
				c0.112,0,0.204,0.09,0.204,0.203v4.008C20.434,24.266,20.342,24.357,20.229,24.357z M19.103,23.949h0.923V20.35h-0.923V23.949z"
				/>
		</g>
		<g>
			<path d="M29.093,24.357h-1.331c-0.112,0-0.203-0.091-0.203-0.204v-4.008c0-0.113,0.091-0.203,0.203-0.203h1.331
				c0.113,0,0.205,0.09,0.205,0.203v4.008C29.298,24.266,29.206,24.357,29.093,24.357z M27.966,23.949h0.923V20.35h-0.923V23.949z"
				/>
		</g>
		<g>
			<path d="M23.184,24.357h-1.329c-0.113,0-0.204-0.091-0.204-0.204v-4.008c0-0.113,0.091-0.203,0.204-0.203h1.329
				c0.113,0,0.204,0.09,0.204,0.203v4.008C23.388,24.266,23.297,24.357,23.184,24.357z M22.059,23.949h0.921V20.35h-0.921V23.949z"
				/>
		</g>
		<g>
			<path d="M26.14,24.357h-1.332c-0.112,0-0.203-0.091-0.203-0.204v-4.008c0-0.113,0.091-0.203,0.203-0.203h1.332
				c0.112,0,0.203,0.09,0.203,0.203v4.008C26.343,24.266,26.252,24.357,26.14,24.357z M25.013,23.949h0.922V20.35h-0.922V23.949z"/>
		</g>
		<g>
			<path d="M29.528,18.619H18.463c-0.112,0-0.203-0.092-0.203-0.205v-1.19c0-0.075,0.041-0.145,0.107-0.18l5.532-2.968
				c0.06-0.032,0.133-0.032,0.193,0l5.533,2.968c0.065,0.035,0.106,0.104,0.106,0.18v1.19
				C29.732,18.527,29.642,18.619,29.528,18.619z M18.668,18.211h10.657v-0.865l-5.33-2.858l-5.327,2.858V18.211z"/>
		</g>
	</g>
	<g>
		<g>
			<path d="M38.093,32.889H9.898c-0.787,0-1.428-0.641-1.428-1.429V12.347c0-0.787,0.641-1.427,1.428-1.427h28.194
				c0.788,0,1.429,0.641,1.429,1.427V31.46C39.521,32.248,38.881,32.889,38.093,32.889z M9.898,11.327
				c-0.562,0-1.021,0.458-1.021,1.02V31.46c0,0.563,0.458,1.021,1.021,1.021h28.194c0.563,0,1.021-0.458,1.021-1.021V12.347
				c0-0.562-0.457-1.02-1.021-1.02H9.898z"/>
		</g>
		<g>
			<path d="M42.073,37.76c-0.003-0.001-0.006-0.001-0.009,0H5.927c-0.079,0-0.151-0.046-0.186-0.119
				c-0.033-0.072-0.021-0.157,0.029-0.218l2.683-3.175c0.037-0.046,0.095-0.072,0.155-0.072h30.775c0.06,0,0.117,0.026,0.156,0.072
				l2.652,3.141c0.051,0.038,0.085,0.098,0.085,0.166C42.277,37.668,42.186,37.76,42.073,37.76z M6.366,37.352h35.26l-2.337-2.767
				H8.703L6.366,37.352z"/>
		</g>
		<g>
			<path d="M39.317,30.5H8.675c-0.113,0-0.204-0.09-0.204-0.203s0.091-0.205,0.204-0.205h30.643c0.112,0,0.204,0.092,0.204,0.205
				S39.43,30.5,39.317,30.5z"/>
		</g>
	</g>
</g>
</svg>
