<?xml version="1.0" encoding="utf-8"?>
<!-- Generator: Adobe Illustrator 16.0.0, SVG Export Plug-In . SVG Version: 6.00 Build 0)  -->
<!DOCTYPE svg PUBLIC "-//W3C//DTD SVG 1.1//EN" "http://www.w3.org/Graphics/SVG/1.1/DTD/svg11.dtd">
<svg version="1.1" id="Layer_1" xmlns="http://www.w3.org/2000/svg" xmlns:xlink="http://www.w3.org/1999/xlink" x="0px" y="0px"
	 width="48px" height="48px" viewBox="0 0 48 48" enable-background="new 0 0 48 48" xml:space="preserve">
<g>
	<g>
		<path d="M31.117,29.161H16.882c-0.112,0-0.204-0.092-0.204-0.205v-1.712c0-0.113,0.092-0.205,0.204-0.205h14.234
			c0.113,0,0.205,0.092,0.205,0.205v1.712C31.321,29.069,31.229,29.161,31.117,29.161z M17.086,28.753h13.827v-1.306H17.086V28.753z
			"/>
	</g>
	<g>
		<g>
			<path d="M20.318,25.795h-1.713c-0.113,0-0.204-0.092-0.204-0.205v-5.16c0-0.113,0.091-0.205,0.204-0.205h1.713
				c0.113,0,0.204,0.092,0.204,0.205v5.16C20.522,25.704,20.431,25.795,20.318,25.795z M18.81,25.387h1.304v-4.753H18.81V25.387z"/>
		</g>
		<g>
			<path d="M29.394,25.795H27.68c-0.113,0-0.203-0.092-0.203-0.205v-5.16c0-0.113,0.09-0.205,0.203-0.205h1.713
				c0.113,0,0.203,0.092,0.203,0.205v5.16C29.597,25.704,29.506,25.795,29.394,25.795z M27.885,25.387h1.304v-4.753h-1.304V25.387z"
				/>
		</g>
		<g>
			<path d="M23.345,25.795H21.63c-0.113,0-0.204-0.092-0.204-0.205v-5.16c0-0.113,0.091-0.205,0.204-0.205h1.714
				c0.113,0,0.204,0.092,0.204,0.205v5.16C23.548,25.704,23.458,25.795,23.345,25.795z M21.834,25.387h1.306v-4.753h-1.306V25.387z"
				/>
		</g>
		<g>
			<path d="M26.37,25.795h-1.714c-0.113,0-0.204-0.092-0.204-0.205v-5.16c0-0.113,0.091-0.205,0.204-0.205h1.714
				c0.113,0,0.203,0.092,0.203,0.205v5.16C26.573,25.704,26.482,25.795,26.37,25.795z M24.86,25.387h1.305v-4.753H24.86V25.387z"/>
		</g>
	</g>
	<g>
		<path d="M31.125,18.987h-14.25c-0.113,0-0.204-0.091-0.204-0.204v-1.534c0-0.075,0.042-0.144,0.108-0.179l7.125-3.822
			c0.06-0.032,0.133-0.032,0.193,0l7.125,3.822c0.066,0.035,0.108,0.104,0.108,0.179v1.534
			C31.33,18.896,31.238,18.987,31.125,18.987z M17.079,18.58h13.842v-1.208L24,13.66l-6.921,3.711V18.58z"/>
	</g>
	<g>
		<path d="M35.421,42.266H12.578c-0.787,0-1.428-0.641-1.428-1.427V7.842c0-0.788,0.641-1.429,1.428-1.429h22.843
			c0.788,0,1.428,0.641,1.428,1.429v32.997C36.85,41.625,36.209,42.266,35.421,42.266z M12.578,6.822c-0.562,0-1.02,0.457-1.02,1.02
			v32.997c0,0.562,0.458,1.02,1.02,1.02h22.843c0.562,0,1.02-0.458,1.02-1.02V7.842c0-0.563-0.458-1.02-1.02-1.02H12.578z"/>
	</g>
	<g>
		<circle cx="24" cy="39.287" r="0.925"/>
	</g>
	<g>
		<path d="M36.453,36.118H11.546c-0.113,0-0.204-0.091-0.204-0.204s0.091-0.205,0.204-0.205h24.907c0.113,0,0.203,0.092,0.203,0.205
			S36.566,36.118,36.453,36.118z"/>
	</g>
</g>
</svg>
