<?xml version="1.0" encoding="utf-8"?>
<!-- Generator: Adobe Illustrator 16.0.0, SVG Export Plug-In . SVG Version: 6.00 Build 0)  -->
<!DOCTYPE svg PUBLIC "-//W3C//DTD SVG 1.1//EN" "http://www.w3.org/Graphics/SVG/1.1/DTD/svg11.dtd">
<svg version="1.1" id="Layer_1" xmlns="http://www.w3.org/2000/svg" xmlns:xlink="http://www.w3.org/1999/xlink" x="0px" y="0px"
	 width="48px" height="48px" viewBox="0 0 48 48" enable-background="new 0 0 48 48" xml:space="preserve">
<g>
	<g>
		<g>
			<path d="M27.036,29.316h-7.705c-0.113,0-0.205-0.091-0.205-0.204v-1.351c0-0.112,0.092-0.204,0.205-0.204h7.705
				c0.113,0,0.205,0.092,0.205,0.204v1.351C27.241,29.225,27.149,29.316,27.036,29.316z M19.535,28.908h7.298v-0.942h-7.298V28.908z
				"/>
		</g>
		<g>
			<path d="M27.038,22.67h-7.711c-0.113,0-0.204-0.091-0.204-0.204v-0.83c0-0.076,0.042-0.144,0.108-0.18l3.856-2.068
				c0.06-0.032,0.133-0.032,0.193,0l3.855,2.068c0.066,0.036,0.107,0.104,0.107,0.18v0.83C27.242,22.579,27.151,22.67,27.038,22.67z
				 M19.531,22.263h7.303v-0.504L23.184,19.8l-3.652,1.959V22.263z"/>
		</g>
		<g>
			<g>
				<path d="M20.351,26.608c-0.113,0-0.204-0.091-0.204-0.204v-2.508c0-0.113,0.091-0.204,0.204-0.204s0.204,0.091,0.204,0.204
					v2.508C20.555,26.517,20.464,26.608,20.351,26.608z"/>
			</g>
			<g>
				<path d="M22.183,26.608c-0.113,0-0.204-0.091-0.204-0.204v-2.508c0-0.113,0.091-0.204,0.204-0.204s0.203,0.091,0.203,0.204
					v2.508C22.386,26.517,22.295,26.608,22.183,26.608z"/>
			</g>
			<g>
				<path d="M24.015,26.608c-0.113,0-0.205-0.091-0.205-0.204v-2.508c0-0.113,0.092-0.204,0.205-0.204s0.203,0.091,0.203,0.204
					v2.508C24.218,26.517,24.128,26.608,24.015,26.608z"/>
			</g>
			<g>
				<path d="M25.847,26.608c-0.113,0-0.204-0.091-0.204-0.204v-2.508c0-0.113,0.091-0.204,0.204-0.204s0.205,0.091,0.205,0.204
					v2.508C26.052,26.517,25.96,26.608,25.847,26.608z"/>
			</g>
		</g>
	</g>
	<g>
		<g>
			<path d="M28.515,33.09H17.852c-1.237,0-2.244-1.007-2.244-2.244V17.834c0-1.238,1.007-2.244,2.244-2.244h10.663
				c1.237,0,2.244,1.006,2.244,2.244v13.012C30.758,32.083,29.751,33.09,28.515,33.09z M17.852,15.999
				c-1.012,0-1.836,0.824-1.836,1.836v13.012c0,1.012,0.824,1.836,1.836,1.836h10.663c1.012,0,1.836-0.824,1.836-1.836V17.834
				c0-1.012-0.824-1.836-1.836-1.836H17.852z"/>
		</g>
		<g>
			<path d="M32.188,22.552c-0.113,0-0.205-0.092-0.205-0.205v-2.84c0-0.113,0.092-0.204,0.205-0.204s0.203,0.091,0.203,0.204v2.84
				C32.392,22.46,32.301,22.552,32.188,22.552z"/>
		</g>
		<g>
			<path d="M27.83,14.325c-0.113,0-0.205-0.091-0.205-0.204v-3.25c0-0.337-0.274-0.612-0.612-0.612h-7.66
				c-0.337,0-0.612,0.274-0.612,0.612v3.25c0,0.113-0.092,0.204-0.205,0.204s-0.203-0.091-0.203-0.204v-3.25
				c0-0.563,0.458-1.021,1.02-1.021h7.66c0.563,0,1.02,0.458,1.02,1.021v3.25C28.033,14.234,27.942,14.325,27.83,14.325z"/>
		</g>
		<g>
			<path d="M27.013,38.83h-7.66c-0.562,0-1.02-0.458-1.02-1.02v-3.252c0-0.113,0.09-0.203,0.203-0.203s0.205,0.09,0.205,0.203v3.252
				c0,0.337,0.274,0.612,0.612,0.612h7.66c0.337,0,0.612-0.274,0.612-0.612v-3.252c0-0.113,0.092-0.203,0.205-0.203
				s0.203,0.09,0.203,0.203v3.252C28.033,38.372,27.576,38.83,27.013,38.83z"/>
		</g>
	</g>
</g>
</svg>
