<?xml version="1.0" encoding="utf-8"?>
<!-- Generator: Adobe Illustrator 16.0.0, SVG Export Plug-In . SVG Version: 6.00 Build 0)  -->
<!DOCTYPE svg PUBLIC "-//W3C//DTD SVG 1.1//EN" "http://www.w3.org/Graphics/SVG/1.1/DTD/svg11.dtd">
<svg version="1.1" id="Layer_1" xmlns="http://www.w3.org/2000/svg" xmlns:xlink="http://www.w3.org/1999/xlink" x="0px" y="0px"
	 width="32px" height="32px" viewBox="0 0 32 32" enable-background="new 0 0 32 32" xml:space="preserve">
<g>
	<g>
		<g>
			<g>
				<g>
					<path d="M19.677,22.982h-8.214c-1.108,0-2.009-0.901-2.009-2.009V10.868c0-1.108,0.9-2.009,2.009-2.009h8.214
						c1.108,0,2.01,0.901,2.01,2.009v10.105C21.687,22.081,20.785,22.982,19.677,22.982z M11.463,9.224
						c-0.906,0-1.644,0.737-1.644,1.644v10.105c0,0.906,0.737,1.644,1.644,1.644h8.214c0.906,0,1.645-0.738,1.645-1.644V10.868
						c0-0.907-0.738-1.644-1.645-1.644H11.463z"/>
				</g>
			</g>
			<g>
				<g>
					<path d="M22.818,14.499c-0.102,0-0.184-0.081-0.184-0.183V12.03c0-0.101,0.082-0.182,0.184-0.182S23,11.93,23,12.03v2.286
						C23,14.418,22.92,14.499,22.818,14.499z"/>
				</g>
			</g>
			<g>
				<g>
					<path d="M19.311,7.876c-0.102,0-0.183-0.082-0.183-0.182V5.15c0-0.302-0.246-0.547-0.55-0.547h-6.017
						c-0.301,0-0.548,0.246-0.548,0.547v2.544c0,0.101-0.084,0.182-0.185,0.182s-0.182-0.082-0.182-0.182V5.15
						c0-0.503,0.409-0.913,0.914-0.913h6.017c0.506,0,0.914,0.41,0.914,0.913v2.544C19.492,7.795,19.411,7.876,19.311,7.876z"/>
				</g>
			</g>
			<g>
				<g>
					<path d="M18.578,27.603h-6.017c-0.505,0-0.914-0.409-0.914-0.913v-2.543c0-0.101,0.081-0.183,0.182-0.183
						s0.185,0.082,0.185,0.183v2.543c0,0.302,0.247,0.548,0.548,0.548h6.017c0.304,0,0.55-0.246,0.55-0.548v-2.543
						c0-0.101,0.081-0.183,0.183-0.183c0.101,0,0.182,0.082,0.182,0.183v2.543C19.492,27.193,19.084,27.603,18.578,27.603z"/>
				</g>
			</g>
		</g>
		<g>
			<g>
				<path d="M14.678,19.138h-1.836c-0.1,0-0.182-0.082-0.182-0.183v-2.683c0-0.101,0.082-0.183,0.182-0.183h1.836
					c0.101,0,0.183,0.082,0.183,0.183v2.683C14.86,19.056,14.778,19.138,14.678,19.138z M13.026,18.772h1.47v-2.317h-1.47V18.772z"
					/>
			</g>
			<g>
				<path d="M16.488,19.138h-1.836c-0.1,0-0.183-0.082-0.183-0.183v-4.376c0-0.101,0.083-0.183,0.183-0.183h1.836
					c0.1,0,0.183,0.082,0.183,0.183v4.376C16.671,19.056,16.588,19.138,16.488,19.138z M14.836,18.772h1.469v-4.011h-1.469V18.772z"
					/>
			</g>
			<g>
				<path d="M18.298,19.138h-1.835c-0.103,0-0.184-0.082-0.184-0.183v-6.069c0-0.101,0.081-0.183,0.184-0.183h1.835
					c0.1,0,0.182,0.082,0.182,0.183v6.069C18.479,19.056,18.397,19.138,18.298,19.138z M16.644,18.772h1.471v-5.705h-1.471V18.772z"
					/>
			</g>
		</g>
	</g>
</g>
</svg>
