<?xml version="1.0" encoding="utf-8"?>
<!-- Generator: Adobe Illustrator 16.0.0, SVG Export Plug-In . SVG Version: 6.00 Build 0)  -->
<!DOCTYPE svg PUBLIC "-//W3C//DTD SVG 1.1//EN" "http://www.w3.org/Graphics/SVG/1.1/DTD/svg11.dtd">
<svg version="1.1" id="Layer_1" xmlns="http://www.w3.org/2000/svg" xmlns:xlink="http://www.w3.org/1999/xlink" x="0px" y="0px"
	 width="32px" height="32px" viewBox="0 0 32 32" enable-background="new 0 0 32 32" xml:space="preserve">
<g>
	<g>
		<g>
			<g>
				<g>
					<path d="M27.431,23.049H4.952c-0.704,0-1.277-0.574-1.277-1.279V6.604c0-0.705,0.573-1.278,1.277-1.278h22.479
						c0.702,0,1.276,0.574,1.276,1.278V21.77C28.707,22.476,28.133,23.049,27.431,23.049z M4.952,5.692
						c-0.504,0-0.912,0.41-0.912,0.913V21.77c0,0.503,0.408,0.914,0.912,0.914h22.479c0.501,0,0.912-0.41,0.912-0.914V6.604
						c0-0.502-0.411-0.913-0.912-0.913H4.952z"/>
				</g>
			</g>
			<g>
				<g>
					<path d="M28.525,21.125H3.856c-0.101,0-0.182-0.082-0.182-0.182s0.081-0.183,0.182-0.183h24.669
						c0.101,0,0.182,0.083,0.182,0.183S28.626,21.125,28.525,21.125z"/>
				</g>
			</g>
			<g>
				<g>
					<g>
						<path d="M11.281,26.286c-0.037,0-0.077-0.013-0.111-0.038c-0.078-0.062-0.095-0.177-0.033-0.256l2.512-3.243
							c0.062-0.079,0.177-0.093,0.257-0.032c0.08,0.062,0.095,0.177,0.031,0.256l-2.51,3.242
							C11.391,26.262,11.337,26.286,11.281,26.286z"/>
					</g>
				</g>
				<g>
					<g>
						<path d="M21.1,26.286c-0.055,0-0.108-0.024-0.145-0.071l-2.511-3.242c-0.062-0.079-0.048-0.194,0.032-0.256
							c0.081-0.062,0.193-0.047,0.257,0.032l2.512,3.243c0.061,0.079,0.046,0.194-0.033,0.256
							C21.177,26.273,21.139,26.286,21.1,26.286z"/>
					</g>
				</g>
			</g>
			<g>
				<g>
					<path d="M23.04,26.514H9.341c-0.101,0-0.181-0.082-0.181-0.183c0-0.101,0.08-0.183,0.181-0.183H23.04
						c0.102,0,0.183,0.082,0.183,0.183C23.223,26.432,23.142,26.514,23.04,26.514z"/>
				</g>
			</g>
		</g>
		<g>
			<g>
				<path d="M22.271,18.543H10.11c-0.1,0-0.182-0.082-0.182-0.183c0-0.101,0.082-0.182,0.182-0.182h12.16
					c0.1,0,0.182,0.082,0.182,0.182C22.452,18.461,22.37,18.543,22.271,18.543z"/>
			</g>
			<g>
				<path d="M13.571,17.266h-2.549c-0.102,0-0.183-0.081-0.183-0.182v-3.726c0-0.101,0.081-0.184,0.183-0.184h2.549
					c0.102,0,0.183,0.083,0.183,0.184v3.726C13.754,17.185,13.673,17.266,13.571,17.266z M11.205,16.901h2.186V13.54h-2.186V16.901z
					"/>
			</g>
			<g>
				<path d="M17.466,17.266h-2.549c-0.102,0-0.184-0.081-0.184-0.182v-6.079c0-0.102,0.082-0.183,0.184-0.183h2.549
					c0.099,0,0.184,0.081,0.184,0.183v6.079C17.649,17.185,17.564,17.266,17.466,17.266z M15.099,16.901h2.184v-5.714h-2.184V16.901
					z"/>
			</g>
			<g>
				<path d="M21.359,17.266h-2.549c-0.102,0-0.184-0.081-0.184-0.182V8.652c0-0.102,0.082-0.183,0.184-0.183h2.549
					c0.102,0,0.182,0.081,0.182,0.183v8.431C21.541,17.185,21.461,17.266,21.359,17.266z M18.992,16.901h2.184V8.835h-2.184V16.901z
					"/>
			</g>
		</g>
	</g>
</g>
</svg>
