<?xml version="1.0" encoding="utf-8"?>
<!-- Generator: Adobe Illustrator 16.0.0, SVG Export Plug-In . SVG Version: 6.00 Build 0)  -->
<!DOCTYPE svg PUBLIC "-//W3C//DTD SVG 1.1//EN" "http://www.w3.org/Graphics/SVG/1.1/DTD/svg11.dtd">
<svg version="1.1" id="Layer_1" xmlns="http://www.w3.org/2000/svg" xmlns:xlink="http://www.w3.org/1999/xlink" x="0px" y="0px"
	 width="32px" height="32px" viewBox="0 0 32 32" enable-background="new 0 0 32 32" xml:space="preserve">
<g>
	<g>
		<g>
			<g>
				<g>
					<path d="M27.391,22.821H4.914c-0.705,0-1.278-0.574-1.278-1.278V6.376c0-0.705,0.573-1.278,1.278-1.278h22.477
						c0.703,0,1.278,0.573,1.278,1.278v15.166C28.669,22.247,28.094,22.821,27.391,22.821z M4.914,5.463
						c-0.504,0-0.913,0.41-0.913,0.913v15.166c0,0.503,0.409,0.913,0.913,0.913h22.477c0.503,0,0.913-0.41,0.913-0.913V6.376
						c0-0.503-0.41-0.913-0.913-0.913H4.914z"/>
				</g>
			</g>
			<g>
				<g>
					<path d="M30.705,26.743c-0.002,0-0.004,0-0.007,0H1.606c-0.07,0-0.136-0.042-0.166-0.106c-0.03-0.064-0.02-0.14,0.026-0.194
						l2.16-2.558c0.032-0.041,0.084-0.064,0.138-0.064h24.774c0.054,0,0.104,0.024,0.14,0.064l2.132,2.526
						c0.047,0.034,0.076,0.087,0.076,0.149C30.887,26.66,30.807,26.743,30.705,26.743z M1.999,26.377h28.305l-1.849-2.192H3.851
						L1.999,26.377z"/>
				</g>
			</g>
			<g>
				<g>
					<path d="M28.485,20.897H3.817c-0.101,0-0.182-0.082-0.182-0.183c0-0.101,0.081-0.183,0.182-0.183h24.668
						c0.102,0,0.184,0.082,0.184,0.183C28.669,20.815,28.587,20.897,28.485,20.897z"/>
				</g>
			</g>
		</g>
		<g>
			<g>
				<path d="M22.317,18.61H9.987c-0.101,0-0.183-0.082-0.183-0.184c0-0.101,0.082-0.183,0.183-0.183h12.33
					c0.101,0,0.183,0.082,0.183,0.183C22.5,18.528,22.418,18.61,22.317,18.61z"/>
			</g>
			<g>
				<g>
					<path d="M13.865,17.319h-2.584c-0.102,0-0.183-0.082-0.183-0.183v-3.778c0-0.102,0.081-0.184,0.183-0.184h2.584
						c0.102,0,0.183,0.082,0.183,0.184v3.778C14.048,17.237,13.967,17.319,13.865,17.319z M11.464,16.954h2.22v-3.414h-2.22V16.954z
						"/>
				</g>
				<g>
					<path d="M17.443,17.319h-2.585c-0.1,0-0.182-0.082-0.182-0.183v-6.165c0-0.101,0.082-0.183,0.182-0.183h2.585
						c0.102,0,0.184,0.082,0.184,0.183v6.165C17.627,17.237,17.545,17.319,17.443,17.319z M15.042,16.954h2.219v-5.8h-2.219V16.954z
						"/>
				</g>
				<g>
					<path d="M21.023,17.319h-2.585c-0.101,0-0.183-0.082-0.183-0.183v-8.55c0-0.102,0.082-0.183,0.183-0.183h2.585
						c0.102,0,0.183,0.081,0.183,0.183v8.55C21.206,17.237,21.125,17.319,21.023,17.319z M18.621,16.954h2.22V8.769h-2.22V16.954z"
						/>
				</g>
			</g>
		</g>
	</g>
</g>
</svg>
