<?xml version="1.0" encoding="utf-8"?>
<!-- Generator: Adobe Illustrator 16.0.0, SVG Export Plug-In . SVG Version: 6.00 Build 0)  -->
<!DOCTYPE svg PUBLIC "-//W3C//DTD SVG 1.1//EN" "http://www.w3.org/Graphics/SVG/1.1/DTD/svg11.dtd">
<svg version="1.1" id="Layer_1" xmlns="http://www.w3.org/2000/svg" xmlns:xlink="http://www.w3.org/1999/xlink" x="0px" y="0px"
	 width="32px" height="32px" viewBox="0 0 32 32" enable-background="new 0 0 32 32" xml:space="preserve">
<g>
	<g>
		<g>
			<g>
				<path d="M21.635,29.822H10.603c-0.704,0-1.279-0.574-1.279-1.279V3.297c0-0.706,0.575-1.28,1.279-1.28h11.032
					c0.705,0,1.278,0.574,1.278,1.28v25.246C22.913,29.249,22.34,29.822,21.635,29.822z M10.603,2.383
					c-0.504,0-0.914,0.41-0.914,0.914v25.246c0,0.503,0.41,0.913,0.914,0.913h11.032c0.503,0,0.913-0.41,0.913-0.913V3.297
					c0-0.504-0.41-0.914-0.913-0.914H10.603z"/>
			</g>
		</g>
		<g>
			<g>
				<path d="M22.54,24.809H9.697c-0.102,0-0.182-0.082-0.182-0.183s0.08-0.183,0.182-0.183H22.54c0.101,0,0.182,0.082,0.182,0.183
					S22.641,24.809,22.54,24.809z"/>
			</g>
		</g>
		<g>
			<g>
				<circle cx="16.118" cy="27.221" r="0.746"/>
			</g>
		</g>
		<g>
			<g>
				<g>
					<path d="M15.226,17.309h-1.834c-0.101,0-0.184-0.082-0.184-0.183v-2.682c0-0.102,0.083-0.183,0.184-0.183h1.834
						c0.102,0,0.184,0.082,0.184,0.183v2.682C15.409,17.227,15.327,17.309,15.226,17.309z M13.574,16.943h1.47v-2.317h-1.47V16.943z
						"/>
				</g>
			</g>
			<g>
				<g>
					<path d="M17.037,17.309h-1.836c-0.101,0-0.182-0.082-0.182-0.183V12.75c0-0.102,0.081-0.183,0.182-0.183h1.836
						c0.1,0,0.182,0.081,0.182,0.183v4.375C17.219,17.227,17.137,17.309,17.037,17.309z M15.385,16.943h1.469v-4.01h-1.469V16.943z"
						/>
				</g>
			</g>
			<g>
				<g>
					<path d="M18.847,17.309h-1.836c-0.102,0-0.183-0.082-0.183-0.183v-6.069c0-0.101,0.081-0.183,0.183-0.183h1.836
						c0.1,0,0.182,0.082,0.182,0.183v6.069C19.028,17.227,18.946,17.309,18.847,17.309z M17.193,16.943h1.469v-5.705h-1.469V16.943z
						"/>
				</g>
			</g>
		</g>
	</g>
</g>
</svg>
