<?xml version="1.0" encoding="utf-8"?>
<!-- Generator: Adobe Illustrator 16.0.0, SVG Export Plug-In . SVG Version: 6.00 Build 0)  -->
<!DOCTYPE svg PUBLIC "-//W3C//DTD SVG 1.1//EN" "http://www.w3.org/Graphics/SVG/1.1/DTD/svg11.dtd">
<svg version="1.1" id="Layer_1" xmlns="http://www.w3.org/2000/svg" xmlns:xlink="http://www.w3.org/1999/xlink" x="0px" y="0px"
	 width="32px" height="32px" viewBox="0 0 32 32" enable-background="new 0 0 32 32" xml:space="preserve">
<g>
	<g>
		<g>
			<g>
				<path d="M25.166,30.369H6.999c-0.706,0-1.279-0.574-1.279-1.279V2.75c0-0.705,0.573-1.279,1.279-1.279h18.167
					c0.705,0,1.278,0.574,1.278,1.279V29.09C26.444,29.795,25.871,30.369,25.166,30.369z M6.999,1.836
					c-0.504,0-0.914,0.409-0.914,0.913V29.09c0,0.504,0.41,0.914,0.914,0.914h18.167c0.503,0,0.913-0.409,0.913-0.914V2.75
					c0-0.504-0.41-0.913-0.913-0.913H6.999z"/>
			</g>
		</g>
		<g>
			<g>
				<circle cx="16.083" cy="27.951" r="0.746"/>
			</g>
		</g>
		<g>
			<g>
				<path d="M26.106,25.418H6.058c-0.1,0-0.182-0.082-0.182-0.183c0-0.101,0.082-0.182,0.182-0.182h20.049
					c0.102,0,0.182,0.082,0.182,0.182C26.288,25.337,26.208,25.418,26.106,25.418z"/>
			</g>
		</g>
		<g>
			<g>
				<g>
					<path d="M23.634,20.77H8.531c-0.102,0-0.184-0.081-0.184-0.183c0-0.101,0.082-0.182,0.184-0.182h15.103
						c0.101,0,0.184,0.081,0.184,0.182C23.817,20.689,23.734,20.77,23.634,20.77z"/>
				</g>
			</g>
			<g>
				<g>
					<g>
						<path d="M13.281,18.907h-3.165c-0.102,0-0.184-0.082-0.184-0.183v-4.628c0-0.102,0.082-0.183,0.184-0.183h3.165
							c0.102,0,0.183,0.082,0.183,0.183v4.628C13.464,18.826,13.383,18.907,13.281,18.907z M10.298,18.542H13.1v-4.263h-2.802
							V18.542z"/>
					</g>
				</g>
				<g>
					<g>
						<path d="M17.666,18.907h-3.168c-0.1,0-0.182-0.082-0.182-0.183v-7.551c0-0.101,0.082-0.183,0.182-0.183h3.168
							c0.1,0,0.182,0.082,0.182,0.183v7.551C17.848,18.826,17.766,18.907,17.666,18.907z M14.682,18.542h2.801v-7.186h-2.801V18.542
							z"/>
					</g>
				</g>
				<g>
					<g>
						<path d="M22.049,18.907h-3.166c-0.101,0-0.183-0.082-0.183-0.183V8.251c0-0.102,0.082-0.183,0.183-0.183h3.166
							c0.101,0,0.184,0.082,0.184,0.183v10.473C22.232,18.826,22.149,18.907,22.049,18.907z M19.065,18.542h2.801V8.433h-2.801
							V18.542z"/>
					</g>
				</g>
			</g>
		</g>
	</g>
</g>
</svg>
