<?xml version="1.0" encoding="utf-8"?>
<!-- Generator: Adobe Illustrator 16.0.0, SVG Export Plug-In . SVG Version: 6.00 Build 0)  -->
<!DOCTYPE svg PUBLIC "-//W3C//DTD SVG 1.1//EN" "http://www.w3.org/Graphics/SVG/1.1/DTD/svg11.dtd">
<svg version="1.1" id="Layer_1" xmlns="http://www.w3.org/2000/svg" xmlns:xlink="http://www.w3.org/1999/xlink" x="0px" y="0px"
	 width="48px" height="48px" viewBox="0 0 48 48" enable-background="new 0 0 48 48" xml:space="preserve">
<g>
	<g>
		<path d="M31.542,43.01H16.457c-0.964,0-1.748-0.785-1.748-1.748V6.738c0-0.963,0.784-1.748,1.748-1.748h15.085
			c0.964,0,1.749,0.785,1.749,1.748v34.523C33.291,42.225,32.506,43.01,31.542,43.01z M16.457,5.49
			c-0.689,0-1.249,0.559-1.249,1.248v34.523c0,0.689,0.56,1.248,1.249,1.248h15.085c0.688,0,1.249-0.559,1.249-1.248V6.738
			c0-0.689-0.561-1.248-1.249-1.248H16.457z"/>
	</g>
	<g>
		<path d="M32.78,36.154H15.219c-0.138,0-0.25-0.111-0.25-0.248c0-0.139,0.112-0.25,0.25-0.25H32.78c0.138,0,0.249,0.111,0.249,0.25
			C33.029,36.043,32.918,36.154,32.78,36.154z"/>
	</g>
	<g>
		<circle cx="24" cy="39.453" r="1.02"/>
	</g>
	<g>
		<path d="M21.389,26.463c-0.041,0-0.08-0.01-0.117-0.029c-0.082-0.043-0.133-0.129-0.133-0.221v-9.939
			c0-0.092,0.051-0.178,0.133-0.221c0.083-0.043,0.182-0.037,0.258,0.016l7.221,4.969c0.068,0.047,0.108,0.125,0.108,0.207
			s-0.04,0.158-0.108,0.205l-7.221,4.969C21.487,26.447,21.438,26.463,21.389,26.463z M21.639,16.75v8.986l6.529-4.492L21.639,16.75
			z"/>
	</g>
</g>
</svg>
