<?xml version="1.0" encoding="utf-8"?>
<!-- Generator: Adobe Illustrator 16.0.0, SVG Export Plug-In . SVG Version: 6.00 Build 0)  -->
<!DOCTYPE svg PUBLIC "-//W3C//DTD SVG 1.1//EN" "http://www.w3.org/Graphics/SVG/1.1/DTD/svg11.dtd">
<svg version="1.1" id="Layer_1" xmlns="http://www.w3.org/2000/svg" xmlns:xlink="http://www.w3.org/1999/xlink" x="0px" y="0px"
	 width="48px" height="48px" viewBox="0 0 48 48" enable-background="new 0 0 48 48" xml:space="preserve">
<g>
	<g>
		<g>
			<path d="M28.718,35.705H17.485c-1.515,0-2.748-1.232-2.748-2.748V19.139c0-1.516,1.233-2.748,2.748-2.748h11.232
				c1.514,0,2.747,1.232,2.747,2.748v13.818C31.465,34.473,30.231,35.705,28.718,35.705z M17.485,16.891
				c-1.24,0-2.248,1.008-2.248,2.248v13.818c0,1.24,1.008,2.248,2.248,2.248h11.232c1.239,0,2.247-1.008,2.247-2.248V19.139
				c0-1.24-1.008-2.248-2.247-2.248H17.485z"/>
		</g>
		<g>
			<path d="M33.013,24.105c-0.138,0-0.25-0.111-0.25-0.25v-3.127c0-0.137,0.112-0.248,0.25-0.248c0.139,0,0.25,0.111,0.25,0.248
				v3.127C33.263,23.994,33.151,24.105,33.013,24.105z"/>
		</g>
		<g>
			<path d="M28.216,15.049c-0.139,0-0.25-0.111-0.25-0.25v-3.477c0-0.414-0.336-0.75-0.75-0.75h-8.229
				c-0.413,0-0.749,0.336-0.749,0.75v3.477c0,0.139-0.111,0.25-0.25,0.25c-0.138,0-0.25-0.111-0.25-0.25v-3.477
				c0-0.689,0.561-1.25,1.249-1.25h8.229c0.689,0,1.249,0.561,1.249,1.25v3.477C28.465,14.938,28.354,15.049,28.216,15.049z"/>
		</g>
		<g>
			<path d="M27.216,42.023h-8.229c-0.688,0-1.249-0.561-1.249-1.25v-3.477c0-0.139,0.112-0.25,0.25-0.25
				c0.139,0,0.25,0.111,0.25,0.25v3.477c0,0.414,0.336,0.75,0.749,0.75h8.229c0.414,0,0.75-0.336,0.75-0.75v-3.477
				c0-0.139,0.111-0.25,0.25-0.25c0.138,0,0.249,0.111,0.249,0.25v3.477C28.465,41.463,27.905,42.023,27.216,42.023z"/>
		</g>
	</g>
	<g>
		<path d="M21.118,30.4c-0.04,0-0.079-0.008-0.116-0.027c-0.082-0.043-0.134-0.129-0.134-0.223v-8.205
			c0-0.094,0.052-0.18,0.134-0.223s0.181-0.037,0.258,0.016l5.964,4.104c0.067,0.047,0.108,0.123,0.108,0.205
			c0,0.084-0.041,0.16-0.108,0.207l-5.964,4.104C21.217,30.387,21.168,30.4,21.118,30.4z M21.368,22.42v7.256l5.273-3.629
			L21.368,22.42z"/>
	</g>
</g>
</svg>
