<?xml version="1.0" encoding="utf-8"?>
<!-- Generator: Adobe Illustrator 16.0.0, SVG Export Plug-In . SVG Version: 6.00 Build 0)  -->
<!DOCTYPE svg PUBLIC "-//W3C//DTD SVG 1.1//EN" "http://www.w3.org/Graphics/SVG/1.1/DTD/svg11.dtd">
<svg version="1.1" id="Layer_1" xmlns="http://www.w3.org/2000/svg" xmlns:xlink="http://www.w3.org/1999/xlink" x="0px" y="0px"
	 width="48px" height="48px" viewBox="0 0 48 48" enable-background="new 0 0 48 48" xml:space="preserve">
<g>
	<g>
		<path d="M36.421,43.758H11.578c-0.964,0-1.748-0.783-1.748-1.748V5.99c0-0.965,0.784-1.748,1.748-1.748h24.843
			c0.965,0,1.749,0.783,1.749,1.748v36.02C38.17,42.975,37.386,43.758,36.421,43.758z M11.578,4.742
			c-0.688,0-1.248,0.559-1.248,1.248v36.02c0,0.689,0.56,1.248,1.248,1.248h24.843c0.689,0,1.25-0.559,1.25-1.248V5.99
			c0-0.689-0.561-1.248-1.25-1.248H11.578z"/>
	</g>
	<g>
		<circle cx="24" cy="40.451" r="1.02"/>
	</g>
	<g>
		<path d="M37.708,36.988H10.293c-0.139,0-0.25-0.111-0.25-0.25s0.111-0.25,0.25-0.25h27.415c0.137,0,0.249,0.111,0.249,0.25
			S37.845,36.988,37.708,36.988z"/>
	</g>
	<g>
		<path d="M20.207,28.775c-0.04,0-0.08-0.008-0.116-0.027c-0.083-0.043-0.134-0.129-0.134-0.223V13.959
			c0-0.092,0.051-0.178,0.134-0.221s0.181-0.037,0.257,0.016l10.584,7.283C31,21.084,31.04,21.16,31.04,21.244
			c0,0.082-0.04,0.158-0.108,0.205l-10.584,7.283C20.306,28.762,20.256,28.775,20.207,28.775z M20.457,14.436v13.615l9.893-6.807
			L20.457,14.436z"/>
	</g>
</g>
</svg>
