<?xml version="1.0" encoding="utf-8"?>
<!-- Generator: Adobe Illustrator 16.0.0, SVG Export Plug-In . SVG Version: 6.00 Build 0)  -->
<!DOCTYPE svg PUBLIC "-//W3C//DTD SVG 1.1//EN" "http://www.w3.org/Graphics/SVG/1.1/DTD/svg11.dtd">
<svg version="1.1" id="Layer_1" xmlns="http://www.w3.org/2000/svg" xmlns:xlink="http://www.w3.org/1999/xlink" x="0px" y="0px"
	 width="48px" height="48px" viewBox="0 0 48 48" enable-background="new 0 0 48 48" xml:space="preserve">
<g>
	<g>
		<g>
			<path d="M39.362,33.436H8.628c-0.964,0-1.748-0.783-1.748-1.748V10.949c0-0.963,0.784-1.748,1.748-1.748h30.734
				c0.965,0,1.748,0.785,1.748,1.748v20.738C41.11,32.652,40.327,33.436,39.362,33.436z M8.628,9.701
				c-0.689,0-1.249,0.561-1.249,1.248v20.738c0,0.689,0.56,1.25,1.249,1.25h30.734c0.689,0,1.249-0.561,1.249-1.25V10.949
				c0-0.688-0.56-1.248-1.249-1.248H8.628z"/>
		</g>
		<g>
			<path d="M43.896,38.799c-0.002,0-0.006,0-0.01,0H4.105c-0.097,0-0.186-0.057-0.227-0.145s-0.027-0.193,0.036-0.268l2.951-3.496
				c0.047-0.057,0.117-0.088,0.191-0.088h33.876c0.073,0,0.144,0.031,0.19,0.088l2.916,3.455c0.063,0.045,0.104,0.119,0.104,0.203
				C44.145,38.686,44.032,38.799,43.896,38.799z M4.643,38.299h38.705l-2.53-2.998H7.173L4.643,38.299z"/>
		</g>
		<g>
			<path d="M40.861,30.807H7.13c-0.139,0-0.25-0.113-0.25-0.25c0-0.139,0.111-0.25,0.25-0.25h33.731c0.138,0,0.249,0.111,0.249,0.25
				C41.11,30.693,40.999,30.807,40.861,30.807z"/>
		</g>
	</g>
	<g>
		<path d="M22.138,26.348c-0.04,0-0.08-0.01-0.116-0.029c-0.083-0.043-0.134-0.127-0.134-0.221V15.389
			c0-0.092,0.051-0.178,0.134-0.221c0.082-0.043,0.181-0.037,0.258,0.016l7.78,5.354c0.068,0.047,0.108,0.125,0.108,0.207
			s-0.04,0.158-0.108,0.205l-7.78,5.355C22.237,26.334,22.188,26.348,22.138,26.348z M22.388,15.865v9.758l7.09-4.879L22.388,15.865
			z"/>
	</g>
</g>
</svg>
