<?xml version="1.0" encoding="utf-8"?>
<!-- Generator: Adobe Illustrator 16.0.0, SVG Export Plug-In . SVG Version: 6.00 Build 0)  -->
<!DOCTYPE svg PUBLIC "-//W3C//DTD SVG 1.1//EN" "http://www.w3.org/Graphics/SVG/1.1/DTD/svg11.dtd">
<svg version="1.1" id="Layer_1" xmlns="http://www.w3.org/2000/svg" xmlns:xlink="http://www.w3.org/1999/xlink" x="0px" y="0px"
	 width="48px" height="48px" viewBox="0 0 48 48" enable-background="new 0 0 48 48" xml:space="preserve">
<g>
	<g>
		<g>
			<path d="M39.367,33.748H8.633c-0.965,0-1.748-0.783-1.748-1.748V11.262c0-0.963,0.783-1.748,1.748-1.748h30.734
				c0.965,0,1.748,0.785,1.748,1.748V32C41.115,32.965,40.332,33.748,39.367,33.748z M8.633,10.014
				c-0.689,0-1.248,0.561-1.248,1.248V32c0,0.689,0.559,1.248,1.248,1.248h30.734c0.689,0,1.25-0.559,1.25-1.248V11.262
				c0-0.688-0.561-1.248-1.25-1.248H8.633z"/>
		</g>
		<g>
			<path d="M40.865,31.117H7.135c-0.139,0-0.25-0.111-0.25-0.248c0-0.139,0.111-0.25,0.25-0.25h33.73c0.139,0,0.25,0.111,0.25,0.25
				C41.115,31.006,41.004,31.117,40.865,31.117z"/>
		</g>
		<g>
			<g>
				<path d="M17.287,38.174c-0.053,0-0.107-0.018-0.152-0.053c-0.109-0.084-0.129-0.24-0.045-0.35l3.436-4.434
					c0.084-0.109,0.24-0.129,0.35-0.045s0.129,0.242,0.045,0.352l-3.434,4.432C17.436,38.141,17.363,38.174,17.287,38.174z"/>
			</g>
			<g>
				<path d="M30.713,38.174c-0.074,0-0.148-0.033-0.197-0.098l-3.436-4.432c-0.084-0.109-0.064-0.268,0.045-0.352
					s0.266-0.064,0.352,0.045l3.434,4.434c0.084,0.109,0.064,0.266-0.045,0.35C30.82,38.156,30.766,38.174,30.713,38.174z"/>
			</g>
		</g>
		<g>
			<path d="M33.365,38.486h-18.73c-0.139,0-0.25-0.111-0.25-0.25s0.111-0.25,0.25-0.25h18.73c0.139,0,0.25,0.111,0.25,0.25
				S33.504,38.486,33.365,38.486z"/>
		</g>
	</g>
	<g>
		<path d="M22.143,26.348c-0.039,0-0.08-0.01-0.115-0.029c-0.084-0.043-0.135-0.127-0.135-0.221V15.389
			c0-0.092,0.051-0.178,0.135-0.221c0.082-0.043,0.18-0.037,0.256,0.016l7.781,5.354c0.068,0.047,0.109,0.125,0.109,0.207
			s-0.041,0.158-0.109,0.205l-7.781,5.355C22.242,26.334,22.191,26.348,22.143,26.348z M22.393,15.865v9.758l7.09-4.879
			L22.393,15.865z"/>
	</g>
</g>
</svg>
