<?xml version="1.0" encoding="utf-8"?>
<!-- Generator: Adobe Illustrator 16.0.0, SVG Export Plug-In . SVG Version: 6.00 Build 0)  -->
<!DOCTYPE svg PUBLIC "-//W3C//DTD SVG 1.1//EN" "http://www.w3.org/Graphics/SVG/1.1/DTD/svg11.dtd">
<svg version="1.1" id="Layer_1" xmlns="http://www.w3.org/2000/svg" xmlns:xlink="http://www.w3.org/1999/xlink" x="0px" y="0px"
	 width="64px" height="64px" viewBox="0 0 64 64" enable-background="new 0 0 64 64" xml:space="preserve">
<g>
	<g>
		<path fill="none" stroke="#000000" stroke-linecap="round" stroke-linejoin="round" stroke-miterlimit="10" d="M33.59,32.685
			c0,1.57-1.302,2.839-2.904,2.839l0,0c-1.609,0-2.912-1.269-2.912-2.839V26.3c0-1.571,1.303-2.841,2.912-2.841l0,0
			c1.602,0,2.904,1.271,2.904,2.841V32.685z"/>
		<path fill="none" stroke="#000000" stroke-linecap="round" stroke-linejoin="round" stroke-miterlimit="10" d="M35.367,34.303
			c0,2.003-2.096,3.629-4.681,3.629l0,0c-2.591,0-4.688-1.626-4.688-3.629"/>
		
			<line fill="none" stroke="#000000" stroke-linecap="round" stroke-linejoin="round" stroke-miterlimit="10" x1="30.683" y1="37.933" x2="30.683" y2="41.071"/>
		
			<line fill="none" stroke="#000000" stroke-linecap="round" stroke-linejoin="round" stroke-miterlimit="10" x1="27.599" y1="41.137" x2="33.765" y2="41.137"/>
	</g>
	<g>
		<g>
			<path d="M37.562,46.571H23.803c-3.033,0-5.5-2.467-5.5-5.5V23.525c0-3.033,2.467-5.5,5.5-5.5h13.759c3.033,0,5.5,2.467,5.5,5.5
				v17.546C43.062,44.104,40.595,46.571,37.562,46.571z M23.803,19.025c-2.481,0-4.5,2.019-4.5,4.5v17.546
				c0,2.481,2.019,4.5,4.5,4.5h13.759c2.481,0,4.5-2.019,4.5-4.5V23.525c0-2.481-2.019-4.5-4.5-4.5H23.803z"/>
		</g>
		<g>
			<path d="M45.197,29.587c-0.276,0-0.5-0.224-0.5-0.5v-4.578c0-0.276,0.224-0.5,0.5-0.5s0.5,0.224,0.5,0.5v4.578
				C45.697,29.364,45.473,29.587,45.197,29.587z"/>
		</g>
		<g>
			<path d="M38.169,16.329c-0.276,0-0.5-0.224-0.5-0.5v-4.553c0-0.827-0.673-1.5-1.5-1.5H25.196c-0.827,0-1.5,0.673-1.5,1.5v4.553
				c0,0.276-0.224,0.5-0.5,0.5s-0.5-0.224-0.5-0.5v-4.553c0-1.378,1.122-2.5,2.5-2.5h10.973c1.378,0,2.5,1.122,2.5,2.5v4.553
				C38.669,16.105,38.446,16.329,38.169,16.329z"/>
		</g>
		<g>
			<path d="M36.169,55.82H25.196c-1.378,0-2.5-1.122-2.5-2.5v-4.556c0-0.276,0.224-0.5,0.5-0.5s0.5,0.224,0.5,0.5v4.556
				c0,0.827,0.673,1.5,1.5,1.5h10.973c0.827,0,1.5-0.673,1.5-1.5v-4.556c0-0.276,0.224-0.5,0.5-0.5s0.5,0.224,0.5,0.5v4.556
				C38.669,54.699,37.548,55.82,36.169,55.82z"/>
		</g>
	</g>
</g>
</svg>
