<?xml version="1.0" encoding="utf-8"?>
<!-- Generator: Adobe Illustrator 16.0.0, SVG Export Plug-In . SVG Version: 6.00 Build 0)  -->
<!DOCTYPE svg PUBLIC "-//W3C//DTD SVG 1.1//EN" "http://www.w3.org/Graphics/SVG/1.1/DTD/svg11.dtd">
<svg version="1.1" id="Layer_1" xmlns="http://www.w3.org/2000/svg" xmlns:xlink="http://www.w3.org/1999/xlink" x="0px" y="0px"
	 width="64px" height="64px" viewBox="0 0 64 64" enable-background="new 0 0 64 64" xml:space="preserve">
<g>
	<g>
		<path fill="none" stroke="#000000" stroke-linecap="round" stroke-linejoin="round" stroke-miterlimit="10" d="M35.827,28.05
			c0,2.062-1.711,3.74-3.829,3.74l0,0c-2.115,0-3.825-1.678-3.825-3.74v-8.415c0-2.066,1.71-3.739,3.825-3.739l0,0
			c2.118,0,3.829,1.673,3.829,3.739V28.05z"/>
		<path fill="none" stroke="#000000" stroke-linecap="round" stroke-linejoin="round" stroke-miterlimit="10" d="M38.168,29.215
			c0,2.639-2.76,4.779-6.17,4.779l0,0c-3.405,0-6.167-2.14-6.167-4.779"/>
		
			<line fill="none" stroke="#000000" stroke-linecap="round" stroke-linejoin="round" stroke-miterlimit="10" x1="31.998" y1="33.994" x2="31.998" y2="38.129"/>
		
			<line fill="none" stroke="#000000" stroke-linecap="round" stroke-linejoin="round" stroke-miterlimit="10" x1="27.938" y1="38.215" x2="36.062" y2="38.215"/>
	</g>
	<g>
		<g>
			<path d="M53.693,46.707H10.307c-1.93,0-3.5-1.57-3.5-3.5V14.453c0-1.93,1.57-3.5,3.5-3.5h43.387c1.93,0,3.5,1.57,3.5,3.5v28.753
				C57.193,45.136,55.623,46.707,53.693,46.707z M10.307,11.953c-1.378,0-2.5,1.122-2.5,2.5v28.753c0,1.378,1.122,2.5,2.5,2.5
				h43.387c1.378,0,2.5-1.122,2.5-2.5V14.453c0-1.378-1.122-2.5-2.5-2.5H10.307z"/>
		</g>
		<g>
			<path d="M56.693,42.853H7.307c-0.276,0-0.5-0.224-0.5-0.5s0.224-0.5,0.5-0.5h49.387c0.276,0,0.5,0.224,0.5,0.5
				S56.97,42.853,56.693,42.853z"/>
		</g>
		<g>
			<g>
				<path d="M22.17,53.182c-0.107,0-0.215-0.034-0.306-0.105c-0.218-0.169-0.258-0.483-0.089-0.701l5.029-6.489
					c0.169-0.218,0.484-0.258,0.701-0.089c0.218,0.169,0.258,0.483,0.089,0.701l-5.029,6.489
					C22.468,53.116,22.32,53.182,22.17,53.182z"/>
			</g>
			<g>
				<path d="M41.828,53.182c-0.149,0-0.297-0.066-0.396-0.194l-5.03-6.489c-0.169-0.218-0.129-0.532,0.089-0.701
					c0.217-0.169,0.531-0.129,0.701,0.089l5.03,6.489c0.169,0.218,0.129,0.532-0.089,0.701
					C42.042,53.148,41.935,53.182,41.828,53.182z"/>
			</g>
		</g>
		<g>
			<path d="M45.713,53.638H18.288c-0.276,0-0.5-0.224-0.5-0.5s0.224-0.5,0.5-0.5h27.425c0.276,0,0.5,0.224,0.5,0.5
				S45.989,53.638,45.713,53.638z"/>
		</g>
	</g>
</g>
</svg>
