<?xml version="1.0" encoding="utf-8"?>
<!-- Generator: Adobe Illustrator 16.0.0, SVG Export Plug-In . SVG Version: 6.00 Build 0)  -->
<!DOCTYPE svg PUBLIC "-//W3C//DTD SVG 1.1//EN" "http://www.w3.org/Graphics/SVG/1.1/DTD/svg11.dtd">
<svg version="1.1" id="Layer_1" xmlns="http://www.w3.org/2000/svg" xmlns:xlink="http://www.w3.org/1999/xlink" x="0px" y="0px"
	 width="64px" height="64px" viewBox="0 0 64 64" enable-background="new 0 0 64 64" xml:space="preserve">
<g>
	<g>
		<path d="M31.999,33.265c-2.497,0-4.527-1.989-4.527-4.433v-8.849c0-2.446,2.031-4.436,4.527-4.436c2.498,0,4.53,1.99,4.53,4.436
			v8.849C36.529,31.276,34.497,33.265,31.999,33.265z M31.999,16.546c-1.945,0-3.527,1.542-3.527,3.436v8.849
			c0,1.893,1.583,3.433,3.527,3.433c1.946,0,3.53-1.54,3.53-3.433v-8.849C35.529,18.088,33.945,16.546,31.999,16.546z"/>
	</g>
	<g>
		<path d="M31.999,35.583c-3.854,0-6.989-2.479-6.989-5.525c0-0.276,0.224-0.5,0.5-0.5s0.5,0.224,0.5,0.5
			c0,2.495,2.687,4.525,5.989,4.525c3.303,0,5.991-2.03,5.991-4.525c0-0.276,0.224-0.5,0.5-0.5s0.5,0.224,0.5,0.5
			C38.99,33.104,35.854,35.583,31.999,35.583z"/>
	</g>
	<g>
		<path d="M31.999,39.935c-0.276,0-0.5-0.224-0.5-0.5v-4.352c0-0.276,0.224-0.5,0.5-0.5s0.5,0.224,0.5,0.5v4.352
			C32.499,39.711,32.275,39.935,31.999,39.935z"/>
	</g>
	<g>
		<path d="M36.272,40.025h-8.545c-0.276,0-0.5-0.224-0.5-0.5s0.224-0.5,0.5-0.5h8.545c0.276,0,0.5,0.224,0.5,0.5
			S36.548,40.025,36.272,40.025z"/>
	</g>
	<g>
		<path d="M33.707,55.21c0,0.943-0.763,1.708-1.708,1.708c-0.941,0-1.707-0.765-1.707-1.708c0-0.94,0.766-1.706,1.707-1.706
			C32.943,53.505,33.707,54.271,33.707,55.21z"/>
	</g>
	<g>
		<path d="M42.237,60.263H21.763c-1.93,0-3.5-1.57-3.5-3.5V7.832c0-1.93,1.57-3.5,3.5-3.5h20.474c1.93,0,3.5,1.57,3.5,3.5v48.932
			C45.737,58.693,44.167,60.263,42.237,60.263z M21.763,5.332c-1.378,0-2.5,1.122-2.5,2.5v48.932c0,1.378,1.122,2.5,2.5,2.5h20.474
			c1.378,0,2.5-1.122,2.5-2.5V7.832c0-1.378-1.122-2.5-2.5-2.5H21.763z"/>
	</g>
	<g>
		<path d="M44.857,50.225H19.144c-0.276,0-0.5-0.224-0.5-0.5s0.224-0.5,0.5-0.5h25.713c0.276,0,0.5,0.224,0.5,0.5
			S45.134,50.225,44.857,50.225z"/>
	</g>
</g>
</svg>
