<?xml version="1.0" encoding="utf-8"?>
<!-- Generator: Adobe Illustrator 16.0.0, SVG Export Plug-In . SVG Version: 6.00 Build 0)  -->
<!DOCTYPE svg PUBLIC "-//W3C//DTD SVG 1.1//EN" "http://www.w3.org/Graphics/SVG/1.1/DTD/svg11.dtd">
<svg version="1.1" id="Layer_1" xmlns="http://www.w3.org/2000/svg" xmlns:xlink="http://www.w3.org/1999/xlink" x="0px" y="0px"
	 width="128px" height="128px" viewBox="0 0 128 128" enable-background="new 0 0 128 128" xml:space="preserve">
<g>
	<g>
		<g>
			<path d="M60.982,70.302h-6.287c-0.553,0-1-0.448-1-1v-9.194c0-0.552,0.447-1,1-1h6.287c0.553,0,1,0.448,1,1v9.194
				C61.982,69.854,61.535,70.302,60.982,70.302z M55.695,68.302h4.287v-7.194h-4.287V68.302z"/>
		</g>
		<g>
			<path d="M67.188,70.302h-6.289c-0.553,0-1-0.448-1-1V54.305c0-0.552,0.447-1,1-1h6.289c0.553,0,1,0.448,1,1v14.997
				C68.188,69.854,67.74,70.302,67.188,70.302z M61.898,68.302h4.289V55.305h-4.289V68.302z"/>
		</g>
		<g>
			<path d="M73.391,70.302H67.1c-0.553,0-1-0.448-1-1V48.496c0-0.552,0.447-1,1-1h6.291c0.553,0,1,0.448,1,1v20.806
				C74.391,69.854,73.943,70.302,73.391,70.302z M68.1,68.302h4.291V49.496H68.1V68.302z"/>
		</g>
	</g>
	<g>
		<path d="M83.701,113.192h-39.32c-2.206,0-4-1.794-4-4V21.146c0-2.206,1.794-4,4-4h39.32c2.206,0,4,1.794,4,4v88.047
			C87.701,111.398,85.907,113.192,83.701,113.192z M44.381,19.146c-1.103,0-2,0.897-2,2v88.047c0,1.103,0.897,2,2,2h39.32
			c1.103,0,2-0.897,2-2V21.146c0-1.103-0.897-2-2-2H44.381z"/>
	</g>
	<g>
		<path d="M86.053,96.01H42.029c-0.553,0-1-0.448-1-1s0.447-1,1-1h44.023c0.553,0,1,0.448,1,1S86.605,96.01,86.053,96.01z"/>
	</g>
	<g>
		<path d="M66.598,103.902c0,1.41-1.146,2.556-2.557,2.556c-1.414,0-2.553-1.146-2.553-2.556c0-1.411,1.139-2.556,2.553-2.556
			C65.451,101.347,66.598,102.491,66.598,103.902z"/>
	</g>
</g>
</svg>
