<?xml version="1.0" encoding="utf-8"?>
<!-- Generator: Adobe Illustrator 16.0.0, SVG Export Plug-In . SVG Version: 6.00 Build 0)  -->
<!DOCTYPE svg PUBLIC "-//W3C//DTD SVG 1.1//EN" "http://www.w3.org/Graphics/SVG/1.1/DTD/svg11.dtd">
<svg version="1.1" id="Layer_1" xmlns="http://www.w3.org/2000/svg" xmlns:xlink="http://www.w3.org/1999/xlink" x="0px" y="0px"
	 width="128px" height="128px" viewBox="0 0 128 128" enable-background="new 0 0 128 128" xml:space="preserve">
<g>
	<g>
		<g>
			<path d="M89.928,82.165H38.16c-0.553,0-1-0.448-1-1s0.447-1,1-1h51.768c0.553,0,1,0.448,1,1S90.48,82.165,89.928,82.165z"/>
		</g>
		<g>
			<g>
				<path d="M54.443,75.783H43.588c-0.553,0-1-0.448-1-1V58.917c0-0.552,0.447-1,1-1h10.855c0.553,0,1,0.448,1,1v15.866
					C55.443,75.335,54.996,75.783,54.443,75.783z M44.588,73.783h8.855V59.917h-8.855V73.783z"/>
			</g>
			<g>
				<path d="M69.467,75.783H58.613c-0.553,0-1-0.448-1-1V48.901c0-0.552,0.447-1,1-1h10.854c0.553,0,1,0.448,1,1v25.882
					C70.467,75.335,70.02,75.783,69.467,75.783z M59.613,73.783h8.854V49.901h-8.854V73.783z"/>
			</g>
			<g>
				<path d="M84.494,75.783H73.639c-0.553,0-1-0.448-1-1V38.882c0-0.552,0.447-1,1-1h10.855c0.553,0,1,0.448,1,1v35.901
					C85.494,75.335,85.047,75.783,84.494,75.783z M74.639,73.783h8.855V39.882h-8.855V73.783z"/>
			</g>
		</g>
	</g>
	<g>
		<path d="M95.932,115.068H32.15c-2.206,0-4-1.794-4-4V19.27c0-2.206,1.794-4,4-4h63.781c2.206,0,4,1.794,4,4v91.799
			C99.932,113.274,98.138,115.068,95.932,115.068z M32.15,17.27c-1.103,0-2,0.897-2,2v91.799c0,1.103,0.897,2,2,2h63.781
			c1.103,0,2-0.897,2-2V19.27c0-1.103-0.897-2-2-2H32.15z"/>
	</g>
	<g>
		<path d="M66.598,106.404c0,1.412-1.145,2.554-2.561,2.554c-1.404,0-2.553-1.142-2.553-2.554c0-1.407,1.148-2.554,2.553-2.554
			C65.453,103.851,66.598,104.997,66.598,106.404z"/>
	</g>
	<g>
		<path d="M98.404,98.098H29.682c-0.553,0-1-0.448-1-1s0.447-1,1-1h68.723c0.553,0,1,0.448,1,1S98.957,98.098,98.404,98.098z"/>
	</g>
</g>
</svg>
