<?xml version="1.0" encoding="utf-8"?>
<!-- Generator: Adobe Illustrator 16.0.0, SVG Export Plug-In . SVG Version: 6.00 Build 0)  -->
<!DOCTYPE svg PUBLIC "-//W3C//DTD SVG 1.1//EN" "http://www.w3.org/Graphics/SVG/1.1/DTD/svg11.dtd">
<svg version="1.1" id="Layer_1" xmlns="http://www.w3.org/2000/svg" xmlns:xlink="http://www.w3.org/1999/xlink" x="0px" y="0px"
	 width="128px" height="128px" viewBox="0 0 128 128" enable-background="new 0 0 128 128" xml:space="preserve">
<g>
	<g>
		
			<rect x="52.441" y="66.377" fill="none" stroke="#000000" stroke-width="2" stroke-linecap="round" stroke-linejoin="round" stroke-miterlimit="10" width="6.287" height="9.192"/>
		
			<rect x="58.643" y="60.571" fill="none" stroke="#000000" stroke-width="2" stroke-linecap="round" stroke-linejoin="round" stroke-miterlimit="10" width="6.291" height="14.998"/>
		
			<rect x="64.844" y="54.766" fill="none" stroke="#000000" stroke-width="2" stroke-linecap="round" stroke-linejoin="round" stroke-miterlimit="10" width="6.291" height="20.804"/>
	</g>
	<g>
		<g>
			<path d="M77.125,89.749H46.451c-3.309,0-6-2.691-6-6V46.591c0-3.309,2.691-6,6-6h30.674c3.309,0,6,2.691,6,6v37.158
				C83.125,87.058,80.434,89.749,77.125,89.749z M46.451,42.591c-2.206,0-4,1.794-4,4v37.158c0,2.206,1.794,4,4,4h30.674
				c2.206,0,4-1.794,4-4V46.591c0-2.206-1.794-4-4-4H46.451z"/>
		</g>
		<g>
			<path d="M86.631,60.672c-0.553,0-1-0.448-1-1v-7.834c0-0.552,0.447-1,1-1s1,0.448,1,1v7.834
				C87.631,60.224,87.184,60.672,86.631,60.672z"/>
		</g>
		<g>
			<path d="M74.609,37.972c-0.553,0-1-0.448-1-1v-9.219c0-0.551-0.448-1-1-1H50.969c-0.552,0-1,0.449-1,1v9.219c0,0.552-0.447,1-1,1
				s-1-0.448-1-1v-9.219c0-1.654,1.346-3,3-3h21.641c1.654,0,3,1.346,3,3v9.219C75.609,37.524,75.162,37.972,74.609,37.972z"/>
		</g>
		<g>
			<path d="M72.609,105.584H50.969c-1.654,0-3-1.346-3-3v-9.221c0-0.552,0.447-1,1-1s1,0.448,1,1v9.221c0,0.551,0.448,1,1,1h21.641
				c0.552,0,1-0.449,1-1v-9.221c0-0.552,0.447-1,1-1s1,0.448,1,1v9.221C75.609,104.238,74.264,105.584,72.609,105.584z"/>
		</g>
	</g>
</g>
</svg>
