<?xml version="1.0" encoding="utf-8"?>
<!-- Generator: Adobe Illustrator 16.0.0, SVG Export Plug-In . SVG Version: 6.00 Build 0)  -->
<!DOCTYPE svg PUBLIC "-//W3C//DTD SVG 1.1//EN" "http://www.w3.org/Graphics/SVG/1.1/DTD/svg11.dtd">
<svg version="1.1" id="Layer_1" xmlns="http://www.w3.org/2000/svg" xmlns:xlink="http://www.w3.org/1999/xlink" x="0px" y="0px"
	 width="128px" height="128px" viewBox="0 0 128 128" enable-background="new 0 0 128 128" xml:space="preserve">
<g>
	<g>
		
			<line fill="none" stroke="#000000" stroke-width="2" stroke-linecap="round" stroke-linejoin="round" stroke-miterlimit="10" x1="42.907" y1="73.761" x2="85.172" y2="73.761"/>
		<g>
			
				<rect x="47.344" y="56.385" fill="none" stroke="#000000" stroke-width="2" stroke-linecap="round" stroke-linejoin="round" stroke-miterlimit="10" width="8.862" height="12.954"/>
			
				<rect x="59.612" y="48.207" fill="none" stroke="#000000" stroke-width="2" stroke-linecap="round" stroke-linejoin="round" stroke-miterlimit="10" width="8.858" height="21.132"/>
			
				<rect x="71.88" y="40.029" fill="none" stroke="#000000" stroke-width="2" stroke-linecap="round" stroke-linejoin="round" stroke-miterlimit="10" width="8.858" height="29.31"/>
		</g>
	</g>
	<g>
		<g>
			<path d="M103.317,89.196H24.765c-2.206,0-4-1.794-4-4V31.7c0-2.206,1.794-4,4-4h78.553c2.206,0,4,1.794,4,4v53.496
				C107.317,87.402,105.523,89.196,103.317,89.196z M24.765,29.7c-1.103,0-2,0.897-2,2v53.496c0,1.103,0.897,2,2,2h78.553
				c1.103,0,2-0.897,2-2V31.7c0-1.103-0.897-2-2-2H24.765z"/>
		</g>
		<g>
			<path d="M113.917,102.636c-0.004,0-0.012,0-0.02,0H14.185c-0.39,0-0.743-0.226-0.907-0.579s-0.108-0.769,0.144-1.066l7.397-8.765
				c0.19-0.225,0.47-0.355,0.765-0.355h84.916c0.295,0,0.574,0.13,0.765,0.355l7.294,8.641c0.22,0.184,0.359,0.459,0.359,0.769
				C114.917,102.188,114.47,102.636,113.917,102.636z M16.337,100.636h95.408l-5.711-6.765H22.048L16.337,100.636z"/>
		</g>
		<g>
			<path d="M106.317,82.601H21.765c-0.553,0-1-0.448-1-1s0.447-1,1-1h84.553c0.553,0,1,0.448,1,1S106.87,82.601,106.317,82.601z"/>
		</g>
	</g>
</g>
</svg>
