<?xml version="1.0" encoding="utf-8"?>
<!-- Generator: Adobe Illustrator 16.0.0, SVG Export Plug-In . SVG Version: 6.00 Build 0)  -->
<!DOCTYPE svg PUBLIC "-//W3C//DTD SVG 1.1//EN" "http://www.w3.org/Graphics/SVG/1.1/DTD/svg11.dtd">
<svg version="1.1" id="Layer_1" xmlns="http://www.w3.org/2000/svg" xmlns:xlink="http://www.w3.org/1999/xlink" x="0px" y="0px"
	 width="48px" height="48px" viewBox="0 0 48 48" enable-background="new 0 0 48 48" xml:space="preserve">
<g>
	<g>
		<path d="M36.421,43.758H11.579c-0.965,0-1.749-0.784-1.749-1.749V5.99c0-0.964,0.784-1.748,1.749-1.748h24.842
			c0.964,0,1.749,0.784,1.749,1.748v36.02C38.17,42.974,37.385,43.758,36.421,43.758z M11.579,4.741
			c-0.689,0-1.249,0.56-1.249,1.249v36.02c0,0.689,0.56,1.249,1.249,1.249h24.842c0.688,0,1.249-0.56,1.249-1.249V5.99
			c0-0.688-0.561-1.249-1.249-1.249H11.579z"/>
	</g>
	<g>
		<circle cx="24" cy="40.452" r="1.02"/>
	</g>
	<g>
		<path d="M37.707,36.988H10.293c-0.139,0-0.25-0.111-0.25-0.249c0-0.139,0.111-0.25,0.25-0.25h27.414c0.139,0,0.25,0.111,0.25,0.25
			C37.957,36.876,37.846,36.988,37.707,36.988z"/>
	</g>
	<g>
		<g>
			<path d="M26.127,21.578c-0.071,0-0.142-0.03-0.191-0.089c-0.089-0.105-0.076-0.263,0.029-0.352l6.329-5.358
				c0.106-0.089,0.264-0.075,0.353,0.029c0.089,0.105,0.076,0.263-0.029,0.353l-6.329,5.357
				C26.24,21.558,26.184,21.578,26.127,21.578z"/>
		</g>
		<g>
			<path d="M24,23.392c-0.058,0-0.115-0.02-0.162-0.06l-2.127-1.815c-0.104-0.089-0.117-0.246-0.027-0.352s0.248-0.118,0.353-0.027
				L24,22.814l1.964-1.676c0.105-0.091,0.263-0.078,0.353,0.027s0.077,0.263-0.028,0.352l-2.125,1.815
				C24.116,23.373,24.059,23.392,24,23.392z"/>
		</g>
		<g>
			<path d="M21.873,21.578c-0.057,0-0.114-0.02-0.161-0.06l-6.329-5.357c-0.105-0.09-0.118-0.247-0.029-0.353
				c0.089-0.104,0.247-0.118,0.353-0.029l6.329,5.358c0.105,0.089,0.118,0.246,0.029,0.352
				C22.015,21.547,21.944,21.578,21.873,21.578z"/>
		</g>
		<g>
			<path d="M15.545,26.935c-0.071,0-0.142-0.03-0.191-0.088c-0.089-0.105-0.076-0.263,0.029-0.353l6.329-5.357
				c0.106-0.09,0.264-0.075,0.353,0.029c0.089,0.105,0.076,0.263-0.029,0.352l-6.329,5.358
				C15.658,26.916,15.602,26.935,15.545,26.935z"/>
		</g>
		<g>
			<path d="M32.455,26.935c-0.057,0-0.114-0.02-0.161-0.059l-6.329-5.358c-0.105-0.089-0.118-0.246-0.029-0.352
				c0.089-0.104,0.246-0.119,0.353-0.029l6.329,5.357c0.105,0.09,0.118,0.247,0.029,0.353
				C32.597,26.905,32.526,26.935,32.455,26.935z"/>
		</g>
	</g>
	<g>
		<path d="M32.456,26.935H15.544c-0.138,0-0.249-0.111-0.249-0.249V15.969c0-0.138,0.111-0.249,0.249-0.249h16.912
			c0.138,0,0.249,0.111,0.249,0.249v10.717C32.705,26.824,32.594,26.935,32.456,26.935z M15.794,26.436h16.412V16.219H15.794V26.436
			z"/>
	</g>
</g>
</svg>
