<?xml version="1.0" encoding="utf-8"?>
<!-- Generator: Adobe Illustrator 16.0.0, SVG Export Plug-In . SVG Version: 6.00 Build 0)  -->
<!DOCTYPE svg PUBLIC "-//W3C//DTD SVG 1.1//EN" "http://www.w3.org/Graphics/SVG/1.1/DTD/svg11.dtd">
<svg version="1.1" id="Layer_1" xmlns="http://www.w3.org/2000/svg" xmlns:xlink="http://www.w3.org/1999/xlink" x="0px" y="0px"
	 width="48px" height="48px" viewBox="0 0 48 48" enable-background="new 0 0 48 48" xml:space="preserve">
<g>
	<g>
		<path d="M28.717,33.657H17.485c-1.515,0-2.748-1.233-2.748-2.747V17.09c0-1.515,1.233-2.747,2.748-2.747h11.231
			c1.515,0,2.748,1.232,2.748,2.747V30.91C31.465,32.423,30.231,33.657,28.717,33.657z M17.485,14.842
			c-1.24,0-2.248,1.009-2.248,2.248V30.91c0,1.239,1.008,2.247,2.248,2.247h11.231c1.24,0,2.248-1.008,2.248-2.247V17.09
			c0-1.239-1.008-2.248-2.248-2.248H17.485z"/>
	</g>
	<g>
		<path d="M33.013,22.057c-0.138,0-0.25-0.112-0.25-0.25v-3.126c0-0.138,0.112-0.25,0.25-0.25c0.139,0,0.25,0.112,0.25,0.25v3.126
			C33.263,21.945,33.151,22.057,33.013,22.057z"/>
	</g>
	<g>
		<path d="M28.215,13.001c-0.138,0-0.249-0.112-0.249-0.25V9.274c0-0.413-0.336-0.749-0.75-0.749h-8.229
			c-0.413,0-0.749,0.336-0.749,0.749v3.478c0,0.138-0.112,0.25-0.25,0.25s-0.25-0.112-0.25-0.25V9.274
			c0-0.688,0.561-1.249,1.249-1.249h8.229c0.689,0,1.249,0.561,1.249,1.249v3.478C28.465,12.889,28.354,13.001,28.215,13.001z"/>
	</g>
	<g>
		<path d="M27.216,39.975h-8.229c-0.688,0-1.249-0.561-1.249-1.249v-3.478c0-0.139,0.112-0.25,0.25-0.25s0.25,0.111,0.25,0.25v3.478
			c0,0.413,0.336,0.749,0.749,0.749h8.229c0.414,0,0.75-0.336,0.75-0.749v-3.478c0-0.139,0.111-0.25,0.249-0.25
			c0.139,0,0.25,0.111,0.25,0.25v3.478C28.465,39.415,27.905,39.975,27.216,39.975z"/>
	</g>
	<g>
		<g>
			<g>
				<path d="M24.288,24.25c-0.071,0-0.142-0.03-0.19-0.088c-0.089-0.105-0.076-0.264,0.029-0.353l3.532-2.99
					c0.105-0.088,0.264-0.075,0.353,0.029c0.089,0.105,0.076,0.263-0.029,0.353l-3.533,2.99C24.402,24.23,24.345,24.25,24.288,24.25
					z"/>
			</g>
			<g>
				<path d="M23.102,25.262c-0.058,0-0.115-0.02-0.162-0.06l-1.187-1.013c-0.104-0.09-0.117-0.247-0.028-0.352
					c0.09-0.105,0.248-0.118,0.353-0.028l1.024,0.874l1.024-0.874c0.104-0.09,0.263-0.077,0.352,0.028
					c0.09,0.104,0.077,0.262-0.027,0.352l-1.187,1.013C23.217,25.243,23.159,25.262,23.102,25.262z"/>
			</g>
			<g>
				<path d="M21.915,24.25c-0.058,0-0.115-0.02-0.162-0.059l-3.532-2.99c-0.104-0.09-0.117-0.247-0.029-0.353
					c0.089-0.104,0.248-0.117,0.353-0.029l3.532,2.99c0.105,0.089,0.118,0.247,0.029,0.353C22.057,24.219,21.985,24.25,21.915,24.25
					z"/>
			</g>
			<g>
				<path d="M18.383,27.24c-0.071,0-0.142-0.03-0.191-0.088c-0.088-0.105-0.075-0.264,0.029-0.353l3.532-2.99
					c0.105-0.088,0.264-0.075,0.353,0.029c0.089,0.105,0.076,0.263-0.029,0.353l-3.532,2.99C18.497,27.22,18.439,27.24,18.383,27.24
					z"/>
			</g>
			<g>
				<path d="M27.82,27.24c-0.057,0-0.114-0.02-0.161-0.059l-3.532-2.99c-0.105-0.09-0.118-0.247-0.029-0.353
					c0.089-0.104,0.247-0.117,0.352-0.029l3.533,2.99c0.105,0.089,0.118,0.247,0.029,0.353C27.962,27.209,27.892,27.24,27.82,27.24z
					"/>
			</g>
		</g>
		<g>
			<path d="M27.82,27.24h-9.438c-0.139,0-0.25-0.111-0.25-0.25v-5.98c0-0.138,0.111-0.249,0.25-0.249h9.438
				c0.139,0,0.25,0.111,0.25,0.249v5.98C28.07,27.128,27.959,27.24,27.82,27.24z M18.632,26.741h8.939v-5.481h-8.939V26.741z"/>
		</g>
	</g>
</g>
</svg>
