<?xml version="1.0" encoding="utf-8"?>
<!-- Generator: Adobe Illustrator 16.0.0, SVG Export Plug-In . SVG Version: 6.00 Build 0)  -->
<!DOCTYPE svg PUBLIC "-//W3C//DTD SVG 1.1//EN" "http://www.w3.org/Graphics/SVG/1.1/DTD/svg11.dtd">
<svg version="1.1" id="Layer_1" xmlns="http://www.w3.org/2000/svg" xmlns:xlink="http://www.w3.org/1999/xlink" x="0px" y="0px"
	 width="48px" height="48px" viewBox="0 0 48 48" enable-background="new 0 0 48 48" xml:space="preserve">
<g>
	<g>
		<g>
			<path d="M39.367,33.749H8.632c-0.964,0-1.748-0.785-1.748-1.749V11.262c0-0.964,0.784-1.748,1.748-1.748h30.735
				c0.964,0,1.749,0.784,1.749,1.748V32C41.116,32.963,40.331,33.749,39.367,33.749z M8.632,10.013
				c-0.688,0-1.249,0.561-1.249,1.249V32c0,0.689,0.56,1.249,1.249,1.249h30.735c0.688,0,1.249-0.56,1.249-1.249V11.262
				c0-0.688-0.561-1.249-1.249-1.249H8.632z"/>
		</g>
		<g>
			<path d="M40.866,31.118H7.134c-0.138,0-0.25-0.111-0.25-0.249c0-0.139,0.111-0.25,0.25-0.25h33.732c0.138,0,0.25,0.111,0.25,0.25
				C41.116,31.006,41.004,31.118,40.866,31.118z"/>
		</g>
		<g>
			<g>
				<path d="M17.288,38.173c-0.054,0-0.107-0.017-0.153-0.052c-0.109-0.085-0.129-0.241-0.045-0.351l3.435-4.434
					c0.084-0.108,0.241-0.129,0.35-0.044c0.109,0.084,0.129,0.241,0.045,0.351l-3.434,4.433
					C17.436,38.14,17.362,38.173,17.288,38.173z"/>
			</g>
			<g>
				<path d="M30.712,38.173c-0.075,0-0.148-0.033-0.198-0.097l-3.434-4.433c-0.084-0.109-0.064-0.267,0.044-0.351
					c0.109-0.085,0.266-0.065,0.351,0.044l3.434,4.434c0.084,0.109,0.064,0.266-0.044,0.351
					C30.82,38.157,30.766,38.173,30.712,38.173z"/>
			</g>
		</g>
		<g>
			<path d="M33.366,38.486H14.634c-0.138,0-0.25-0.111-0.25-0.25c0-0.138,0.112-0.25,0.25-0.25h18.732c0.138,0,0.25,0.112,0.25,0.25
				C33.616,38.375,33.504,38.486,33.366,38.486z"/>
		</g>
	</g>
	<g>
		<g>
			<g>
				<path d="M26.126,21.078c-0.071,0-0.142-0.03-0.191-0.088c-0.089-0.105-0.076-0.263,0.029-0.353l6.329-5.358
					c0.106-0.088,0.263-0.074,0.353,0.029c0.089,0.105,0.076,0.264-0.029,0.353l-6.33,5.358
					C26.241,21.058,26.183,21.078,26.126,21.078z"/>
			</g>
			<g>
				<path d="M24,22.892c-0.058,0-0.116-0.02-0.162-0.06l-2.127-1.814c-0.105-0.09-0.118-0.247-0.028-0.352
					c0.09-0.105,0.248-0.118,0.352-0.028L24,22.315l1.963-1.677c0.105-0.09,0.263-0.077,0.353,0.028
					c0.089,0.104,0.077,0.262-0.028,0.352l-2.126,1.814C24.116,22.873,24.058,22.892,24,22.892z"/>
			</g>
			<g>
				<path d="M21.873,21.078c-0.057,0-0.114-0.02-0.161-0.059l-6.329-5.358c-0.105-0.089-0.118-0.247-0.029-0.353
					c0.089-0.104,0.246-0.117,0.352-0.029l6.33,5.358c0.105,0.09,0.118,0.247,0.029,0.353
					C22.015,21.047,21.944,21.078,21.873,21.078z"/>
			</g>
			<g>
				<path d="M15.544,26.436c-0.071,0-0.142-0.03-0.191-0.088c-0.089-0.105-0.076-0.264,0.029-0.353l6.329-5.358
					c0.106-0.089,0.263-0.075,0.353,0.029c0.089,0.105,0.076,0.263-0.029,0.353l-6.33,5.357
					C15.659,26.417,15.601,26.436,15.544,26.436z"/>
			</g>
			<g>
				<path d="M32.455,26.436c-0.057,0-0.114-0.02-0.161-0.06l-6.329-5.357c-0.105-0.09-0.118-0.247-0.029-0.353
					c0.089-0.104,0.247-0.118,0.352-0.029l6.33,5.358c0.105,0.089,0.118,0.247,0.029,0.353
					C32.597,26.406,32.526,26.436,32.455,26.436z"/>
			</g>
		</g>
		<g>
			<path d="M32.456,26.436H15.544c-0.138,0-0.25-0.111-0.25-0.25V15.47c0-0.139,0.112-0.25,0.25-0.25h16.912
				c0.138,0,0.25,0.111,0.25,0.25v10.716C32.705,26.325,32.594,26.436,32.456,26.436z M15.794,25.936h16.412V15.72H15.794V25.936z"
				/>
		</g>
	</g>
</g>
</svg>
