<?xml version="1.0" encoding="utf-8"?>
<!-- Generator: Adobe Illustrator 16.0.0, SVG Export Plug-In . SVG Version: 6.00 Build 0)  -->
<!DOCTYPE svg PUBLIC "-//W3C//DTD SVG 1.1//EN" "http://www.w3.org/Graphics/SVG/1.1/DTD/svg11.dtd">
<svg version="1.1" id="Layer_1" xmlns="http://www.w3.org/2000/svg" xmlns:xlink="http://www.w3.org/1999/xlink" x="0px" y="0px"
	 width="48px" height="48px" viewBox="0 0 48 48" enable-background="new 0 0 48 48" xml:space="preserve">
<g>
	<g>
		<g>
			<path d="M39.362,33.436H8.627c-0.964,0-1.748-0.784-1.748-1.748V10.95c0-0.964,0.784-1.748,1.748-1.748h30.735
				c0.964,0,1.749,0.784,1.749,1.748v20.738C41.111,32.652,40.326,33.436,39.362,33.436z M8.627,9.702
				c-0.688,0-1.249,0.56-1.249,1.248v20.738c0,0.688,0.56,1.249,1.249,1.249h30.735c0.688,0,1.249-0.561,1.249-1.249V10.95
				c0-0.688-0.561-1.248-1.249-1.248H8.627z"/>
		</g>
		<g>
			<path d="M43.895,38.798c-0.003-0.001-0.006-0.001-0.01,0H4.105c-0.098,0-0.186-0.057-0.227-0.145
				c-0.041-0.089-0.027-0.192,0.036-0.267l2.952-3.496c0.047-0.057,0.117-0.089,0.19-0.089h33.876c0.074,0,0.144,0.032,0.191,0.089
				l2.917,3.454c0.063,0.046,0.104,0.119,0.104,0.203C44.145,38.686,44.033,38.798,43.895,38.798z M4.643,38.298h38.705l-2.53-2.997
				H7.173L4.643,38.298z"/>
		</g>
		<g>
			<path d="M40.861,30.806H7.129c-0.138,0-0.25-0.112-0.25-0.25c0-0.139,0.111-0.25,0.25-0.25h33.732c0.138,0,0.25,0.111,0.25,0.25
				C41.111,30.694,40.999,30.806,40.861,30.806z"/>
		</g>
	</g>
	<g>
		<g>
			<g>
				<path d="M26.122,20.579c-0.071,0-0.142-0.03-0.191-0.089c-0.089-0.105-0.076-0.263,0.029-0.352l6.329-5.358
					c0.106-0.089,0.263-0.075,0.352,0.029c0.089,0.105,0.076,0.263-0.029,0.353l-6.33,5.357
					C26.236,20.559,26.178,20.579,26.122,20.579z"/>
			</g>
			<g>
				<path d="M23.996,22.393c-0.058,0-0.116-0.021-0.163-0.06l-2.126-1.815c-0.105-0.089-0.118-0.246-0.028-0.352
					s0.248-0.118,0.352-0.027l1.965,1.676l1.963-1.676c0.105-0.091,0.262-0.078,0.353,0.027c0.089,0.105,0.077,0.263-0.028,0.352
					l-2.126,1.815C24.111,22.373,24.053,22.393,23.996,22.393z"/>
			</g>
			<g>
				<path d="M21.868,20.579c-0.057,0-0.114-0.02-0.161-0.06l-6.329-5.357c-0.105-0.09-0.119-0.247-0.029-0.353
					c0.089-0.104,0.246-0.118,0.352-0.029l6.33,5.358c0.105,0.089,0.118,0.246,0.029,0.352
					C22.01,20.548,21.939,20.579,21.868,20.579z"/>
			</g>
			<g>
				<path d="M15.54,25.936c-0.071,0-0.142-0.03-0.191-0.088c-0.089-0.105-0.076-0.263,0.029-0.353l6.329-5.357
					c0.106-0.089,0.263-0.075,0.352,0.029c0.089,0.105,0.076,0.263-0.029,0.352l-6.33,5.358
					C15.654,25.917,15.596,25.936,15.54,25.936z"/>
			</g>
			<g>
				<path d="M32.45,25.936c-0.057,0-0.114-0.02-0.161-0.059l-6.329-5.358c-0.105-0.089-0.119-0.246-0.029-0.352
					c0.089-0.104,0.246-0.118,0.352-0.029l6.33,5.357c0.105,0.09,0.118,0.247,0.029,0.353C32.592,25.906,32.521,25.936,32.45,25.936
					z"/>
			</g>
		</g>
		<g>
			<path d="M32.451,25.936H15.539c-0.138,0-0.25-0.111-0.25-0.249V14.97c0-0.138,0.112-0.249,0.25-0.249h16.912
				c0.138,0,0.25,0.111,0.25,0.249v10.717C32.7,25.825,32.589,25.936,32.451,25.936z M15.789,25.437h16.412V15.22H15.789V25.437z"/>
		</g>
	</g>
</g>
</svg>
