<?xml version="1.0" encoding="utf-8"?>
<!-- Generator: Adobe Illustrator 16.0.0, SVG Export Plug-In . SVG Version: 6.00 Build 0)  -->
<!DOCTYPE svg PUBLIC "-//W3C//DTD SVG 1.1//EN" "http://www.w3.org/Graphics/SVG/1.1/DTD/svg11.dtd">
<svg version="1.1" id="Layer_1" xmlns="http://www.w3.org/2000/svg" xmlns:xlink="http://www.w3.org/1999/xlink" x="0px" y="0px"
	 width="32px" height="32px" viewBox="0 0 32 32" enable-background="new 0 0 32 32" xml:space="preserve">
<g>
	<g>
		<g>
			<g>
				<path d="M24.984,30.196H6.817c-0.705,0-1.279-0.574-1.279-1.279V2.575c0-0.704,0.574-1.278,1.279-1.278h18.167
					c0.705,0,1.279,0.574,1.279,1.278v26.342C26.263,29.622,25.689,30.196,24.984,30.196z M6.817,1.662
					c-0.504,0-0.914,0.41-0.914,0.913v26.342c0,0.504,0.409,0.914,0.914,0.914h18.167c0.503,0,0.914-0.41,0.914-0.914V2.575
					c0-0.503-0.41-0.913-0.914-0.913H6.817z"/>
			</g>
		</g>
		<g>
			<g>
				<circle cx="15.901" cy="27.777" r="0.746"/>
			</g>
		</g>
		<g>
			<g>
				<path d="M25.925,25.245H5.876c-0.101,0-0.183-0.083-0.183-0.183c0-0.101,0.082-0.183,0.183-0.183h20.049
					c0.101,0,0.182,0.082,0.182,0.183C26.107,25.163,26.026,25.245,25.925,25.245z"/>
			</g>
		</g>
		<g>
			<g>
				<g>
					<path d="M12.224,16.607c-0.046,0-0.093-0.018-0.129-0.053l-2.64-2.64c-0.034-0.034-0.053-0.081-0.053-0.129
						c0-0.048,0.019-0.095,0.053-0.129l2.64-2.64c0.071-0.071,0.187-0.071,0.259,0c0.07,0.071,0.07,0.188,0,0.258l-2.511,2.511
						l2.511,2.51c0.07,0.072,0.07,0.187,0,0.258C12.317,16.589,12.271,16.607,12.224,16.607z"/>
				</g>
			</g>
			<g>
				<g>
					<path d="M19.577,16.607c-0.047,0-0.093-0.018-0.129-0.053c-0.071-0.071-0.071-0.187,0-0.258l2.511-2.51l-2.511-2.511
						c-0.071-0.071-0.071-0.187,0-0.258c0.072-0.071,0.188-0.071,0.259,0l2.64,2.64c0.035,0.035,0.054,0.081,0.054,0.129
						c0,0.048-0.019,0.095-0.054,0.129l-2.64,2.64C19.67,16.589,19.624,16.607,19.577,16.607z"/>
				</g>
			</g>
			<g>
				<g>
					<path fill="none" stroke="#000000" stroke-linecap="round" stroke-linejoin="round" stroke-miterlimit="10" d="M17.566,13.785"
						/>
				</g>
			</g>
			<g>
				<g>
					<path d="M14.778,16.584c-0.021,0-0.041-0.004-0.061-0.01c-0.095-0.034-0.146-0.138-0.111-0.232l1.838-5.233
						c0.033-0.095,0.137-0.146,0.232-0.112c0.096,0.033,0.146,0.138,0.113,0.233l-1.839,5.232
						C14.923,16.537,14.854,16.584,14.778,16.584z"/>
				</g>
			</g>
		</g>
	</g>
</g>
</svg>
