<?xml version="1.0" encoding="utf-8"?>
<!-- Generator: Adobe Illustrator 16.0.0, SVG Export Plug-In . SVG Version: 6.00 Build 0)  -->
<!DOCTYPE svg PUBLIC "-//W3C//DTD SVG 1.1//EN" "http://www.w3.org/Graphics/SVG/1.1/DTD/svg11.dtd">
<svg version="1.1" id="Layer_1" xmlns="http://www.w3.org/2000/svg" xmlns:xlink="http://www.w3.org/1999/xlink" x="0px" y="0px"
	 width="32px" height="32px" viewBox="0 0 32 32" enable-background="new 0 0 32 32" xml:space="preserve">
<g>
	<g>
		<g>
			<g>
				<path d="M21.452,29.648H10.421c-0.705,0-1.278-0.574-1.278-1.279V3.123c0-0.705,0.574-1.279,1.278-1.279h11.031
					c0.706,0,1.279,0.574,1.279,1.279v25.247C22.731,29.074,22.158,29.648,21.452,29.648z M10.421,2.209
					c-0.504,0-0.913,0.41-0.913,0.913v25.247c0,0.504,0.409,0.914,0.913,0.914h11.031c0.504,0,0.914-0.41,0.914-0.914V3.123
					c0-0.503-0.41-0.913-0.914-0.913H10.421z"/>
			</g>
		</g>
		<g>
			<g>
				<path d="M22.358,24.635H9.516c-0.101,0-0.183-0.082-0.183-0.182c0-0.101,0.082-0.183,0.183-0.183h12.843
					c0.101,0,0.183,0.082,0.183,0.183C22.542,24.553,22.459,24.635,22.358,24.635z"/>
			</g>
		</g>
		<g>
			<g>
				<circle cx="15.937" cy="27.046" r="0.745"/>
			</g>
		</g>
		<g>
			<g>
				<path d="M13.453,15.752c-0.047,0-0.094-0.019-0.129-0.054l-1.784-1.784c-0.034-0.034-0.053-0.081-0.053-0.129
					c0-0.048,0.019-0.095,0.053-0.129l1.784-1.784c0.07-0.071,0.187-0.071,0.258,0c0.071,0.071,0.071,0.188,0,0.258l-1.655,1.655
					l1.655,1.654c0.071,0.072,0.071,0.188,0,0.258C13.546,15.733,13.5,15.752,13.453,15.752z"/>
			</g>
		</g>
		<g>
			<g>
				<path d="M18.421,15.752c-0.046,0-0.093-0.019-0.129-0.054c-0.071-0.071-0.071-0.187,0-0.258l1.655-1.654l-1.655-1.655
					c-0.071-0.071-0.071-0.187,0-0.258c0.072-0.071,0.188-0.071,0.258,0l1.784,1.784c0.035,0.035,0.052,0.081,0.052,0.129
					c0,0.048-0.018,0.095-0.052,0.129l-1.784,1.784C18.515,15.733,18.468,15.752,18.421,15.752z"/>
			</g>
		</g>
		<g>
			<g>
				<path fill="none" stroke="#000000" stroke-linecap="round" stroke-linejoin="round" stroke-miterlimit="10" d="M17.063,13.785"
					/>
			</g>
		</g>
		<g>
			<g>
				<path d="M15.178,15.735c-0.02,0-0.041-0.003-0.06-0.01c-0.096-0.033-0.146-0.138-0.112-0.233l1.242-3.536
					c0.034-0.095,0.137-0.146,0.232-0.112c0.096,0.034,0.146,0.138,0.112,0.233l-1.243,3.536
					C15.324,15.688,15.253,15.735,15.178,15.735z"/>
			</g>
		</g>
	</g>
</g>
</svg>
