<?xml version="1.0" encoding="utf-8"?>
<!-- Generator: Adobe Illustrator 16.0.0, SVG Export Plug-In . SVG Version: 6.00 Build 0)  -->
<!DOCTYPE svg PUBLIC "-//W3C//DTD SVG 1.1//EN" "http://www.w3.org/Graphics/SVG/1.1/DTD/svg11.dtd">
<svg version="1.1" id="Layer_1" xmlns="http://www.w3.org/2000/svg" xmlns:xlink="http://www.w3.org/1999/xlink" x="0px" y="0px"
	 width="32px" height="32px" viewBox="0 0 32 32" enable-background="new 0 0 32 32" xml:space="preserve">
<g>
	<g>
		<g>
			<g>
				<g>
					<path d="M27.208,22.646H4.731c-0.705,0-1.278-0.574-1.278-1.278V6.202c0-0.705,0.573-1.278,1.278-1.278h22.476
						c0.705,0,1.279,0.574,1.279,1.278v15.166C28.486,22.072,27.913,22.646,27.208,22.646z M4.731,5.29
						c-0.504,0-0.914,0.41-0.914,0.913v15.166c0,0.503,0.41,0.913,0.914,0.913h22.476c0.504,0,0.914-0.409,0.914-0.913V6.202
						c0-0.503-0.41-0.913-0.914-0.913H4.731z"/>
				</g>
			</g>
			<g>
				<g>
					<path d="M30.522,26.568c-0.002,0-0.005,0-0.007,0H1.424c-0.071,0-0.136-0.041-0.167-0.106c-0.029-0.063-0.019-0.14,0.027-0.194
						l2.159-2.557c0.035-0.042,0.086-0.064,0.14-0.064h24.773c0.054,0,0.105,0.023,0.14,0.064l2.132,2.526
						c0.046,0.034,0.077,0.088,0.077,0.149C30.706,26.486,30.623,26.568,30.522,26.568z M1.817,26.203h28.305l-1.851-2.192H3.667
						L1.817,26.203z"/>
				</g>
			</g>
			<g>
				<g>
					<path d="M28.303,20.723H3.635c-0.101,0-0.182-0.082-0.182-0.183c0-0.101,0.081-0.182,0.182-0.182h24.668
						c0.101,0,0.183,0.082,0.183,0.182C28.486,20.641,28.404,20.723,28.303,20.723z"/>
				</g>
			</g>
		</g>
		<g>
			<g>
				<path d="M12.293,16.607c-0.047,0-0.094-0.018-0.13-0.053l-2.64-2.64c-0.034-0.034-0.053-0.081-0.053-0.129
					c0-0.048,0.019-0.095,0.053-0.129l2.64-2.64c0.071-0.071,0.187-0.071,0.258,0c0.071,0.071,0.071,0.188,0,0.258l-2.51,2.511
					l2.51,2.51c0.071,0.072,0.071,0.187,0,0.258C12.387,16.589,12.34,16.607,12.293,16.607z"/>
			</g>
			<g>
				<path d="M19.646,16.607c-0.047,0-0.093-0.018-0.129-0.053c-0.071-0.071-0.071-0.187,0-0.258l2.51-2.51l-2.51-2.511
					c-0.071-0.071-0.071-0.187,0-0.258c0.071-0.071,0.187-0.071,0.258,0l2.64,2.64c0.035,0.035,0.054,0.081,0.054,0.129
					c0,0.048-0.019,0.095-0.054,0.129l-2.64,2.64C19.739,16.589,19.693,16.607,19.646,16.607z"/>
			</g>
			<g>
				<path fill="none" stroke="#000000" stroke-linecap="round" stroke-linejoin="round" stroke-miterlimit="10" d="M17.635,13.785"
					/>
			</g>
			<g>
				<path d="M14.846,16.584c-0.02,0-0.04-0.004-0.061-0.01c-0.095-0.034-0.145-0.138-0.111-0.232l1.838-5.233
					c0.033-0.095,0.137-0.146,0.233-0.112c0.095,0.033,0.145,0.138,0.111,0.233l-1.838,5.232
					C14.992,16.537,14.922,16.584,14.846,16.584z"/>
			</g>
		</g>
	</g>
</g>
</svg>
