<?xml version="1.0" encoding="utf-8"?>
<!-- Generator: Adobe Illustrator 16.0.0, SVG Export Plug-In . SVG Version: 6.00 Build 0)  -->
<!DOCTYPE svg PUBLIC "-//W3C//DTD SVG 1.1//EN" "http://www.w3.org/Graphics/SVG/1.1/DTD/svg11.dtd">
<svg version="1.1" id="Layer_1" xmlns="http://www.w3.org/2000/svg" xmlns:xlink="http://www.w3.org/1999/xlink" x="0px" y="0px"
	 width="32px" height="32px" viewBox="0 0 32 32" enable-background="new 0 0 32 32" xml:space="preserve">
<g>
	<g>
		<g>
			<g>
				<g>
					<path d="M27.248,22.875H4.771c-0.706,0-1.278-0.574-1.278-1.278V6.431c0-0.706,0.573-1.278,1.278-1.278h22.476
						c0.706,0,1.279,0.572,1.279,1.278v15.166C28.526,22.301,27.953,22.875,27.248,22.875z M4.771,5.518
						c-0.504,0-0.914,0.41-0.914,0.913v15.166c0,0.503,0.41,0.913,0.914,0.913h22.476c0.504,0,0.914-0.41,0.914-0.913V6.431
						c0-0.503-0.409-0.913-0.914-0.913H4.771z"/>
				</g>
			</g>
			<g>
				<g>
					<path d="M28.344,20.951H3.676c-0.102,0-0.183-0.082-0.183-0.182s0.081-0.182,0.183-0.182h24.668
						c0.102,0,0.183,0.082,0.183,0.182S28.445,20.951,28.344,20.951z"/>
				</g>
			</g>
			<g>
				<g>
					<g>
						<path d="M11.101,26.111c-0.039,0-0.078-0.012-0.111-0.038c-0.081-0.062-0.094-0.176-0.033-0.256l2.511-3.243
							c0.062-0.079,0.176-0.093,0.257-0.032c0.079,0.062,0.094,0.176,0.032,0.256l-2.511,3.242
							C11.21,26.087,11.156,26.111,11.101,26.111z"/>
					</g>
				</g>
				<g>
					<g>
						<path d="M20.918,26.111c-0.055,0-0.109-0.024-0.146-0.071l-2.511-3.242c-0.062-0.08-0.047-0.194,0.033-0.256
							c0.08-0.061,0.195-0.047,0.256,0.032l2.511,3.243c0.062,0.08,0.048,0.194-0.033,0.256
							C20.997,26.099,20.958,26.111,20.918,26.111z"/>
					</g>
				</g>
			</g>
			<g>
				<g>
					<path d="M22.859,26.339H9.16c-0.1,0-0.183-0.081-0.183-0.182s0.083-0.183,0.183-0.183h13.699c0.101,0,0.184,0.081,0.184,0.183
						S22.959,26.339,22.859,26.339z"/>
				</g>
			</g>
		</g>
		<g>
			<g>
				<path d="M12.333,16.607c-0.047,0-0.093-0.018-0.128-0.053l-2.641-2.64C9.529,13.88,9.51,13.833,9.51,13.785
					c0-0.048,0.019-0.095,0.054-0.129l2.641-2.64c0.07-0.071,0.186-0.071,0.258,0c0.071,0.071,0.071,0.188,0,0.258l-2.511,2.511
					l2.511,2.51c0.071,0.072,0.071,0.187,0,0.258C12.427,16.589,12.38,16.607,12.333,16.607z"/>
			</g>
			<g>
				<path d="M19.686,16.607c-0.047,0-0.093-0.018-0.129-0.053c-0.071-0.071-0.071-0.187,0-0.258l2.511-2.51l-2.511-2.511
					c-0.071-0.071-0.071-0.187,0-0.258c0.071-0.071,0.188-0.071,0.258,0l2.641,2.64c0.034,0.035,0.053,0.081,0.053,0.129
					c0,0.048-0.02,0.095-0.053,0.129l-2.641,2.64C19.779,16.589,19.733,16.607,19.686,16.607z"/>
			</g>
			<g>
				<path fill="none" stroke="#000000" stroke-linecap="round" stroke-linejoin="round" stroke-miterlimit="10" d="M17.675,13.785"
					/>
			</g>
			<g>
				<path d="M14.886,16.584c-0.02,0-0.04-0.004-0.061-0.01c-0.095-0.034-0.146-0.138-0.112-0.232l1.839-5.233
					c0.034-0.095,0.137-0.146,0.233-0.112c0.095,0.033,0.145,0.138,0.111,0.233l-1.838,5.232
					C15.032,16.537,14.961,16.584,14.886,16.584z"/>
			</g>
		</g>
	</g>
</g>
</svg>
