<?xml version="1.0" encoding="utf-8"?>
<!-- Generator: Adobe Illustrator 16.0.0, SVG Export Plug-In . SVG Version: 6.00 Build 0)  -->
<!DOCTYPE svg PUBLIC "-//W3C//DTD SVG 1.1//EN" "http://www.w3.org/Graphics/SVG/1.1/DTD/svg11.dtd">
<svg version="1.1" id="Layer_1" xmlns="http://www.w3.org/2000/svg" xmlns:xlink="http://www.w3.org/1999/xlink" x="0px" y="0px"
	 width="32px" height="32px" viewBox="0 0 32 32" enable-background="new 0 0 32 32" xml:space="preserve">
<g>
	<g>
		<g>
			<g>
				<g>
					<path d="M19.496,22.808h-8.214c-1.107,0-2.009-0.902-2.009-2.009V10.693c0-1.108,0.901-2.008,2.009-2.008h8.214
						c1.107,0,2.009,0.9,2.009,2.008v10.106C21.504,21.906,20.603,22.808,19.496,22.808z M11.281,9.049
						c-0.907,0-1.644,0.737-1.644,1.644v10.106c0,0.906,0.737,1.644,1.644,1.644h8.214c0.906,0,1.644-0.738,1.644-1.644V10.693
						c0-0.906-0.738-1.644-1.644-1.644H11.281z"/>
				</g>
			</g>
			<g>
				<g>
					<path d="M22.637,14.325c-0.101,0-0.183-0.081-0.183-0.182v-2.287c0-0.101,0.082-0.182,0.183-0.182s0.183,0.082,0.183,0.182
						v2.287C22.819,14.244,22.738,14.325,22.637,14.325z"/>
				</g>
			</g>
			<g>
				<g>
					<path d="M19.128,7.703c-0.101,0-0.182-0.083-0.182-0.183V4.977c0-0.302-0.247-0.548-0.549-0.548h-6.018
						c-0.302,0-0.548,0.246-0.548,0.548V7.52c0,0.101-0.082,0.183-0.183,0.183c-0.101,0-0.183-0.083-0.183-0.183V4.977
						c0-0.503,0.409-0.914,0.913-0.914h6.018c0.504,0,0.914,0.41,0.914,0.914V7.52C19.312,7.621,19.229,7.703,19.128,7.703z"/>
				</g>
			</g>
			<g>
				<g>
					<path d="M18.397,27.428h-6.018c-0.504,0-0.913-0.41-0.913-0.913v-2.543c0-0.101,0.082-0.183,0.183-0.183
						c0.101,0,0.183,0.082,0.183,0.183v2.543c0,0.301,0.246,0.548,0.548,0.548h6.018c0.302,0,0.549-0.247,0.549-0.548v-2.543
						c0-0.101,0.082-0.183,0.182-0.183s0.183,0.082,0.183,0.183v2.543C19.312,27.019,18.901,27.428,18.397,27.428z"/>
				</g>
			</g>
		</g>
		<g>
			<g>
				<path d="M13.404,17.354c-0.047,0-0.093-0.018-0.129-0.054l-1.424-1.424c-0.071-0.072-0.071-0.188,0-0.258l1.424-1.425
					c0.071-0.072,0.187-0.072,0.259,0c0.071,0.071,0.071,0.187,0,0.258l-1.296,1.295l1.296,1.295c0.071,0.072,0.071,0.188,0,0.259
					C13.498,17.335,13.451,17.354,13.404,17.354z"/>
			</g>
			<g>
				<path d="M17.373,17.354c-0.046,0-0.093-0.018-0.129-0.054c-0.071-0.071-0.071-0.187,0-0.259l1.295-1.295l-1.295-1.295
					c-0.071-0.072-0.071-0.188,0-0.258c0.071-0.072,0.187-0.072,0.258,0l1.425,1.425c0.071,0.071,0.071,0.187,0,0.258L17.502,17.3
					C17.467,17.335,17.419,17.354,17.373,17.354z"/>
			</g>
			<g>
				<path fill="none" stroke="#000000" stroke-linecap="round" stroke-linejoin="round" stroke-miterlimit="10" d="M16.287,15.746"
					/>
			</g>
			<g>
				<path d="M14.782,17.34c-0.021,0-0.041-0.003-0.061-0.011c-0.096-0.033-0.146-0.137-0.111-0.232l0.992-2.824
					c0.033-0.095,0.137-0.146,0.233-0.111c0.095,0.033,0.146,0.137,0.112,0.232l-0.992,2.824
					C14.929,17.293,14.857,17.34,14.782,17.34z"/>
			</g>
		</g>
	</g>
</g>
</svg>
