<?xml version="1.0" encoding="utf-8"?>
<!-- Generator: Adobe Illustrator 16.0.0, SVG Export Plug-In . SVG Version: 6.00 Build 0)  -->
<!DOCTYPE svg PUBLIC "-//W3C//DTD SVG 1.1//EN" "http://www.w3.org/Graphics/SVG/1.1/DTD/svg11.dtd">
<svg version="1.1" id="Layer_1" xmlns="http://www.w3.org/2000/svg" xmlns:xlink="http://www.w3.org/1999/xlink" x="0px" y="0px"
	 width="32px" height="32px" viewBox="0 0 32 32" enable-background="new 0 0 32 32" xml:space="preserve">
<g>
	<g>
		<g>
			<g>
				<path d="M19.677,23.039h-8.214c-1.108,0-2.009-0.901-2.009-2.009V10.925c0-1.107,0.9-2.009,2.009-2.009h8.214
					c1.108,0,2.01,0.901,2.01,2.009V21.03C21.687,22.138,20.785,23.039,19.677,23.039z M11.463,9.281
					c-0.906,0-1.644,0.738-1.644,1.644V21.03c0,0.907,0.737,1.645,1.644,1.645h8.214c0.906,0,1.645-0.737,1.645-1.645V10.925
					c0-0.905-0.738-1.644-1.645-1.644H11.463z"/>
			</g>
		</g>
		<g>
			<g>
				<path d="M22.818,14.557c-0.102,0-0.184-0.081-0.184-0.182v-2.286c0-0.102,0.082-0.183,0.184-0.183S23,11.987,23,12.089v2.286
					C23,14.476,22.92,14.557,22.818,14.557z"/>
			</g>
		</g>
		<g>
			<g>
				<path d="M19.311,7.935c-0.102,0-0.183-0.082-0.183-0.183V5.209c0-0.303-0.246-0.548-0.55-0.548h-6.017
					c-0.301,0-0.548,0.245-0.548,0.548v2.543c0,0.101-0.084,0.183-0.185,0.183s-0.182-0.082-0.182-0.183V5.209
					c0-0.503,0.409-0.913,0.914-0.913h6.017c0.506,0,0.914,0.41,0.914,0.913v2.543C19.492,7.853,19.411,7.935,19.311,7.935z"/>
			</g>
		</g>
		<g>
			<g>
				<path d="M18.578,27.661h-6.017c-0.505,0-0.914-0.409-0.914-0.914v-2.544c0-0.101,0.081-0.183,0.182-0.183
					s0.185,0.082,0.185,0.183v2.544c0,0.302,0.247,0.548,0.548,0.548h6.017c0.304,0,0.55-0.246,0.55-0.548v-2.544
					c0-0.101,0.081-0.183,0.183-0.183c0.101,0,0.182,0.082,0.182,0.183v2.544C19.492,27.252,19.084,27.661,18.578,27.661z"/>
			</g>
		</g>
		<g>
			<g>
				<g>
					<path d="M18.148,20.027h-5.156c-0.103,0-0.184-0.081-0.184-0.182v-5.158c0-0.101,0.081-0.183,0.184-0.183h5.156
						c0.102,0,0.184,0.082,0.184,0.183v5.158C18.332,19.946,18.25,20.027,18.148,20.027z M13.173,19.662h4.795v-4.791h-4.795V19.662
						z"/>
				</g>
			</g>
			<g>
				<g>
					<path d="M15.57,17.696c-0.453,0-0.821-0.368-0.821-0.821s0.368-0.82,0.821-0.82c0.452,0,0.819,0.367,0.819,0.82
						S16.022,17.696,15.57,17.696z M15.57,16.419c-0.252,0-0.456,0.205-0.456,0.456c0,0.252,0.204,0.457,0.456,0.457
						c0.25,0,0.457-0.205,0.457-0.457C16.027,16.624,15.82,16.419,15.57,16.419z"/>
				</g>
			</g>
			<g>
				<g>
					<path d="M15.57,18.479c-0.102,0-0.183-0.082-0.183-0.183v-0.449c0-0.101,0.081-0.182,0.183-0.182s0.184,0.081,0.184,0.182
						v0.449C15.754,18.397,15.672,18.479,15.57,18.479z"/>
				</g>
			</g>
			<g>
				<g>
					<path d="M17.032,13.754c-0.103,0-0.183-0.081-0.183-0.182c0-0.706-0.574-1.28-1.279-1.28s-1.281,0.574-1.281,1.28
						c0,0.101-0.079,0.182-0.181,0.182s-0.182-0.081-0.182-0.182c0-0.907,0.738-1.646,1.644-1.646c0.906,0,1.645,0.738,1.645,1.646
						C17.215,13.673,17.133,13.754,17.032,13.754z"/>
				</g>
			</g>
		</g>
	</g>
</g>
</svg>
