<?xml version="1.0" encoding="utf-8"?>
<!-- Generator: Adobe Illustrator 16.0.0, SVG Export Plug-In . SVG Version: 6.00 Build 0)  -->
<!DOCTYPE svg PUBLIC "-//W3C//DTD SVG 1.1//EN" "http://www.w3.org/Graphics/SVG/1.1/DTD/svg11.dtd">
<svg version="1.1" id="Layer_1" xmlns="http://www.w3.org/2000/svg" xmlns:xlink="http://www.w3.org/1999/xlink" x="0px" y="0px"
	 width="32px" height="32px" viewBox="0 0 32 32" enable-background="new 0 0 32 32" xml:space="preserve">
<g>
	<g>
		<g>
			<g>
				<path d="M25.166,30.427H6.999c-0.706,0-1.279-0.573-1.279-1.278V2.807c0-0.704,0.573-1.278,1.279-1.278h18.167
					c0.705,0,1.278,0.574,1.278,1.278v26.342C26.444,29.854,25.871,30.427,25.166,30.427z M6.999,1.895
					c-0.504,0-0.914,0.408-0.914,0.912v26.342c0,0.504,0.41,0.913,0.914,0.913h18.167c0.503,0,0.913-0.409,0.913-0.913V2.807
					c0-0.504-0.41-0.912-0.913-0.912H6.999z"/>
			</g>
		</g>
		<g>
			<g>
				<circle cx="16.083" cy="28.009" r="0.746"/>
			</g>
		</g>
		<g>
			<g>
				<path d="M26.106,25.476H6.058c-0.1,0-0.182-0.081-0.182-0.182c0-0.102,0.082-0.184,0.182-0.184h20.049
					c0.102,0,0.182,0.082,0.182,0.184C26.288,25.395,26.208,25.476,26.106,25.476z"/>
			</g>
		</g>
		<g>
			<g>
				<g>
					<path d="M20.316,19.664h-8.469c-0.102,0-0.183-0.082-0.183-0.183v-8.469c0-0.101,0.081-0.182,0.183-0.182h8.469
						c0.102,0,0.183,0.081,0.183,0.182v8.469C20.499,19.582,20.418,19.664,20.316,19.664z M12.03,19.299h8.104v-8.103H12.03V19.299z
						"/>
				</g>
			</g>
			<g>
				<g>
					<g>
						<path d="M16.082,15.836c-0.679,0-1.23-0.553-1.23-1.231s0.552-1.231,1.23-1.231s1.231,0.553,1.231,1.231
							S16.761,15.836,16.082,15.836z M16.082,13.738c-0.478,0-0.865,0.389-0.865,0.866s0.388,0.866,0.865,0.866
							c0.479,0,0.866-0.389,0.866-0.866S16.561,13.738,16.082,13.738z"/>
					</g>
				</g>
				<g>
					<g>
						<path d="M16.082,17.121c-0.102,0-0.183-0.081-0.183-0.183v-1.336c0-0.101,0.081-0.183,0.183-0.183s0.183,0.082,0.183,0.183
							v1.336C16.265,17.04,16.184,17.121,16.082,17.121z"/>
					</g>
				</g>
			</g>
			<g>
				<g>
					<path d="M19.039,9.967c-0.102,0-0.183-0.08-0.183-0.182c0-1.529-1.245-2.773-2.774-2.773s-2.773,1.244-2.773,2.773
						c0,0.102-0.081,0.182-0.183,0.182s-0.183-0.08-0.183-0.182c0-1.73,1.408-3.139,3.139-3.139c1.731,0,3.14,1.408,3.14,3.139
						C19.222,9.887,19.14,9.967,19.039,9.967z"/>
				</g>
			</g>
		</g>
	</g>
</g>
</svg>
