<?xml version="1.0" encoding="utf-8"?>
<!-- Generator: Adobe Illustrator 16.0.0, SVG Export Plug-In . SVG Version: 6.00 Build 0)  -->
<!DOCTYPE svg PUBLIC "-//W3C//DTD SVG 1.1//EN" "http://www.w3.org/Graphics/SVG/1.1/DTD/svg11.dtd">
<svg version="1.1" id="Layer_1" xmlns="http://www.w3.org/2000/svg" xmlns:xlink="http://www.w3.org/1999/xlink" x="0px" y="0px"
	 width="32px" height="32px" viewBox="0 0 32 32" enable-background="new 0 0 32 32" xml:space="preserve">
<g>
	<g>
		<g>
			<g>
				<g>
					<path d="M27.391,22.879H4.914c-0.705,0-1.278-0.574-1.278-1.279V6.435c0-0.704,0.573-1.278,1.278-1.278h22.477
						c0.703,0,1.278,0.574,1.278,1.278V21.6C28.669,22.305,28.094,22.879,27.391,22.879z M4.914,5.521
						c-0.504,0-0.913,0.409-0.913,0.913V21.6c0,0.505,0.409,0.914,0.913,0.914h22.477c0.503,0,0.913-0.409,0.913-0.914V6.435
						c0-0.504-0.41-0.913-0.913-0.913H4.914z"/>
				</g>
			</g>
			<g>
				<g>
					<path d="M30.705,26.8c-0.002,0-0.004,0-0.007,0H1.606c-0.07,0-0.136-0.041-0.166-0.104c-0.03-0.065-0.02-0.142,0.026-0.195
						l2.16-2.558c0.032-0.042,0.084-0.063,0.138-0.063h24.774c0.054,0,0.104,0.021,0.14,0.063l2.132,2.526
						c0.047,0.034,0.076,0.086,0.076,0.147C30.887,26.718,30.807,26.8,30.705,26.8z M1.999,26.435h28.305l-1.849-2.191H3.851
						L1.999,26.435z"/>
				</g>
			</g>
			<g>
				<g>
					<path d="M28.485,20.956H3.817c-0.101,0-0.182-0.082-0.182-0.184s0.081-0.182,0.182-0.182h24.668
						c0.102,0,0.184,0.08,0.184,0.182S28.587,20.956,28.485,20.956z"/>
				</g>
			</g>
		</g>
		<g>
			<g>
				<g>
					<path d="M19.789,18.458h-7.272c-0.102,0-0.184-0.081-0.184-0.182v-7.272c0-0.101,0.082-0.184,0.184-0.184h7.272
						c0.101,0,0.183,0.083,0.183,0.184v7.272C19.972,18.377,19.89,18.458,19.789,18.458z M12.699,18.093h6.907v-6.906h-6.907V18.093
						z"/>
				</g>
				<g>
					<path d="M16.152,15.171c-0.598,0-1.083-0.486-1.083-1.083c0-0.598,0.485-1.084,1.083-1.084c0.597,0,1.083,0.486,1.083,1.084
						C17.235,14.685,16.749,15.171,16.152,15.171z M16.152,13.37c-0.396,0-0.718,0.321-0.718,0.718c0,0.395,0.322,0.718,0.718,0.718
						c0.396,0,0.718-0.323,0.718-0.718C16.87,13.691,16.549,13.37,16.152,13.37z"/>
				</g>
				<g>
					<path d="M16.152,16.641c-0.102,0-0.184-0.082-0.184-0.183v-1.147c0-0.102,0.082-0.184,0.184-0.184
						c0.101,0,0.183,0.082,0.183,0.184v1.147C16.335,16.559,16.253,16.641,16.152,16.641z"/>
				</g>
			</g>
			<g>
				<path d="M18.345,10.013c-0.103,0-0.183-0.082-0.183-0.184c0-1.106-0.902-2.01-2.01-2.01c-1.108,0-2.009,0.903-2.009,2.01
					c0,0.102-0.083,0.184-0.184,0.184s-0.182-0.082-0.182-0.184c0-1.31,1.064-2.375,2.374-2.375s2.374,1.065,2.374,2.375
					C18.526,9.931,18.446,10.013,18.345,10.013z"/>
			</g>
		</g>
	</g>
</g>
</svg>
