<?xml version="1.0" encoding="utf-8"?>
<!-- Generator: Adobe Illustrator 16.0.0, SVG Export Plug-In . SVG Version: 6.00 Build 0)  -->
<!DOCTYPE svg PUBLIC "-//W3C//DTD SVG 1.1//EN" "http://www.w3.org/Graphics/SVG/1.1/DTD/svg11.dtd">
<svg version="1.1" id="Layer_1" xmlns="http://www.w3.org/2000/svg" xmlns:xlink="http://www.w3.org/1999/xlink" x="0px" y="0px"
	 width="32px" height="32px" viewBox="0 0 32 32" enable-background="new 0 0 32 32" xml:space="preserve">
<g>
	<g>
		<g>
			<g>
				<path d="M21.635,29.88H10.603c-0.704,0-1.279-0.573-1.279-1.279V3.355c0-0.706,0.575-1.279,1.279-1.279h11.032
					c0.705,0,1.278,0.573,1.278,1.279v25.245C22.913,29.307,22.34,29.88,21.635,29.88z M10.603,2.441
					c-0.504,0-0.914,0.41-0.914,0.914v25.245c0,0.505,0.41,0.913,0.914,0.913h11.032c0.503,0,0.913-0.408,0.913-0.913V3.355
					c0-0.504-0.41-0.914-0.913-0.914H10.603z"/>
			</g>
		</g>
		<g>
			<g>
				<path d="M22.54,24.867H9.697c-0.102,0-0.182-0.081-0.182-0.183c0-0.101,0.08-0.183,0.182-0.183H22.54
					c0.101,0,0.182,0.082,0.182,0.183C22.722,24.786,22.641,24.867,22.54,24.867z"/>
			</g>
		</g>
		<g>
			<g>
				<circle cx="16.118" cy="27.279" r="0.746"/>
			</g>
		</g>
		<g>
			<g>
				<g>
					<path d="M19.718,18.772h-7.2c-0.101,0-0.182-0.082-0.182-0.183v-7.2c0-0.101,0.081-0.183,0.182-0.183h7.2
						c0.102,0,0.184,0.082,0.184,0.183v7.2C19.901,18.69,19.819,18.772,19.718,18.772z M12.7,18.407h6.836v-6.834H12.7V18.407z"/>
				</g>
			</g>
			<g>
				<g>
					<path d="M16.118,15.517c-0.592,0-1.073-0.48-1.073-1.073c0-0.592,0.481-1.073,1.073-1.073s1.074,0.481,1.074,1.073
						C17.192,15.036,16.71,15.517,16.118,15.517z M16.118,13.735c-0.391,0-0.709,0.317-0.709,0.708c0,0.392,0.318,0.709,0.709,0.709
						s0.709-0.317,0.709-0.709C16.827,14.053,16.509,13.735,16.118,13.735z"/>
				</g>
			</g>
			<g>
				<g>
					<path d="M16.118,16.977c-0.101,0-0.184-0.082-0.184-0.183v-1.137c0-0.101,0.083-0.183,0.184-0.183s0.183,0.082,0.183,0.183
						v1.137C16.301,16.895,16.219,16.977,16.118,16.977z"/>
				</g>
			</g>
			<g>
				<g>
					<path d="M18.312,10.315c-0.103,0-0.184-0.08-0.184-0.182c0-1.108-0.902-2.01-2.01-2.01c-1.108,0-2.01,0.901-2.01,2.01
						c0,0.102-0.081,0.182-0.183,0.182c-0.101,0-0.183-0.08-0.183-0.182c0-1.31,1.065-2.375,2.375-2.375
						c1.311,0,2.375,1.065,2.375,2.375C18.493,10.235,18.412,10.315,18.312,10.315z"/>
				</g>
			</g>
		</g>
	</g>
</g>
</svg>
