<?xml version="1.0" encoding="utf-8"?>
<!-- Generator: Adobe Illustrator 16.0.0, SVG Export Plug-In . SVG Version: 6.00 Build 0)  -->
<!DOCTYPE svg PUBLIC "-//W3C//DTD SVG 1.1//EN" "http://www.w3.org/Graphics/SVG/1.1/DTD/svg11.dtd">
<svg version="1.1" id="Layer_1" xmlns="http://www.w3.org/2000/svg" xmlns:xlink="http://www.w3.org/1999/xlink" x="0px" y="0px"
	 width="32px" height="32px" viewBox="0 0 32 32" enable-background="new 0 0 32 32" xml:space="preserve">
<g>
	<g>
		<g>
			<g>
				<g>
					<path d="M27.431,23.107H4.952c-0.704,0-1.277-0.574-1.277-1.279V6.663c0-0.706,0.573-1.278,1.277-1.278h22.479
						c0.702,0,1.276,0.572,1.276,1.278v15.165C28.707,22.533,28.133,23.107,27.431,23.107z M4.952,5.75
						c-0.504,0-0.912,0.41-0.912,0.913v15.165c0,0.504,0.408,0.914,0.912,0.914h22.479c0.501,0,0.912-0.41,0.912-0.914V6.663
						c0-0.503-0.411-0.913-0.912-0.913H4.952z"/>
				</g>
			</g>
			<g>
				<g>
					<path d="M28.525,21.183H3.856c-0.101,0-0.182-0.081-0.182-0.183c0-0.101,0.081-0.182,0.182-0.182h24.669
						c0.101,0,0.182,0.081,0.182,0.182C28.707,21.102,28.626,21.183,28.525,21.183z"/>
				</g>
			</g>
			<g>
				<g>
					<g>
						<path d="M11.281,26.344c-0.037,0-0.077-0.014-0.111-0.039c-0.078-0.062-0.095-0.177-0.033-0.257l2.512-3.241
							c0.062-0.08,0.177-0.094,0.257-0.033c0.08,0.062,0.095,0.177,0.031,0.258l-2.51,3.24
							C11.391,26.32,11.337,26.344,11.281,26.344z"/>
					</g>
				</g>
				<g>
					<g>
						<path d="M21.1,26.344c-0.055,0-0.108-0.023-0.145-0.072l-2.511-3.24c-0.062-0.081-0.048-0.195,0.032-0.258
							c0.081-0.061,0.193-0.047,0.257,0.033l2.512,3.241c0.061,0.08,0.046,0.195-0.033,0.257
							C21.177,26.33,21.139,26.344,21.1,26.344z"/>
					</g>
				</g>
			</g>
			<g>
				<g>
					<path d="M23.04,26.572H9.341c-0.101,0-0.181-0.082-0.181-0.184c0-0.101,0.08-0.182,0.181-0.182H23.04
						c0.102,0,0.183,0.081,0.183,0.182C23.223,26.49,23.142,26.572,23.04,26.572z"/>
				</g>
			</g>
		</g>
		<g>
			<g>
				<g>
					<path d="M19.615,18.526h-6.848c-0.103,0-0.184-0.082-0.184-0.183v-6.85c0-0.101,0.081-0.182,0.184-0.182h6.848
						c0.102,0,0.185,0.081,0.185,0.182v6.85C19.8,18.444,19.717,18.526,19.615,18.526z M12.948,18.161h6.485v-6.483h-6.485V18.161z"
						/>
				</g>
				<g>
					<path d="M16.191,15.43c-0.568,0-1.031-0.462-1.031-1.031c0-0.568,0.463-1.03,1.031-1.03c0.567,0,1.031,0.462,1.031,1.03
						C17.223,14.968,16.759,15.43,16.191,15.43z M16.191,13.733c-0.368,0-0.666,0.299-0.666,0.665c0,0.367,0.298,0.666,0.666,0.666
						c0.366,0,0.666-0.299,0.666-0.666C16.857,14.032,16.558,13.733,16.191,13.733z"/>
				</g>
				<g>
					<path d="M16.191,16.834c-0.102,0-0.184-0.08-0.184-0.183v-1.079c0-0.102,0.082-0.184,0.184-0.184
						c0.099,0,0.182,0.082,0.182,0.184v1.079C16.373,16.754,16.29,16.834,16.191,16.834z"/>
				</g>
			</g>
			<g>
				<path d="M18.383,10.378c-0.103,0-0.182-0.082-0.182-0.184c0-1.107-0.903-2.009-2.01-2.009c-1.108,0-2.01,0.901-2.01,2.009
					c0,0.102-0.081,0.184-0.184,0.184c-0.101,0-0.181-0.082-0.181-0.184c0-1.309,1.064-2.375,2.374-2.375
					c1.311,0,2.373,1.066,2.373,2.375C18.564,10.296,18.484,10.378,18.383,10.378z"/>
			</g>
		</g>
	</g>
</g>
</svg>
