<?xml version="1.0" encoding="utf-8"?>
<!-- Generator: Adobe Illustrator 16.0.0, SVG Export Plug-In . SVG Version: 6.00 Build 0)  -->
<!DOCTYPE svg PUBLIC "-//W3C//DTD SVG 1.1//EN" "http://www.w3.org/Graphics/SVG/1.1/DTD/svg11.dtd">
<svg version="1.1" id="Layer_1" xmlns="http://www.w3.org/2000/svg" xmlns:xlink="http://www.w3.org/1999/xlink" x="0px" y="0px"
	 width="48px" height="48px" viewBox="0 0 48 48" enable-background="new 0 0 48 48" xml:space="preserve">
<g>
	<g>
		<path d="M31.542,43.01H16.457c-0.964,0-1.748-0.783-1.748-1.748V6.738c0-0.963,0.784-1.748,1.748-1.748h15.085
			c0.964,0,1.749,0.785,1.749,1.748v34.523C33.291,42.227,32.506,43.01,31.542,43.01z M16.457,5.49
			c-0.689,0-1.249,0.559-1.249,1.248v34.523c0,0.689,0.56,1.248,1.249,1.248h15.085c0.688,0,1.249-0.559,1.249-1.248V6.738
			c0-0.689-0.561-1.248-1.249-1.248H16.457z"/>
	</g>
	<g>
		<path d="M32.78,36.156H15.219c-0.138,0-0.25-0.113-0.25-0.25c0-0.139,0.112-0.25,0.25-0.25H32.78c0.138,0,0.249,0.111,0.249,0.25
			C33.029,36.043,32.918,36.156,32.78,36.156z"/>
	</g>
	<g>
		<circle cx="24" cy="39.453" r="1.02"/>
	</g>
	<g>
		<g>
			<path d="M24,29.771c-0.082,0-0.158-0.039-0.205-0.107c-0.234-0.336-5.756-8.273-5.756-11.471c0-3.285,2.674-5.959,5.961-5.959
				c3.286,0,5.96,2.674,5.96,5.959c0,3.197-5.521,11.135-5.755,11.471C24.158,29.732,24.081,29.771,24,29.771z M24,12.734
				c-3.012,0-5.461,2.449-5.461,5.459c0,2.707,4.444,9.395,5.461,10.887c1.016-1.492,5.461-8.18,5.461-10.887
				C29.461,15.184,27.011,12.734,24,12.734z"/>
		</g>
		<g>
			<path d="M24,21.252c-1.715,0-3.109-1.393-3.109-3.107s1.395-3.109,3.109-3.109c1.714,0,3.107,1.395,3.107,3.109
				S25.714,21.252,24,21.252z M24,15.535c-1.439,0-2.609,1.17-2.609,2.609c0,1.438,1.17,2.609,2.609,2.609
				c1.438,0,2.608-1.172,2.608-2.609C26.608,16.705,25.438,15.535,24,15.535z"/>
		</g>
	</g>
</g>
</svg>
