<?xml version="1.0" encoding="utf-8"?>
<!-- Generator: Adobe Illustrator 16.0.0, SVG Export Plug-In . SVG Version: 6.00 Build 0)  -->
<!DOCTYPE svg PUBLIC "-//W3C//DTD SVG 1.1//EN" "http://www.w3.org/Graphics/SVG/1.1/DTD/svg11.dtd">
<svg version="1.1" id="Layer_1" xmlns="http://www.w3.org/2000/svg" xmlns:xlink="http://www.w3.org/1999/xlink" x="0px" y="0px"
	 width="48px" height="48px" viewBox="0 0 48 48" enable-background="new 0 0 48 48" xml:space="preserve">
<g>
	<g>
		<g>
			<path d="M39.367,33.748H8.633c-0.965,0-1.748-0.783-1.748-1.748V11.262c0-0.963,0.783-1.748,1.748-1.748h30.734
				c0.965,0,1.748,0.785,1.748,1.748V32C41.115,32.965,40.332,33.748,39.367,33.748z M8.633,10.014
				c-0.689,0-1.248,0.561-1.248,1.248V32c0,0.689,0.559,1.248,1.248,1.248h30.734c0.689,0,1.25-0.559,1.25-1.248V11.262
				c0-0.688-0.561-1.248-1.25-1.248H8.633z"/>
		</g>
		<g>
			<path d="M40.865,31.119H7.135c-0.139,0-0.25-0.113-0.25-0.25c0-0.139,0.111-0.25,0.25-0.25h33.73c0.139,0,0.25,0.111,0.25,0.25
				C41.115,31.006,41.004,31.119,40.865,31.119z"/>
		</g>
		<g>
			<g>
				<path d="M17.287,38.174c-0.053,0-0.107-0.018-0.152-0.053c-0.109-0.084-0.129-0.24-0.045-0.35l3.436-4.434
					c0.084-0.109,0.24-0.129,0.35-0.045s0.129,0.242,0.045,0.352l-3.434,4.434C17.436,38.141,17.363,38.174,17.287,38.174z"/>
			</g>
			<g>
				<path d="M30.713,38.174c-0.074,0-0.148-0.033-0.197-0.096l-3.436-4.434c-0.084-0.109-0.064-0.268,0.045-0.352
					s0.266-0.064,0.352,0.045l3.434,4.434c0.084,0.109,0.064,0.266-0.045,0.35C30.82,38.156,30.766,38.174,30.713,38.174z"/>
			</g>
		</g>
		<g>
			<path d="M33.365,38.486h-18.73c-0.139,0-0.25-0.111-0.25-0.25s0.111-0.25,0.25-0.25h18.73c0.139,0,0.25,0.111,0.25,0.25
				S33.504,38.486,33.365,38.486z"/>
		</g>
	</g>
	<g>
		<g>
			<path d="M24,27.664c-0.082,0-0.158-0.041-0.205-0.107c-0.189-0.273-4.678-6.725-4.678-9.332c0-2.691,2.191-4.881,4.883-4.881
				s4.883,2.189,4.883,4.881c0,2.607-4.486,9.059-4.678,9.332C24.158,27.623,24.082,27.664,24,27.664z M24,13.842
				c-2.416,0-4.383,1.967-4.383,4.383c0,2.15,3.492,7.434,4.383,8.748c0.891-1.314,4.383-6.598,4.383-8.748
				C28.383,15.809,26.416,13.842,24,13.842z"/>
		</g>
		<g>
			<path d="M24,20.754c-1.416,0-2.568-1.152-2.568-2.57c0-1.416,1.152-2.568,2.568-2.568s2.568,1.152,2.568,2.568
				C26.568,19.602,25.416,20.754,24,20.754z M24,16.115c-1.141,0-2.068,0.928-2.068,2.068c0,1.143,0.928,2.07,2.068,2.07
				s2.07-0.928,2.07-2.07C26.07,17.043,25.141,16.115,24,16.115z"/>
		</g>
	</g>
</g>
</svg>
