<?xml version="1.0" encoding="utf-8"?>
<!-- Generator: Adobe Illustrator 16.0.0, SVG Export Plug-In . SVG Version: 6.00 Build 0)  -->
<!DOCTYPE svg PUBLIC "-//W3C//DTD SVG 1.1//EN" "http://www.w3.org/Graphics/SVG/1.1/DTD/svg11.dtd">
<svg version="1.1" id="Layer_1" xmlns="http://www.w3.org/2000/svg" xmlns:xlink="http://www.w3.org/1999/xlink" x="0px" y="0px"
	 width="48px" height="48px" viewBox="0 0 48 48" enable-background="new 0 0 48 48" xml:space="preserve">
<g>
	<g>
		<g>
			<path d="M39.362,33.436H8.628c-0.964,0-1.748-0.783-1.748-1.748V10.951c0-0.965,0.784-1.75,1.748-1.75h30.734
				c0.965,0,1.748,0.785,1.748,1.75v20.736C41.11,32.652,40.327,33.436,39.362,33.436z M8.628,9.701
				c-0.689,0-1.249,0.561-1.249,1.25v20.736c0,0.689,0.56,1.25,1.249,1.25h30.734c0.689,0,1.249-0.561,1.249-1.25V10.951
				c0-0.689-0.56-1.25-1.249-1.25H8.628z"/>
		</g>
		<g>
			<path d="M43.896,38.799c-0.002,0-0.006,0-0.01,0H4.105c-0.097,0-0.186-0.057-0.227-0.145s-0.027-0.193,0.036-0.268l2.951-3.496
				c0.047-0.057,0.117-0.088,0.191-0.088h33.876c0.073,0,0.144,0.031,0.19,0.088l2.916,3.455c0.063,0.045,0.104,0.119,0.104,0.203
				C44.145,38.688,44.032,38.799,43.896,38.799z M4.643,38.299h38.705l-2.53-2.998H7.173L4.643,38.299z"/>
		</g>
		<g>
			<path d="M40.861,30.807H7.13c-0.139,0-0.25-0.113-0.25-0.25c0-0.139,0.111-0.25,0.25-0.25h33.731c0.138,0,0.249,0.111,0.249,0.25
				C41.11,30.693,40.999,30.807,40.861,30.807z"/>
		</g>
	</g>
	<g>
		<g>
			<path d="M23.995,27.361c-0.082,0-0.158-0.041-0.205-0.107c-0.195-0.281-4.809-6.914-4.809-9.594c0-2.764,2.25-5.014,5.014-5.014
				c2.765,0,5.014,2.25,5.014,5.014c0,2.68-4.613,9.312-4.809,9.594C24.153,27.32,24.077,27.361,23.995,27.361z M23.995,13.146
				c-2.489,0-4.514,2.025-4.514,4.514c0,2.219,3.606,7.672,4.514,9.008c0.906-1.336,4.514-6.789,4.514-9.008
				C28.509,15.172,26.484,13.146,23.995,13.146z"/>
		</g>
		<g>
			<path d="M23.995,20.254c-1.453,0-2.635-1.182-2.635-2.635s1.182-2.635,2.635-2.635s2.635,1.182,2.635,2.635
				S25.448,20.254,23.995,20.254z M23.995,15.484c-1.177,0-2.135,0.957-2.135,2.135s0.958,2.135,2.135,2.135
				c1.178,0,2.135-0.957,2.135-2.135S25.173,15.484,23.995,15.484z"/>
		</g>
	</g>
</g>
</svg>
