<?xml version="1.0" encoding="utf-8"?>
<!-- Generator: Adobe Illustrator 16.0.0, SVG Export Plug-In . SVG Version: 6.00 Build 0)  -->
<!DOCTYPE svg PUBLIC "-//W3C//DTD SVG 1.1//EN" "http://www.w3.org/Graphics/SVG/1.1/DTD/svg11.dtd">
<svg version="1.1" id="Layer_1" xmlns="http://www.w3.org/2000/svg" xmlns:xlink="http://www.w3.org/1999/xlink" x="0px" y="0px"
	 width="48px" height="48px" viewBox="0 0 48 48" enable-background="new 0 0 48 48" xml:space="preserve">
<g>
	<g>
		<path d="M36.421,43.758H11.578c-0.964,0-1.748-0.783-1.748-1.748V5.99c0-0.965,0.784-1.748,1.748-1.748h24.843
			c0.965,0,1.749,0.783,1.749,1.748v36.02C38.17,42.975,37.386,43.758,36.421,43.758z M11.578,4.742
			c-0.688,0-1.248,0.559-1.248,1.248v36.02c0,0.689,0.56,1.25,1.248,1.25h24.843c0.689,0,1.25-0.561,1.25-1.25V5.99
			c0-0.689-0.561-1.248-1.25-1.248H11.578z"/>
	</g>
	<g>
		<circle cx="24" cy="40.451" r="1.02"/>
	</g>
	<g>
		<path d="M37.708,36.988H10.293c-0.139,0-0.25-0.111-0.25-0.25c0-0.137,0.111-0.25,0.25-0.25h27.415
			c0.137,0,0.249,0.113,0.249,0.25C37.957,36.877,37.845,36.988,37.708,36.988z"/>
	</g>
	<g>
		<g>
			<path d="M24,31.859c-0.082,0-0.158-0.041-0.205-0.107c-0.292-0.418-7.154-10.285-7.154-14.246c0-4.057,3.301-7.359,7.359-7.359
				s7.359,3.303,7.359,7.359c0,3.961-6.862,13.828-7.154,14.246C24.158,31.818,24.082,31.859,24,31.859z M24,10.646
				c-3.783,0-6.859,3.078-6.859,6.859c0,3.434,5.697,11.961,6.859,13.662c1.162-1.701,6.859-10.229,6.859-13.662
				C30.859,13.725,27.782,10.646,24,10.646z"/>
		</g>
		<g>
			<path d="M24,21.252c-2.1,0-3.809-1.707-3.809-3.809c0-2.1,1.709-3.809,3.809-3.809s3.809,1.709,3.809,3.809
				C27.809,19.545,26.1,21.252,24,21.252z M24,14.135c-1.824,0-3.31,1.484-3.31,3.309c0,1.826,1.485,3.311,3.31,3.311
				s3.309-1.484,3.309-3.311C27.309,15.619,25.824,14.135,24,14.135z"/>
		</g>
	</g>
</g>
</svg>
