<?xml version="1.0" encoding="utf-8"?>
<!-- Generator: Adobe Illustrator 16.0.0, SVG Export Plug-In . SVG Version: 6.00 Build 0)  -->
<!DOCTYPE svg PUBLIC "-//W3C//DTD SVG 1.1//EN" "http://www.w3.org/Graphics/SVG/1.1/DTD/svg11.dtd">
<svg version="1.1" id="Layer_1" xmlns="http://www.w3.org/2000/svg" xmlns:xlink="http://www.w3.org/1999/xlink" x="0px" y="0px"
	 width="48px" height="48px" viewBox="0 0 48 48" enable-background="new 0 0 48 48" xml:space="preserve">
<g>
	<g>
		<g>
			<path d="M28.718,35.703H17.485c-1.515,0-2.748-1.232-2.748-2.746v-13.82c0-1.514,1.233-2.746,2.748-2.746h11.232
				c1.514,0,2.747,1.232,2.747,2.746v13.82C31.465,34.471,30.231,35.703,28.718,35.703z M17.485,16.891
				c-1.24,0-2.248,1.008-2.248,2.246v13.82c0,1.238,1.008,2.248,2.248,2.248h11.232c1.239,0,2.247-1.01,2.247-2.248v-13.82
				c0-1.238-1.008-2.246-2.247-2.246H17.485z"/>
		</g>
		<g>
			<path d="M33.013,24.104c-0.138,0-0.25-0.111-0.25-0.25v-3.125c0-0.139,0.112-0.25,0.25-0.25c0.139,0,0.25,0.111,0.25,0.25v3.125
				C33.263,23.992,33.151,24.104,33.013,24.104z"/>
		</g>
		<g>
			<path d="M28.216,15.049c-0.139,0-0.25-0.111-0.25-0.25V11.32c0-0.412-0.336-0.748-0.75-0.748h-8.229
				c-0.413,0-0.749,0.336-0.749,0.748v3.479c0,0.139-0.111,0.25-0.25,0.25c-0.138,0-0.25-0.111-0.25-0.25V11.32
				c0-0.688,0.561-1.248,1.249-1.248h8.229c0.689,0,1.249,0.561,1.249,1.248v3.479C28.465,14.938,28.354,15.049,28.216,15.049z"/>
		</g>
		<g>
			<path d="M27.216,42.021h-8.229c-0.688,0-1.249-0.561-1.249-1.248v-3.479c0-0.137,0.112-0.25,0.25-0.25
				c0.139,0,0.25,0.113,0.25,0.25v3.479c0,0.412,0.336,0.748,0.749,0.748h8.229c0.414,0,0.75-0.336,0.75-0.748v-3.479
				c0-0.137,0.111-0.25,0.25-0.25c0.138,0,0.249,0.113,0.249,0.25v3.479C28.465,41.461,27.905,42.021,27.216,42.021z"/>
		</g>
	</g>
	<g>
		<g>
			<path d="M23.102,32.16c-0.082,0-0.158-0.041-0.205-0.107c-0.162-0.232-3.975-5.715-3.975-7.938c0-2.305,1.875-4.18,4.18-4.18
				c2.304,0,4.179,1.875,4.179,4.18c0,2.223-3.812,7.705-3.975,7.938C23.259,32.119,23.183,32.16,23.102,32.16z M23.102,20.434
				c-2.029,0-3.681,1.652-3.681,3.682c0,1.789,2.879,6.166,3.681,7.352c0.801-1.186,3.68-5.564,3.68-7.352
				C26.781,22.086,25.131,20.434,23.102,20.434z"/>
		</g>
		<g>
			<path d="M23.102,26.297c-1.223,0-2.218-0.994-2.218-2.217s0.995-2.217,2.218-2.217c1.222,0,2.217,0.994,2.217,2.217
				S24.323,26.297,23.102,26.297z M23.102,22.361c-0.947,0-1.718,0.771-1.718,1.719s0.771,1.717,1.718,1.717
				c0.946,0,1.717-0.77,1.717-1.717S24.048,22.361,23.102,22.361z"/>
		</g>
	</g>
</g>
</svg>
