<?xml version="1.0" encoding="utf-8"?>
<!-- Generator: Adobe Illustrator 16.0.0, SVG Export Plug-In . SVG Version: 6.00 Build 0)  -->
<!DOCTYPE svg PUBLIC "-//W3C//DTD SVG 1.1//EN" "http://www.w3.org/Graphics/SVG/1.1/DTD/svg11.dtd">
<svg version="1.1" id="Layer_1" xmlns="http://www.w3.org/2000/svg" xmlns:xlink="http://www.w3.org/1999/xlink" x="0px" y="0px"
	 width="64px" height="64px" viewBox="0 0 64 64" enable-background="new 0 0 64 64" xml:space="preserve">
<g>
	<g>
		<path d="M40.461,56.543H23.539c-1.93,0-3.5-1.57-3.5-3.5V11.476c0-1.93,1.57-3.5,3.5-3.5h16.923c1.93,0,3.5,1.57,3.5,3.5v41.567
			C43.961,54.973,42.391,56.543,40.461,56.543z M23.539,8.976c-1.378,0-2.5,1.122-2.5,2.5v41.567c0,1.378,1.122,2.5,2.5,2.5h16.923
			c1.378,0,2.5-1.122,2.5-2.5V11.476c0-1.378-1.122-2.5-2.5-2.5H23.539z"/>
	</g>
	<g>
		<path d="M43.132,47.853H20.867c-0.276,0-0.5-0.224-0.5-0.5s0.224-0.5,0.5-0.5h22.265c0.276,0,0.5,0.224,0.5,0.5
			S43.408,47.853,43.132,47.853z"/>
	</g>
	<g>
		<circle cx="32" cy="51.851" r="1.292"/>
	</g>
	<g>
		<g>
			<path d="M33.79,29.372c-0.142,0-0.283-0.06-0.382-0.177c-0.178-0.211-0.152-0.526,0.059-0.705l5.329-4.511
				c0.212-0.178,0.526-0.152,0.705,0.059c0.178,0.211,0.152,0.526-0.059,0.705l-5.329,4.511
				C34.018,29.333,33.903,29.372,33.79,29.372z"/>
		</g>
		<g>
			<path d="M32,30.899c-0.116,0-0.231-0.04-0.325-0.12l-1.79-1.527c-0.21-0.179-0.235-0.495-0.056-0.705
				c0.18-0.21,0.496-0.235,0.705-0.056L32,29.742l1.464-1.25c0.21-0.179,0.525-0.154,0.705,0.056
				c0.179,0.21,0.154,0.526-0.056,0.705l-1.789,1.527C32.231,30.859,32.116,30.899,32,30.899z"/>
		</g>
		<g>
			<path d="M30.21,29.372c-0.114,0-0.229-0.039-0.323-0.119l-5.328-4.511c-0.21-0.178-0.237-0.494-0.059-0.705
				c0.18-0.21,0.495-0.236,0.705-0.058l5.328,4.511c0.21,0.178,0.237,0.494,0.059,0.705C30.493,29.312,30.352,29.372,30.21,29.372z"
				/>
		</g>
		<g>
			<path d="M24.882,33.883c-0.142,0-0.283-0.06-0.382-0.177c-0.178-0.211-0.152-0.526,0.059-0.705l5.328-4.511
				c0.212-0.178,0.526-0.152,0.705,0.058c0.178,0.211,0.152,0.526-0.059,0.705l-5.328,4.511
				C25.111,33.844,24.996,33.883,24.882,33.883z"/>
		</g>
		<g>
			<path d="M39.117,33.883c-0.114,0-0.229-0.039-0.323-0.118l-5.329-4.511c-0.21-0.179-0.237-0.494-0.059-0.705
				c0.178-0.21,0.493-0.236,0.705-0.059l5.329,4.511c0.21,0.179,0.237,0.494,0.059,0.705C39.4,33.823,39.259,33.883,39.117,33.883z"
				/>
		</g>
	</g>
	<g>
		<path d="M39.118,33.883H24.882c-0.276,0-0.5-0.224-0.5-0.5v-9.022c0-0.276,0.224-0.5,0.5-0.5h14.236c0.276,0,0.5,0.224,0.5,0.5
			v9.022C39.618,33.66,39.394,33.883,39.118,33.883z M25.382,32.883h13.236v-8.022H25.382V32.883z"/>
	</g>
</g>
</svg>
