<?xml version="1.0" encoding="utf-8"?>
<!-- Generator: Adobe Illustrator 16.0.0, SVG Export Plug-In . SVG Version: 6.00 Build 0)  -->
<!DOCTYPE svg PUBLIC "-//W3C//DTD SVG 1.1//EN" "http://www.w3.org/Graphics/SVG/1.1/DTD/svg11.dtd">
<svg version="1.1" id="Layer_1" xmlns="http://www.w3.org/2000/svg" xmlns:xlink="http://www.w3.org/1999/xlink" x="0px" y="0px"
	 width="64px" height="64px" viewBox="0 0 64 64" enable-background="new 0 0 64 64" xml:space="preserve">
<g>
	<g>
		<path d="M36.146,44.686H25.574c-3.033,0-5.5-2.467-5.5-5.5V25.334c0-3.033,2.467-5.5,5.5-5.5h10.572c3.033,0,5.5,2.467,5.5,5.5
			v13.852C41.646,42.219,39.179,44.686,36.146,44.686z M25.574,20.834c-2.481,0-4.5,2.019-4.5,4.5v13.852c0,2.481,2.019,4.5,4.5,4.5
			h10.572c2.481,0,4.5-2.019,4.5-4.5V25.334c0-2.481-2.019-4.5-4.5-4.5H25.574z"/>
	</g>
	<g>
		<path d="M43.426,29.979c-0.276,0-0.5-0.224-0.5-0.5v-3.962c0-0.276,0.224-0.5,0.5-0.5s0.5,0.224,0.5,0.5v3.962
			C43.926,29.756,43.702,29.979,43.426,29.979z"/>
	</g>
	<g>
		<path d="M37.344,18.498c-0.276,0-0.5-0.224-0.5-0.5v-3.674c0-0.827-0.673-1.5-1.5-1.5h-8.967c-0.827,0-1.5,0.673-1.5,1.5v3.674
			c0,0.276-0.224,0.5-0.5,0.5s-0.5-0.224-0.5-0.5v-3.674c0-1.378,1.122-2.5,2.5-2.5h8.967c1.378,0,2.5,1.122,2.5,2.5v3.674
			C37.844,18.274,37.62,18.498,37.344,18.498z"/>
	</g>
	<g>
		<path d="M35.344,52.695h-8.967c-1.378,0-2.5-1.122-2.5-2.5V46.52c0-0.276,0.224-0.5,0.5-0.5s0.5,0.224,0.5,0.5v3.675
			c0,0.827,0.673,1.5,1.5,1.5h8.967c0.827,0,1.5-0.673,1.5-1.5V46.52c0-0.276,0.224-0.5,0.5-0.5s0.5,0.224,0.5,0.5v3.675
			C37.844,51.574,36.722,52.695,35.344,52.695z"/>
	</g>
	<g>
		<g>
			<g>
				<path d="M32.365,32.76c-0.142,0-0.283-0.06-0.382-0.177c-0.178-0.211-0.152-0.526,0.059-0.705l4.479-3.792
					c0.211-0.178,0.526-0.152,0.705,0.059c0.178,0.211,0.152,0.526-0.059,0.705l-4.479,3.792
					C32.593,32.721,32.479,32.76,32.365,32.76z"/>
			</g>
			<g>
				<path d="M30.859,34.043c-0.116,0-0.231-0.04-0.325-0.12l-1.504-1.284c-0.21-0.179-0.235-0.495-0.056-0.705
					c0.18-0.211,0.495-0.234,0.705-0.056l1.179,1.007l1.18-1.007c0.21-0.179,0.525-0.155,0.705,0.056
					c0.179,0.21,0.154,0.526-0.056,0.705l-1.505,1.284C31.09,34.003,30.975,34.043,30.859,34.043z"/>
			</g>
			<g>
				<path d="M29.355,32.76c-0.114,0-0.229-0.039-0.323-0.118l-4.479-3.792c-0.21-0.178-0.237-0.494-0.059-0.705
					c0.179-0.21,0.493-0.237,0.705-0.059l4.479,3.792c0.21,0.178,0.237,0.494,0.059,0.705C29.638,32.7,29.497,32.76,29.355,32.76z"
					/>
			</g>
			<g>
				<path d="M24.877,36.55c-0.142,0-0.283-0.06-0.382-0.177c-0.178-0.211-0.152-0.526,0.059-0.705l4.479-3.791
					c0.212-0.177,0.527-0.151,0.705,0.059c0.178,0.211,0.152,0.526-0.059,0.705L25.2,36.432
					C25.106,36.511,24.991,36.55,24.877,36.55z"/>
			</g>
			<g>
				<path d="M36.843,36.55c-0.114,0-0.229-0.039-0.322-0.118l-4.479-3.791c-0.211-0.179-0.237-0.494-0.059-0.705
					c0.178-0.211,0.493-0.236,0.705-0.059l4.479,3.791c0.211,0.179,0.237,0.494,0.059,0.705C37.126,36.49,36.985,36.55,36.843,36.55
					z"/>
			</g>
		</g>
		<g>
			<path d="M36.844,36.55H24.877c-0.276,0-0.5-0.224-0.5-0.5v-7.583c0-0.276,0.224-0.5,0.5-0.5h11.967c0.276,0,0.5,0.224,0.5,0.5
				v7.583C37.344,36.327,37.12,36.55,36.844,36.55z M25.377,35.55h10.967v-6.583H25.377V35.55z"/>
		</g>
	</g>
</g>
</svg>
