<?xml version="1.0" encoding="utf-8"?>
<!-- Generator: Adobe Illustrator 16.0.0, SVG Export Plug-In . SVG Version: 6.00 Build 0)  -->
<!DOCTYPE svg PUBLIC "-//W3C//DTD SVG 1.1//EN" "http://www.w3.org/Graphics/SVG/1.1/DTD/svg11.dtd">
<svg version="1.1" id="Layer_1" xmlns="http://www.w3.org/2000/svg" xmlns:xlink="http://www.w3.org/1999/xlink" x="0px" y="0px"
	 width="64px" height="64px" viewBox="0 0 64 64" enable-background="new 0 0 64 64" xml:space="preserve">
<g>
	<g>
		<path d="M46.647,57.493H17.353c-1.93,0-3.5-1.57-3.5-3.5V10.527c0-1.93,1.57-3.5,3.5-3.5h29.295c1.93,0,3.5,1.57,3.5,3.5v43.466
			C50.147,55.922,48.577,57.493,46.647,57.493z M17.353,8.027c-1.378,0-2.5,1.122-2.5,2.5v43.466c0,1.378,1.122,2.5,2.5,2.5h29.295
			c1.378,0,2.5-1.122,2.5-2.5V10.527c0-1.378-1.122-2.5-2.5-2.5H17.353z"/>
	</g>
	<g>
		<circle cx="32" cy="53.116" r="1.292"/>
	</g>
	<g>
		<path d="M49.379,48.909H14.621c-0.276,0-0.5-0.224-0.5-0.5s0.224-0.5,0.5-0.5h34.758c0.276,0,0.5,0.224,0.5,0.5
			S49.655,48.909,49.379,48.909z"/>
	</g>
	<g>
		<g>
			<path d="M34.697,29.372c-0.142,0-0.283-0.06-0.382-0.177c-0.178-0.211-0.152-0.526,0.059-0.705l8.024-6.794
				c0.212-0.177,0.526-0.151,0.705,0.059c0.178,0.211,0.152,0.526-0.059,0.705l-8.024,6.794
				C34.925,29.333,34.811,29.372,34.697,29.372z"/>
		</g>
		<g>
			<path d="M32.001,31.671c-0.116,0-0.231-0.04-0.324-0.12l-2.696-2.299c-0.21-0.179-0.235-0.495-0.056-0.705
				c0.179-0.211,0.496-0.236,0.705-0.056l2.372,2.022l2.371-2.022c0.21-0.18,0.525-0.154,0.705,0.056
				c0.179,0.21,0.154,0.526-0.056,0.705l-2.695,2.299C32.232,31.631,32.117,31.671,32.001,31.671z"/>
		</g>
		<g>
			<path d="M29.304,29.372c-0.114,0-0.229-0.039-0.323-0.118l-8.024-6.794c-0.21-0.179-0.237-0.494-0.059-0.705
				c0.179-0.21,0.494-0.236,0.705-0.059l8.024,6.794c0.21,0.179,0.237,0.494,0.059,0.705C29.587,29.312,29.446,29.372,29.304,29.372
				z"/>
		</g>
		<g>
			<path d="M21.281,36.165c-0.142,0-0.283-0.06-0.382-0.177c-0.178-0.211-0.152-0.526,0.059-0.705l8.024-6.792
				c0.211-0.177,0.526-0.151,0.705,0.059c0.178,0.211,0.152,0.526-0.059,0.705l-8.024,6.792
				C21.509,36.125,21.395,36.165,21.281,36.165z"/>
		</g>
		<g>
			<path d="M42.72,36.165c-0.114,0-0.229-0.039-0.323-0.118l-8.024-6.792c-0.21-0.179-0.237-0.494-0.059-0.705
				c0.178-0.21,0.493-0.236,0.705-0.059l8.024,6.792c0.21,0.179,0.237,0.494,0.059,0.705C43.003,36.104,42.862,36.165,42.72,36.165z
				"/>
		</g>
	</g>
	<g>
		<path d="M42.721,36.165H21.28c-0.276,0-0.5-0.224-0.5-0.5V22.078c0-0.276,0.224-0.5,0.5-0.5h21.44c0.276,0,0.5,0.224,0.5,0.5
			v13.586C43.221,35.941,42.997,36.165,42.721,36.165z M21.78,35.165h20.44V22.578H21.78V35.165z"/>
	</g>
</g>
</svg>
