<?xml version="1.0" encoding="utf-8"?>
<!-- Generator: Adobe Illustrator 16.0.0, SVG Export Plug-In . SVG Version: 6.00 Build 0)  -->
<!DOCTYPE svg PUBLIC "-//W3C//DTD SVG 1.1//EN" "http://www.w3.org/Graphics/SVG/1.1/DTD/svg11.dtd">
<svg version="1.1" id="Layer_1" xmlns="http://www.w3.org/2000/svg" xmlns:xlink="http://www.w3.org/1999/xlink" x="0px" y="0px"
	 width="48px" height="48px" viewBox="0 0 48 48" enable-background="new 0 0 48 48" xml:space="preserve">
<g>
	<g>
		<g>
			<path d="M39.362,33.436H8.628c-0.964,0-1.748-0.784-1.748-1.748V10.95c0-0.964,0.784-1.748,1.748-1.748h30.734
				c0.965,0,1.748,0.784,1.748,1.748v20.738C41.11,32.652,40.327,33.436,39.362,33.436z M8.628,9.702
				c-0.689,0-1.249,0.56-1.249,1.248v20.738c0,0.688,0.56,1.249,1.249,1.249h30.734c0.689,0,1.249-0.561,1.249-1.249V10.95
				c0-0.688-0.56-1.248-1.249-1.248H8.628z"/>
		</g>
		<g>
			<path d="M43.896,38.798c-0.002,0-0.006,0-0.01,0H4.105c-0.097,0-0.186-0.057-0.227-0.145c-0.041-0.089-0.027-0.192,0.036-0.267
				l2.951-3.496c0.047-0.057,0.117-0.089,0.191-0.089h33.876c0.073,0,0.144,0.032,0.19,0.089l2.916,3.454
				c0.063,0.046,0.104,0.119,0.104,0.203C44.145,38.686,44.032,38.798,43.896,38.798z M4.643,38.298h38.705l-2.53-2.997H7.173
				L4.643,38.298z"/>
		</g>
		<g>
			<path d="M40.861,30.806H7.13c-0.139,0-0.25-0.112-0.25-0.25c0-0.139,0.111-0.25,0.25-0.25h33.731c0.138,0,0.249,0.111,0.249,0.25
				C41.11,30.694,40.999,30.806,40.861,30.806z"/>
		</g>
	</g>
	<g>
		<g>
			<path d="M32.425,27.677H15.565c-0.139,0-0.25-0.112-0.25-0.25s0.111-0.25,0.25-0.25h16.859c0.139,0,0.25,0.112,0.25,0.25
				S32.563,27.677,32.425,27.677z"/>
		</g>
		<g>
			<g>
				<path d="M20.868,25.913h-3.534c-0.138,0-0.249-0.111-0.249-0.249v-5.168c0-0.139,0.111-0.25,0.249-0.25h3.534
					c0.139,0,0.25,0.111,0.25,0.25v5.168C21.118,25.801,21.007,25.913,20.868,25.913z M17.584,25.414h3.035v-4.668h-3.035V25.414z"
					/>
			</g>
			<g>
				<path d="M25.763,25.913h-3.535c-0.138,0-0.25-0.111-0.25-0.249v-8.43c0-0.139,0.112-0.25,0.25-0.25h3.535
					c0.138,0,0.25,0.111,0.25,0.25v8.43C26.013,25.801,25.9,25.913,25.763,25.913z M22.478,25.414h3.035v-7.931h-3.035V25.414z"/>
			</g>
			<g>
				<path d="M30.656,25.913h-3.534c-0.139,0-0.25-0.111-0.25-0.249V13.971c0-0.139,0.111-0.25,0.25-0.25h3.534
					c0.138,0,0.249,0.111,0.249,0.25v11.692C30.905,25.801,30.794,25.913,30.656,25.913z M27.371,25.414h3.035V14.221h-3.035V25.414
					z"/>
			</g>
		</g>
	</g>
</g>
</svg>
