<?xml version="1.0" encoding="utf-8"?>
<!-- Generator: Adobe Illustrator 16.0.0, SVG Export Plug-In . SVG Version: 6.00 Build 0)  -->
<!DOCTYPE svg PUBLIC "-//W3C//DTD SVG 1.1//EN" "http://www.w3.org/Graphics/SVG/1.1/DTD/svg11.dtd">
<svg version="1.1" id="Layer_1" xmlns="http://www.w3.org/2000/svg" xmlns:xlink="http://www.w3.org/1999/xlink" x="0px" y="0px"
	 width="48px" height="48px" viewBox="0 0 48 48" enable-background="new 0 0 48 48" xml:space="preserve">
<g>
	<g>
		<path d="M36.421,43.758H11.578c-0.964,0-1.748-0.784-1.748-1.749V5.99c0-0.964,0.784-1.748,1.748-1.748h24.843
			c0.965,0,1.749,0.784,1.749,1.748v36.02C38.17,42.974,37.386,43.758,36.421,43.758z M11.578,4.741
			c-0.688,0-1.248,0.56-1.248,1.249v36.02c0,0.689,0.56,1.249,1.248,1.249h24.843c0.689,0,1.25-0.56,1.25-1.249V5.99
			c0-0.688-0.561-1.249-1.25-1.249H11.578z"/>
	</g>
	<g>
		<circle cx="24" cy="40.452" r="1.02"/>
	</g>
	<g>
		<path d="M37.708,36.988H10.293c-0.139,0-0.25-0.111-0.25-0.249c0-0.139,0.111-0.25,0.25-0.25h27.415
			c0.137,0,0.249,0.111,0.249,0.25C37.957,36.876,37.845,36.988,37.708,36.988z"/>
	</g>
	<g>
		<g>
			<path d="M34.326,30.632H13.674c-0.139,0-0.25-0.111-0.25-0.249c0-0.139,0.111-0.25,0.25-0.25h20.652
				c0.138,0,0.25,0.111,0.25,0.25C34.576,30.521,34.464,30.632,34.326,30.632z"/>
		</g>
		<g>
			<g>
				<path d="M20.171,28.084h-4.33c-0.138,0-0.249-0.111-0.249-0.249v-6.33c0-0.139,0.111-0.25,0.249-0.25h4.33
					c0.138,0,0.249,0.111,0.249,0.25v6.33C20.42,27.973,20.309,28.084,20.171,28.084z M16.091,27.585h3.83v-5.83h-3.83V27.585z"/>
			</g>
			<g>
				<path d="M26.165,28.084h-4.33c-0.138,0-0.249-0.111-0.249-0.249V17.509c0-0.139,0.111-0.25,0.249-0.25h4.33
					c0.138,0,0.249,0.111,0.249,0.25v10.326C26.414,27.973,26.303,28.084,26.165,28.084z M22.085,27.585h3.83v-9.826h-3.83V27.585z"
					/>
			</g>
			<g>
				<path d="M32.159,28.084h-4.33c-0.138,0-0.249-0.111-0.249-0.249V13.513c0-0.139,0.111-0.25,0.249-0.25h4.33
					c0.138,0,0.25,0.111,0.25,0.25v14.322C32.409,27.973,32.297,28.084,32.159,28.084z M28.079,27.585h3.83V13.763h-3.83V27.585z"/>
			</g>
		</g>
	</g>
</g>
</svg>
