<?xml version="1.0" encoding="utf-8"?>
<!-- Generator: Adobe Illustrator 16.0.0, SVG Export Plug-In . SVG Version: 6.00 Build 0)  -->
<!DOCTYPE svg PUBLIC "-//W3C//DTD SVG 1.1//EN" "http://www.w3.org/Graphics/SVG/1.1/DTD/svg11.dtd">
<svg version="1.1" id="Layer_1" xmlns="http://www.w3.org/2000/svg" xmlns:xlink="http://www.w3.org/1999/xlink" x="0px" y="0px"
	 width="48px" height="48px" viewBox="0 0 48 48" enable-background="new 0 0 48 48" xml:space="preserve">
<g>
	<g>
		<g>
			<path d="M39.367,33.749H8.633c-0.965,0-1.748-0.785-1.748-1.749V11.262c0-0.964,0.783-1.748,1.748-1.748h30.734
				c0.965,0,1.748,0.784,1.748,1.748V32C41.115,32.963,40.332,33.749,39.367,33.749z M8.633,10.013
				c-0.689,0-1.248,0.561-1.248,1.249V32c0,0.689,0.559,1.249,1.248,1.249h30.734c0.689,0,1.25-0.56,1.25-1.249V11.262
				c0-0.688-0.561-1.249-1.25-1.249H8.633z"/>
		</g>
		<g>
			<path d="M40.865,31.118H7.135c-0.139,0-0.25-0.111-0.25-0.249c0-0.139,0.111-0.25,0.25-0.25h33.73c0.139,0,0.25,0.111,0.25,0.25
				C41.115,31.006,41.004,31.118,40.865,31.118z"/>
		</g>
		<g>
			<g>
				<path d="M17.287,38.173c-0.053,0-0.107-0.017-0.152-0.052c-0.109-0.085-0.129-0.241-0.045-0.351l3.436-4.434
					c0.084-0.108,0.24-0.128,0.35-0.044s0.129,0.241,0.045,0.351l-3.434,4.433C17.436,38.14,17.363,38.173,17.287,38.173z"/>
			</g>
			<g>
				<path d="M30.713,38.173c-0.074,0-0.148-0.033-0.197-0.097l-3.436-4.433c-0.084-0.109-0.064-0.267,0.045-0.351
					c0.109-0.085,0.266-0.065,0.352,0.044l3.434,4.434c0.084,0.109,0.064,0.266-0.045,0.351
					C30.82,38.157,30.766,38.173,30.713,38.173z"/>
			</g>
		</g>
		<g>
			<path d="M33.365,38.486h-18.73c-0.139,0-0.25-0.111-0.25-0.25c0-0.138,0.111-0.25,0.25-0.25h18.73c0.139,0,0.25,0.112,0.25,0.25
				C33.615,38.375,33.504,38.486,33.365,38.486z"/>
		</g>
	</g>
	<g>
		<g>
			<path d="M32.312,27.586H15.688c-0.139,0-0.25-0.112-0.25-0.25s0.111-0.25,0.25-0.25h16.625c0.139,0,0.25,0.112,0.25,0.25
				S32.451,27.586,32.312,27.586z"/>
		</g>
		<g>
			<path d="M20.418,25.84h-3.484c-0.139,0-0.25-0.111-0.25-0.25v-5.096c0-0.138,0.111-0.249,0.25-0.249h3.484
				c0.139,0,0.25,0.111,0.25,0.249v5.096C20.668,25.729,20.557,25.84,20.418,25.84z M17.182,25.341h2.986v-4.597h-2.986V25.341z"/>
		</g>
		<g>
			<path d="M25.742,25.84h-3.484c-0.139,0-0.25-0.111-0.25-0.25v-8.312c0-0.139,0.111-0.25,0.25-0.25h3.484
				c0.139,0,0.25,0.111,0.25,0.25v8.312C25.992,25.729,25.881,25.84,25.742,25.84z M22.508,25.341h2.984v-7.813h-2.984V25.341z"/>
		</g>
		<g>
			<path d="M31.068,25.84h-3.486c-0.139,0-0.25-0.111-0.25-0.25V14.061c0-0.138,0.111-0.25,0.25-0.25h3.486
				c0.137,0,0.248,0.112,0.248,0.25V25.59C31.316,25.729,31.205,25.84,31.068,25.84z M27.832,25.341h2.986v-11.03h-2.986V25.341z"/>
		</g>
	</g>
</g>
</svg>
