<?xml version="1.0" encoding="utf-8"?>
<!-- Generator: Adobe Illustrator 16.0.0, SVG Export Plug-In . SVG Version: 6.00 Build 0)  -->
<!DOCTYPE svg PUBLIC "-//W3C//DTD SVG 1.1//EN" "http://www.w3.org/Graphics/SVG/1.1/DTD/svg11.dtd">
<svg version="1.1" id="Layer_1" xmlns="http://www.w3.org/2000/svg" xmlns:xlink="http://www.w3.org/1999/xlink" x="0px" y="0px"
	 width="48px" height="48px" viewBox="0 0 48 48" enable-background="new 0 0 48 48" xml:space="preserve">
<g>
	<g>
		<path d="M31.542,43.009H16.457c-0.964,0-1.748-0.784-1.748-1.748V6.738c0-0.964,0.784-1.749,1.748-1.749h15.085
			c0.964,0,1.749,0.785,1.749,1.749v34.523C33.291,42.225,32.506,43.009,31.542,43.009z M16.457,5.489
			c-0.689,0-1.249,0.56-1.249,1.249v34.523c0,0.689,0.56,1.249,1.249,1.249h15.085c0.688,0,1.249-0.56,1.249-1.249V6.738
			c0-0.689-0.561-1.249-1.249-1.249H16.457z"/>
	</g>
	<g>
		<path d="M32.78,36.155H15.219c-0.138,0-0.25-0.111-0.25-0.249c0-0.139,0.112-0.25,0.25-0.25H32.78c0.138,0,0.249,0.111,0.249,0.25
			C33.029,36.043,32.918,36.155,32.78,36.155z"/>
	</g>
	<g>
		<circle cx="24" cy="39.453" r="1.02"/>
	</g>
	<g>
		<g>
			<path d="M22.779,25.898h-2.51c-0.137,0-0.249-0.111-0.249-0.249v-3.668c0-0.138,0.112-0.25,0.249-0.25h2.51
				c0.139,0,0.25,0.112,0.25,0.25v3.668C23.029,25.787,22.918,25.898,22.779,25.898z M20.52,25.399h2.01v-3.168h-2.01V25.399z"/>
		</g>
		<g>
			<path d="M25.254,25.898h-2.509c-0.138,0-0.25-0.111-0.25-0.249v-5.983c0-0.139,0.112-0.25,0.25-0.25h2.509
				c0.139,0,0.25,0.111,0.25,0.25v5.983C25.504,25.787,25.393,25.898,25.254,25.898z M22.994,25.399h2.01v-5.484h-2.01V25.399z"/>
		</g>
		<g>
			<path d="M27.729,25.898H25.22c-0.138,0-0.25-0.111-0.25-0.249v-8.3c0-0.138,0.112-0.25,0.25-0.25h2.509
				c0.139,0,0.25,0.112,0.25,0.25v8.3C27.979,25.787,27.867,25.898,27.729,25.898z M25.469,25.399h2.01v-7.8h-2.01V25.399z"/>
		</g>
	</g>
</g>
</svg>
