<?xml version="1.0" encoding="utf-8"?>
<!-- Generator: Adobe Illustrator 16.0.0, SVG Export Plug-In . SVG Version: 6.00 Build 0)  -->
<!DOCTYPE svg PUBLIC "-//W3C//DTD SVG 1.1//EN" "http://www.w3.org/Graphics/SVG/1.1/DTD/svg11.dtd">
<svg version="1.1" id="Layer_1" xmlns="http://www.w3.org/2000/svg" xmlns:xlink="http://www.w3.org/1999/xlink" x="0px" y="0px"
	 width="64px" height="64px" viewBox="0 0 64 64" enable-background="new 0 0 64 64" xml:space="preserve">
<g>
	<g>
		<path d="M46.647,57.492H17.353c-1.93,0-3.5-1.57-3.5-3.5V10.527c0-1.93,1.57-3.5,3.5-3.5h29.295c1.93,0,3.5,1.57,3.5,3.5v43.465
			C50.147,55.922,48.577,57.492,46.647,57.492z M17.353,8.027c-1.378,0-2.5,1.121-2.5,2.5v43.465c0,1.379,1.122,2.5,2.5,2.5h29.295
			c1.378,0,2.5-1.121,2.5-2.5V10.527c0-1.379-1.122-2.5-2.5-2.5H17.353z"/>
	</g>
	<g>
		<circle cx="32" cy="53.119" r="1.292"/>
	</g>
	<g>
		<path d="M49.379,48.912H14.621c-0.276,0-0.5-0.224-0.5-0.5s0.224-0.5,0.5-0.5h34.758c0.276,0,0.5,0.224,0.5,0.5
			S49.655,48.912,49.379,48.912z"/>
	</g>
	<g>
		<g>
			<path fill="none" stroke="#000000" stroke-linecap="round" stroke-linejoin="round" stroke-miterlimit="10" d="M31.999,42.111"/>
		</g>
		<g>
			<path d="M31.999,40.166L31.999,40.166c-0.156,0-0.304-0.073-0.398-0.197c0,0-3.416-4.493-6.366-8.41
				c-0.166-0.221-0.122-0.534,0.099-0.7c0.222-0.165,0.535-0.122,0.7,0.099c2.343,3.111,4.981,6.587,5.965,7.883
				c4.045-5.321,9.799-12.936,10.131-13.502c0.005-0.012,0.011-0.024,0.017-0.037c0.389-0.767,0.586-1.587,0.586-2.438
				c0-3.017-2.48-5.471-5.529-5.471c-2.091,0-3.879,1.771-4.774,3.287c-0.09,0.152-0.254,0.246-0.431,0.246l0,0
				c-0.177,0-0.341-0.094-0.431-0.246c-0.895-1.517-2.681-3.287-4.772-3.287c-3.049,0-5.529,2.454-5.529,5.471
				c0,0.852,0.197,1.672,0.585,2.438c0.004,0.009,0.008,0.017,0.012,0.025c0.003,0.005,0.005,0.01,0.007,0.013
				c0.047,0.084,0.34,0.503,1.448,1.995c0.165,0.222,0.119,0.534-0.103,0.699c-0.224,0.163-0.535,0.119-0.7-0.104
				c-1.316-1.771-1.48-2.027-1.537-2.138c-0.034-0.047-0.058-0.096-0.073-0.146c-0.424-0.877-0.64-1.813-0.64-2.783
				c0-3.568,2.929-6.471,6.529-6.471c2.208,0,4.057,1.511,5.203,3.117c1.147-1.606,2.997-3.117,5.205-3.117
				c3.6,0,6.529,2.902,6.529,6.471c0,0.977-0.219,1.918-0.65,2.801c-0.015,0.056-0.04,0.108-0.075,0.157
				c-0.303,0.585-8.893,11.888-10.611,14.147C32.302,40.093,32.155,40.166,31.999,40.166z"/>
		</g>
	</g>
	<g>
		<path d="M31.005,33.672c-0.239,0-0.446-0.17-0.491-0.406l-0.945-4.941l-0.713,1.321c-0.087,0.162-0.256,0.263-0.44,0.263h-7.432
			c-0.276,0-0.5-0.224-0.5-0.5s0.224-0.5,0.5-0.5h7.133l1.238-2.296c0.1-0.186,0.305-0.289,0.516-0.257
			c0.209,0.032,0.375,0.192,0.415,0.4l0.655,3.425l1.072-7.248c0.036-0.242,0.243-0.423,0.488-0.427
			c0.239-0.012,0.457,0.171,0.499,0.413l1.258,7.133l0.385-0.921c0.078-0.186,0.26-0.307,0.461-0.307h2.223
			c0.276,0,0.5,0.224,0.5,0.5s-0.224,0.5-0.5,0.5h-1.89l-0.915,2.186c-0.085,0.204-0.295,0.326-0.517,0.304
			c-0.221-0.024-0.399-0.191-0.437-0.41l-1.018-5.773L31.5,33.245c-0.036,0.241-0.24,0.422-0.484,0.427
			C31.012,33.672,31.008,33.672,31.005,33.672z"/>
	</g>
</g>
</svg>
