<?xml version="1.0" encoding="utf-8"?>
<!-- Generator: Adobe Illustrator 16.0.0, SVG Export Plug-In . SVG Version: 6.00 Build 0)  -->
<!DOCTYPE svg PUBLIC "-//W3C//DTD SVG 1.1//EN" "http://www.w3.org/Graphics/SVG/1.1/DTD/svg11.dtd">
<svg version="1.1" id="Layer_1" xmlns="http://www.w3.org/2000/svg" xmlns:xlink="http://www.w3.org/1999/xlink" x="0px" y="0px"
	 width="64px" height="64px" viewBox="0 0 64 64" enable-background="new 0 0 64 64" xml:space="preserve">
<g>
	<g>
		<g>
			<path d="M50.383,44.805H13.617c-1.93,0-3.5-1.57-3.5-3.5V17.211c0-1.93,1.57-3.5,3.5-3.5h36.767c1.93,0,3.5,1.57,3.5,3.5v24.094
				C53.883,43.234,52.313,44.805,50.383,44.805z M13.617,14.711c-1.378,0-2.5,1.121-2.5,2.5v24.094c0,1.379,1.122,2.5,2.5,2.5
				h36.767c1.378,0,2.5-1.121,2.5-2.5V17.211c0-1.379-1.122-2.5-2.5-2.5H13.617z"/>
		</g>
		<g>
			<path d="M53.383,41.469H10.617c-0.276,0-0.5-0.224-0.5-0.5s0.224-0.5,0.5-0.5h42.767c0.276,0,0.5,0.224,0.5,0.5
				S53.66,41.469,53.383,41.469z"/>
		</g>
		<g>
			<g>
				<path d="M23.491,50.414c-0.107,0-0.214-0.034-0.306-0.104c-0.218-0.169-0.258-0.483-0.089-0.701l4.353-5.621
					c0.17-0.219,0.483-0.258,0.702-0.09c0.218,0.169,0.258,0.483,0.089,0.701l-4.353,5.621
					C23.788,50.348,23.64,50.414,23.491,50.414z"/>
			</g>
			<g>
				<path d="M40.511,50.414c-0.149,0-0.297-0.066-0.396-0.193L35.761,44.6c-0.169-0.219-0.129-0.533,0.089-0.702
					c0.219-0.168,0.532-0.128,0.702,0.089l4.354,5.621c0.169,0.219,0.129,0.533-0.089,0.702
					C40.725,50.38,40.618,50.414,40.511,50.414z"/>
			</g>
		</g>
		<g>
			<path d="M43.874,50.811H20.125c-0.276,0-0.5-0.224-0.5-0.5s0.224-0.5,0.5-0.5h23.749c0.276,0,0.5,0.224,0.5,0.5
				S44.15,50.811,43.874,50.811z"/>
		</g>
	</g>
	<g>
		<g>
			<path fill="none" stroke="#000000" stroke-linecap="round" stroke-linejoin="round" stroke-miterlimit="10" d="M32,39.346"/>
			<path fill="none" stroke="#000000" stroke-linecap="round" stroke-linejoin="round" stroke-miterlimit="10" d="M27.004,30.828
				C29.32,33.9,32,37.426,32,37.426s8.056-10.59,8.299-11.062l0.021-0.031h-0.008c0.318-0.629,0.502-1.338,0.502-2.092
				c0-2.586-2.118-4.684-4.73-4.684c-1.744,0-3.263,1.381-4.084,2.771c-0.82-1.391-2.339-2.771-4.083-2.771
				c-2.614,0-4.73,2.098-4.73,4.684c0,0.754,0.183,1.463,0.5,2.092h-0.008l0.022,0.031c0.055,0.105,0.505,0.723,1.17,1.619"/>
		</g>
		<polyline fill="none" stroke="#000000" stroke-linecap="round" stroke-linejoin="round" stroke-miterlimit="10" points="
			23.355,29.375 29.187,29.375 30.271,27.369 31.219,32.33 32.4,24.354 33.619,31.264 34.438,29.311 36.181,29.311 		"/>
	</g>
</g>
</svg>
