<?xml version="1.0" encoding="utf-8"?>
<!-- Generator: Adobe Illustrator 16.0.0, SVG Export Plug-In . SVG Version: 6.00 Build 0)  -->
<!DOCTYPE svg PUBLIC "-//W3C//DTD SVG 1.1//EN" "http://www.w3.org/Graphics/SVG/1.1/DTD/svg11.dtd">
<svg version="1.1" id="Layer_1" xmlns="http://www.w3.org/2000/svg" xmlns:xlink="http://www.w3.org/1999/xlink" x="0px" y="0px"
	 width="64px" height="64px" viewBox="0 0 64 64" enable-background="new 0 0 64 64" xml:space="preserve">
<g>
	<g>
		<g>
			<path d="M50.383,44.406H13.617c-1.93,0-3.5-1.57-3.5-3.5v-24.09c0-1.93,1.57-3.5,3.5-3.5h36.766c1.93,0,3.5,1.57,3.5,3.5v24.09
				C53.883,42.836,52.312,44.406,50.383,44.406z M13.617,14.316c-1.378,0-2.5,1.121-2.5,2.5v24.09c0,1.379,1.122,2.5,2.5,2.5h36.766
				c1.378,0,2.5-1.121,2.5-2.5v-24.09c0-1.379-1.122-2.5-2.5-2.5H13.617z"/>
		</g>
		<g>
			<path d="M57.237,51.207c-0.007,0-0.013,0-0.02,0H6.783c-0.195,0-0.372-0.113-0.454-0.289c-0.082-0.177-0.054-0.385,0.071-0.533
				l3.742-4.434c0.095-0.113,0.235-0.178,0.382-0.178h42.949c0.147,0,0.287,0.064,0.382,0.178l3.671,4.35
				c0.126,0.091,0.209,0.238,0.209,0.406C57.737,50.983,57.513,51.207,57.237,51.207z M7.859,50.207h48.281l-2.898-3.434H10.758
				L7.859,50.207z"/>
		</g>
		<g>
			<path d="M53.383,41.074H10.617c-0.276,0-0.5-0.224-0.5-0.5s0.224-0.5,0.5-0.5h42.766c0.276,0,0.5,0.224,0.5,0.5
				S53.659,41.074,53.383,41.074z"/>
		</g>
	</g>
	<g>
		<g>
			<path fill="none" stroke="#000000" stroke-linecap="round" stroke-linejoin="round" stroke-miterlimit="10" d="M32,38.951"/>
			<path fill="none" stroke="#000000" stroke-linecap="round" stroke-linejoin="round" stroke-miterlimit="10" d="M26.88,30.223
				c2.373,3.148,5.12,6.764,5.12,6.764s8.256-10.857,8.505-11.34l0.023-0.033H40.52c0.326-0.645,0.514-1.369,0.514-2.143
				c0-2.652-2.169-4.803-4.849-4.803c-1.787,0-3.345,1.416-4.185,2.844c-0.842-1.428-2.397-2.844-4.186-2.844
				c-2.678,0-4.85,2.15-4.85,4.803c0,0.773,0.189,1.498,0.514,2.143h-0.007l0.022,0.033c0.056,0.107,0.519,0.742,1.2,1.66"/>
		</g>
		<polyline fill="none" stroke="#000000" stroke-linecap="round" stroke-linejoin="round" stroke-miterlimit="10" points="
			23.139,28.734 29.116,28.734 30.228,26.68 31.198,31.76 32.41,23.586 33.659,30.672 34.498,28.666 36.285,28.666 		"/>
	</g>
</g>
</svg>
