<?xml version="1.0" encoding="utf-8"?>
<!-- Generator: Adobe Illustrator 16.0.0, SVG Export Plug-In . SVG Version: 6.00 Build 0)  -->
<!DOCTYPE svg PUBLIC "-//W3C//DTD SVG 1.1//EN" "http://www.w3.org/Graphics/SVG/1.1/DTD/svg11.dtd">
<svg version="1.1" id="Layer_1" xmlns="http://www.w3.org/2000/svg" xmlns:xlink="http://www.w3.org/1999/xlink" x="0px" y="0px"
	 width="64px" height="64px" viewBox="0 0 64 64" enable-background="new 0 0 64 64" xml:space="preserve">
<g>
	<g>
		<g>
			<path d="M36.146,44.686H25.574c-3.033,0-5.5-2.468-5.5-5.5V25.334c0-3.032,2.467-5.5,5.5-5.5h10.572c3.033,0,5.5,2.468,5.5,5.5
				v13.852C41.646,42.218,39.179,44.686,36.146,44.686z M25.574,20.834c-2.481,0-4.5,2.019-4.5,4.5v13.852
				c0,2.481,2.019,4.5,4.5,4.5h10.572c2.481,0,4.5-2.019,4.5-4.5V25.334c0-2.481-2.019-4.5-4.5-4.5H25.574z"/>
		</g>
		<g>
			<path d="M43.426,29.98c-0.276,0-0.5-0.224-0.5-0.5V25.52c0-0.276,0.224-0.5,0.5-0.5s0.5,0.224,0.5,0.5v3.961
				C43.926,29.757,43.702,29.98,43.426,29.98z"/>
		</g>
		<g>
			<path d="M37.344,18.5c-0.276,0-0.5-0.224-0.5-0.5v-3.676c0-0.827-0.673-1.5-1.5-1.5h-8.967c-0.827,0-1.5,0.673-1.5,1.5V18
				c0,0.276-0.224,0.5-0.5,0.5s-0.5-0.224-0.5-0.5v-3.676c0-1.379,1.122-2.5,2.5-2.5h8.967c1.378,0,2.5,1.121,2.5,2.5V18
				C37.844,18.276,37.62,18.5,37.344,18.5z"/>
		</g>
		<g>
			<path d="M35.344,52.695h-8.967c-1.378,0-2.5-1.121-2.5-2.5V46.52c0-0.276,0.224-0.5,0.5-0.5s0.5,0.224,0.5,0.5v3.676
				c0,0.827,0.673,1.5,1.5,1.5h8.967c0.827,0,1.5-0.673,1.5-1.5V46.52c0-0.276,0.224-0.5,0.5-0.5s0.5,0.224,0.5,0.5v3.676
				C37.844,51.574,36.722,52.695,35.344,52.695z"/>
		</g>
	</g>
	<g>
		<g>
			<path fill="none" stroke="#000000" stroke-linecap="round" stroke-linejoin="round" stroke-miterlimit="10" d="M30.859,40.68"/>
			<path fill="none" stroke="#000000" stroke-linecap="round" stroke-linejoin="round" stroke-miterlimit="10" d="M27.089,34.252
				c1.748,2.32,3.771,4.98,3.771,4.98s6.083-7.996,6.266-8.354l0.017-0.021h-0.006c0.241-0.477,0.378-1.012,0.378-1.578
				c0-1.953-1.597-3.537-3.57-3.537c-1.317,0-2.463,1.041-3.084,2.092c-0.62-1.051-1.765-2.092-3.083-2.092
				c-1.972,0-3.571,1.584-3.571,3.537c0,0.566,0.139,1.102,0.379,1.578h-0.006l0.017,0.021"/>
		</g>
		<polyline fill="none" stroke="#000000" stroke-linecap="round" stroke-linejoin="round" stroke-miterlimit="10" points="
			24.335,32.596 28.736,32.596 29.555,31.082 30.271,34.826 31.162,29.922 32.081,34.023 32.701,32.547 34.017,32.547 		"/>
	</g>
</g>
</svg>
