<?xml version="1.0" encoding="utf-8"?>
<!-- Generator: Adobe Illustrator 16.0.0, SVG Export Plug-In . SVG Version: 6.00 Build 0)  -->
<!DOCTYPE svg PUBLIC "-//W3C//DTD SVG 1.1//EN" "http://www.w3.org/Graphics/SVG/1.1/DTD/svg11.dtd">
<svg version="1.1" id="Layer_1" xmlns="http://www.w3.org/2000/svg" xmlns:xlink="http://www.w3.org/1999/xlink" x="0px" y="0px"
	 width="64px" height="64px" viewBox="0 0 64 64" enable-background="new 0 0 64 64" xml:space="preserve">
<g>
	<g>
		<path d="M40.461,56.543H23.539c-1.93,0-3.5-1.57-3.5-3.5V11.477c0-1.93,1.57-3.5,3.5-3.5h16.923c1.93,0,3.5,1.57,3.5,3.5v41.566
			C43.961,54.973,42.391,56.543,40.461,56.543z M23.539,8.977c-1.378,0-2.5,1.121-2.5,2.5v41.566c0,1.379,1.122,2.5,2.5,2.5h16.923
			c1.378,0,2.5-1.121,2.5-2.5V11.477c0-1.379-1.122-2.5-2.5-2.5H23.539z"/>
	</g>
	<g>
		<path d="M43.132,47.855H20.867c-0.276,0-0.5-0.224-0.5-0.5s0.224-0.5,0.5-0.5h22.265c0.276,0,0.5,0.224,0.5,0.5
			S43.408,47.855,43.132,47.855z"/>
	</g>
	<g>
		<path d="M33.292,51.85c0,0.717-0.58,1.293-1.292,1.293c-0.713,0-1.293-0.576-1.293-1.293c0-0.709,0.58-1.291,1.293-1.291
			C32.712,50.559,33.292,51.141,33.292,51.85z"/>
	</g>
	<g>
		<g>
			<path fill="none" stroke="#000000" stroke-linecap="round" stroke-linejoin="round" stroke-miterlimit="10" d="M32,38.502"/>
		</g>
		<g>
			<path d="M32,37.361L32,37.361c-0.156,0-0.304-0.073-0.398-0.197c0,0-2.293-3.017-4.274-5.646c-0.166-0.221-0.122-0.534,0.099-0.7
				c0.221-0.164,0.535-0.121,0.7,0.099c1.479,1.963,3.132,4.143,3.874,5.119c2.682-3.529,6.399-8.449,6.656-8.873
				c0.003-0.006,0.005-0.012,0.008-0.018c0.25-0.496,0.376-1.021,0.376-1.562c0-1.936-1.592-3.51-3.548-3.51
				c-1.333,0-2.482,1.146-3.062,2.127c-0.181,0.305-0.681,0.305-0.861,0c-0.58-0.981-1.729-2.127-3.063-2.127
				c-1.956,0-3.547,1.574-3.547,3.51c0,0.542,0.126,1.067,0.375,1.562c0.047,0.094,0.063,0.198,0.048,0.299
				c-0.016,0.133-0.082,0.259-0.196,0.342c-0.223,0.165-0.525,0.128-0.689-0.096c-0.022-0.03-0.041-0.062-0.055-0.096H24.44
				c-0.319-0.636-0.481-1.312-0.481-2.012c0-2.486,2.04-4.51,4.547-4.51c1.459,0,2.691,0.938,3.494,1.982
				c0.803-1.045,2.034-1.982,3.493-1.982c2.508,0,4.548,2.023,4.548,4.51c0,0.673-0.151,1.326-0.448,1.941
				c-0.016,0.05-0.04,0.098-0.071,0.141c-0.188,0.372-5.5,7.366-7.124,9.5C32.303,37.288,32.156,37.361,32,37.361z"/>
		</g>
	</g>
	<g>
		<path d="M31.332,32.367c-0.24,0-0.446-0.17-0.491-0.406l-0.547-2.863l-0.26,0.481c-0.087,0.162-0.256,0.263-0.44,0.263h-4.988
			c-0.276,0-0.5-0.224-0.5-0.5s0.224-0.5,0.5-0.5h4.69l0.785-1.456c0.1-0.186,0.304-0.289,0.516-0.257
			c0.209,0.032,0.375,0.192,0.415,0.4l0.308,1.61l0.531-2.919c0.042-0.233,0.244-0.405,0.481-0.41
			c0.225-0.012,0.446,0.158,0.498,0.391l0.7,3.117l0.095-0.227c0.078-0.186,0.259-0.307,0.461-0.307h1.491
			c0.276,0,0.5,0.224,0.5,0.5s-0.224,0.5-0.5,0.5h-1.158l-0.573,1.365c-0.084,0.2-0.294,0.318-0.505,0.305
			c-0.217-0.02-0.396-0.177-0.444-0.389l-0.503-2.243l-0.57,3.134c-0.043,0.236-0.249,0.409-0.489,0.41
			C31.333,32.367,31.333,32.367,31.332,32.367z"/>
	</g>
</g>
</svg>
