<?xml version="1.0" encoding="utf-8"?>
<!-- Generator: Adobe Illustrator 16.0.0, SVG Export Plug-In . SVG Version: 6.00 Build 0)  -->
<!DOCTYPE svg PUBLIC "-//W3C//DTD SVG 1.1//EN" "http://www.w3.org/Graphics/SVG/1.1/DTD/svg11.dtd">
<svg version="1.1" id="Layer_1" xmlns="http://www.w3.org/2000/svg" xmlns:xlink="http://www.w3.org/1999/xlink" x="0px" y="0px"
	 width="32px" height="32px" viewBox="0 0 32 32" enable-background="new 0 0 32 32" xml:space="preserve">
<g>
	<g>
		<g>
			<g>
				<path d="M21.635,29.937H10.603c-0.704,0-1.279-0.572-1.279-1.278V3.411c0-0.704,0.575-1.277,1.279-1.277h11.032
					c0.705,0,1.278,0.573,1.278,1.277v25.247C22.913,29.364,22.34,29.937,21.635,29.937z M10.603,2.499
					c-0.504,0-0.914,0.409-0.914,0.912v25.247c0,0.505,0.41,0.913,0.914,0.913h11.032c0.503,0,0.913-0.408,0.913-0.913V3.411
					c0-0.503-0.41-0.912-0.913-0.912H10.603z"/>
			</g>
		</g>
		<g>
			<g>
				<path d="M22.54,24.925H9.697c-0.102,0-0.182-0.082-0.182-0.183c0-0.102,0.08-0.182,0.182-0.182H22.54
					c0.101,0,0.182,0.08,0.182,0.182C22.722,24.843,22.641,24.925,22.54,24.925z"/>
			</g>
		</g>
		<g>
			<g>
				<circle cx="16.118" cy="27.335" r="0.746"/>
			</g>
		</g>
		<g>
			<g>
				<path d="M14.208,17.836c-0.029,0-0.058-0.007-0.084-0.022c-0.061-0.031-0.098-0.093-0.098-0.161v-7.268
					c0-0.068,0.037-0.129,0.098-0.161c0.06-0.032,0.132-0.028,0.188,0.012l5.28,3.634c0.049,0.033,0.079,0.091,0.079,0.149
					c0,0.062-0.03,0.117-0.079,0.151l-5.28,3.634C14.28,17.824,14.245,17.836,14.208,17.836z M14.392,10.732v6.572l4.775-3.286
					L14.392,10.732z"/>
			</g>
		</g>
	</g>
</g>
</svg>
