<?xml version="1.0" encoding="utf-8"?>
<!-- Generator: Adobe Illustrator 16.0.0, SVG Export Plug-In . SVG Version: 6.00 Build 0)  -->
<!DOCTYPE svg PUBLIC "-//W3C//DTD SVG 1.1//EN" "http://www.w3.org/Graphics/SVG/1.1/DTD/svg11.dtd">
<svg version="1.1" id="Layer_1" xmlns="http://www.w3.org/2000/svg" xmlns:xlink="http://www.w3.org/1999/xlink" x="0px" y="0px"
	 width="32px" height="32px" viewBox="0 0 32 32" enable-background="new 0 0 32 32" xml:space="preserve">
<g>
	<g>
		<g>
			<g>
				<g>
					<path d="M27.391,22.936H4.914c-0.705,0-1.278-0.573-1.278-1.278V6.491c0-0.704,0.573-1.277,1.278-1.277h22.477
						c0.703,0,1.278,0.573,1.278,1.277v15.166C28.669,22.362,28.094,22.936,27.391,22.936z M4.914,5.579
						c-0.504,0-0.913,0.409-0.913,0.912v15.166c0,0.503,0.409,0.914,0.913,0.914h22.477c0.503,0,0.913-0.411,0.913-0.914V6.491
						c0-0.503-0.41-0.912-0.913-0.912H4.914z"/>
				</g>
			</g>
			<g>
				<g>
					<path d="M30.705,26.857c-0.002,0-0.004,0-0.007,0H1.606c-0.07,0-0.136-0.043-0.166-0.105c-0.03-0.065-0.02-0.142,0.026-0.196
						l2.16-2.557c0.032-0.041,0.084-0.064,0.138-0.064h24.774c0.054,0,0.104,0.023,0.14,0.064l2.132,2.527
						c0.047,0.031,0.076,0.086,0.076,0.148C30.887,26.775,30.807,26.857,30.705,26.857z M1.999,26.492h28.305L28.455,24.3H3.851
						L1.999,26.492z"/>
				</g>
			</g>
			<g>
				<g>
					<path d="M28.485,21.014H3.817c-0.101,0-0.182-0.082-0.182-0.185c0-0.1,0.081-0.182,0.182-0.182h24.668
						c0.102,0,0.184,0.082,0.184,0.182C28.669,20.932,28.587,21.014,28.485,21.014z"/>
				</g>
			</g>
		</g>
		<g>
			<path d="M14.794,17.752c-0.029,0-0.058-0.007-0.085-0.021c-0.061-0.031-0.098-0.093-0.098-0.161V9.738
				c0-0.068,0.037-0.131,0.098-0.162c0.061-0.032,0.133-0.027,0.188,0.012l5.689,3.915c0.05,0.034,0.079,0.091,0.079,0.151
				s-0.029,0.116-0.079,0.15l-5.689,3.916C14.866,17.741,14.829,17.752,14.794,17.752z M14.977,10.086v7.136l5.185-3.567
				L14.977,10.086z"/>
		</g>
	</g>
</g>
</svg>
