<?xml version="1.0" encoding="utf-8"?>
<!-- Generator: Adobe Illustrator 16.0.0, SVG Export Plug-In . SVG Version: 6.00 Build 0)  -->
<!DOCTYPE svg PUBLIC "-//W3C//DTD SVG 1.1//EN" "http://www.w3.org/Graphics/SVG/1.1/DTD/svg11.dtd">
<svg version="1.1" id="Layer_1" xmlns="http://www.w3.org/2000/svg" xmlns:xlink="http://www.w3.org/1999/xlink" x="0px" y="0px"
	 width="32px" height="32px" viewBox="0 0 32 32" enable-background="new 0 0 32 32" xml:space="preserve">
<g>
	<g>
		<g>
			<g>
				<g>
					<path d="M19.677,23.097h-8.214c-1.108,0-2.009-0.901-2.009-2.009V10.982c0-1.107,0.9-2.009,2.009-2.009h8.214
						c1.108,0,2.01,0.901,2.01,2.009v10.105C21.687,22.195,20.785,23.097,19.677,23.097z M11.463,9.339
						c-0.906,0-1.644,0.737-1.644,1.644v10.105c0,0.906,0.737,1.644,1.644,1.644h8.214c0.906,0,1.645-0.737,1.645-1.644V10.982
						c0-0.906-0.738-1.644-1.645-1.644H11.463z"/>
				</g>
			</g>
			<g>
				<g>
					<path d="M22.818,14.613c-0.102,0-0.184-0.081-0.184-0.183v-2.284c0-0.101,0.082-0.184,0.184-0.184S23,12.046,23,12.146v2.284
						C23,14.532,22.92,14.613,22.818,14.613z"/>
				</g>
			</g>
			<g>
				<g>
					<path d="M19.311,7.991c-0.102,0-0.183-0.082-0.183-0.183V5.266c0-0.302-0.246-0.547-0.55-0.547h-6.017
						c-0.301,0-0.548,0.245-0.548,0.547v2.543c0,0.101-0.084,0.183-0.185,0.183s-0.182-0.082-0.182-0.183V5.266
						c0-0.504,0.409-0.914,0.914-0.914h6.017c0.506,0,0.914,0.41,0.914,0.914v2.543C19.492,7.909,19.411,7.991,19.311,7.991z"/>
				</g>
			</g>
			<g>
				<g>
					<path d="M18.578,27.718h-6.017c-0.505,0-0.914-0.41-0.914-0.913v-2.544c0-0.101,0.081-0.183,0.182-0.183
						s0.185,0.082,0.185,0.183v2.544c0,0.301,0.247,0.547,0.548,0.547h6.017c0.304,0,0.55-0.246,0.55-0.547v-2.544
						c0-0.101,0.081-0.183,0.183-0.183c0.101,0,0.182,0.082,0.182,0.183v2.544C19.492,27.308,19.084,27.718,18.578,27.718z"/>
				</g>
			</g>
		</g>
		<g>
			<path d="M14.119,19.219c-0.029,0-0.058-0.008-0.084-0.021c-0.061-0.032-0.098-0.094-0.098-0.162v-6.002
				c0-0.067,0.037-0.131,0.098-0.161c0.061-0.033,0.132-0.027,0.188,0.011l4.36,3.001c0.051,0.033,0.08,0.091,0.08,0.149
				c0,0.062-0.029,0.117-0.08,0.151l-4.36,3C14.191,19.208,14.157,19.219,14.119,19.219z M14.303,13.382v5.308l3.857-2.655
				L14.303,13.382z"/>
		</g>
	</g>
</g>
</svg>
