<?xml version="1.0" encoding="utf-8"?>
<!-- Generator: Adobe Illustrator 16.0.0, SVG Export Plug-In . SVG Version: 6.00 Build 0)  -->
<!DOCTYPE svg PUBLIC "-//W3C//DTD SVG 1.1//EN" "http://www.w3.org/Graphics/SVG/1.1/DTD/svg11.dtd">
<svg version="1.1" id="Layer_1" xmlns="http://www.w3.org/2000/svg" xmlns:xlink="http://www.w3.org/1999/xlink" x="0px" y="0px"
	 width="32px" height="32px" viewBox="0 0 32 32" enable-background="new 0 0 32 32" xml:space="preserve">
<g>
	<g>
		<g>
			<g>
				<g>
					<path d="M27.431,23.164H4.952c-0.704,0-1.277-0.573-1.277-1.278V6.72c0-0.704,0.573-1.278,1.277-1.278h22.479
						c0.702,0,1.276,0.574,1.276,1.278v15.166C28.707,22.591,28.133,23.164,27.431,23.164z M4.952,5.807
						c-0.504,0-0.912,0.41-0.912,0.913v15.166c0,0.504,0.408,0.913,0.912,0.913h22.479c0.501,0,0.912-0.409,0.912-0.913V6.72
						c0-0.503-0.411-0.913-0.912-0.913H4.952z"/>
				</g>
			</g>
			<g>
				<g>
					<path d="M28.525,21.241H3.856c-0.101,0-0.182-0.083-0.182-0.184s0.081-0.183,0.182-0.183h24.669
						c0.101,0,0.182,0.082,0.182,0.183S28.626,21.241,28.525,21.241z"/>
				</g>
			</g>
			<g>
				<g>
					<g>
						<path d="M11.281,26.399c-0.037,0-0.077-0.012-0.111-0.037c-0.078-0.062-0.095-0.177-0.033-0.257l2.512-3.242
							c0.062-0.079,0.177-0.094,0.257-0.032c0.08,0.061,0.095,0.177,0.031,0.258l-2.51,3.24
							C11.391,26.376,11.337,26.399,11.281,26.399z"/>
					</g>
				</g>
				<g>
					<g>
						<path d="M21.1,26.399c-0.055,0-0.108-0.023-0.145-0.07l-2.511-3.24c-0.062-0.081-0.048-0.197,0.032-0.258
							c0.081-0.062,0.193-0.047,0.257,0.032l2.512,3.242c0.061,0.08,0.046,0.194-0.033,0.257
							C21.177,26.388,21.139,26.399,21.1,26.399z"/>
					</g>
				</g>
			</g>
			<g>
				<g>
					<path d="M23.04,26.63H9.341c-0.101,0-0.181-0.082-0.181-0.184c0-0.101,0.08-0.183,0.181-0.183H23.04
						c0.102,0,0.183,0.082,0.183,0.183C23.223,26.548,23.142,26.63,23.04,26.63z"/>
				</g>
			</g>
		</g>
		<g>
			<path d="M14.833,17.752c-0.029,0-0.06-0.007-0.086-0.021c-0.06-0.031-0.097-0.093-0.097-0.161V9.738
				c0-0.068,0.037-0.131,0.097-0.162c0.062-0.032,0.133-0.027,0.189,0.012l5.69,3.915c0.049,0.034,0.078,0.091,0.078,0.151
				s-0.029,0.116-0.078,0.15l-5.69,3.916C14.904,17.741,14.869,17.752,14.833,17.752z M15.016,10.086v7.136l5.185-3.567
				L15.016,10.086z"/>
		</g>
	</g>
</g>
</svg>
