<?xml version="1.0" encoding="utf-8"?>
<!-- Generator: Adobe Illustrator 16.0.0, SVG Export Plug-In . SVG Version: 6.00 Build 0)  -->
<!DOCTYPE svg PUBLIC "-//W3C//DTD SVG 1.1//EN" "http://www.w3.org/Graphics/SVG/1.1/DTD/svg11.dtd">
<svg version="1.1" id="Layer_1" xmlns="http://www.w3.org/2000/svg" xmlns:xlink="http://www.w3.org/1999/xlink" x="0px" y="0px"
	 width="32px" height="32px" viewBox="0 0 32 32" enable-background="new 0 0 32 32" xml:space="preserve">
<g>
	<g>
		<g>
			<g>
				<path d="M25.166,30.484H6.999c-0.706,0-1.279-0.573-1.279-1.279V2.864c0-0.704,0.573-1.278,1.279-1.278h18.167
					c0.705,0,1.278,0.574,1.278,1.278v26.341C26.444,29.911,25.871,30.484,25.166,30.484z M6.999,1.951
					c-0.504,0-0.914,0.41-0.914,0.913v26.341c0,0.504,0.41,0.914,0.914,0.914h18.167c0.503,0,0.913-0.41,0.913-0.914V2.864
					c0-0.503-0.41-0.913-0.913-0.913H6.999z"/>
			</g>
		</g>
		<g>
			<g>
				<circle cx="16.083" cy="28.066" r="0.746"/>
			</g>
		</g>
		<g>
			<g>
				<path d="M26.106,25.534H6.058c-0.1,0-0.182-0.083-0.182-0.183c0-0.102,0.082-0.184,0.182-0.184h20.049
					c0.102,0,0.182,0.082,0.182,0.184C26.288,25.451,26.208,25.534,26.106,25.534z"/>
			</g>
		</g>
		<g>
			<g>
				<path d="M13.309,19.528c-0.029,0-0.058-0.008-0.085-0.021c-0.061-0.032-0.099-0.094-0.099-0.162V8.692
					c0-0.067,0.038-0.131,0.099-0.162c0.06-0.031,0.133-0.027,0.188,0.012l7.741,5.327c0.049,0.033,0.077,0.09,0.077,0.149
					c0,0.062-0.028,0.117-0.077,0.151l-7.741,5.324C13.381,19.518,13.345,19.528,13.309,19.528z M13.49,9.04v9.958l7.235-4.979
					L13.49,9.04z"/>
			</g>
		</g>
	</g>
</g>
</svg>
