<?xml version="1.0" encoding="utf-8"?>
<!-- Generator: Adobe Illustrator 16.0.0, SVG Export Plug-In . SVG Version: 6.00 Build 0)  -->
<!DOCTYPE svg PUBLIC "-//W3C//DTD SVG 1.1//EN" "http://www.w3.org/Graphics/SVG/1.1/DTD/svg11.dtd">
<svg version="1.1" id="Layer_1" xmlns="http://www.w3.org/2000/svg" xmlns:xlink="http://www.w3.org/1999/xlink" x="0px" y="0px"
	 width="32px" height="32px" viewBox="0 0 32 32" enable-background="new 0 0 32 32" xml:space="preserve">
<g>
	<g>
		<g>
			<g>
				<path d="M25.166,30.658H6.999c-0.706,0-1.279-0.573-1.279-1.279V3.038c0-0.705,0.573-1.278,1.279-1.278h18.167
					c0.705,0,1.278,0.573,1.278,1.278v26.341C26.444,30.085,25.871,30.658,25.166,30.658z M6.999,2.124
					c-0.504,0-0.914,0.41-0.914,0.914v26.341c0,0.504,0.41,0.914,0.914,0.914h18.167c0.503,0,0.913-0.41,0.913-0.914V3.038
					c0-0.504-0.41-0.914-0.913-0.914H6.999z"/>
			</g>
		</g>
		<g>
			<g>
				<circle cx="16.083" cy="28.24" r="0.746"/>
			</g>
		</g>
		<g>
			<g>
				<path d="M26.106,25.707H6.058c-0.1,0-0.182-0.082-0.182-0.183s0.082-0.183,0.182-0.183h20.049c0.102,0,0.182,0.082,0.182,0.183
					S26.208,25.707,26.106,25.707z"/>
			</g>
		</g>
		<g>
			<g>
				<path d="M16.082,21.701c-0.022,0-0.048-0.003-0.069-0.015c-0.068-0.026-0.113-0.093-0.113-0.168v-7.246l-3.53,3.533
					c-0.072,0.071-0.188,0.071-0.26,0c-0.071-0.073-0.071-0.188,0-0.259l3.79-3.79v-0.105l-3.79-3.79
					c-0.071-0.072-0.071-0.187,0-0.258c0.071-0.07,0.188-0.07,0.26,0l3.53,3.53V5.89c0-0.073,0.045-0.14,0.113-0.169
					c0.067-0.026,0.146-0.013,0.2,0.04l3.842,3.843c0.034,0.032,0.054,0.08,0.054,0.13c0,0.048-0.02,0.094-0.054,0.128l-3.79,3.79
					v0.105l3.79,3.79c0.034,0.034,0.054,0.08,0.054,0.129c0,0.05-0.02,0.095-0.054,0.13l-3.842,3.843
					C16.176,21.685,16.13,21.701,16.082,21.701z M16.265,14.272v6.806l3.403-3.402L16.265,14.272z M16.265,6.331v6.803l3.403-3.4
					L16.265,6.331z"/>
			</g>
		</g>
	</g>
</g>
</svg>
