<?xml version="1.0" encoding="utf-8"?>
<!-- Generator: Adobe Illustrator 16.0.0, SVG Export Plug-In . SVG Version: 6.00 Build 0)  -->
<!DOCTYPE svg PUBLIC "-//W3C//DTD SVG 1.1//EN" "http://www.w3.org/Graphics/SVG/1.1/DTD/svg11.dtd">
<svg version="1.1" id="Layer_1" xmlns="http://www.w3.org/2000/svg" xmlns:xlink="http://www.w3.org/1999/xlink" x="0px" y="0px"
	 width="32px" height="32px" viewBox="0 0 32 32" enable-background="new 0 0 32 32" xml:space="preserve">
<g>
	<g>
		<g>
			<g>
				<g>
					<path d="M19.677,23.271h-8.214c-1.108,0-2.009-0.903-2.009-2.009V11.157c0-1.108,0.9-2.01,2.009-2.01h8.214
						c1.108,0,2.01,0.901,2.01,2.01v10.105C21.687,22.368,20.785,23.271,19.677,23.271z M11.463,9.512
						c-0.906,0-1.644,0.737-1.644,1.646v10.105c0,0.905,0.737,1.643,1.644,1.643h8.214c0.906,0,1.645-0.737,1.645-1.643V11.157
						c0-0.908-0.738-1.646-1.645-1.646H11.463z"/>
				</g>
			</g>
			<g>
				<g>
					<path d="M22.818,14.788c-0.102,0-0.184-0.083-0.184-0.184V12.32c0-0.102,0.082-0.184,0.184-0.184S23,12.219,23,12.32v2.284
						C23,14.705,22.92,14.788,22.818,14.788z"/>
				</g>
			</g>
			<g>
				<g>
					<path d="M19.311,8.165c-0.102,0-0.183-0.082-0.183-0.182V5.44c0-0.303-0.246-0.548-0.55-0.548h-6.017
						c-0.301,0-0.548,0.245-0.548,0.548v2.543c0,0.1-0.084,0.182-0.185,0.182s-0.182-0.082-0.182-0.182V5.44
						c0-0.505,0.409-0.915,0.914-0.915h6.017c0.506,0,0.914,0.41,0.914,0.915v2.543C19.492,8.083,19.411,8.165,19.311,8.165z"/>
				</g>
			</g>
			<g>
				<g>
					<path d="M18.578,27.891h-6.017c-0.505,0-0.914-0.408-0.914-0.912v-2.546c0-0.099,0.081-0.181,0.182-0.181
						s0.185,0.082,0.185,0.181v2.546c0,0.301,0.247,0.546,0.548,0.546h6.017c0.304,0,0.55-0.245,0.55-0.546v-2.546
						c0-0.099,0.081-0.181,0.183-0.181c0.101,0,0.182,0.082,0.182,0.181v2.546C19.492,27.482,19.084,27.891,18.578,27.891z"/>
				</g>
			</g>
		</g>
		<g>
			<path d="M15.57,20.404c-0.023,0-0.047-0.005-0.07-0.014c-0.067-0.028-0.112-0.096-0.112-0.167v-3.509l-1.663,1.662
				c-0.069,0.072-0.186,0.072-0.257,0c-0.072-0.071-0.072-0.187,0-0.257l1.91-1.912l-1.91-1.911c-0.072-0.07-0.072-0.188,0-0.257
				c0.071-0.071,0.188-0.071,0.257,0l1.663,1.663v-3.51c0-0.071,0.045-0.138,0.112-0.168c0.068-0.026,0.148-0.012,0.2,0.04
				l1.973,1.975c0.034,0.034,0.053,0.08,0.053,0.128c0,0.049-0.019,0.095-0.053,0.129l-1.911,1.911l1.911,1.912
				c0.072,0.07,0.072,0.186,0,0.257L15.7,20.351C15.665,20.387,15.617,20.404,15.57,20.404z M15.754,16.715v3.066l1.531-1.533
				L15.754,16.715z M15.754,12.635v3.068l1.531-1.535L15.754,12.635z"/>
		</g>
	</g>
</g>
</svg>
