<?xml version="1.0" encoding="utf-8"?>
<!-- Generator: Adobe Illustrator 16.0.0, SVG Export Plug-In . SVG Version: 6.00 Build 0)  -->
<!DOCTYPE svg PUBLIC "-//W3C//DTD SVG 1.1//EN" "http://www.w3.org/Graphics/SVG/1.1/DTD/svg11.dtd">
<svg version="1.1" id="Layer_1" xmlns="http://www.w3.org/2000/svg" xmlns:xlink="http://www.w3.org/1999/xlink" x="0px" y="0px"
	 width="32px" height="32px" viewBox="0 0 32 32" enable-background="new 0 0 32 32" xml:space="preserve">
<g>
	<g>
		<g>
			<g>
				<g>
					<path d="M27.431,23.34H4.952c-0.704,0-1.277-0.576-1.277-1.281V6.893c0-0.704,0.573-1.276,1.277-1.276h22.479
						c0.702,0,1.276,0.572,1.276,1.276v15.166C28.707,22.764,28.133,23.34,27.431,23.34z M4.952,5.979
						c-0.504,0-0.912,0.41-0.912,0.913v15.166c0,0.505,0.408,0.915,0.912,0.915h22.479c0.501,0,0.912-0.41,0.912-0.915V6.893
						c0-0.503-0.411-0.913-0.912-0.913H4.952z"/>
				</g>
			</g>
			<g>
				<g>
					<path d="M28.525,21.415H3.856c-0.101,0-0.182-0.083-0.182-0.184c0-0.1,0.081-0.184,0.182-0.184h24.669
						c0.101,0,0.182,0.084,0.182,0.184C28.707,21.332,28.626,21.415,28.525,21.415z"/>
				</g>
			</g>
			<g>
				<g>
					<g>
						<path d="M11.281,26.573c-0.037,0-0.077-0.013-0.111-0.037c-0.078-0.063-0.095-0.177-0.033-0.256l2.512-3.245
							c0.062-0.076,0.177-0.092,0.257-0.03c0.08,0.061,0.095,0.176,0.031,0.257l-2.51,3.24
							C11.391,26.55,11.337,26.573,11.281,26.573z"/>
					</g>
				</g>
				<g>
					<g>
						<path d="M21.1,26.573c-0.055,0-0.108-0.023-0.145-0.071l-2.511-3.24c-0.062-0.081-0.048-0.196,0.032-0.257
							c0.081-0.062,0.193-0.048,0.257,0.03l2.512,3.245c0.061,0.079,0.046,0.192-0.033,0.256
							C21.177,26.561,21.139,26.573,21.1,26.573z"/>
					</g>
				</g>
			</g>
			<g>
				<g>
					<path d="M23.04,26.804H9.341c-0.101,0-0.181-0.082-0.181-0.184s0.08-0.182,0.181-0.182H23.04c0.102,0,0.183,0.08,0.183,0.182
						S23.142,26.804,23.04,26.804z"/>
				</g>
			</g>
		</g>
		<g>
			<path d="M16.191,18.684c-0.023,0-0.047-0.003-0.071-0.014c-0.066-0.027-0.112-0.094-0.112-0.167v-4.277l-2.047,2.047
				c-0.072,0.071-0.187,0.071-0.259,0c-0.073-0.071-0.073-0.188,0-0.259l2.306-2.313l-2.306-2.306c-0.073-0.071-0.073-0.187,0-0.258
				c0.072-0.071,0.187-0.071,0.259,0l2.047,2.048V8.907c0-0.074,0.046-0.142,0.112-0.169c0.069-0.028,0.146-0.012,0.2,0.039
				l2.359,2.359c0.035,0.033,0.054,0.08,0.054,0.129s-0.019,0.095-0.054,0.129l-2.307,2.313l2.307,2.306
				c0.072,0.07,0.072,0.188,0,0.259l-2.359,2.359C16.286,18.665,16.237,18.684,16.191,18.684z M16.373,14.226v3.837l1.919-1.92
				L16.373,14.226z M16.373,9.348v3.837l1.919-1.919L16.373,9.348z"/>
		</g>
	</g>
</g>
</svg>
