<?xml version="1.0" encoding="utf-8"?>
<!-- Generator: Adobe Illustrator 16.0.0, SVG Export Plug-In . SVG Version: 6.00 Build 0)  -->
<!DOCTYPE svg PUBLIC "-//W3C//DTD SVG 1.1//EN" "http://www.w3.org/Graphics/SVG/1.1/DTD/svg11.dtd">
<svg version="1.1" id="Layer_1" xmlns="http://www.w3.org/2000/svg" xmlns:xlink="http://www.w3.org/1999/xlink" x="0px" y="0px"
	 width="32px" height="32px" viewBox="0 0 32 32" enable-background="new 0 0 32 32" xml:space="preserve">
<g>
	<g>
		<g>
			<g>
				<circle cx="16.118" cy="27.509" r="0.746"/>
			</g>
		</g>
		<g>
			<g>
				<path d="M21.635,30.111H10.603c-0.704,0-1.279-0.574-1.279-1.279V3.586c0-0.706,0.575-1.278,1.279-1.278h11.032
					c0.705,0,1.278,0.572,1.278,1.278v25.246C22.913,29.537,22.34,30.111,21.635,30.111z M10.603,2.673
					c-0.504,0-0.914,0.408-0.914,0.913v25.246c0,0.505,0.41,0.913,0.914,0.913h11.032c0.503,0,0.913-0.408,0.913-0.913V3.586
					c0-0.505-0.41-0.913-0.913-0.913H10.603z"/>
			</g>
		</g>
		<g>
			<g>
				<path d="M22.54,25.098H9.697c-0.102,0-0.182-0.081-0.182-0.183c0-0.103,0.08-0.182,0.182-0.182H22.54
					c0.101,0,0.182,0.079,0.182,0.182C22.722,25.017,22.641,25.098,22.54,25.098z"/>
			</g>
		</g>
		<g>
			<g>
				<path d="M16.118,19.767c-0.024,0-0.047-0.003-0.07-0.015c-0.066-0.027-0.113-0.093-0.113-0.167v-5.344l-2.579,2.581
					c-0.07,0.071-0.187,0.071-0.259,0c-0.07-0.072-0.07-0.188,0-0.26l2.838-2.838v-0.042l-2.838-2.838
					c-0.07-0.071-0.07-0.187,0-0.257c0.072-0.072,0.188-0.072,0.259,0l2.579,2.579V7.825c0-0.074,0.047-0.142,0.113-0.169
					c0.068-0.028,0.146-0.013,0.198,0.038l2.893,2.894c0.034,0.032,0.054,0.079,0.054,0.129c0,0.049-0.02,0.094-0.054,0.128
					l-2.838,2.838v0.042l2.838,2.838c0.034,0.035,0.054,0.082,0.054,0.13c0,0.049-0.02,0.096-0.054,0.13l-2.893,2.891
					C16.214,19.748,16.165,19.767,16.118,19.767z M16.301,14.241v4.902l2.45-2.451L16.301,14.241z M16.301,8.267v4.9l2.45-2.45
					L16.301,8.267z"/>
			</g>
		</g>
	</g>
</g>
</svg>
