<?xml version="1.0" encoding="utf-8"?>
<!-- Generator: Adobe Illustrator 16.0.0, SVG Export Plug-In . SVG Version: 6.00 Build 0)  -->
<!DOCTYPE svg PUBLIC "-//W3C//DTD SVG 1.1//EN" "http://www.w3.org/Graphics/SVG/1.1/DTD/svg11.dtd">
<svg version="1.1" id="Layer_1" xmlns="http://www.w3.org/2000/svg" xmlns:xlink="http://www.w3.org/1999/xlink" x="0px" y="0px"
	 width="32px" height="32px" viewBox="0 0 32 32" enable-background="new 0 0 32 32" xml:space="preserve">
<g>
	<g>
		<g>
			<g>
				<g>
					<path d="M27.391,23.108H4.914c-0.705,0-1.278-0.572-1.278-1.276V6.666c0-0.705,0.573-1.279,1.278-1.279h22.477
						c0.703,0,1.278,0.574,1.278,1.279v15.166C28.669,22.536,28.094,23.108,27.391,23.108z M4.914,5.753
						c-0.504,0-0.913,0.408-0.913,0.913v15.166c0,0.502,0.409,0.912,0.913,0.912h22.477c0.503,0,0.913-0.41,0.913-0.912V6.666
						c0-0.505-0.41-0.913-0.913-0.913H4.914z"/>
				</g>
			</g>
			<g>
				<g>
					<path d="M30.705,27.031c-0.002,0-0.004,0-0.007,0H1.606c-0.07,0-0.136-0.043-0.166-0.105c-0.03-0.066-0.02-0.142,0.026-0.196
						l2.16-2.557c0.032-0.041,0.084-0.064,0.138-0.064h24.774c0.054,0,0.104,0.023,0.14,0.064l2.132,2.526
						c0.047,0.033,0.076,0.086,0.076,0.148C30.887,26.948,30.807,27.031,30.705,27.031z M1.999,26.665h28.305l-1.849-2.19H3.851
						L1.999,26.665z"/>
				</g>
			</g>
			<g>
				<g>
					<path d="M28.485,21.186H3.817c-0.101,0-0.182-0.081-0.182-0.183c0-0.101,0.081-0.182,0.182-0.182h24.668
						c0.102,0,0.184,0.081,0.184,0.182C28.669,21.104,28.587,21.186,28.485,21.186z"/>
				</g>
			</g>
		</g>
		<g>
			<path d="M16.152,18.684c-0.023,0-0.048-0.003-0.07-0.014c-0.068-0.027-0.113-0.094-0.113-0.167v-4.277l-2.048,2.047
				c-0.07,0.071-0.187,0.071-0.257,0c-0.073-0.071-0.073-0.188,0-0.259l2.305-2.313l-2.305-2.306c-0.073-0.071-0.073-0.187,0-0.258
				c0.07-0.071,0.187-0.071,0.257,0l2.048,2.048V8.907c0-0.074,0.045-0.142,0.113-0.169c0.067-0.028,0.146-0.012,0.198,0.039
				l2.36,2.359c0.035,0.033,0.054,0.08,0.054,0.129s-0.019,0.095-0.054,0.129l-2.306,2.313l2.306,2.306
				c0.071,0.07,0.071,0.188,0,0.259l-2.36,2.359C16.247,18.665,16.199,18.684,16.152,18.684z M16.335,14.226v3.837l1.918-1.92
				L16.335,14.226z M16.335,9.348v3.837l1.918-1.919L16.335,9.348z"/>
		</g>
	</g>
</g>
</svg>
