<?xml version="1.0" encoding="utf-8"?>
<!-- Generator: Adobe Illustrator 16.0.0, SVG Export Plug-In . SVG Version: 6.00 Build 0)  -->
<!DOCTYPE svg PUBLIC "-//W3C//DTD SVG 1.1//EN" "http://www.w3.org/Graphics/SVG/1.1/DTD/svg11.dtd">
<svg version="1.1" id="Layer_1" xmlns="http://www.w3.org/2000/svg" xmlns:xlink="http://www.w3.org/1999/xlink" x="0px" y="0px"
	 width="64px" height="64px" viewBox="0 0 64 64" enable-background="new 0 0 64 64" xml:space="preserve">
<g>
	<g>
		<path d="M46.647,57.493H17.353c-1.93,0-3.5-1.57-3.5-3.5V10.527c0-1.93,1.57-3.5,3.5-3.5h29.295c1.93,0,3.5,1.57,3.5,3.5v43.466
			C50.147,55.922,48.577,57.493,46.647,57.493z M17.353,8.027c-1.378,0-2.5,1.122-2.5,2.5v43.466c0,1.378,1.122,2.5,2.5,2.5h29.295
			c1.378,0,2.5-1.122,2.5-2.5V10.527c0-1.378-1.122-2.5-2.5-2.5H17.353z"/>
	</g>
	<g>
		<circle cx="32" cy="53.117" r="1.292"/>
	</g>
	<g>
		<path d="M49.379,48.91H14.621c-0.276,0-0.5-0.224-0.5-0.5s0.224-0.5,0.5-0.5h34.758c0.276,0,0.5,0.224,0.5,0.5
			S49.655,48.91,49.379,48.91z"/>
	</g>
</g>
</svg>
