<?xml version="1.0" encoding="utf-8"?>
<!-- Generator: Adobe Illustrator 16.0.0, SVG Export Plug-In . SVG Version: 6.00 Build 0)  -->
<!DOCTYPE svg PUBLIC "-//W3C//DTD SVG 1.1//EN" "http://www.w3.org/Graphics/SVG/1.1/DTD/svg11.dtd">
<svg version="1.1" id="Layer_1" xmlns="http://www.w3.org/2000/svg" xmlns:xlink="http://www.w3.org/1999/xlink" x="0px" y="0px"
	 width="64px" height="64px" viewBox="0 0 64 64" enable-background="new 0 0 64 64" xml:space="preserve">
<g>
	<g>
		<path d="M36.146,44.685H25.574c-3.033,0-5.5-2.467-5.5-5.5V25.333c0-3.033,2.467-5.5,5.5-5.5h10.572c3.033,0,5.5,2.467,5.5,5.5
			v13.852C41.646,42.218,39.179,44.685,36.146,44.685z M25.574,20.833c-2.481,0-4.5,2.019-4.5,4.5v13.852c0,2.481,2.019,4.5,4.5,4.5
			h10.572c2.481,0,4.5-2.019,4.5-4.5V25.333c0-2.481-2.019-4.5-4.5-4.5H25.574z"/>
	</g>
	<g>
		<path d="M43.426,29.979c-0.276,0-0.5-0.224-0.5-0.5v-3.962c0-0.276,0.224-0.5,0.5-0.5s0.5,0.224,0.5,0.5v3.962
			C43.926,29.756,43.702,29.979,43.426,29.979z"/>
	</g>
	<g>
		<path d="M37.344,18.5c-0.276,0-0.5-0.224-0.5-0.5v-3.677c0-0.827-0.673-1.5-1.5-1.5h-8.967c-0.827,0-1.5,0.673-1.5,1.5V18
			c0,0.276-0.224,0.5-0.5,0.5s-0.5-0.224-0.5-0.5v-3.677c0-1.378,1.122-2.5,2.5-2.5h8.967c1.378,0,2.5,1.122,2.5,2.5V18
			C37.844,18.276,37.62,18.5,37.344,18.5z"/>
	</g>
	<g>
		<path d="M35.344,52.696h-8.967c-1.378,0-2.5-1.122-2.5-2.5V46.52c0-0.276,0.224-0.5,0.5-0.5s0.5,0.224,0.5,0.5v3.676
			c0,0.827,0.673,1.5,1.5,1.5h8.967c0.827,0,1.5-0.673,1.5-1.5V46.52c0-0.276,0.224-0.5,0.5-0.5s0.5,0.224,0.5,0.5v3.676
			C37.844,51.574,36.722,52.696,35.344,52.696z"/>
	</g>
</g>
</svg>
