<?xml version="1.0" encoding="utf-8"?>
<!-- Generator: Adobe Illustrator 16.0.0, SVG Export Plug-In . SVG Version: 6.00 Build 0)  -->
<!DOCTYPE svg PUBLIC "-//W3C//DTD SVG 1.1//EN" "http://www.w3.org/Graphics/SVG/1.1/DTD/svg11.dtd">
<svg version="1.1" id="Layer_1" xmlns="http://www.w3.org/2000/svg" xmlns:xlink="http://www.w3.org/1999/xlink" x="0px" y="0px"
	 width="64px" height="64px" viewBox="0 0 64 64" enable-background="new 0 0 64 64" xml:space="preserve">
<g>
	<g>
		<path d="M50.383,44.406H13.617c-1.93,0-3.5-1.57-3.5-3.5v-24.09c0-1.93,1.57-3.5,3.5-3.5h36.766c1.93,0,3.5,1.57,3.5,3.5v24.09
			C53.883,42.835,52.312,44.406,50.383,44.406z M13.617,14.315c-1.378,0-2.5,1.122-2.5,2.5v24.09c0,1.378,1.122,2.5,2.5,2.5h36.766
			c1.378,0,2.5-1.122,2.5-2.5v-24.09c0-1.378-1.122-2.5-2.5-2.5H13.617z"/>
	</g>
	<g>
		<path d="M57.237,51.205c-0.007,0-0.013-0.001-0.02,0H6.783c-0.195,0-0.372-0.113-0.454-0.29c-0.082-0.176-0.054-0.384,0.072-0.533
			l3.742-4.432c0.095-0.112,0.234-0.177,0.382-0.177h42.949c0.147,0,0.287,0.065,0.382,0.177l3.671,4.348
			c0.126,0.091,0.209,0.239,0.209,0.407C57.737,50.981,57.513,51.205,57.237,51.205z M7.86,50.205h48.28l-2.898-3.432H10.758
			L7.86,50.205z"/>
	</g>
	<g>
		<path d="M53.383,41.072H10.617c-0.276,0-0.5-0.224-0.5-0.5s0.224-0.5,0.5-0.5h42.766c0.276,0,0.5,0.224,0.5,0.5
			S53.659,41.072,53.383,41.072z"/>
	</g>
</g>
</svg>
