<?xml version="1.0" encoding="utf-8"?>
<!-- Generator: Adobe Illustrator 16.0.0, SVG Export Plug-In . SVG Version: 6.00 Build 0)  -->
<!DOCTYPE svg PUBLIC "-//W3C//DTD SVG 1.1//EN" "http://www.w3.org/Graphics/SVG/1.1/DTD/svg11.dtd">
<svg version="1.1" id="Layer_1" xmlns="http://www.w3.org/2000/svg" xmlns:xlink="http://www.w3.org/1999/xlink" x="0px" y="0px"
	 width="32px" height="32px" viewBox="0 0 32 32" enable-background="new 0 0 32 32" xml:space="preserve">
<g>
	<g>
		<g>
			<path d="M17.932,17.833h-3.867c-0.08,0-0.146-0.065-0.146-0.146v-7.424c0-0.08,0.066-0.146,0.146-0.146h3.867
				c0.082,0,0.146,0.065,0.146,0.146v7.424C18.078,17.768,18.014,17.833,17.932,17.833z M14.211,17.541h3.574v-7.132h-3.574V17.541z
				"/>
		</g>
		<g>
			<path d="M19.09,19.421h-6.182c-0.082,0-0.146-0.065-0.146-0.146V8.772c0-0.081,0.064-0.146,0.146-0.146h1.68V7.921
				c0-0.081,0.066-0.146,0.146-0.146h2.555c0.08,0,0.145,0.065,0.145,0.146v0.705h1.656c0.082,0,0.146,0.065,0.146,0.146v10.502
				C19.236,19.355,19.172,19.421,19.09,19.421z M13.055,19.129h5.889V8.918h-1.654c-0.082,0-0.146-0.064-0.146-0.146V8.066h-2.262
				v0.706c0,0.081-0.066,0.146-0.146,0.146h-1.68V19.129z"/>
		</g>
		<g>
			<polyline points="17.08,13.602 17.08,16.805 14.922,16.805 14.922,13.602 			"/>
		</g>
	</g>
	<g>
		<circle cx="16" cy="26.192" r="0.76"/>
	</g>
	<g>
		<path d="M21.01,28.363H10.99c-0.564,0-1.023-0.46-1.023-1.024V4.662c0-0.564,0.459-1.023,1.023-1.023h10.02
			c0.564,0,1.023,0.459,1.023,1.023v22.677C22.033,27.903,21.574,28.363,21.01,28.363z M10.99,3.931
			c-0.404,0-0.732,0.328-0.732,0.731v22.677c0,0.403,0.328,0.731,0.732,0.731h10.02c0.404,0,0.73-0.328,0.73-0.731V4.662
			c0-0.403-0.326-0.731-0.73-0.731H10.99z"/>
	</g>
	<g>
		<path d="M21.717,23.898H10.281c-0.08,0-0.145-0.065-0.145-0.146c0-0.081,0.064-0.146,0.145-0.146h11.436
			c0.08,0,0.146,0.065,0.146,0.146C21.863,23.833,21.797,23.898,21.717,23.898z"/>
	</g>
</g>
</svg>
