<?xml version="1.0" encoding="utf-8"?>
<!-- Generator: Adobe Illustrator 16.0.0, SVG Export Plug-In . SVG Version: 6.00 Build 0)  -->
<!DOCTYPE svg PUBLIC "-//W3C//DTD SVG 1.1//EN" "http://www.w3.org/Graphics/SVG/1.1/DTD/svg11.dtd">
<svg version="1.1" id="Layer_1" xmlns="http://www.w3.org/2000/svg" xmlns:xlink="http://www.w3.org/1999/xlink" x="0px" y="0px"
	 width="32px" height="32px" viewBox="0 0 32 32" enable-background="new 0 0 32 32" xml:space="preserve">
<g>
	<g>
		<g>
			<path d="M18.859,20.117h-5.717c-0.082,0-0.146-0.066-0.146-0.146V8.993c0-0.08,0.064-0.146,0.146-0.146h5.717
				c0.08,0,0.146,0.065,0.146,0.146v10.978C19.006,20.051,18.939,20.117,18.859,20.117z M13.289,19.824h5.424V9.14h-5.424V19.824z"
				/>
		</g>
		<g>
			<path d="M20.057,21.515h-8.111c-0.08,0-0.146-0.064-0.146-0.146V7.594c0-0.081,0.066-0.146,0.146-0.146h2.25V6.476
				c0-0.08,0.066-0.146,0.146-0.146h3.346c0.082,0,0.146,0.066,0.146,0.146v0.972h2.223c0.082,0,0.146,0.065,0.146,0.146v13.775
				C20.203,21.45,20.139,21.515,20.057,21.515z M12.092,21.223h7.82V7.739h-2.225c-0.08,0-0.146-0.064-0.146-0.146V6.621h-3.053
				v0.973c0,0.081-0.066,0.146-0.146,0.146h-2.25V21.223z"/>
		</g>
		<g>
			<polyline points="17.596,14.255 17.596,18.989 14.406,18.989 14.406,14.255 			"/>
		</g>
	</g>
	<g>
		<path d="M24.188,28.85H7.814c-0.566,0-1.025-0.459-1.025-1.023V4.174c0-0.563,0.459-1.023,1.025-1.023h16.373
			c0.564,0,1.023,0.46,1.023,1.023v23.652C25.211,28.391,24.752,28.85,24.188,28.85z M7.814,3.443c-0.404,0-0.732,0.328-0.732,0.73
			v23.652c0,0.403,0.328,0.731,0.732,0.731h16.373c0.402,0,0.73-0.328,0.73-0.731V4.174c0-0.402-0.328-0.73-0.73-0.73H7.814z"/>
	</g>
	<g>
		<circle cx="16" cy="26.714" r="0.664"/>
	</g>
	<g>
		<path d="M24.928,24.441H7.074c-0.08,0-0.146-0.065-0.146-0.146c0-0.08,0.066-0.146,0.146-0.146h17.854
			c0.08,0,0.146,0.066,0.146,0.146C25.074,24.376,25.008,24.441,24.928,24.441z"/>
	</g>
</g>
</svg>
