<?xml version="1.0" encoding="utf-8"?>
<!-- Generator: Adobe Illustrator 16.0.0, SVG Export Plug-In . SVG Version: 6.00 Build 0)  -->
<!DOCTYPE svg PUBLIC "-//W3C//DTD SVG 1.1//EN" "http://www.w3.org/Graphics/SVG/1.1/DTD/svg11.dtd">
<svg version="1.1" id="Layer_1" xmlns="http://www.w3.org/2000/svg" xmlns:xlink="http://www.w3.org/1999/xlink" x="0px" y="0px"
	 width="32px" height="32px" viewBox="0 0 32 32" enable-background="new 0 0 32 32" xml:space="preserve">
<g>
	<g>
		<g>
			<path d="M16.818,18.125H14.01c-0.08,0-0.146-0.065-0.146-0.146V12.59c0-0.081,0.066-0.146,0.146-0.146h2.809
				c0.08,0,0.146,0.065,0.146,0.146v5.389C16.965,18.06,16.898,18.125,16.818,18.125z M14.156,17.832h2.516v-5.096h-2.516V17.832z"
				/>
		</g>
		<g>
			<path d="M17.645,19.248h-4.455c-0.082,0-0.146-0.065-0.146-0.146v-7.569c0-0.08,0.064-0.146,0.146-0.146h1.168v-0.469
				c0-0.081,0.066-0.146,0.146-0.146h1.84c0.082,0,0.146,0.065,0.146,0.146v0.469h1.154c0.08,0,0.146,0.065,0.146,0.146v7.569
				C17.791,19.183,17.725,19.248,17.645,19.248z M13.336,18.955h4.162v-7.276h-1.154c-0.08,0-0.146-0.065-0.146-0.146v-0.469H14.65
				v0.469c0,0.081-0.064,0.146-0.146,0.146h-1.168V18.955z"/>
		</g>
		<g>
			<polyline points="16.197,15.013 16.197,17.338 14.633,17.338 14.633,15.013 			"/>
		</g>
	</g>
	<g>
		<path d="M19.236,21.281h-7.643c-0.887,0-1.609-0.721-1.609-1.607v-9.328c0-0.887,0.723-1.608,1.609-1.608h7.643
			c0.887,0,1.609,0.722,1.609,1.608v9.328C20.846,20.561,20.123,21.281,19.236,21.281z M11.594,9.03
			c-0.727,0-1.316,0.59-1.316,1.315v9.328c0,0.725,0.59,1.315,1.316,1.315h7.643c0.727,0,1.316-0.591,1.316-1.315v-9.328
			c0-0.726-0.59-1.315-1.316-1.315H11.594z"/>
	</g>
	<g>
		<path d="M21.869,13.729c-0.08,0-0.146-0.065-0.146-0.146v-2.036c0-0.081,0.066-0.146,0.146-0.146s0.146,0.065,0.146,0.146v2.036
			C22.016,13.664,21.949,13.729,21.869,13.729z"/>
	</g>
	<g>
		<path d="M18.746,7.831c-0.082,0-0.146-0.066-0.146-0.146V5.355c0-0.242-0.197-0.438-0.439-0.438h-5.49
			c-0.242,0-0.439,0.196-0.439,0.438v2.329c0,0.08-0.064,0.146-0.146,0.146c-0.08,0-0.146-0.066-0.146-0.146V5.355
			c0-0.403,0.328-0.731,0.732-0.731h5.49c0.402,0,0.73,0.328,0.73,0.731v2.329C18.891,7.765,18.826,7.831,18.746,7.831z"/>
	</g>
	<g>
		<path d="M18.16,25.396h-5.49c-0.404,0-0.732-0.327-0.732-0.731v-2.329c0-0.081,0.066-0.146,0.146-0.146
			c0.082,0,0.146,0.065,0.146,0.146v2.329c0,0.242,0.197,0.439,0.439,0.439h5.49c0.242,0,0.439-0.197,0.439-0.439v-2.329
			c0-0.081,0.064-0.146,0.146-0.146c0.08,0,0.145,0.065,0.145,0.146v2.329C18.891,25.068,18.562,25.396,18.16,25.396z"/>
	</g>
</g>
</svg>
