<?xml version="1.0" encoding="utf-8"?>
<!-- Generator: Adobe Illustrator 16.0.0, SVG Export Plug-In . SVG Version: 6.00 Build 0)  -->
<!DOCTYPE svg PUBLIC "-//W3C//DTD SVG 1.1//EN" "http://www.w3.org/Graphics/SVG/1.1/DTD/svg11.dtd">
<svg version="1.1" id="Layer_1" xmlns="http://www.w3.org/2000/svg" xmlns:xlink="http://www.w3.org/1999/xlink" x="0px" y="0px"
	 width="32px" height="32px" viewBox="0 0 32 32" enable-background="new 0 0 32 32" xml:space="preserve">
<g>
	<g>
		<g>
			<path d="M17.803,17.559h-3.605c-0.08,0-0.146-0.065-0.146-0.146v-6.924c0-0.081,0.066-0.146,0.146-0.146h3.605
				c0.08,0,0.146,0.065,0.146,0.146v6.924C17.949,17.493,17.883,17.559,17.803,17.559z M14.344,17.266h3.312v-6.631h-3.312V17.266z"
				/>
		</g>
		<g>
			<path d="M18.807,18.896h-5.611c-0.082,0-0.146-0.065-0.146-0.146V9.218c0-0.081,0.064-0.146,0.146-0.146h1.512V8.444
				c0-0.08,0.064-0.146,0.146-0.146h2.316c0.08,0,0.145,0.065,0.145,0.146v0.627h1.492c0.08,0,0.145,0.065,0.145,0.146v9.532
				C18.951,18.831,18.887,18.896,18.807,18.896z M13.342,18.604h5.318V9.363h-1.49c-0.082,0-0.146-0.065-0.146-0.146V8.591h-2.025
				v0.627c0,0.08-0.064,0.146-0.145,0.146h-1.512V18.604z"/>
		</g>
		<g>
			<polyline points="17.006,13.602 17.006,16.589 14.994,16.589 14.994,13.602 			"/>
		</g>
	</g>
	<g>
		<g>
			<path d="M26.105,22.332H5.893c-0.562,0-1.021-0.459-1.021-1.023V7.607c0-0.564,0.459-1.024,1.021-1.024h20.213
				c0.564,0,1.023,0.46,1.023,1.024v13.701C27.129,21.873,26.67,22.332,26.105,22.332z M5.893,6.876c-0.402,0-0.73,0.328-0.73,0.731
				v13.701c0,0.403,0.328,0.731,0.73,0.731h20.213c0.404,0,0.732-0.328,0.732-0.731V7.607c0-0.403-0.328-0.731-0.732-0.731H5.893z"
				/>
		</g>
		<g>
			<path d="M26.982,20.618H5.016c-0.08,0-0.145-0.065-0.145-0.146c0-0.08,0.064-0.146,0.145-0.146h21.967
				c0.082,0,0.146,0.065,0.146,0.146C27.129,20.553,27.064,20.618,26.982,20.618z"/>
		</g>
		<g>
			<g>
				<path d="M11.629,25.215c-0.031,0-0.062-0.011-0.09-0.03c-0.064-0.05-0.076-0.142-0.025-0.206l2.236-2.888
					c0.051-0.063,0.143-0.075,0.205-0.025c0.064,0.049,0.076,0.141,0.027,0.204l-2.238,2.889
					C11.715,25.195,11.672,25.215,11.629,25.215z"/>
			</g>
			<g>
				<path d="M20.369,25.215c-0.043,0-0.086-0.02-0.115-0.057L18.02,22.27c-0.049-0.063-0.037-0.155,0.027-0.204
					c0.062-0.05,0.154-0.038,0.205,0.025l2.234,2.888c0.049,0.064,0.037,0.156-0.027,0.206C20.434,25.204,20.4,25.215,20.369,25.215
					z"/>
			</g>
		</g>
		<g>
			<path d="M22.102,25.417H9.9c-0.08,0-0.146-0.065-0.146-0.146c0-0.082,0.066-0.147,0.146-0.147h12.201
				c0.08,0,0.145,0.065,0.145,0.147C22.246,25.352,22.182,25.417,22.102,25.417z"/>
		</g>
	</g>
</g>
</svg>
