<?xml version="1.0" encoding="utf-8"?>
<!-- Generator: Adobe Illustrator 16.0.0, SVG Export Plug-In . SVG Version: 6.00 Build 0)  -->
<!DOCTYPE svg PUBLIC "-//W3C//DTD SVG 1.1//EN" "http://www.w3.org/Graphics/SVG/1.1/DTD/svg11.dtd">
<svg version="1.1" id="Layer_1" xmlns="http://www.w3.org/2000/svg" xmlns:xlink="http://www.w3.org/1999/xlink" x="0px" y="0px"
	 width="32px" height="32px" viewBox="0 0 32 32" enable-background="new 0 0 32 32" xml:space="preserve">
<g>
	<g>
		<g>
			<path d="M17.523,16.972h-3.055c-0.08,0-0.146-0.065-0.146-0.146v-5.859c0-0.081,0.066-0.146,0.146-0.146h3.055
				c0.08,0,0.146,0.065,0.146,0.146v5.859C17.67,16.906,17.604,16.972,17.523,16.972z M14.615,16.679h2.762v-5.567h-2.762V16.679z"
				/>
		</g>
		<g>
			<path d="M18.42,18.192h-4.846c-0.082,0-0.146-0.065-0.146-0.146V9.816c0-0.081,0.064-0.146,0.146-0.146h1.283V9.148
				c0-0.081,0.066-0.146,0.146-0.146h2c0.082,0,0.148,0.065,0.148,0.146v0.522h1.268c0.082,0,0.146,0.064,0.146,0.146v8.229
				C18.566,18.127,18.502,18.192,18.42,18.192z M13.719,17.9h4.557V9.963h-1.271c-0.08,0-0.145-0.065-0.145-0.146V9.295H15.15v0.521
				c0,0.081-0.064,0.146-0.146,0.146h-1.285V17.9z"/>
		</g>
		<g>
			<polyline points="16.85,13.602 16.85,16.129 15.146,16.129 15.146,13.602 			"/>
		</g>
	</g>
	<g>
		<g>
			<path d="M26.104,22.129H5.893c-0.564,0-1.023-0.459-1.023-1.023v-13.7c0-0.565,0.459-1.024,1.023-1.024h20.211
				c0.564,0,1.023,0.459,1.023,1.024v13.7C27.127,21.67,26.668,22.129,26.104,22.129z M5.893,6.674c-0.402,0-0.73,0.327-0.73,0.731
				v13.7c0,0.403,0.328,0.731,0.73,0.731h20.211c0.404,0,0.732-0.328,0.732-0.731v-13.7c0-0.404-0.328-0.731-0.732-0.731H5.893z"/>
		</g>
		<g>
			<path d="M28.953,25.621c-0.002,0-0.004,0-0.006,0h-25.9c-0.057,0-0.107-0.033-0.133-0.085c-0.023-0.051-0.016-0.112,0.021-0.155
				l1.922-2.278c0.027-0.032,0.068-0.051,0.111-0.051h22.057c0.043,0,0.084,0.019,0.111,0.051l1.902,2.253
				c0.037,0.026,0.061,0.07,0.061,0.119C29.1,25.556,29.033,25.621,28.953,25.621z M3.361,25.329h25.271l-1.676-1.985H5.037
				L3.361,25.329z"/>
		</g>
		<g>
			<path d="M26.98,20.416H5.016c-0.08,0-0.146-0.065-0.146-0.147c0-0.08,0.066-0.146,0.146-0.146H26.98
				c0.082,0,0.146,0.065,0.146,0.146C27.127,20.351,27.062,20.416,26.98,20.416z"/>
		</g>
	</g>
</g>
</svg>
