<?xml version="1.0" encoding="utf-8"?>
<!-- Generator: Adobe Illustrator 16.0.0, SVG Export Plug-In . SVG Version: 6.00 Build 0)  -->
<!DOCTYPE svg PUBLIC "-//W3C//DTD SVG 1.1//EN" "http://www.w3.org/Graphics/SVG/1.1/DTD/svg11.dtd">
<svg version="1.1" id="Layer_1" xmlns="http://www.w3.org/2000/svg" xmlns:xlink="http://www.w3.org/1999/xlink" x="0px" y="0px"
	 width="64px" height="64px" viewBox="0 0 64 64" enable-background="new 0 0 64 64" xml:space="preserve">
<g>
	<g>
		<path d="M46.647,57.493H17.353c-1.93,0-3.5-1.57-3.5-3.5V10.526c0-1.93,1.57-3.5,3.5-3.5h29.295c1.93,0,3.5,1.57,3.5,3.5v43.467
			C50.147,55.923,48.577,57.493,46.647,57.493z M17.353,8.026c-1.378,0-2.5,1.121-2.5,2.5v43.467c0,1.379,1.122,2.5,2.5,2.5h29.295
			c1.378,0,2.5-1.121,2.5-2.5V10.526c0-1.379-1.122-2.5-2.5-2.5H17.353z"/>
	</g>
	<g>
		<circle cx="32" cy="53.116" r="1.292"/>
	</g>
	<g>
		<path d="M49.379,48.909H14.621c-0.276,0-0.5-0.224-0.5-0.5s0.224-0.5,0.5-0.5h34.758c0.276,0,0.5,0.224,0.5,0.5
			S49.655,48.909,49.379,48.909z"/>
	</g>
	<g>
		<path d="M43.474,26.819h-9.557c-0.276,0-0.5-0.224-0.5-0.5v-9.154c0-0.142,0.06-0.276,0.165-0.371
			c0.104-0.095,0.243-0.143,0.386-0.126c5.135,0.522,9.248,4.462,10,9.578c0.021,0.145-0.021,0.29-0.116,0.4
			C43.757,26.756,43.619,26.819,43.474,26.819z M34.417,25.819h8.461c-0.86-4.201-4.231-7.424-8.461-8.086V25.819z"/>
	</g>
	<g>
		<path d="M31.321,40.235c-6.228,0-11.295-5.067-11.295-11.297c0-5.872,4.407-10.704,10.25-11.24
			c0.143-0.008,0.279,0.034,0.383,0.129c0.104,0.095,0.163,0.229,0.163,0.369v11.258h11.241c0.141,0,0.275,0.06,0.37,0.163
			c0.095,0.104,0.141,0.243,0.128,0.384C42.016,35.835,37.184,40.235,31.321,40.235z M29.822,18.759
			c-5.052,0.729-8.796,5.013-8.796,10.18c0,5.678,4.618,10.297,10.295,10.297c5.159,0,9.442-3.737,10.179-8.781H30.322
			c-0.276,0-0.5-0.224-0.5-0.5V18.759z"/>
	</g>
</g>
</svg>
