<?xml version="1.0" encoding="utf-8"?>
<!-- Generator: Adobe Illustrator 16.0.0, SVG Export Plug-In . SVG Version: 6.00 Build 0)  -->
<!DOCTYPE svg PUBLIC "-//W3C//DTD SVG 1.1//EN" "http://www.w3.org/Graphics/SVG/1.1/DTD/svg11.dtd">
<svg version="1.1" id="Layer_1" xmlns="http://www.w3.org/2000/svg" xmlns:xlink="http://www.w3.org/1999/xlink" x="0px" y="0px"
	 width="64px" height="64px" viewBox="0 0 64 64" enable-background="new 0 0 64 64" xml:space="preserve">
<g>
	<g>
		<g>
			<path d="M36.146,44.684H25.574c-3.033,0-5.5-2.468-5.5-5.5V25.333c0-3.032,2.467-5.5,5.5-5.5h10.572c3.033,0,5.5,2.468,5.5,5.5
				v13.851C41.646,42.216,39.179,44.684,36.146,44.684z M25.574,20.833c-2.481,0-4.5,2.019-4.5,4.5v13.851
				c0,2.481,2.019,4.5,4.5,4.5h10.572c2.481,0,4.5-2.019,4.5-4.5V25.333c0-2.481-2.019-4.5-4.5-4.5H25.574z"/>
		</g>
		<g>
			<path d="M43.426,29.979c-0.276,0-0.5-0.224-0.5-0.5v-3.965c0-0.276,0.224-0.5,0.5-0.5s0.5,0.224,0.5,0.5v3.965
				C43.926,29.756,43.702,29.979,43.426,29.979z"/>
		</g>
		<g>
			<path d="M37.344,18.499c-0.276,0-0.5-0.224-0.5-0.5v-3.678c0-0.827-0.673-1.5-1.5-1.5h-8.967c-0.827,0-1.5,0.673-1.5,1.5v3.678
				c0,0.276-0.224,0.5-0.5,0.5s-0.5-0.224-0.5-0.5v-3.678c0-1.379,1.122-2.5,2.5-2.5h8.967c1.378,0,2.5,1.121,2.5,2.5v3.678
				C37.844,18.275,37.62,18.499,37.344,18.499z"/>
		</g>
		<g>
			<path d="M35.344,52.693h-8.967c-1.378,0-2.5-1.121-2.5-2.5v-3.673c0-0.276,0.224-0.5,0.5-0.5s0.5,0.224,0.5,0.5v3.673
				c0,0.827,0.673,1.5,1.5,1.5h8.967c0.827,0,1.5-0.673,1.5-1.5v-3.673c0-0.276,0.224-0.5,0.5-0.5s0.5,0.224,0.5,0.5v3.673
				C37.844,51.572,36.722,52.693,35.344,52.693z"/>
		</g>
	</g>
	<g>
		<path fill="none" stroke="#000000" stroke-linecap="round" stroke-linejoin="round" stroke-miterlimit="10" d="M32.041,26.861
			v4.122h4.303C36.022,28.798,34.254,27.087,32.041,26.861z"/>
		<path fill="none" stroke="#000000" stroke-linecap="round" stroke-linejoin="round" stroke-miterlimit="10" d="M29.788,33.254
			v-5.296c-2.474,0.226-4.412,2.305-4.412,4.838c0,2.686,2.176,4.863,4.861,4.863c2.53,0,4.608-1.935,4.839-4.405H29.788z"/>
	</g>
</g>
</svg>
