<?xml version="1.0" encoding="utf-8"?>
<!-- Generator: Adobe Illustrator 16.0.0, SVG Export Plug-In . SVG Version: 6.00 Build 0)  -->
<!DOCTYPE svg PUBLIC "-//W3C//DTD SVG 1.1//EN" "http://www.w3.org/Graphics/SVG/1.1/DTD/svg11.dtd">
<svg version="1.1" id="Layer_1" xmlns="http://www.w3.org/2000/svg" xmlns:xlink="http://www.w3.org/1999/xlink" x="0px" y="0px"
	 width="64px" height="64px" viewBox="0 0 64 64" enable-background="new 0 0 64 64" xml:space="preserve">
<g>
	<g>
		<path d="M40.461,56.544H23.539c-1.93,0-3.5-1.57-3.5-3.5v-41.57c0-1.93,1.57-3.5,3.5-3.5h16.923c1.93,0,3.5,1.57,3.5,3.5v41.57
			C43.961,54.974,42.391,56.544,40.461,56.544z M23.539,8.974c-1.378,0-2.5,1.121-2.5,2.5v41.57c0,1.379,1.122,2.5,2.5,2.5h16.923
			c1.378,0,2.5-1.121,2.5-2.5v-41.57c0-1.379-1.122-2.5-2.5-2.5H23.539z"/>
	</g>
	<g>
		<path d="M43.132,47.853H20.867c-0.276,0-0.5-0.224-0.5-0.5s0.224-0.5,0.5-0.5h22.265c0.276,0,0.5,0.224,0.5,0.5
			S43.408,47.853,43.132,47.853z"/>
	</g>
	<g>
		<circle cx="32" cy="51.851" r="1.292"/>
	</g>
	<g>
		<path d="M39.369,27.581h-6.138c-0.276,0-0.5-0.224-0.5-0.5V21.2c0-0.142,0.06-0.276,0.165-0.371
			c0.105-0.095,0.247-0.141,0.386-0.126c3.379,0.345,6.085,2.938,6.582,6.305c0.021,0.145-0.021,0.29-0.116,0.4
			C39.652,27.518,39.514,27.581,39.369,27.581z M33.731,26.581h5.032c-0.59-2.452-2.559-4.333-5.032-4.803V26.581z"/>
	</g>
	<g>
		<path d="M31.563,36.196c-4.098,0-7.433-3.334-7.433-7.433c0-3.865,2.9-7.045,6.747-7.397c0.137-0.009,0.278,0.033,0.382,0.129
			c0.104,0.095,0.163,0.229,0.163,0.369v7.052h7.039c0.141,0,0.275,0.06,0.37,0.163c0.095,0.104,0.141,0.243,0.128,0.383
			C38.603,33.302,35.423,36.196,31.563,36.196z M30.423,22.436c-3.053,0.538-5.292,3.169-5.292,6.328
			c0,3.547,2.886,6.433,6.433,6.433c3.154,0,5.784-2.234,6.327-5.28h-6.967c-0.276,0-0.5-0.224-0.5-0.5V22.436z"/>
	</g>
</g>
</svg>
