<?xml version="1.0" encoding="utf-8"?>
<!-- Generator: Adobe Illustrator 16.0.0, SVG Export Plug-In . SVG Version: 6.00 Build 0)  -->
<!DOCTYPE svg PUBLIC "-//W3C//DTD SVG 1.1//EN" "http://www.w3.org/Graphics/SVG/1.1/DTD/svg11.dtd">
<svg version="1.1" id="Layer_1" xmlns="http://www.w3.org/2000/svg" xmlns:xlink="http://www.w3.org/1999/xlink" x="0px" y="0px"
	 width="64px" height="64px" viewBox="0 0 64 64" enable-background="new 0 0 64 64" xml:space="preserve">
<g>
	<g>
		<g>
			<path d="M36.146,44.688H25.574c-3.032,0-5.5-2.468-5.5-5.5V25.332c0-3.032,2.468-5.5,5.5-5.5h10.572c3.032,0,5.5,2.468,5.5,5.5
				v13.855C41.646,42.22,39.179,44.688,36.146,44.688z M25.574,20.832c-2.481,0-4.5,2.019-4.5,4.5v13.855c0,2.481,2.019,4.5,4.5,4.5
				h10.572c2.481,0,4.5-2.019,4.5-4.5V25.332c0-2.481-2.019-4.5-4.5-4.5H25.574z"/>
		</g>
		<g>
			<path d="M43.426,29.979c-0.276,0-0.5-0.224-0.5-0.5v-3.961c0-0.276,0.224-0.5,0.5-0.5s0.5,0.224,0.5,0.5v3.961
				C43.926,29.755,43.702,29.979,43.426,29.979z"/>
		</g>
		<g>
			<path d="M37.346,18.498c-0.276,0-0.5-0.224-0.5-0.5v-3.674c0-0.827-0.673-1.5-1.5-1.5h-8.969c-0.827,0-1.5,0.673-1.5,1.5v3.674
				c0,0.276-0.224,0.5-0.5,0.5s-0.5-0.224-0.5-0.5v-3.674c0-1.379,1.121-2.5,2.5-2.5h8.969c1.379,0,2.5,1.121,2.5,2.5v3.674
				C37.846,18.274,37.622,18.498,37.346,18.498z"/>
		</g>
		<g>
			<path d="M35.346,52.695h-8.969c-1.379,0-2.5-1.121-2.5-2.5V46.52c0-0.276,0.224-0.5,0.5-0.5s0.5,0.224,0.5,0.5v3.676
				c0,0.827,0.673,1.5,1.5,1.5h8.969c0.827,0,1.5-0.673,1.5-1.5V46.52c0-0.276,0.224-0.5,0.5-0.5s0.5,0.224,0.5,0.5v3.676
				C37.846,51.574,36.725,52.695,35.346,52.695z"/>
		</g>
	</g>
	<polyline fill="none" stroke="#000000" stroke-linecap="round" stroke-linejoin="round" stroke-miterlimit="10" points="
		27.439,28.725 30.861,32.146 34.283,28.725 30.861,25.303 30.861,39.219 34.283,35.797 30.861,32.375 27.439,35.797 	"/>
</g>
</svg>
