<?xml version="1.0" encoding="utf-8"?>
<!-- Generator: Adobe Illustrator 16.0.0, SVG Export Plug-In . SVG Version: 6.00 Build 0)  -->
<!DOCTYPE svg PUBLIC "-//W3C//DTD SVG 1.1//EN" "http://www.w3.org/Graphics/SVG/1.1/DTD/svg11.dtd">
<svg version="1.1" id="Layer_1" xmlns="http://www.w3.org/2000/svg" xmlns:xlink="http://www.w3.org/1999/xlink" x="0px" y="0px"
	 width="64px" height="64px" viewBox="0 0 64 64" enable-background="new 0 0 64 64" xml:space="preserve">
<g>
	<g>
		<circle cx="32.001" cy="51.852" r="1.292"/>
	</g>
	<g>
		<path d="M40.461,56.543H23.539c-1.93,0-3.5-1.57-3.5-3.5V11.477c0-1.93,1.57-3.5,3.5-3.5h16.922c1.93,0,3.5,1.57,3.5,3.5v41.566
			C43.961,54.973,42.391,56.543,40.461,56.543z M23.539,8.977c-1.379,0-2.5,1.121-2.5,2.5v41.566c0,1.379,1.121,2.5,2.5,2.5h16.922
			c1.379,0,2.5-1.121,2.5-2.5V11.477c0-1.379-1.121-2.5-2.5-2.5H23.539z"/>
	</g>
	<g>
		<path d="M43.133,47.854H20.867c-0.276,0-0.5-0.224-0.5-0.5s0.224-0.5,0.5-0.5h22.266c0.276,0,0.5,0.224,0.5,0.5
			S43.409,47.854,43.133,47.854z"/>
	</g>
	<g>
		<path d="M32,38.615c-0.064,0-0.13-0.013-0.191-0.038c-0.187-0.077-0.309-0.26-0.309-0.462v-8.822l-4.16,4.16
			c-0.195,0.195-0.512,0.195-0.707,0s-0.195-0.512,0-0.707l4.827-4.827l-4.827-4.827c-0.195-0.195-0.195-0.512,0-0.707
			s0.512-0.195,0.707,0l4.16,4.16v-8.82c0-0.202,0.122-0.385,0.309-0.462c0.187-0.076,0.402-0.034,0.545,0.108l5.014,5.014
			c0.195,0.195,0.195,0.512,0,0.707l-4.827,4.827l4.827,4.827c0.195,0.195,0.195,0.512,0,0.707l-5.014,5.016
			C32.258,38.564,32.13,38.615,32,38.615z M32.5,29.293v7.615l3.807-3.809L32.5,29.293z M32.5,18.932v7.613l3.807-3.807L32.5,18.932
			z"/>
	</g>
</g>
</svg>
