<?xml version="1.0" encoding="utf-8"?>
<!-- Generator: Adobe Illustrator 16.0.0, SVG Export Plug-In . SVG Version: 6.00 Build 0)  -->
<!DOCTYPE svg PUBLIC "-//W3C//DTD SVG 1.1//EN" "http://www.w3.org/Graphics/SVG/1.1/DTD/svg11.dtd">
<svg version="1.1" id="Layer_1" xmlns="http://www.w3.org/2000/svg" xmlns:xlink="http://www.w3.org/1999/xlink" x="0px" y="0px"
	 width="64px" height="64px" viewBox="0 0 64 64" enable-background="new 0 0 64 64" xml:space="preserve">
<g>
	<g>
		<path d="M46.647,57.492H17.353c-1.93,0-3.5-1.57-3.5-3.5V10.527c0-1.93,1.57-3.5,3.5-3.5h29.295c1.93,0,3.5,1.57,3.5,3.5v43.465
			C50.147,55.922,48.577,57.492,46.647,57.492z M17.353,8.027c-1.379,0-2.5,1.121-2.5,2.5v43.465c0,1.379,1.121,2.5,2.5,2.5h29.295
			c1.379,0,2.5-1.121,2.5-2.5V10.527c0-1.379-1.121-2.5-2.5-2.5H17.353z"/>
	</g>
	<g>
		<path d="M33.293,53.119c0,0.711-0.579,1.289-1.295,1.289c-0.711,0-1.291-0.578-1.291-1.289c0-0.717,0.58-1.295,1.291-1.295
			C32.714,51.824,33.293,52.402,33.293,53.119z"/>
	</g>
	<g>
		<path d="M49.38,48.91H14.621c-0.276,0-0.5-0.224-0.5-0.5s0.224-0.5,0.5-0.5H49.38c0.276,0,0.5,0.224,0.5,0.5
			S49.656,48.91,49.38,48.91z"/>
	</g>
	<g>
		<path d="M31.998,41.967c-0.064,0-0.13-0.013-0.191-0.038c-0.187-0.077-0.309-0.26-0.309-0.462V29.348l-5.809,5.811
			c-0.195,0.195-0.512,0.195-0.707,0s-0.195-0.512,0-0.707l6.516-6.547l-6.516-6.518c-0.195-0.195-0.195-0.512,0-0.707
			s0.512-0.195,0.707,0l5.809,5.811V14.371c0-0.202,0.122-0.385,0.309-0.462c0.186-0.076,0.402-0.034,0.545,0.108l6.664,6.662
			c0.094,0.094,0.146,0.221,0.146,0.354s-0.053,0.26-0.146,0.354l-6.518,6.547l6.518,6.518c0.094,0.094,0.146,0.221,0.146,0.354
			s-0.053,0.26-0.146,0.354l-6.664,6.662C32.256,41.916,32.128,41.967,31.998,41.967z M32.498,29.348V40.26l5.457-5.455
			L32.498,29.348z M32.498,15.578V26.49l5.457-5.457L32.498,15.578z"/>
	</g>
</g>
</svg>
