<?xml version="1.0" encoding="utf-8"?>
<!-- Generator: Adobe Illustrator 16.0.0, SVG Export Plug-In . SVG Version: 6.00 Build 0)  -->
<!DOCTYPE svg PUBLIC "-//W3C//DTD SVG 1.1//EN" "http://www.w3.org/Graphics/SVG/1.1/DTD/svg11.dtd">
<svg version="1.1" id="Layer_1" xmlns="http://www.w3.org/2000/svg" xmlns:xlink="http://www.w3.org/1999/xlink" x="0px" y="0px"
	 width="64px" height="64px" viewBox="0 0 64 64" enable-background="new 0 0 64 64" xml:space="preserve">
<g>
	<g>
		<g>
			<path d="M50.383,44.803H13.617c-1.93,0-3.5-1.57-3.5-3.5v-24.09c0-1.93,1.57-3.5,3.5-3.5h36.766c1.93,0,3.5,1.57,3.5,3.5v24.09
				C53.883,43.232,52.312,44.803,50.383,44.803z M13.617,14.713c-1.379,0-2.5,1.121-2.5,2.5v24.09c0,1.379,1.121,2.5,2.5,2.5h36.766
				c1.379,0,2.5-1.121,2.5-2.5v-24.09c0-1.379-1.121-2.5-2.5-2.5H13.617z"/>
		</g>
		<g>
			<path d="M53.383,41.467H10.617c-0.276,0-0.5-0.224-0.5-0.5s0.224-0.5,0.5-0.5h42.766c0.276,0,0.5,0.224,0.5,0.5
				S53.659,41.467,53.383,41.467z"/>
		</g>
		<g>
			<g>
				<path d="M23.489,50.412c-0.107,0-0.215-0.034-0.307-0.104c-0.218-0.169-0.258-0.483-0.089-0.702l4.354-5.619
					c0.17-0.218,0.483-0.257,0.702-0.089c0.218,0.169,0.258,0.483,0.089,0.702l-4.354,5.619
					C23.786,50.346,23.639,50.412,23.489,50.412z"/>
			</g>
			<g>
				<path d="M40.509,50.412c-0.149,0-0.297-0.066-0.396-0.193L35.76,44.6c-0.169-0.219-0.129-0.533,0.089-0.702
					c0.219-0.169,0.532-0.13,0.702,0.089l4.354,5.619c0.169,0.219,0.129,0.533-0.089,0.702
					C40.724,50.378,40.616,50.412,40.509,50.412z"/>
			</g>
		</g>
		<g>
			<path d="M43.873,50.809H20.125c-0.276,0-0.5-0.224-0.5-0.5s0.224-0.5,0.5-0.5h23.748c0.276,0,0.5,0.224,0.5,0.5
				S44.149,50.809,43.873,50.809z"/>
		</g>
	</g>
	<polyline fill="none" stroke="#000000" stroke-linecap="round" stroke-linejoin="round" stroke-miterlimit="10" points="
		27.908,23.691 31.998,27.783 36.09,23.691 31.998,19.6 31.998,36.234 36.09,32.146 31.998,28.055 27.908,32.146 	"/>
</g>
</svg>
