<?xml version="1.0" encoding="utf-8"?>
<!-- Generator: Adobe Illustrator 16.0.0, SVG Export Plug-In . SVG Version: 6.00 Build 0)  -->
<!DOCTYPE svg PUBLIC "-//W3C//DTD SVG 1.1//EN" "http://www.w3.org/Graphics/SVG/1.1/DTD/svg11.dtd">
<svg version="1.1" id="Layer_1" xmlns="http://www.w3.org/2000/svg" xmlns:xlink="http://www.w3.org/1999/xlink" x="0px" y="0px"
	 width="128px" height="128px" viewBox="0 0 128 128" enable-background="new 0 0 128 128" xml:space="preserve">
<g>
	<g>
		<path fill="none" stroke="#000000" stroke-width="2" stroke-linecap="round" stroke-linejoin="round" stroke-miterlimit="10" d="
			M64.037,56.746c-3.999,0-7.235-2.525-7.235-5.646c0-3.116,3.236-5.646,7.235-5.646s7.246,2.529,7.246,5.646 M56.802,62.396
			c0,3.116,3.236,5.645,7.235,5.645s7.246-2.528,7.246-5.645c0-3.121-3.247-5.649-7.246-5.649 M64.037,41.755v29.987"/>
	</g>
	<g>
		<g>
			<path d="M103.317,89.979H24.765c-2.206,0-4-1.794-4-4V32.485c0-2.206,1.794-4,4-4h78.553c2.206,0,4,1.794,4,4v53.493
				C107.317,88.184,105.523,89.979,103.317,89.979z M24.765,30.485c-1.103,0-2,0.897-2,2v53.493c0,1.103,0.897,2,2,2h78.553
				c1.103,0,2-0.897,2-2V32.485c0-1.103-0.897-2-2-2H24.765z"/>
		</g>
		<g>
			<path d="M106.317,83.384H21.765c-0.553,0-1-0.448-1-1s0.447-1,1-1h84.553c0.553,0,1,0.448,1,1S106.87,83.384,106.317,83.384z"/>
		</g>
		<g>
			<g>
				<path d="M47.213,101.069c-0.214,0-0.43-0.068-0.611-0.209c-0.437-0.338-0.517-0.966-0.178-1.403l8.607-11.11
					c0.338-0.436,0.968-0.516,1.402-0.178c0.437,0.338,0.517,0.966,0.178,1.403l-8.607,11.11
					C47.808,100.936,47.512,101.069,47.213,101.069z"/>
			</g>
			<g>
				<path d="M80.865,101.069c-0.299,0-0.595-0.133-0.791-0.388l-8.607-11.11c-0.339-0.437-0.259-1.064,0.178-1.403
					c0.436-0.338,1.065-0.258,1.402,0.178l8.607,11.11c0.339,0.437,0.259,1.064-0.178,1.403
					C81.295,101.001,81.079,101.069,80.865,101.069z"/>
			</g>
		</g>
		<g>
			<path d="M87.515,101.854H40.562c-0.553,0-1-0.448-1-1s0.447-1,1-1h46.952c0.553,0,1,0.448,1,1S88.067,101.854,87.515,101.854z"/>
		</g>
	</g>
</g>
</svg>
