<?xml version="1.0" encoding="utf-8"?>
<!-- Generator: Adobe Illustrator 16.0.0, SVG Export Plug-In . SVG Version: 6.00 Build 0)  -->
<!DOCTYPE svg PUBLIC "-//W3C//DTD SVG 1.1//EN" "http://www.w3.org/Graphics/SVG/1.1/DTD/svg11.dtd">
<svg version="1.1" id="Layer_1" xmlns="http://www.w3.org/2000/svg" xmlns:xlink="http://www.w3.org/1999/xlink" x="0px" y="0px"
	 width="128px" height="128px" viewBox="0 0 128 128" enable-background="new 0 0 128 128" xml:space="preserve">
<g>
	<g>
		<g>
			<path d="M64.041,74.448c-0.553,0-1-0.448-1-1V70.59c-4.193-0.4-7.457-3.286-7.457-6.774c0-0.552,0.447-1,1-1s1,0.448,1,1
				c0,2.404,2.37,4.404,5.457,4.764v-9.627c-4.193-0.4-7.457-3.284-7.457-6.77c0-3.488,3.264-6.374,7.457-6.774v-2.857
				c0-0.552,0.447-1,1-1s1,0.448,1,1v2.857c4.196,0.4,7.461,3.285,7.461,6.774c0,0.552-0.447,1-1,1s-1-0.448-1-1
				c0-2.405-2.371-4.404-5.461-4.764v9.628c4.196,0.4,7.461,3.283,7.461,6.769c0,3.489-3.265,6.374-7.461,6.774v2.858
				C65.041,74,64.594,74.448,64.041,74.448z M65.041,59.058v9.522c3.09-0.36,5.461-2.359,5.461-4.764
				C70.502,61.414,68.131,59.417,65.041,59.058z M63.041,47.419c-3.087,0.36-5.457,2.359-5.457,4.764c0,2.402,2.37,4.4,5.457,4.76
				V47.419z"/>
		</g>
	</g>
	<g>
		<path d="M83.701,113.192h-39.32c-2.206,0-4-1.794-4-4V21.146c0-2.206,1.794-4,4-4h39.32c2.206,0,4,1.794,4,4v88.047
			C87.701,111.398,85.907,113.192,83.701,113.192z M44.381,19.146c-1.103,0-2,0.897-2,2v88.047c0,1.103,0.897,2,2,2h39.32
			c1.103,0,2-0.897,2-2V21.146c0-1.103-0.897-2-2-2H44.381z"/>
	</g>
	<g>
		<path d="M86.053,96.012H42.029c-0.553,0-1-0.448-1-1s0.447-1,1-1h44.023c0.553,0,1,0.448,1,1S86.605,96.012,86.053,96.012z"/>
	</g>
	<g>
		<path d="M66.598,103.899c0,1.412-1.146,2.559-2.557,2.559c-1.414,0-2.553-1.146-2.553-2.559c0-1.407,1.139-2.553,2.553-2.553
			C65.451,101.347,66.598,102.492,66.598,103.899z"/>
	</g>
</g>
</svg>
