<?xml version="1.0" encoding="utf-8"?>
<!-- Generator: Adobe Illustrator 16.0.0, SVG Export Plug-In . SVG Version: 6.00 Build 0)  -->
<!DOCTYPE svg PUBLIC "-//W3C//DTD SVG 1.1//EN" "http://www.w3.org/Graphics/SVG/1.1/DTD/svg11.dtd">
<svg version="1.1" id="Layer_1" xmlns="http://www.w3.org/2000/svg" xmlns:xlink="http://www.w3.org/1999/xlink" x="0px" y="0px"
	 width="128px" height="128px" viewBox="0 0 128 128" enable-background="new 0 0 128 128" xml:space="preserve">
<g>
	<g>
		<path fill="none" stroke="#000000" stroke-width="2" stroke-linecap="round" stroke-linejoin="round" stroke-miterlimit="10" d="
			M61.789,65.17c-3.826,0-6.932-2.421-6.932-5.406c0-2.987,3.105-5.406,6.932-5.406c3.828,0,6.928,2.419,6.928,5.406 M54.857,70.576
			c0,2.983,3.105,5.403,6.932,5.403c3.828,0,6.928-2.42,6.928-5.403c0-2.987-3.1-5.406-6.928-5.406 M61.789,50.815V79.52"/>
	</g>
	<g>
		<g>
			<path d="M77.125,89.747H46.451c-3.309,0-6-2.691-6-6V46.588c0-3.309,2.691-6,6-6h30.674c3.309,0,6,2.691,6,6v37.159
				C83.125,87.056,80.434,89.747,77.125,89.747z M46.451,42.588c-2.206,0-4,1.794-4,4v37.159c0,2.206,1.794,4,4,4h30.674
				c2.206,0,4-1.794,4-4V46.588c0-2.206-1.794-4-4-4H46.451z"/>
		</g>
		<g>
			<path d="M86.631,60.672c-0.553,0-1-0.448-1-1v-7.834c0-0.552,0.447-1,1-1s1,0.448,1,1v7.834
				C87.631,60.224,87.184,60.672,86.631,60.672z"/>
		</g>
		<g>
			<path d="M74.609,37.975c-0.553,0-1-0.448-1-1v-9.224c0-0.551-0.448-1-1-1H50.969c-0.552,0-1,0.449-1,1v9.224c0,0.552-0.447,1-1,1
				s-1-0.448-1-1v-9.224c0-1.654,1.346-3,3-3h21.641c1.654,0,3,1.346,3,3v9.224C75.609,37.527,75.162,37.975,74.609,37.975z"/>
		</g>
		<g>
			<path d="M72.609,105.585H50.969c-1.654,0-3-1.346-3-3v-9.222c0-0.552,0.447-1,1-1s1,0.448,1,1v9.222c0,0.551,0.448,1,1,1h21.641
				c0.552,0,1-0.449,1-1v-9.222c0-0.552,0.447-1,1-1s1,0.448,1,1v9.222C75.609,104.239,74.264,105.585,72.609,105.585z"/>
		</g>
	</g>
</g>
</svg>
