<?xml version="1.0" encoding="utf-8"?>
<!-- Generator: Adobe Illustrator 16.0.0, SVG Export Plug-In . SVG Version: 6.00 Build 0)  -->
<!DOCTYPE svg PUBLIC "-//W3C//DTD SVG 1.1//EN" "http://www.w3.org/Graphics/SVG/1.1/DTD/svg11.dtd">
<svg version="1.1" id="Layer_1" xmlns="http://www.w3.org/2000/svg" xmlns:xlink="http://www.w3.org/1999/xlink" x="0px" y="0px"
	 width="128px" height="128px" viewBox="0 0 128 128" enable-background="new 0 0 128 128" xml:space="preserve">
<g>
	<g>
		<path d="M95.932,115.068H32.15c-2.206,0-4-1.794-4-4V19.27c0-2.206,1.794-4,4-4h63.781c2.206,0,4,1.794,4,4v91.799
			C99.932,113.274,98.138,115.068,95.932,115.068z M32.15,17.27c-1.103,0-2,0.897-2,2v91.799c0,1.103,0.897,2,2,2h63.781
			c1.103,0,2-0.897,2-2V19.27c0-1.103-0.897-2-2-2H32.15z"/>
	</g>
	<g>
		<path d="M66.598,106.405c0,1.411-1.145,2.557-2.561,2.557c-1.404,0-2.553-1.146-2.553-2.557s1.148-2.554,2.553-2.554
			C65.453,103.852,66.598,104.994,66.598,106.405z"/>
	</g>
	<g>
		<path d="M98.404,98.101H29.682c-0.553,0-1-0.448-1-1s0.447-1,1-1h68.723c0.553,0,1,0.448,1,1S98.957,98.101,98.404,98.101z"/>
	</g>
	<g>
		<g>
			<path d="M64.037,79.368c-0.553,0-1-0.448-1-1V74.3c-5.506-0.405-9.832-4.122-9.832-8.631c0-0.552,0.447-1,1-1s1,0.448,1,1
				c0,3.421,3.431,6.25,7.832,6.625V58.963c-5.506-0.405-9.832-4.123-9.832-8.633c0-4.51,4.326-8.226,9.832-8.631V37.63
				c0-0.552,0.447-1,1-1s1,0.448,1,1v4.069c5.509,0.405,9.838,4.122,9.838,8.631c0,0.552-0.447,1-1,1s-1-0.448-1-1
				c0-3.421-3.434-6.25-7.838-6.625v13.332c5.509,0.405,9.838,4.122,9.838,8.632c0,4.51-4.329,8.227-9.838,8.631v4.068
				C65.037,78.92,64.59,79.368,64.037,79.368z M65.037,59.042v13.252c4.404-0.376,7.838-3.204,7.838-6.625
				C72.875,62.247,69.441,59.418,65.037,59.042z M63.037,43.705c-4.401,0.376-7.832,3.204-7.832,6.625
				c0,3.422,3.431,6.251,7.832,6.627V43.705z"/>
		</g>
	</g>
</g>
</svg>
