<?xml version="1.0" encoding="utf-8"?>
<!-- Generator: Adobe Illustrator 16.0.0, SVG Export Plug-In . SVG Version: 6.00 Build 0)  -->
<!DOCTYPE svg PUBLIC "-//W3C//DTD SVG 1.1//EN" "http://www.w3.org/Graphics/SVG/1.1/DTD/svg11.dtd">
<svg version="1.1" id="Layer_1" xmlns="http://www.w3.org/2000/svg" xmlns:xlink="http://www.w3.org/1999/xlink" x="0px" y="0px"
	 width="64px" height="64px" viewBox="0 0 64 64" enable-background="new 0 0 64 64" xml:space="preserve">
<g>
	<g>
		<path d="M40.461,56.544H23.539c-1.93,0-3.5-1.57-3.5-3.5V11.476c0-1.93,1.57-3.5,3.5-3.5h16.923c1.93,0,3.5,1.57,3.5,3.5v41.568
			C43.961,54.974,42.391,56.544,40.461,56.544z M23.539,8.976c-1.378,0-2.5,1.122-2.5,2.5v41.568c0,1.378,1.122,2.5,2.5,2.5h16.923
			c1.378,0,2.5-1.122,2.5-2.5V11.476c0-1.378-1.122-2.5-2.5-2.5H23.539z"/>
	</g>
	<g>
		<path d="M43.132,47.854H20.867c-0.276,0-0.5-0.224-0.5-0.5s0.224-0.5,0.5-0.5h22.265c0.276,0,0.5,0.224,0.5,0.5
			S43.408,47.854,43.132,47.854z"/>
	</g>
	<g>
		<circle cx="32" cy="51.851" r="1.292"/>
	</g>
	<g>
		<path fill="none" stroke="#000000" stroke-linecap="round" stroke-linejoin="round" stroke-miterlimit="10" d="M32,37.926"/>
	</g>
	<g>
		<path d="M32,36.89c-0.156,0-0.303-0.073-0.398-0.197c-1.52-1.998-6.493-8.546-6.693-8.932c-0.007-0.015-0.015-0.03-0.021-0.045
			c-0.298-0.594-0.449-1.228-0.449-1.884c0-2.345,1.924-4.253,4.29-4.253c1.363,0,2.514,0.864,3.271,1.834
			c0.756-0.971,1.906-1.834,3.271-1.834c2.365,0,4.29,1.908,4.29,4.253c0,0.637-0.142,1.253-0.423,1.833
			c-0.014,0.041-0.033,0.081-0.058,0.118c-0.189,0.364-5.162,6.913-6.682,8.911C32.303,36.816,32.156,36.89,32,36.89z
			 M25.795,27.293c0.441,0.659,3.771,5.067,6.205,8.271c2.498-3.287,5.937-7.84,6.202-8.265c0.003-0.007,0.006-0.014,0.01-0.02
			c0.231-0.458,0.348-0.945,0.348-1.448c0-1.793-1.476-3.253-3.29-3.253c-1.237,0-2.303,1.063-2.84,1.975
			c-0.18,0.304-0.682,0.305-0.861,0c-0.537-0.911-1.604-1.975-2.84-1.975c-1.814,0-3.29,1.459-3.29,3.253
			c0,0.504,0.117,0.991,0.348,1.447C25.791,27.283,25.793,27.288,25.795,27.293z"/>
	</g>
</g>
</svg>
