<?xml version="1.0" encoding="utf-8"?>
<!-- Generator: Adobe Illustrator 16.0.0, SVG Export Plug-In . SVG Version: 6.00 Build 0)  -->
<!DOCTYPE svg PUBLIC "-//W3C//DTD SVG 1.1//EN" "http://www.w3.org/Graphics/SVG/1.1/DTD/svg11.dtd">
<svg version="1.1" id="Layer_1" xmlns="http://www.w3.org/2000/svg" xmlns:xlink="http://www.w3.org/1999/xlink" x="0px" y="0px"
	 width="64px" height="64px" viewBox="0 0 64 64" enable-background="new 0 0 64 64" xml:space="preserve">
<g>
	<g>
		<g>
			<path d="M50.383,44.802H13.617c-1.93,0-3.5-1.57-3.5-3.5v-24.09c0-1.93,1.57-3.5,3.5-3.5h36.767c1.93,0,3.5,1.57,3.5,3.5v24.09
				C53.883,43.231,52.313,44.802,50.383,44.802z M13.617,14.712c-1.378,0-2.5,1.122-2.5,2.5v24.09c0,1.378,1.122,2.5,2.5,2.5h36.767
				c1.378,0,2.5-1.122,2.5-2.5v-24.09c0-1.378-1.122-2.5-2.5-2.5H13.617z"/>
		</g>
		<g>
			<path d="M53.383,41.468H10.617c-0.276,0-0.5-0.224-0.5-0.5s0.224-0.5,0.5-0.5h42.767c0.276,0,0.5,0.224,0.5,0.5
				S53.66,41.468,53.383,41.468z"/>
		</g>
		<g>
			<g>
				<path d="M23.491,50.413c-0.107,0-0.214-0.034-0.306-0.104c-0.218-0.169-0.258-0.483-0.089-0.702l4.353-5.621
					c0.17-0.218,0.483-0.257,0.702-0.089c0.218,0.169,0.258,0.483,0.089,0.702l-4.353,5.621
					C23.788,50.347,23.64,50.413,23.491,50.413z"/>
			</g>
			<g>
				<path d="M40.511,50.413c-0.149,0-0.297-0.066-0.396-0.194l-4.354-5.621c-0.169-0.218-0.129-0.532,0.089-0.702
					c0.219-0.169,0.532-0.129,0.702,0.089l4.354,5.621c0.169,0.218,0.129,0.532-0.089,0.702
					C40.725,50.379,40.618,50.413,40.511,50.413z"/>
			</g>
		</g>
		<g>
			<path d="M43.874,50.809H20.125c-0.276,0-0.5-0.224-0.5-0.5s0.224-0.5,0.5-0.5h23.749c0.276,0,0.5,0.224,0.5,0.5
				S44.15,50.809,43.874,50.809z"/>
		</g>
	</g>
	<g>
		<path fill="none" stroke="#000000" stroke-linecap="round" stroke-linejoin="round" stroke-miterlimit="10" d="M32,38.019"/>
		<path fill="none" stroke="#000000" stroke-linecap="round" stroke-linejoin="round" stroke-miterlimit="10" d="M39.25,26.671
			c0.276-0.548,0.437-1.165,0.437-1.822c0-2.257-1.846-4.086-4.125-4.086c-1.522,0-2.845,1.204-3.561,2.417
			c-0.716-1.213-2.04-2.417-3.562-2.417c-2.278,0-4.124,1.829-4.124,4.086c0,0.657,0.159,1.274,0.436,1.822h-0.006l0.019,0.025
			C24.977,27.109,32,36.344,32,36.344s7.024-9.234,7.236-9.647l0.02-0.025H39.25z"/>
	</g>
</g>
</svg>
