<?xml version="1.0" encoding="utf-8"?>
<!-- Generator: Adobe Illustrator 16.0.0, SVG Export Plug-In . SVG Version: 6.00 Build 0)  -->
<!DOCTYPE svg PUBLIC "-//W3C//DTD SVG 1.1//EN" "http://www.w3.org/Graphics/SVG/1.1/DTD/svg11.dtd">
<svg version="1.1" id="Layer_1" xmlns="http://www.w3.org/2000/svg" xmlns:xlink="http://www.w3.org/1999/xlink" x="0px" y="0px"
	 width="48px" height="48px" viewBox="0 0 48 48" enable-background="new 0 0 48 48" xml:space="preserve">
<g>
	<g>
		<g>
			<path d="M39.362,33.437H8.627c-0.964,0-1.748-0.785-1.748-1.749V10.95c0-0.964,0.784-1.748,1.748-1.748h30.735
				c0.964,0,1.749,0.784,1.749,1.748v20.738C41.111,32.652,40.326,33.437,39.362,33.437z M8.627,9.702
				c-0.688,0-1.249,0.56-1.249,1.249v20.738c0,0.689,0.56,1.249,1.249,1.249h30.735c0.688,0,1.249-0.56,1.249-1.249V10.95
				c0-0.688-0.561-1.249-1.249-1.249H8.627z"/>
		</g>
		<g>
			<path d="M43.895,38.798c-0.003,0-0.006,0-0.01,0H4.105c-0.098,0-0.186-0.057-0.227-0.145c-0.041-0.088-0.027-0.192,0.036-0.266
				l2.952-3.497c0.047-0.057,0.117-0.089,0.19-0.089h33.876c0.074,0,0.144,0.032,0.191,0.089l2.917,3.455
				c0.063,0.045,0.104,0.119,0.104,0.203C44.145,38.687,44.033,38.798,43.895,38.798z M4.643,38.299h38.705l-2.53-2.997H7.173
				L4.643,38.299z"/>
		</g>
		<g>
			<path d="M40.861,30.806H7.129c-0.138,0-0.25-0.112-0.25-0.25c0-0.138,0.111-0.25,0.25-0.25h33.732c0.138,0,0.25,0.112,0.25,0.25
				C41.111,30.694,40.999,30.806,40.861,30.806z"/>
		</g>
	</g>
	<g>
		<g>
			<path fill="none" stroke="#000000" stroke-linecap="round" stroke-linejoin="round" stroke-miterlimit="10" d="M23.995,28.193"/>
		</g>
		<g>
			<path d="M23.995,27.096c-0.078,0-0.152-0.037-0.199-0.098c-0.947-1.245-5.678-7.47-5.85-7.805
				c-0.018-0.024-0.03-0.05-0.038-0.077c-0.233-0.482-0.352-0.995-0.352-1.526c0-1.952,1.603-3.54,3.572-3.54
				c1.22,0,2.241,0.846,2.867,1.736c0.625-0.891,1.646-1.736,2.867-1.736c1.97,0,3.572,1.588,3.572,3.54
				c0,0.534-0.12,1.05-0.357,1.537c-0.008,0.028-0.021,0.054-0.038,0.079c-0.167,0.322-4.898,6.548-5.844,7.792
				C24.146,27.059,24.073,27.096,23.995,27.096z M18.388,18.96c0.001,0.001,0.002,0.003,0.003,0.004
				c0.154,0.275,3.362,4.521,5.604,7.47c2.242-2.948,5.45-7.194,5.605-7.472c0-0.001,0-0.001,0.001-0.002
				c0.002-0.005,0.004-0.01,0.007-0.015c0.216-0.429,0.326-0.884,0.326-1.355c0-1.676-1.378-3.04-3.072-3.04
				c-1.164,0-2.156,0.982-2.652,1.824c-0.09,0.151-0.34,0.152-0.43,0c-0.496-0.842-1.489-1.824-2.652-1.824
				c-1.694,0-3.072,1.364-3.072,3.04c0,0.472,0.11,0.927,0.325,1.355C18.383,18.95,18.386,18.955,18.388,18.96z"/>
		</g>
	</g>
</g>
</svg>
