<?xml version="1.0" encoding="utf-8"?>
<!-- Generator: Adobe Illustrator 16.0.0, SVG Export Plug-In . SVG Version: 6.00 Build 0)  -->
<!DOCTYPE svg PUBLIC "-//W3C//DTD SVG 1.1//EN" "http://www.w3.org/Graphics/SVG/1.1/DTD/svg11.dtd">
<svg version="1.1" id="Layer_1" xmlns="http://www.w3.org/2000/svg" xmlns:xlink="http://www.w3.org/1999/xlink" x="0px" y="0px"
	 width="48px" height="48px" viewBox="0 0 48 48" enable-background="new 0 0 48 48" xml:space="preserve">
<g>
	<g>
		<g>
			<path d="M39.367,33.749H8.632c-0.964,0-1.748-0.784-1.748-1.748V11.263c0-0.964,0.784-1.749,1.748-1.749h30.735
				c0.964,0,1.749,0.785,1.749,1.749V32C41.116,32.964,40.331,33.749,39.367,33.749z M8.632,10.014c-0.688,0-1.249,0.56-1.249,1.249
				V32c0,0.688,0.56,1.249,1.249,1.249h30.735c0.688,0,1.249-0.56,1.249-1.249V11.263c0-0.689-0.561-1.249-1.249-1.249H8.632z"/>
		</g>
		<g>
			<path d="M40.866,31.118H7.134c-0.138,0-0.25-0.111-0.25-0.25s0.111-0.25,0.25-0.25h33.732c0.138,0,0.25,0.112,0.25,0.25
				S41.004,31.118,40.866,31.118z"/>
		</g>
		<g>
			<g>
				<path d="M17.288,38.174c-0.054,0-0.107-0.017-0.153-0.052c-0.109-0.084-0.129-0.242-0.045-0.351l3.435-4.433
					c0.084-0.109,0.241-0.128,0.35-0.044c0.109,0.084,0.129,0.242,0.045,0.351l-3.434,4.434
					C17.436,38.141,17.362,38.174,17.288,38.174z"/>
			</g>
			<g>
				<path d="M30.712,38.174c-0.075,0-0.148-0.033-0.198-0.096l-3.434-4.434c-0.084-0.109-0.064-0.266,0.044-0.351
					s0.266-0.065,0.351,0.044l3.434,4.433c0.084,0.109,0.064,0.267-0.044,0.351C30.82,38.157,30.766,38.174,30.712,38.174z"/>
			</g>
		</g>
		<g>
			<path d="M33.366,38.486H14.634c-0.138,0-0.25-0.112-0.25-0.25c0-0.138,0.112-0.25,0.25-0.25h18.732c0.138,0,0.25,0.112,0.25,0.25
				C33.616,38.375,33.504,38.486,33.366,38.486z"/>
		</g>
	</g>
	<g>
		<g>
			<path fill="none" stroke="#000000" stroke-linecap="round" stroke-linejoin="round" stroke-miterlimit="10" d="M24,28.542"/>
		</g>
		<g>
			<path d="M24,27.472c-0.078,0-0.151-0.037-0.199-0.099c-0.928-1.219-5.562-7.318-5.731-7.646c-0.017-0.024-0.03-0.05-0.038-0.077
				c-0.229-0.472-0.345-0.975-0.345-1.496c0-1.915,1.572-3.473,3.503-3.473c1.194,0,2.194,0.826,2.809,1.698
				c0.614-0.872,1.613-1.698,2.809-1.698c1.932,0,3.504,1.558,3.504,3.473c0,0.524-0.118,1.03-0.351,1.506
				c-0.007,0.027-0.02,0.053-0.037,0.077c-0.165,0.317-4.799,6.417-5.727,7.636C24.151,27.435,24.078,27.472,24,27.472z
				 M18.512,19.493c0.001,0.002,0.002,0.003,0.002,0.005c0.151,0.27,3.291,4.423,5.486,7.311c2.195-2.887,5.333-7.041,5.486-7.313
				c0,0,0,0,0.001-0.001c0.002-0.005,0.004-0.011,0.007-0.016c0.211-0.418,0.318-0.864,0.318-1.324c0-1.64-1.348-2.974-3.004-2.974
				c-1.138,0-2.108,0.961-2.594,1.784c-0.09,0.152-0.34,0.152-0.43,0c-0.486-0.823-1.457-1.784-2.594-1.784
				c-1.656,0-3.004,1.334-3.004,2.974c0,0.461,0.107,0.907,0.318,1.324C18.507,19.483,18.51,19.488,18.512,19.493z"/>
		</g>
	</g>
</g>
</svg>
