<?xml version="1.0" encoding="utf-8"?>
<!-- Generator: Adobe Illustrator 16.0.0, SVG Export Plug-In . SVG Version: 6.00 Build 0)  -->
<!DOCTYPE svg PUBLIC "-//W3C//DTD SVG 1.1//EN" "http://www.w3.org/Graphics/SVG/1.1/DTD/svg11.dtd">
<svg version="1.1" id="Layer_1" xmlns="http://www.w3.org/2000/svg" xmlns:xlink="http://www.w3.org/1999/xlink" x="0px" y="0px"
	 width="48px" height="48px" viewBox="0 0 48 48" enable-background="new 0 0 48 48" xml:space="preserve">
<g>
	<g>
		<path d="M31.543,43.01H16.457c-0.964,0-1.748-0.785-1.748-1.749V6.739c0-0.964,0.784-1.749,1.748-1.749h15.086
			c0.964,0,1.748,0.785,1.748,1.749v34.523C33.291,42.226,32.507,43.01,31.543,43.01z M16.457,5.49c-0.688,0-1.248,0.56-1.248,1.249
			v34.523c0,0.689,0.56,1.249,1.248,1.249h15.086c0.688,0,1.248-0.56,1.248-1.249V6.739c0-0.689-0.56-1.249-1.248-1.249H16.457z"/>
	</g>
	<g>
		<path d="M32.781,36.155H15.219c-0.138,0-0.249-0.111-0.249-0.25s0.111-0.25,0.249-0.25h17.562c0.138,0,0.249,0.112,0.249,0.25
			S32.919,36.155,32.781,36.155z"/>
	</g>
	<g>
		<circle cx="24" cy="39.453" r="1.02"/>
	</g>
	<g>
		<path fill="none" stroke="#000000" stroke-linecap="round" stroke-linejoin="round" stroke-miterlimit="10" d="M24,28.47"/>
	</g>
	<g>
		<path d="M24,27.507c-0.078,0-0.151-0.037-0.199-0.099c-0.852-1.12-5.109-6.723-5.265-7.026c-0.018-0.023-0.029-0.048-0.037-0.075
			c-0.211-0.436-0.317-0.899-0.317-1.379c0-1.77,1.453-3.21,3.238-3.21c1.095,0,2.012,0.747,2.58,1.543
			c0.568-0.796,1.484-1.543,2.579-1.543c1.786,0,3.239,1.44,3.239,3.21c0,0.483-0.108,0.951-0.323,1.391
			c-0.008,0.026-0.02,0.051-0.035,0.074c-0.151,0.292-4.409,5.895-5.261,7.015C24.151,27.471,24.078,27.507,24,27.507z
			 M18.978,20.15c0.001,0.001,0.002,0.002,0.002,0.004c0.144,0.252,3.008,4.043,5.021,6.69c2.012-2.646,4.875-6.436,5.021-6.693
			c0.002-0.005,0.005-0.01,0.007-0.015c0.192-0.381,0.29-0.788,0.29-1.207c0-1.495-1.229-2.71-2.739-2.71
			c-1.036,0-1.921,0.877-2.364,1.628c-0.09,0.151-0.34,0.152-0.43,0c-0.443-0.751-1.328-1.628-2.365-1.628
			c-1.51,0-2.738,1.216-2.738,2.71c0,0.42,0.098,0.827,0.289,1.207C18.974,20.141,18.976,20.146,18.978,20.15z"/>
	</g>
</g>
</svg>
