<?xml version="1.0" encoding="utf-8"?>
<!-- Generator: Adobe Illustrator 16.0.0, SVG Export Plug-In . SVG Version: 6.00 Build 0)  -->
<!DOCTYPE svg PUBLIC "-//W3C//DTD SVG 1.1//EN" "http://www.w3.org/Graphics/SVG/1.1/DTD/svg11.dtd">
<svg version="1.1" id="Layer_1" xmlns="http://www.w3.org/2000/svg" xmlns:xlink="http://www.w3.org/1999/xlink" x="0px" y="0px"
	 width="48px" height="48px" viewBox="0 0 48 48" enable-background="new 0 0 48 48" xml:space="preserve">
<g>
	<g>
		<g>
			<path d="M28.717,33.657H17.485c-1.515,0-2.748-1.232-2.748-2.747V17.091c0-1.515,1.233-2.747,2.748-2.747h11.231
				c1.515,0,2.748,1.232,2.748,2.747V30.91C31.465,32.424,30.231,33.657,28.717,33.657z M17.485,14.843
				c-1.24,0-2.248,1.008-2.248,2.248V30.91c0,1.239,1.008,2.248,2.248,2.248h11.231c1.24,0,2.248-1.008,2.248-2.248V17.091
				c0-1.239-1.008-2.248-2.248-2.248H17.485z"/>
		</g>
		<g>
			<path d="M33.013,22.057c-0.138,0-0.25-0.111-0.25-0.25v-3.126c0-0.138,0.112-0.25,0.25-0.25c0.139,0,0.25,0.111,0.25,0.25v3.126
				C33.263,21.946,33.151,22.057,33.013,22.057z"/>
		</g>
		<g>
			<path d="M28.215,13.001c-0.138,0-0.249-0.111-0.249-0.25V9.274c0-0.413-0.336-0.75-0.75-0.75h-8.229
				c-0.413,0-0.749,0.336-0.749,0.75v3.478c0,0.138-0.112,0.25-0.25,0.25s-0.25-0.111-0.25-0.25V9.274
				c0-0.689,0.561-1.249,1.249-1.249h8.229c0.689,0,1.249,0.56,1.249,1.249v3.478C28.465,12.89,28.354,13.001,28.215,13.001z"/>
		</g>
		<g>
			<path d="M27.216,39.975h-8.229c-0.688,0-1.249-0.56-1.249-1.249v-3.478c0-0.138,0.112-0.25,0.25-0.25s0.25,0.111,0.25,0.25v3.478
				c0,0.414,0.336,0.75,0.749,0.75h8.229c0.414,0,0.75-0.336,0.75-0.75v-3.478c0-0.138,0.111-0.25,0.249-0.25
				c0.139,0,0.25,0.111,0.25,0.25v3.478C28.465,39.415,27.905,39.975,27.216,39.975z"/>
		</g>
	</g>
	<g>
		<g>
			<path fill="none" stroke="#000000" stroke-linecap="round" stroke-linejoin="round" stroke-miterlimit="10" d="M23.102,28.568"/>
		</g>
		<g>
			<path d="M23.102,27.98c-0.078,0-0.151-0.037-0.199-0.099c-0.827-1.088-3.537-4.656-3.645-4.865
				c-0.016-0.021-0.027-0.045-0.034-0.069c-0.145-0.308-0.219-0.633-0.219-0.971c0-1.266,1.038-2.295,2.314-2.295
				c0.745,0,1.373,0.48,1.782,1.014c0.407-0.534,1.035-1.014,1.781-1.014c1.277,0,2.315,1.029,2.315,2.295
				c0,0.342-0.076,0.675-0.229,0.988c-0.007,0.024-0.019,0.046-0.033,0.067c-0.1,0.193-2.809,3.761-3.636,4.849
				C23.253,27.944,23.18,27.98,23.102,27.98z M19.701,22.788L19.701,22.788c0.111,0.188,2.024,2.72,3.4,4.53
				c1.363-1.794,3.254-4.297,3.398-4.529c0.002-0.004,0.004-0.008,0.006-0.012c0.128-0.253,0.192-0.522,0.192-0.799
				c0-0.99-0.814-1.795-1.815-1.795c-0.684,0-1.271,0.586-1.566,1.087c-0.045,0.076-0.126,0.123-0.215,0.123l0,0
				c-0.088,0-0.17-0.047-0.215-0.123c-0.296-0.501-0.885-1.087-1.567-1.087c-1.001,0-1.814,0.806-1.814,1.795
				c0,0.278,0.064,0.547,0.191,0.799C19.698,22.78,19.699,22.784,19.701,22.788z"/>
		</g>
	</g>
</g>
</svg>
