<?xml version="1.0" encoding="utf-8"?>
<!-- Generator: Adobe Illustrator 16.0.0, SVG Export Plug-In . SVG Version: 6.00 Build 0)  -->
<!DOCTYPE svg PUBLIC "-//W3C//DTD SVG 1.1//EN" "http://www.w3.org/Graphics/SVG/1.1/DTD/svg11.dtd">
<svg version="1.1" id="Layer_1" xmlns="http://www.w3.org/2000/svg" xmlns:xlink="http://www.w3.org/1999/xlink" x="0px" y="0px"
	 width="48px" height="48px" viewBox="0 0 48 48" enable-background="new 0 0 48 48" xml:space="preserve">
<g>
	<g>
		<path d="M36.421,43.758H11.579c-0.965,0-1.749-0.784-1.749-1.748V5.99c0-0.964,0.784-1.749,1.749-1.749h24.842
			c0.964,0,1.749,0.785,1.749,1.749v36.02C38.17,42.974,37.385,43.758,36.421,43.758z M11.579,4.741
			c-0.689,0-1.249,0.561-1.249,1.249v36.02c0,0.688,0.56,1.249,1.249,1.249h24.842c0.688,0,1.249-0.56,1.249-1.249V5.99
			c0-0.688-0.561-1.249-1.249-1.249H11.579z"/>
	</g>
	<g>
		<circle cx="24" cy="40.452" r="1.02"/>
	</g>
	<g>
		<path d="M37.707,36.989H10.293c-0.139,0-0.25-0.112-0.25-0.25c0-0.138,0.111-0.25,0.25-0.25h27.414c0.139,0,0.25,0.112,0.25,0.25
			C37.957,36.877,37.846,36.989,37.707,36.989z"/>
	</g>
	<g>
		<path fill="none" stroke="#000000" stroke-linecap="round" stroke-linejoin="round" stroke-miterlimit="10" d="M24,32.025"/>
	</g>
	<g>
		<path d="M24,30.379c-0.078,0-0.151-0.037-0.199-0.099c-0.815-1.073-7.977-10.492-8.22-10.965c-0.019-0.024-0.031-0.051-0.04-0.079
			c-0.33-0.672-0.497-1.388-0.497-2.129c0-2.689,2.208-4.878,4.922-4.878c1.733,0,3.178,1.246,4.034,2.52
			c0.855-1.274,2.299-2.52,4.033-2.52c2.715,0,4.923,2.188,4.923,4.878c0,0.739-0.167,1.453-0.497,2.126
			c-0.007,0.031-0.021,0.061-0.04,0.087c-0.243,0.468-7.404,9.887-8.22,10.959C24.151,30.342,24.078,30.379,24,30.379z
			 M16.02,19.078c0.002,0.004,0.004,0.007,0.005,0.009c0.191,0.356,4.8,6.453,7.976,10.629c3.176-4.177,7.783-10.273,7.975-10.63
			c0.001-0.002,0.003-0.004,0.005-0.007c0.002-0.007,0.005-0.013,0.009-0.02c0.311-0.616,0.469-1.273,0.469-1.952
			c0-2.414-1.984-4.378-4.424-4.378c-1.681,0-3.107,1.409-3.818,2.616c-0.09,0.151-0.341,0.152-0.43,0
			c-0.712-1.207-2.14-2.616-3.819-2.616c-2.438,0-4.423,1.964-4.423,4.378c0,0.679,0.157,1.336,0.468,1.952
			C16.015,19.065,16.017,19.072,16.02,19.078z"/>
	</g>
</g>
</svg>
