<?xml version="1.0" encoding="utf-8"?>
<!-- Generator: Adobe Illustrator 16.0.0, SVG Export Plug-In . SVG Version: 6.00 Build 0)  -->
<!DOCTYPE svg PUBLIC "-//W3C//DTD SVG 1.1//EN" "http://www.w3.org/Graphics/SVG/1.1/DTD/svg11.dtd">
<svg version="1.1" id="Layer_1" xmlns="http://www.w3.org/2000/svg" xmlns:xlink="http://www.w3.org/1999/xlink" x="0px" y="0px"
	 width="100px" height="100px" viewBox="0 0 100 100" enable-background="new 0 0 100 100" xml:space="preserve">
<g>
	<g>
		<path fill="#B5B5B5" d="M29.505,67.75h51v-25.5h-51V67.75z M49.865,58.087c0-0.552,0.448-1,1-1s1,0.448,1,1v2.039h6.281V56h-6.572
			c-0.942,0-1.709-0.805-1.709-1.795v-4.536c0-0.99,0.767-1.795,1.709-1.795h2.432v-1.79c0-0.552,0.448-1,1-1s1,0.448,1,1v1.79
			h2.432c0.942,0,1.709,0.805,1.709,1.795v2.256c0,0.552-0.448,1-1,1s-1-0.448-1-1v-2.051h-6.281V54h6.572
			c0.942,0,1.709,0.805,1.709,1.795v4.536c0,0.99-0.767,1.795-1.709,1.795h-2.432v1.79c0,0.552-0.448,1-1,1s-1-0.448-1-1v-1.79
			h-2.432c-0.942,0-1.709-0.805-1.709-1.795V58.087z"/>
	</g>
	<path fill="#B5B5B5" d="M27.505,41.25c0-0.552,0.448-1,1-1h46.989v-3h-51v26.5h3.011V41.25z"/>
	<path fill="#B5B5B5" d="M22.495,36.25c0-0.552,0.448-1,1-1h47v-3h-51v26.5h3V36.25z"/>
</g>
</svg>
