<?xml version="1.0" encoding="utf-8"?>
<!-- Generator: Adobe Illustrator 16.0.0, SVG Export Plug-In . SVG Version: 6.00 Build 0)  -->
<!DOCTYPE svg PUBLIC "-//W3C//DTD SVG 1.1//EN" "http://www.w3.org/Graphics/SVG/1.1/DTD/svg11.dtd">
<svg version="1.1" id="Layer_1" xmlns="http://www.w3.org/2000/svg" xmlns:xlink="http://www.w3.org/1999/xlink" x="0px" y="0px"
	 width="100px" height="100px" viewBox="0 0 100 100" enable-background="new 0 0 100 100" xml:space="preserve">
<g>
	<g>
		<path fill="#B5B5B5" d="M62.143,40.33H29.668L17.006,53.722h32.476L62.143,40.33z M50.058,75.151H22.877l-5.986,6.696h32.591
			l14.431-15.264v-5.477L51.03,74.731C50.778,74.999,50.427,75.151,50.058,75.151z M51.03,55.981
			c-0.252,0.268-0.604,0.419-0.973,0.419H22.877l-5.986,6.696h32.591l14.431-15.264v-5.477L51.03,55.981z M50.058,65.776H22.877
			l-5.986,6.696h32.591l14.431-15.264v-5.477L51.03,65.356C50.778,65.624,50.427,65.776,50.058,65.776z"/>
	</g>
	<g>
		<path fill="#B5B5B5" d="M74.896,30.739v5.476l8.214-8.688h-5.178L74.896,30.739z M74.896,40.114v5.476l8.214-8.688h-5.178
			L74.896,40.114z M74.896,49.489v5.476l8.214-8.688h-5.178L74.896,49.489z M50.635,18.153l-10.13,10.714h32.475l10.13-10.714
			H50.635z"/>
	</g>
</g>
</svg>
