<?xml version="1.0" encoding="utf-8"?>
<!-- Generator: Adobe Illustrator 16.0.0, SVG Export Plug-In . SVG Version: 6.00 Build 0)  -->
<!DOCTYPE svg PUBLIC "-//W3C//DTD SVG 1.1//EN" "http://www.w3.org/Graphics/SVG/1.1/DTD/svg11.dtd">
<svg version="1.1" id="Layer_1" xmlns="http://www.w3.org/2000/svg" xmlns:xlink="http://www.w3.org/1999/xlink" x="0px" y="0px"
	 width="100px" height="100px" viewBox="0 0 100 100" enable-background="new 0 0 100 100" xml:space="preserve">
<g>
	<path fill="#B5B5B5" d="M13.165,13.165v73.67h73.67v-73.67H13.165z M62.958,41.122c0,0.552-0.448,1-1,1s-1-0.448-1-1v-6.517
		c0-0.714-0.471-1.295-1.049-1.295H40.091c-0.578,0-1.049,0.581-1.049,1.295v13.098c0,0.715,0.471,1.296,1.049,1.296h19.818
		c1.681,0,3.049,1.479,3.049,3.296v13.098c0,1.817-1.368,3.295-3.049,3.295H51l-0.001,7.057c0,0.552-0.448,1-1,1s-1-0.448-1-1
		L49,68.69h-8.909c-1.681,0-3.049-1.479-3.049-3.295v-6.48c0-0.552,0.448-1,1-1s1,0.448,1,1v6.48c0,0.714,0.471,1.295,1.049,1.295
		h19.818c0.578,0,1.049-0.581,1.049-1.295V52.296c0-0.715-0.471-1.296-1.049-1.296H40.091c-1.681,0-3.049-1.479-3.049-3.296V34.605
		c0-1.817,1.368-3.295,3.049-3.295H49l-0.001-7.057c0-0.552,0.448-1,1-1s1,0.448,1,1L51,31.31h8.909
		c1.681,0,3.049,1.479,3.049,3.295V41.122z"/>
</g>
</svg>
