<?xml version="1.0" encoding="utf-8"?>
<!-- Generator: Adobe Illustrator 16.0.0, SVG Export Plug-In . SVG Version: 6.00 Build 0)  -->
<!DOCTYPE svg PUBLIC "-//W3C//DTD SVG 1.1//EN" "http://www.w3.org/Graphics/SVG/1.1/DTD/svg11.dtd">
<svg version="1.1" id="Layer_1" xmlns="http://www.w3.org/2000/svg" xmlns:xlink="http://www.w3.org/1999/xlink" x="0px" y="0px"
	 width="100px" height="100px" viewBox="0 0 100 100" enable-background="new 0 0 100 100" xml:space="preserve">
<g>
	<g>
		<path fill="#B5B5B5" d="M88.326,27.138c0-11.359-9.209-20.568-20.57-20.568c-7.582,0-14.188,6.009-17.756,12.116
			C46.431,12.579,39.827,6.57,32.244,6.57c-11.361,0-20.57,9.209-20.57,20.568c0,3.302,0.801,6.41,2.178,9.174H13.82l0.098,0.13
			C14.975,38.521,50,85.01,50,85.01s35.025-46.49,36.082-48.569l0.098-0.13h-0.031C87.525,33.547,88.326,30.439,88.326,27.138z
			 M57.883,36.551c0,0.552-0.447,1-1,1s-1-0.448-1-1v-3.75c0-0.199-0.117-0.321-0.181-0.321H44.298
			c-0.063,0-0.181,0.122-0.181,0.321v7.538c0,0.199,0.117,0.321,0.181,0.321h11.404c1.202,0,2.181,1.042,2.181,2.321v7.538
			c0,1.28-0.979,2.321-2.181,2.321H51v3.637c0,0.552-0.447,1-1,1s-1-0.448-1-1v-3.637h-4.702c-1.202,0-2.181-1.042-2.181-2.321
			v-3.729c0-0.552,0.447-1,1-1s1,0.448,1,1v3.729c0,0.199,0.117,0.321,0.181,0.321h11.404c0.063,0,0.181-0.122,0.181-0.321v-7.538
			c0-0.199-0.117-0.321-0.181-0.321H44.298c-1.202,0-2.181-1.042-2.181-2.321v-7.538c0-1.28,0.979-2.321,2.181-2.321H49v-3.637
			c0-0.552,0.447-1,1-1s1,0.448,1,1v3.637h4.702c1.202,0,2.181,1.042,2.181,2.321V36.551z"/>
	</g>
</g>
</svg>
