<?xml version="1.0" encoding="utf-8"?>
<!-- Generator: Adobe Illustrator 16.0.0, SVG Export Plug-In . SVG Version: 6.00 Build 0)  -->
<!DOCTYPE svg PUBLIC "-//W3C//DTD SVG 1.1//EN" "http://www.w3.org/Graphics/SVG/1.1/DTD/svg11.dtd">
<svg version="1.1" id="Layer_1" xmlns="http://www.w3.org/2000/svg" xmlns:xlink="http://www.w3.org/1999/xlink" x="0px" y="0px"
	 width="100px" height="100px" viewBox="0 0 100 100" enable-background="new 0 0 100 100" xml:space="preserve">
<g>
	<path fill="#B5B5B5" d="M50,34.423c-8.318,0-15.086,6.768-15.086,15.086S41.682,64.595,50,64.595s15.086-6.768,15.086-15.086
		S58.318,34.423,50,34.423z M55.141,46.435c0,0.552-0.448,1-1,1s-1-0.448-1-1v-2.051h-6.281v4.125h6.572
		c0.942,0,1.709,0.805,1.709,1.795v4.536c0,0.99-0.767,1.795-1.709,1.795H51v1.79c0,0.552-0.448,1-1,1s-1-0.448-1-1v-1.79h-2.432
		c-0.942,0-1.709-0.805-1.709-1.795v-2.244c0-0.552,0.448-1,1-1s1,0.448,1,1v2.039h6.281v-4.125h-6.572
		c-0.942,0-1.709-0.805-1.709-1.795v-4.536c0-0.99,0.767-1.795,1.709-1.795H49v-1.79c0-0.552,0.448-1,1-1s1,0.448,1,1v1.79h2.432
		c0.942,0,1.709,0.805,1.709,1.795V46.435z"/>
	<path fill="#B5B5B5" d="M50,25.914c-13.303,0-24.086,10.783-24.086,24.086S36.697,74.086,50,74.086S74.086,63.303,74.086,50
		S63.303,25.914,50,25.914z M50,66.595c-9.421,0-17.086-7.665-17.086-17.086S40.579,32.423,50,32.423s17.086,7.665,17.086,17.086
		S59.421,66.595,50,66.595z"/>
</g>
</svg>
