<?xml version="1.0" encoding="utf-8"?>
<!-- Generator: Adobe Illustrator 16.0.0, SVG Export Plug-In . SVG Version: 6.00 Build 0)  -->
<!DOCTYPE svg PUBLIC "-//W3C//DTD SVG 1.1//EN" "http://www.w3.org/Graphics/SVG/1.1/DTD/svg11.dtd">
<svg version="1.1" id="Layer_1" xmlns="http://www.w3.org/2000/svg" xmlns:xlink="http://www.w3.org/1999/xlink" x="0px" y="0px"
	 width="100px" height="100px" viewBox="0 0 100 100" enable-background="new 0 0 100 100" xml:space="preserve">
<g>
	<g>
		<path fill="#B5B5B5" d="M66.634,53.088h-6.675c-0.468,0-0.847-0.379-0.847-0.847c0-0.468,0.379-0.848,0.847-0.848h6.675
			c0.468,0,0.847,0.379,0.847,0.848C67.481,52.708,67.102,53.088,66.634,53.088z"/>
	</g>
	<g>
		<path fill="#B5B5B5" d="M70.605,20.129h-5.863c1.353-4.009,1.766-8.272-1.851-12.461C62.7,7.445,62.433,7.32,62.153,7.32H39.955
			c-0.403,0-0.768,0.262-0.929,0.667c-0.16,0.404-0.083,0.873,0.192,1.194c3.108,3.602,2.598,7.116,1.162,10.948H29.395v25.015
			h41.21V20.129z M32.673,37.684c-0.504,0-0.914-0.409-0.914-0.913s0.41-0.914,0.914-0.914h4.166
			c0.186,0.609,0.441,1.218,0.763,1.827H32.673z M40.041,37.684c-3.065-4.3-1.259-8.52,0.83-13.358
			c1.977-4.581,4.189-9.708,1.17-14.797h19.665c3.582,4.475,1.701,8.832-0.467,13.856c-1.913,4.433-4.031,9.375-1.435,14.299H40.041
			z M67.927,37.684h-5.695c-0.435-0.609-0.779-1.218-1.03-1.827h6.725c0.504,0,0.913,0.409,0.913,0.914S68.431,37.684,67.927,37.684
			z M74.752,20.129h-2.32v25.552c0,0.067-0.024,0.125-0.038,0.188c0.014,0.063,0.038,0.122,0.038,0.189v11.674
			c0,0.505-0.409,0.914-0.914,0.914H28.481c-0.504,0-0.914-0.409-0.914-0.914V46.058c0-0.067,0.024-0.125,0.038-0.189
			c-0.014-0.062-0.038-0.121-0.038-0.188V20.129h-2.32c-2.518,0-4.566,2.049-4.566,4.566v63.418c0,2.518,2.049,4.566,4.566,4.566
			h49.504c2.518,0,4.566-2.048,4.566-4.566V24.695C79.318,22.178,77.27,20.129,74.752,20.129z M35.275,86.57h-4.433v-4.434h4.433
			V86.57z M35.275,78.146h-4.433V73.71h4.433V78.146z M35.275,69.721h-4.433v-4.436h4.433V69.721z M43.883,86.57h-4.434v-4.434
			h4.434V86.57z M43.883,78.146h-4.434V73.71h4.434V78.146z M43.883,69.721h-4.434v-4.436h4.434V69.721z M52.308,86.57h-4.434
			v-4.434h4.434V86.57z M52.308,78.146h-4.434V73.71h4.434V78.146z M52.308,69.721h-4.434v-4.436h4.434V69.721z M60.733,86.57
			h-4.434v-4.434h4.434V86.57z M60.733,78.146h-4.434V73.71h4.434V78.146z M60.733,69.721h-4.434v-4.436h4.434V69.721z
			 M69.158,86.389h-4.434V74.103h4.434V86.389z M69.158,69.721h-4.434v-4.436h4.434V69.721z"/>
	</g>
</g>
</svg>
