<?xml version="1.0" encoding="utf-8"?>
<!-- Generator: Adobe Illustrator 16.0.0, SVG Export Plug-In . SVG Version: 6.00 Build 0)  -->
<!DOCTYPE svg PUBLIC "-//W3C//DTD SVG 1.1//EN" "http://www.w3.org/Graphics/SVG/1.1/DTD/svg11.dtd">
<svg version="1.1" id="Layer_1" xmlns="http://www.w3.org/2000/svg" xmlns:xlink="http://www.w3.org/1999/xlink" x="0px" y="0px"
	 width="100px" height="100px" viewBox="0 0 100 100" enable-background="new 0 0 100 100" xml:space="preserve">
<g>
	<path fill="#B5B5B5" d="M29.286,24.06v23.275c0,21.187,17.621,32.287,20.714,34.071c3.093-1.786,20.714-12.899,20.714-34.071V24.06
		L50,17.889L29.286,24.06z M51,27.489v4.698h6.008c1.351,0,2.449,1.177,2.449,2.623v4.608c0,0.553-0.447,1-1,1s-1-0.447-1-1v-4.608
		c0-0.332-0.21-0.623-0.449-0.623H42.992c-0.239,0-0.449,0.291-0.449,0.623v9.264c0,0.332,0.21,0.624,0.449,0.624h14.016
		c1.351,0,2.449,1.177,2.449,2.624v9.263c0,1.447-1.099,2.624-2.449,2.624H51v4.698c0,0.552-0.447,1-1,1s-1-0.448-1-1v-4.698h-6.008
		c-1.351,0-2.449-1.177-2.449-2.624v-4.582c0-0.553,0.447-1,1-1s1,0.447,1,1v4.582c0,0.332,0.21,0.624,0.449,0.624h14.016
		c0.239,0,0.449-0.292,0.449-0.624v-9.263c0-0.333-0.21-0.624-0.449-0.624H42.992c-1.351,0-2.449-1.178-2.449-2.624v-9.264
		c0-1.446,1.099-2.623,2.449-2.623H49v-4.698c0-0.553,0.447-1,1-1S51,26.937,51,27.489z"/>
	<path fill="#B5B5B5" d="M50,9.147l-29.092,8.667v29.521c0,28.192,24.661,41.231,25.711,41.773l3.384,1.744l3.383-1.746
		c1.049-0.542,25.706-13.6,25.706-41.771V17.814L50,9.147z M72.714,47.335c0,24.33-22.032,35.989-22.255,36.104
		c-0.145,0.074-0.302,0.111-0.459,0.111s-0.314-0.037-0.458-0.111c-0.223-0.115-22.256-11.757-22.256-36.104V23.314
		c0-0.442,0.291-0.832,0.715-0.959l21.714-6.469c0.186-0.056,0.385-0.056,0.57,0l21.714,6.469c0.424,0.127,0.715,0.517,0.715,0.959
		V47.335z"/>
</g>
</svg>
