<?xml version="1.0" encoding="utf-8"?>
<!-- Generator: Adobe Illustrator 16.0.0, SVG Export Plug-In . SVG Version: 6.00 Build 0)  -->
<!DOCTYPE svg PUBLIC "-//W3C//DTD SVG 1.1//EN" "http://www.w3.org/Graphics/SVG/1.1/DTD/svg11.dtd">
<svg version="1.1" id="Layer_1" xmlns="http://www.w3.org/2000/svg" xmlns:xlink="http://www.w3.org/1999/xlink" x="0px" y="0px"
	 width="100px" height="100px" viewBox="0 0 100 100" enable-background="new 0 0 100 100" xml:space="preserve">
<g>
	<g>
		<g>
			<path fill="#B5B5B5" d="M70.384,41.998L51,27.298V7.333c0-0.552-0.447-1-1-1s-1,0.448-1,1v19.965l-19.384,14.7
				c-0.249,0.189-0.396,0.484-0.396,0.797v49.873c0,0.552,0.447,1,1,1h39.559c0.553,0,1-0.448,1-1V42.795
				C70.779,42.482,70.633,42.187,70.384,41.998z M50,36.744c2.209,0,4,1.791,4,4s-1.791,4-4,4s-4-1.791-4-4S47.791,36.744,50,36.744
				z M58.449,62.802c0,0.552-0.447,1-1,1s-1-0.448-1-1v-4.059c0-0.246-0.146-0.43-0.277-0.43H43.828
				c-0.131,0-0.277,0.184-0.277,0.43v8.159c0,0.246,0.146,0.43,0.277,0.43h12.344c1.256,0,2.277,1.09,2.277,2.43v8.159
				c0,1.34-1.021,2.43-2.277,2.43H51v4.019c0,0.552-0.447,1-1,1s-1-0.448-1-1v-4.019h-5.172c-1.256,0-2.277-1.09-2.277-2.43v-4.036
				c0-0.552,0.447-1,1-1s1,0.448,1,1v4.036c0,0.246,0.146,0.43,0.277,0.43h12.344c0.131,0,0.277-0.184,0.277-0.43v-8.159
				c0-0.246-0.146-0.43-0.277-0.43H43.828c-1.256,0-2.277-1.09-2.277-2.43v-8.159c0-1.34,1.021-2.43,2.277-2.43H49v-4.019
				c0-0.552,0.447-1,1-1s1,0.448,1,1v4.019h5.172c1.256,0,2.277,1.09,2.277,2.43V62.802z"/>
		</g>
	</g>
</g>
</svg>
