<?xml version="1.0" encoding="utf-8"?>
<!-- Generator: Adobe Illustrator 16.0.0, SVG Export Plug-In . SVG Version: 6.00 Build 0)  -->
<!DOCTYPE svg PUBLIC "-//W3C//DTD SVG 1.1//EN" "http://www.w3.org/Graphics/SVG/1.1/DTD/svg11.dtd">
<svg version="1.1" id="Layer_1" xmlns="http://www.w3.org/2000/svg" xmlns:xlink="http://www.w3.org/1999/xlink" x="0px" y="0px"
	 width="100px" height="100px" viewBox="0 0 100 100" enable-background="new 0 0 100 100" xml:space="preserve">
<g>
	<path fill="#B5B5B5" d="M88.621,20.901c0-1.65-1.35-3-3-3H14.379c-1.65,0-3,1.35-3,3v44.327h77.242V20.901z M57.476,38.609
		c0,0.552-0.447,1-1,1s-1-0.448-1-1v-3.529c0-0.153-0.083-0.238-0.109-0.244h-5.36c-0.004,0-0.008,0-0.012,0h-5.36
		c-0.026,0.006-0.109,0.091-0.109,0.244v7.093c0,0.154,0.083,0.238,0.109,0.244h10.732c1.163,0,2.109,1.006,2.109,2.244v7.093
		c0,1.237-0.946,2.243-2.109,2.243H51v3.363c0,0.552-0.447,1-1,1s-1-0.448-1-1v-3.363h-4.366c-1.163,0-2.109-1.006-2.109-2.243
		v-3.509c0-0.552,0.447-1,1-1s1,0.448,1,1v3.509c0,0.152,0.083,0.237,0.109,0.243h10.732c0.026-0.006,0.109-0.091,0.109-0.243
		v-7.093c0-0.153-0.083-0.238-0.109-0.244H44.634c-1.163,0-2.109-1.006-2.109-2.244v-7.093c0-1.237,0.946-2.244,2.109-2.244H49
		v-3.363c0-0.552,0.447-1,1-1s1,0.448,1,1v3.363h4.366c1.163,0,2.109,1.006,2.109,2.244V38.609z"/>
	<path fill="#B5B5B5" d="M11.379,69.25c0,1.65,1.35,3,3,3h26.552l-6.08,7.849h-6.297c-0.553,0-1,0.448-1,1s0.447,1,1,1h42.893
		c0.553,0,1-0.448,1-1s-0.447-1-1-1h-6.297l-6.08-7.849h26.552c1.65,0,3-1.35,3-3v-2.023H11.379V69.25z"/>
</g>
</svg>
