<?xml version="1.0" encoding="utf-8"?>
<!-- Generator: Adobe Illustrator 16.0.0, SVG Export Plug-In . SVG Version: 6.00 Build 0)  -->
<!DOCTYPE svg PUBLIC "-//W3C//DTD SVG 1.1//EN" "http://www.w3.org/Graphics/SVG/1.1/DTD/svg11.dtd">
<svg version="1.1" id="Layer_1" xmlns="http://www.w3.org/2000/svg" xmlns:xlink="http://www.w3.org/1999/xlink" x="0px" y="0px"
	 width="100px" height="100px" viewBox="0 0 100 100" enable-background="new 0 0 100 100" xml:space="preserve">
<g>
	<path fill="#B5B5B5" d="M50,41.108c-8.407,0-15.246,6.839-15.246,15.246S41.593,71.601,50,71.601s15.246-6.839,15.246-15.246
		S58.407,41.108,50,41.108z M55.313,53.152c0,0.552-0.448,1-1,1s-1-0.448-1-1v-2.179h-6.627v4.381h6.888
		c0.959,0,1.739,0.82,1.739,1.829v4.725c0,1.008-0.78,1.828-1.739,1.828H51v1.906c0,0.552-0.448,1-1,1s-1-0.448-1-1v-1.906h-2.574
		c-0.959,0-1.739-0.82-1.739-1.828V59.57c0-0.552,0.448-1,1-1s1,0.448,1,1v2.166h6.627v-4.381h-6.888
		c-0.959,0-1.739-0.82-1.739-1.829v-4.725c0-1.008,0.78-1.828,1.739-1.828H49v-1.906c0-0.552,0.448-1,1-1s1,0.448,1,1v1.906h2.574
		c0.959,0,1.739,0.82,1.739,1.828V53.152z"/>
	<path fill="#B5B5B5" d="M87.25,30.716H67.5V19.007c0-0.552-0.448-1-1-1h-33c-0.552,0-1,0.448-1,1v11.709H12.75
		c-0.552,0-1,0.448-1,1v49.277c0,0.552,0.448,1,1,1h74.5c0.552,0,1-0.448,1-1V31.716C88.25,31.164,87.802,30.716,87.25,30.716z
		 M40.5,26.007h19v4.709h-19V26.007z M50,73.601c-9.51,0-17.246-7.736-17.246-17.246S40.49,39.108,50,39.108
		s17.246,7.736,17.246,17.246S59.51,73.601,50,73.601z"/>
</g>
</svg>
