<?xml version="1.0" encoding="utf-8"?>
<!-- Generator: Adobe Illustrator 16.0.0, SVG Export Plug-In . SVG Version: 6.00 Build 0)  -->
<!DOCTYPE svg PUBLIC "-//W3C//DTD SVG 1.1//EN" "http://www.w3.org/Graphics/SVG/1.1/DTD/svg11.dtd">
<svg version="1.1" id="Layer_1" xmlns="http://www.w3.org/2000/svg" xmlns:xlink="http://www.w3.org/1999/xlink" x="0px" y="0px"
	 width="100px" height="100px" viewBox="0 0 100 100" enable-background="new 0 0 100 100" xml:space="preserve">
<g>
	<path fill="#B5B5B5" d="M89.647,68.482l-5.927-10.267c-0.179-0.31-0.509-0.5-0.866-0.5s-0.688,0.19-0.866,0.5l-5.928,10.267
		c-0.276,0.478-0.112,1.09,0.366,1.366c0.157,0.091,0.329,0.134,0.499,0.134c0.346,0,0.682-0.179,0.867-0.5l4.062-7.035v20.839
		c0,0.552,0.447,1,1,1s1-0.448,1-1V62.448l4.061,7.034c0.276,0.479,0.889,0.641,1.366,0.366
		C89.76,69.572,89.924,68.96,89.647,68.482z"/>
	<g>
		<path fill="#B5B5B5" d="M84.781,15.714H15.219c-2.757,0-5,2.243-5,5v20.181c0,2.757,2.243,5,5,5h14.088v34.688
			c0,1.667,1.357,3.024,3.025,3.024h35.336c1.668,0,3.025-1.357,3.025-3.024V45.895h14.088c2.757,0,5-2.243,5-5V20.714
			C89.781,17.957,87.538,15.714,84.781,15.714z M29.307,31.804h-7.865c-0.553,0-1-0.448-1-1s0.447-1,1-1h7.865V31.804z
			 M31.307,80.583V29.804h5.665v51.803h-4.64C31.767,81.607,31.307,81.147,31.307,80.583z M68.693,80.583
			c0,0.565-0.46,1.024-1.025,1.024H38.972V29.804h29.722V80.583z M78.559,31.804h-7.865v-2h7.865c0.553,0,1,0.448,1,1
			S79.111,31.804,78.559,31.804z M82.559,24.804H71.75c-0.553,0-1-0.448-1-1s0.447-1,1-1h10.809c0.553,0,1,0.448,1,1
			S83.111,24.804,82.559,24.804z"/>
	</g>
	<g>
		<path fill="#B5B5B5" d="M60.548,72.357h-9.199c-0.553,0-1-0.448-1-1V55.794c0-0.552,0.447-1,1-1h9.197c0.552,0,1,0.448,1,1
			l0.002,15.563c0,0.265-0.105,0.52-0.293,0.707S60.813,72.357,60.548,72.357z M52.349,70.357h7.199l-0.002-13.563h-7.197V70.357z"
			/>
	</g>
</g>
</svg>
