<?xml version="1.0" encoding="utf-8"?>
<!-- Generator: Adobe Illustrator 16.0.0, SVG Export Plug-In . SVG Version: 6.00 Build 0)  -->
<!DOCTYPE svg PUBLIC "-//W3C//DTD SVG 1.1//EN" "http://www.w3.org/Graphics/SVG/1.1/DTD/svg11.dtd">
<svg version="1.1" id="Layer_1" xmlns="http://www.w3.org/2000/svg" xmlns:xlink="http://www.w3.org/1999/xlink" x="0px" y="0px"
	 width="100px" height="100px" viewBox="0 0 100 100" enable-background="new 0 0 100 100" xml:space="preserve">
<g>
	<g>
		<g>
			<path fill="#B5B5B5" d="M8.5,28.467v43.066h83V28.467H8.5z M57.705,45.022c0,0.552-0.448,1-1,1s-1-0.448-1-1v-3.654
				c0-0.179-0.103-0.287-0.148-0.287H44.444c-0.045,0-0.148,0.108-0.148,0.287v7.344c0,0.179,0.103,0.288,0.148,0.288h11.113
				c1.185,0,2.148,1.026,2.148,2.288v7.344c0,1.261-0.964,2.287-2.148,2.287H51v3.518c0,0.552-0.448,1-1,1s-1-0.448-1-1v-3.518
				h-4.556c-1.185,0-2.148-1.026-2.148-2.287v-3.633c0-0.552,0.448-1,1-1s1,0.448,1,1v3.633c0,0.179,0.103,0.287,0.148,0.287h11.113
				c0.045,0,0.148-0.108,0.148-0.287v-7.344c0-0.179-0.103-0.288-0.148-0.288H44.444c-1.185,0-2.148-1.026-2.148-2.288v-7.344
				c0-1.261,0.964-2.287,2.148-2.287H49L49,35.563c0-0.552,0.447-1,1-1c0.552,0,1,0.447,1,1L51,39.081h4.556
				c1.185,0,2.148,1.026,2.148,2.287V45.022z"/>
		</g>
	</g>
	<g>
		<path fill="#B5B5B5" d="M50,50"/>
		<path fill="none" stroke="#919191" stroke-width="2" stroke-linecap="round" stroke-linejoin="round" stroke-miterlimit="10" d="
			M50,50"/>
	</g>
	<g>
		<path fill="#B5B5B5" d="M50,50"/>
		<path fill="none" stroke="#919191" stroke-width="2" stroke-linecap="round" stroke-linejoin="round" stroke-miterlimit="10" d="
			M50,50"/>
	</g>
	<g>
		<path fill="#B5B5B5" d="M50,50"/>
		<path fill="none" stroke="#919191" stroke-width="2" stroke-linecap="round" stroke-linejoin="round" stroke-miterlimit="10" d="
			M50,50"/>
	</g>
	<g>
		<path fill="#B5B5B5" d="M50,50"/>
		<path fill="none" stroke="#919191" stroke-width="2" stroke-linecap="round" stroke-linejoin="round" stroke-miterlimit="10" d="
			M50,50"/>
	</g>
</g>
</svg>
