<?xml version="1.0" encoding="utf-8"?>
<!-- Generator: Adobe Illustrator 16.0.0, SVG Export Plug-In . SVG Version: 6.00 Build 0)  -->
<!DOCTYPE svg PUBLIC "-//W3C//DTD SVG 1.1//EN" "http://www.w3.org/Graphics/SVG/1.1/DTD/svg11.dtd">
<svg version="1.1" id="Layer_1" xmlns="http://www.w3.org/2000/svg" xmlns:xlink="http://www.w3.org/1999/xlink" x="0px" y="0px"
	 width="100px" height="100px" viewBox="0 0 100 100" enable-background="new 0 0 100 100" xml:space="preserve">
<g>
	<polygon fill="#B5B5B5" points="49.99,13.51 66.164,25.14 82.338,36.771 49.99,36.771 17.643,36.771 33.816,25.14 	"/>
	<g>
		<path fill="#B5B5B5" d="M82.357,37.771c-0.005,0-0.012,0-0.02,0H17.643c-0.435,0-0.818-0.28-0.952-0.693
			c-0.133-0.413,0.016-0.865,0.368-1.119l32.348-23.26c0.35-0.251,0.818-0.251,1.168,0l32.235,23.18
			c0.325,0.165,0.548,0.503,0.548,0.893C83.357,37.322,82.91,37.771,82.357,37.771z"/>
	</g>
	<g>
		<path fill="#B5B5B5" d="M82.24,42.49h-64.5c-0.553,0-1,0.448-1,1v43c0,0.553,0.447,1,1,1h64.5c0.553,0,1-0.447,1-1v-43
			C83.24,42.938,82.793,42.49,82.24,42.49z M57.873,59.881c0,0.553-0.447,1-1,1s-1-0.447-1-1v-3.75c0-0.199-0.117-0.321-0.181-0.321
			H44.288c-0.063,0-0.181,0.122-0.181,0.321v7.538c0,0.199,0.117,0.321,0.181,0.321h11.404c1.202,0,2.181,1.042,2.181,2.321v7.538
			c0,1.28-0.979,2.321-2.181,2.321H50.99v3.638c0,0.552-0.447,1-1,1s-1-0.448-1-1v-3.638h-4.702c-1.202,0-2.181-1.041-2.181-2.321
			v-3.729c0-0.552,0.447-1,1-1s1,0.448,1,1v3.729c0,0.199,0.117,0.321,0.181,0.321h11.404c0.063,0,0.181-0.122,0.181-0.321v-7.538
			c0-0.199-0.117-0.321-0.181-0.321H44.288c-1.202,0-2.181-1.041-2.181-2.321v-7.538c0-1.279,0.979-2.321,2.181-2.321h4.702v-3.637
			c0-0.553,0.447-1,1-1s1,0.447,1,1v3.637h4.702c1.202,0,2.181,1.042,2.181,2.321V59.881z"/>
	</g>
</g>
</svg>
