<?xml version="1.0" encoding="utf-8"?>
<!-- Generator: Adobe Illustrator 16.0.0, SVG Export Plug-In . SVG Version: 6.00 Build 0)  -->
<!DOCTYPE svg PUBLIC "-//W3C//DTD SVG 1.1//EN" "http://www.w3.org/Graphics/SVG/1.1/DTD/svg11.dtd">
<svg version="1.1" id="Layer_1" xmlns="http://www.w3.org/2000/svg" xmlns:xlink="http://www.w3.org/1999/xlink" x="0px" y="0px"
	 width="100px" height="100px" viewBox="0 0 100 100" enable-background="new 0 0 100 100" xml:space="preserve">
<g>
	<path fill="#B5B5B5" d="M20.583,9.666v80.669h58.834V9.666H20.583z M35.897,80.006h-6.249v-6.249h6.249V80.006z M35.897,68.133
		h-6.249v-6.25h6.249V68.133z M35.897,56.258h-6.249v-6.25h6.249V56.258z M35.897,44.385h-6.249v-6.25h6.249V44.385z M47.771,80.006
		h-6.249v-6.249h6.249V80.006z M47.771,68.133h-6.249v-6.25h6.249V68.133z M47.771,56.258h-6.249v-6.25h6.249V56.258z
		 M47.771,44.385h-6.249v-6.25h6.249V44.385z M59.645,80.006h-6.249v-6.249h6.249V80.006z M59.645,68.133h-6.249v-6.25h6.249V68.133
		z M59.645,56.258h-6.249v-6.25h6.249V56.258z M59.645,44.385h-6.249v-6.25h6.249V44.385z M71.518,80.006h-6.249V62.691h6.249
		V80.006z M71.518,56.258h-6.249v-6.25h6.249V56.258z M71.518,44.385h-6.249v-6.25h6.249V44.385z M71.518,31.905h-41.87V19.994
		h41.87V31.905z"/>
</g>
</svg>
