<?xml version="1.0" encoding="utf-8"?>
<!-- Generator: Adobe Illustrator 16.0.0, SVG Export Plug-In . SVG Version: 6.00 Build 0)  -->
<!DOCTYPE svg PUBLIC "-//W3C//DTD SVG 1.1//EN" "http://www.w3.org/Graphics/SVG/1.1/DTD/svg11.dtd">
<svg version="1.1" id="Layer_1" xmlns="http://www.w3.org/2000/svg" xmlns:xlink="http://www.w3.org/1999/xlink" x="0px" y="0px"
	 width="100px" height="100px" viewBox="0 0 100 100" enable-background="new 0 0 100 100" xml:space="preserve">
<g>
	<g>
		<path fill="#B5B5B5" d="M33.127,22.852c0,1.654,1.346,3,3,3h5.758v-3.974c0-1.654,1.346-3,3-3h5.948c1.654,0,3,1.346,3,3v3.974
			h5.758c1.654,0,3-1.346,3-3v-9.068H33.127V22.852z"/>
		<path fill="#B5B5B5" d="M59.591,7.244H36.127c-1.654,0-3,1.346-3,3v1.54h29.463v-1.54C62.591,8.59,61.245,7.244,59.591,7.244z"/>
	</g>
	<g>
		<path fill="#B5B5B5" d="M37.958,88.756c0,2.206,1.794,4,4,4h20.914c2.206,0,4-1.794,4-4v-6.203H37.958V88.756z M52.416,84.96
			c1.198,0,2.169,0.971,2.169,2.168c0,1.198-0.971,2.168-2.169,2.168s-2.169-0.97-2.169-2.168
			C50.247,85.931,51.217,84.96,52.416,84.96z M62.873,34.909H48.859v-5.792h1.124c1.182,0,2.142-0.961,2.142-2.142v-4.248
			c0-1.182-0.96-2.142-2.142-2.142h-4.248c-1.181,0-2.142,0.96-2.142,2.142v4.248c0,1.181,0.961,2.142,2.142,2.142h1.124v5.792h-4.9
			c-2.206,0-4,1.794-4,4v41.644h28.914V38.909C66.873,36.704,65.078,34.909,62.873,34.909z M59.704,54.572c0,0.552-0.448,1-1,1
			s-1-0.448-1-1v-3.426c0-0.131-0.067-0.201-0.086-0.209l-5.162,0c-0.026,0.001-0.053,0.001-0.08,0l-5.171,0.001
			c-0.013,0.008-0.077,0.078-0.077,0.208v6.887c0,0.13,0.064,0.2,0.086,0.209l10.412-0.001c1.146,0,2.078,0.99,2.078,2.208v6.887
			c0,1.217-0.932,2.207-2.078,2.207h-4.21v3.236c0,0.552-0.448,1-1,1s-1-0.448-1-1v-3.236h-4.21c-1.146,0-2.077-0.99-2.077-2.207
			v-3.407c0-0.552,0.448-1,1-1s1,0.448,1,1v3.407c0,0.131,0.067,0.201,0.086,0.208l10.412-0.001c0.01-0.006,0.078-0.076,0.078-0.207
			v-6.887c0-0.131-0.067-0.201-0.086-0.209L47.205,60.24c-1.146,0-2.077-0.99-2.077-2.208v-6.887c0-1.217,0.932-2.208,2.077-2.208
			h4.21v-3.237c0-0.552,0.448-1,1-1s1,0.448,1,1v3.237h4.21c1.146,0,2.078,0.99,2.078,2.208V54.572z"/>
	</g>
</g>
</svg>
