<?xml version="1.0" encoding="utf-8"?>
<!-- Generator: Adobe Illustrator 16.0.0, SVG Export Plug-In . SVG Version: 6.00 Build 0)  -->
<!DOCTYPE svg PUBLIC "-//W3C//DTD SVG 1.1//EN" "http://www.w3.org/Graphics/SVG/1.1/DTD/svg11.dtd">
<svg version="1.1" id="Layer_1" xmlns="http://www.w3.org/2000/svg" xmlns:xlink="http://www.w3.org/1999/xlink" x="0px" y="0px"
	 width="100px" height="100px" viewBox="0 0 100 100" enable-background="new 0 0 100 100" xml:space="preserve">
<g>
	<path fill="#B5B5B5" d="M31.9,84.557c0,1.65,1.35,3,3,3H65.1c1.65,0,3-1.35,3-3v-9.723H31.9V84.557z M50,79
		c1.289,0,2.334,1.045,2.334,2.333c0,1.289-1.045,2.334-2.334,2.334s-2.334-1.045-2.334-2.334C47.666,80.045,48.711,79,50,79z
		 M65.1,12.443H34.9c-1.65,0-3,1.35-3,3v57.391H68.1V15.443C68.1,13.793,66.75,12.443,65.1,12.443z M59.457,37.545
		c0,0.552-0.447,1-1,1s-1-0.448-1-1v-4.608c0-0.333-0.21-0.624-0.449-0.624H42.992c-0.239,0-0.449,0.292-0.449,0.624v9.263
		c0,0.333,0.21,0.624,0.449,0.624h14.016c1.351,0,2.449,1.177,2.449,2.624v9.264c0,1.446-1.099,2.623-2.449,2.623H51v4.698
		c0,0.552-0.447,1-1,1s-1-0.448-1-1v-4.698h-6.008c-1.351,0-2.449-1.177-2.449-2.623v-4.583c0-0.552,0.447-1,1-1s1,0.448,1,1v4.583
		c0,0.332,0.21,0.623,0.449,0.623h14.016c0.239,0,0.449-0.291,0.449-0.623v-9.264c0-0.333-0.21-0.624-0.449-0.624H42.992
		c-1.351,0-2.449-1.177-2.449-2.624v-9.263c0-1.447,1.099-2.624,2.449-2.624H49v-4.698c0-0.552,0.447-1,1-1s1,0.448,1,1v4.698h6.008
		c1.351,0,2.449,1.177,2.449,2.624V37.545z"/>
</g>
</svg>
