<?xml version="1.0" encoding="utf-8"?>
<!-- Generator: Adobe Illustrator 16.0.0, SVG Export Plug-In . SVG Version: 6.00 Build 0)  -->
<!DOCTYPE svg PUBLIC "-//W3C//DTD SVG 1.1//EN" "http://www.w3.org/Graphics/SVG/1.1/DTD/svg11.dtd">
<svg version="1.1" id="Layer_1" xmlns="http://www.w3.org/2000/svg" xmlns:xlink="http://www.w3.org/1999/xlink" x="0px" y="0px"
	 width="100px" height="100px" viewBox="0 0 100 100" enable-background="new 0 0 100 100" xml:space="preserve">
<g>
	<g>
		<path fill="#B5B5B5" d="M66.25,59.652v2.385c0,1.848,3.183,3.906,7.75,3.906s7.75-2.059,7.75-3.906v-2.385
			c-1.768,1.4-4.552,2.292-7.75,2.292S68.018,61.052,66.25,59.652z M66.25,53.652v2.385c0,1.848,3.183,3.906,7.75,3.906
			s7.75-2.059,7.75-3.906v-2.385c-1.768,1.4-4.552,2.292-7.75,2.292S68.018,55.052,66.25,53.652z M66.25,71.671v2.292
			c0,1.848,3.183,3.906,7.75,3.906s7.75-2.059,7.75-3.906v-2.292c-1.768,1.4-4.552,2.292-7.75,2.292S68.018,73.071,66.25,71.671z
			 M74,29.944c4.567,0,7.75-2.059,7.75-3.906s-3.183-3.906-7.75-3.906s-7.75,2.059-7.75,3.906S69.433,29.944,74,29.944z
			 M66.25,65.652v2.404c0,1.848,3.183,3.906,7.75,3.906s7.75-2.059,7.75-3.906v-2.404c-1.768,1.4-4.552,2.292-7.75,2.292
			S68.018,67.052,66.25,65.652z M66.25,29.652v2.385c0,1.848,3.183,3.906,7.75,3.906s7.75-2.059,7.75-3.906v-2.385
			c-1.768,1.4-4.552,2.292-7.75,2.292S68.018,31.052,66.25,29.652z M66.25,35.652v2.385c0,1.848,3.183,3.906,7.75,3.906
			s7.75-2.059,7.75-3.906v-2.385c-1.768,1.4-4.552,2.292-7.75,2.292S68.018,37.052,66.25,35.652z M66.25,41.652v2.385
			c0,1.848,3.183,3.906,7.75,3.906s7.75-2.059,7.75-3.906v-2.385c-1.768,1.4-4.552,2.292-7.75,2.292S68.018,43.052,66.25,41.652z
			 M66.25,47.652v2.385c0,1.848,3.183,3.906,7.75,3.906s7.75-2.059,7.75-3.906v-2.385c-1.768,1.4-4.552,2.292-7.75,2.292
			S68.018,49.052,66.25,47.652z"/>
	</g>
	<g>
		<path fill="#B5B5B5" d="M43.25,59.652v2.385c0,1.848,3.183,3.906,7.75,3.906s7.75-2.059,7.75-3.906v-2.385
			c-1.768,1.4-4.552,2.292-7.75,2.292S45.018,61.052,43.25,59.652z M43.25,71.671v2.292c0,1.848,3.183,3.906,7.75,3.906
			s7.75-2.059,7.75-3.906v-2.292c-1.768,1.4-4.552,2.292-7.75,2.292S45.018,73.071,43.25,71.671z M51,47.944
			c4.567,0,7.75-2.059,7.75-3.906s-3.183-3.906-7.75-3.906s-7.75,2.059-7.75,3.906S46.433,47.944,51,47.944z M43.25,65.652v2.404
			c0,1.848,3.183,3.906,7.75,3.906s7.75-2.059,7.75-3.906v-2.404c-1.768,1.4-4.552,2.292-7.75,2.292S45.018,67.052,43.25,65.652z
			 M43.25,47.652v2.385c0,1.848,3.183,3.906,7.75,3.906s7.75-2.059,7.75-3.906v-2.385c-1.768,1.4-4.552,2.292-7.75,2.292
			S45.018,49.052,43.25,47.652z M43.25,53.652v2.385c0,1.848,3.183,3.906,7.75,3.906s7.75-2.059,7.75-3.906v-2.385
			c-1.768,1.4-4.552,2.292-7.75,2.292S45.018,55.052,43.25,53.652z"/>
	</g>
	<g>
		<path fill="#B5B5B5" d="M20.25,71.671v2.292c0,1.848,3.183,3.906,7.75,3.906s7.75-2.059,7.75-3.906v-2.292
			c-1.768,1.4-4.552,2.292-7.75,2.292S22.018,73.071,20.25,71.671z M28,58.131c-4.567,0-7.75,2.059-7.75,3.906
			s3.183,3.906,7.75,3.906s7.75-2.059,7.75-3.906S32.567,58.131,28,58.131z M20.25,65.652v2.404c0,1.848,3.183,3.906,7.75,3.906
			s7.75-2.059,7.75-3.906v-2.404c-1.768,1.4-4.552,2.292-7.75,2.292S22.018,67.052,20.25,65.652z M18.25,62.056
			c0-0.002,0.001-0.003,0.001-0.005c0-0.004-0.001-0.009-0.001-0.013V62.056z M37.749,62.051c0,0.002,0.001,0.003,0.001,0.005
			v-0.019C37.75,62.042,37.749,62.046,37.749,62.051z"/>
	</g>
</g>
</svg>
