<?xml version="1.0" encoding="utf-8"?>
<!-- Generator: Adobe Illustrator 16.0.0, SVG Export Plug-In . SVG Version: 6.00 Build 0)  -->
<!DOCTYPE svg PUBLIC "-//W3C//DTD SVG 1.1//EN" "http://www.w3.org/Graphics/SVG/1.1/DTD/svg11.dtd">
<svg version="1.1" id="Layer_1" xmlns="http://www.w3.org/2000/svg" xmlns:xlink="http://www.w3.org/1999/xlink" x="0px" y="0px"
	 width="100px" height="100px" viewBox="0 0 100 100" enable-background="new 0 0 100 100" xml:space="preserve">
<g>
	<path fill="#B5B5B5" d="M3.623,50"/>
	<path fill="none" stroke="#919191" stroke-width="1.5" stroke-linecap="round" stroke-linejoin="round" stroke-miterlimit="10" d="
		M3.623,50"/>
</g>
<g>
	<path fill="#B5B5B5" d="M82.98,53.297H65.886c-1.103,0-2,0.897-2,2v6.515c0,1.103,0.897,2,2,2H82.98c1.103,0,2-0.897,2-2v-6.515
		C84.98,54.194,84.083,53.297,82.98,53.297z M72.248,61.388c-1.564,0-2.833-1.269-2.833-2.833s1.269-2.833,2.833-2.833
		s2.833,1.269,2.833,2.833S73.812,61.388,72.248,61.388z M70.812,39.146V24.742c0-0.234-0.081-0.432-0.228-0.557
		c-0.147-0.125-0.354-0.174-0.587-0.136L16.154,32.78c-0.604,0.098-1.135,0.721-1.135,1.333v5.217c0.314-0.112,0.647-0.184,1-0.184
		H70.812z M76.16,66.812c0,0.552-0.447,1-1,1s-1-0.448-1-1v-1h-8.274c-2.206,0-4-1.794-4-4v-6.515c0-2.206,1.794-4,4-4h8.274v-1
		c0-0.552,0.447-1,1-1s1,0.448,1,1v1h3v-9.151c0-0.551-0.448-1-1-1H16.02c-0.552,0-1,0.449-1,1v32.817c0,0.551,0.448,1,1,1H78.16
		c0.552,0,1-0.449,1-1v-9.151h-3V66.812z M71.561,44.146h1.6c1.207,0,2.292,0.721,2.764,1.837c0.215,0.509-0.022,1.095-0.531,1.31
		c-0.128,0.054-0.26,0.08-0.39,0.08c-0.39,0-0.76-0.229-0.921-0.611c-0.158-0.374-0.52-0.615-0.922-0.615h-1.6c-0.553,0-1-0.448-1-1
		S71.008,44.146,71.561,44.146z M63.672,44.146h3.944c0.553,0,1,0.448,1,1s-0.447,1-1,1h-3.944c-0.553,0-1-0.448-1-1
		S63.119,44.146,63.672,44.146z M18.02,52.629c0-0.552,0.447-1,1-1s1,0.448,1,1v3.944c0,0.552-0.447,1-1,1s-1-0.448-1-1V52.629z
		 M18.02,60.518c0-0.552,0.447-1,1-1s1,0.448,1,1v3.944c0,0.552-0.447,1-1,1s-1-0.448-1-1V60.518z M21.213,72.192
		c-0.155,0.392-0.531,0.63-0.929,0.63c-0.123,0-0.249-0.023-0.37-0.071c-1.15-0.458-1.895-1.553-1.895-2.788v-1.557
		c0-0.552,0.447-1,1-1s1,0.448,1,1v1.557c0,0.405,0.255,0.779,0.635,0.93C21.167,71.098,21.418,71.679,21.213,72.192z
		 M20.663,46.213c-0.385,0.149-0.644,0.524-0.644,0.933v1.539c0,0.552-0.447,1-1,1s-1-0.448-1-1v-1.539
		c0-1.228,0.771-2.353,1.921-2.798c0.511-0.202,1.093,0.056,1.294,0.571C21.434,45.434,21.178,46.014,20.663,46.213z M28.154,72.963
		H24.21c-0.553,0-1-0.448-1-1s0.447-1,1-1h3.944c0.553,0,1,0.448,1,1S28.707,72.963,28.154,72.963z M28.174,46.146h-3.944
		c-0.553,0-1-0.448-1-1s0.447-1,1-1h3.944c0.553,0,1,0.448,1,1S28.727,46.146,28.174,46.146z M36.043,72.963h-3.944
		c-0.553,0-1-0.448-1-1s0.447-1,1-1h3.944c0.553,0,1,0.448,1,1S36.596,72.963,36.043,72.963z M36.062,46.146h-3.944
		c-0.553,0-1-0.448-1-1s0.447-1,1-1h3.944c0.553,0,1,0.448,1,1S36.615,46.146,36.062,46.146z M43.932,72.963h-3.944
		c-0.553,0-1-0.448-1-1s0.447-1,1-1h3.944c0.553,0,1,0.448,1,1S44.484,72.963,43.932,72.963z M43.951,46.146h-3.944
		c-0.553,0-1-0.448-1-1s0.447-1,1-1h3.944c0.553,0,1,0.448,1,1S44.504,46.146,43.951,46.146z M51.82,72.963h-3.944
		c-0.553,0-1-0.448-1-1s0.447-1,1-1h3.944c0.553,0,1,0.448,1,1S52.373,72.963,51.82,72.963z M51.84,46.146h-3.944
		c-0.553,0-1-0.448-1-1s0.447-1,1-1h3.944c0.553,0,1,0.448,1,1S52.393,46.146,51.84,46.146z M59.709,72.963h-3.944
		c-0.553,0-1-0.448-1-1s0.447-1,1-1h3.944c0.553,0,1,0.448,1,1S60.262,72.963,59.709,72.963z M59.728,46.146h-3.943
		c-0.553,0-1-0.448-1-1s0.447-1,1-1h3.943c0.553,0,1,0.448,1,1S60.28,46.146,59.728,46.146z M67.598,72.963h-3.944
		c-0.553,0-1-0.448-1-1s0.447-1,1-1h3.944c0.553,0,1,0.448,1,1S68.15,72.963,67.598,72.963z M75.913,71.154
		c-0.479,1.099-1.559,1.809-2.753,1.809h-1.618c-0.553,0-1-0.448-1-1s0.447-1,1-1h1.618c0.397,0,0.759-0.238,0.919-0.607
		c0.22-0.506,0.807-0.741,1.316-0.518C75.901,70.059,76.134,70.648,75.913,71.154z"/>
</g>
</svg>
