<?xml version="1.0" encoding="utf-8"?>
<!-- Generator: Adobe Illustrator 16.0.0, SVG Export Plug-In . SVG Version: 6.00 Build 0)  -->
<!DOCTYPE svg PUBLIC "-//W3C//DTD SVG 1.1//EN" "http://www.w3.org/Graphics/SVG/1.1/DTD/svg11.dtd">
<svg version="1.1" id="Layer_1" xmlns="http://www.w3.org/2000/svg" xmlns:xlink="http://www.w3.org/1999/xlink" x="0px" y="0px"
	 width="100px" height="100px" viewBox="0 0 100 100" enable-background="new 0 0 100 100" xml:space="preserve">
<g>
	<path fill="#B5B5B5" d="M89.833,50.86c-0.48-0.277-1.09-0.113-1.366,0.366l-6.137,10.63V34.411c0-0.552-0.448-1-1-1s-1,0.448-1,1
		v27.445l-6.137-10.63c-0.277-0.479-0.888-0.643-1.366-0.366c-0.479,0.276-0.642,0.888-0.366,1.366l8.003,13.863
		c0.179,0.31,0.509,0.5,0.866,0.5s0.688-0.19,0.866-0.5L90.2,52.226C90.476,51.748,90.312,51.136,89.833,50.86z"/>
	<path fill="#B5B5B5" d="M19.537,33.911c-0.179-0.31-0.509-0.5-0.866-0.5s-0.688,0.19-0.866,0.5L9.8,47.774
		c-0.276,0.479-0.112,1.09,0.366,1.366c0.158,0.091,0.33,0.134,0.499,0.134c0.346,0,0.682-0.179,0.867-0.5l6.138-10.631v27.446
		c0,0.552,0.448,1,1,1s1-0.448,1-1V38.144l6.137,10.631c0.276,0.478,0.886,0.642,1.366,0.366c0.478-0.276,0.642-0.888,0.366-1.366
		L19.537,33.911z"/>
	<path fill="#B5B5B5" d="M57.008,36.489H51l0-4.698c0-0.552-0.448-1-1-1s-1,0.448-1,1l0,4.698h-6.008
		c-1.351,0-2.449,1.177-2.449,2.624v9.263c0,1.447,1.099,2.624,2.449,2.624h14.016c0.239,0,0.449,0.292,0.449,0.624v9.263
		c0,0.332-0.21,0.624-0.449,0.624H42.992c-0.239,0-0.449-0.292-0.449-0.624v-4.583c0-0.552-0.448-1-1-1s-1,0.448-1,1v4.583
		c0,1.447,1.099,2.624,2.449,2.624H49l0,4.698c0,0.552,0.448,1,1,1s1-0.448,1-1l0-4.698h6.008c1.351,0,2.449-1.177,2.449-2.624
		v-9.263c0-1.447-1.099-2.624-2.449-2.624H42.992c-0.239,0-0.449-0.292-0.449-0.624v-9.263c0-0.332,0.21-0.624,0.449-0.624h14.016
		c0.239,0,0.449,0.292,0.449,0.624v4.608c0,0.552,0.448,1,1,1s1-0.448,1-1v-4.608C59.457,37.666,58.358,36.489,57.008,36.489z"/>
</g>
</svg>
