<?xml version="1.0" encoding="utf-8"?>
<!-- Generator: Adobe Illustrator 16.0.0, SVG Export Plug-In . SVG Version: 6.00 Build 0)  -->
<!DOCTYPE svg PUBLIC "-//W3C//DTD SVG 1.1//EN" "http://www.w3.org/Graphics/SVG/1.1/DTD/svg11.dtd">
<svg version="1.1" id="Layer_1" xmlns="http://www.w3.org/2000/svg" xmlns:xlink="http://www.w3.org/1999/xlink" x="0px" y="0px"
	 width="100px" height="100px" viewBox="0 0 100 100" enable-background="new 0 0 100 100" xml:space="preserve">
<g>
	<path fill="#B5B5B5" d="M85.664,26.223H14.336c-1.654,0-3,1.346-3,3v6.069h77.328v-6.069
		C88.664,27.569,87.318,26.223,85.664,26.223z M11.337,70.777c0,1.654,1.346,3,3,3h71.326c1.654,0,3-1.346,3-3l0.001-29.865
		l-77.328-0.001L11.337,70.777z M60.508,53.674c0-0.552,0.447-1,1-1l18.386,0c0.265,0,0.52,0.105,0.707,0.293
		s0.293,0.442,0.293,0.707v10.753c0,0.552-0.448,1-1,1H61.508c-0.553,0-1-0.448-1-1V53.674z"/>
</g>
</svg>
