<?xml version="1.0" encoding="utf-8"?>
<!-- Generator: Adobe Illustrator 16.0.0, SVG Export Plug-In . SVG Version: 6.00 Build 0)  -->
<!DOCTYPE svg PUBLIC "-//W3C//DTD SVG 1.1//EN" "http://www.w3.org/Graphics/SVG/1.1/DTD/svg11.dtd">
<svg version="1.1" id="Layer_1" xmlns="http://www.w3.org/2000/svg" xmlns:xlink="http://www.w3.org/1999/xlink" x="0px" y="0px"
	 width="100px" height="100px" viewBox="0 0 100 100" enable-background="new 0 0 100 100" xml:space="preserve">
<g>
	<path fill="#B5B5B5" d="M67.249,26.191c-0.553,0-1-0.448-1-1V13.19H20.75v73.62h58.5V26.191H67.249z M62.403,41.534
		c0,0.552-0.447,1-1,1s-1-0.448-1-1V35.32c0-0.656-0.428-1.19-0.954-1.19H40.551c-0.526,0-0.954,0.534-0.954,1.19v12.49
		c0,0.656,0.428,1.19,0.954,1.19h18.898c1.629,0,2.954,1.431,2.954,3.19v12.491c0,1.758-1.325,3.189-2.954,3.189H51v6.684
		c0,0.552-0.447,1-1,1s-1-0.448-1-1V67.87h-8.449c-1.629,0-2.954-1.431-2.954-3.189v-6.18c0-0.552,0.447-1,1-1s1,0.448,1,1v6.18
		c0,0.656,0.428,1.189,0.954,1.189h18.898c0.526,0,0.954-0.533,0.954-1.189V52.19c0-0.656-0.428-1.19-0.954-1.19H40.551
		c-1.629,0-2.954-1.431-2.954-3.19V35.32c0-1.759,1.325-3.19,2.954-3.19H49v-6.684c0-0.552,0.447-1,1-1s1,0.448,1,1v6.684h8.449
		c1.629,0,2.954,1.431,2.954,3.19V41.534z M68.249,14.604v9.587h9.587L68.249,14.604z"/>
</g>
</svg>
