<?xml version="1.0" encoding="utf-8"?>
<!-- Generator: Adobe Illustrator 16.0.0, SVG Export Plug-In . SVG Version: 6.00 Build 0)  -->
<!DOCTYPE svg PUBLIC "-//W3C//DTD SVG 1.1//EN" "http://www.w3.org/Graphics/SVG/1.1/DTD/svg11.dtd">
<svg version="1.1" id="Layer_1" xmlns="http://www.w3.org/2000/svg" xmlns:xlink="http://www.w3.org/1999/xlink" x="0px" y="0px"
	 width="100px" height="100px" viewBox="0 0 100 100" enable-background="new 0 0 100 100" xml:space="preserve">
<g>
	<g>
		<g>
			<path fill="#B5B5B5" d="M70.167,36.833H29.833c-3.3,0-6,2.7-6,6v40.332c0,3.3,2.7,6,6,6h40.333c3.3,0,6-2.7,6-6V42.833
				C76.167,39.533,73.466,36.833,70.167,36.833z M59.457,56.72c0,0.552-0.448,1-1,1s-1-0.448-1-1v-4.608
				c0-0.332-0.21-0.624-0.449-0.624H42.992c-0.239,0-0.449,0.292-0.449,0.624v9.263c0,0.333,0.21,0.624,0.449,0.624h14.016
				c1.351,0,2.449,1.177,2.449,2.624v9.263c0,1.447-1.099,2.624-2.449,2.624H51l0,4.698c0,0.552-0.448,1-1,1s-1-0.448-1-1l0-4.698
				h-6.008c-1.351,0-2.449-1.177-2.449-2.624v-4.583c0-0.552,0.448-1,1-1s1,0.448,1,1v4.583c0,0.332,0.21,0.624,0.449,0.624h14.016
				c0.239,0,0.449-0.292,0.449-0.624v-9.263c0-0.333-0.21-0.624-0.449-0.624H42.992c-1.351,0-2.449-1.177-2.449-2.624v-9.263
				c0-1.447,1.099-2.624,2.449-2.624H49l0-4.698c0-0.552,0.448-1,1-1s1,0.448,1,1l0,4.698h6.008c1.351,0,2.449,1.177,2.449,2.624
				V56.72z"/>
		</g>
	</g>
	<path fill="#B5B5B5" d="M50,10.835c-11.26,0-20.421,9.162-20.421,20.421h5.713c0-8.124,6.585-14.708,14.708-14.708
		s14.708,6.584,14.708,14.708h5.713C70.421,19.997,61.26,10.835,50,10.835z"/>
</g>
</svg>
