<?xml version="1.0" encoding="utf-8"?>
<!-- Generator: Adobe Illustrator 16.0.0, SVG Export Plug-In . SVG Version: 6.00 Build 0)  -->
<!DOCTYPE svg PUBLIC "-//W3C//DTD SVG 1.1//EN" "http://www.w3.org/Graphics/SVG/1.1/DTD/svg11.dtd">
<svg version="1.1" id="Layer_1" xmlns="http://www.w3.org/2000/svg" xmlns:xlink="http://www.w3.org/1999/xlink" x="0px" y="0px"
	 width="100px" height="100px" viewBox="0 0 100 100" enable-background="new 0 0 100 100" xml:space="preserve">
<g>
	<g>
		<path fill="#B5B5B5" d="M72.42,33.936H27.58c-0.475,5.001-4.467,8.994-9.468,9.468v13.814c4.758,0.455,8.645,4.117,9.379,8.847
			h45.018c0.734-4.73,4.621-8.393,9.379-8.847V43.403C76.887,42.93,72.895,38.937,72.42,33.936z M36.142,51h-9.515
			c-0.553,0-1-0.448-1-1s0.447-1,1-1h9.515c0.553,0,1,0.448,1,1S36.694,51,36.142,51z M50,60.201c-4.455,0-8.066-4.567-8.066-10.201
			S45.545,39.799,50,39.799S58.066,44.366,58.066,50S54.455,60.201,50,60.201z M73.373,51h-9.515c-0.553,0-1-0.448-1-1s0.447-1,1-1
			h9.515c0.553,0,1,0.448,1,1S73.926,51,73.373,51z"/>
	</g>
	<g>
		<path fill="#B5B5B5" d="M9.666,25.489v49.021h80.668V25.489H9.666z M83.888,58.17c0,0.552-0.447,1-1,1
			c-4.47,0-8.196,3.496-8.485,7.959c-0.034,0.526-0.471,0.936-0.998,0.936H26.596c-0.527,0-0.964-0.409-0.998-0.936
			c-0.289-4.463-4.016-7.959-8.485-7.959c-0.553,0-1-0.448-1-1V42.451c0-0.552,0.447-1,1-1c4.695,0,8.515-3.82,8.515-8.515
			c0-0.552,0.447-1,1-1h46.746c0.553,0,1,0.448,1,1c0,4.695,3.819,8.515,8.515,8.515c0.553,0,1,0.448,1,1V58.17z"/>
	</g>
</g>
</svg>
