<?xml version="1.0" encoding="utf-8"?>
<!-- Generator: Adobe Illustrator 16.0.0, SVG Export Plug-In . SVG Version: 6.00 Build 0)  -->
<!DOCTYPE svg PUBLIC "-//W3C//DTD SVG 1.1//EN" "http://www.w3.org/Graphics/SVG/1.1/DTD/svg11.dtd">
<svg version="1.1" id="Layer_1" xmlns="http://www.w3.org/2000/svg" xmlns:xlink="http://www.w3.org/1999/xlink" x="0px" y="0px"
	 width="48px" height="48px" viewBox="0 0 48 48" enable-background="new 0 0 48 48" xml:space="preserve">
<g>
	<g>
		<g>
			<path d="M39.367,33.748H8.632c-0.964,0-1.748-0.784-1.748-1.748V11.263c0-0.964,0.784-1.749,1.748-1.749h30.735
				c0.964,0,1.749,0.785,1.749,1.749V32C41.116,32.964,40.331,33.748,39.367,33.748z M8.632,10.014c-0.688,0-1.249,0.56-1.249,1.249
				V32c0,0.688,0.56,1.249,1.249,1.249h30.735c0.688,0,1.249-0.561,1.249-1.249V11.263c0-0.689-0.561-1.249-1.249-1.249H8.632z"/>
		</g>
		<g>
			<path d="M40.866,31.118H7.134c-0.138,0-0.25-0.111-0.25-0.25c0-0.138,0.111-0.249,0.25-0.249h33.732
				c0.138,0,0.25,0.111,0.25,0.249C41.116,31.007,41.004,31.118,40.866,31.118z"/>
		</g>
		<g>
			<g>
				<path d="M17.288,38.174c-0.054,0-0.107-0.018-0.153-0.052c-0.109-0.085-0.129-0.242-0.045-0.352l3.435-4.433
					c0.084-0.109,0.241-0.128,0.35-0.045c0.109,0.085,0.129,0.242,0.045,0.352l-3.434,4.433
					C17.436,38.141,17.362,38.174,17.288,38.174z"/>
			</g>
			<g>
				<path d="M30.712,38.174c-0.075,0-0.148-0.033-0.198-0.097l-3.434-4.433c-0.084-0.109-0.064-0.267,0.044-0.352
					c0.109-0.084,0.266-0.064,0.351,0.045l3.434,4.433c0.084,0.109,0.064,0.267-0.044,0.352
					C30.82,38.156,30.766,38.174,30.712,38.174z"/>
			</g>
		</g>
		<g>
			<path d="M33.366,38.486H14.634c-0.138,0-0.25-0.112-0.25-0.25s0.112-0.25,0.25-0.25h18.732c0.138,0,0.25,0.112,0.25,0.25
				S33.504,38.486,33.366,38.486z"/>
		</g>
	</g>
	<g>
		<g>
			<path d="M23.422,27.512c-0.066,0-0.132-0.027-0.18-0.077l-4.428-4.608h-4.039c-0.138,0-0.25-0.112-0.25-0.25v-4.146
				c0-0.138,0.112-0.25,0.25-0.25h4.039l4.428-4.608c0.07-0.073,0.179-0.098,0.273-0.059c0.095,0.038,0.157,0.13,0.157,0.231v13.517
				c0,0.102-0.062,0.193-0.157,0.231C23.485,27.506,23.454,27.512,23.422,27.512z M15.025,22.326h3.896
				c0.068,0,0.133,0.028,0.18,0.077l4.072,4.237V14.366l-4.072,4.237c-0.047,0.049-0.112,0.077-0.18,0.077h-3.896V22.326z"/>
		</g>
		<g>
			<g>
				<path d="M26.583,22.876c-0.115,0-0.218-0.079-0.244-0.195c-0.03-0.135,0.055-0.269,0.19-0.298
					c0.607-0.135,1.065-0.942,1.065-1.879s-0.458-1.744-1.065-1.879c-0.135-0.03-0.22-0.163-0.19-0.298
					c0.03-0.135,0.163-0.221,0.298-0.19c0.844,0.188,1.457,1.183,1.457,2.367s-0.613,2.18-1.457,2.366
					C26.62,22.874,26.602,22.876,26.583,22.876z"/>
			</g>
			<g>
				<path d="M28.76,23.768c-0.114,0-0.216-0.078-0.243-0.194c-0.031-0.134,0.053-0.268,0.187-0.299
					c0.869-0.201,1.523-1.392,1.523-2.771s-0.655-2.57-1.523-2.771c-0.134-0.031-0.218-0.166-0.187-0.3s0.166-0.218,0.299-0.188
					c1.107,0.256,1.911,1.626,1.911,3.258s-0.804,3.002-1.911,3.257C28.797,23.766,28.778,23.768,28.76,23.768z"/>
			</g>
			<g>
				<path d="M30.82,25.11c-0.113,0-0.215-0.077-0.243-0.191c-0.032-0.135,0.051-0.27,0.185-0.302c1.261-0.3,2.212-2.068,2.212-4.113
					s-0.951-3.813-2.212-4.114c-0.134-0.032-0.217-0.167-0.185-0.301c0.032-0.134,0.169-0.218,0.301-0.185
					c1.504,0.358,2.596,2.293,2.596,4.6s-1.091,4.241-2.596,4.6C30.859,25.108,30.839,25.11,30.82,25.11z"/>
			</g>
		</g>
	</g>
</g>
</svg>
