<?xml version="1.0" encoding="utf-8"?>
<!-- Generator: Adobe Illustrator 16.0.0, SVG Export Plug-In . SVG Version: 6.00 Build 0)  -->
<!DOCTYPE svg PUBLIC "-//W3C//DTD SVG 1.1//EN" "http://www.w3.org/Graphics/SVG/1.1/DTD/svg11.dtd">
<svg version="1.1" id="Layer_1" xmlns="http://www.w3.org/2000/svg" xmlns:xlink="http://www.w3.org/1999/xlink" x="0px" y="0px"
	 width="48px" height="48px" viewBox="0 0 48 48" enable-background="new 0 0 48 48" xml:space="preserve">
<g>
	<g>
		<g>
			<path d="M39.362,33.437H8.627c-0.964,0-1.748-0.785-1.748-1.749V10.95c0-0.964,0.784-1.748,1.748-1.748h30.735
				c0.964,0,1.749,0.784,1.749,1.748v20.737C41.111,32.651,40.326,33.437,39.362,33.437z M8.627,9.701
				c-0.688,0-1.249,0.561-1.249,1.249v20.737c0,0.689,0.56,1.249,1.249,1.249h30.735c0.688,0,1.249-0.56,1.249-1.249V10.95
				c0-0.688-0.561-1.249-1.249-1.249H8.627z"/>
		</g>
		<g>
			<path d="M43.895,38.798c-0.003,0-0.006,0-0.01,0H4.105c-0.098,0-0.186-0.057-0.227-0.144c-0.041-0.089-0.027-0.192,0.036-0.267
				l2.952-3.497c0.047-0.057,0.117-0.089,0.19-0.089h33.876c0.074,0,0.144,0.032,0.191,0.089l2.917,3.455
				c0.063,0.045,0.104,0.119,0.104,0.203C44.145,38.687,44.033,38.798,43.895,38.798z M4.643,38.299h38.705l-2.53-2.997H7.173
				L4.643,38.299z"/>
		</g>
		<g>
			<path d="M40.861,30.806H7.129c-0.138,0-0.25-0.111-0.25-0.249c0-0.139,0.111-0.25,0.25-0.25h33.732c0.138,0,0.25,0.111,0.25,0.25
				C41.111,30.694,40.999,30.806,40.861,30.806z"/>
		</g>
	</g>
	<g>
		<g>
			<path d="M23.51,26.426c-0.066,0-0.132-0.026-0.18-0.076l-3.705-3.856h-3.374c-0.138,0-0.25-0.111-0.25-0.25v-3.479
				c0-0.139,0.112-0.25,0.25-0.25h3.374l3.705-3.856c0.071-0.073,0.179-0.097,0.273-0.059s0.157,0.13,0.157,0.232v11.345
				c0,0.103-0.062,0.194-0.157,0.232C23.573,26.42,23.542,26.426,23.51,26.426z M16.501,21.994h3.23c0.068,0,0.133,0.027,0.18,0.076
				l3.35,3.485V15.451l-3.35,3.485c-0.047,0.049-0.112,0.077-0.18,0.077h-3.23V21.994z"/>
		</g>
		<g>
			<g>
				<path d="M26.164,22.535c-0.114,0-0.218-0.079-0.244-0.195c-0.03-0.135,0.055-0.269,0.19-0.299
					c0.492-0.108,0.863-0.77,0.863-1.537s-0.371-1.43-0.863-1.538c-0.135-0.029-0.22-0.163-0.19-0.298s0.163-0.22,0.298-0.189
					c0.727,0.16,1.255,1.013,1.255,2.025s-0.528,1.864-1.255,2.025C26.2,22.533,26.182,22.535,26.164,22.535z"/>
			</g>
			<g>
				<path d="M27.99,23.283c-0.114,0-0.216-0.078-0.243-0.193c-0.031-0.134,0.053-0.269,0.188-0.3
					c0.711-0.164,1.248-1.146,1.248-2.286s-0.537-2.123-1.248-2.287c-0.134-0.031-0.218-0.165-0.188-0.299
					c0.032-0.135,0.166-0.219,0.3-0.188c0.947,0.219,1.635,1.385,1.635,2.773s-0.688,2.555-1.635,2.773
					C28.028,23.281,28.009,23.283,27.99,23.283z"/>
			</g>
			<g>
				<path d="M29.72,24.411c-0.113,0-0.215-0.077-0.243-0.192c-0.032-0.134,0.051-0.269,0.185-0.301
					c1.041-0.248,1.826-1.716,1.826-3.414s-0.785-3.166-1.826-3.415c-0.134-0.031-0.217-0.166-0.185-0.301
					c0.032-0.134,0.169-0.218,0.301-0.185c1.28,0.306,2.21,1.945,2.21,3.9s-0.93,3.595-2.21,3.9
					C29.759,24.409,29.739,24.411,29.72,24.411z"/>
			</g>
		</g>
	</g>
</g>
</svg>
