<?xml version="1.0" encoding="utf-8"?>
<!-- Generator: Adobe Illustrator 16.0.0, SVG Export Plug-In . SVG Version: 6.00 Build 0)  -->
<!DOCTYPE svg PUBLIC "-//W3C//DTD SVG 1.1//EN" "http://www.w3.org/Graphics/SVG/1.1/DTD/svg11.dtd">
<svg version="1.1" id="Layer_1" xmlns="http://www.w3.org/2000/svg" xmlns:xlink="http://www.w3.org/1999/xlink" x="0px" y="0px"
	 width="48px" height="48px" viewBox="0 0 48 48" enable-background="new 0 0 48 48" xml:space="preserve">
<g>
	<g>
		<path d="M31.543,43.01H16.457c-0.964,0-1.748-0.784-1.748-1.748V6.738c0-0.964,0.784-1.748,1.748-1.748h15.086
			c0.964,0,1.748,0.784,1.748,1.748v34.523C33.291,42.226,32.507,43.01,31.543,43.01z M16.457,5.489
			c-0.688,0-1.248,0.561-1.248,1.249v34.523c0,0.688,0.56,1.249,1.248,1.249h15.086c0.688,0,1.248-0.561,1.248-1.249V6.738
			c0-0.688-0.56-1.249-1.248-1.249H16.457z"/>
	</g>
	<g>
		<path d="M32.781,36.155H15.219c-0.138,0-0.249-0.111-0.249-0.25c0-0.138,0.111-0.249,0.249-0.249h17.562
			c0.138,0,0.249,0.111,0.249,0.249C33.03,36.044,32.919,36.155,32.781,36.155z"/>
	</g>
	<g>
		<circle cx="24" cy="39.452" r="1.02"/>
	</g>
	<g>
		<path d="M23.659,25.246c-0.067,0-0.133-0.027-0.181-0.077l-2.586-2.691H18.55c-0.139,0-0.25-0.111-0.25-0.25v-2.449
			c0-0.139,0.111-0.25,0.25-0.25h2.343l2.586-2.691c0.07-0.074,0.179-0.098,0.273-0.059c0.095,0.038,0.156,0.13,0.156,0.231v7.986
			c0,0.102-0.062,0.193-0.156,0.231C23.722,25.24,23.69,25.246,23.659,25.246z M18.799,21.979h2.2c0.067,0,0.133,0.027,0.18,0.076
			l2.23,2.321V17.63l-2.23,2.321c-0.047,0.049-0.112,0.076-0.18,0.076h-2.2V21.979z"/>
	</g>
	<g>
		<g>
			<path d="M25.526,22.508c-0.114,0-0.218-0.079-0.243-0.196c-0.03-0.135,0.055-0.269,0.189-0.298c0.271-0.06,0.55-0.454,0.55-1.01
				c0-0.557-0.279-0.951-0.55-1.012c-0.135-0.029-0.22-0.163-0.189-0.298c0.029-0.135,0.165-0.217,0.298-0.189
				c0.545,0.121,0.94,0.751,0.94,1.499c0,0.746-0.396,1.377-0.94,1.498C25.562,22.506,25.545,22.508,25.526,22.508z"/>
		</g>
		<g>
			<path d="M26.812,23.033c-0.114,0-0.217-0.077-0.243-0.193c-0.031-0.134,0.053-0.269,0.188-0.299
				c0.468-0.108,0.82-0.77,0.82-1.537c0-0.77-0.353-1.431-0.82-1.538c-0.135-0.03-0.219-0.165-0.188-0.3
				c0.03-0.134,0.164-0.218,0.299-0.188c0.7,0.161,1.209,1.014,1.209,2.025c0,1.01-0.509,1.861-1.209,2.023
				C26.85,23.031,26.831,23.033,26.812,23.033z"/>
		</g>
		<g>
			<path d="M28.03,23.827c-0.113,0-0.216-0.077-0.243-0.191c-0.032-0.134,0.051-0.269,0.186-0.301c0.7-0.167,1.229-1.17,1.229-2.331
				c0-1.163-0.528-2.165-1.229-2.332c-0.135-0.032-0.218-0.167-0.186-0.301c0.032-0.135,0.17-0.218,0.301-0.186
				c0.935,0.224,1.612,1.408,1.612,2.818c0,1.409-0.678,2.594-1.612,2.816C28.068,23.825,28.049,23.827,28.03,23.827z"/>
		</g>
	</g>
</g>
</svg>
