<?xml version="1.0" encoding="utf-8"?>
<!-- Generator: Adobe Illustrator 16.0.0, SVG Export Plug-In . SVG Version: 6.00 Build 0)  -->
<!DOCTYPE svg PUBLIC "-//W3C//DTD SVG 1.1//EN" "http://www.w3.org/Graphics/SVG/1.1/DTD/svg11.dtd">
<svg version="1.1" id="Layer_1" xmlns="http://www.w3.org/2000/svg" xmlns:xlink="http://www.w3.org/1999/xlink" x="0px" y="0px"
	 width="48px" height="48px" viewBox="0 0 48 48" enable-background="new 0 0 48 48" xml:space="preserve">
<g>
	<g>
		<g>
			<path d="M28.717,33.656H17.485c-1.515,0-2.748-1.232-2.748-2.747V17.091c0-1.515,1.233-2.747,2.748-2.747h11.231
				c1.515,0,2.748,1.232,2.748,2.747v13.818C31.465,32.424,30.231,33.656,28.717,33.656z M17.485,14.843
				c-1.24,0-2.248,1.009-2.248,2.248v13.818c0,1.239,1.008,2.248,2.248,2.248h11.231c1.24,0,2.248-1.009,2.248-2.248V17.091
				c0-1.239-1.008-2.248-2.248-2.248H17.485z"/>
		</g>
		<g>
			<path d="M33.013,22.057c-0.138,0-0.25-0.111-0.25-0.249v-3.126c0-0.139,0.112-0.25,0.25-0.25c0.139,0,0.25,0.111,0.25,0.25v3.126
				C33.263,21.945,33.151,22.057,33.013,22.057z"/>
		</g>
		<g>
			<path d="M28.215,13.001c-0.138,0-0.249-0.111-0.249-0.249V9.274c0-0.413-0.336-0.75-0.75-0.75h-8.229
				c-0.413,0-0.749,0.337-0.749,0.75v3.478c0,0.138-0.112,0.249-0.25,0.249s-0.25-0.111-0.25-0.249V9.274
				c0-0.689,0.561-1.249,1.249-1.249h8.229c0.689,0,1.249,0.56,1.249,1.249v3.478C28.465,12.89,28.354,13.001,28.215,13.001z"/>
		</g>
		<g>
			<path d="M27.216,39.975h-8.229c-0.688,0-1.249-0.56-1.249-1.249v-3.478c0-0.138,0.112-0.249,0.25-0.249s0.25,0.111,0.25,0.249
				v3.478c0,0.413,0.336,0.75,0.749,0.75h8.229c0.414,0,0.75-0.337,0.75-0.75v-3.478c0-0.138,0.111-0.249,0.249-0.249
				c0.139,0,0.25,0.111,0.25,0.249v3.478C28.465,39.415,27.905,39.975,27.216,39.975z"/>
		</g>
	</g>
	<g>
		<g>
			<path d="M22.786,28.388c-0.071,0-0.141-0.031-0.189-0.088l-2.379-2.78h-2.145c-0.138,0-0.25-0.112-0.25-0.25v-2.538
				c0-0.138,0.112-0.249,0.25-0.249h2.145l2.379-2.782c0.067-0.079,0.177-0.109,0.276-0.072c0.098,0.036,0.163,0.13,0.163,0.234
				v8.275c0,0.104-0.065,0.198-0.163,0.234C22.845,28.383,22.815,28.388,22.786,28.388z M18.323,25.02h2.01
				c0.073,0,0.143,0.031,0.189,0.087l2.015,2.355v-6.923l-2.015,2.355c-0.047,0.056-0.116,0.087-0.189,0.087h-2.01V25.02z"/>
		</g>
		<g>
			<g>
				<path d="M24.51,25.696c-0.109,0-0.21-0.072-0.241-0.183c-0.037-0.133,0.041-0.271,0.174-0.308
					c0.243-0.067,0.505-0.548,0.505-1.205c0-0.659-0.262-1.139-0.504-1.206c-0.134-0.037-0.212-0.174-0.175-0.307
					s0.175-0.21,0.308-0.175c0.513,0.142,0.871,0.835,0.871,1.688c0,0.851-0.358,1.544-0.871,1.687
					C24.554,25.693,24.531,25.696,24.51,25.696z"/>
			</g>
			<g>
				<path d="M25.695,26.305c-0.107,0-0.208-0.071-0.239-0.181c-0.038-0.132,0.038-0.271,0.171-0.31
					c0.371-0.107,0.755-0.814,0.755-1.813s-0.384-1.707-0.755-1.814c-0.133-0.039-0.209-0.177-0.171-0.31s0.178-0.21,0.309-0.171
					c0.657,0.19,1.116,1.134,1.116,2.295c0,1.16-0.459,2.104-1.116,2.294C25.742,26.302,25.719,26.305,25.695,26.305z"/>
			</g>
			<g>
				<path d="M26.818,27.219c-0.107,0-0.207-0.07-0.239-0.179c-0.039-0.132,0.036-0.271,0.168-0.311
					c0.557-0.165,1.132-1.231,1.132-2.729s-0.575-2.564-1.132-2.73c-0.132-0.039-0.207-0.179-0.168-0.311
					c0.04-0.132,0.177-0.206,0.312-0.168c0.862,0.258,1.488,1.607,1.488,3.209s-0.627,2.951-1.489,3.207
					C26.866,27.215,26.842,27.219,26.818,27.219z"/>
			</g>
		</g>
	</g>
</g>
</svg>
