<?xml version="1.0" encoding="utf-8"?>
<!-- Generator: Adobe Illustrator 16.0.0, SVG Export Plug-In . SVG Version: 6.00 Build 0)  -->
<!DOCTYPE svg PUBLIC "-//W3C//DTD SVG 1.1//EN" "http://www.w3.org/Graphics/SVG/1.1/DTD/svg11.dtd">
<svg version="1.1" id="Layer_1" xmlns="http://www.w3.org/2000/svg" xmlns:xlink="http://www.w3.org/1999/xlink" x="0px" y="0px"
	 width="48px" height="48px" viewBox="0 0 48 48" enable-background="new 0 0 48 48" xml:space="preserve">
<g>
	<g>
		<path d="M36.421,43.758H11.579c-0.965,0-1.749-0.784-1.749-1.748V5.99c0-0.964,0.784-1.748,1.749-1.748h24.842
			c0.964,0,1.749,0.784,1.749,1.748v36.02C38.17,42.974,37.385,43.758,36.421,43.758z M11.579,4.741
			c-0.689,0-1.249,0.561-1.249,1.249v36.02c0,0.689,0.56,1.249,1.249,1.249h24.842c0.688,0,1.249-0.56,1.249-1.249V5.99
			c0-0.688-0.561-1.249-1.249-1.249H11.579z"/>
	</g>
	<g>
		<circle cx="24" cy="40.451" r="1.02"/>
	</g>
	<g>
		<path d="M37.707,36.988H10.293c-0.139,0-0.25-0.111-0.25-0.25c0-0.138,0.111-0.249,0.25-0.249h27.414
			c0.139,0,0.25,0.111,0.25,0.249C37.957,36.877,37.846,36.988,37.707,36.988z"/>
	</g>
	<g>
		<path d="M23.423,28.011c-0.066,0-0.132-0.026-0.181-0.076l-4.428-4.609h-4.039c-0.139,0-0.25-0.111-0.25-0.25v-4.145
			c0-0.139,0.111-0.25,0.25-0.25h4.039l4.428-4.609c0.071-0.073,0.179-0.097,0.273-0.059s0.157,0.13,0.157,0.232v13.516
			c0,0.103-0.062,0.194-0.157,0.232C23.485,28.005,23.454,28.011,23.423,28.011z M15.025,22.826h3.896
			c0.067,0,0.133,0.027,0.18,0.076l4.072,4.238V14.865l-4.072,4.238c-0.047,0.049-0.112,0.076-0.18,0.076h-3.896V22.826z"/>
	</g>
	<g>
		<g>
			<path d="M26.584,23.376c-0.115,0-0.218-0.08-0.244-0.196c-0.029-0.135,0.056-0.268,0.19-0.298
				c0.607-0.135,1.065-0.941,1.065-1.878c0-0.938-0.458-1.745-1.065-1.88c-0.135-0.029-0.22-0.163-0.19-0.298
				c0.03-0.134,0.164-0.219,0.298-0.189c0.845,0.187,1.457,1.183,1.457,2.367c0,1.184-0.612,2.179-1.457,2.366
				C26.62,23.374,26.602,23.376,26.584,23.376z"/>
		</g>
		<g>
			<path d="M28.76,24.267c-0.113,0-0.217-0.078-0.243-0.193c-0.031-0.134,0.053-0.269,0.188-0.3c0.868-0.2,1.523-1.391,1.523-2.77
				c0-1.38-0.655-2.57-1.523-2.771c-0.135-0.031-0.219-0.165-0.188-0.299c0.031-0.135,0.166-0.219,0.3-0.188
				c1.106,0.256,1.91,1.626,1.91,3.258c0,1.631-0.804,3.001-1.91,3.257C28.797,24.265,28.778,24.267,28.76,24.267z"/>
		</g>
		<g>
			<path d="M30.82,25.609c-0.113,0-0.216-0.076-0.243-0.191c-0.031-0.134,0.051-0.269,0.186-0.301
				c1.261-0.301,2.212-2.069,2.212-4.113c0-2.045-0.951-3.814-2.212-4.114c-0.135-0.032-0.217-0.167-0.186-0.302
				c0.032-0.133,0.169-0.217,0.301-0.185c1.505,0.358,2.597,2.293,2.597,4.601c0,2.306-1.092,4.24-2.597,4.599
				C30.859,25.607,30.84,25.609,30.82,25.609z"/>
		</g>
	</g>
</g>
</svg>
