<?xml version="1.0" encoding="utf-8"?>
<!-- Generator: Adobe Illustrator 16.0.0, SVG Export Plug-In . SVG Version: 6.00 Build 0)  -->
<!DOCTYPE svg PUBLIC "-//W3C//DTD SVG 1.1//EN" "http://www.w3.org/Graphics/SVG/1.1/DTD/svg11.dtd">
<svg version="1.1" id="Layer_1" xmlns="http://www.w3.org/2000/svg" xmlns:xlink="http://www.w3.org/1999/xlink" x="0px" y="0px"
	 width="48px" height="48px" viewBox="0 0 48 48" enable-background="new 0 0 48 48" xml:space="preserve">
<g>
	<g>
		<path d="M18.035,31.503c-0.04,0-0.08-0.012-0.115-0.036c-0.082-0.057-0.111-0.165-0.068-0.255l3.942-8.333h-3.306
			c-0.067,0-0.13-0.032-0.168-0.088c-0.038-0.055-0.047-0.126-0.022-0.188l4.085-10.646c0.031-0.079,0.106-0.131,0.19-0.131h7.394
			c0.077,0,0.147,0.043,0.183,0.112s0.027,0.15-0.017,0.213l-4.699,6.482h4.533c0.082,0,0.155,0.049,0.188,0.124
			c0.032,0.075,0.017,0.163-0.039,0.221L18.184,31.44C18.144,31.482,18.09,31.503,18.035,31.503z M18.785,22.472h3.331
			c0.07,0,0.135,0.036,0.173,0.095c0.037,0.059,0.041,0.133,0.012,0.196l-3.543,7.486L29.49,19.04h-4.456
			c-0.077,0-0.147-0.042-0.183-0.111s-0.027-0.151,0.017-0.213l4.699-6.482h-6.854L18.785,22.472z"/>
	</g>
	<g>
		<path d="M35.422,42.266H12.579c-0.788,0-1.429-0.641-1.429-1.427V7.842c0-0.788,0.641-1.429,1.429-1.429h22.843
			c0.787,0,1.428,0.641,1.428,1.429v32.997C36.85,41.625,36.209,42.266,35.422,42.266z M12.579,6.822
			c-0.563,0-1.021,0.457-1.021,1.02v32.997c0,0.562,0.457,1.02,1.021,1.02h22.843c0.562,0,1.021-0.458,1.021-1.02V7.842
			c0-0.563-0.458-1.02-1.021-1.02H12.579z"/>
	</g>
	<g>
		<circle cx="24" cy="39.287" r="0.926"/>
	</g>
	<g>
		<path d="M36.454,36.118H11.547c-0.112,0-0.203-0.091-0.203-0.204s0.091-0.205,0.203-0.205h24.907c0.112,0,0.203,0.092,0.203,0.205
			S36.566,36.118,36.454,36.118z"/>
	</g>
</g>
</svg>
