<?xml version="1.0" encoding="utf-8"?>
<!-- Generator: Adobe Illustrator 16.0.0, SVG Export Plug-In . SVG Version: 6.00 Build 0)  -->
<!DOCTYPE svg PUBLIC "-//W3C//DTD SVG 1.1//EN" "http://www.w3.org/Graphics/SVG/1.1/DTD/svg11.dtd">
<svg version="1.1" id="Layer_1" xmlns="http://www.w3.org/2000/svg" xmlns:xlink="http://www.w3.org/1999/xlink" x="0px" y="0px"
	 width="48px" height="48px" viewBox="0 0 48 48" enable-background="new 0 0 48 48" xml:space="preserve">
<g>
	<g>
		<path d="M20.097,27.708c-0.04,0-0.08-0.012-0.114-0.036c-0.083-0.056-0.112-0.165-0.069-0.255l2.527-5.341h-2.044
			c-0.067,0-0.13-0.033-0.168-0.089s-0.047-0.126-0.022-0.188l2.665-6.956c0.03-0.079,0.106-0.131,0.19-0.131h4.833
			c0.076,0,0.147,0.043,0.182,0.112c0.035,0.068,0.028,0.15-0.016,0.213l-2.989,4.122h2.823c0.082,0,0.155,0.049,0.188,0.124
			c0.031,0.076,0.016,0.163-0.041,0.222l-7.797,8.141C20.205,27.687,20.151,27.708,20.097,27.708z M20.693,21.667h2.069
			c0.069,0,0.136,0.036,0.172,0.095c0.037,0.059,0.043,0.133,0.013,0.196l-2.129,4.496l6.599-6.888h-2.746
			c-0.075,0-0.146-0.043-0.181-0.112c-0.035-0.067-0.029-0.15,0.017-0.212l2.987-4.123h-4.292L20.693,21.667z"/>
	</g>
	<g>
		<g>
			<path d="M38.096,32.889H9.899c-0.787,0-1.428-0.641-1.428-1.429V12.347c0-0.787,0.641-1.427,1.428-1.427h28.196
				c0.787,0,1.428,0.641,1.428,1.427V31.46C39.523,32.248,38.883,32.889,38.096,32.889z M9.899,11.327
				c-0.562,0-1.02,0.458-1.02,1.02V31.46c0,0.563,0.458,1.021,1.02,1.021h28.196c0.562,0,1.02-0.458,1.02-1.021V12.347
				c0-0.562-0.457-1.02-1.02-1.02H9.899z"/>
		</g>
		<g>
			<path d="M42.07,37.76c-0.002,0-0.005,0-0.008,0H5.929c-0.078,0-0.15-0.046-0.185-0.119c-0.033-0.072-0.022-0.157,0.029-0.218
				l2.682-3.175c0.038-0.046,0.096-0.072,0.156-0.072h30.77c0.061,0,0.117,0.026,0.156,0.072l2.652,3.141
				c0.052,0.038,0.085,0.098,0.085,0.166C42.274,37.668,42.183,37.76,42.07,37.76z M6.369,37.352h35.254l-2.337-2.767H8.705
				L6.369,37.352z"/>
		</g>
		<g>
			<path d="M39.319,30.5H8.676c-0.113,0-0.204-0.09-0.204-0.203s0.091-0.205,0.204-0.205h30.644c0.112,0,0.204,0.092,0.204,0.205
				S39.432,30.5,39.319,30.5z"/>
		</g>
	</g>
</g>
</svg>
