<?xml version="1.0" encoding="utf-8"?>
<!-- Generator: Adobe Illustrator 16.0.0, SVG Export Plug-In . SVG Version: 6.00 Build 0)  -->
<!DOCTYPE svg PUBLIC "-//W3C//DTD SVG 1.1//EN" "http://www.w3.org/Graphics/SVG/1.1/DTD/svg11.dtd">
<svg version="1.1" id="Layer_1" xmlns="http://www.w3.org/2000/svg" xmlns:xlink="http://www.w3.org/1999/xlink" x="0px" y="0px"
	 width="48px" height="48px" viewBox="0 0 48 48" enable-background="new 0 0 48 48" xml:space="preserve">
<g>
	<g>
		<path d="M20.073,29.567c-0.041,0-0.08-0.012-0.116-0.036c-0.083-0.058-0.111-0.166-0.068-0.255l1.993-4.204h-1.571
			c-0.067,0-0.13-0.032-0.168-0.088c-0.038-0.055-0.046-0.125-0.022-0.188l2.13-5.553c0.03-0.079,0.105-0.131,0.19-0.131h3.856
			c0.076,0,0.147,0.043,0.181,0.111c0.035,0.068,0.029,0.15-0.017,0.212l-2.339,3.226h2.175c0.081,0,0.155,0.049,0.188,0.124
			c0.031,0.075,0.016,0.163-0.04,0.221l-6.225,6.499C20.181,29.546,20.127,29.567,20.073,29.567z M20.607,24.665h1.597
			c0.07,0,0.135,0.036,0.173,0.095s0.042,0.133,0.012,0.196l-1.592,3.356l5.022-5.243h-2.098c-0.075,0-0.146-0.042-0.181-0.111
			c-0.035-0.068-0.028-0.151,0.017-0.212l2.339-3.226H22.58L20.607,24.665z"/>
	</g>
	<g>
		<g>
			<path d="M28.516,33.09H17.853c-1.237,0-2.244-1.007-2.244-2.244V17.834c0-1.238,1.007-2.244,2.244-2.244h10.663
				c1.237,0,2.244,1.006,2.244,2.244v13.012C30.76,32.083,29.753,33.09,28.516,33.09z M17.853,15.999
				c-1.013,0-1.836,0.824-1.836,1.836v13.012c0,1.012,0.823,1.836,1.836,1.836h10.663c1.013,0,1.836-0.824,1.836-1.836V17.834
				c0-1.012-0.823-1.836-1.836-1.836H17.853z"/>
		</g>
		<g>
			<path d="M32.188,22.552c-0.112,0-0.204-0.092-0.204-0.205v-2.84c0-0.113,0.092-0.204,0.204-0.204
				c0.113,0,0.203,0.091,0.203,0.204v2.84C32.392,22.46,32.302,22.552,32.188,22.552z"/>
		</g>
		<g>
			<path d="M27.831,14.325c-0.113,0-0.205-0.091-0.205-0.204v-3.25c0-0.337-0.274-0.612-0.611-0.612h-7.661
				c-0.337,0-0.611,0.274-0.611,0.612v3.25c0,0.113-0.092,0.204-0.204,0.204s-0.204-0.091-0.204-0.204v-3.25
				c0-0.563,0.458-1.021,1.02-1.021h7.661c0.562,0,1.02,0.458,1.02,1.021v3.25C28.034,14.234,27.943,14.325,27.831,14.325z"/>
		</g>
		<g>
			<path d="M27.015,38.83h-7.661c-0.562,0-1.02-0.458-1.02-1.02v-3.252c0-0.113,0.092-0.203,0.204-0.203s0.204,0.09,0.204,0.203
				v3.252c0,0.337,0.274,0.612,0.611,0.612h7.661c0.337,0,0.611-0.274,0.611-0.612v-3.252c0-0.113,0.092-0.203,0.205-0.203
				c0.112,0,0.203,0.09,0.203,0.203v3.252C28.034,38.372,27.577,38.83,27.015,38.83z"/>
		</g>
	</g>
</g>
</svg>
