<?xml version="1.0" encoding="utf-8"?>
<!-- Generator: Adobe Illustrator 16.0.0, SVG Export Plug-In . SVG Version: 6.00 Build 0)  -->
<!DOCTYPE svg PUBLIC "-//W3C//DTD SVG 1.1//EN" "http://www.w3.org/Graphics/SVG/1.1/DTD/svg11.dtd">
<svg version="1.1" id="Layer_1" xmlns="http://www.w3.org/2000/svg" xmlns:xlink="http://www.w3.org/1999/xlink" x="0px" y="0px"
	 width="48px" height="48px" viewBox="0 0 48 48" enable-background="new 0 0 48 48" xml:space="preserve">
<g>
	<g>
		<path d="M20.003,27.824c-0.04,0-0.08-0.012-0.115-0.036c-0.083-0.057-0.111-0.165-0.069-0.255l2.599-5.486h-2.108
			c-0.067,0-0.13-0.033-0.168-0.089c-0.038-0.055-0.046-0.125-0.022-0.188l2.734-7.135c0.029-0.08,0.104-0.131,0.189-0.131h4.957
			c0.076,0,0.146,0.043,0.182,0.112c0.035,0.068,0.028,0.15-0.017,0.212l-3.073,4.238h2.908c0.082,0,0.155,0.048,0.188,0.124
			c0.032,0.075,0.017,0.162-0.04,0.221l-7.996,8.352C20.111,27.802,20.058,27.824,20.003,27.824z M20.605,21.638h2.134
			c0.07,0,0.135,0.036,0.172,0.095s0.043,0.133,0.012,0.196l-2.197,4.64l6.795-7.098h-2.829c-0.076,0-0.146-0.042-0.182-0.112
			c-0.035-0.067-0.028-0.15,0.017-0.212l3.072-4.238h-4.416L20.605,21.638z"/>
	</g>
	<g>
		<g>
			<path d="M38.099,33.173H9.9c-0.786,0-1.427-0.641-1.427-1.428V12.631c0-0.788,0.641-1.428,1.427-1.428h28.198
				c0.787,0,1.428,0.641,1.428,1.428v19.114C39.526,32.532,38.886,33.173,38.099,33.173z M9.9,11.611
				c-0.562,0-1.02,0.458-1.02,1.021v19.114c0,0.562,0.458,1.02,1.02,1.02h28.198c0.562,0,1.02-0.458,1.02-1.02V12.631
				c0-0.562-0.457-1.021-1.02-1.021H9.9z"/>
		</g>
		<g>
			<path d="M39.323,30.783H8.677c-0.113,0-0.203-0.092-0.203-0.205s0.09-0.204,0.203-0.204h30.646c0.111,0,0.203,0.091,0.203,0.204
				S39.435,30.783,39.323,30.783z"/>
		</g>
		<g>
			<g>
				<path d="M17.902,37.193c-0.044,0-0.088-0.014-0.126-0.042c-0.089-0.069-0.104-0.198-0.036-0.287l3.122-4.027
					c0.068-0.09,0.197-0.105,0.286-0.037c0.089,0.069,0.105,0.198,0.037,0.287l-3.122,4.027
					C18.023,37.166,17.963,37.193,17.902,37.193z"/>
			</g>
			<g>
				<path d="M30.097,37.193c-0.062,0-0.121-0.028-0.162-0.08l-3.116-4.027c-0.068-0.09-0.053-0.217,0.037-0.287
					c0.089-0.068,0.217-0.053,0.285,0.037l3.116,4.027c0.069,0.09,0.053,0.217-0.035,0.287C30.185,37.18,30.14,37.193,30.097,37.193
					z"/>
			</g>
		</g>
		<g>
			<path d="M32.511,37.477h-17.02c-0.113,0-0.204-0.092-0.204-0.204c0-0.113,0.091-0.204,0.204-0.204h17.02
				c0.113,0,0.205,0.091,0.205,0.204C32.716,37.385,32.624,37.477,32.511,37.477z"/>
		</g>
	</g>
</g>
</svg>
