<?xml version="1.0" encoding="utf-8"?>
<!-- Generator: Adobe Illustrator 16.0.0, SVG Export Plug-In . SVG Version: 6.00 Build 0)  -->
<!DOCTYPE svg PUBLIC "-//W3C//DTD SVG 1.1//EN" "http://www.w3.org/Graphics/SVG/1.1/DTD/svg11.dtd">
<svg version="1.1" id="Layer_1" xmlns="http://www.w3.org/2000/svg" xmlns:xlink="http://www.w3.org/1999/xlink" x="0px" y="0px"
	 width="48px" height="48px" viewBox="0 0 48 48" enable-background="new 0 0 48 48" xml:space="preserve">
<g>
	<g>
		<path d="M19.777,28.685c-0.039,0-0.08-0.012-0.115-0.036c-0.082-0.057-0.111-0.165-0.068-0.255l2.752-5.808h-2.248
			c-0.068,0-0.129-0.033-0.168-0.089c-0.039-0.055-0.047-0.125-0.023-0.188l2.893-7.535c0.031-0.079,0.105-0.13,0.189-0.13h5.232
			c0.076,0,0.146,0.042,0.182,0.111s0.029,0.15-0.016,0.213l-3.256,4.491h3.09c0.082,0,0.156,0.049,0.188,0.124
			c0.031,0.075,0.018,0.163-0.041,0.221l-8.441,8.819C19.885,28.663,19.832,28.685,19.777,28.685z M20.395,22.178h2.271
			c0.07,0,0.135,0.035,0.174,0.094c0.037,0.059,0.041,0.133,0.012,0.197L20.5,27.431l7.242-7.565H24.73
			c-0.076,0-0.146-0.042-0.182-0.111c-0.035-0.069-0.027-0.151,0.018-0.213l3.256-4.491h-4.693L20.395,22.178z"/>
	</g>
	<g>
		<circle cx="24" cy="38.559" r="1.061"/>
	</g>
	<g>
		<path d="M30.988,41.586H17.01c-0.787,0-1.428-0.641-1.428-1.428V8.522c0-0.788,0.641-1.428,1.428-1.428h13.979
			c0.789,0,1.43,0.641,1.43,1.428v31.636C32.418,40.946,31.777,41.586,30.988,41.586z M17.01,7.502c-0.562,0-1.02,0.458-1.02,1.02
			v31.636c0,0.562,0.457,1.02,1.02,1.02h13.979c0.562,0,1.02-0.458,1.02-1.02V8.522c0-0.562-0.457-1.02-1.02-1.02H17.01z"/>
	</g>
	<g>
		<path d="M31.975,35.36H16.023c-0.113,0-0.205-0.091-0.205-0.204s0.092-0.204,0.205-0.204h15.951c0.113,0,0.205,0.091,0.205,0.204
			S32.088,35.36,31.975,35.36z"/>
	</g>
</g>
</svg>
