<?xml version="1.0" encoding="utf-8"?>
<!-- Generator: Adobe Illustrator 16.0.0, SVG Export Plug-In . SVG Version: 6.00 Build 0)  -->
<!DOCTYPE svg PUBLIC "-//W3C//DTD SVG 1.1//EN" "http://www.w3.org/Graphics/SVG/1.1/DTD/svg11.dtd">
<svg version="1.1" id="Layer_1" xmlns="http://www.w3.org/2000/svg" xmlns:xlink="http://www.w3.org/1999/xlink" x="0px" y="0px"
	 width="128px" height="128px" viewBox="0 0 128 128" enable-background="new 0 0 128 128" xml:space="preserve">
<g>
	<g>
		<g>
			<path d="M86.726,54.425H67.831c-0.552,0-1-0.447-1-1v-18.1c0-0.283,0.12-0.553,0.33-0.742c0.209-0.189,0.488-0.277,0.772-0.253
				c10.158,1.035,18.293,8.827,19.782,18.949c0.042,0.287-0.042,0.579-0.232,0.799C87.292,54.299,87.016,54.425,86.726,54.425z
				 M68.831,52.425h16.704c-1.703-8.29-8.356-14.651-16.704-15.962V52.425z"/>
		</g>
		<g>
			<path d="M62.699,80.948c-12.32,0-22.343-10.024-22.343-22.346c0-11.615,8.717-21.174,20.276-22.234
				c0.276-0.03,0.558,0.068,0.765,0.258c0.208,0.189,0.326,0.457,0.326,0.738V59.61h22.214c0.281,0,0.55,0.118,0.739,0.326
				s0.283,0.486,0.256,0.767C83.854,72.245,74.296,80.948,62.699,80.948z M59.724,38.489c-9.976,1.445-17.367,9.907-17.367,20.113
				c0,11.219,9.125,20.346,20.343,20.346c10.189,0,18.649-7.379,20.111-17.338H60.724c-0.552,0-1-0.447-1-1V38.489z"/>
		</g>
	</g>
	<g>
		<path d="M95.932,115.069H32.15c-2.206,0-4-1.794-4-4V19.269c0-2.206,1.794-4,4-4h63.781c2.206,0,4,1.794,4,4v91.801
			C99.932,113.275,98.137,115.069,95.932,115.069z M32.15,17.269c-1.103,0-2,0.897-2,2v91.801c0,1.103,0.897,2,2,2h63.781
			c1.103,0,2-0.897,2-2V19.269c0-1.103-0.897-2-2-2H32.15z"/>
	</g>
	<g>
		<path d="M66.596,106.405c0,1.408-1.144,2.555-2.557,2.555c-1.407,0-2.553-1.146-2.553-2.555c0-1.412,1.146-2.557,2.553-2.557
			C65.452,103.849,66.596,104.993,66.596,106.405z"/>
	</g>
	<g>
		<path d="M98.401,98.099H29.681c-0.552,0-1-0.447-1-1s0.448-1,1-1h68.721c0.552,0,1,0.447,1,1S98.954,98.099,98.401,98.099z"/>
	</g>
</g>
</svg>
