<?xml version="1.0" encoding="utf-8"?>
<!-- Generator: Adobe Illustrator 16.0.0, SVG Export Plug-In . SVG Version: 6.00 Build 0)  -->
<!DOCTYPE svg PUBLIC "-//W3C//DTD SVG 1.1//EN" "http://www.w3.org/Graphics/SVG/1.1/DTD/svg11.dtd">
<svg version="1.1" id="Layer_1" xmlns="http://www.w3.org/2000/svg" xmlns:xlink="http://www.w3.org/1999/xlink" x="0px" y="0px"
	 width="128px" height="128px" viewBox="0 0 128 128" enable-background="new 0 0 128 128" xml:space="preserve">
<g>
	<g>
		<path fill="none" stroke="#000000" stroke-width="2" stroke-linecap="round" stroke-linejoin="round" stroke-miterlimit="10" d="
			M66.771,40.317v13.031h13.603C79.358,46.448,73.768,41.03,66.771,40.317z"/>
		<path fill="none" stroke="#000000" stroke-width="2" stroke-linecap="round" stroke-linejoin="round" stroke-miterlimit="10" d="
			M61.653,58.526v-16.74c-7.82,0.717-13.946,7.287-13.946,15.297c0,8.482,6.879,15.365,15.369,15.365
			c7.997,0,14.564-6.111,15.292-13.922H61.653z"/>
	</g>
	<g>
		<g>
			<path d="M103.317,89.192H24.765c-2.206,0-4-1.794-4-4v-53.49c0-2.206,1.794-4,4-4h78.553c2.206,0,4,1.794,4,4v53.49
				C107.317,87.398,105.523,89.192,103.317,89.192z M24.765,29.702c-1.103,0-2,0.897-2,2v53.49c0,1.103,0.897,2,2,2h78.553
				c1.103,0,2-0.897,2-2v-53.49c0-1.103-0.897-2-2-2H24.765z"/>
		</g>
		<g>
			<path d="M113.917,102.634c-0.007-0.001-0.014,0-0.02,0H14.185c-0.389,0-0.743-0.226-0.907-0.579
				c-0.164-0.353-0.108-0.769,0.143-1.065l7.398-8.766c0.19-0.226,0.47-0.355,0.764-0.355h84.916c0.294,0,0.574,0.13,0.764,0.355
				l7.294,8.642c0.22,0.184,0.36,0.46,0.36,0.769C114.917,102.187,114.47,102.634,113.917,102.634z M16.337,100.634h95.407
				l-5.71-6.766H22.047L16.337,100.634z"/>
		</g>
		<g>
			<path d="M106.317,82.601H21.765c-0.552,0-1-0.447-1-1s0.448-1,1-1h84.553c0.552,0,1,0.447,1,1S106.87,82.601,106.317,82.601z"/>
		</g>
	</g>
</g>
</svg>
