<?xml version="1.0" encoding="utf-8"?>
<!-- Generator: Adobe Illustrator 16.0.0, SVG Export Plug-In . SVG Version: 6.00 Build 0)  -->
<!DOCTYPE svg PUBLIC "-//W3C//DTD SVG 1.1//EN" "http://www.w3.org/Graphics/SVG/1.1/DTD/svg11.dtd">
<svg version="1.1" id="Layer_1" xmlns="http://www.w3.org/2000/svg" xmlns:xlink="http://www.w3.org/1999/xlink" x="0px" y="0px"
	 width="128px" height="128px" viewBox="0 0 128 128" enable-background="new 0 0 128 128" xml:space="preserve">
<g>
	<g>
		<g>
			<path d="M63.178,72.964c-8.109,0-14.707-6.598-14.707-14.707c0-7.647,5.739-13.939,13.35-14.637
				c0.284-0.028,0.558,0.068,0.766,0.258s0.326,0.457,0.326,0.738v13.93h13.906c0.281,0,0.55,0.118,0.739,0.326
				s0.283,0.486,0.256,0.767C77.106,67.235,70.814,72.964,63.178,72.964z M60.912,45.759c-6.024,1.069-10.441,6.262-10.441,12.498
				c0,7.007,5.7,12.707,12.707,12.707c6.226,0,11.417-4.407,12.496-10.418H61.912c-0.552,0-1-0.447-1-1V45.759z"/>
		</g>
		<g>
			<path d="M78.609,55.931H66.475c-0.552,0-1-0.447-1-1V43.304c0-0.283,0.12-0.553,0.33-0.742c0.209-0.19,0.485-0.278,0.772-0.253
				c6.686,0.683,12.041,5.812,13.022,12.477c0.042,0.287-0.042,0.579-0.232,0.799C79.176,55.805,78.9,55.931,78.609,55.931z
				 M67.475,53.931h9.923c-1.168-4.833-5.049-8.539-9.923-9.471V53.931z"/>
		</g>
	</g>
	<g>
		<path d="M83.702,113.192H44.38c-2.206,0-4-1.794-4-4V21.142c0-2.206,1.794-4,4-4h39.321c2.206,0,4,1.794,4,4v88.051
			C87.702,111.398,85.907,113.192,83.702,113.192z M44.38,19.142c-1.103,0-2,0.897-2,2v88.051c0,1.103,0.897,2,2,2h39.321
			c1.103,0,2-0.897,2-2V21.142c0-1.103-0.897-2-2-2H44.38z"/>
	</g>
	<g>
		<path d="M86.05,96.009H42.03c-0.552,0-1-0.447-1-1s0.448-1,1-1h44.02c0.552,0,1,0.447,1,1S86.602,96.009,86.05,96.009z"/>
	</g>
	<g>
		<path d="M66.595,103.901c0,1.412-1.146,2.551-2.554,2.551c-1.411,0-2.557-1.139-2.557-2.551s1.146-2.553,2.557-2.553
			C65.449,101.349,66.595,102.489,66.595,103.901z"/>
	</g>
</g>
</svg>
