<?xml version="1.0" encoding="utf-8"?>
<!-- Generator: Adobe Illustrator 16.0.0, SVG Export Plug-In . SVG Version: 6.00 Build 0)  -->
<!DOCTYPE svg PUBLIC "-//W3C//DTD SVG 1.1//EN" "http://www.w3.org/Graphics/SVG/1.1/DTD/svg11.dtd">
<svg version="1.1" id="Layer_1" xmlns="http://www.w3.org/2000/svg" xmlns:xlink="http://www.w3.org/1999/xlink" x="0px" y="0px"
	 width="128px" height="128px" viewBox="0 0 128 128" enable-background="new 0 0 128 128" xml:space="preserve">
<g>
	<g>
		<path fill="none" stroke="#000000" stroke-width="2" stroke-linecap="round" stroke-linejoin="round" stroke-miterlimit="10" d="
			M66.773,41.569v13.037h13.602C79.36,47.702,73.768,42.288,66.773,41.569z"/>
		<path fill="none" stroke="#000000" stroke-width="2" stroke-linecap="round" stroke-linejoin="round" stroke-miterlimit="10" d="
			M61.654,59.778v-16.74c-7.82,0.717-13.945,7.289-13.945,15.297c0,8.486,6.879,15.361,15.365,15.361
			c8,0,14.566-6.109,15.296-13.918H61.654z"/>
	</g>
	<g>
		<g>
			<path d="M103.318,89.976H24.764c-2.206,0-4-1.794-4-4V32.481c0-2.206,1.794-4,4-4h78.555c2.206,0,4,1.794,4,4v53.494
				C107.318,88.182,105.524,89.976,103.318,89.976z M24.764,30.481c-1.103,0-2,0.897-2,2v53.494c0,1.103,0.897,2,2,2h78.555
				c1.103,0,2-0.897,2-2V32.481c0-1.103-0.897-2-2-2H24.764z"/>
		</g>
		<g>
			<path d="M106.318,83.382H21.764c-0.552,0-1-0.447-1-1s0.448-1,1-1h84.555c0.552,0,1,0.447,1,1S106.871,83.382,106.318,83.382z"/>
		</g>
		<g>
			<g>
				<path d="M47.218,101.065c-0.214,0-0.43-0.068-0.612-0.209c-0.437-0.339-0.517-0.967-0.178-1.403l8.606-11.109
					c0.338-0.438,0.968-0.515,1.403-0.179c0.437,0.339,0.517,0.967,0.178,1.403l-8.606,11.109
					C47.812,100.933,47.516,101.065,47.218,101.065z"/>
			</g>
			<g>
				<path d="M80.867,101.065c-0.298,0-0.594-0.133-0.791-0.388l-8.608-11.109c-0.338-0.437-0.258-1.064,0.178-1.402
					c0.435-0.339,1.064-0.261,1.403,0.178l8.608,11.109c0.338,0.437,0.258,1.064-0.178,1.402
					C81.297,100.997,81.082,101.065,80.867,101.065z"/>
			</g>
		</g>
		<g>
			<path d="M87.518,101.853H40.564c-0.552,0-1-0.447-1-1s0.448-1,1-1h46.954c0.552,0,1,0.447,1,1S88.07,101.853,87.518,101.853z"/>
		</g>
	</g>
</g>
</svg>
