<?xml version="1.0" encoding="utf-8"?>
<!-- Generator: Adobe Illustrator 16.0.0, SVG Export Plug-In . SVG Version: 6.00 Build 0)  -->
<!DOCTYPE svg PUBLIC "-//W3C//DTD SVG 1.1//EN" "http://www.w3.org/Graphics/SVG/1.1/DTD/svg11.dtd">
<svg version="1.1" id="Layer_1" xmlns="http://www.w3.org/2000/svg" xmlns:xlink="http://www.w3.org/1999/xlink" x="0px" y="0px"
	 width="48px" height="48px" viewBox="0 0 48 48" enable-background="new 0 0 48 48" xml:space="preserve">
<g>
	<g>
		<circle cx="24" cy="39.451" r="1.02"/>
	</g>
	<g>
		<path d="M31.543,43.01H16.457c-0.964,0-1.748-0.785-1.748-1.748V6.738c0-0.965,0.784-1.748,1.748-1.748h15.086
			c0.964,0,1.748,0.783,1.748,1.748v34.523C33.291,42.225,32.507,43.01,31.543,43.01z M16.457,5.488
			c-0.688,0-1.248,0.561-1.248,1.25v34.523c0,0.688,0.56,1.248,1.248,1.248h15.086c0.688,0,1.248-0.561,1.248-1.248V6.738
			c0-0.689-0.56-1.25-1.248-1.25H16.457z"/>
	</g>
	<g>
		<path d="M32.781,36.154H15.219c-0.138,0-0.249-0.111-0.249-0.25c0-0.137,0.111-0.248,0.249-0.248h17.562
			c0.138,0,0.249,0.111,0.249,0.248C33.03,36.043,32.919,36.154,32.781,36.154z"/>
	</g>
	<g>
		<path d="M19.804,23.156c-0.58,0-1.051-0.471-1.051-1.051c0-0.578,0.471-1.051,1.051-1.051c0.579,0,1.051,0.473,1.051,1.051
			C20.854,22.686,20.383,23.156,19.804,23.156z M19.804,21.555c-0.305,0-0.552,0.248-0.552,0.551c0,0.305,0.247,0.551,0.552,0.551
			c0.304,0,0.551-0.246,0.551-0.551C20.354,21.803,20.107,21.555,19.804,21.555z"/>
	</g>
	<g>
		<circle cx="25.302" cy="22.105" r="0.801"/>
		<path d="M25.303,23.156c-0.58,0-1.052-0.471-1.052-1.051c0-0.578,0.472-1.051,1.052-1.051c0.579,0,1.051,0.473,1.051,1.051
			C26.354,22.686,25.882,23.156,25.303,23.156z M25.303,21.555c-0.305,0-0.552,0.248-0.552,0.551c0,0.305,0.247,0.551,0.552,0.551
			c0.304,0,0.551-0.246,0.551-0.551C25.854,21.803,25.606,21.555,25.303,21.555z"/>
	</g>
	<g>
		<circle cx="22.698" cy="19.211" r="0.801"/>
		<path d="M22.697,20.262c-0.579,0-1.051-0.471-1.051-1.051c0-0.578,0.472-1.051,1.051-1.051c0.58,0,1.051,0.473,1.051,1.051
			C23.748,19.791,23.277,20.262,22.697,20.262z M22.697,18.66c-0.304,0-0.551,0.248-0.551,0.551c0,0.305,0.247,0.553,0.551,0.553
			c0.305,0,0.552-0.248,0.552-0.553C23.249,18.908,23.002,18.66,22.697,18.66z"/>
	</g>
	<g>
		<path d="M28.196,20.262c-0.579,0-1.051-0.471-1.051-1.051c0-0.578,0.472-1.051,1.051-1.051c0.58,0,1.051,0.473,1.051,1.051
			C29.247,19.791,28.776,20.262,28.196,20.262z M28.196,18.66c-0.304,0-0.551,0.248-0.551,0.551c0,0.305,0.247,0.553,0.551,0.553
			c0.305,0,0.552-0.248,0.552-0.553C28.748,18.908,28.501,18.66,28.196,18.66z"/>
	</g>
	<g>
		<path d="M20.409,21.836c-0.064,0-0.128-0.023-0.177-0.072c-0.098-0.098-0.098-0.256,0-0.354l1.698-1.699
			c0.098-0.098,0.256-0.098,0.353,0c0.098,0.098,0.098,0.256,0,0.354l-1.697,1.699C20.537,21.812,20.473,21.836,20.409,21.836z"/>
	</g>
	<g>
		<path d="M25.908,21.836c-0.064,0-0.128-0.023-0.177-0.072c-0.098-0.098-0.098-0.256,0-0.354l1.698-1.699
			c0.098-0.098,0.255-0.098,0.353,0s0.098,0.256,0,0.354l-1.698,1.699C26.035,21.812,25.972,21.836,25.908,21.836z"/>
	</g>
	<g>
		<path d="M24.753,21.588c-0.063,0-0.128-0.023-0.177-0.072l-1.486-1.486c-0.098-0.098-0.098-0.256,0-0.354s0.256-0.098,0.354,0
			l1.486,1.486c0.098,0.098,0.098,0.256,0,0.354C24.881,21.564,24.816,21.588,24.753,21.588z"/>
	</g>
</g>
</svg>
