<?xml version="1.0" encoding="utf-8"?>
<!-- Generator: Adobe Illustrator 16.0.0, SVG Export Plug-In . SVG Version: 6.00 Build 0)  -->
<!DOCTYPE svg PUBLIC "-//W3C//DTD SVG 1.1//EN" "http://www.w3.org/Graphics/SVG/1.1/DTD/svg11.dtd">
<svg version="1.1" id="Layer_1" xmlns="http://www.w3.org/2000/svg" xmlns:xlink="http://www.w3.org/1999/xlink" x="0px" y="0px"
	 width="48px" height="48px" viewBox="0 0 48 48" enable-background="new 0 0 48 48" xml:space="preserve">
<g>
	<g>
		<g>
			<path d="M39.367,33.748H8.632c-0.964,0-1.748-0.785-1.748-1.748V11.262c0-0.963,0.784-1.748,1.748-1.748h30.735
				c0.964,0,1.749,0.785,1.749,1.748V32C41.116,32.963,40.331,33.748,39.367,33.748z M8.632,10.014
				c-0.688,0-1.249,0.559-1.249,1.248V32c0,0.688,0.56,1.248,1.249,1.248h30.735c0.688,0,1.249-0.561,1.249-1.248V11.262
				c0-0.689-0.561-1.248-1.249-1.248H8.632z"/>
		</g>
		<g>
			<path d="M40.866,31.117H7.134c-0.138,0-0.25-0.111-0.25-0.25c0-0.137,0.111-0.248,0.25-0.248h33.732
				c0.138,0,0.25,0.111,0.25,0.248C41.116,31.006,41.004,31.117,40.866,31.117z"/>
		</g>
		<g>
			<g>
				<path d="M17.288,38.174c-0.054,0-0.107-0.018-0.153-0.053c-0.109-0.084-0.129-0.242-0.045-0.352l3.435-4.432
					c0.084-0.109,0.241-0.129,0.35-0.045c0.109,0.084,0.129,0.242,0.045,0.352l-3.434,4.432
					C17.436,38.141,17.362,38.174,17.288,38.174z"/>
			</g>
			<g>
				<path d="M30.712,38.174c-0.075,0-0.148-0.033-0.198-0.098l-3.434-4.432c-0.084-0.109-0.064-0.268,0.044-0.352
					s0.266-0.064,0.351,0.045l3.434,4.432c0.084,0.109,0.064,0.268-0.044,0.352C30.82,38.156,30.766,38.174,30.712,38.174z"/>
			</g>
		</g>
		<g>
			<path d="M33.366,38.486H14.634c-0.138,0-0.25-0.113-0.25-0.25c0-0.139,0.112-0.25,0.25-0.25h18.732c0.138,0,0.25,0.111,0.25,0.25
				C33.616,38.373,33.504,38.486,33.366,38.486z"/>
		</g>
	</g>
	<g>
		<g>
			<path d="M16.757,24.789c-0.9,0-1.632-0.732-1.632-1.633s0.732-1.633,1.632-1.633s1.632,0.732,1.632,1.633
				S17.657,24.789,16.757,24.789z M16.757,22.023c-0.625,0-1.133,0.508-1.133,1.133s0.508,1.133,1.133,1.133
				s1.133-0.508,1.133-1.133S17.381,22.023,16.757,22.023z"/>
		</g>
		<g>
			<circle cx="26.248" cy="23.156" r="1.383"/>
			<path d="M26.248,24.789c-0.9,0-1.632-0.732-1.632-1.633s0.732-1.633,1.632-1.633c0.9,0,1.633,0.732,1.633,1.633
				S27.148,24.789,26.248,24.789z M26.248,22.023c-0.625,0-1.133,0.508-1.133,1.133s0.508,1.133,1.133,1.133
				c0.625,0,1.133-0.508,1.133-1.133S26.873,22.023,26.248,22.023z"/>
		</g>
		<g>
			<path d="M23.135,18.16c0,0.766-0.619,1.385-1.383,1.385s-1.383-0.619-1.383-1.385c0-0.762,0.619-1.381,1.383-1.381
				S23.135,17.398,23.135,18.16z"/>
			<path d="M21.752,19.793c-0.9,0-1.632-0.732-1.632-1.633c0-0.898,0.732-1.631,1.632-1.631s1.632,0.732,1.632,1.631
				C23.384,19.061,22.652,19.793,21.752,19.793z M21.752,17.029c-0.625,0-1.133,0.508-1.133,1.131c0,0.625,0.508,1.135,1.133,1.135
				s1.133-0.51,1.133-1.135C22.885,17.537,22.376,17.029,21.752,17.029z"/>
		</g>
		<g>
			<path d="M31.243,19.793c-0.9,0-1.632-0.732-1.632-1.633c0-0.898,0.732-1.631,1.632-1.631c0.9,0,1.633,0.732,1.633,1.631
				C32.875,19.061,32.143,19.793,31.243,19.793z M31.243,17.029c-0.625,0-1.133,0.508-1.133,1.131c0,0.625,0.508,1.135,1.133,1.135
				c0.625,0,1.133-0.51,1.133-1.135C32.376,17.537,31.868,17.029,31.243,17.029z"/>
		</g>
		<g>
			<path d="M17.802,22.51c-0.064,0-0.128-0.023-0.177-0.072c-0.097-0.098-0.097-0.256,0-0.354l2.931-2.932
				c0.097-0.098,0.255-0.098,0.353,0s0.098,0.256,0,0.354l-2.931,2.932C17.93,22.486,17.866,22.51,17.802,22.51z"/>
		</g>
		<g>
			<path d="M27.292,22.51c-0.064,0-0.128-0.023-0.176-0.072c-0.098-0.098-0.098-0.256,0-0.354l2.931-2.932
				c0.098-0.098,0.255-0.098,0.353,0s0.098,0.256,0,0.354l-2.931,2.932C27.42,22.486,27.356,22.51,27.292,22.51z"/>
		</g>
		<g>
			<path d="M25.299,22.082c-0.064,0-0.128-0.025-0.177-0.074l-2.564-2.564c-0.098-0.098-0.098-0.256,0-0.354
				c0.097-0.098,0.255-0.098,0.353,0l2.565,2.564c0.098,0.098,0.098,0.256,0,0.354C25.427,22.057,25.363,22.082,25.299,22.082z"/>
		</g>
	</g>
</g>
</svg>
