<?xml version="1.0" encoding="utf-8"?>
<!-- Generator: Adobe Illustrator 16.0.0, SVG Export Plug-In . SVG Version: 6.00 Build 0)  -->
<!DOCTYPE svg PUBLIC "-//W3C//DTD SVG 1.1//EN" "http://www.w3.org/Graphics/SVG/1.1/DTD/svg11.dtd">
<svg version="1.1" id="Layer_1" xmlns="http://www.w3.org/2000/svg" xmlns:xlink="http://www.w3.org/1999/xlink" x="0px" y="0px"
	 width="48px" height="48px" viewBox="0 0 48 48" enable-background="new 0 0 48 48" xml:space="preserve">
<g>
	<g>
		<g>
			<path d="M28.717,33.656H17.485c-1.515,0-2.748-1.232-2.748-2.748V17.09c0-1.514,1.233-2.746,2.748-2.746h11.231
				c1.515,0,2.748,1.232,2.748,2.746v13.818C31.465,32.424,30.231,33.656,28.717,33.656z M17.485,14.842
				c-1.24,0-2.248,1.01-2.248,2.248v13.818c0,1.24,1.008,2.248,2.248,2.248h11.231c1.24,0,2.248-1.008,2.248-2.248V17.09
				c0-1.238-1.008-2.248-2.248-2.248H17.485z"/>
		</g>
		<g>
			<path d="M33.013,22.057c-0.138,0-0.25-0.111-0.25-0.25v-3.125c0-0.139,0.112-0.25,0.25-0.25c0.139,0,0.25,0.111,0.25,0.25v3.125
				C33.263,21.945,33.151,22.057,33.013,22.057z"/>
		</g>
		<g>
			<path d="M28.215,13.002c-0.138,0-0.249-0.113-0.249-0.25V9.273c0-0.412-0.336-0.75-0.75-0.75h-8.229
				c-0.413,0-0.749,0.338-0.749,0.75v3.479c0,0.137-0.112,0.25-0.25,0.25s-0.25-0.113-0.25-0.25V9.273
				c0-0.689,0.561-1.248,1.249-1.248h8.229c0.689,0,1.249,0.559,1.249,1.248v3.479C28.465,12.889,28.354,13.002,28.215,13.002z"/>
		</g>
		<g>
			<path d="M27.216,39.975h-8.229c-0.688,0-1.249-0.561-1.249-1.25v-3.477c0-0.139,0.112-0.25,0.25-0.25s0.25,0.111,0.25,0.25v3.477
				c0,0.414,0.336,0.75,0.749,0.75h8.229c0.414,0,0.75-0.336,0.75-0.75v-3.477c0-0.139,0.111-0.25,0.249-0.25
				c0.139,0,0.25,0.111,0.25,0.25v3.477C28.465,39.414,27.905,39.975,27.216,39.975z"/>
		</g>
	</g>
	<g>
		<g>
			<circle cx="18.905" cy="25.447" r="0.801"/>
			<path d="M18.905,26.498c-0.58,0-1.052-0.473-1.052-1.051c0-0.58,0.472-1.051,1.052-1.051c0.579,0,1.051,0.471,1.051,1.051
				C19.956,26.025,19.484,26.498,18.905,26.498z M18.905,24.895c-0.305,0-0.552,0.248-0.552,0.553c0,0.303,0.247,0.551,0.552,0.551
				c0.304,0,0.551-0.248,0.551-0.551C19.456,25.143,19.209,24.895,18.905,24.895z"/>
		</g>
		<g>
			<circle cx="24.404" cy="25.447" r="0.801"/>
			<path d="M24.404,26.498c-0.58,0-1.052-0.473-1.052-1.051c0-0.58,0.472-1.051,1.052-1.051c0.579,0,1.051,0.471,1.051,1.051
				C25.455,26.025,24.983,26.498,24.404,26.498z M24.404,24.895c-0.305,0-0.552,0.248-0.552,0.553c0,0.303,0.247,0.551,0.552,0.551
				c0.304,0,0.551-0.248,0.551-0.551C24.955,25.143,24.708,24.895,24.404,24.895z"/>
		</g>
		<g>
			<circle cx="21.799" cy="22.553" r="0.801"/>
			<path d="M21.799,23.604c-0.579,0-1.051-0.471-1.051-1.051s0.472-1.051,1.051-1.051c0.58,0,1.051,0.471,1.051,1.051
				S22.379,23.604,21.799,23.604z M21.799,22.002c-0.304,0-0.551,0.246-0.551,0.551s0.247,0.551,0.551,0.551
				c0.305,0,0.552-0.246,0.552-0.551S22.104,22.002,21.799,22.002z"/>
		</g>
		<g>
			<circle cx="27.298" cy="22.553" r="0.801"/>
			<path d="M27.298,23.604c-0.58,0-1.051-0.471-1.051-1.051s0.471-1.051,1.051-1.051c0.579,0,1.051,0.471,1.051,1.051
				S27.877,23.604,27.298,23.604z M27.298,22.002c-0.304,0-0.552,0.246-0.552,0.551s0.248,0.551,0.552,0.551
				s0.551-0.246,0.551-0.551S27.602,22.002,27.298,22.002z"/>
		</g>
		<g>
			<path d="M19.511,25.178c-0.064,0-0.128-0.025-0.177-0.074c-0.098-0.098-0.098-0.256,0-0.354l1.697-1.697
				c0.098-0.098,0.256-0.098,0.354,0s0.098,0.256,0,0.354l-1.698,1.697C19.638,25.152,19.574,25.178,19.511,25.178z"/>
		</g>
		<g>
			<path d="M25.009,25.178c-0.063,0-0.128-0.025-0.177-0.074c-0.098-0.098-0.098-0.256,0-0.354l1.699-1.697
				c0.098-0.098,0.255-0.098,0.353,0s0.098,0.256,0,0.354l-1.698,1.697C25.137,25.152,25.073,25.178,25.009,25.178z"/>
		</g>
		<g>
			<path d="M23.854,24.93c-0.064,0-0.128-0.025-0.177-0.074l-1.486-1.486c-0.098-0.098-0.098-0.256,0-0.354s0.256-0.098,0.354,0
				l1.486,1.488c0.098,0.098,0.098,0.254,0,0.352C23.982,24.904,23.918,24.93,23.854,24.93z"/>
		</g>
	</g>
</g>
</svg>
