<?xml version="1.0" encoding="utf-8"?>
<!-- Generator: Adobe Illustrator 16.0.0, SVG Export Plug-In . SVG Version: 6.00 Build 0)  -->
<!DOCTYPE svg PUBLIC "-//W3C//DTD SVG 1.1//EN" "http://www.w3.org/Graphics/SVG/1.1/DTD/svg11.dtd">
<svg version="1.1" id="Layer_1" xmlns="http://www.w3.org/2000/svg" xmlns:xlink="http://www.w3.org/1999/xlink" x="0px" y="0px"
	 width="48px" height="48px" viewBox="0 0 48 48" enable-background="new 0 0 48 48" xml:space="preserve">
<g>
	<g>
		<path d="M36.421,43.758H11.579c-0.965,0-1.749-0.785-1.749-1.748V5.99c0-0.965,0.784-1.748,1.749-1.748h24.842
			c0.964,0,1.749,0.783,1.749,1.748v36.02C38.17,42.973,37.385,43.758,36.421,43.758z M11.579,4.74c-0.689,0-1.249,0.561-1.249,1.25
			v36.02c0,0.689,0.56,1.248,1.249,1.248h24.842c0.688,0,1.249-0.559,1.249-1.248V5.99c0-0.689-0.561-1.25-1.249-1.25H11.579z"/>
	</g>
	<g>
		<circle cx="24" cy="40.451" r="1.02"/>
	</g>
	<g>
		<path d="M37.707,36.988H10.293c-0.139,0-0.25-0.111-0.25-0.25s0.111-0.25,0.25-0.25h27.414c0.139,0,0.25,0.111,0.25,0.25
			S37.846,36.988,37.707,36.988z"/>
	</g>
	<g>
		<path d="M16.757,24.789c-0.9,0-1.632-0.732-1.632-1.633s0.731-1.633,1.632-1.633s1.633,0.732,1.633,1.633
			S17.657,24.789,16.757,24.789z M16.757,22.023c-0.624,0-1.133,0.508-1.133,1.133s0.509,1.133,1.133,1.133
			c0.625,0,1.133-0.508,1.133-1.133S17.382,22.023,16.757,22.023z"/>
	</g>
	<g>
		<circle cx="26.248" cy="23.156" r="1.383"/>
		<path d="M26.248,24.789c-0.9,0-1.633-0.732-1.633-1.633s0.732-1.633,1.633-1.633s1.632,0.732,1.632,1.633
			S27.148,24.789,26.248,24.789z M26.248,22.023c-0.625,0-1.133,0.508-1.133,1.133s0.508,1.133,1.133,1.133
			c0.624,0,1.133-0.508,1.133-1.133S26.872,22.023,26.248,22.023z"/>
	</g>
	<g>
		<path d="M23.135,18.16c0,0.766-0.619,1.385-1.383,1.385s-1.383-0.619-1.383-1.385c0-0.762,0.619-1.381,1.383-1.381
			S23.135,17.398,23.135,18.16z"/>
		<path d="M21.752,19.793c-0.9,0-1.632-0.732-1.632-1.633c0-0.898,0.731-1.631,1.632-1.631s1.633,0.732,1.633,1.631
			C23.385,19.061,22.652,19.793,21.752,19.793z M21.752,17.029c-0.624,0-1.133,0.508-1.133,1.131c0,0.625,0.509,1.135,1.133,1.135
			c0.625,0,1.133-0.51,1.133-1.135C22.885,17.537,22.377,17.029,21.752,17.029z"/>
	</g>
	<g>
		<path d="M31.243,19.793c-0.9,0-1.633-0.732-1.633-1.633c0-0.898,0.732-1.631,1.633-1.631s1.632,0.732,1.632,1.631
			C32.875,19.061,32.144,19.793,31.243,19.793z M31.243,17.029c-0.625,0-1.133,0.508-1.133,1.131c0,0.625,0.508,1.135,1.133,1.135
			c0.624,0,1.133-0.51,1.133-1.135C32.376,17.537,31.867,17.029,31.243,17.029z"/>
	</g>
	<g>
		<path d="M17.802,22.51c-0.063,0-0.128-0.023-0.177-0.072c-0.098-0.098-0.098-0.256,0-0.354l2.931-2.932
			c0.098-0.098,0.256-0.098,0.354,0s0.098,0.256,0,0.354l-2.931,2.932C17.93,22.486,17.866,22.51,17.802,22.51z"/>
	</g>
	<g>
		<path d="M27.293,22.51c-0.064,0-0.128-0.023-0.177-0.072c-0.098-0.098-0.098-0.256,0-0.354l2.931-2.932
			c0.098-0.098,0.256-0.098,0.354,0s0.098,0.256,0,0.354l-2.931,2.932C27.421,22.486,27.356,22.51,27.293,22.51z"/>
	</g>
	<g>
		<path d="M25.3,22.082c-0.064,0-0.128-0.025-0.177-0.074l-2.565-2.564c-0.098-0.098-0.098-0.256,0-0.354s0.256-0.098,0.354,0
			l2.564,2.564c0.098,0.098,0.098,0.256,0,0.354C25.428,22.057,25.363,22.082,25.3,22.082z"/>
	</g>
</g>
</svg>
