<?xml version="1.0" encoding="utf-8"?>
<!-- Generator: Adobe Illustrator 16.0.0, SVG Export Plug-In . SVG Version: 6.00 Build 0)  -->
<!DOCTYPE svg PUBLIC "-//W3C//DTD SVG 1.1//EN" "http://www.w3.org/Graphics/SVG/1.1/DTD/svg11.dtd">
<svg version="1.1" id="Layer_1" xmlns="http://www.w3.org/2000/svg" xmlns:xlink="http://www.w3.org/1999/xlink" x="0px" y="0px"
	 width="128px" height="128px" viewBox="0 0 128 128" enable-background="new 0 0 128 128" xml:space="preserve">
<g>
	
		<polyline fill="none" stroke="#000000" stroke-width="2" stroke-linecap="round" stroke-linejoin="round" stroke-miterlimit="10" points="
		55.955,48.229 64.041,56.318 72.127,48.229 64.041,40.139 64.041,73.027 72.127,64.945 64.041,56.855 55.955,64.945 	"/>
	<g>
		<g>
			<path d="M103.317,89.194H24.765c-2.206,0-4-1.794-4-4V31.705c0-2.206,1.794-4,4-4h78.553c2.206,0,4,1.794,4,4v53.489
				C107.317,87.4,105.523,89.194,103.317,89.194z M24.765,29.705c-1.103,0-2,0.897-2,2v53.489c0,1.103,0.897,2,2,2h78.553
				c1.103,0,2-0.897,2-2V31.705c0-1.103-0.897-2-2-2H24.765z"/>
		</g>
		<g>
			<path d="M113.917,102.633c-0.004,0.001-0.012,0.001-0.02,0H14.185c-0.39,0-0.743-0.226-0.907-0.579
				c-0.164-0.353-0.108-0.769,0.144-1.066l7.398-8.762c0.189-0.225,0.469-0.354,0.764-0.354h84.916c0.295,0,0.574,0.13,0.764,0.354
				l7.295,8.639c0.22,0.184,0.359,0.46,0.359,0.769C114.917,102.186,114.47,102.633,113.917,102.633z M16.338,100.633h95.406
				l-5.71-6.762H22.048L16.338,100.633z"/>
		</g>
		<g>
			<path d="M106.317,82.604H21.765c-0.553,0-1-0.447-1-1s0.447-1,1-1h84.553c0.553,0,1,0.447,1,1S106.87,82.604,106.317,82.604z"/>
		</g>
	</g>
</g>
</svg>
