<?xml version="1.0" encoding="utf-8"?>
<!-- Generator: Adobe Illustrator 16.0.0, SVG Export Plug-In . SVG Version: 6.00 Build 0)  -->
<!DOCTYPE svg PUBLIC "-//W3C//DTD SVG 1.1//EN" "http://www.w3.org/Graphics/SVG/1.1/DTD/svg11.dtd">
<svg version="1.1" id="Layer_1" xmlns="http://www.w3.org/2000/svg" xmlns:xlink="http://www.w3.org/1999/xlink" x="0px" y="0px"
	 width="128px" height="128px" viewBox="0 0 128 128" enable-background="new 0 0 128 128" xml:space="preserve">
<g>
	
		<polyline fill="none" stroke="#000000" stroke-width="2" stroke-linecap="round" stroke-linejoin="round" stroke-miterlimit="10" points="
		55.023,58.18 61.789,64.945 68.555,58.18 61.789,51.415 61.789,78.928 68.555,72.163 61.789,65.397 55.023,72.163 	"/>
	<g>
		<g>
			<path d="M77.125,89.751H46.451c-3.309,0-6-2.691-6-6V46.587c0-3.309,2.691-6,6-6h30.674c3.309,0,6,2.691,6,6v37.164
				C83.125,87.06,80.434,89.751,77.125,89.751z M46.451,42.587c-2.206,0-4,1.794-4,4v37.164c0,2.206,1.794,4,4,4h30.674
				c2.206,0,4-1.794,4-4V46.587c0-2.206-1.794-4-4-4H46.451z"/>
		</g>
		<g>
			<path d="M86.631,60.671c-0.553,0-1-0.447-1-1v-7.832c0-0.553,0.447-1,1-1s1,0.447,1,1v7.832
				C87.631,60.224,87.184,60.671,86.631,60.671z"/>
		</g>
		<g>
			<path d="M74.609,37.973c-0.553,0-1-0.447-1-1v-9.218c0-0.552-0.448-1-1-1H50.969c-0.552,0-1,0.448-1,1v9.218c0,0.553-0.447,1-1,1
				s-1-0.447-1-1v-9.218c0-1.654,1.346-3,3-3h21.641c1.654,0,3,1.346,3,3v9.218C75.609,37.525,75.162,37.973,74.609,37.973z"/>
		</g>
		<g>
			<path d="M72.609,105.583H50.969c-1.654,0-3-1.346-3-3v-9.222c0-0.553,0.447-1,1-1s1,0.447,1,1v9.222c0,0.552,0.448,1,1,1h21.641
				c0.552,0,1-0.448,1-1v-9.222c0-0.553,0.447-1,1-1s1,0.447,1,1v9.222C75.609,104.237,74.264,105.583,72.609,105.583z"/>
		</g>
	</g>
</g>
</svg>
