<?xml version="1.0" encoding="utf-8"?>
<!-- Generator: Adobe Illustrator 16.0.0, SVG Export Plug-In . SVG Version: 6.00 Build 0)  -->
<!DOCTYPE svg PUBLIC "-//W3C//DTD SVG 1.1//EN" "http://www.w3.org/Graphics/SVG/1.1/DTD/svg11.dtd">
<svg version="1.1" id="Layer_1" xmlns="http://www.w3.org/2000/svg" xmlns:xlink="http://www.w3.org/1999/xlink" x="0px" y="0px"
	 width="128px" height="128px" viewBox="0 0 128 128" enable-background="new 0 0 128 128" xml:space="preserve">
<g>
	<g>
		<path d="M64.037,84.372c-0.129,0-0.259-0.024-0.383-0.076c-0.374-0.154-0.617-0.52-0.617-0.924V59.44L51.572,70.908
			c-0.391,0.391-1.023,0.391-1.414,0s-0.391-1.023,0-1.414l12.879-12.932L50.158,43.681c-0.391-0.391-0.391-1.023,0-1.414
			s1.023-0.391,1.414,0l11.465,11.467V29.802c0-0.404,0.243-0.77,0.617-0.924c0.375-0.155,0.805-0.069,1.09,0.217L77.92,42.267
			c0.188,0.188,0.293,0.441,0.293,0.707s-0.105,0.52-0.293,0.707L65.037,56.611L77.92,69.494c0.188,0.188,0.293,0.441,0.293,0.707
			s-0.105,0.52-0.293,0.707L64.744,84.079C64.553,84.271,64.297,84.372,64.037,84.372z M65.037,59.439v21.519l10.762-10.757
			L65.037,59.439z M65.037,32.216v21.519l10.762-10.761L65.037,32.216z"/>
	</g>
	<g>
		<path d="M95.932,115.067H32.15c-2.206,0-4-1.794-4-4V19.271c0-2.206,1.794-4,4-4h63.781c2.206,0,4,1.794,4,4v91.797
			C99.932,113.273,98.138,115.067,95.932,115.067z M32.15,17.271c-1.103,0-2,0.897-2,2v91.797c0,1.103,0.897,2,2,2h63.781
			c1.103,0,2-0.897,2-2V19.271c0-1.103-0.897-2-2-2H32.15z"/>
	</g>
	<g>
		<path d="M66.598,106.41c0,1.405-1.145,2.548-2.561,2.548c-1.404,0-2.553-1.143-2.553-2.548c0-1.417,1.148-2.561,2.553-2.561
			C65.453,103.85,66.598,104.993,66.598,106.41z"/>
	</g>
	<g>
		<path d="M98.404,98.1H29.682c-0.553,0-1-0.447-1-1s0.447-1,1-1h68.723c0.553,0,1,0.447,1,1S98.957,98.1,98.404,98.1z"/>
	</g>
</g>
</svg>
