<?xml version="1.0" encoding="utf-8"?>
<!-- Generator: Adobe Illustrator 16.0.0, SVG Export Plug-In . SVG Version: 6.00 Build 0)  -->
<!DOCTYPE svg PUBLIC "-//W3C//DTD SVG 1.1//EN" "http://www.w3.org/Graphics/SVG/1.1/DTD/svg11.dtd">
<svg version="1.1" id="Layer_1" xmlns="http://www.w3.org/2000/svg" xmlns:xlink="http://www.w3.org/1999/xlink" x="0px" y="0px"
	 width="128px" height="128px" viewBox="0 0 128 128" enable-background="new 0 0 128 128" xml:space="preserve">
<g>
	<g>
		<path fill="none" stroke="#000000" stroke-width="2" stroke-linecap="round" stroke-linejoin="round" stroke-miterlimit="10" d="
			M49.354,63.054c0,1.915-1.552,3.471-3.466,3.471c-1.915,0-3.467-1.556-3.467-3.471c0-1.912,1.552-3.464,3.467-3.464
			C47.801,59.59,49.354,61.142,49.354,63.054z"/>
		<path stroke="#000000" stroke-width="2" stroke-miterlimit="10" d="M73.143,63.054c0,1.915-1.553,3.471-3.467,3.471
			c-1.914,0-3.466-1.556-3.466-3.471c0-1.912,1.552-3.464,3.466-3.464C71.59,59.59,73.143,61.142,73.143,63.054z"/>
		<circle stroke="#000000" stroke-width="2" stroke-miterlimit="10" cx="58.407" cy="50.534" r="3.466"/>
		
			<circle fill="none" stroke="#000000" stroke-width="2" stroke-linecap="round" stroke-linejoin="round" stroke-miterlimit="10" cx="82.197" cy="50.534" r="3.467"/>
		
			<line fill="none" stroke="#000000" stroke-width="2" stroke-linecap="round" stroke-linejoin="round" stroke-miterlimit="10" x1="48.504" y1="60.813" x2="55.852" y2="53.465"/>
		
			<line fill="none" stroke="#000000" stroke-width="2" stroke-linecap="round" stroke-linejoin="round" stroke-miterlimit="10" x1="72.295" y1="60.813" x2="79.64" y2="53.465"/>
		
			<line fill="none" stroke="#000000" stroke-width="2" stroke-linecap="round" stroke-linejoin="round" stroke-miterlimit="10" x1="67.299" y1="59.74" x2="60.871" y2="53.307"/>
	</g>
	<g>
		<g>
			<path d="M103.318,89.979H24.764c-2.206,0-4-1.794-4-4v-53.49c0-2.206,1.794-4,4-4h78.555c2.206,0,4,1.794,4,4v53.49
				C107.318,88.185,105.524,89.979,103.318,89.979z M24.764,30.488c-1.103,0-2,0.897-2,2v53.49c0,1.103,0.897,2,2,2h78.555
				c1.103,0,2-0.897,2-2v-53.49c0-1.103-0.897-2-2-2H24.764z"/>
		</g>
		<g>
			<path d="M106.318,83.383H21.764c-0.552,0-1-0.447-1-1s0.448-1,1-1h84.555c0.552,0,1,0.447,1,1S106.871,83.383,106.318,83.383z"/>
		</g>
		<g>
			<g>
				<path d="M47.218,101.069c-0.214,0-0.43-0.068-0.612-0.209c-0.437-0.339-0.517-0.967-0.178-1.403l8.606-11.109
					c0.338-0.438,0.968-0.516,1.403-0.179c0.437,0.339,0.517,0.967,0.178,1.403l-8.606,11.109
					C47.812,100.937,47.516,101.069,47.218,101.069z"/>
			</g>
			<g>
				<path d="M80.867,101.069c-0.298,0-0.594-0.133-0.791-0.388l-8.608-11.109c-0.338-0.437-0.258-1.064,0.178-1.402
					c0.435-0.339,1.064-0.261,1.403,0.178l8.608,11.109c0.338,0.437,0.258,1.064-0.178,1.402
					C81.297,101.001,81.082,101.069,80.867,101.069z"/>
			</g>
		</g>
		<g>
			<path d="M87.518,101.853H40.564c-0.552,0-1-0.447-1-1s0.448-1,1-1h46.954c0.552,0,1,0.447,1,1S88.07,101.853,87.518,101.853z"/>
		</g>
	</g>
</g>
</svg>
