<?xml version="1.0" encoding="utf-8"?>
<!-- Generator: Adobe Illustrator 16.0.0, SVG Export Plug-In . SVG Version: 6.00 Build 0)  -->
<!DOCTYPE svg PUBLIC "-//W3C//DTD SVG 1.1//EN" "http://www.w3.org/Graphics/SVG/1.1/DTD/svg11.dtd">
<svg version="1.1" id="Layer_1" xmlns="http://www.w3.org/2000/svg" xmlns:xlink="http://www.w3.org/1999/xlink" x="0px" y="0px"
	 width="128px" height="128px" viewBox="0 0 128 128" enable-background="new 0 0 128 128" xml:space="preserve">
<g>
	<g>
		<path d="M68.822,60.122c-0.256,0-0.512-0.098-0.707-0.293c-0.391-0.39-0.391-1.023,0-1.414l4.256-4.259
			c0.391-0.391,1.024-0.391,1.415,0s0.391,1.023,0,1.414l-4.256,4.259C69.334,60.024,69.078,60.122,68.822,60.122z"/>
	</g>
	<g>
		<path d="M53.52,63.432c-1.658,0-3.007-1.35-3.007-3.008c0-1.659,1.349-3.009,3.007-3.009c1.659,0,3.008,1.35,3.008,3.009
			C56.528,62.082,55.179,63.432,53.52,63.432z M53.52,59.415c-0.555,0-1.007,0.452-1.007,1.009c0,0.556,0.452,1.008,1.007,1.008
			c0.556,0,1.008-0.452,1.008-1.008C54.528,59.867,54.076,59.415,53.52,59.415z"/>
	</g>
	<g>
		<circle cx="67.304" cy="60.424" r="2.008"/>
		<path d="M67.304,63.432c-1.658,0-3.007-1.35-3.007-3.008c0-1.659,1.349-3.009,3.007-3.009c1.659,0,3.008,1.35,3.008,3.009
			C70.312,62.082,68.962,63.432,67.304,63.432z M67.304,59.415c-0.555,0-1.007,0.452-1.007,1.009c0,0.556,0.452,1.008,1.007,1.008
			c0.556,0,1.008-0.452,1.008-1.008C68.312,59.867,67.86,59.415,67.304,59.415z"/>
	</g>
	<g>
		<path d="M62.786,53.172c0,1.104-0.899,2.004-2.009,2.004s-2.008-0.899-2.008-2.004c0-1.112,0.898-2.013,2.008-2.013
			S62.786,52.06,62.786,53.172z"/>
		<path d="M60.777,56.176c-1.659,0-3.008-1.348-3.008-3.004c0-1.661,1.349-3.013,3.008-3.013c1.659,0,3.009,1.352,3.009,3.013
			C63.786,54.828,62.436,56.176,60.777,56.176z M60.777,52.159c-0.556,0-1.008,0.454-1.008,1.013c0,0.554,0.452,1.004,1.008,1.004
			c0.556,0,1.009-0.45,1.009-1.004C61.786,52.613,61.333,52.159,60.777,52.159z"/>
	</g>
	<g>
		<path d="M74.561,56.176c-1.659,0-3.008-1.348-3.008-3.004c0-1.661,1.349-3.013,3.008-3.013s3.008,1.352,3.008,3.013
			C77.569,54.828,76.219,56.176,74.561,56.176z M74.561,52.159c-0.556,0-1.008,0.454-1.008,1.013c0,0.554,0.452,1.004,1.008,1.004
			c0.556,0,1.008-0.45,1.008-1.004C75.569,52.613,75.117,52.159,74.561,52.159z"/>
	</g>
	<g>
		<path d="M55.039,60.122c-0.256,0-0.512-0.098-0.707-0.293c-0.391-0.39-0.391-1.023,0-1.414l4.256-4.259
			c0.391-0.391,1.024-0.391,1.415,0s0.391,1.023,0,1.414l-4.256,4.259C55.551,60.024,55.294,60.122,55.039,60.122z"/>
	</g>
	<g>
		<path d="M65.926,59.501c-0.256,0-0.512-0.098-0.708-0.293l-3.724-3.727c-0.39-0.391-0.39-1.024,0-1.414
			c0.391-0.391,1.024-0.391,1.415,0l3.724,3.727c0.39,0.391,0.39,1.024,0,1.414C66.438,59.403,66.182,59.501,65.926,59.501z"/>
	</g>
	<g>
		<path d="M66.595,103.903c0,1.406-1.146,2.553-2.554,2.553c-1.411,0-2.557-1.146-2.557-2.553c0-1.413,1.146-2.556,2.557-2.556
			C65.449,101.348,66.595,102.49,66.595,103.903z"/>
	</g>
	<g>
		<path d="M83.702,113.19H44.38c-2.206,0-4-1.794-4-4V21.147c0-2.206,1.794-4,4-4h39.321c2.206,0,4,1.794,4,4v88.043
			C87.702,111.396,85.907,113.19,83.702,113.19z M44.38,19.147c-1.103,0-2,0.897-2,2v88.043c0,1.103,0.897,2,2,2h39.321
			c1.103,0,2-0.897,2-2V21.147c0-1.103-0.897-2-2-2H44.38z"/>
	</g>
	<g>
		<path d="M86.05,96.011H42.03c-0.552,0-1-0.447-1-1s0.448-1,1-1h44.02c0.552,0,1,0.447,1,1S86.602,96.011,86.05,96.011z"/>
	</g>
</g>
</svg>
