<?xml version="1.0" encoding="utf-8"?>
<!-- Generator: Adobe Illustrator 16.0.0, SVG Export Plug-In . SVG Version: 6.00 Build 0)  -->
<!DOCTYPE svg PUBLIC "-//W3C//DTD SVG 1.1//EN" "http://www.w3.org/Graphics/SVG/1.1/DTD/svg11.dtd">
<svg version="1.1" id="Layer_1" xmlns="http://www.w3.org/2000/svg" xmlns:xlink="http://www.w3.org/1999/xlink" x="0px" y="0px"
	 width="128px" height="128px" viewBox="0 0 128 128" enable-background="new 0 0 128 128" xml:space="preserve">
<g>
	<g>
		<path stroke="#000000" stroke-width="2" stroke-linecap="round" stroke-linejoin="round" stroke-miterlimit="10" d="
			M53.277,68.799c0,1.108-0.898,2.001-2.007,2.001c-1.109,0-2.012-0.893-2.012-2.001s0.902-2.012,2.012-2.012
			C52.379,66.787,53.277,67.69,53.277,68.799z"/>
		<path stroke="#000000" stroke-width="2" stroke-miterlimit="10" d="M67.059,68.799c0,1.108-0.896,2.001-2.006,2.001
			c-1.112,0-2.008-0.893-2.008-2.001s0.896-2.012,2.008-2.012C66.163,66.787,67.059,67.69,67.059,68.799z"/>
		<path stroke="#000000" stroke-width="2" stroke-miterlimit="10" d="M60.531,61.543c0,1.104-0.9,2.009-2.011,2.009
			c-1.107,0-2.006-0.904-2.006-2.009c0-1.111,0.898-2.004,2.006-2.004C59.631,59.539,60.531,60.432,60.531,61.543z"/>
		<path stroke="#000000" stroke-width="2" stroke-linecap="round" stroke-linejoin="round" stroke-miterlimit="10" d="
			M74.314,61.543c0,1.104-0.899,2.009-2.008,2.009c-1.11,0-2.01-0.904-2.01-2.009c0-1.111,0.899-2.004,2.01-2.004
			C73.415,59.539,74.314,60.432,74.314,61.543z"/>
		
			<line fill="none" stroke="#000000" stroke-width="2" stroke-linecap="round" stroke-linejoin="round" stroke-miterlimit="10" x1="52.784" y1="67.494" x2="57.042" y2="63.234"/>
		
			<line fill="none" stroke="#000000" stroke-width="2" stroke-linecap="round" stroke-linejoin="round" stroke-miterlimit="10" x1="66.568" y1="67.494" x2="70.824" y2="63.234"/>
		
			<line fill="none" stroke="#000000" stroke-width="2" stroke-linecap="round" stroke-linejoin="round" stroke-miterlimit="10" x1="63.676" y1="66.876" x2="59.95" y2="63.146"/>
	</g>
	<g>
		<g>
			<path d="M77.125,89.751H46.451c-3.309,0-6-2.691-6-6V46.587c0-3.309,2.691-6,6-6h30.674c3.309,0,6,2.691,6,6v37.164
				C83.125,87.06,80.434,89.751,77.125,89.751z M46.451,42.587c-2.206,0-4,1.794-4,4v37.164c0,2.206,1.794,4,4,4h30.674
				c2.206,0,4-1.794,4-4V46.587c0-2.206-1.794-4-4-4H46.451z"/>
		</g>
		<g>
			<path d="M86.631,60.671c-0.552,0-1-0.447-1-1v-7.832c0-0.553,0.448-1,1-1s1,0.447,1,1v7.832
				C87.631,60.224,87.183,60.671,86.631,60.671z"/>
		</g>
		<g>
			<path d="M74.606,37.973c-0.552,0-1-0.447-1-1v-9.218c0-0.552-0.449-1-1-1H50.97c-0.551,0-1,0.448-1,1v9.218c0,0.553-0.448,1-1,1
				s-1-0.447-1-1v-9.218c0-1.654,1.346-3,3-3h21.637c1.654,0,3,1.346,3,3v9.218C75.606,37.525,75.159,37.973,74.606,37.973z"/>
		</g>
		<g>
			<path d="M72.606,105.583H50.97c-1.654,0-3-1.346-3-3v-9.222c0-0.553,0.448-1,1-1s1,0.447,1,1v9.222c0,0.552,0.449,1,1,1h21.637
				c0.551,0,1-0.448,1-1v-9.222c0-0.553,0.448-1,1-1s1,0.447,1,1v9.222C75.606,104.237,74.261,105.583,72.606,105.583z"/>
		</g>
	</g>
</g>
</svg>
