<?xml version="1.0" encoding="utf-8"?>
<!-- Generator: Adobe Illustrator 16.0.0, SVG Export Plug-In . SVG Version: 6.00 Build 0)  -->
<!DOCTYPE svg PUBLIC "-//W3C//DTD SVG 1.1//EN" "http://www.w3.org/Graphics/SVG/1.1/DTD/svg11.dtd">
<svg version="1.1" id="Layer_1" xmlns="http://www.w3.org/2000/svg" xmlns:xlink="http://www.w3.org/1999/xlink" x="0px" y="0px"
	 width="128px" height="128px" viewBox="0 0 128 128" enable-background="new 0 0 128 128" xml:space="preserve">
<g>
	<g>
		<g>
			<path d="M67.296,60.74c-0.256,0-0.512-0.098-0.708-0.293l-6.425-6.434c-0.39-0.392-0.39-1.024,0.001-1.415
				c0.391-0.389,1.023-0.39,1.414,0.001l6.425,6.434c0.39,0.392,0.39,1.024-0.001,1.415C67.807,60.643,67.552,60.74,67.296,60.74z"
				/>
		</g>
		<g>
			<path d="M45.886,67.524c-2.462,0-4.466-2.006-4.466-4.471c0-2.461,2.003-4.464,4.466-4.464s4.466,2.003,4.466,4.464
				C50.352,65.519,48.348,67.524,45.886,67.524z M45.886,60.59c-1.36,0-2.466,1.105-2.466,2.464c0,1.362,1.106,2.471,2.466,2.471
				s2.466-1.108,2.466-2.471C48.352,61.695,47.246,60.59,45.886,60.59z"/>
		</g>
		<g>
			<path d="M73.141,63.054c0,1.915-1.552,3.471-3.466,3.471c-1.913,0-3.464-1.556-3.464-3.471c0-1.912,1.551-3.464,3.464-3.464
				C71.589,59.59,73.141,61.142,73.141,63.054z"/>
			<path d="M69.675,67.524c-2.461,0-4.464-2.006-4.464-4.471c0-2.461,2.002-4.464,4.464-4.464c2.462,0,4.466,2.003,4.466,4.464
				C74.141,65.519,72.137,67.524,69.675,67.524z M69.675,60.59c-1.358,0-2.464,1.105-2.464,2.464c0,1.362,1.105,2.471,2.464,2.471
				c1.36,0,2.466-1.108,2.466-2.471C72.141,61.695,71.035,60.59,69.675,60.59z"/>
		</g>
		<g>
			<circle cx="58.406" cy="50.534" r="3.467"/>
			<path d="M58.407,55.002c-2.463,0-4.468-2.004-4.468-4.468s2.004-4.468,4.468-4.468c2.462,0,4.466,2.004,4.466,4.468
				S60.87,55.002,58.407,55.002z M58.407,48.066c-1.361,0-2.468,1.107-2.468,2.468s1.107,2.468,2.468,2.468
				c1.36,0,2.466-1.107,2.466-2.468S59.767,48.066,58.407,48.066z"/>
		</g>
		<g>
			<path d="M82.198,55.002c-2.463,0-4.468-2.004-4.468-4.468s2.004-4.468,4.468-4.468c2.461,0,4.464,2.004,4.464,4.468
				S84.66,55.002,82.198,55.002z M82.198,48.066c-1.361,0-2.468,1.107-2.468,2.468s1.107,2.468,2.468,2.468
				c1.358,0,2.464-1.107,2.464-2.468S83.557,48.066,82.198,48.066z"/>
		</g>
		<g>
			<path d="M48.504,61.813c-0.256,0-0.512-0.098-0.707-0.293c-0.391-0.391-0.391-1.023,0-1.414l7.349-7.349
				c0.391-0.391,1.023-0.391,1.414,0s0.391,1.023,0,1.414l-7.349,7.349C49.016,61.716,48.76,61.813,48.504,61.813z"/>
		</g>
		<g>
			<path d="M72.295,61.813c-0.256,0-0.512-0.098-0.707-0.293c-0.391-0.391-0.391-1.023,0-1.414l7.345-7.349
				c0.391-0.391,1.024-0.391,1.415,0s0.391,1.023,0,1.414l-7.345,7.349C72.807,61.716,72.551,61.813,72.295,61.813z"/>
		</g>
	</g>
	<g>
		<path d="M95.932,115.067H32.15c-2.206,0-4-1.794-4-4V19.271c0-2.206,1.794-4,4-4h63.781c2.206,0,4,1.794,4,4v91.797
			C99.932,113.273,98.137,115.067,95.932,115.067z M32.15,17.271c-1.103,0-2,0.897-2,2v91.797c0,1.103,0.897,2,2,2h63.781
			c1.103,0,2-0.897,2-2V19.271c0-1.103-0.897-2-2-2H32.15z"/>
	</g>
	<g>
		<path d="M66.596,106.41c0,1.405-1.144,2.548-2.557,2.548c-1.407,0-2.553-1.143-2.553-2.548c0-1.417,1.146-2.561,2.553-2.561
			C65.452,103.85,66.596,104.993,66.596,106.41z"/>
	</g>
	<g>
		<path d="M98.401,98.1H29.681c-0.552,0-1-0.447-1-1s0.448-1,1-1h68.721c0.552,0,1,0.447,1,1S98.954,98.1,98.401,98.1z"/>
	</g>
</g>
</svg>
