<?xml version="1.0" encoding="utf-8"?>
<!-- Generator: Adobe Illustrator 16.0.0, SVG Export Plug-In . SVG Version: 6.00 Build 0)  -->
<!DOCTYPE svg PUBLIC "-//W3C//DTD SVG 1.1//EN" "http://www.w3.org/Graphics/SVG/1.1/DTD/svg11.dtd">
<svg version="1.1" id="Layer_1" xmlns="http://www.w3.org/2000/svg" xmlns:xlink="http://www.w3.org/1999/xlink" x="0px" y="0px"
	 width="128px" height="128px" viewBox="0 0 128 128" enable-background="new 0 0 128 128" xml:space="preserve">
<g>
	<g>
		<path fill="none" stroke="#000000" stroke-width="2" stroke-linecap="round" stroke-linejoin="round" stroke-miterlimit="10" d="
			M49.35,61.806c0,1.916-1.552,3.468-3.466,3.468c-1.913,0-3.465-1.552-3.465-3.468c0-1.919,1.552-3.468,3.465-3.468
			C47.797,58.338,49.35,59.887,49.35,61.806z"/>
		<path stroke="#000000" stroke-width="2" stroke-miterlimit="10" d="M73.141,61.806c0,1.916-1.552,3.468-3.468,3.468
			c-1.913,0-3.463-1.552-3.463-3.468c0-1.919,1.55-3.468,3.463-3.468C71.588,58.338,73.141,59.887,73.141,61.806z"/>
		<path stroke="#000000" stroke-width="2" stroke-miterlimit="10" d="M61.873,49.283c0,1.915-1.552,3.464-3.467,3.464
			c-1.914,0-3.466-1.549-3.466-3.464c0-1.916,1.552-3.464,3.466-3.464C60.32,45.819,61.873,47.367,61.873,49.283z"/>
		<path fill="none" stroke="#000000" stroke-width="2" stroke-linecap="round" stroke-linejoin="round" stroke-miterlimit="10" d="
			M85.662,49.283c0,1.915-1.553,3.464-3.466,3.464c-1.916,0-3.468-1.549-3.468-3.464c0-1.916,1.552-3.464,3.468-3.464
			C84.109,45.819,85.662,47.367,85.662,49.283z"/>
		
			<line fill="none" stroke="#000000" stroke-width="2" stroke-linecap="round" stroke-linejoin="round" stroke-miterlimit="10" x1="48.504" y1="59.559" x2="55.851" y2="52.214"/>
		
			<line fill="none" stroke="#000000" stroke-width="2" stroke-linecap="round" stroke-linejoin="round" stroke-miterlimit="10" x1="72.293" y1="59.559" x2="79.642" y2="52.214"/>
		
			<line fill="none" stroke="#000000" stroke-width="2" stroke-linecap="round" stroke-linejoin="round" stroke-miterlimit="10" x1="67.298" y1="58.485" x2="60.869" y2="52.056"/>
	</g>
	<g>
		<g>
			<path d="M103.317,89.194H24.765c-2.206,0-4-1.794-4-4V31.705c0-2.206,1.794-4,4-4h78.553c2.206,0,4,1.794,4,4v53.489
				C107.317,87.4,105.523,89.194,103.317,89.194z M24.765,29.705c-1.103,0-2,0.897-2,2v53.489c0,1.103,0.897,2,2,2h78.553
				c1.103,0,2-0.897,2-2V31.705c0-1.103-0.897-2-2-2H24.765z"/>
		</g>
		<g>
			<path d="M113.917,102.633c-0.007-0.001-0.014-0.001-0.02,0H14.185c-0.389,0-0.743-0.226-0.907-0.579
				c-0.164-0.353-0.108-0.769,0.143-1.066l7.398-8.762c0.19-0.225,0.47-0.354,0.764-0.354h84.916c0.294,0,0.574,0.13,0.764,0.354
				l7.294,8.639c0.22,0.184,0.36,0.46,0.36,0.769C114.917,102.186,114.47,102.633,113.917,102.633z M16.338,100.633h95.406
				l-5.709-6.762H22.047L16.338,100.633z"/>
		</g>
		<g>
			<path d="M106.317,82.604H21.765c-0.552,0-1-0.447-1-1s0.448-1,1-1h84.553c0.552,0,1,0.447,1,1S106.87,82.604,106.317,82.604z"/>
		</g>
	</g>
</g>
</svg>
