<?xml version="1.0" encoding="utf-8"?>
<!-- Generator: Adobe Illustrator 16.0.0, SVG Export Plug-In . SVG Version: 6.00 Build 0)  -->
<!DOCTYPE svg PUBLIC "-//W3C//DTD SVG 1.1//EN" "http://www.w3.org/Graphics/SVG/1.1/DTD/svg11.dtd">
<svg version="1.1" id="Layer_1" xmlns="http://www.w3.org/2000/svg" xmlns:xlink="http://www.w3.org/1999/xlink" x="0px" y="0px"
	 width="64px" height="64px" viewBox="0 0 64 64" enable-background="new 0 0 64 64" xml:space="preserve">
<g>
	<g>
		<g>
			<path d="M37.564,46.274h-13.76c-3.032,0-5.5-2.467-5.5-5.5V23.229c0-3.033,2.468-5.5,5.5-5.5h13.76c3.032,0,5.5,2.467,5.5,5.5
				v17.546C43.064,43.807,40.597,46.274,37.564,46.274z M23.805,18.729c-2.481,0-4.5,2.019-4.5,4.5v17.546
				c0,2.481,2.019,4.5,4.5,4.5h13.76c2.481,0,4.5-2.019,4.5-4.5V23.229c0-2.481-2.019-4.5-4.5-4.5H23.805z"/>
		</g>
		<g>
			<path d="M45.195,29.29c-0.276,0-0.5-0.224-0.5-0.5v-4.578c0-0.276,0.224-0.5,0.5-0.5s0.5,0.224,0.5,0.5v4.578
				C45.695,29.066,45.472,29.29,45.195,29.29z"/>
		</g>
		<g>
			<path d="M38.172,16.032c-0.276,0-0.5-0.224-0.5-0.5v-4.555c0-0.827-0.673-1.5-1.5-1.5H25.195c-0.827,0-1.5,0.673-1.5,1.5v4.555
				c0,0.276-0.224,0.5-0.5,0.5s-0.5-0.224-0.5-0.5v-4.555c0-1.378,1.121-2.5,2.5-2.5h10.977c1.379,0,2.5,1.122,2.5,2.5v4.555
				C38.672,15.808,38.448,16.032,38.172,16.032z"/>
		</g>
		<g>
			<path d="M36.172,55.522H25.195c-1.379,0-2.5-1.122-2.5-2.5v-4.554c0-0.276,0.224-0.5,0.5-0.5s0.5,0.224,0.5,0.5v4.554
				c0,0.827,0.673,1.5,1.5,1.5h10.977c0.827,0,1.5-0.673,1.5-1.5v-4.554c0-0.276,0.224-0.5,0.5-0.5s0.5,0.224,0.5,0.5v4.554
				C38.672,54.401,37.551,55.522,36.172,55.522z"/>
		</g>
	</g>
	<g>
		<path fill="none" stroke="#000000" stroke-linecap="round" stroke-linejoin="round" stroke-miterlimit="10" d="M33.963,34.372
			h1.566c1.645,0,2.986-1.338,2.986-2.991c0-1.654-1.342-2.991-2.986-2.991h-0.311c-0.367-0.888-1.234-1.51-2.252-1.51
			c-0.453,0-0.879,0.125-1.238,0.341c-0.611-1.18-1.844-1.991-3.266-1.991c-1.918,0-3.488,1.469-3.658,3.347
			c-1.137,0.423-1.957,1.516-1.957,2.805c0,1.653,1.344,2.991,2.998,2.991h1.564"/>
		<path fill="none" stroke="#000000" stroke-linecap="round" stroke-linejoin="round" stroke-miterlimit="10" d="M33.963,34.372"/>
		<path fill="none" stroke="#000000" stroke-linecap="round" stroke-linejoin="round" stroke-miterlimit="10" d="M27.41,34.372"/>
		<path fill="none" stroke="#000000" stroke-linecap="round" stroke-linejoin="round" stroke-miterlimit="10" d="M33.104,36.434
			l-2.336,2.339l-2.34-2.339 M30.768,38.772v-6.031"/>
	</g>
</g>
</svg>
