<?xml version="1.0" encoding="utf-8"?>
<!-- Generator: Adobe Illustrator 16.0.0, SVG Export Plug-In . SVG Version: 6.00 Build 0)  -->
<!DOCTYPE svg PUBLIC "-//W3C//DTD SVG 1.1//EN" "http://www.w3.org/Graphics/SVG/1.1/DTD/svg11.dtd">
<svg version="1.1" id="Layer_1" xmlns="http://www.w3.org/2000/svg" xmlns:xlink="http://www.w3.org/1999/xlink" x="0px" y="0px"
	 width="64px" height="64px" viewBox="0 0 64 64" enable-background="new 0 0 64 64" xml:space="preserve">
<g>
	<g>
		<path d="M49.379,61.062H14.621c-1.93,0-3.5-1.57-3.5-3.5V6.438c0-1.93,1.57-3.5,3.5-3.5h34.758c1.93,0,3.5,1.57,3.5,3.5v51.125
			C52.879,59.492,51.309,61.062,49.379,61.062z M14.621,3.938c-1.379,0-2.5,1.122-2.5,2.5v51.125c0,1.378,1.121,2.5,2.5,2.5h34.758
			c1.379,0,2.5-1.122,2.5-2.5V6.438c0-1.378-1.121-2.5-2.5-2.5H14.621z"/>
	</g>
	<g>
		<path d="M33.491,56.086c0,0.823-0.666,1.491-1.491,1.491c-0.821,0-1.493-0.668-1.493-1.491c0-0.825,0.672-1.493,1.493-1.493
			C32.825,54.593,33.491,55.261,33.491,56.086z"/>
	</g>
	<g>
		<path d="M52.071,51.15H11.933c-0.276,0-0.5-0.224-0.5-0.5s0.224-0.5,0.5-0.5h40.139c0.276,0,0.5,0.224,0.5,0.5
			S52.348,51.15,52.071,51.15z"/>
	</g>
	<g>
		<path d="M40.643,32.582h-2.79c-0.276,0-0.5-0.224-0.5-0.5s0.224-0.5,0.5-0.5h2.79c2.672,0,4.845-2.173,4.845-4.843
			c0-2.671-2.173-4.844-4.845-4.844h-0.551c-0.203,0-0.387-0.124-0.463-0.312c-0.588-1.449-1.983-2.385-3.555-2.385
			c-0.687,0-1.364,0.188-1.959,0.544c-0.117,0.071-0.261,0.09-0.394,0.052s-0.244-0.129-0.308-0.252
			c-1.046-2.028-3.107-3.289-5.38-3.289c-3.16,0-5.753,2.373-6.03,5.521c-0.017,0.192-0.144,0.358-0.324,0.425
			c-1.894,0.701-3.166,2.525-3.166,4.54c0,2.67,2.173,4.843,4.843,4.843h2.796c0.276,0,0.5,0.224,0.5,0.5s-0.224,0.5-0.5,0.5h-2.796
			c-3.222,0-5.843-2.621-5.843-5.843c0-2.327,1.405-4.443,3.528-5.361c0.46-3.512,3.414-6.124,6.992-6.124
			c2.479,0,4.743,1.287,6.021,3.391c0.633-0.293,1.322-0.446,2.019-0.446c1.865,0,3.534,1.048,4.342,2.697h0.227
			c3.223,0,5.845,2.622,5.845,5.844S43.865,32.582,40.643,32.582z"/>
	</g>
	<g>
		<path fill="none" stroke="#000000" stroke-linecap="round" stroke-linejoin="round" stroke-miterlimit="10" d="M37.853,32.082"/>
	</g>
	<g>
		<path fill="none" stroke="#000000" stroke-linecap="round" stroke-linejoin="round" stroke-miterlimit="10" d="M26.152,32.082"/>
	</g>
	<g>
		<path d="M32.151,40.434c-0.007,0-0.014,0-0.021,0c-0.059-0.002-0.114-0.015-0.166-0.036c-0.058-0.023-0.111-0.057-0.158-0.102l0,0
			c-0.001,0-0.001,0-0.001,0s0.003-0.002-0.001-0.001c-0.002-0.002-0.005-0.005-0.008-0.007l-4.177-4.171
			c-0.195-0.195-0.195-0.512,0-0.708c0.195-0.195,0.512-0.195,0.707,0l3.324,3.32v-9.559c0-0.276,0.224-0.5,0.5-0.5
			s0.5,0.224,0.5,0.5v9.558l3.322-3.319c0.195-0.195,0.512-0.195,0.707,0s0.195,0.512,0,0.707l-4.176,4.172
			c-0.048,0.048-0.104,0.084-0.163,0.109c-0.053,0.022-0.11,0.035-0.171,0.037l0,0l0,0C32.164,40.434,32.158,40.434,32.151,40.434z"
			/>
	</g>
</g>
</svg>
