<?xml version="1.0" encoding="utf-8"?>
<!-- Generator: Adobe Illustrator 16.0.0, SVG Export Plug-In . SVG Version: 6.00 Build 0)  -->
<!DOCTYPE svg PUBLIC "-//W3C//DTD SVG 1.1//EN" "http://www.w3.org/Graphics/SVG/1.1/DTD/svg11.dtd">
<svg version="1.1" id="Layer_1" xmlns="http://www.w3.org/2000/svg" xmlns:xlink="http://www.w3.org/1999/xlink" x="0px" y="0px"
	 width="64px" height="64px" viewBox="0 0 64 64" enable-background="new 0 0 64 64" xml:space="preserve">
<g>
	<g>
		<circle cx="32" cy="54.914" r="1.708"/>
	</g>
	<g>
		<path d="M42.237,59.966H21.763c-1.93,0-3.5-1.57-3.5-3.5V7.533c0-1.93,1.57-3.5,3.5-3.5h20.475c1.93,0,3.5,1.57,3.5,3.5v48.933
			C45.737,58.396,44.167,59.966,42.237,59.966z M21.763,5.033c-1.379,0-2.5,1.122-2.5,2.5v48.933c0,1.378,1.121,2.5,2.5,2.5h20.475
			c1.379,0,2.5-1.122,2.5-2.5V7.533c0-1.378-1.121-2.5-2.5-2.5H21.763z"/>
	</g>
	<g>
		<path d="M44.852,49.929H19.144c-0.276,0-0.5-0.224-0.5-0.5s0.224-0.5,0.5-0.5h25.708c0.276,0,0.5,0.224,0.5,0.5
			S45.128,49.929,44.852,49.929z"/>
	</g>
	<g>
		<path d="M37.321,32.42h-1.714c-0.276,0-0.5-0.224-0.5-0.5s0.224-0.5,0.5-0.5h1.714c1.544,0,2.8-1.254,2.8-2.795
			c0-1.541-1.256-2.793-2.8-2.793h-0.33c-0.202,0-0.385-0.122-0.462-0.309c-0.492-1.19-2.003-1.715-3.133-1.045
			c-0.12,0.07-0.261,0.089-0.394,0.05c-0.132-0.038-0.243-0.129-0.306-0.252c-0.61-1.187-1.815-1.924-3.146-1.924
			c-1.817,0-3.365,1.418-3.522,3.229c-0.017,0.192-0.144,0.358-0.324,0.425c-1.095,0.405-1.83,1.458-1.83,2.619
			c0,1.541,1.253,2.795,2.793,2.795h1.727c0.276,0,0.5,0.224,0.5,0.5s-0.224,0.5-0.5,0.5h-1.727c-2.092,0-3.793-1.702-3.793-3.795
			c0-1.473,0.87-2.817,2.194-3.436c0.339-2.208,2.215-3.836,4.482-3.836c1.542,0,2.953,0.771,3.787,2.042
			c0.374-0.15,0.768-0.227,1.175-0.227c1.176,0,2.238,0.643,2.793,1.664h0.016c2.096,0,3.8,1.702,3.8,3.793
			C41.121,30.718,39.417,32.42,37.321,32.42z"/>
	</g>
	<g>
		<path fill="none" stroke="#000000" stroke-linecap="round" stroke-linejoin="round" stroke-miterlimit="10" d="M35.607,31.92"/>
	</g>
	<g>
		<path fill="none" stroke="#000000" stroke-linecap="round" stroke-linejoin="round" stroke-miterlimit="10" d="M28.394,31.92"/>
	</g>
	<g>
		<path d="M32.087,37.262c-0.007,0-0.014,0-0.021,0c-0.058-0.002-0.112-0.014-0.163-0.034c-0.062-0.024-0.12-0.062-0.17-0.112
			l-2.571-2.575c-0.195-0.196-0.195-0.512,0-0.708c0.195-0.194,0.512-0.195,0.707,0l1.718,1.72v-5.427c0-0.276,0.224-0.5,0.5-0.5
			s0.5,0.224,0.5,0.5v5.43l1.725-1.722c0.195-0.194,0.512-0.195,0.707,0.001c0.195,0.195,0.195,0.512,0,0.707l-2.578,2.574
			c-0.049,0.048-0.104,0.084-0.163,0.108c-0.053,0.022-0.11,0.035-0.17,0.037C32.101,37.262,32.094,37.262,32.087,37.262z"/>
	</g>
</g>
</svg>
