<?xml version="1.0" encoding="utf-8"?>
<!-- Generator: Adobe Illustrator 16.0.0, SVG Export Plug-In . SVG Version: 6.00 Build 0)  -->
<!DOCTYPE svg PUBLIC "-//W3C//DTD SVG 1.1//EN" "http://www.w3.org/Graphics/SVG/1.1/DTD/svg11.dtd">
<svg version="1.1" id="Layer_1" xmlns="http://www.w3.org/2000/svg" xmlns:xlink="http://www.w3.org/1999/xlink" x="0px" y="0px"
	 width="64px" height="64px" viewBox="0 0 64 64" enable-background="new 0 0 64 64" xml:space="preserve">
<g>
	<g>
		<g>
			<path d="M53.694,46.407H10.306c-1.93,0-3.5-1.57-3.5-3.5v-28.75c0-1.93,1.57-3.5,3.5-3.5h43.389c1.93,0,3.5,1.57,3.5,3.5v28.75
				C57.194,44.837,55.624,46.407,53.694,46.407z M10.306,11.657c-1.379,0-2.5,1.122-2.5,2.5v28.75c0,1.378,1.121,2.5,2.5,2.5h43.389
				c1.379,0,2.5-1.122,2.5-2.5v-28.75c0-1.378-1.121-2.5-2.5-2.5H10.306z"/>
		</g>
		<g>
			<path d="M56.694,42.557H7.306c-0.276,0-0.5-0.224-0.5-0.5s0.224-0.5,0.5-0.5h49.389c0.276,0,0.5,0.224,0.5,0.5
				S56.971,42.557,56.694,42.557z"/>
		</g>
		<g>
			<g>
				<path d="M22.172,52.887c-0.107,0-0.215-0.034-0.307-0.105c-0.218-0.169-0.258-0.483-0.089-0.701l5.031-6.49
					c0.17-0.22,0.482-0.259,0.702-0.089c0.218,0.169,0.258,0.483,0.089,0.701l-5.031,6.49C22.469,52.821,22.32,52.887,22.172,52.887
					z"/>
			</g>
			<g>
				<path d="M41.824,52.887c-0.149,0-0.297-0.067-0.396-0.194l-5.023-6.49c-0.169-0.218-0.129-0.533,0.09-0.702
					c0.217-0.169,0.531-0.129,0.701,0.089l5.023,6.49c0.169,0.218,0.129,0.533-0.09,0.702
					C42.039,52.853,41.932,52.887,41.824,52.887z"/>
			</g>
		</g>
		<g>
			<path d="M45.717,53.343h-27.43c-0.276,0-0.5-0.224-0.5-0.5s0.224-0.5,0.5-0.5h27.43c0.276,0,0.5,0.224,0.5,0.5
				S45.993,53.343,45.717,53.343z"/>
		</g>
	</g>
	<g>
		<path fill="none" stroke="#000000" stroke-linecap="round" stroke-linejoin="round" stroke-miterlimit="10" d="M36.622,30.463
			h2.21c2.328,0,4.224-1.891,4.224-4.221c0-2.333-1.896-4.223-4.224-4.223h-0.439c-0.514-1.25-1.739-2.129-3.17-2.129
			c-0.642,0-1.242,0.179-1.754,0.485c-0.862-1.67-2.596-2.811-4.603-2.811c-2.705,0-4.923,2.076-5.155,4.722
			c-1.612,0.594-2.764,2.139-2.764,3.956c0,2.331,1.894,4.221,4.225,4.221h2.207"/>
		<path fill="none" stroke="#000000" stroke-linecap="round" stroke-linejoin="round" stroke-miterlimit="10" d="M36.622,30.463"/>
		<path fill="none" stroke="#000000" stroke-linecap="round" stroke-linejoin="round" stroke-miterlimit="10" d="M27.379,30.463"/>
		<path fill="none" stroke="#000000" stroke-linecap="round" stroke-linejoin="round" stroke-miterlimit="10" d="M35.417,33.369
			l-3.3,3.297l-3.296-3.297 M32.117,36.666v-8.503"/>
	</g>
</g>
</svg>
