<?xml version="1.0" encoding="utf-8"?>
<!-- Generator: Adobe Illustrator 16.0.0, SVG Export Plug-In . SVG Version: 6.00 Build 0)  -->
<!DOCTYPE svg PUBLIC "-//W3C//DTD SVG 1.1//EN" "http://www.w3.org/Graphics/SVG/1.1/DTD/svg11.dtd">
<svg version="1.1" id="Layer_1" xmlns="http://www.w3.org/2000/svg" xmlns:xlink="http://www.w3.org/1999/xlink" x="0px" y="0px"
	 width="64px" height="64px" viewBox="0 0 64 64" enable-background="new 0 0 64 64" xml:space="preserve">
<g>
	<g>
		<g>
			<path d="M53.693,46.407H10.307c-1.93,0-3.5-1.57-3.5-3.5v-28.75c0-1.93,1.57-3.5,3.5-3.5h43.387c1.93,0,3.5,1.57,3.5,3.5v28.75
				C57.193,44.837,55.623,46.407,53.693,46.407z M10.307,11.657c-1.378,0-2.5,1.122-2.5,2.5v28.75c0,1.378,1.122,2.5,2.5,2.5h43.387
				c1.378,0,2.5-1.122,2.5-2.5v-28.75c0-1.378-1.122-2.5-2.5-2.5H10.307z"/>
		</g>
		<g>
			<path d="M56.693,42.557H7.307c-0.276,0-0.5-0.224-0.5-0.5s0.224-0.5,0.5-0.5h49.387c0.276,0,0.5,0.224,0.5,0.5
				S56.97,42.557,56.693,42.557z"/>
		</g>
		<g>
			<g>
				<path d="M22.17,52.887c-0.107,0-0.215-0.034-0.306-0.105c-0.218-0.169-0.258-0.483-0.089-0.701l5.029-6.49
					c0.169-0.218,0.484-0.258,0.701-0.089c0.218,0.169,0.258,0.483,0.089,0.701l-5.029,6.49
					C22.468,52.821,22.32,52.887,22.17,52.887z"/>
			</g>
			<g>
				<path d="M41.828,52.887c-0.149,0-0.297-0.066-0.396-0.194l-5.03-6.49c-0.169-0.218-0.129-0.532,0.089-0.701
					c0.217-0.169,0.533-0.13,0.701,0.089l5.03,6.49c0.169,0.218,0.129,0.532-0.089,0.701C42.042,52.853,41.935,52.887,41.828,52.887
					z"/>
			</g>
		</g>
		<g>
			<path d="M45.713,53.343H18.288c-0.276,0-0.5-0.224-0.5-0.5s0.224-0.5,0.5-0.5h27.425c0.276,0,0.5,0.224,0.5,0.5
				S45.989,53.343,45.713,53.343z"/>
		</g>
	</g>
	<g>
		<path fill="none" stroke="#000000" stroke-linecap="round" stroke-linejoin="round" stroke-miterlimit="10" d="M31.998,31.273
			c-2.165,0-3.927-1.76-3.927-3.927c0-2.169,1.762-3.93,3.927-3.93c2.169,0,3.932,1.761,3.932,3.93
			C35.93,29.513,34.167,31.273,31.998,31.273z"/>
		<path fill="none" stroke="#000000" stroke-linecap="round" stroke-linejoin="round" stroke-miterlimit="10" d="M41.787,28.75
			l0.001-2.81l-1.518-0.527c-0.212-0.915-0.574-1.771-1.058-2.547l0.702-1.45l-1.986-1.986l-1.447,0.703
			c-0.776-0.482-1.634-0.845-2.55-1.058l-0.527-1.519h-2.809l-0.526,1.519c-0.918,0.213-1.773,0.574-2.55,1.058l-1.448-0.703
			l-1.986,1.986l0.703,1.45c-0.484,0.773-0.847,1.633-1.058,2.547l-1.52,0.527v2.81l1.52,0.527c0.211,0.916,0.573,1.771,1.058,2.546
			l-0.703,1.452l1.986,1.983l1.449-0.702c0.775,0.485,1.631,0.846,2.547,1.059l0.528,1.518h2.809l0.527-1.518
			c0.913-0.213,1.772-0.574,2.545-1.059l1.452,0.702l1.986-1.985l-0.704-1.45c0.484-0.775,0.845-1.631,1.058-2.546L41.787,28.75z"/>
	</g>
</g>
</svg>
