<?xml version="1.0" encoding="utf-8"?>
<!-- Generator: Adobe Illustrator 16.0.0, SVG Export Plug-In . SVG Version: 6.00 Build 0)  -->
<!DOCTYPE svg PUBLIC "-//W3C//DTD SVG 1.1//EN" "http://www.w3.org/Graphics/SVG/1.1/DTD/svg11.dtd">
<svg version="1.1" id="Layer_1" xmlns="http://www.w3.org/2000/svg" xmlns:xlink="http://www.w3.org/1999/xlink" x="0px" y="0px"
	 width="64px" height="64px" viewBox="0 0 64 64" enable-background="new 0 0 64 64" xml:space="preserve">
<g>
	<g>
		<g>
			<path d="M53.693,45.951H10.307c-1.93,0-3.5-1.57-3.5-3.5v-28.75c0-1.93,1.57-3.5,3.5-3.5h43.387c1.93,0,3.5,1.57,3.5,3.5v28.75
				C57.193,44.38,55.623,45.951,53.693,45.951z M10.307,11.201c-1.378,0-2.5,1.122-2.5,2.5v28.75c0,1.378,1.122,2.5,2.5,2.5h43.387
				c1.378,0,2.5-1.122,2.5-2.5v-28.75c0-1.378-1.122-2.5-2.5-2.5H10.307z"/>
		</g>
		<g>
			<path d="M61.14,53.799c-0.007,0-0.013-0.001-0.02,0H2.88c-0.195,0-0.372-0.113-0.454-0.29c-0.082-0.176-0.054-0.384,0.072-0.533
				l4.321-5.118c0.095-0.112,0.234-0.177,0.382-0.177H56.8c0.147,0,0.287,0.065,0.382,0.177l4.25,5.034
				c0.126,0.091,0.209,0.239,0.209,0.407C61.64,53.575,61.417,53.799,61.14,53.799z M3.957,52.799h56.087l-3.476-4.118H7.434
				L3.957,52.799z"/>
		</g>
		<g>
			<path d="M56.693,42.099H7.307c-0.276,0-0.5-0.224-0.5-0.5s0.224-0.5,0.5-0.5h49.387c0.276,0,0.5,0.224,0.5,0.5
				S56.97,42.099,56.693,42.099z"/>
		</g>
	</g>
	<g>
		<path fill="none" stroke="#000000" stroke-linecap="round" stroke-linejoin="round" stroke-miterlimit="10" d="M32,30.275
			c-2.018,0-3.661-1.646-3.661-3.663c0-2.018,1.644-3.662,3.661-3.662c2.02,0,3.662,1.644,3.662,3.662
			C35.662,28.629,34.02,30.275,32,30.275z"/>
		<path fill="none" stroke="#000000" stroke-linecap="round" stroke-linejoin="round" stroke-miterlimit="10" d="M41.122,27.921
			v-2.617l-1.415-0.491c-0.2-0.855-0.533-1.655-0.984-2.376l0.653-1.351l-1.851-1.85l-1.349,0.653
			c-0.724-0.45-1.522-0.789-2.376-0.984l-0.492-1.413h-2.616l-0.493,1.413c-0.853,0.195-1.651,0.534-2.374,0.984l-1.349-0.653
			l-1.852,1.85l0.654,1.351c-0.45,0.721-0.788,1.521-0.986,2.374l-1.415,0.493v2.617l1.417,0.493
			c0.196,0.852,0.534,1.651,0.984,2.373l-0.654,1.353l1.852,1.847l1.35-0.655c0.723,0.45,1.521,0.789,2.372,0.985l0.494,1.417h2.616
			l0.493-1.417c0.852-0.196,1.65-0.535,2.372-0.985l1.352,0.655l1.851-1.847l-0.653-1.353c0.449-0.722,0.784-1.52,0.984-2.373
			L41.122,27.921z"/>
	</g>
</g>
</svg>
