<?xml version="1.0" encoding="utf-8"?>
<!-- Generator: Adobe Illustrator 16.0.0, SVG Export Plug-In . SVG Version: 6.00 Build 0)  -->
<!DOCTYPE svg PUBLIC "-//W3C//DTD SVG 1.1//EN" "http://www.w3.org/Graphics/SVG/1.1/DTD/svg11.dtd">
<svg version="1.1" id="Layer_1" xmlns="http://www.w3.org/2000/svg" xmlns:xlink="http://www.w3.org/1999/xlink" x="0px" y="0px"
	 width="64px" height="64px" viewBox="0 0 64 64" enable-background="new 0 0 64 64" xml:space="preserve">
<g>
	<g>
		<circle cx="31.999" cy="54.914" r="1.707"/>
	</g>
	<g>
		<path d="M42.237,59.966H21.763c-1.93,0-3.5-1.57-3.5-3.5V7.533c0-1.93,1.57-3.5,3.5-3.5h20.474c1.93,0,3.5,1.57,3.5,3.5v48.933
			C45.737,58.396,44.167,59.966,42.237,59.966z M21.763,5.033c-1.378,0-2.5,1.122-2.5,2.5v48.933c0,1.378,1.122,2.5,2.5,2.5h20.474
			c1.378,0,2.5-1.122,2.5-2.5V7.533c0-1.378-1.122-2.5-2.5-2.5H21.763z"/>
	</g>
	<g>
		<path d="M44.857,49.929H19.144c-0.276,0-0.5-0.224-0.5-0.5s0.224-0.5,0.5-0.5h25.713c0.276,0,0.5,0.224,0.5,0.5
			S45.134,49.929,44.857,49.929z"/>
	</g>
	<g>
		<path d="M31.999,32.237c-2.293,0-4.158-1.868-4.158-4.163c0-2.295,1.865-4.162,4.158-4.162c2.295,0,4.163,1.867,4.163,4.162
			C36.162,30.37,34.294,32.237,31.999,32.237z M31.999,24.913c-1.741,0-3.158,1.418-3.158,3.162c0,1.744,1.417,3.163,3.158,3.163
			c1.744,0,3.163-1.419,3.163-3.163C35.162,26.331,33.743,24.913,31.999,24.913z"/>
	</g>
	<g>
		<path d="M33.308,37.696h-2.617c-0.213,0-0.403-0.135-0.473-0.336l-0.401-1.162c-0.701-0.186-1.377-0.466-2.016-0.836l-1.107,0.538
			c-0.19,0.093-0.421,0.056-0.572-0.096l-1.851-1.851c-0.15-0.15-0.189-0.38-0.097-0.571l0.536-1.106
			c-0.366-0.633-0.647-1.31-0.836-2.017l-1.158-0.4c-0.202-0.07-0.337-0.259-0.337-0.473v-2.617c0-0.213,0.135-0.402,0.336-0.472
			l1.159-0.403c0.189-0.706,0.47-1.382,0.836-2.017l-0.536-1.108c-0.093-0.192-0.054-0.421,0.097-0.571l1.851-1.85
			c0.151-0.151,0.379-0.189,0.571-0.097l1.108,0.535c0.639-0.369,1.314-0.649,2.016-0.836l0.402-1.157
			c0.07-0.201,0.259-0.336,0.472-0.336h2.617c0.212,0,0.402,0.134,0.472,0.335l0.404,1.158c0.705,0.188,1.381,0.468,2.018,0.837
			l1.106-0.535c0.192-0.092,0.422-0.053,0.571,0.097l1.849,1.851c0.15,0.15,0.189,0.379,0.097,0.57l-0.534,1.108
			c0.368,0.639,0.647,1.315,0.834,2.017l1.159,0.403c0.201,0.07,0.336,0.259,0.336,0.472v2.617c0,0.213-0.135,0.402-0.336,0.472
			l-1.16,0.403c-0.19,0.708-0.471,1.383-0.835,2.015l0.535,1.106c0.093,0.191,0.054,0.42-0.097,0.571l-1.849,1.851
			c-0.15,0.15-0.38,0.188-0.572,0.096l-1.109-0.537c-0.635,0.369-1.31,0.649-2.014,0.836l-0.405,1.162
			C33.71,37.562,33.521,37.696,33.308,37.696z M31.047,36.696h1.905l0.377-1.083c0.057-0.162,0.193-0.284,0.36-0.323
			c0.783-0.18,1.529-0.489,2.218-0.921c0.146-0.092,0.329-0.102,0.484-0.026l1.033,0.5l1.346-1.348l-0.498-1.03
			c-0.075-0.154-0.065-0.336,0.026-0.482c0.426-0.685,0.736-1.433,0.922-2.223c0.039-0.167,0.161-0.302,0.323-0.358l1.079-0.375
			v-1.906l-1.079-0.375c-0.163-0.056-0.285-0.192-0.323-0.36c-0.18-0.78-0.489-1.528-0.92-2.224c-0.09-0.146-0.099-0.326-0.025-0.48
			l0.497-1.031l-1.347-1.348l-1.03,0.498c-0.154,0.074-0.337,0.065-0.482-0.026c-0.691-0.432-1.438-0.742-2.222-0.921
			c-0.167-0.039-0.304-0.16-0.36-0.322l-0.376-1.078h-1.906l-0.374,1.077c-0.056,0.163-0.192,0.285-0.36,0.323
			c-0.779,0.179-1.527,0.489-2.222,0.921c-0.146,0.091-0.326,0.101-0.482,0.026l-1.031-0.499l-1.348,1.348l0.499,1.031
			c0.075,0.154,0.065,0.336-0.026,0.482c-0.429,0.688-0.739,1.437-0.922,2.224c-0.039,0.167-0.161,0.303-0.322,0.359l-1.079,0.375
			v1.905l1.078,0.373c0.163,0.056,0.285,0.192,0.324,0.359c0.184,0.79,0.494,1.538,0.922,2.225c0.091,0.146,0.101,0.328,0.026,0.482
			l-0.499,1.03l1.348,1.348l1.031-0.5c0.154-0.075,0.338-0.065,0.483,0.025c0.694,0.433,1.441,0.743,2.221,0.921
			c0.168,0.039,0.305,0.161,0.361,0.324L31.047,36.696z"/>
	</g>
</g>
</svg>
