<?xml version="1.0" encoding="utf-8"?>
<!-- Generator: Adobe Illustrator 16.0.0, SVG Export Plug-In . SVG Version: 6.00 Build 0)  -->
<!DOCTYPE svg PUBLIC "-//W3C//DTD SVG 1.1//EN" "http://www.w3.org/Graphics/SVG/1.1/DTD/svg11.dtd">
<svg version="1.1" id="Layer_1" xmlns="http://www.w3.org/2000/svg" xmlns:xlink="http://www.w3.org/1999/xlink" x="0px" y="0px"
	 width="64px" height="64px" viewBox="0 0 64 64" enable-background="new 0 0 64 64" xml:space="preserve">
<g>
	<g>
		<path d="M37.562,46.274H23.803c-3.033,0-5.5-2.467-5.5-5.5V23.229c0-3.033,2.467-5.5,5.5-5.5h13.759c3.033,0,5.5,2.467,5.5,5.5
			v17.546C43.062,43.807,40.595,46.274,37.562,46.274z M23.803,18.729c-2.481,0-4.5,2.019-4.5,4.5v17.546c0,2.481,2.019,4.5,4.5,4.5
			h13.759c2.481,0,4.5-2.019,4.5-4.5V23.229c0-2.481-2.019-4.5-4.5-4.5H23.803z"/>
	</g>
	<g>
		<path d="M45.197,29.29c-0.276,0-0.5-0.224-0.5-0.5v-4.578c0-0.276,0.224-0.5,0.5-0.5s0.5,0.224,0.5,0.5v4.578
			C45.697,29.066,45.473,29.29,45.197,29.29z"/>
	</g>
	<g>
		<path d="M38.169,16.032c-0.276,0-0.5-0.224-0.5-0.5v-4.555c0-0.827-0.673-1.5-1.5-1.5H25.196c-0.827,0-1.5,0.673-1.5,1.5v4.555
			c0,0.276-0.224,0.5-0.5,0.5s-0.5-0.224-0.5-0.5v-4.555c0-1.378,1.122-2.5,2.5-2.5h10.973c1.378,0,2.5,1.122,2.5,2.5v4.555
			C38.669,15.808,38.446,16.032,38.169,16.032z"/>
	</g>
	<g>
		<path d="M36.169,55.522H25.196c-1.378,0-2.5-1.122-2.5-2.5v-4.554c0-0.276,0.224-0.5,0.5-0.5s0.5,0.224,0.5,0.5v4.554
			c0,0.827,0.673,1.5,1.5,1.5h10.973c0.827,0,1.5-0.673,1.5-1.5v-4.554c0-0.276,0.224-0.5,0.5-0.5s0.5,0.224,0.5,0.5v4.554
			C38.669,54.401,37.548,55.522,36.169,55.522z"/>
	</g>
	<g>
		<g>
			<path d="M30.683,35.366c-1.857,0-3.368-1.51-3.368-3.366s1.511-3.366,3.368-3.366c1.856,0,3.367,1.51,3.367,3.366
				S32.54,35.366,30.683,35.366z M30.683,29.634c-1.306,0-2.368,1.061-2.368,2.366s1.062,2.366,2.368,2.366
				c1.305,0,2.367-1.061,2.367-2.366S31.988,29.634,30.683,29.634z"/>
		</g>
		<g>
			<path d="M31.707,39.644h-2.048c-0.213,0-0.403-0.135-0.473-0.336l-0.296-0.855c-0.524-0.146-1.026-0.354-1.5-0.621l-0.814,0.395
				c-0.19,0.091-0.42,0.055-0.571-0.097l-1.451-1.45c-0.15-0.15-0.189-0.38-0.097-0.571l0.395-0.816
				c-0.267-0.469-0.475-0.971-0.621-1.498l-0.856-0.299c-0.201-0.07-0.335-0.26-0.335-0.472v-2.046c0-0.213,0.135-0.402,0.335-0.472
				l0.854-0.298c0.148-0.528,0.357-1.031,0.624-1.501l-0.395-0.816c-0.093-0.192-0.054-0.421,0.097-0.572l1.451-1.448
				c0.15-0.151,0.381-0.188,0.572-0.096l0.813,0.395c0.476-0.269,0.979-0.478,1.501-0.623l0.294-0.854
				c0.069-0.202,0.259-0.337,0.473-0.337h2.048c0.212,0,0.402,0.134,0.472,0.335l0.299,0.856c0.521,0.145,1.022,0.354,1.499,0.623
				l0.814-0.395c0.191-0.092,0.421-0.055,0.572,0.096l1.45,1.45c0.15,0.15,0.189,0.38,0.097,0.572l-0.396,0.816
				c0.27,0.477,0.479,0.979,0.623,1.499l0.854,0.297c0.201,0.07,0.335,0.259,0.335,0.472v2.046c0,0.213-0.134,0.402-0.335,0.472
				l-0.856,0.298c-0.144,0.521-0.352,1.023-0.621,1.499l0.395,0.815c0.093,0.192,0.055,0.421-0.096,0.572l-1.45,1.45
				c-0.15,0.151-0.379,0.19-0.571,0.097l-0.817-0.395c-0.472,0.267-0.974,0.475-1.497,0.621l-0.299,0.857
				C32.108,39.509,31.919,39.644,31.707,39.644z M30.014,38.644h1.337l0.271-0.774c0.057-0.161,0.191-0.283,0.358-0.322
				c0.605-0.143,1.18-0.38,1.708-0.708c0.147-0.09,0.328-0.099,0.481-0.025l0.738,0.356l0.947-0.947l-0.357-0.737
				c-0.075-0.154-0.065-0.336,0.025-0.482c0.331-0.532,0.569-1.106,0.707-1.707c0.039-0.167,0.161-0.303,0.323-0.36l0.774-0.27
				v-1.336l-0.771-0.269c-0.162-0.057-0.284-0.192-0.323-0.359c-0.139-0.599-0.377-1.173-0.71-1.708
				c-0.09-0.146-0.1-0.328-0.025-0.482l0.358-0.738l-0.947-0.946l-0.736,0.357c-0.153,0.075-0.336,0.065-0.482-0.025
				c-0.534-0.331-1.108-0.57-1.709-0.71c-0.167-0.039-0.302-0.16-0.358-0.322l-0.271-0.774h-1.336l-0.266,0.771
				c-0.056,0.163-0.192,0.286-0.359,0.324c-0.604,0.141-1.18,0.379-1.712,0.71c-0.146,0.09-0.329,0.1-0.483,0.025l-0.735-0.357
				l-0.947,0.945l0.357,0.738c0.075,0.155,0.065,0.337-0.026,0.483c-0.326,0.522-0.565,1.098-0.711,1.711
				c-0.04,0.166-0.161,0.3-0.322,0.356l-0.771,0.269v1.336l0.774,0.27c0.161,0.057,0.283,0.191,0.322,0.358
				c0.143,0.611,0.381,1.185,0.708,1.707c0.091,0.146,0.101,0.328,0.026,0.483l-0.357,0.738l0.948,0.947l0.735-0.356
				c0.154-0.075,0.336-0.065,0.481,0.025c0.529,0.328,1.105,0.566,1.711,0.708c0.167,0.039,0.302,0.161,0.358,0.323L30.014,38.644z"
				/>
		</g>
	</g>
</g>
</svg>
