<?xml version="1.0" encoding="utf-8"?>
<!-- Generator: Adobe Illustrator 16.0.0, SVG Export Plug-In . SVG Version: 6.00 Build 0)  -->
<!DOCTYPE svg PUBLIC "-//W3C//DTD SVG 1.1//EN" "http://www.w3.org/Graphics/SVG/1.1/DTD/svg11.dtd">
<svg version="1.1" id="Layer_1" xmlns="http://www.w3.org/2000/svg" xmlns:xlink="http://www.w3.org/1999/xlink" x="0px" y="0px"
	 width="64px" height="64px" viewBox="0 0 64 64" enable-background="new 0 0 64 64" xml:space="preserve">
<g>
	<g>
		<path d="M49.38,61.062H14.62c-1.93,0-3.5-1.57-3.5-3.5V6.438c0-1.93,1.57-3.5,3.5-3.5h34.76c1.93,0,3.5,1.57,3.5,3.5v51.125
			C52.88,59.492,51.31,61.062,49.38,61.062z M14.62,3.938c-1.378,0-2.5,1.122-2.5,2.5v51.125c0,1.378,1.122,2.5,2.5,2.5h34.76
			c1.378,0,2.5-1.122,2.5-2.5V6.438c0-1.378-1.122-2.5-2.5-2.5H14.62z"/>
	</g>
	<g>
		<circle cx="32" cy="56.086" r="1.491"/>
	</g>
	<g>
		<path d="M52.07,51.15h-40.14c-0.276,0-0.5-0.224-0.5-0.5s0.224-0.5,0.5-0.5h40.14c0.276,0,0.5,0.224,0.5,0.5
			S52.347,51.15,52.07,51.15z"/>
	</g>
	<g>
		<path d="M32.001,32.969c-2.699,0-4.896-2.196-4.896-4.895c0-2.7,2.196-4.896,4.896-4.896s4.896,2.196,4.896,4.896
			C36.896,30.773,34.7,32.969,32.001,32.969z M32.001,24.178c-2.148,0-3.896,1.748-3.896,3.896c0,2.147,1.748,3.895,3.896,3.895
			s3.896-1.747,3.896-3.895C35.896,25.926,34.149,24.178,32.001,24.178z"/>
	</g>
	<g>
		<path d="M33.572,39.524H30.43c-0.213,0-0.403-0.135-0.472-0.336l-0.501-1.444c-0.878-0.229-1.714-0.576-2.493-1.034l-1.377,0.667
			c-0.191,0.093-0.421,0.055-0.572-0.096l-2.22-2.22c-0.15-0.15-0.189-0.379-0.097-0.571l0.666-1.378
			c-0.456-0.779-0.802-1.616-1.034-2.494l-1.443-0.502c-0.201-0.07-0.336-0.259-0.336-0.472v-3.141c0-0.213,0.135-0.402,0.335-0.472
			l1.442-0.502c0.229-0.875,0.576-1.711,1.035-2.493l-0.665-1.378c-0.093-0.191-0.054-0.42,0.097-0.571l2.22-2.219
			c0.15-0.151,0.379-0.189,0.571-0.097l1.375,0.666c0.784-0.459,1.621-0.807,2.496-1.036l0.501-1.442
			c0.07-0.201,0.259-0.336,0.472-0.336h3.143c0.213,0,0.403,0.135,0.473,0.336l0.5,1.441c0.872,0.229,1.709,0.576,2.495,1.036
			l1.376-0.666c0.191-0.092,0.421-0.054,0.571,0.097l2.221,2.219c0.15,0.15,0.189,0.379,0.097,0.571l-0.666,1.378
			c0.456,0.779,0.803,1.616,1.035,2.494l1.44,0.501c0.201,0.07,0.336,0.259,0.336,0.472v3.141c0,0.213-0.135,0.402-0.336,0.472
			l-1.443,0.502c-0.228,0.87-0.574,1.706-1.033,2.493l0.667,1.378c0.093,0.192,0.054,0.421-0.097,0.571l-2.221,2.22
			c-0.151,0.152-0.38,0.188-0.572,0.096l-1.377-0.667c-0.782,0.457-1.618,0.804-2.493,1.035l-0.5,1.442
			C33.975,39.39,33.785,39.524,33.572,39.524z M30.786,38.524h2.431l0.472-1.362c0.057-0.162,0.192-0.284,0.358-0.323
			c0.957-0.224,1.865-0.602,2.701-1.121c0.146-0.091,0.328-0.1,0.482-0.025l1.301,0.63l1.718-1.717l-0.629-1.302
			c-0.075-0.154-0.065-0.336,0.025-0.481c0.522-0.842,0.898-1.75,1.118-2.7c0.039-0.167,0.161-0.303,0.323-0.359l1.363-0.474v-2.43
			l-1.36-0.473c-0.162-0.056-0.284-0.191-0.323-0.358c-0.226-0.961-0.603-1.87-1.121-2.7c-0.091-0.146-0.101-0.328-0.026-0.482
			l0.629-1.302l-1.718-1.717l-1.3,0.629c-0.155,0.074-0.336,0.064-0.482-0.026c-0.84-0.523-1.749-0.9-2.7-1.121
			c-0.167-0.039-0.303-0.161-0.36-0.324l-0.472-1.362h-2.431l-0.473,1.362c-0.056,0.162-0.192,0.284-0.359,0.323
			c-0.955,0.221-1.863,0.598-2.701,1.121c-0.146,0.091-0.328,0.101-0.482,0.026l-1.299-0.629l-1.717,1.717l0.629,1.303
			c0.075,0.154,0.065,0.336-0.026,0.482c-0.521,0.835-0.898,1.742-1.12,2.697c-0.039,0.167-0.16,0.302-0.322,0.359l-1.363,0.475
			v2.43l1.362,0.474c0.162,0.056,0.283,0.191,0.323,0.357c0.226,0.961,0.603,1.87,1.12,2.701c0.091,0.146,0.101,0.327,0.026,0.481
			l-0.629,1.302l1.717,1.718l1.302-0.631c0.156-0.076,0.338-0.065,0.484,0.026c0.83,0.521,1.737,0.897,2.697,1.119
			c0.167,0.039,0.303,0.161,0.359,0.323L30.786,38.524z"/>
	</g>
</g>
</svg>
