<?xml version="1.0" encoding="utf-8"?>
<!-- Generator: Adobe Illustrator 16.0.0, SVG Export Plug-In . SVG Version: 6.00 Build 0)  -->
<!DOCTYPE svg PUBLIC "-//W3C//DTD SVG 1.1//EN" "http://www.w3.org/Graphics/SVG/1.1/DTD/svg11.dtd">
<svg version="1.1" id="Layer_1" xmlns="http://www.w3.org/2000/svg" xmlns:xlink="http://www.w3.org/1999/xlink" x="0px" y="0px"
	 width="48px" height="48px" viewBox="0 0 48 48" enable-background="new 0 0 48 48" xml:space="preserve">
<g>
	<g>
		<g>
			<path d="M28.717,33.656H17.485c-1.515,0-2.748-1.232-2.748-2.747V17.091c0-1.515,1.233-2.747,2.748-2.747h11.231
				c1.515,0,2.748,1.232,2.748,2.747v13.818C31.465,32.424,30.231,33.656,28.717,33.656z M17.485,14.843
				c-1.24,0-2.248,1.009-2.248,2.248v13.818c0,1.239,1.008,2.248,2.248,2.248h11.231c1.24,0,2.248-1.009,2.248-2.248V17.091
				c0-1.239-1.008-2.248-2.248-2.248H17.485z"/>
		</g>
		<g>
			<path d="M33.013,22.057c-0.138,0-0.25-0.111-0.25-0.249v-3.126c0-0.139,0.112-0.25,0.25-0.25c0.139,0,0.25,0.111,0.25,0.25v3.126
				C33.263,21.945,33.151,22.057,33.013,22.057z"/>
		</g>
		<g>
			<path d="M28.215,13.001c-0.138,0-0.249-0.111-0.249-0.249V9.273c0-0.413-0.336-0.749-0.75-0.749h-8.229
				c-0.413,0-0.749,0.336-0.749,0.749v3.479c0,0.138-0.112,0.249-0.25,0.249s-0.25-0.111-0.25-0.249V9.273
				c0-0.688,0.561-1.248,1.249-1.248h8.229c0.689,0,1.249,0.56,1.249,1.248v3.479C28.465,12.89,28.354,13.001,28.215,13.001z"/>
		</g>
		<g>
			<path d="M27.216,39.975h-8.229c-0.688,0-1.249-0.56-1.249-1.248v-3.479c0-0.138,0.112-0.249,0.25-0.249s0.25,0.111,0.25,0.249
				v3.479c0,0.413,0.336,0.749,0.749,0.749h8.229c0.414,0,0.75-0.336,0.75-0.749v-3.479c0-0.138,0.111-0.249,0.249-0.249
				c0.139,0,0.25,0.111,0.25,0.249v3.479C28.465,39.415,27.905,39.975,27.216,39.975z"/>
		</g>
	</g>
	<g>
		<g>
			<path d="M20.389,26.198c-0.064,0-0.128-0.024-0.177-0.073l-1.948-1.948C18.217,24.13,18.19,24.066,18.19,24
				s0.026-0.13,0.073-0.177l1.948-1.948c0.098-0.098,0.256-0.098,0.354,0c0.097,0.098,0.097,0.256,0,0.354L18.793,24l1.772,1.771
				c0.097,0.098,0.097,0.256,0,0.354C20.517,26.174,20.452,26.198,20.389,26.198z"/>
		</g>
		<g>
			<path d="M25.814,26.198c-0.063,0-0.128-0.024-0.176-0.073c-0.098-0.098-0.098-0.256,0-0.354L27.409,24l-1.771-1.771
				c-0.098-0.098-0.098-0.256,0-0.354c0.097-0.098,0.255-0.098,0.353,0l1.948,1.948c0.098,0.098,0.098,0.256,0,0.354l-1.948,1.948
				C25.942,26.174,25.879,26.198,25.814,26.198z"/>
		</g>
		<g>
			<path fill="none" stroke="#000000" stroke-linecap="round" stroke-linejoin="round" stroke-miterlimit="10" d="M24.33,24"/>
		</g>
		<g>
			<path d="M22.272,26.181c-0.027,0-0.056-0.005-0.083-0.015c-0.13-0.045-0.198-0.188-0.152-0.318l1.356-3.861
				c0.045-0.13,0.188-0.199,0.318-0.152c0.13,0.046,0.198,0.188,0.152,0.318l-1.356,3.861
				C22.472,26.116,22.375,26.181,22.272,26.181z"/>
		</g>
	</g>
</g>
</svg>
