<?xml version="1.0" encoding="utf-8"?>
<!-- Generator: Adobe Illustrator 16.0.0, SVG Export Plug-In . SVG Version: 6.00 Build 0)  -->
<!DOCTYPE svg PUBLIC "-//W3C//DTD SVG 1.1//EN" "http://www.w3.org/Graphics/SVG/1.1/DTD/svg11.dtd">
<svg version="1.1" id="Layer_1" xmlns="http://www.w3.org/2000/svg" xmlns:xlink="http://www.w3.org/1999/xlink" x="0px" y="0px"
	 width="48px" height="48px" viewBox="0 0 48 48" enable-background="new 0 0 48 48" xml:space="preserve">
<g>
	<g>
		<g>
			<path d="M39.367,33.748H8.632c-0.964,0-1.748-0.784-1.748-1.748V11.263c0-0.964,0.784-1.749,1.748-1.749h30.735
				c0.964,0,1.749,0.785,1.749,1.749V32C41.116,32.964,40.331,33.748,39.367,33.748z M8.632,10.014
				c-0.688,0-1.249,0.561-1.249,1.249V32c0,0.688,0.56,1.249,1.249,1.249h30.735c0.688,0,1.249-0.561,1.249-1.249V11.263
				c0-0.688-0.561-1.249-1.249-1.249H8.632z"/>
		</g>
		<g>
			<path d="M40.866,31.118H7.134c-0.138,0-0.25-0.112-0.25-0.25s0.111-0.25,0.25-0.25h33.732c0.138,0,0.25,0.112,0.25,0.25
				S41.004,31.118,40.866,31.118z"/>
		</g>
		<g>
			<g>
				<path d="M17.288,38.174c-0.054,0-0.107-0.018-0.153-0.053c-0.109-0.084-0.129-0.241-0.045-0.35l3.435-4.434
					c0.084-0.109,0.241-0.129,0.35-0.045c0.109,0.085,0.129,0.241,0.045,0.351l-3.434,4.434
					C17.436,38.141,17.362,38.174,17.288,38.174z"/>
			</g>
			<g>
				<path d="M30.712,38.174c-0.075,0-0.148-0.033-0.198-0.097l-3.434-4.434c-0.084-0.109-0.064-0.266,0.044-0.351
					c0.109-0.084,0.266-0.064,0.351,0.045l3.434,4.434c0.084,0.108,0.064,0.266-0.044,0.35
					C30.82,38.156,30.766,38.174,30.712,38.174z"/>
			</g>
		</g>
		<g>
			<path d="M33.366,38.486H14.634c-0.138,0-0.25-0.112-0.25-0.25c0-0.139,0.112-0.25,0.25-0.25h18.732c0.138,0,0.25,0.111,0.25,0.25
				C33.616,38.374,33.504,38.486,33.366,38.486z"/>
		</g>
	</g>
	<g>
		<g>
			<path d="M18.973,25.178c-0.064,0-0.128-0.024-0.177-0.073l-3.61-3.609c-0.047-0.047-0.073-0.11-0.073-0.177
				s0.026-0.13,0.073-0.177l3.61-3.609c0.098-0.098,0.256-0.098,0.353,0c0.098,0.098,0.098,0.256,0,0.354l-3.433,3.433l3.433,3.433
				c0.098,0.098,0.098,0.256,0,0.354C19.1,25.153,19.037,25.178,18.973,25.178z"/>
		</g>
		<g>
			<path d="M29.027,25.178c-0.064,0-0.128-0.024-0.177-0.073c-0.098-0.098-0.098-0.256,0-0.354l3.433-3.433l-3.433-3.433
				c-0.098-0.098-0.098-0.256,0-0.354s0.256-0.098,0.353,0l3.61,3.609c0.047,0.047,0.073,0.11,0.073,0.177s-0.026,0.13-0.073,0.177
				l-3.61,3.609C29.155,25.153,29.091,25.178,29.027,25.178z"/>
		</g>
		<g>
			<path fill="none" stroke="#000000" stroke-linecap="round" stroke-linejoin="round" stroke-miterlimit="10" d="M26.277,21.318"/>
		</g>
		<g>
			<path d="M22.464,25.146c-0.028,0-0.056-0.004-0.083-0.014c-0.13-0.046-0.199-0.188-0.153-0.318l2.514-7.155
				c0.046-0.13,0.189-0.199,0.318-0.152c0.13,0.046,0.199,0.188,0.153,0.318l-2.514,7.154
				C22.663,25.082,22.567,25.146,22.464,25.146z"/>
		</g>
	</g>
</g>
</svg>
