<?xml version="1.0" encoding="utf-8"?>
<!-- Generator: Adobe Illustrator 16.0.0, SVG Export Plug-In . SVG Version: 6.00 Build 0)  -->
<!DOCTYPE svg PUBLIC "-//W3C//DTD SVG 1.1//EN" "http://www.w3.org/Graphics/SVG/1.1/DTD/svg11.dtd">
<svg version="1.1" id="Layer_1" xmlns="http://www.w3.org/2000/svg" xmlns:xlink="http://www.w3.org/1999/xlink" x="0px" y="0px"
	 width="48px" height="48px" viewBox="0 0 48 48" enable-background="new 0 0 48 48" xml:space="preserve">
<g>
	<g>
		<path d="M31.543,43.01H16.457c-0.964,0-1.748-0.784-1.748-1.748V6.738c0-0.964,0.784-1.748,1.748-1.748h15.086
			c0.964,0,1.748,0.784,1.748,1.748v34.523C33.291,42.226,32.507,43.01,31.543,43.01z M16.457,5.489
			c-0.688,0-1.248,0.561-1.248,1.249v34.523c0,0.688,0.56,1.249,1.248,1.249h15.086c0.688,0,1.248-0.561,1.248-1.249V6.738
			c0-0.688-0.56-1.249-1.248-1.249H16.457z"/>
	</g>
	<g>
		<path d="M32.781,36.155H15.219c-0.138,0-0.249-0.111-0.249-0.25c0-0.138,0.111-0.25,0.249-0.25h17.562
			c0.138,0,0.249,0.112,0.249,0.25C33.03,36.044,32.919,36.155,32.781,36.155z"/>
	</g>
	<g>
		<circle cx="24" cy="39.452" r="1.02"/>
	</g>
	<g>
		<path d="M20.603,24.008c-0.063,0-0.128-0.024-0.177-0.073l-2.439-2.439c-0.047-0.047-0.073-0.11-0.073-0.177
			s0.026-0.13,0.073-0.177l2.439-2.439c0.098-0.097,0.256-0.097,0.354,0c0.098,0.098,0.098,0.256,0,0.354l-2.263,2.263l2.263,2.263
			c0.098,0.098,0.098,0.256,0,0.354C20.73,23.983,20.667,24.008,20.603,24.008z"/>
	</g>
	<g>
		<path d="M27.397,24.008c-0.064,0-0.128-0.024-0.177-0.073c-0.098-0.098-0.098-0.256,0-0.354l2.263-2.263l-2.263-2.263
			c-0.098-0.098-0.098-0.256,0-0.354c0.098-0.097,0.256-0.097,0.354,0l2.439,2.439c0.047,0.047,0.073,0.11,0.073,0.177
			s-0.026,0.13-0.073,0.177l-2.439,2.439C27.525,23.983,27.461,24.008,27.397,24.008z"/>
	</g>
	<g>
		<path fill="none" stroke="#000000" stroke-linecap="round" stroke-linejoin="round" stroke-miterlimit="10" d="M25.539,21.318"/>
	</g>
	<g>
		<path d="M22.962,23.985c-0.027,0-0.056-0.004-0.083-0.014c-0.13-0.046-0.198-0.188-0.152-0.318l1.698-4.835
			c0.046-0.131,0.188-0.199,0.318-0.153c0.131,0.046,0.199,0.188,0.153,0.318l-1.699,4.835
			C23.161,23.922,23.065,23.985,22.962,23.985z"/>
	</g>
</g>
</svg>
