<?xml version="1.0" encoding="utf-8"?>
<!-- Generator: Adobe Illustrator 16.0.0, SVG Export Plug-In . SVG Version: 6.00 Build 0)  -->
<!DOCTYPE svg PUBLIC "-//W3C//DTD SVG 1.1//EN" "http://www.w3.org/Graphics/SVG/1.1/DTD/svg11.dtd">
<svg version="1.1" id="Layer_1" xmlns="http://www.w3.org/2000/svg" xmlns:xlink="http://www.w3.org/1999/xlink" x="0px" y="0px"
	 width="48px" height="48px" viewBox="0 0 48 48" enable-background="new 0 0 48 48" xml:space="preserve">
<g>
	<g>
		<g>
			<path d="M39.362,33.436H8.627c-0.964,0-1.748-0.784-1.748-1.748V10.95c0-0.964,0.784-1.748,1.748-1.748h30.735
				c0.964,0,1.749,0.784,1.749,1.748v20.737C41.111,32.651,40.326,33.436,39.362,33.436z M8.627,9.701
				c-0.688,0-1.249,0.561-1.249,1.249v20.737c0,0.688,0.56,1.249,1.249,1.249h30.735c0.688,0,1.249-0.561,1.249-1.249V10.95
				c0-0.688-0.561-1.249-1.249-1.249H8.627z"/>
		</g>
		<g>
			<path d="M43.895,38.798c-0.003,0-0.006,0-0.01,0H4.105c-0.098,0-0.186-0.056-0.227-0.145c-0.041-0.088-0.027-0.191,0.036-0.267
				l2.952-3.496c0.047-0.057,0.117-0.089,0.19-0.089h33.876c0.074,0,0.144,0.032,0.191,0.089l2.917,3.454
				c0.063,0.046,0.104,0.12,0.104,0.204C44.145,38.687,44.033,38.798,43.895,38.798z M4.643,38.299h38.705l-2.53-2.997H7.173
				L4.643,38.299z"/>
		</g>
		<g>
			<path d="M40.861,30.806H7.129c-0.138,0-0.25-0.111-0.25-0.25c0-0.138,0.111-0.249,0.25-0.249h33.732
				c0.138,0,0.25,0.111,0.25,0.249C41.111,30.694,40.999,30.806,40.861,30.806z"/>
		</g>
	</g>
	<g>
		<g>
			<path d="M18.968,25.178c-0.064,0-0.128-0.024-0.177-0.073l-3.61-3.609c-0.047-0.047-0.073-0.11-0.073-0.177
				s0.026-0.13,0.073-0.177l3.61-3.609c0.098-0.098,0.255-0.098,0.353,0s0.098,0.256,0,0.354l-3.433,3.433l3.433,3.433
				c0.098,0.098,0.098,0.256,0,0.354C19.095,25.153,19.031,25.178,18.968,25.178z"/>
		</g>
		<g>
			<path d="M29.022,25.178c-0.064,0-0.128-0.024-0.177-0.073c-0.098-0.098-0.098-0.256,0-0.354l3.433-3.433l-3.433-3.433
				c-0.098-0.098-0.098-0.256,0-0.354s0.255-0.098,0.353,0l3.61,3.609c0.047,0.047,0.073,0.11,0.073,0.177s-0.026,0.13-0.073,0.177
				l-3.61,3.609C29.15,25.153,29.086,25.178,29.022,25.178z"/>
		</g>
		<g>
			<path fill="none" stroke="#000000" stroke-linecap="round" stroke-linejoin="round" stroke-miterlimit="10" d="M26.272,21.318"/>
		</g>
		<g>
			<path d="M22.459,25.146c-0.028,0-0.056-0.004-0.083-0.014c-0.13-0.046-0.199-0.188-0.153-0.318l2.514-7.155
				c0.045-0.13,0.188-0.199,0.318-0.152c0.13,0.046,0.199,0.188,0.153,0.318l-2.514,7.154
				C22.658,25.082,22.562,25.146,22.459,25.146z"/>
		</g>
	</g>
</g>
</svg>
