<?xml version="1.0" encoding="utf-8"?>
<!-- Generator: Adobe Illustrator 16.0.0, SVG Export Plug-In . SVG Version: 6.00 Build 0)  -->
<!DOCTYPE svg PUBLIC "-//W3C//DTD SVG 1.1//EN" "http://www.w3.org/Graphics/SVG/1.1/DTD/svg11.dtd">
<svg version="1.1" id="Layer_1" xmlns="http://www.w3.org/2000/svg" xmlns:xlink="http://www.w3.org/1999/xlink" x="0px" y="0px"
	 width="64px" height="64px" viewBox="0 0 64 64" enable-background="new 0 0 64 64" xml:space="preserve">
<g>
	<g>
		
			<rect x="27.91" y="24.545" fill="none" stroke="#000000" stroke-linecap="round" stroke-linejoin="round" stroke-miterlimit="10" width="5.547" height="3.286"/>
		<g>
			
				<rect x="22.407" y="35.654" fill="none" stroke="#000000" stroke-linecap="round" stroke-linejoin="round" stroke-miterlimit="10" width="4.136" height="3.803"/>
			
				<rect x="28.614" y="35.654" fill="none" stroke="#000000" stroke-linecap="round" stroke-linejoin="round" stroke-miterlimit="10" width="4.136" height="3.803"/>
			
				<rect x="34.821" y="35.654" fill="none" stroke="#000000" stroke-linecap="round" stroke-linejoin="round" stroke-miterlimit="10" width="4.137" height="3.803"/>
		</g>
		
			<line fill="none" stroke="#000000" stroke-linecap="round" stroke-linejoin="round" stroke-miterlimit="10" x1="30.683" y1="27.831" x2="30.683" y2="35.195"/>
		<polyline fill="none" stroke="#000000" stroke-linecap="round" stroke-linejoin="round" stroke-miterlimit="10" points="
			24.514,35.654 24.514,31.509 36.851,31.509 36.851,35.654 		"/>
	</g>
	<g>
		<g>
			<path d="M37.562,46.272H23.803c-3.033,0-5.5-2.467-5.5-5.5V23.227c0-3.033,2.467-5.5,5.5-5.5h13.759c3.033,0,5.5,2.467,5.5,5.5
				v17.545C43.062,43.805,40.595,46.272,37.562,46.272z M23.803,18.727c-2.481,0-4.5,2.019-4.5,4.5v17.545
				c0,2.481,2.019,4.5,4.5,4.5h13.759c2.481,0,4.5-2.019,4.5-4.5V23.227c0-2.481-2.019-4.5-4.5-4.5H23.803z"/>
		</g>
		<g>
			<path d="M45.197,29.289c-0.276,0-0.5-0.224-0.5-0.5v-4.575c0-0.276,0.224-0.5,0.5-0.5s0.5,0.224,0.5,0.5v4.575
				C45.697,29.065,45.473,29.289,45.197,29.289z"/>
		</g>
		<g>
			<path d="M38.169,16.031c-0.276,0-0.5-0.224-0.5-0.5v-4.554c0-0.827-0.673-1.5-1.5-1.5H25.196c-0.827,0-1.5,0.673-1.5,1.5v4.554
				c0,0.276-0.224,0.5-0.5,0.5s-0.5-0.224-0.5-0.5v-4.554c0-1.378,1.122-2.5,2.5-2.5h10.973c1.378,0,2.5,1.122,2.5,2.5v4.554
				C38.669,15.808,38.446,16.031,38.169,16.031z"/>
		</g>
		<g>
			<path d="M36.169,55.525H25.196c-1.378,0-2.5-1.122-2.5-2.5V48.47c0-0.276,0.224-0.5,0.5-0.5s0.5,0.224,0.5,0.5v4.555
				c0,0.827,0.673,1.5,1.5,1.5h10.973c0.827,0,1.5-0.673,1.5-1.5V48.47c0-0.276,0.224-0.5,0.5-0.5s0.5,0.224,0.5,0.5v4.555
				C38.669,54.403,37.548,55.525,36.169,55.525z"/>
		</g>
	</g>
</g>
</svg>
