<?xml version="1.0" encoding="utf-8"?>
<!-- Generator: Adobe Illustrator 16.0.0, SVG Export Plug-In . SVG Version: 6.00 Build 0)  -->
<!DOCTYPE svg PUBLIC "-//W3C//DTD SVG 1.1//EN" "http://www.w3.org/Graphics/SVG/1.1/DTD/svg11.dtd">
<svg version="1.1" id="Layer_1" xmlns="http://www.w3.org/2000/svg" xmlns:xlink="http://www.w3.org/1999/xlink" x="0px" y="0px"
	 width="64px" height="64px" viewBox="0 0 64 64" enable-background="new 0 0 64 64" xml:space="preserve">
<g>
	<g>
		<path d="M36.41,20.062h-8.82c-0.276,0-0.5-0.224-0.5-0.5v-5.687c0-0.276,0.224-0.5,0.5-0.5h8.82c0.276,0,0.5,0.224,0.5,0.5v5.687
			C36.91,19.838,36.687,20.062,36.41,20.062z M28.09,19.062h7.82v-4.687h-7.82V19.062z"/>
	</g>
	<g>
		<g>
			<path d="M25.417,40.184h-6.58c-0.276,0-0.5-0.224-0.5-0.5v-6.579c0-0.276,0.224-0.5,0.5-0.5h6.58c0.276,0,0.5,0.224,0.5,0.5
				v6.579C25.917,39.96,25.693,40.184,25.417,40.184z M19.337,39.184h5.58v-5.579h-5.58V39.184z"/>
		</g>
		<g>
			<path d="M35.288,40.184H28.71c-0.276,0-0.5-0.224-0.5-0.5v-6.579c0-0.276,0.224-0.5,0.5-0.5h6.578c0.276,0,0.5,0.224,0.5,0.5
				v6.579C35.788,39.96,35.564,40.184,35.288,40.184z M29.21,39.184h5.578v-5.579H29.21V39.184z"/>
		</g>
		<g>
			<path d="M45.162,40.184h-6.578c-0.276,0-0.5-0.224-0.5-0.5v-6.579c0-0.276,0.224-0.5,0.5-0.5h6.578c0.276,0,0.5,0.224,0.5,0.5
				v6.579C45.662,39.96,45.438,40.184,45.162,40.184z M39.084,39.184h5.578v-5.579h-5.578V39.184z"/>
		</g>
	</g>
	<g>
		<path d="M32.001,32.805c-0.276,0-0.5-0.224-0.5-0.5V19.562c0-0.276,0.224-0.5,0.5-0.5s0.5,0.224,0.5,0.5v12.744
			C32.501,32.582,32.277,32.805,32.001,32.805z"/>
	</g>
	<g>
		<path d="M41.81,33.604c-0.276,0-0.5-0.224-0.5-0.5V26.43H22.691v6.675c0,0.276-0.224,0.5-0.5,0.5s-0.5-0.224-0.5-0.5V25.93
			c0-0.276,0.224-0.5,0.5-0.5H41.81c0.276,0,0.5,0.224,0.5,0.5v7.175C42.31,33.381,42.086,33.604,41.81,33.604z"/>
	</g>
	<g>
		<path d="M49.38,61.062H14.62c-1.93,0-3.5-1.57-3.5-3.5V6.438c0-1.93,1.57-3.5,3.5-3.5h34.76c1.93,0,3.5,1.57,3.5,3.5v51.123
			C52.88,59.491,51.31,61.062,49.38,61.062z M14.62,3.938c-1.378,0-2.5,1.122-2.5,2.5v51.123c0,1.378,1.122,2.5,2.5,2.5h34.76
			c1.378,0,2.5-1.122,2.5-2.5V6.438c0-1.378-1.122-2.5-2.5-2.5H14.62z"/>
	</g>
	<g>
		<circle cx="32" cy="56.087" r="1.491"/>
	</g>
	<g>
		<path d="M52.07,51.149h-40.14c-0.276,0-0.5-0.224-0.5-0.5s0.224-0.5,0.5-0.5h40.14c0.276,0,0.5,0.224,0.5,0.5
			S52.347,51.149,52.07,51.149z"/>
	</g>
</g>
</svg>
