<?xml version="1.0" encoding="utf-8"?>
<!-- Generator: Adobe Illustrator 16.0.0, SVG Export Plug-In . SVG Version: 6.00 Build 0)  -->
<!DOCTYPE svg PUBLIC "-//W3C//DTD SVG 1.1//EN" "http://www.w3.org/Graphics/SVG/1.1/DTD/svg11.dtd">
<svg version="1.1" id="Layer_1" xmlns="http://www.w3.org/2000/svg" xmlns:xlink="http://www.w3.org/1999/xlink" x="0px" y="0px"
	 width="64px" height="64px" viewBox="0 0 64 64" enable-background="new 0 0 64 64" xml:space="preserve">
<g>
	<g>
		<path d="M35.016,23.071h-6.034c-0.276,0-0.5-0.224-0.5-0.5V18.68c0-0.276,0.224-0.5,0.5-0.5h6.034c0.276,0,0.5,0.224,0.5,0.5
			v3.891C35.516,22.847,35.292,23.071,35.016,23.071z M29.482,22.071h5.034V19.18h-5.034V22.071z"/>
	</g>
	<g>
		<g>
			<path d="M27.495,36.836h-4.5c-0.276,0-0.5-0.224-0.5-0.5v-4.5c0-0.276,0.224-0.5,0.5-0.5h4.5c0.276,0,0.5,0.224,0.5,0.5v4.5
				C27.995,36.613,27.771,36.836,27.495,36.836z M23.495,35.836h3.5v-3.5h-3.5V35.836z"/>
		</g>
		<g>
			<path d="M34.25,36.836h-4.5c-0.276,0-0.5-0.224-0.5-0.5v-4.5c0-0.276,0.224-0.5,0.5-0.5h4.5c0.276,0,0.5,0.224,0.5,0.5v4.5
				C34.75,36.613,34.527,36.836,34.25,36.836z M30.25,35.836h3.5v-3.5h-3.5V35.836z"/>
		</g>
		<g>
			<path d="M41.006,36.836h-4.501c-0.276,0-0.5-0.224-0.5-0.5v-4.5c0-0.276,0.224-0.5,0.5-0.5h4.501c0.276,0,0.5,0.224,0.5,0.5v4.5
				C41.506,36.613,41.282,36.836,41.006,36.836z M37.005,35.836h3.501v-3.5h-3.501V35.836z"/>
		</g>
	</g>
	<g>
		<path d="M31.999,31.794c-0.276,0-0.5-0.224-0.5-0.5v-8.724c0-0.276,0.224-0.5,0.5-0.5s0.5,0.224,0.5,0.5v8.724
			C32.499,31.571,32.275,31.794,31.999,31.794z"/>
	</g>
	<g>
		<path d="M38.711,32.337c-0.276,0-0.5-0.224-0.5-0.5v-4.408H25.791v4.408c0,0.276-0.224,0.5-0.5,0.5s-0.5-0.224-0.5-0.5v-4.908
			c0-0.276,0.224-0.5,0.5-0.5h13.421c0.276,0,0.5,0.224,0.5,0.5v4.908C39.211,32.113,38.988,32.337,38.711,32.337z"/>
	</g>
	<g>
		<circle cx="31.999" cy="54.915" r="1.707"/>
	</g>
	<g>
		<path d="M42.237,59.965H21.763c-1.93,0-3.5-1.57-3.5-3.5V7.534c0-1.93,1.57-3.5,3.5-3.5h20.474c1.93,0,3.5,1.57,3.5,3.5v48.931
			C45.737,58.395,44.167,59.965,42.237,59.965z M21.763,5.034c-1.378,0-2.5,1.122-2.5,2.5v48.931c0,1.378,1.122,2.5,2.5,2.5h20.474
			c1.378,0,2.5-1.122,2.5-2.5V7.534c0-1.378-1.122-2.5-2.5-2.5H21.763z"/>
	</g>
	<g>
		<path d="M44.857,49.931H19.144c-0.276,0-0.5-0.224-0.5-0.5s0.224-0.5,0.5-0.5h25.713c0.276,0,0.5,0.224,0.5,0.5
			S45.134,49.931,44.857,49.931z"/>
	</g>
</g>
</svg>
