<?xml version="1.0" encoding="utf-8"?>
<!-- Generator: Adobe Illustrator 16.0.0, SVG Export Plug-In . SVG Version: 6.00 Build 0)  -->
<!DOCTYPE svg PUBLIC "-//W3C//DTD SVG 1.1//EN" "http://www.w3.org/Graphics/SVG/1.1/DTD/svg11.dtd">
<svg version="1.1" id="Layer_1" xmlns="http://www.w3.org/2000/svg" xmlns:xlink="http://www.w3.org/1999/xlink" x="0px" y="0px"
	 width="32px" height="32px" viewBox="0 0 32 32" enable-background="new 0 0 32 32" xml:space="preserve">
<g>
	<g>
		<g>
			<g>
				<g>
					<path d="M19.496,23.039h-8.214c-1.107,0-2.009-0.901-2.009-2.009V10.925c0-1.107,0.901-2.009,2.009-2.009h8.214
						c1.107,0,2.009,0.901,2.009,2.009V21.03C21.504,22.138,20.603,23.039,19.496,23.039z M11.281,9.281
						c-0.907,0-1.644,0.738-1.644,1.644V21.03c0,0.907,0.737,1.645,1.644,1.645h8.214c0.906,0,1.644-0.737,1.644-1.645V10.925
						c0-0.905-0.738-1.644-1.644-1.644H11.281z"/>
				</g>
			</g>
			<g>
				<g>
					<path d="M22.637,14.557c-0.101,0-0.183-0.081-0.183-0.182v-2.286c0-0.102,0.082-0.183,0.183-0.183s0.183,0.081,0.183,0.183
						v2.286C22.819,14.476,22.738,14.557,22.637,14.557z"/>
				</g>
			</g>
			<g>
				<g>
					<path d="M19.128,7.935c-0.101,0-0.182-0.082-0.182-0.183V5.209c0-0.303-0.247-0.548-0.549-0.548h-6.018
						c-0.302,0-0.548,0.245-0.548,0.548v2.543c0,0.101-0.082,0.183-0.183,0.183c-0.101,0-0.183-0.082-0.183-0.183V5.209
						c0-0.503,0.409-0.913,0.913-0.913h6.018c0.504,0,0.914,0.41,0.914,0.913v2.543C19.312,7.853,19.229,7.935,19.128,7.935z"/>
				</g>
			</g>
			<g>
				<g>
					<path d="M18.397,27.661h-6.018c-0.504,0-0.913-0.409-0.913-0.914v-2.544c0-0.101,0.082-0.183,0.183-0.183
						c0.101,0,0.183,0.082,0.183,0.183v2.544c0,0.302,0.246,0.548,0.548,0.548h6.018c0.302,0,0.549-0.246,0.549-0.548v-2.544
						c0-0.101,0.082-0.183,0.182-0.183s0.183,0.082,0.183,0.183v2.544C19.312,27.252,18.901,27.661,18.397,27.661z"/>
				</g>
			</g>
		</g>
		<g>
			<g>
				<g>
					<path fill="none" stroke="#000000" stroke-linecap="round" stroke-linejoin="round" stroke-miterlimit="10" d="M15.388,20.835"
						/>
				</g>
				<g>
					<path d="M15.388,20.181c-0.057,0-0.11-0.025-0.145-0.072c0,0-1.167-1.534-2.176-2.872c-0.061-0.081-0.045-0.195,0.036-0.257
						c0.081-0.059,0.195-0.044,0.256,0.038c0.794,1.053,1.686,2.228,2.029,2.68c1.385-1.822,3.351-4.423,3.453-4.602
						c0-0.001,0-0.001,0-0.001c0.001-0.003,0.003-0.006,0.005-0.009c0.131-0.262,0.199-0.541,0.199-0.828
						c0-1.024-0.842-1.857-1.877-1.857c-0.711,0-1.317,0.602-1.622,1.116c-0.066,0.111-0.249,0.112-0.314,0
						c-0.305-0.515-0.912-1.116-1.621-1.116c-1.036,0-1.878,0.833-1.878,1.857c0,0.287,0.067,0.566,0.199,0.828
						c0.018,0.035,0.024,0.076,0.017,0.115c-0.007,0.048-0.031,0.093-0.073,0.123c-0.082,0.059-0.193,0.045-0.25-0.038
						c-0.007-0.011-0.014-0.023-0.02-0.036l0,0c-0.157-0.313-0.238-0.647-0.238-0.992c0-1.226,1.006-2.223,2.243-2.223
						c0.752,0,1.384,0.51,1.778,1.057c0.394-0.547,1.025-1.057,1.779-1.057c1.236,0,2.243,0.997,2.243,2.223
						c0,0.334-0.076,0.658-0.224,0.962c-0.006,0.021-0.015,0.039-0.026,0.057c-0.102,0.197-3.039,4.061-3.626,4.832
						C15.499,20.155,15.446,20.181,15.388,20.181z"/>
				</g>
			</g>
			<g>
				<path d="M15.048,17.641c-0.087,0-0.163-0.062-0.18-0.148l-0.316-1.656l-0.228,0.422c-0.032,0.06-0.093,0.097-0.161,0.097h-2.54
					c-0.101,0-0.183-0.082-0.183-0.183c0-0.102,0.082-0.183,0.183-0.183h2.431l0.42-0.778c0.037-0.066,0.111-0.106,0.188-0.094
					c0.077,0.012,0.138,0.07,0.152,0.146l0.229,1.197l0.339-1.865c0.016-0.084,0.089-0.147,0.176-0.149
					c0.076-0.008,0.164,0.059,0.181,0.143l0.407,1.808l0.135-0.325c0.029-0.067,0.095-0.11,0.169-0.11h0.759
					c0.101,0,0.182,0.081,0.182,0.182c0,0.102-0.081,0.183-0.182,0.183h-0.638l-0.309,0.74c-0.031,0.073-0.107,0.114-0.185,0.111
					c-0.08-0.008-0.145-0.064-0.162-0.142l-0.334-1.488l-0.353,1.943C15.212,17.576,15.137,17.64,15.048,17.641L15.048,17.641z"/>
			</g>
		</g>
	</g>
</g>
</svg>
