<?xml version="1.0" encoding="utf-8"?>
<!-- Generator: Adobe Illustrator 16.0.0, SVG Export Plug-In . SVG Version: 6.00 Build 0)  -->
<!DOCTYPE svg PUBLIC "-//W3C//DTD SVG 1.1//EN" "http://www.w3.org/Graphics/SVG/1.1/DTD/svg11.dtd">
<svg version="1.1" id="Layer_1" xmlns="http://www.w3.org/2000/svg" xmlns:xlink="http://www.w3.org/1999/xlink" x="0px" y="0px"
	 width="32px" height="32px" viewBox="0 0 32 32" enable-background="new 0 0 32 32" xml:space="preserve">
<g>
	<g>
		<g>
			<g>
				<path d="M21.452,29.88H10.421c-0.705,0-1.278-0.573-1.278-1.279V3.355c0-0.706,0.574-1.279,1.278-1.279h11.031
					c0.706,0,1.279,0.573,1.279,1.279v25.245C22.731,29.307,22.158,29.88,21.452,29.88z M10.421,2.441
					c-0.504,0-0.913,0.41-0.913,0.914v25.245c0,0.505,0.409,0.913,0.913,0.913h11.031c0.504,0,0.914-0.408,0.914-0.913V3.355
					c0-0.504-0.41-0.914-0.914-0.914H10.421z"/>
			</g>
		</g>
		<g>
			<g>
				<path d="M22.358,24.867H9.516c-0.101,0-0.183-0.081-0.183-0.183c0-0.101,0.082-0.183,0.183-0.183h12.843
					c0.101,0,0.183,0.082,0.183,0.183C22.542,24.786,22.459,24.867,22.358,24.867z"/>
			</g>
		</g>
		<g>
			<g>
				<circle cx="15.937" cy="27.279" r="0.745"/>
			</g>
		</g>
		<g>
			<g>
				<g>
					<path fill="none" stroke="#000000" stroke-linecap="round" stroke-linejoin="round" stroke-miterlimit="10" d="M15.938,19.578"
						/>
				</g>
			</g>
			<g>
				<g>
					<path d="M15.938,18.813c-0.058,0-0.112-0.026-0.146-0.073c0,0-1.324-1.738-2.465-3.254c-0.061-0.081-0.045-0.196,0.036-0.256
						c0.081-0.061,0.195-0.045,0.256,0.036c0.915,1.214,1.945,2.57,2.32,3.062c1.573-2.071,3.822-5.046,3.932-5.242h0
						c0.001-0.005,0.004-0.009,0.006-0.012c0.15-0.301,0.227-0.621,0.227-0.95c0-1.174-0.965-2.129-2.151-2.129
						c-0.815,0-1.511,0.688-1.858,1.277c-0.065,0.111-0.249,0.111-0.314,0c-0.348-0.589-1.043-1.277-1.858-1.277
						c-1.187,0-2.151,0.955-2.151,2.129c0,0.329,0.076,0.649,0.227,0.95c0.019,0.036,0.024,0.078,0.016,0.117
						c-0.006,0.047-0.03,0.091-0.07,0.12c-0.081,0.059-0.19,0.048-0.25-0.033c-0.008-0.013-0.016-0.026-0.022-0.041l0,0
						c-0.177-0.351-0.267-0.726-0.267-1.113c0-1.376,1.13-2.495,2.518-2.495c0.856,0,1.573,0.591,2.016,1.215
						c0.44-0.624,1.157-1.215,2.014-1.215c1.387,0,2.517,1.119,2.517,2.495c0,0.376-0.084,0.739-0.251,1.082
						c-0.006,0.02-0.015,0.04-0.027,0.057c-0.117,0.228-3.443,4.604-4.109,5.477C16.047,18.787,15.994,18.813,15.938,18.813z"/>
				</g>
			</g>
		</g>
		<g>
			<g>
				<path d="M15.552,15.934c-0.088,0-0.163-0.062-0.18-0.147l-0.371-1.944l-0.291,0.539c-0.032,0.059-0.094,0.096-0.161,0.096
					h-2.877c-0.102,0-0.183-0.081-0.183-0.183c0-0.101,0.081-0.183,0.183-0.183h2.768l0.483-0.895
					c0.038-0.068,0.113-0.104,0.189-0.094c0.077,0.012,0.137,0.07,0.152,0.146l0.284,1.485l0.407-2.243
					c0.016-0.084,0.089-0.146,0.176-0.148c0.078-0.001,0.163,0.059,0.182,0.143l0.477,2.122l0.183-0.437
					c0.028-0.068,0.094-0.112,0.168-0.112H18c0.101,0,0.182,0.081,0.182,0.183c0,0.1-0.082,0.183-0.182,0.183h-0.739l-0.356,0.853
					c-0.031,0.072-0.107,0.115-0.185,0.111c-0.08-0.008-0.145-0.064-0.162-0.142l-0.405-1.804l-0.422,2.321
					C15.716,15.871,15.64,15.934,15.552,15.934L15.552,15.934z"/>
			</g>
		</g>
	</g>
</g>
</svg>
