<?xml version="1.0" encoding="utf-8"?>
<!-- Generator: Adobe Illustrator 16.0.0, SVG Export Plug-In . SVG Version: 6.00 Build 0)  -->
<!DOCTYPE svg PUBLIC "-//W3C//DTD SVG 1.1//EN" "http://www.w3.org/Graphics/SVG/1.1/DTD/svg11.dtd">
<svg version="1.1" id="Layer_1" xmlns="http://www.w3.org/2000/svg" xmlns:xlink="http://www.w3.org/1999/xlink" x="0px" y="0px"
	 width="32px" height="32px" viewBox="0 0 32 32" enable-background="new 0 0 32 32" xml:space="preserve">
<g>
	<g>
		<g>
			<g>
				<path d="M24.984,30.427H6.817c-0.705,0-1.279-0.573-1.279-1.278V2.807c0-0.704,0.574-1.278,1.279-1.278h18.167
					c0.705,0,1.279,0.574,1.279,1.278v26.342C26.263,29.854,25.689,30.427,24.984,30.427z M6.817,1.895
					c-0.504,0-0.914,0.408-0.914,0.912v26.342c0,0.504,0.409,0.913,0.914,0.913h18.167c0.503,0,0.914-0.409,0.914-0.913V2.807
					c0-0.504-0.41-0.912-0.914-0.912H6.817z"/>
			</g>
		</g>
		<g>
			<g>
				<circle cx="15.901" cy="28.009" r="0.746"/>
			</g>
		</g>
		<g>
			<g>
				<path d="M25.925,25.476H5.876c-0.101,0-0.183-0.081-0.183-0.182c0-0.102,0.082-0.184,0.183-0.184h20.049
					c0.101,0,0.182,0.082,0.182,0.184C26.107,25.395,26.026,25.476,25.925,25.476z"/>
			</g>
		</g>
		<g>
			<g>
				<g>
					<path fill="none" stroke="#000000" stroke-linecap="round" stroke-linejoin="round" stroke-miterlimit="10" d="M15.901,21.659"
						/>
				</g>
			</g>
			<g>
				<g>
					<path d="M15.901,20.432c-0.057,0-0.111-0.027-0.145-0.071c0,0-1.971-2.592-3.673-4.851c-0.061-0.081-0.045-0.194,0.036-0.257
						c0.081-0.06,0.196-0.043,0.256,0.037c1.426,1.892,3.041,4.018,3.526,4.656c2.364-3.108,5.795-7.649,5.937-7.913
						c0-0.001,0.002-0.003,0.004-0.006c0.001-0.005,0.004-0.011,0.007-0.016c0.231-0.458,0.349-0.948,0.349-1.453
						c0-1.799-1.479-3.262-3.295-3.262c-1.251,0-2.314,1.05-2.844,1.946c-0.065,0.112-0.249,0.112-0.314,0
						c-0.53-0.896-1.594-1.946-2.845-1.946c-1.817,0-3.294,1.463-3.294,3.262c0,0.505,0.117,0.995,0.349,1.453
						c0.002,0.005,0.004,0.011,0.006,0.016c0.001,0.002,0.002,0.005,0.003,0.006c0.018,0.032,0.134,0.21,0.845,1.166
						c0.06,0.081,0.044,0.195-0.039,0.256c-0.08,0.06-0.194,0.043-0.255-0.038c-0.813-1.093-0.857-1.18-0.876-1.216
						c-0.013-0.02-0.023-0.037-0.029-0.059c-0.246-0.499-0.371-1.032-0.371-1.584c0-2,1.642-3.628,3.66-3.628
						c1.29,0,2.365,0.929,3.002,1.879c0.636-0.95,1.71-1.879,3.001-1.879c2.018,0,3.66,1.628,3.66,3.628
						c0,0.549-0.124,1.081-0.369,1.58c-0.006,0.022-0.015,0.043-0.029,0.062c-0.182,0.35-5.511,7.36-6.119,8.159
						C16.011,20.404,15.958,20.432,15.901,20.432z"/>
				</g>
			</g>
		</g>
		<g>
			<g>
				<path d="M15.326,16.686c-0.086,0-0.162-0.062-0.179-0.147l-0.601-3.143l-0.552,1.023c-0.031,0.059-0.094,0.096-0.16,0.096H9.545
					c-0.101,0-0.182-0.081-0.182-0.182c0-0.102,0.082-0.184,0.182-0.184h4.179l0.745-1.379c0.037-0.068,0.113-0.105,0.188-0.094
					s0.136,0.07,0.152,0.146l0.495,2.587l0.709-4.798c0.013-0.088,0.088-0.153,0.179-0.155c0.086-0.001,0.167,0.062,0.182,0.151
					l0.789,4.469l0.362-0.863c0.028-0.067,0.095-0.112,0.168-0.112h1.281c0.101,0,0.183,0.082,0.183,0.183s-0.082,0.183-0.183,0.183
					h-1.16l-0.555,1.325c-0.031,0.075-0.105,0.12-0.188,0.11c-0.081-0.009-0.146-0.07-0.16-0.15L16.21,11.78l-0.702,4.75
					c-0.014,0.087-0.088,0.153-0.177,0.155C15.33,16.686,15.328,16.686,15.326,16.686z"/>
			</g>
		</g>
	</g>
</g>
</svg>
