<?xml version="1.0" encoding="utf-8"?>
<!-- Generator: Adobe Illustrator 16.0.0, SVG Export Plug-In . SVG Version: 6.00 Build 0)  -->
<!DOCTYPE svg PUBLIC "-//W3C//DTD SVG 1.1//EN" "http://www.w3.org/Graphics/SVG/1.1/DTD/svg11.dtd">
<svg version="1.1" id="Layer_1" xmlns="http://www.w3.org/2000/svg" xmlns:xlink="http://www.w3.org/1999/xlink" x="0px" y="0px"
	 width="32px" height="32px" viewBox="0 0 32 32" enable-background="new 0 0 32 32" xml:space="preserve">
<g>
	<g>
		<g>
			<g>
				<g>
					<path d="M27.208,22.879H4.731c-0.705,0-1.278-0.574-1.278-1.279V6.435c0-0.704,0.573-1.278,1.278-1.278h22.476
						c0.705,0,1.279,0.574,1.279,1.278V21.6C28.486,22.305,27.913,22.879,27.208,22.879z M4.731,5.521
						c-0.504,0-0.914,0.409-0.914,0.913V21.6c0,0.505,0.41,0.914,0.914,0.914h22.476c0.504,0,0.914-0.409,0.914-0.914V6.435
						c0-0.504-0.41-0.913-0.914-0.913H4.731z"/>
				</g>
			</g>
			<g>
				<g>
					<path d="M30.522,26.8c-0.002,0-0.005-0.001-0.007,0H1.424c-0.071,0-0.136-0.041-0.167-0.104
						C1.229,26.63,1.239,26.554,1.284,26.5l2.159-2.558c0.035-0.042,0.086-0.063,0.14-0.063h24.773c0.054,0,0.105,0.021,0.14,0.063
						l2.132,2.526c0.046,0.034,0.077,0.086,0.077,0.147C30.706,26.718,30.623,26.8,30.522,26.8z M1.817,26.435h28.305l-1.851-2.191
						H3.667L1.817,26.435z"/>
				</g>
			</g>
			<g>
				<g>
					<path d="M28.303,20.956H3.635c-0.101,0-0.182-0.082-0.182-0.184s0.081-0.182,0.182-0.182h24.668
						c0.101,0,0.183,0.08,0.183,0.182S28.404,20.956,28.303,20.956z"/>
				</g>
			</g>
		</g>
		<g>
			<g>
				<g>
					<path fill="none" stroke="#000000" stroke-linecap="round" stroke-linejoin="round" stroke-miterlimit="10" d="M15.97,19.837"
						/>
				</g>
				<g>
					<path d="M15.97,18.886L15.97,18.886c-0.058,0-0.111-0.026-0.146-0.072c0,0-1.585-2.084-2.954-3.901
						c-0.06-0.081-0.044-0.194,0.036-0.255c0.081-0.061,0.195-0.046,0.256,0.035c1.12,1.487,2.385,3.153,2.807,3.708
						c1.893-2.489,4.62-6.098,4.744-6.322c0-0.001,0.001-0.002,0.002-0.004c0.001-0.004,0.002-0.008,0.005-0.013
						c0.184-0.364,0.277-0.752,0.277-1.153c0-1.427-1.174-2.588-2.615-2.588c-0.992,0-1.836,0.835-2.257,1.549
						c-0.065,0.111-0.249,0.112-0.314,0C15.39,9.155,14.546,8.32,13.555,8.32c-1.441,0-2.614,1.161-2.614,2.588
						c0,0.401,0.093,0.79,0.276,1.153c0.002,0.005,0.003,0.009,0.006,0.012c0.001,0.003,0.001,0.004,0.002,0.006
						c0.014,0.025,0.11,0.171,0.677,0.933c0.06,0.081,0.043,0.195-0.038,0.255c-0.082,0.061-0.196,0.044-0.256-0.037
						c-0.655-0.883-0.692-0.953-0.708-0.983c-0.012-0.018-0.021-0.036-0.027-0.056c-0.197-0.405-0.297-0.836-0.297-1.282
						c0-1.628,1.336-2.952,2.979-2.952c1.032,0,1.894,0.727,2.414,1.481c0.521-0.755,1.382-1.481,2.415-1.481
						c1.643,0,2.979,1.324,2.979,2.952c0,0.446-0.101,0.879-0.299,1.284c-0.006,0.021-0.015,0.042-0.028,0.06
						c-0.145,0.279-4.433,5.919-4.922,6.562C16.08,18.859,16.026,18.886,15.97,18.886z"/>
				</g>
			</g>
			<g>
				<path d="M15.507,15.872c-0.087,0-0.163-0.062-0.179-0.148l-0.464-2.428l-0.396,0.734c-0.033,0.06-0.094,0.097-0.162,0.097
					h-3.448c-0.101,0-0.182-0.081-0.182-0.183s0.082-0.183,0.182-0.183h3.339l0.589-1.091c0.037-0.068,0.113-0.106,0.188-0.094
					c0.076,0.013,0.137,0.07,0.151,0.146l0.358,1.873l0.54-3.649c0.013-0.089,0.088-0.154,0.178-0.155
					c0.084-0.014,0.167,0.062,0.182,0.15l0.613,3.475l0.244-0.582c0.029-0.068,0.095-0.111,0.168-0.111h1.031
					c0.101,0,0.182,0.081,0.182,0.182s-0.081,0.184-0.182,0.184h-0.909l-0.437,1.043c-0.032,0.074-0.108,0.12-0.189,0.111
					c-0.081-0.01-0.146-0.069-0.16-0.15l-0.525-2.978l-0.533,3.602c-0.013,0.088-0.087,0.154-0.177,0.155
					C15.51,15.872,15.509,15.872,15.507,15.872z"/>
			</g>
		</g>
	</g>
</g>
</svg>
