<?xml version="1.0" encoding="utf-8"?>
<!-- Generator: Adobe Illustrator 16.0.0, SVG Export Plug-In . SVG Version: 6.00 Build 0)  -->
<!DOCTYPE svg PUBLIC "-//W3C//DTD SVG 1.1//EN" "http://www.w3.org/Graphics/SVG/1.1/DTD/svg11.dtd">
<svg version="1.1" id="Layer_1" xmlns="http://www.w3.org/2000/svg" xmlns:xlink="http://www.w3.org/1999/xlink" x="0px" y="0px"
	 width="32px" height="32px" viewBox="0 0 32 32" enable-background="new 0 0 32 32" xml:space="preserve">
<g>
	<g>
		<g>
			<g>
				<g>
					<path d="M27.248,23.107H4.771c-0.706,0-1.278-0.574-1.278-1.279V6.663c0-0.706,0.573-1.278,1.278-1.278h22.476
						c0.706,0,1.279,0.572,1.279,1.278v15.165C28.526,22.533,27.953,23.107,27.248,23.107z M4.771,5.75
						c-0.504,0-0.914,0.41-0.914,0.913v15.165c0,0.504,0.41,0.914,0.914,0.914h22.476c0.504,0,0.914-0.41,0.914-0.914V6.663
						c0-0.503-0.409-0.913-0.914-0.913H4.771z"/>
				</g>
			</g>
			<g>
				<g>
					<path d="M28.344,21.183H3.676c-0.102,0-0.183-0.081-0.183-0.183c0-0.101,0.081-0.182,0.183-0.182h24.668
						c0.102,0,0.183,0.081,0.183,0.182C28.526,21.102,28.445,21.183,28.344,21.183z"/>
				</g>
			</g>
			<g>
				<g>
					<g>
						<path d="M11.101,26.344c-0.039,0-0.078-0.014-0.111-0.039c-0.081-0.062-0.094-0.177-0.033-0.257l2.511-3.241
							c0.062-0.08,0.176-0.094,0.257-0.033c0.079,0.062,0.094,0.177,0.032,0.258l-2.511,3.24
							C11.21,26.32,11.156,26.344,11.101,26.344z"/>
					</g>
				</g>
				<g>
					<g>
						<path d="M20.918,26.344c-0.055,0-0.109-0.023-0.146-0.072l-2.511-3.24c-0.062-0.081-0.047-0.195,0.033-0.258
							c0.08-0.061,0.195-0.047,0.256,0.033l2.511,3.241c0.062,0.08,0.048,0.195-0.033,0.257
							C20.997,26.33,20.958,26.344,20.918,26.344z"/>
					</g>
				</g>
			</g>
			<g>
				<g>
					<path d="M22.859,26.572H9.16c-0.1,0-0.183-0.082-0.183-0.184c0-0.101,0.083-0.182,0.183-0.182h13.699
						c0.101,0,0.184,0.081,0.184,0.182C23.042,26.49,22.959,26.572,22.859,26.572z"/>
				</g>
			</g>
		</g>
		<g>
			<g>
				<g>
					<path fill="none" stroke="#000000" stroke-linecap="round" stroke-linejoin="round" stroke-miterlimit="10" d="M16.01,20.063"
						/>
				</g>
				<g>
					<path d="M16.01,19.14c-0.057,0-0.111-0.026-0.146-0.072c0,0-1.546-2.032-2.881-3.806c-0.061-0.081-0.045-0.194,0.036-0.256
						c0.081-0.06,0.195-0.045,0.256,0.036c1.09,1.446,2.32,3.067,2.735,3.612c1.846-2.428,4.503-5.943,4.625-6.163
						c0.001-0.001,0.001-0.002,0.001-0.002c0.002-0.005,0.005-0.01,0.006-0.014c0.179-0.355,0.27-0.733,0.27-1.123
						c0-1.39-1.142-2.521-2.547-2.521c-0.966,0-1.787,0.814-2.198,1.511c-0.066,0.11-0.249,0.111-0.315,0
						c-0.411-0.696-1.233-1.511-2.198-1.511c-1.404,0-2.546,1.132-2.546,2.521c0,0.39,0.091,0.769,0.27,1.123
						c0.002,0.004,0.003,0.009,0.005,0.013c0,0.001,0.001,0.003,0.002,0.003c0.014,0.026,0.107,0.168,0.659,0.91
						c0.061,0.081,0.043,0.195-0.038,0.256c-0.081,0.059-0.195,0.043-0.255-0.038c-0.641-0.861-0.675-0.928-0.691-0.961
						c-0.013-0.017-0.022-0.037-0.028-0.057c-0.193-0.395-0.29-0.814-0.29-1.249c0-1.592,1.306-2.887,2.911-2.887
						c1.006,0,1.846,0.708,2.356,1.444c0.508-0.736,1.348-1.444,2.355-1.444c1.606,0,2.912,1.295,2.912,2.887
						c0,0.436-0.098,0.857-0.292,1.254c-0.005,0.021-0.015,0.04-0.027,0.058c-0.142,0.273-4.326,5.776-4.802,6.403
						C16.121,19.113,16.066,19.14,16.01,19.14z"/>
				</g>
			</g>
			<g>
				<path d="M15.559,16.201c-0.087,0-0.163-0.062-0.18-0.149l-0.45-2.356L14.548,14.4c-0.033,0.061-0.094,0.097-0.161,0.097h-3.365
					c-0.101,0-0.182-0.082-0.182-0.184c0-0.101,0.082-0.182,0.182-0.182h3.255l0.574-1.062c0.037-0.068,0.113-0.105,0.189-0.095
					c0.076,0.013,0.137,0.071,0.152,0.146l0.343,1.803l0.523-3.535c0.014-0.089,0.088-0.154,0.179-0.156
					c0.076-0.009,0.167,0.063,0.182,0.151l0.596,3.376l0.231-0.555c0.029-0.067,0.095-0.111,0.168-0.111h1.005
					c0.101,0,0.183,0.081,0.183,0.182c0,0.102-0.083,0.184-0.183,0.184h-0.884l-0.425,1.015c-0.031,0.074-0.105,0.119-0.188,0.112
					c-0.081-0.011-0.146-0.071-0.16-0.151l-0.507-2.878l-0.517,3.486c-0.013,0.089-0.088,0.154-0.177,0.157
					C15.562,16.201,15.561,16.201,15.559,16.201z"/>
			</g>
		</g>
	</g>
</g>
</svg>
