<?xml version="1.0" encoding="utf-8"?>
<!-- Generator: Adobe Illustrator 16.0.0, SVG Export Plug-In . SVG Version: 6.00 Build 0)  -->
<!DOCTYPE svg PUBLIC "-//W3C//DTD SVG 1.1//EN" "http://www.w3.org/Graphics/SVG/1.1/DTD/svg11.dtd">
<svg version="1.1" id="Layer_1" xmlns="http://www.w3.org/2000/svg" xmlns:xlink="http://www.w3.org/1999/xlink" x="0px" y="0px"
	 width="32px" height="32px" viewBox="0 0 32 32" enable-background="new 0 0 32 32" xml:space="preserve">
<g>
	<g>
		<g>
			<g>
				<g>
					<path d="M27.248,23.223H4.771c-0.706,0-1.278-0.573-1.278-1.279V6.778c0-0.705,0.573-1.278,1.278-1.278h22.476
						c0.706,0,1.279,0.573,1.279,1.278v15.165C28.526,22.649,27.953,23.223,27.248,23.223z M4.771,5.865
						c-0.504,0-0.914,0.409-0.914,0.913v15.165c0,0.505,0.41,0.914,0.914,0.914h22.476c0.504,0,0.914-0.409,0.914-0.914V6.778
						c0-0.504-0.409-0.913-0.914-0.913H4.771z"/>
				</g>
			</g>
			<g>
				<g>
					<path d="M28.344,21.3H3.676c-0.102,0-0.183-0.083-0.183-0.184s0.081-0.184,0.183-0.184h24.668c0.102,0,0.183,0.083,0.183,0.184
						S28.445,21.3,28.344,21.3z"/>
				</g>
			</g>
			<g>
				<g>
					<g>
						<path d="M11.101,26.459c-0.039,0-0.078-0.013-0.111-0.039c-0.081-0.062-0.094-0.177-0.033-0.256l2.511-3.242
							c0.062-0.079,0.176-0.094,0.257-0.032c0.079,0.062,0.094,0.177,0.032,0.257l-2.511,3.241
							C11.21,26.434,11.156,26.459,11.101,26.459z"/>
					</g>
				</g>
				<g>
					<g>
						<path d="M20.918,26.459c-0.055,0-0.109-0.025-0.146-0.071l-2.511-3.241c-0.062-0.08-0.047-0.195,0.033-0.257
							c0.08-0.062,0.195-0.048,0.256,0.032l2.511,3.242c0.062,0.079,0.048,0.194-0.033,0.256
							C20.997,26.446,20.958,26.459,20.918,26.459z"/>
					</g>
				</g>
			</g>
			<g>
				<g>
					<path d="M22.859,26.687H9.16c-0.1,0-0.183-0.081-0.183-0.183c0-0.101,0.083-0.182,0.183-0.182h13.699
						c0.101,0,0.184,0.081,0.184,0.182C23.042,26.605,22.959,26.687,22.859,26.687z"/>
				</g>
			</g>
		</g>
		<g>
			<g>
				<path d="M15.587,18.661c-0.049,0-0.097-0.02-0.132-0.056l-3.238-3.372H9.264c-0.102,0-0.183-0.08-0.183-0.182V12.02
					c0-0.101,0.082-0.182,0.183-0.182h2.954l3.238-3.37c0.051-0.056,0.131-0.071,0.2-0.043c0.07,0.027,0.115,0.095,0.115,0.169
					v9.885c0,0.074-0.045,0.142-0.115,0.169C15.633,18.658,15.61,18.661,15.587,18.661z M9.446,14.869h2.849
					c0.05,0,0.097,0.021,0.131,0.056l2.979,3.101V9.048l-2.979,3.1c-0.034,0.034-0.082,0.056-0.131,0.056H9.446V14.869z"/>
			</g>
			<g>
				<g>
					<path d="M17.899,15.271c-0.084,0-0.16-0.059-0.179-0.143c-0.022-0.1,0.041-0.197,0.139-0.219
						c0.444-0.099,0.779-0.688,0.779-1.374c0-0.685-0.335-1.275-0.779-1.375c-0.099-0.021-0.161-0.118-0.139-0.216
						c0.022-0.099,0.119-0.161,0.218-0.139c0.618,0.136,1.066,0.864,1.066,1.729c0,0.867-0.448,1.594-1.066,1.73
						C17.925,15.27,17.912,15.271,17.899,15.271z"/>
				</g>
				<g>
					<path d="M19.49,15.923c-0.083,0-0.158-0.058-0.178-0.142c-0.022-0.099,0.039-0.195,0.138-0.218
						c0.634-0.148,1.113-1.02,1.113-2.027s-0.479-1.88-1.113-2.026c-0.099-0.023-0.16-0.12-0.138-0.219
						c0.022-0.097,0.122-0.159,0.219-0.137c0.81,0.186,1.397,1.189,1.397,2.382c0,1.194-0.587,2.195-1.397,2.383
						C19.518,15.922,19.503,15.923,19.49,15.923z"/>
				</g>
				<g>
					<path d="M20.997,16.904c-0.083,0-0.158-0.056-0.178-0.141c-0.023-0.096,0.038-0.195,0.136-0.219
						c0.922-0.22,1.617-1.515,1.617-3.009c0-1.495-0.695-2.788-1.617-3.008c-0.099-0.024-0.16-0.123-0.136-0.221
						c0.024-0.099,0.125-0.159,0.221-0.136c1.1,0.263,1.898,1.677,1.898,3.364s-0.798,3.102-1.898,3.364
						C21.026,16.903,21.012,16.904,20.997,16.904z"/>
				</g>
			</g>
		</g>
	</g>
</g>
</svg>
