<?xml version="1.0" encoding="utf-8"?>
<!-- Generator: Adobe Illustrator 16.0.0, SVG Export Plug-In . SVG Version: 6.00 Build 0)  -->
<!DOCTYPE svg PUBLIC "-//W3C//DTD SVG 1.1//EN" "http://www.w3.org/Graphics/SVG/1.1/DTD/svg11.dtd">
<svg version="1.1" id="Layer_1" xmlns="http://www.w3.org/2000/svg" xmlns:xlink="http://www.w3.org/1999/xlink" x="0px" y="0px"
	 width="32px" height="32px" viewBox="0 0 32 32" enable-background="new 0 0 32 32" xml:space="preserve">
<g>
	<g>
		<g>
			<g>
				<g>
					<path d="M19.496,23.155h-8.214c-1.107,0-2.009-0.9-2.009-2.009V11.041c0-1.109,0.901-2.01,2.009-2.01h8.214
						c1.107,0,2.009,0.9,2.009,2.01v10.105C21.504,22.255,20.603,23.155,19.496,23.155z M11.281,9.396
						c-0.907,0-1.644,0.738-1.644,1.645v10.105c0,0.906,0.737,1.643,1.644,1.643h8.214c0.906,0,1.644-0.736,1.644-1.643V11.041
						c0-0.906-0.738-1.645-1.644-1.645H11.281z"/>
				</g>
			</g>
			<g>
				<g>
					<path d="M22.637,14.673c-0.101,0-0.183-0.082-0.183-0.184v-2.285c0-0.101,0.082-0.184,0.183-0.184s0.183,0.083,0.183,0.184
						v2.285C22.819,14.591,22.738,14.673,22.637,14.673z"/>
				</g>
			</g>
			<g>
				<g>
					<path d="M19.128,8.049c-0.101,0-0.182-0.081-0.182-0.182V5.324c0-0.303-0.247-0.548-0.549-0.548h-6.018
						c-0.302,0-0.548,0.245-0.548,0.548v2.543c0,0.101-0.082,0.182-0.183,0.182c-0.101,0-0.183-0.081-0.183-0.182V5.324
						c0-0.504,0.409-0.914,0.913-0.914h6.018c0.504,0,0.914,0.41,0.914,0.914v2.543C19.312,7.968,19.229,8.049,19.128,8.049z"/>
				</g>
			</g>
			<g>
				<g>
					<path d="M18.397,27.775h-6.018c-0.504,0-0.913-0.41-0.913-0.912v-2.544c0-0.101,0.082-0.183,0.183-0.183
						c0.101,0,0.183,0.082,0.183,0.183v2.544c0,0.302,0.246,0.547,0.548,0.547h6.018c0.302,0,0.549-0.245,0.549-0.547v-2.544
						c0-0.101,0.082-0.183,0.182-0.183s0.183,0.082,0.183,0.183v2.544C19.312,27.365,18.901,27.775,18.397,27.775z"/>
				</g>
			</g>
		</g>
		<g>
			<g>
				<path d="M15.158,19.302c-0.052,0-0.103-0.022-0.138-0.064l-1.741-2.033h-1.567c-0.102,0-0.183-0.081-0.183-0.184v-1.854
					c0-0.102,0.082-0.183,0.183-0.183h1.567l1.741-2.034c0.049-0.058,0.13-0.08,0.202-0.053c0.072,0.026,0.119,0.094,0.119,0.171
					v6.052c0,0.076-0.047,0.146-0.119,0.171C15.201,19.298,15.18,19.302,15.158,19.302z M11.894,16.839h1.47
					c0.054,0,0.104,0.023,0.139,0.063l1.473,1.722v-5.062l-1.473,1.722c-0.035,0.041-0.085,0.064-0.139,0.064h-1.47V16.839z"/>
			</g>
			<g>
				<g>
					<path d="M16.419,17.333c-0.081,0-0.154-0.053-0.177-0.134c-0.027-0.097,0.03-0.196,0.127-0.224
						c0.177-0.05,0.369-0.4,0.369-0.882s-0.191-0.833-0.369-0.882c-0.097-0.027-0.154-0.128-0.127-0.225
						c0.027-0.098,0.128-0.152,0.225-0.128c0.375,0.104,0.637,0.611,0.637,1.234c0,0.622-0.262,1.13-0.637,1.233
						C16.451,17.331,16.435,17.333,16.419,17.333z"/>
				</g>
				<g>
					<path d="M17.286,17.778c-0.08,0-0.153-0.053-0.176-0.133c-0.028-0.096,0.028-0.196,0.125-0.226
						c0.271-0.078,0.552-0.597,0.552-1.326c0-0.73-0.281-1.248-0.552-1.327c-0.097-0.027-0.153-0.129-0.125-0.226
						s0.128-0.153,0.226-0.125c0.481,0.139,0.817,0.829,0.817,1.678s-0.335,1.539-0.817,1.678
						C17.319,17.776,17.302,17.778,17.286,17.778z"/>
				</g>
				<g>
					<path d="M18.107,18.446c-0.079,0-0.152-0.051-0.175-0.13c-0.029-0.097,0.026-0.197,0.123-0.227
						c0.407-0.121,0.828-0.901,0.828-1.996c0-1.094-0.42-1.875-0.828-1.997c-0.097-0.028-0.151-0.131-0.123-0.228
						c0.029-0.096,0.129-0.149,0.227-0.122c0.631,0.188,1.088,1.176,1.088,2.347c0,1.173-0.457,2.158-1.088,2.346
						C18.142,18.444,18.124,18.446,18.107,18.446z"/>
				</g>
			</g>
		</g>
	</g>
</g>
</svg>
