<?xml version="1.0" encoding="utf-8"?>
<!-- Generator: Adobe Illustrator 16.0.0, SVG Export Plug-In . SVG Version: 6.00 Build 0)  -->
<!DOCTYPE svg PUBLIC "-//W3C//DTD SVG 1.1//EN" "http://www.w3.org/Graphics/SVG/1.1/DTD/svg11.dtd">
<svg version="1.1" id="Layer_1" xmlns="http://www.w3.org/2000/svg" xmlns:xlink="http://www.w3.org/1999/xlink" x="0px" y="0px"
	 width="32px" height="32px" viewBox="0 0 32 32" enable-background="new 0 0 32 32" xml:space="preserve">
<g>
	<g>
		<g>
			<g>
				<path d="M24.984,30.542H6.817c-0.705,0-1.279-0.573-1.279-1.278V2.923c0-0.704,0.574-1.278,1.279-1.278h18.167
					c0.705,0,1.279,0.574,1.279,1.278v26.341C26.263,29.969,25.689,30.542,24.984,30.542z M6.817,2.01
					c-0.504,0-0.914,0.41-0.914,0.913v26.341c0,0.503,0.409,0.914,0.914,0.914h18.167c0.503,0,0.914-0.411,0.914-0.914V2.923
					c0-0.503-0.41-0.913-0.914-0.913H6.817z"/>
			</g>
		</g>
		<g>
			<g>
				<circle cx="15.901" cy="28.124" r="0.746"/>
			</g>
		</g>
		<g>
			<g>
				<path d="M25.925,25.591H5.876c-0.101,0-0.183-0.082-0.183-0.183s0.082-0.183,0.183-0.183h20.049
					c0.101,0,0.182,0.082,0.182,0.183S26.026,25.591,25.925,25.591z"/>
			</g>
		</g>
		<g>
			<g>
				<path d="M15.478,19.027c-0.048,0-0.096-0.021-0.131-0.057l-3.238-3.372H9.154c-0.101,0-0.183-0.081-0.183-0.182v-3.031
					c0-0.102,0.082-0.183,0.183-0.183h2.954l3.238-3.37c0.052-0.055,0.131-0.071,0.2-0.043c0.07,0.027,0.115,0.095,0.115,0.168
					v9.885c0,0.075-0.045,0.142-0.115,0.17C15.525,19.022,15.502,19.027,15.478,19.027z M9.337,15.233h2.849
					c0.05,0,0.098,0.021,0.131,0.057l2.979,3.1V9.414l-2.979,3.099c-0.034,0.035-0.082,0.056-0.131,0.056H9.337V15.233z"/>
			</g>
		</g>
		<g>
			<g>
				<g>
					<path d="M17.791,15.637c-0.083,0-0.159-0.059-0.179-0.144c-0.021-0.098,0.041-0.196,0.14-0.217
						c0.443-0.1,0.779-0.689,0.779-1.374c0-0.687-0.336-1.276-0.779-1.374c-0.099-0.022-0.16-0.119-0.14-0.219
						c0.023-0.098,0.12-0.159,0.218-0.138c0.619,0.136,1.066,0.863,1.066,1.73c0,0.865-0.447,1.593-1.066,1.729
						C17.817,15.636,17.803,15.637,17.791,15.637z"/>
				</g>
			</g>
			<g>
				<g>
					<path d="M19.382,16.288c-0.083,0-0.158-0.057-0.179-0.142c-0.022-0.098,0.04-0.195,0.138-0.218
						c0.635-0.148,1.113-1.019,1.113-2.026c0-1.009-0.479-1.88-1.113-2.027c-0.098-0.022-0.16-0.12-0.138-0.219
						c0.023-0.097,0.122-0.159,0.22-0.137c0.81,0.187,1.397,1.188,1.397,2.383c0,1.192-0.587,2.194-1.397,2.382
						C19.41,16.287,19.396,16.288,19.382,16.288z"/>
				</g>
			</g>
			<g>
				<g>
					<path d="M20.889,17.271c-0.083,0-0.157-0.057-0.177-0.142c-0.024-0.097,0.037-0.195,0.135-0.219
						c0.922-0.219,1.618-1.514,1.618-3.008c0-1.496-0.695-2.789-1.618-3.009c-0.098-0.024-0.159-0.122-0.135-0.221
						c0.023-0.098,0.123-0.158,0.22-0.134c1.1,0.261,1.898,1.676,1.898,3.363c0,1.687-0.798,3.102-1.898,3.364
						C20.917,17.27,20.902,17.271,20.889,17.271z"/>
				</g>
			</g>
		</g>
	</g>
</g>
</svg>
