<?xml version="1.0" encoding="utf-8"?>
<!-- Generator: Adobe Illustrator 16.0.0, SVG Export Plug-In . SVG Version: 6.00 Build 0)  -->
<!DOCTYPE svg PUBLIC "-//W3C//DTD SVG 1.1//EN" "http://www.w3.org/Graphics/SVG/1.1/DTD/svg11.dtd">
<svg version="1.1" id="Layer_1" xmlns="http://www.w3.org/2000/svg" xmlns:xlink="http://www.w3.org/1999/xlink" x="0px" y="0px"
	 width="32px" height="32px" viewBox="0 0 32 32" enable-background="new 0 0 32 32" xml:space="preserve">
<g>
	<g>
		<g>
			<g>
				<g>
					<path d="M27.208,22.994H4.731c-0.705,0-1.278-0.574-1.278-1.278V6.549c0-0.704,0.573-1.278,1.278-1.278h22.476
						c0.705,0,1.279,0.574,1.279,1.278v15.167C28.486,22.42,27.913,22.994,27.208,22.994z M4.731,5.637
						c-0.504,0-0.914,0.41-0.914,0.912v15.167c0,0.503,0.41,0.914,0.914,0.914h22.476c0.504,0,0.914-0.411,0.914-0.914V6.549
						c0-0.502-0.41-0.912-0.914-0.912H4.731z"/>
				</g>
			</g>
			<g>
				<g>
					<path d="M30.522,26.916c-0.002,0-0.005,0-0.007,0H1.424c-0.071,0-0.136-0.043-0.167-0.106
						c-0.029-0.064-0.019-0.141,0.027-0.196l2.159-2.557c0.035-0.04,0.086-0.063,0.14-0.063h24.773c0.054,0,0.105,0.023,0.14,0.063
						l2.132,2.527c0.046,0.032,0.077,0.087,0.077,0.148C30.706,26.834,30.623,26.916,30.522,26.916z M1.817,26.55h28.305
						l-1.851-2.191H3.667L1.817,26.55z"/>
				</g>
			</g>
			<g>
				<g>
					<path d="M28.303,21.07H3.635c-0.101,0-0.182-0.081-0.182-0.183c0-0.101,0.081-0.183,0.182-0.183h24.668
						c0.101,0,0.183,0.082,0.183,0.183C28.486,20.989,28.404,21.07,28.303,21.07z"/>
				</g>
			</g>
		</g>
		<g>
			<g>
				<path d="M15.615,17.867c-0.048,0-0.096-0.021-0.132-0.056l-2.709-2.82h-2.467c-0.101,0-0.182-0.081-0.182-0.183v-2.545
					c0-0.103,0.081-0.184,0.182-0.184h2.467l2.709-2.819c0.052-0.054,0.13-0.07,0.2-0.043c0.069,0.028,0.115,0.096,0.115,0.17v8.297
					c0,0.074-0.045,0.142-0.115,0.17C15.661,17.863,15.638,17.867,15.615,17.867z M10.489,14.626h2.363
					c0.05,0,0.097,0.021,0.131,0.057l2.45,2.548v-7.39l-2.45,2.549c-0.035,0.035-0.082,0.056-0.131,0.056h-2.363V14.626z"/>
			</g>
			<g>
				<g>
					<path d="M17.555,15.022c-0.083,0-0.159-0.059-0.178-0.144c-0.021-0.099,0.041-0.195,0.139-0.218
						c0.36-0.08,0.631-0.563,0.631-1.125s-0.271-1.045-0.631-1.124c-0.098-0.022-0.161-0.12-0.139-0.219
						c0.022-0.098,0.12-0.161,0.217-0.139c0.533,0.117,0.918,0.741,0.918,1.481c0,0.741-0.386,1.363-0.918,1.481
						C17.582,15.021,17.568,15.022,17.555,15.022z"/>
				</g>
				<g>
					<path d="M18.892,15.569c-0.083,0-0.159-0.057-0.178-0.143c-0.023-0.097,0.038-0.195,0.137-0.219
						c0.521-0.119,0.912-0.837,0.912-1.672c0-0.834-0.392-1.552-0.912-1.672c-0.099-0.022-0.16-0.122-0.137-0.22
						c0.022-0.099,0.121-0.159,0.218-0.137c0.693,0.16,1.196,1.014,1.196,2.028c0,1.016-0.502,1.868-1.196,2.029
						C18.918,15.567,18.905,15.569,18.892,15.569z"/>
				</g>
				<g>
					<path d="M20.156,16.394c-0.083,0-0.158-0.057-0.177-0.141c-0.024-0.098,0.038-0.196,0.135-0.22
						c0.761-0.182,1.335-1.256,1.335-2.497c0-1.242-0.574-2.315-1.335-2.496c-0.098-0.023-0.159-0.123-0.135-0.221
						c0.023-0.098,0.124-0.159,0.22-0.136c0.936,0.225,1.617,1.422,1.617,2.853s-0.681,2.628-1.617,2.853
						C20.185,16.392,20.17,16.394,20.156,16.394z"/>
				</g>
			</g>
		</g>
	</g>
</g>
</svg>
