<?xml version="1.0" encoding="utf-8"?>
<!-- Generator: Adobe Illustrator 16.0.0, SVG Export Plug-In . SVG Version: 6.00 Build 0)  -->
<!DOCTYPE svg PUBLIC "-//W3C//DTD SVG 1.1//EN" "http://www.w3.org/Graphics/SVG/1.1/DTD/svg11.dtd">
<svg version="1.1" id="Layer_1" xmlns="http://www.w3.org/2000/svg" xmlns:xlink="http://www.w3.org/1999/xlink" x="0px" y="0px"
	 width="48px" height="48px" viewBox="0 0 48 48" enable-background="new 0 0 48 48" xml:space="preserve">
<g>
	<g>
		<g>
			<path d="M39.367,33.748H8.632c-0.964,0-1.748-0.783-1.748-1.748V11.262c0-0.963,0.784-1.748,1.748-1.748h30.735
				c0.964,0,1.749,0.785,1.749,1.748V32C41.116,32.965,40.331,33.748,39.367,33.748z M8.632,10.014
				c-0.688,0-1.249,0.561-1.249,1.248V32c0,0.689,0.56,1.248,1.249,1.248h30.735c0.688,0,1.249-0.559,1.249-1.248V11.262
				c0-0.688-0.561-1.248-1.249-1.248H8.632z"/>
		</g>
		<g>
			<path d="M40.866,31.117H7.134c-0.138,0-0.25-0.111-0.25-0.248c0-0.139,0.111-0.25,0.25-0.25h33.732c0.138,0,0.25,0.111,0.25,0.25
				C41.116,31.006,41.004,31.117,40.866,31.117z"/>
		</g>
		<g>
			<g>
				<path d="M17.288,38.174c-0.054,0-0.107-0.018-0.153-0.053c-0.109-0.084-0.129-0.24-0.045-0.35l3.435-4.434
					c0.084-0.109,0.241-0.129,0.35-0.045c0.109,0.084,0.129,0.242,0.045,0.352l-3.434,4.432
					C17.436,38.141,17.362,38.174,17.288,38.174z"/>
			</g>
			<g>
				<path d="M30.712,38.174c-0.075,0-0.148-0.033-0.198-0.098l-3.434-4.432c-0.084-0.109-0.064-0.268,0.044-0.352
					s0.266-0.064,0.351,0.045l3.434,4.434c0.084,0.109,0.064,0.266-0.044,0.35C30.82,38.156,30.766,38.174,30.712,38.174z"/>
			</g>
		</g>
		<g>
			<path d="M33.366,38.486H14.634c-0.138,0-0.25-0.111-0.25-0.25s0.112-0.25,0.25-0.25h18.732c0.138,0,0.25,0.111,0.25,0.25
				S33.504,38.486,33.366,38.486z"/>
		</g>
	</g>
	<g>
		<g>
			<path d="M30.516,20.035h-5.427c-0.138,0-0.25-0.111-0.25-0.25v-5.199c0-0.07,0.03-0.139,0.082-0.186
				c0.053-0.047,0.125-0.068,0.193-0.062c2.9,0.295,5.224,2.521,5.649,5.412c0.01,0.072-0.011,0.145-0.058,0.199
				C30.657,20.004,30.589,20.035,30.516,20.035z M25.339,19.535h4.881c-0.48-2.432-2.433-4.301-4.881-4.666V19.535z"/>
		</g>
		<g>
			<path d="M23.614,27.654c-3.518,0-6.38-2.863-6.38-6.381c0-3.318,2.489-6.047,5.791-6.352c0.072-0.006,0.139,0.018,0.191,0.064
				c0.052,0.049,0.082,0.115,0.082,0.186V21.6h6.418c0.07,0,0.138,0.029,0.185,0.082c0.047,0.053,0.07,0.121,0.064,0.191
				C29.657,25.168,26.927,27.654,23.614,27.654z M22.797,15.451c-2.906,0.4-5.064,2.857-5.064,5.822
				c0,3.242,2.638,5.881,5.881,5.881c2.961,0,5.417-2.154,5.821-5.055h-6.388c-0.138,0-0.25-0.111-0.25-0.25V15.451z"/>
		</g>
	</g>
</g>
</svg>
