<?xml version="1.0" encoding="utf-8"?>
<!-- Generator: Adobe Illustrator 16.0.0, SVG Export Plug-In . SVG Version: 6.00 Build 0)  -->
<!DOCTYPE svg PUBLIC "-//W3C//DTD SVG 1.1//EN" "http://www.w3.org/Graphics/SVG/1.1/DTD/svg11.dtd">
<svg version="1.1" id="Layer_1" xmlns="http://www.w3.org/2000/svg" xmlns:xlink="http://www.w3.org/1999/xlink" x="0px" y="0px"
	 width="48px" height="48px" viewBox="0 0 48 48" enable-background="new 0 0 48 48" xml:space="preserve">
<g>
	<g>
		<g>
			<path d="M28.717,33.656H17.485c-1.515,0-2.748-1.232-2.748-2.746V17.09c0-1.514,1.233-2.746,2.748-2.746h11.231
				c1.515,0,2.748,1.232,2.748,2.746v13.82C31.465,32.424,30.231,33.656,28.717,33.656z M17.485,14.844
				c-1.24,0-2.248,1.008-2.248,2.246v13.82c0,1.238,1.008,2.246,2.248,2.246h11.231c1.24,0,2.248-1.008,2.248-2.246V17.09
				c0-1.238-1.008-2.246-2.248-2.246H17.485z"/>
		</g>
		<g>
			<path d="M33.013,22.057c-0.138,0-0.25-0.111-0.25-0.25v-3.125c0-0.139,0.112-0.25,0.25-0.25c0.139,0,0.25,0.111,0.25,0.25v3.125
				C33.263,21.945,33.151,22.057,33.013,22.057z"/>
		</g>
		<g>
			<path d="M28.215,13.002c-0.138,0-0.249-0.113-0.249-0.25V9.273c0-0.412-0.336-0.748-0.75-0.748h-8.229
				c-0.413,0-0.749,0.336-0.749,0.748v3.479c0,0.137-0.112,0.25-0.25,0.25s-0.25-0.113-0.25-0.25V9.273
				c0-0.688,0.561-1.248,1.249-1.248h8.229c0.689,0,1.249,0.561,1.249,1.248v3.479C28.465,12.889,28.354,13.002,28.215,13.002z"/>
		</g>
		<g>
			<path d="M27.216,39.975h-8.229c-0.688,0-1.249-0.561-1.249-1.248v-3.479c0-0.139,0.112-0.25,0.25-0.25s0.25,0.111,0.25,0.25
				v3.479c0,0.412,0.336,0.748,0.749,0.748h8.229c0.414,0,0.75-0.336,0.75-0.748v-3.479c0-0.139,0.111-0.25,0.249-0.25
				c0.139,0,0.25,0.111,0.25,0.25v3.479C28.465,39.414,27.905,39.975,27.216,39.975z"/>
		</g>
	</g>
	<g>
		<g>
			<path d="M27.427,23.244h-3.395c-0.138,0-0.25-0.111-0.25-0.25v-3.252c0-0.072,0.03-0.139,0.083-0.186
				c0.052-0.049,0.122-0.072,0.192-0.064c1.856,0.191,3.344,1.615,3.616,3.465c0.011,0.072-0.011,0.145-0.058,0.201
				C27.568,23.213,27.499,23.244,27.427,23.244z M24.282,22.744h2.844c-0.321-1.393-1.439-2.461-2.844-2.715V22.744z"/>
		</g>
		<g>
			<path d="M22.61,28.508c-2.252,0-4.084-1.832-4.084-4.084c0-2.123,1.594-3.871,3.706-4.064c0.074-0.004,0.14,0.018,0.191,0.064
				s0.082,0.113,0.082,0.184v3.928h3.921c0.07,0,0.137,0.029,0.185,0.08c0.047,0.053,0.07,0.123,0.064,0.191
				C26.479,26.918,24.731,28.508,22.61,28.508z M22.006,20.893c-1.717,0.287-2.98,1.76-2.98,3.531c0,1.977,1.608,3.584,3.585,3.584
				c1.769,0,3.241-1.26,3.532-2.975h-3.887c-0.138,0-0.25-0.111-0.25-0.248V20.893z"/>
		</g>
	</g>
</g>
</svg>
