<?xml version="1.0" encoding="utf-8"?>
<!-- Generator: Adobe Illustrator 16.0.0, SVG Export Plug-In . SVG Version: 6.00 Build 0)  -->
<!DOCTYPE svg PUBLIC "-//W3C//DTD SVG 1.1//EN" "http://www.w3.org/Graphics/SVG/1.1/DTD/svg11.dtd">
<svg version="1.1" id="Layer_1" xmlns="http://www.w3.org/2000/svg" xmlns:xlink="http://www.w3.org/1999/xlink" x="0px" y="0px"
	 width="48px" height="48px" viewBox="0 0 48 48" enable-background="new 0 0 48 48" xml:space="preserve">
<g>
	<g>
		<path d="M36.421,43.758H11.579c-0.965,0-1.749-0.783-1.749-1.748V5.99c0-0.965,0.784-1.748,1.749-1.748h24.842
			c0.964,0,1.749,0.783,1.749,1.748v36.02C38.17,42.975,37.385,43.758,36.421,43.758z M11.579,4.742
			c-0.689,0-1.249,0.559-1.249,1.248v36.02c0,0.689,0.56,1.248,1.249,1.248h24.842c0.688,0,1.249-0.559,1.249-1.248V5.99
			c0-0.689-0.561-1.248-1.249-1.248H11.579z"/>
	</g>
	<g>
		<circle cx="24" cy="40.451" r="1.02"/>
	</g>
	<g>
		<path d="M37.707,36.988H10.293c-0.139,0-0.25-0.111-0.25-0.25s0.111-0.25,0.25-0.25h27.414c0.139,0,0.25,0.111,0.25,0.25
			S37.846,36.988,37.707,36.988z"/>
	</g>
	<g>
		<path d="M33.05,19.564h-7.538c-0.138,0-0.249-0.111-0.249-0.248v-7.223c0-0.07,0.029-0.139,0.082-0.186s0.123-0.068,0.192-0.062
			c3.984,0.406,7.176,3.463,7.76,7.434c0.01,0.072-0.011,0.145-0.059,0.199C33.191,19.533,33.122,19.564,33.05,19.564z
			 M25.762,19.066h6.994c-0.643-3.514-3.462-6.211-6.994-6.691V19.066z"/>
	</g>
	<g>
		<path d="M23.464,30.146c-4.832,0-8.764-3.932-8.764-8.764c0-4.557,3.42-8.307,7.954-8.725c0.07-0.004,0.139,0.018,0.19,0.064
			c0.053,0.049,0.082,0.115,0.082,0.186v9.025h9.011c0.07,0,0.138,0.029,0.185,0.08c0.048,0.053,0.071,0.121,0.064,0.191
			C31.764,26.732,28.014,30.146,23.464,30.146z M22.427,13.186c-4.139,0.516-7.227,3.992-7.227,8.197
			c0,4.557,3.707,8.264,8.264,8.264c4.199,0,7.675-3.082,8.195-7.215h-8.982c-0.138,0-0.25-0.111-0.25-0.25V13.186z"/>
	</g>
</g>
</svg>
