<?xml version="1.0" encoding="utf-8"?>
<!-- Generator: Adobe Illustrator 16.0.0, SVG Export Plug-In . SVG Version: 6.00 Build 0)  -->
<!DOCTYPE svg PUBLIC "-//W3C//DTD SVG 1.1//EN" "http://www.w3.org/Graphics/SVG/1.1/DTD/svg11.dtd">
<svg version="1.1" id="Layer_1" xmlns="http://www.w3.org/2000/svg" xmlns:xlink="http://www.w3.org/1999/xlink" x="0px" y="0px"
	 width="48px" height="48px" viewBox="0 0 48 48" enable-background="new 0 0 48 48" xml:space="preserve">
<g>
	<g>
		<path d="M31.543,43.01H16.457c-0.964,0-1.748-0.785-1.748-1.748V6.738c0-0.963,0.784-1.748,1.748-1.748h15.086
			c0.964,0,1.748,0.785,1.748,1.748v34.523C33.291,42.225,32.507,43.01,31.543,43.01z M16.457,5.49
			c-0.688,0-1.248,0.559-1.248,1.248v34.523c0,0.689,0.56,1.248,1.248,1.248h15.086c0.688,0,1.248-0.559,1.248-1.248V6.738
			c0-0.689-0.56-1.248-1.248-1.248H16.457z"/>
	</g>
	<g>
		<path d="M32.781,36.154H15.219c-0.138,0-0.249-0.111-0.249-0.248c0-0.139,0.111-0.25,0.249-0.25h17.562
			c0.138,0,0.249,0.111,0.249,0.25C33.03,36.043,32.919,36.154,32.781,36.154z"/>
	</g>
	<g>
		<circle cx="24" cy="39.453" r="1.02"/>
	</g>
	<g>
		<path d="M29.812,20.166h-4.84c-0.139,0-0.25-0.111-0.25-0.25v-4.639c0-0.07,0.03-0.137,0.082-0.186
			c0.053-0.047,0.123-0.068,0.193-0.062c2.599,0.266,4.681,2.26,5.062,4.85c0.011,0.072-0.01,0.145-0.058,0.201
			C29.953,20.135,29.885,20.166,29.812,20.166z M25.221,19.666h4.294c-0.435-2.133-2.146-3.77-4.294-4.104V19.666z"/>
	</g>
	<g>
		<path d="M23.656,26.961c-3.153,0-5.718-2.564-5.718-5.717c0-2.973,2.23-5.42,5.188-5.691c0.072-0.006,0.14,0.016,0.191,0.064
			c0.052,0.047,0.082,0.113,0.082,0.184v5.707h5.697c0.07,0,0.138,0.029,0.186,0.082c0.047,0.051,0.07,0.121,0.063,0.191
			C29.071,24.734,26.625,26.961,23.656,26.961z M22.9,16.082c-2.562,0.367-4.463,2.541-4.463,5.162c0,2.877,2.341,5.219,5.219,5.219
			c2.616,0,4.789-1.898,5.16-4.455H23.15c-0.139,0-0.25-0.111-0.25-0.25V16.082z"/>
	</g>
</g>
</svg>
