<?xml version="1.0" encoding="utf-8"?>
<!-- Generator: Adobe Illustrator 16.0.0, SVG Export Plug-In . SVG Version: 6.00 Build 0)  -->
<!DOCTYPE svg PUBLIC "-//W3C//DTD SVG 1.1//EN" "http://www.w3.org/Graphics/SVG/1.1/DTD/svg11.dtd">
<svg version="1.1" id="Layer_1" xmlns="http://www.w3.org/2000/svg" xmlns:xlink="http://www.w3.org/1999/xlink" x="0px" y="0px"
	 width="48px" height="48px" viewBox="0 0 48 48" enable-background="new 0 0 48 48" xml:space="preserve">
<g>
	<g>
		<g>
			<path d="M39.362,33.436H8.627c-0.964,0-1.748-0.783-1.748-1.748V10.949c0-0.963,0.784-1.748,1.748-1.748h30.735
				c0.964,0,1.749,0.785,1.749,1.748v20.738C41.111,32.652,40.326,33.436,39.362,33.436z M8.627,9.701
				c-0.688,0-1.249,0.561-1.249,1.248v20.738c0,0.689,0.56,1.25,1.249,1.25h30.735c0.688,0,1.249-0.561,1.249-1.25V10.949
				c0-0.688-0.561-1.248-1.249-1.248H8.627z"/>
		</g>
		<g>
			<path d="M43.895,38.799c-0.003-0.002-0.006,0-0.01,0H4.105c-0.098,0-0.186-0.057-0.227-0.145
				c-0.041-0.088-0.027-0.193,0.036-0.268l2.952-3.496c0.047-0.057,0.117-0.088,0.19-0.088h33.876c0.074,0,0.144,0.031,0.191,0.088
				l2.917,3.455c0.063,0.045,0.104,0.119,0.104,0.203C44.145,38.686,44.033,38.799,43.895,38.799z M4.643,38.299h38.705l-2.53-2.998
				H7.173L4.643,38.299z"/>
		</g>
		<g>
			<path d="M40.861,30.807H7.129c-0.138,0-0.25-0.113-0.25-0.25c0-0.139,0.111-0.25,0.25-0.25h33.732c0.138,0,0.25,0.111,0.25,0.25
				C41.111,30.693,40.999,30.807,40.861,30.807z"/>
		</g>
	</g>
	<g>
		<g>
			<path d="M30.511,19.535h-5.427c-0.138,0-0.25-0.111-0.25-0.248v-5.201c0-0.07,0.03-0.139,0.083-0.186
				c0.053-0.047,0.124-0.068,0.193-0.062c2.9,0.295,5.224,2.521,5.649,5.412c0.01,0.072-0.011,0.145-0.058,0.199
				C30.652,19.504,30.584,19.535,30.511,19.535z M25.333,19.037h4.881c-0.48-2.434-2.433-4.301-4.881-4.668V19.037z"/>
		</g>
		<g>
			<path d="M23.609,27.154c-3.518,0-6.38-2.861-6.38-6.381c0-3.316,2.489-6.047,5.791-6.35c0.071-0.004,0.139,0.016,0.191,0.064
				c0.052,0.047,0.082,0.113,0.082,0.184V21.1h6.418c0.07,0,0.138,0.031,0.185,0.082c0.047,0.053,0.071,0.121,0.064,0.191
				C29.652,24.668,26.922,27.154,23.609,27.154z M22.792,14.951c-2.906,0.4-5.064,2.857-5.064,5.822
				c0,3.242,2.638,5.881,5.881,5.881c2.96,0,5.417-2.154,5.821-5.055h-6.388c-0.138,0-0.25-0.111-0.25-0.25V14.951z"/>
		</g>
	</g>
</g>
</svg>
