<?xml version="1.0" encoding="utf-8"?>
<!-- Generator: Adobe Illustrator 16.0.0, SVG Export Plug-In . SVG Version: 6.00 Build 0)  -->
<!DOCTYPE svg PUBLIC "-//W3C//DTD SVG 1.1//EN" "http://www.w3.org/Graphics/SVG/1.1/DTD/svg11.dtd">
<svg version="1.1" id="Layer_1" xmlns="http://www.w3.org/2000/svg" xmlns:xlink="http://www.w3.org/1999/xlink" x="0px" y="0px"
	 width="48px" height="48px" viewBox="0 0 48 48" enable-background="new 0 0 48 48" xml:space="preserve">
<g>
	<g>
		<path d="M36.421,43.758H11.578c-0.964,0-1.748-0.783-1.748-1.748V5.99c0-0.963,0.784-1.748,1.748-1.748h24.843
			c0.965,0,1.749,0.785,1.749,1.748v36.02C38.17,42.975,37.386,43.758,36.421,43.758z M11.578,4.742
			c-0.688,0-1.248,0.559-1.248,1.248v36.02c0,0.689,0.56,1.25,1.248,1.25h24.843c0.689,0,1.25-0.561,1.25-1.25V5.99
			c0-0.689-0.561-1.248-1.25-1.248H11.578z"/>
	</g>
	<g>
		<circle cx="24" cy="40.451" r="1.02"/>
	</g>
	<g>
		<path d="M37.708,36.988H10.293c-0.139,0-0.25-0.111-0.25-0.25c0-0.137,0.111-0.248,0.25-0.248h27.415
			c0.137,0,0.249,0.111,0.249,0.248C37.957,36.877,37.845,36.988,37.708,36.988z"/>
	</g>
	<g>
		<g>
			<path d="M29.79,29.041H18.209c-0.137,0-0.249-0.111-0.249-0.25v-11.58c0-0.139,0.112-0.25,0.249-0.25H29.79
				c0.138,0,0.25,0.111,0.25,0.25v11.58C30.04,28.93,29.928,29.041,29.79,29.041z M18.459,28.541h11.082v-11.08H18.459V28.541z"/>
		</g>
		<g>
			<g>
				<path d="M24,23.807c-0.928,0-1.684-0.756-1.684-1.684c0-0.93,0.756-1.686,1.684-1.686s1.684,0.756,1.684,1.686
					C25.684,23.051,24.928,23.807,24,23.807z M24,20.938c-0.653,0-1.185,0.531-1.185,1.186c0,0.652,0.531,1.184,1.185,1.184
					s1.185-0.531,1.185-1.184C25.185,21.469,24.653,20.938,24,20.938z"/>
			</g>
			<g>
				<path d="M24,25.564c-0.139,0-0.25-0.111-0.25-0.25v-1.828c0-0.137,0.111-0.248,0.25-0.248s0.25,0.111,0.25,0.248v1.828
					C24.25,25.453,24.139,25.564,24,25.564z"/>
			</g>
		</g>
		<g>
			<path d="M28.043,15.781c-0.139,0-0.25-0.111-0.25-0.25c0-2.09-1.701-3.791-3.793-3.791s-3.793,1.701-3.793,3.791
				c0,0.139-0.111,0.25-0.25,0.25c-0.138,0-0.25-0.111-0.25-0.25c0-2.365,1.926-4.291,4.293-4.291s4.292,1.926,4.292,4.291
				C28.292,15.67,28.181,15.781,28.043,15.781z"/>
		</g>
	</g>
</g>
</svg>
