<?xml version="1.0" encoding="utf-8"?>
<!-- Generator: Adobe Illustrator 16.0.0, SVG Export Plug-In . SVG Version: 6.00 Build 0)  -->
<!DOCTYPE svg PUBLIC "-//W3C//DTD SVG 1.1//EN" "http://www.w3.org/Graphics/SVG/1.1/DTD/svg11.dtd">
<svg version="1.1" id="Layer_1" xmlns="http://www.w3.org/2000/svg" xmlns:xlink="http://www.w3.org/1999/xlink" x="0px" y="0px"
	 width="48px" height="48px" viewBox="0 0 48 48" enable-background="new 0 0 48 48" xml:space="preserve">
<g>
	<g>
		<g>
			<path d="M39.367,33.748H8.633c-0.965,0-1.748-0.783-1.748-1.748V11.264c0-0.965,0.783-1.75,1.748-1.75h30.734
				c0.965,0,1.748,0.785,1.748,1.75V32C41.115,32.965,40.332,33.748,39.367,33.748z M8.633,10.014c-0.689,0-1.248,0.561-1.248,1.25
				V32c0,0.689,0.559,1.25,1.248,1.25h30.734c0.689,0,1.25-0.561,1.25-1.25V11.264c0-0.689-0.561-1.25-1.25-1.25H8.633z"/>
		</g>
		<g>
			<path d="M40.865,31.119H7.135c-0.139,0-0.25-0.113-0.25-0.25c0-0.139,0.111-0.25,0.25-0.25h33.73c0.139,0,0.25,0.111,0.25,0.25
				C41.115,31.006,41.004,31.119,40.865,31.119z"/>
		</g>
		<g>
			<g>
				<path d="M17.287,38.174c-0.053,0-0.107-0.018-0.152-0.053c-0.109-0.084-0.129-0.24-0.045-0.35l3.436-4.434
					c0.084-0.109,0.24-0.127,0.35-0.045c0.109,0.086,0.129,0.242,0.045,0.352l-3.434,4.434
					C17.436,38.141,17.363,38.174,17.287,38.174z"/>
			</g>
			<g>
				<path d="M30.713,38.174c-0.074,0-0.148-0.033-0.197-0.096l-3.436-4.434c-0.084-0.109-0.064-0.266,0.045-0.352
					c0.109-0.084,0.266-0.064,0.352,0.045l3.434,4.434c0.084,0.109,0.064,0.266-0.045,0.35
					C30.82,38.156,30.766,38.174,30.713,38.174z"/>
			</g>
		</g>
		<g>
			<path d="M33.365,38.486h-18.73c-0.139,0-0.25-0.111-0.25-0.25s0.111-0.25,0.25-0.25h18.73c0.139,0,0.25,0.111,0.25,0.25
				S33.504,38.486,33.365,38.486z"/>
		</g>
	</g>
	<g>
		<g>
			<g>
				<path d="M28.684,27.484h-9.367c-0.137,0-0.248-0.111-0.248-0.25v-9.365c0-0.137,0.111-0.25,0.248-0.25h9.367
					c0.137,0,0.25,0.113,0.25,0.25v9.365C28.934,27.373,28.82,27.484,28.684,27.484z M19.566,26.984h8.867v-8.865h-8.867V26.984z"/>
			</g>
			<g>
				<path d="M24,23.252c-0.777,0-1.41-0.633-1.41-1.41s0.633-1.41,1.41-1.41s1.41,0.633,1.41,1.41S24.777,23.252,24,23.252z
					 M24,20.932c-0.502,0-0.91,0.408-0.91,0.91s0.408,0.91,0.91,0.91s0.91-0.408,0.91-0.91S24.502,20.932,24,20.932z"/>
			</g>
			<g>
				<path d="M24,25.172c-0.139,0-0.25-0.111-0.25-0.25v-1.477c0-0.139,0.111-0.25,0.25-0.25s0.25,0.111,0.25,0.25v1.477
					C24.25,25.061,24.139,25.172,24,25.172z"/>
			</g>
		</g>
		<g>
			<path d="M26.998,16.342c-0.139,0-0.25-0.111-0.25-0.25c0-1.514-1.232-2.746-2.748-2.746s-2.748,1.232-2.748,2.746
				c0,0.139-0.111,0.25-0.25,0.25c-0.137,0-0.25-0.111-0.25-0.25c0-1.789,1.457-3.246,3.248-3.246s3.248,1.457,3.248,3.246
				C27.248,16.23,27.137,16.342,26.998,16.342z"/>
		</g>
	</g>
</g>
</svg>
