<?xml version="1.0" encoding="utf-8"?>
<!-- Generator: Adobe Illustrator 16.0.0, SVG Export Plug-In . SVG Version: 6.00 Build 0)  -->
<!DOCTYPE svg PUBLIC "-//W3C//DTD SVG 1.1//EN" "http://www.w3.org/Graphics/SVG/1.1/DTD/svg11.dtd">
<svg version="1.1" id="Layer_1" xmlns="http://www.w3.org/2000/svg" xmlns:xlink="http://www.w3.org/1999/xlink" x="0px" y="0px"
	 width="48px" height="48px" viewBox="0 0 48 48" enable-background="new 0 0 48 48" xml:space="preserve">
<g>
	<g>
		<g>
			<path d="M39.362,33.438H8.628c-0.964,0-1.748-0.785-1.748-1.75V10.951c0-0.965,0.784-1.748,1.748-1.748h30.734
				c0.965,0,1.748,0.783,1.748,1.748v20.736C41.11,32.652,40.327,33.438,39.362,33.438z M8.628,9.701
				c-0.689,0-1.249,0.561-1.249,1.25v20.736c0,0.689,0.56,1.25,1.249,1.25h30.734c0.689,0,1.249-0.561,1.249-1.25V10.951
				c0-0.689-0.56-1.25-1.249-1.25H8.628z"/>
		</g>
		<g>
			<path d="M43.896,38.799c-0.002,0-0.006,0-0.01,0H4.105c-0.097,0-0.186-0.057-0.227-0.145s-0.027-0.191,0.036-0.266l2.951-3.498
				c0.047-0.057,0.117-0.088,0.191-0.088h33.876c0.073,0,0.144,0.031,0.19,0.088l2.916,3.455c0.063,0.045,0.104,0.119,0.104,0.203
				C44.145,38.688,44.032,38.799,43.896,38.799z M4.643,38.299h38.705l-2.53-2.996H7.173L4.643,38.299z"/>
		</g>
		<g>
			<path d="M40.861,30.807H7.13c-0.139,0-0.25-0.111-0.25-0.25s0.111-0.25,0.25-0.25h33.731c0.138,0,0.249,0.111,0.249,0.25
				S40.999,30.807,40.861,30.807z"/>
		</g>
	</g>
	<g>
		<g>
			<g>
				<path d="M28.968,27.393h-9.945c-0.139,0-0.25-0.111-0.25-0.25v-9.945c0-0.137,0.111-0.25,0.25-0.25h9.945
					c0.139,0,0.25,0.113,0.25,0.25v9.945C29.218,27.281,29.106,27.393,28.968,27.393z M19.272,26.893h9.445v-9.445h-9.445V26.893z"
					/>
			</g>
			<g>
				<path d="M23.995,22.896c-0.816,0-1.481-0.664-1.481-1.48c0-0.818,0.665-1.482,1.481-1.482c0.817,0,1.481,0.664,1.481,1.482
					C25.477,22.232,24.812,22.896,23.995,22.896z M23.995,20.434c-0.541,0-0.982,0.441-0.982,0.982s0.441,0.98,0.982,0.98
					s0.982-0.439,0.982-0.98S24.536,20.434,23.995,20.434z"/>
			</g>
			<g>
				<path d="M23.995,24.906c-0.139,0-0.25-0.111-0.25-0.25v-1.568c0-0.139,0.111-0.25,0.25-0.25s0.25,0.111,0.25,0.25v1.568
					C24.245,24.795,24.134,24.906,23.995,24.906z"/>
			</g>
		</g>
		<g>
			<path d="M26.993,15.844c-0.139,0-0.25-0.113-0.25-0.25c0-1.516-1.232-2.748-2.748-2.748s-2.748,1.232-2.748,2.748
				c0,0.137-0.111,0.25-0.25,0.25c-0.138,0-0.249-0.113-0.249-0.25c0-1.791,1.456-3.248,3.247-3.248s3.248,1.457,3.248,3.248
				C27.243,15.73,27.131,15.844,26.993,15.844z"/>
		</g>
	</g>
</g>
</svg>
