<?xml version="1.0" encoding="utf-8"?>
<!-- Generator: Adobe Illustrator 16.0.0, SVG Export Plug-In . SVG Version: 6.00 Build 0)  -->
<!DOCTYPE svg PUBLIC "-//W3C//DTD SVG 1.1//EN" "http://www.w3.org/Graphics/SVG/1.1/DTD/svg11.dtd">
<svg version="1.1" id="Layer_1" xmlns="http://www.w3.org/2000/svg" xmlns:xlink="http://www.w3.org/1999/xlink" x="0px" y="0px"
	 width="48px" height="48px" viewBox="0 0 48 48" enable-background="new 0 0 48 48" xml:space="preserve">
<g>
	<g>
		<path d="M28.718,35.703H17.485c-1.515,0-2.748-1.232-2.748-2.746V19.139c0-1.515,1.233-2.748,2.748-2.748h11.232
			c1.514,0,2.747,1.233,2.747,2.748v13.818C31.465,34.471,30.231,35.703,28.718,35.703z M17.485,16.891
			c-1.24,0-2.248,1.008-2.248,2.248v13.818c0,1.238,1.008,2.248,2.248,2.248h11.232c1.239,0,2.247-1.01,2.247-2.248V19.139
			c0-1.24-1.008-2.248-2.247-2.248H17.485z"/>
	</g>
	<g>
		<path d="M33.013,24.104c-0.138,0-0.25-0.111-0.25-0.249v-3.126c0-0.139,0.112-0.25,0.25-0.25c0.139,0,0.25,0.111,0.25,0.25v3.126
			C33.263,23.993,33.151,24.104,33.013,24.104z"/>
	</g>
	<g>
		<path d="M28.216,15.049c-0.139,0-0.25-0.111-0.25-0.249v-3.478c0-0.414-0.336-0.75-0.75-0.75h-8.229
			c-0.413,0-0.749,0.336-0.749,0.75V14.8c0,0.138-0.111,0.249-0.25,0.249c-0.138,0-0.25-0.111-0.25-0.249v-3.478
			c0-0.689,0.561-1.249,1.249-1.249h8.229c0.689,0,1.249,0.56,1.249,1.249V14.8C28.465,14.938,28.354,15.049,28.216,15.049z"/>
	</g>
	<g>
		<path d="M27.216,42.021h-8.229c-0.688,0-1.249-0.559-1.249-1.248v-3.479c0-0.137,0.112-0.248,0.25-0.248
			c0.139,0,0.25,0.111,0.25,0.248v3.479c0,0.412,0.336,0.75,0.749,0.75h8.229c0.414,0,0.75-0.338,0.75-0.75v-3.479
			c0-0.137,0.111-0.248,0.25-0.248c0.138,0,0.249,0.111,0.249,0.248v3.479C28.465,41.463,27.905,42.021,27.216,42.021z"/>
	</g>
	<g>
		<g>
			<path d="M26.628,31.586h-7.053c-0.139,0-0.25-0.111-0.25-0.25v-7.053c0-0.138,0.111-0.25,0.25-0.25h7.053
				c0.138,0,0.249,0.112,0.249,0.25v7.053C26.877,31.475,26.766,31.586,26.628,31.586z M19.824,31.086h6.554v-6.553h-6.554V31.086z"
				/>
		</g>
		<g>
			<path d="M23.102,28.397c-0.619,0-1.123-0.504-1.123-1.123s0.504-1.123,1.123-1.123c0.618,0,1.122,0.504,1.122,1.123
				S23.72,28.397,23.102,28.397z M23.102,26.65c-0.345,0-0.624,0.28-0.624,0.624s0.279,0.624,0.624,0.624
				c0.344,0,0.623-0.28,0.623-0.624S23.445,26.65,23.102,26.65z"/>
		</g>
		<g>
			<path d="M23.102,29.469c-0.139,0-0.25-0.112-0.25-0.25v-0.613c0-0.138,0.111-0.25,0.25-0.25c0.138,0,0.249,0.112,0.249,0.25
				v0.613C23.351,29.356,23.239,29.469,23.102,29.469z"/>
		</g>
		<g>
			<path d="M25.1,23.007c-0.138,0-0.25-0.111-0.25-0.249c0-0.965-0.784-1.749-1.748-1.749c-0.965,0-1.749,0.784-1.749,1.749
				c0,0.138-0.112,0.249-0.25,0.249s-0.25-0.111-0.25-0.249c0-1.24,1.009-2.249,2.249-2.249c1.239,0,2.248,1.009,2.248,2.249
				C25.35,22.896,25.237,23.007,25.1,23.007z"/>
		</g>
	</g>
</g>
</svg>
