<?xml version="1.0" encoding="utf-8"?>
<!-- Generator: Adobe Illustrator 16.0.0, SVG Export Plug-In . SVG Version: 6.00 Build 0)  -->
<!DOCTYPE svg PUBLIC "-//W3C//DTD SVG 1.1//EN" "http://www.w3.org/Graphics/SVG/1.1/DTD/svg11.dtd">
<svg version="1.1" id="Layer_1" xmlns="http://www.w3.org/2000/svg" xmlns:xlink="http://www.w3.org/1999/xlink" x="0px" y="0px"
	 width="128px" height="128px" viewBox="0 0 128 128" enable-background="new 0 0 128 128" xml:space="preserve">
<g>
	<g>
		<g>
			<path d="M67.579,59.471c-0.284,0-0.566-0.12-0.764-0.354c-0.357-0.421-0.305-1.052,0.117-1.409l10.535-8.919
				c0.421-0.356,1.052-0.305,1.409,0.117c0.357,0.421,0.305,1.052-0.117,1.409l-10.535,8.919
				C68.037,59.393,67.807,59.471,67.579,59.471z"/>
		</g>
		<g>
			<path d="M64.041,62.491c-0.231,0-0.462-0.08-0.649-0.239l-3.539-3.021c-0.42-0.358-0.47-0.99-0.111-1.41
				c0.358-0.419,0.989-0.471,1.41-0.111l2.89,2.466l2.888-2.466c0.42-0.359,1.051-0.309,1.41,0.111
				c0.359,0.42,0.309,1.051-0.111,1.41l-3.537,3.021C64.503,62.411,64.272,62.491,64.041,62.491z"/>
		</g>
		<g>
			<path d="M60.501,59.471c-0.229,0-0.458-0.078-0.646-0.237l-10.535-8.919c-0.422-0.357-0.474-0.988-0.117-1.409
				c0.357-0.423,0.988-0.474,1.409-0.117l10.535,8.919c0.422,0.357,0.474,0.988,0.117,1.409
				C61.067,59.351,60.785,59.471,60.501,59.471z"/>
		</g>
		<g>
			<path d="M49.968,68.391c-0.284,0-0.566-0.12-0.764-0.354c-0.357-0.421-0.305-1.052,0.117-1.409l10.535-8.92
				c0.42-0.356,1.052-0.305,1.409,0.117c0.357,0.421,0.305,1.052-0.117,1.409l-10.535,8.92
				C50.426,68.313,50.196,68.391,49.968,68.391z"/>
		</g>
		<g>
			<path d="M78.113,68.391c-0.229,0-0.458-0.078-0.646-0.237l-10.535-8.92c-0.422-0.357-0.474-0.988-0.117-1.409
				c0.357-0.423,0.988-0.474,1.409-0.117l10.535,8.92c0.422,0.357,0.474,0.988,0.117,1.409
				C78.679,68.271,78.396,68.391,78.113,68.391z"/>
		</g>
	</g>
	<g>
		<path d="M78.113,68.391H49.967c-0.552,0-1-0.448-1-1V49.552c0-0.552,0.448-1,1-1h28.146c0.552,0,1,0.448,1,1v17.839
			C79.113,67.943,78.666,68.391,78.113,68.391z M50.967,66.391h26.146V50.552H50.967V66.391z"/>
	</g>
	<g>
		<path d="M83.702,113.192H44.38c-2.206,0-4-1.794-4-4V21.146c0-2.206,1.794-4,4-4h39.321c2.206,0,4,1.794,4,4v88.047
			C87.702,111.398,85.907,113.192,83.702,113.192z M44.38,19.146c-1.103,0-2,0.897-2,2v88.047c0,1.103,0.897,2,2,2h39.321
			c1.103,0,2-0.897,2-2V21.146c0-1.103-0.897-2-2-2H44.38z"/>
	</g>
	<g>
		<path d="M86.05,96.01H42.03c-0.552,0-1-0.448-1-1s0.448-1,1-1h44.02c0.552,0,1,0.448,1,1S86.602,96.01,86.05,96.01z"/>
	</g>
	<g>
		<path d="M66.595,103.902c0,1.41-1.146,2.556-2.554,2.556c-1.411,0-2.557-1.146-2.557-2.556c0-1.411,1.146-2.556,2.557-2.556
			C65.449,101.347,66.595,102.491,66.595,103.902z"/>
	</g>
</g>
</svg>
