<?xml version="1.0" encoding="utf-8"?>
<!-- Generator: Adobe Illustrator 16.0.0, SVG Export Plug-In . SVG Version: 6.00 Build 0)  -->
<!DOCTYPE svg PUBLIC "-//W3C//DTD SVG 1.1//EN" "http://www.w3.org/Graphics/SVG/1.1/DTD/svg11.dtd">
<svg version="1.1" id="Layer_1" xmlns="http://www.w3.org/2000/svg" xmlns:xlink="http://www.w3.org/1999/xlink" x="0px" y="0px"
	 width="128px" height="128px" viewBox="0 0 128 128" enable-background="new 0 0 128 128" xml:space="preserve">
<g>
	<g>
		<g>
			<g>
				<path d="M64.762,66.169c-0.284,0-0.566-0.12-0.764-0.354c-0.357-0.421-0.305-1.052,0.117-1.409l8.856-7.497
					c0.422-0.356,1.053-0.305,1.409,0.117c0.357,0.421,0.305,1.052-0.117,1.409l-8.856,7.497
					C65.22,66.091,64.991,66.169,64.762,66.169z"/>
			</g>
			<g>
				<path d="M61.786,68.707c-0.231,0-0.462-0.08-0.649-0.239l-2.974-2.538c-0.42-0.359-0.47-0.99-0.111-1.41
					c0.357-0.42,0.989-0.47,1.41-0.111l2.324,1.984l2.327-1.984c0.42-0.359,1.052-0.309,1.41,0.112
					c0.358,0.42,0.309,1.051-0.112,1.41l-2.976,2.538C62.248,68.627,62.017,68.707,61.786,68.707z"/>
			</g>
			<g>
				<path d="M58.812,66.169c-0.229,0-0.458-0.078-0.646-0.237l-8.854-7.497c-0.422-0.357-0.474-0.988-0.117-1.409
					c0.357-0.423,0.988-0.474,1.409-0.117l8.854,7.497c0.422,0.357,0.474,0.988,0.117,1.409
					C59.378,66.049,59.096,66.169,58.812,66.169z"/>
			</g>
			<g>
				<path d="M49.958,73.663c-0.284,0-0.566-0.12-0.764-0.354c-0.357-0.421-0.304-1.053,0.117-1.409l8.854-7.494
					c0.422-0.357,1.053-0.304,1.409,0.117c0.357,0.421,0.304,1.053-0.117,1.409l-8.854,7.494
					C50.416,73.585,50.187,73.663,49.958,73.663z"/>
			</g>
			<g>
				<path d="M73.618,73.663c-0.228,0-0.458-0.078-0.646-0.237l-8.856-7.494c-0.421-0.356-0.474-0.987-0.117-1.409
					s0.987-0.475,1.409-0.117l8.856,7.494c0.421,0.356,0.474,0.987,0.117,1.409C74.184,73.543,73.902,73.663,73.618,73.663z"/>
			</g>
		</g>
		<g>
			<path d="M73.618,73.663h-23.66c-0.552,0-1-0.448-1-1V57.672c0-0.552,0.448-1,1-1h23.66c0.552,0,1,0.448,1,1v14.991
				C74.618,73.215,74.17,73.663,73.618,73.663z M50.958,71.663h21.66V58.672h-21.66V71.663z"/>
		</g>
	</g>
	<g>
		<path d="M77.125,89.749H46.451c-3.309,0-6-2.691-6-6V46.591c0-3.309,2.691-6,6-6h30.674c3.309,0,6,2.691,6,6v37.158
			C83.125,87.058,80.434,89.749,77.125,89.749z M46.451,42.591c-2.206,0-4,1.794-4,4v37.158c0,2.206,1.794,4,4,4h30.674
			c2.206,0,4-1.794,4-4V46.591c0-2.206-1.794-4-4-4H46.451z"/>
	</g>
	<g>
		<path d="M86.631,60.672c-0.552,0-1-0.448-1-1v-7.834c0-0.552,0.448-1,1-1s1,0.448,1,1v7.834
			C87.631,60.224,87.183,60.672,86.631,60.672z"/>
	</g>
	<g>
		<path d="M74.606,37.972c-0.552,0-1-0.448-1-1v-9.219c0-0.551-0.449-1-1-1H50.97c-0.551,0-1,0.449-1,1v9.219c0,0.552-0.448,1-1,1
			s-1-0.448-1-1v-9.219c0-1.654,1.346-3,3-3h21.637c1.654,0,3,1.346,3,3v9.219C75.606,37.524,75.159,37.972,74.606,37.972z"/>
	</g>
	<g>
		<path d="M72.606,105.584H50.97c-1.654,0-3-1.346-3-3v-9.221c0-0.552,0.448-1,1-1s1,0.448,1,1v9.221c0,0.551,0.449,1,1,1h21.637
			c0.551,0,1-0.449,1-1v-9.221c0-0.552,0.448-1,1-1s1,0.448,1,1v9.221C75.606,104.238,74.261,105.584,72.606,105.584z"/>
	</g>
</g>
</svg>
