<?xml version="1.0" encoding="utf-8"?>
<!-- Generator: Adobe Illustrator 16.0.0, SVG Export Plug-In . SVG Version: 6.00 Build 0)  -->
<!DOCTYPE svg PUBLIC "-//W3C//DTD SVG 1.1//EN" "http://www.w3.org/Graphics/SVG/1.1/DTD/svg11.dtd">
<svg version="1.1" id="Layer_1" xmlns="http://www.w3.org/2000/svg" xmlns:xlink="http://www.w3.org/1999/xlink" x="0px" y="0px"
	 width="128px" height="128px" viewBox="0 0 128 128" enable-background="new 0 0 128 128" xml:space="preserve">
<g>
	<g>
		<g>
			<g>
				<path d="M69.373,59.471c-0.284,0-0.566-0.12-0.764-0.354c-0.357-0.421-0.305-1.052,0.117-1.409l15.865-13.432
					c0.42-0.356,1.052-0.305,1.409,0.117c0.357,0.421,0.305,1.052-0.117,1.409L70.018,59.234
					C69.831,59.393,69.601,59.471,69.373,59.471z"/>
			</g>
			<g>
				<path d="M64.043,64.018c-0.231,0-0.462-0.08-0.649-0.239l-5.331-4.547c-0.42-0.358-0.47-0.989-0.112-1.41
					c0.357-0.421,0.989-0.471,1.41-0.112l4.682,3.993l4.68-3.993c0.419-0.359,1.05-0.309,1.41,0.112
					c0.358,0.42,0.309,1.051-0.112,1.41l-5.329,4.547C64.505,63.938,64.274,64.018,64.043,64.018z"/>
			</g>
			<g>
				<path d="M58.711,59.471c-0.229,0-0.458-0.078-0.646-0.237L42.201,45.802c-0.422-0.357-0.474-0.988-0.117-1.409
					c0.356-0.423,0.988-0.475,1.409-0.117l15.865,13.432c0.422,0.357,0.474,0.988,0.117,1.409
					C59.277,59.351,58.995,59.471,58.711,59.471z"/>
			</g>
			<g>
				<path d="M42.847,72.9c-0.284,0-0.566-0.12-0.764-0.354c-0.357-0.421-0.304-1.052,0.117-1.409l15.865-13.43
					c0.422-0.356,1.053-0.304,1.409,0.117c0.357,0.421,0.304,1.052-0.117,1.409l-15.865,13.43
					C43.305,72.823,43.075,72.9,42.847,72.9z"/>
			</g>
			<g>
				<path d="M85.237,72.9c-0.229,0-0.458-0.078-0.646-0.237l-15.865-13.43c-0.421-0.357-0.474-0.988-0.117-1.409
					c0.356-0.423,0.987-0.474,1.409-0.117l15.865,13.43c0.421,0.357,0.474,0.988,0.117,1.409C85.803,72.78,85.521,72.9,85.237,72.9z
					"/>
			</g>
		</g>
		<g>
			<path d="M85.237,72.9H42.847c-0.552,0-1-0.448-1-1V45.039c0-0.552,0.448-1,1-1h42.391c0.552,0,1,0.448,1,1V71.9
				C86.237,72.453,85.79,72.9,85.237,72.9z M43.847,70.9h40.391V46.039H43.847V70.9z"/>
		</g>
	</g>
	<g>
		<path d="M95.932,115.068H32.15c-2.206,0-4-1.794-4-4V19.27c0-2.206,1.794-4,4-4h63.781c2.206,0,4,1.794,4,4v91.799
			C99.932,113.274,98.137,115.068,95.932,115.068z M32.15,17.27c-1.103,0-2,0.897-2,2v91.799c0,1.103,0.897,2,2,2h63.781
			c1.103,0,2-0.897,2-2V19.27c0-1.103-0.897-2-2-2H32.15z"/>
	</g>
	<g>
		<path d="M66.596,106.404c0,1.412-1.144,2.554-2.557,2.554c-1.407,0-2.553-1.142-2.553-2.554c0-1.407,1.146-2.554,2.553-2.554
			C65.452,103.851,66.596,104.997,66.596,106.404z"/>
	</g>
	<g>
		<path d="M98.401,98.098H29.681c-0.552,0-1-0.448-1-1s0.448-1,1-1h68.721c0.552,0,1,0.448,1,1S98.954,98.098,98.401,98.098z"/>
	</g>
</g>
</svg>
