<?xml version="1.0" encoding="utf-8"?>
<!-- Generator: Adobe Illustrator 16.0.0, SVG Export Plug-In . SVG Version: 6.00 Build 0)  -->
<!DOCTYPE svg PUBLIC "-//W3C//DTD SVG 1.1//EN" "http://www.w3.org/Graphics/SVG/1.1/DTD/svg11.dtd">
<svg version="1.1" id="Layer_1" xmlns="http://www.w3.org/2000/svg" xmlns:xlink="http://www.w3.org/1999/xlink" x="0px" y="0px"
	 width="32px" height="32px" viewBox="0 0 32 32" enable-background="new 0 0 32 32" xml:space="preserve">
<g>
	<g>
		<g>
			<g>
				<path d="M24.984,30.312H6.817c-0.705,0-1.279-0.574-1.279-1.279V2.691c0-0.705,0.574-1.278,1.279-1.278h18.167
					c0.705,0,1.279,0.573,1.279,1.278v26.342C26.263,29.737,25.689,30.312,24.984,30.312z M6.817,1.778
					c-0.504,0-0.914,0.41-0.914,0.913v26.342c0,0.504,0.409,0.913,0.914,0.913h18.167c0.503,0,0.914-0.409,0.914-0.913V2.691
					c0-0.503-0.41-0.913-0.914-0.913H6.817z"/>
			</g>
		</g>
		<g>
			<g>
				<circle cx="15.901" cy="27.893" r="0.746"/>
			</g>
		</g>
		<g>
			<g>
				<path d="M25.925,25.36H5.876c-0.101,0-0.183-0.082-0.183-0.182c0-0.101,0.082-0.183,0.183-0.183h20.049
					c0.101,0,0.182,0.082,0.182,0.183C26.107,25.279,26.026,25.36,25.925,25.36z"/>
			</g>
		</g>
		<g>
			<g>
				<path d="M12.62,20.194c-0.023,0-0.047-0.005-0.07-0.014c-0.068-0.029-0.112-0.095-0.112-0.169v-2.466H9.722
					c-0.102,0-0.183-0.082-0.183-0.183V8.822c0-0.102,0.081-0.183,0.183-0.183H22.08c0.102,0,0.183,0.082,0.183,0.183v8.541
					c0,0.101-0.082,0.183-0.183,0.183h-6.736l-2.595,2.595C12.714,20.176,12.668,20.194,12.62,20.194z M9.904,17.181h2.716
					c0.102,0,0.182,0.081,0.182,0.182v2.208l2.337-2.337c0.034-0.034,0.08-0.053,0.129-0.053h6.629V9.004H9.904V17.181z"/>
			</g>
		</g>
		<g>
			<g>
				<g>
					<circle cx="13.709" cy="13.269" r="0.584"/>
				</g>
			</g>
			<g>
				<g>
					<circle cx="15.901" cy="13.269" r="0.584"/>
				</g>
			</g>
			<g>
				<g>
					<circle cx="18.092" cy="13.269" r="0.584"/>
				</g>
			</g>
		</g>
	</g>
</g>
</svg>
