<?xml version="1.0" encoding="utf-8"?>
<!-- Generator: Adobe Illustrator 16.0.0, SVG Export Plug-In . SVG Version: 6.00 Build 0)  -->
<!DOCTYPE svg PUBLIC "-//W3C//DTD SVG 1.1//EN" "http://www.w3.org/Graphics/SVG/1.1/DTD/svg11.dtd">
<svg version="1.1" id="Layer_1" xmlns="http://www.w3.org/2000/svg" xmlns:xlink="http://www.w3.org/1999/xlink" x="0px" y="0px"
	 width="32px" height="32px" viewBox="0 0 32 32" enable-background="new 0 0 32 32" xml:space="preserve">
<g>
	<g>
		<g>
			<g>
				<g>
					<path d="M19.496,22.924h-8.214c-1.107,0-2.009-0.901-2.009-2.009V10.809c0-1.107,0.901-2.009,2.009-2.009h8.214
						c1.107,0,2.009,0.902,2.009,2.009v10.106C21.504,22.022,20.603,22.924,19.496,22.924z M11.281,9.165
						c-0.907,0-1.644,0.737-1.644,1.644v10.106c0,0.906,0.737,1.644,1.644,1.644h8.214c0.906,0,1.644-0.738,1.644-1.644V10.809
						c0-0.906-0.738-1.644-1.644-1.644H11.281z"/>
				</g>
			</g>
			<g>
				<g>
					<path d="M22.637,14.441c-0.101,0-0.183-0.082-0.183-0.183v-2.286c0-0.101,0.082-0.183,0.183-0.183s0.183,0.082,0.183,0.183
						v2.286C22.819,14.359,22.738,14.441,22.637,14.441z"/>
				</g>
			</g>
			<g>
				<g>
					<path d="M19.128,7.819c-0.101,0-0.182-0.083-0.182-0.183V5.092c0-0.301-0.247-0.548-0.549-0.548h-6.018
						c-0.302,0-0.548,0.247-0.548,0.548v2.544c0,0.1-0.082,0.183-0.183,0.183c-0.101,0-0.183-0.083-0.183-0.183V5.092
						c0-0.503,0.409-0.913,0.913-0.913h6.018c0.504,0,0.914,0.41,0.914,0.913v2.544C19.312,7.736,19.229,7.819,19.128,7.819z"/>
				</g>
			</g>
			<g>
				<g>
					<path d="M18.397,27.545h-6.018c-0.504,0-0.913-0.41-0.913-0.914v-2.543c0-0.101,0.082-0.183,0.183-0.183
						c0.101,0,0.183,0.083,0.183,0.183v2.543c0,0.302,0.246,0.548,0.548,0.548h6.018c0.302,0,0.549-0.246,0.549-0.548v-2.543
						c0-0.101,0.082-0.183,0.182-0.183s0.183,0.083,0.183,0.183v2.543C19.312,27.135,18.901,27.545,18.397,27.545z"/>
				</g>
			</g>
		</g>
		<g>
			<g>
				<path d="M13.627,19.048c-0.023,0-0.046-0.005-0.07-0.014c-0.068-0.028-0.113-0.095-0.113-0.169v-1.239h-1.374
					c-0.101,0-0.182-0.082-0.182-0.182v-4.585c0-0.101,0.081-0.183,0.182-0.183h6.636c0.1,0,0.182,0.082,0.182,0.183v4.585
					c0,0.101-0.082,0.182-0.182,0.182h-3.582l-1.368,1.369C13.721,19.03,13.674,19.048,13.627,19.048z M12.253,17.26h1.374
					c0.101,0,0.183,0.083,0.183,0.184v0.98l1.11-1.11c0.034-0.035,0.08-0.054,0.129-0.054h3.474v-4.219h-6.27V17.26z"/>
			</g>
			<g>
				<g>
					<circle cx="14.212" cy="15.245" r="0.313"/>
				</g>
				<g>
					<circle cx="15.389" cy="15.245" r="0.313"/>
				</g>
				<g>
					<circle cx="16.565" cy="15.245" r="0.314"/>
				</g>
			</g>
		</g>
	</g>
</g>
</svg>
