<?xml version="1.0" encoding="utf-8"?>
<!-- Generator: Adobe Illustrator 16.0.0, SVG Export Plug-In . SVG Version: 6.00 Build 0)  -->
<!DOCTYPE svg PUBLIC "-//W3C//DTD SVG 1.1//EN" "http://www.w3.org/Graphics/SVG/1.1/DTD/svg11.dtd">
<svg version="1.1" id="Layer_1" xmlns="http://www.w3.org/2000/svg" xmlns:xlink="http://www.w3.org/1999/xlink" x="0px" y="0px"
	 width="32px" height="32px" viewBox="0 0 32 32" enable-background="new 0 0 32 32" xml:space="preserve">
<g>
	<g>
		<g>
			<g>
				<path d="M21.452,29.764H10.421c-0.705,0-1.278-0.573-1.278-1.279V3.238c0-0.705,0.574-1.278,1.278-1.278h11.031
					c0.706,0,1.279,0.573,1.279,1.278v25.247C22.731,29.19,22.158,29.764,21.452,29.764z M10.421,2.325
					c-0.504,0-0.913,0.41-0.913,0.914v25.247c0,0.503,0.409,0.914,0.913,0.914h11.031c0.504,0,0.914-0.411,0.914-0.914V3.238
					c0-0.503-0.41-0.914-0.914-0.914H10.421z"/>
			</g>
		</g>
		<g>
			<g>
				<path d="M22.358,24.751H9.516c-0.101,0-0.183-0.083-0.183-0.183c0-0.101,0.082-0.183,0.183-0.183h12.843
					c0.101,0,0.183,0.082,0.183,0.183C22.542,24.669,22.459,24.751,22.358,24.751z"/>
			</g>
		</g>
		<g>
			<g>
				<circle cx="15.937" cy="27.162" r="0.745"/>
			</g>
		</g>
		<g>
			<g>
				<path d="M13.729,18.366c-0.024,0-0.047-0.005-0.07-0.014c-0.068-0.028-0.113-0.095-0.113-0.169v-1.6h-1.769
					c-0.101,0-0.183-0.082-0.183-0.183v-5.75c0-0.101,0.082-0.182,0.183-0.182h8.32c0.101,0,0.182,0.081,0.182,0.182v5.75
					c0,0.101-0.082,0.183-0.182,0.183h-4.509l-1.73,1.729C13.823,18.347,13.776,18.366,13.729,18.366z M11.96,16.217h1.769
					c0.101,0,0.182,0.082,0.182,0.183v1.342l1.471-1.471c0.034-0.034,0.081-0.053,0.129-0.053h4.402v-5.384H11.96V16.217z"/>
			</g>
		</g>
		<g>
			<g>
				<g>
					<circle cx="14.462" cy="13.644" r="0.393"/>
				</g>
			</g>
			<g>
				<g>
					<circle cx="15.937" cy="13.644" r="0.393"/>
				</g>
			</g>
			<g>
				<g>
					<circle cx="17.412" cy="13.644" r="0.393"/>
				</g>
			</g>
		</g>
	</g>
</g>
</svg>
