<?xml version="1.0" encoding="utf-8"?>
<!-- Generator: Adobe Illustrator 16.0.0, SVG Export Plug-In . SVG Version: 6.00 Build 0)  -->
<!DOCTYPE svg PUBLIC "-//W3C//DTD SVG 1.1//EN" "http://www.w3.org/Graphics/SVG/1.1/DTD/svg11.dtd">
<svg version="1.1" id="Layer_1" xmlns="http://www.w3.org/2000/svg" xmlns:xlink="http://www.w3.org/1999/xlink" x="0px" y="0px"
	 width="32px" height="32px" viewBox="0 0 32 32" enable-background="new 0 0 32 32" xml:space="preserve">
<g>
	<g>
		<g>
			<g>
				<g>
					<path d="M27.208,22.763H4.731c-0.705,0-1.278-0.574-1.278-1.279V6.318c0-0.705,0.573-1.278,1.278-1.278h22.476
						c0.705,0,1.279,0.574,1.279,1.278v15.166C28.486,22.188,27.913,22.763,27.208,22.763z M4.731,5.405
						c-0.504,0-0.914,0.41-0.914,0.913v15.166c0,0.503,0.41,0.913,0.914,0.913h22.476c0.504,0,0.914-0.41,0.914-0.913V6.318
						c0-0.502-0.41-0.913-0.914-0.913H4.731z"/>
				</g>
			</g>
			<g>
				<g>
					<path d="M30.522,26.684c-0.002,0-0.005,0-0.007,0H1.424c-0.071,0-0.136-0.041-0.167-0.106c-0.029-0.064-0.019-0.14,0.027-0.195
						l2.159-2.557c0.035-0.041,0.086-0.064,0.14-0.064h24.773c0.054,0,0.105,0.023,0.14,0.064l2.132,2.526
						c0.046,0.034,0.077,0.088,0.077,0.149C30.706,26.602,30.623,26.684,30.522,26.684z M1.817,26.318h28.305l-1.851-2.192H3.667
						L1.817,26.318z"/>
				</g>
			</g>
			<g>
				<g>
					<path d="M28.303,20.839H3.635c-0.101,0-0.182-0.082-0.182-0.182c0-0.101,0.081-0.183,0.182-0.183h24.668
						c0.101,0,0.183,0.082,0.183,0.183C28.486,20.757,28.404,20.839,28.303,20.839z"/>
				</g>
			</g>
		</g>
		<g>
			<g>
				<path d="M13.306,18.411c-0.024,0-0.048-0.004-0.07-0.014c-0.069-0.028-0.112-0.095-0.112-0.169v-1.967h-2.172
					c-0.101,0-0.182-0.082-0.182-0.182V9.144c0-0.101,0.082-0.182,0.182-0.182h10.035c0.101,0,0.183,0.082,0.183,0.182v6.935
					c0,0.101-0.082,0.182-0.183,0.182h-5.455l-2.097,2.097C13.4,18.393,13.353,18.411,13.306,18.411z M11.135,15.896h2.171
					c0.101,0,0.183,0.082,0.183,0.183v1.709l1.838-1.839c0.035-0.034,0.082-0.053,0.129-0.053h5.349v-6.57h-9.669V15.896z"/>
			</g>
			<g>
				<g>
					<circle cx="14.19" cy="12.754" r="0.475"/>
				</g>
				<g>
					<circle cx="15.969" cy="12.754" r="0.475"/>
				</g>
				<g>
					<circle cx="17.749" cy="12.754" r="0.474"/>
				</g>
			</g>
		</g>
	</g>
</g>
</svg>
