<?xml version="1.0" encoding="utf-8"?>
<!-- Generator: Adobe Illustrator 16.0.0, SVG Export Plug-In . SVG Version: 6.00 Build 0)  -->
<!DOCTYPE svg PUBLIC "-//W3C//DTD SVG 1.1//EN" "http://www.w3.org/Graphics/SVG/1.1/DTD/svg11.dtd">
<svg version="1.1" id="Layer_1" xmlns="http://www.w3.org/2000/svg" xmlns:xlink="http://www.w3.org/1999/xlink" x="0px" y="0px"
	 width="32px" height="32px" viewBox="0 0 32 32" enable-background="new 0 0 32 32" xml:space="preserve">
<g>
	<g>
		<g>
			<g>
				<g>
					<path d="M27.248,22.99H4.771c-0.706,0-1.278-0.573-1.278-1.278V6.546c0-0.705,0.573-1.278,1.278-1.278h22.476
						c0.706,0,1.279,0.574,1.279,1.278v15.166C28.526,22.417,27.953,22.99,27.248,22.99z M4.771,5.633
						c-0.504,0-0.914,0.41-0.914,0.913v15.166c0,0.503,0.41,0.913,0.914,0.913h22.476c0.504,0,0.914-0.41,0.914-0.913V6.546
						c0-0.503-0.409-0.913-0.914-0.913H4.771z"/>
				</g>
			</g>
			<g>
				<g>
					<path d="M28.344,21.067H3.676c-0.102,0-0.183-0.082-0.183-0.183c0-0.102,0.081-0.183,0.183-0.183h24.668
						c0.102,0,0.183,0.082,0.183,0.183C28.526,20.986,28.445,21.067,28.344,21.067z"/>
				</g>
			</g>
			<g>
				<g>
					<g>
						<path d="M11.101,26.228c-0.039,0-0.078-0.013-0.111-0.039c-0.081-0.062-0.094-0.177-0.033-0.256l2.511-3.243
							c0.062-0.079,0.176-0.094,0.257-0.033c0.079,0.062,0.094,0.177,0.032,0.256l-2.511,3.242
							C11.21,26.203,11.156,26.228,11.101,26.228z"/>
					</g>
				</g>
				<g>
					<g>
						<path d="M20.918,26.228c-0.055,0-0.109-0.025-0.146-0.071l-2.511-3.242c-0.062-0.08-0.047-0.194,0.033-0.256
							c0.08-0.061,0.195-0.046,0.256,0.033l2.511,3.243c0.062,0.079,0.048,0.194-0.033,0.256
							C20.997,26.215,20.958,26.228,20.918,26.228z"/>
					</g>
				</g>
			</g>
			<g>
				<g>
					<path d="M22.859,26.456H9.16c-0.1,0-0.183-0.082-0.183-0.183S9.06,26.09,9.16,26.09h13.699c0.101,0,0.184,0.082,0.184,0.183
						S22.959,26.456,22.859,26.456z"/>
				</g>
			</g>
		</g>
		<g>
			<g>
				<path d="M13.306,18.479c-0.023,0-0.047-0.004-0.07-0.014c-0.068-0.028-0.112-0.095-0.112-0.169v-2h-2.207
					c-0.101,0-0.182-0.082-0.182-0.182v-7.04c0-0.101,0.081-0.182,0.182-0.182h10.187c0.101,0,0.182,0.082,0.182,0.182v7.04
					c0,0.101-0.082,0.182-0.182,0.182h-5.539l-2.129,2.129C13.4,18.461,13.353,18.479,13.306,18.479z M11.1,15.931h2.206
					c0.101,0,0.183,0.083,0.183,0.183v1.742l1.872-1.871c0.034-0.034,0.08-0.054,0.129-0.054h5.431V9.257H11.1V15.931z"/>
			</g>
			<g>
				<g>
					<circle cx="14.203" cy="12.74" r="0.481"/>
				</g>
				<g>
					<circle cx="16.01" cy="12.74" r="0.481"/>
				</g>
				<g>
					<circle cx="17.816" cy="12.74" r="0.481"/>
				</g>
			</g>
		</g>
	</g>
</g>
</svg>
