<?xml version="1.0" encoding="utf-8"?>
<!-- Generator: Adobe Illustrator 16.0.0, SVG Export Plug-In . SVG Version: 6.00 Build 0)  -->
<!DOCTYPE svg PUBLIC "-//W3C//DTD SVG 1.1//EN" "http://www.w3.org/Graphics/SVG/1.1/DTD/svg11.dtd">
<svg version="1.1" id="Layer_1" xmlns="http://www.w3.org/2000/svg" xmlns:xlink="http://www.w3.org/1999/xlink" x="0px" y="0px"
	 width="128px" height="128px" viewBox="0 0 128 128" enable-background="new 0 0 128 128" xml:space="preserve">
<g>
	<g>
		
			<rect x="50.062" y="67.913" fill="none" stroke="#000000" stroke-width="2" stroke-linecap="round" stroke-linejoin="round" stroke-miterlimit="10" width="27.875" height="3.351"/>
		
			<rect x="51.148" y="53.425" fill="none" stroke="#000000" stroke-width="2" stroke-linecap="round" stroke-linejoin="round" stroke-miterlimit="10" width="3.354" height="10.104"/>
		
			<rect x="73.497" y="53.425" fill="none" stroke="#000000" stroke-width="2" stroke-linecap="round" stroke-linejoin="round" stroke-miterlimit="10" width="3.355" height="10.104"/>
		
			<rect x="58.601" y="53.425" fill="none" stroke="#000000" stroke-width="2" stroke-linecap="round" stroke-linejoin="round" stroke-miterlimit="10" width="3.353" height="10.104"/>
		
			<rect x="66.049" y="53.425" fill="none" stroke="#000000" stroke-width="2" stroke-linecap="round" stroke-linejoin="round" stroke-miterlimit="10" width="3.355" height="10.104"/>
		
			<polygon fill="none" stroke="#000000" stroke-width="2" stroke-linecap="round" stroke-linejoin="round" stroke-miterlimit="10" points="
			77.951,49.059 50.051,49.059 50.051,46.056 64,38.575 77.951,46.056 		"/>
	</g>
	<g>
		<g>
			<path d="M99.633,86.042H28.367c-2.206,0-4-1.794-4-4V33.674c0-2.206,1.794-4,4-4h71.266c2.206,0,4,1.794,4,4v48.367
				C103.633,84.247,101.838,86.042,99.633,86.042z M28.367,31.674c-1.103,0-2,0.897-2,2v48.367c0,1.103,0.897,2,2,2h71.266
				c1.103,0,2-0.897,2-2V33.674c0-1.103-0.897-2-2-2H28.367z"/>
		</g>
		<g>
			<path d="M109.581,98.323c-0.006,0-0.013,0-0.02,0H18.439c-0.389,0-0.743-0.226-0.907-0.579c-0.164-0.353-0.108-0.77,0.143-1.066
				l6.762-8.006c0.19-0.225,0.47-0.355,0.764-0.355h77.6c0.294,0,0.574,0.13,0.764,0.355l6.656,7.882
				c0.22,0.184,0.36,0.459,0.36,0.769C110.581,97.875,110.133,98.323,109.581,98.323z M20.593,96.323h86.814l-5.071-6.006H25.666
				L20.593,96.323z"/>
		</g>
		<g>
			<path d="M102.633,80.019H25.367c-0.552,0-1-0.448-1-1s0.448-1,1-1h77.266c0.552,0,1,0.448,1,1S103.185,80.019,102.633,80.019z"/>
		</g>
	</g>
</g>
</svg>
