<?xml version="1.0" encoding="utf-8"?>
<!-- Generator: Adobe Illustrator 16.0.0, SVG Export Plug-In . SVG Version: 6.00 Build 0)  -->
<!DOCTYPE svg PUBLIC "-//W3C//DTD SVG 1.1//EN" "http://www.w3.org/Graphics/SVG/1.1/DTD/svg11.dtd">
<svg version="1.1" id="Layer_1" xmlns="http://www.w3.org/2000/svg" xmlns:xlink="http://www.w3.org/1999/xlink" x="0px" y="0px"
	 width="128px" height="128px" viewBox="0 0 128 128" enable-background="new 0 0 128 128" xml:space="preserve">
<g>
	<g>
		<path d="M81.946,76.64H46.054c-0.552,0-1-0.448-1-1v-4.318c0-0.552,0.448-1,1-1h35.892c0.552,0,1,0.448,1,1v4.318
			C82.946,76.192,82.498,76.64,81.946,76.64z M47.054,74.64h33.892v-2.318H47.054V74.64z"/>
	</g>
	<g>
		<g>
			<path d="M54.717,68.155h-4.319c-0.552,0-1-0.448-1-1V54.142c0-0.552,0.448-1,1-1h4.319c0.552,0,1,0.448,1,1v13.013
				C55.717,67.707,55.269,68.155,54.717,68.155z M51.398,66.155h2.319V55.142h-2.319V66.155z"/>
		</g>
		<g>
			<path d="M77.599,68.155h-4.318c-0.552,0-1-0.448-1-1V54.142c0-0.552,0.448-1,1-1h4.318c0.552,0,1,0.448,1,1v13.013
				C78.599,67.707,78.151,68.155,77.599,68.155z M74.281,66.155h2.318V55.142h-2.318V66.155z"/>
		</g>
		<g>
			<path d="M62.348,68.155h-4.322c-0.552,0-1-0.448-1-1V54.142c0-0.552,0.448-1,1-1h4.322c0.552,0,1,0.448,1,1v13.013
				C63.348,67.707,62.9,68.155,62.348,68.155z M59.025,66.155h2.322V55.142h-2.322V66.155z"/>
		</g>
		<g>
			<path d="M69.975,68.155h-4.32c-0.552,0-1-0.448-1-1V54.142c0-0.552,0.448-1,1-1h4.32c0.552,0,1,0.448,1,1v13.013
				C70.975,67.707,70.527,68.155,69.975,68.155z M66.654,66.155h2.32V55.142h-2.32V66.155z"/>
		</g>
	</g>
	<g>
		<path d="M81.966,50.989H46.034c-0.552,0-1-0.448-1-1v-3.868c0-0.369,0.203-0.707,0.527-0.881l17.966-9.636
			c0.295-0.158,0.65-0.158,0.945,0l17.966,9.636c0.325,0.174,0.527,0.513,0.527,0.881v3.868
			C82.966,50.542,82.518,50.989,81.966,50.989z M47.034,48.989h33.932V46.72L64,37.621l-16.966,9.1V48.989z"/>
	</g>
	<g>
		<path d="M92.885,109.687h-57.77c-2.206,0-4-1.794-4-4V22.313c0-2.206,1.794-4,4-4h57.77c2.206,0,4,1.794,4,4v83.373
			C96.885,107.892,95.09,109.687,92.885,109.687z M35.115,20.313c-1.103,0-2,0.897-2,2v83.373c0,1.103,0.897,2,2,2h57.77
			c1.103,0,2-0.897,2-2V22.313c0-1.103-0.897-2-2-2H35.115z"/>
	</g>
	<g>
		<circle cx="64" cy="101.686" r="2.333"/>
	</g>
	<g>
		<path d="M95.399,94.183H32.6c-0.552,0-1-0.448-1-1s0.448-1,1-1h62.799c0.552,0,1,0.448,1,1S95.952,94.183,95.399,94.183z"/>
	</g>
</g>
</svg>
