<?xml version="1.0" encoding="utf-8"?>
<!-- Generator: Adobe Illustrator 16.0.0, SVG Export Plug-In . SVG Version: 6.00 Build 0)  -->
<!DOCTYPE svg PUBLIC "-//W3C//DTD SVG 1.1//EN" "http://www.w3.org/Graphics/SVG/1.1/DTD/svg11.dtd">
<svg version="1.1" id="Layer_1" xmlns="http://www.w3.org/2000/svg" xmlns:xlink="http://www.w3.org/1999/xlink" x="0px" y="0px"
	 width="128px" height="128px" viewBox="0 0 128 128" enable-background="new 0 0 128 128" xml:space="preserve">
<g>
	<g>
		<path d="M76.287,72.755H51.713c-0.552,0-1-0.448-1-1v-2.954c0-0.552,0.448-1,1-1h24.574c0.552,0,1,0.448,1,1v2.954
			C77.287,72.307,76.839,72.755,76.287,72.755z M52.713,70.755h22.574v-0.954H52.713V70.755z"/>
	</g>
	<g>
		<path d="M55.357,65.8H52.4c-0.552,0-1-0.448-1-1v-8.908c0-0.552,0.448-1,1-1h2.957c0.552,0,1,0.448,1,1V64.8
			C56.357,65.352,55.91,65.8,55.357,65.8z M53.4,63.8h0.957v-6.908H53.4V63.8z"/>
	</g>
	<g>
		<path d="M75.598,65.8h-2.955c-0.552,0-1-0.448-1-1v-8.908c0-0.552,0.448-1,1-1h2.955c0.552,0,1,0.448,1,1V64.8
			C76.598,65.352,76.15,65.8,75.598,65.8z M73.643,63.8h0.955v-6.908h-0.955V63.8z"/>
	</g>
	<g>
		<path d="M62.106,65.8h-2.958c-0.552,0-1-0.448-1-1v-8.908c0-0.552,0.448-1,1-1h2.958c0.552,0,1,0.448,1,1V64.8
			C63.106,65.352,62.659,65.8,62.106,65.8z M60.148,63.8h0.958v-6.908h-0.958V63.8z"/>
	</g>
	<g>
		<path d="M68.854,65.8h-2.958c-0.552,0-1-0.448-1-1v-8.908c0-0.552,0.448-1,1-1h2.958c0.552,0,1,0.448,1,1V64.8
			C69.854,65.352,69.406,65.8,68.854,65.8z M66.896,63.8h0.958v-6.908h-0.958V63.8z"/>
	</g>
	<g>
		<path d="M76.299,52.905h-24.6c-0.552,0-1-0.448-1-1v-2.648c0-0.369,0.203-0.707,0.527-0.881l12.301-6.595
			c0.295-0.158,0.65-0.158,0.945,0l12.299,6.595c0.325,0.174,0.527,0.513,0.527,0.881v2.648
			C77.299,52.458,76.851,52.905,76.299,52.905z M52.699,50.905h22.6v-1.05L64,43.796l-11.301,6.059V50.905z"/>
	</g>
	<g>
		<circle cx="63.999" cy="99.852" r="2.671"/>
	</g>
	<g>
		<path d="M81.71,107.972H46.29c-2.206,0-4-1.794-4-4V24.03c0-2.206,1.794-4,4-4h35.42c2.206,0,4,1.794,4,4v79.942
			C85.71,106.177,83.916,107.972,81.71,107.972z M46.29,22.03c-1.103,0-2,0.897-2,2v79.942c0,1.103,0.897,2,2,2h35.42
			c1.103,0,2-0.897,2-2V24.03c0-1.103-0.897-2-2-2H46.29z"/>
	</g>
	<g>
		<path d="M84.115,92.273H43.887c-0.552,0-1-0.448-1-1s0.448-1,1-1h40.229c0.552,0,1,0.448,1,1S84.667,92.273,84.115,92.273z"/>
	</g>
</g>
</svg>
