<?xml version="1.0" encoding="utf-8"?>
<!-- Generator: Adobe Illustrator 16.0.0, SVG Export Plug-In . SVG Version: 6.00 Build 0)  -->
<!DOCTYPE svg PUBLIC "-//W3C//DTD SVG 1.1//EN" "http://www.w3.org/Graphics/SVG/1.1/DTD/svg11.dtd">
<svg version="1.1" id="Layer_1" xmlns="http://www.w3.org/2000/svg" xmlns:xlink="http://www.w3.org/1999/xlink" x="0px" y="0px"
	 width="128px" height="128px" viewBox="0 0 128 128" enable-background="new 0 0 128 128" xml:space="preserve">
<g>
	<g>
		
			<rect x="50.062" y="69.057" fill="none" stroke="#000000" stroke-width="2" stroke-linecap="round" stroke-linejoin="round" stroke-miterlimit="10" width="27.876" height="3.354"/>
		
			<rect x="51.149" y="54.574" fill="none" stroke="#000000" stroke-width="2" stroke-linecap="round" stroke-linejoin="round" stroke-miterlimit="10" width="3.354" height="10.103"/>
		
			<rect x="73.497" y="54.574" fill="none" stroke="#000000" stroke-width="2" stroke-linecap="round" stroke-linejoin="round" stroke-miterlimit="10" width="3.354" height="10.103"/>
		
			<rect x="58.598" y="54.574" fill="none" stroke="#000000" stroke-width="2" stroke-linecap="round" stroke-linejoin="round" stroke-miterlimit="10" width="3.354" height="10.103"/>
		
			<rect x="66.045" y="54.574" fill="none" stroke="#000000" stroke-width="2" stroke-linecap="round" stroke-linejoin="round" stroke-miterlimit="10" width="3.354" height="10.103"/>
		
			<polygon fill="none" stroke="#000000" stroke-width="2" stroke-linecap="round" stroke-linejoin="round" stroke-miterlimit="10" points="
			77.952,50.2 50.05,50.2 50.05,47.202 63.998,39.714 77.952,47.202 		"/>
	</g>
	<g>
		<g>
			<path d="M99.633,86.757H28.367c-2.206,0-4-1.794-4-4V34.391c0-2.206,1.794-4,4-4h71.267c2.206,0,4,1.794,4,4v48.367
				C103.633,84.963,101.839,86.757,99.633,86.757z M28.367,32.391c-1.103,0-2,0.897-2,2v48.367c0,1.103,0.897,2,2,2h71.267
				c1.103,0,2-0.897,2-2V34.391c0-1.103-0.897-2-2-2H28.367z"/>
		</g>
		<g>
			<path d="M102.633,80.731H25.367c-0.552,0-1-0.448-1-1s0.448-1,1-1h77.267c0.552,0,1,0.448,1,1S103.186,80.731,102.633,80.731z"/>
		</g>
		<g>
			<g>
				<path d="M48.623,96.895c-0.214,0-0.43-0.068-0.612-0.209c-0.437-0.338-0.517-0.966-0.178-1.403l7.868-10.155
					c0.339-0.437,0.967-0.516,1.403-0.178c0.437,0.338,0.517,0.966,0.178,1.403l-7.868,10.155
					C49.216,96.761,48.921,96.895,48.623,96.895z"/>
			</g>
			<g>
				<path d="M79.376,96.895c-0.298,0-0.594-0.133-0.791-0.387l-7.87-10.155c-0.338-0.437-0.259-1.065,0.178-1.403
					c0.437-0.338,1.064-0.258,1.403,0.178l7.87,10.155c0.338,0.437,0.259,1.065-0.178,1.403
					C79.806,96.826,79.591,96.895,79.376,96.895z"/>
			</g>
		</g>
		<g>
			<path d="M85.454,97.609H42.548c-0.552,0-1-0.448-1-1s0.448-1,1-1h42.906c0.552,0,1,0.448,1,1S86.006,97.609,85.454,97.609z"/>
		</g>
	</g>
</g>
</svg>
