<?xml version="1.0" encoding="utf-8"?>
<!-- Generator: Adobe Illustrator 16.0.0, SVG Export Plug-In . SVG Version: 6.00 Build 0)  -->
<!DOCTYPE svg PUBLIC "-//W3C//DTD SVG 1.1//EN" "http://www.w3.org/Graphics/SVG/1.1/DTD/svg11.dtd">
<svg version="1.1" id="Layer_1" xmlns="http://www.w3.org/2000/svg" xmlns:xlink="http://www.w3.org/1999/xlink" x="0px" y="0px"
	 width="128px" height="128px" viewBox="0 0 128 128" enable-background="new 0 0 128 128" xml:space="preserve">
<g>
	<g>
		<path d="M66.67,99.85c0,1.475-1.193,2.672-2.67,2.672c-1.475,0-2.673-1.198-2.673-2.672c0-1.473,1.198-2.67,2.673-2.67
			C65.477,97.179,66.67,98.377,66.67,99.85z"/>
	</g>
	<g>
		<path d="M81.71,107.972H46.29c-2.206,0-4-1.794-4-4V24.027c0-2.206,1.794-4,4-4h35.42c2.206,0,4,1.794,4,4v79.944
			C85.71,106.177,83.916,107.972,81.71,107.972z M46.29,22.027c-1.103,0-2,0.897-2,2v79.944c0,1.103,0.897,2,2,2h35.42
			c1.103,0,2-0.897,2-2V24.027c0-1.103-0.897-2-2-2H46.29z"/>
	</g>
	<g>
		<path d="M84.115,92.269H43.887c-0.552,0-1-0.448-1-1s0.448-1,1-1h40.229c0.552,0,1,0.448,1,1S84.667,92.269,84.115,92.269z"/>
	</g>
	<g>
		<path d="M64,64.589c-3.708,0-6.726-3.019-6.726-6.729S60.292,51.13,64,51.13c3.71,0,6.729,3.019,6.729,6.729
			S67.71,64.589,64,64.589z M64,53.13c-2.605,0-4.726,2.122-4.726,4.729c0,2.607,2.12,4.729,4.726,4.729
			c2.608,0,4.729-2.122,4.729-4.729C68.729,55.252,66.608,53.13,64,53.13z"/>
	</g>
	<g>
		<path d="M66.045,73.129h-4.093c-0.426,0-0.805-0.27-0.945-0.672l-0.592-1.708c-1.04-0.287-2.042-0.703-2.993-1.242l-1.629,0.791
			c-0.383,0.188-0.842,0.109-1.144-0.192l-2.896-2.896c-0.301-0.301-0.378-0.759-0.193-1.143l0.788-1.628
			c-0.535-0.946-0.951-1.95-1.241-2.996l-1.705-0.591C49,60.713,48.73,60.333,48.73,59.907v-4.095c0-0.426,0.27-0.805,0.672-0.945
			l1.706-0.592c0.291-1.045,0.707-2.049,1.242-2.995l-0.788-1.63c-0.185-0.383-0.107-0.842,0.193-1.143l2.896-2.894
			c0.301-0.3,0.758-0.377,1.143-0.193l1.629,0.788c0.951-0.539,1.954-0.956,2.994-1.243l0.592-1.702
			c0.14-0.402,0.519-0.672,0.944-0.672h4.093c0.425,0,0.804,0.269,0.944,0.67l0.596,1.704c1.043,0.288,2.047,0.704,2.997,1.243
			l1.627-0.787c0.383-0.186,0.843-0.107,1.143,0.193l2.894,2.896c0.3,0.301,0.378,0.758,0.193,1.141l-0.785,1.63
			c0.538,0.953,0.953,1.957,1.24,2.995l1.704,0.592c0.402,0.14,0.672,0.519,0.672,0.945v4.095c0,0.426-0.27,0.805-0.671,0.944
			l-1.706,0.594c-0.291,1.045-0.707,2.047-1.241,2.993l0.788,1.628c0.185,0.383,0.108,0.841-0.193,1.143l-2.894,2.896
			c-0.301,0.301-0.759,0.379-1.144,0.193l-1.632-0.791c-0.946,0.538-1.949,0.954-2.991,1.242l-0.596,1.709
			C66.849,72.86,66.47,73.129,66.045,73.129z M62.664,71.129h2.67l0.54-1.547c0.113-0.324,0.385-0.568,0.72-0.645
			c1.202-0.277,2.347-0.752,3.403-1.413c0.292-0.182,0.657-0.201,0.966-0.052l1.477,0.715l1.888-1.889l-0.712-1.472
			c-0.149-0.309-0.13-0.672,0.051-0.964c0.657-1.056,1.133-2.204,1.416-3.412c0.078-0.333,0.321-0.604,0.645-0.717l1.542-0.537
			v-2.673l-1.541-0.535c-0.325-0.113-0.569-0.385-0.646-0.72c-0.275-1.195-0.75-2.344-1.412-3.414
			c-0.18-0.291-0.199-0.652-0.05-0.96l0.709-1.473l-1.889-1.891l-1.471,0.712c-0.309,0.15-0.674,0.13-0.965-0.052
			c-1.061-0.662-2.208-1.138-3.41-1.414c-0.334-0.077-0.606-0.32-0.72-0.645l-0.539-1.541h-2.672l-0.535,1.539
			c-0.113,0.325-0.385,0.569-0.72,0.646c-1.198,0.276-2.345,0.752-3.409,1.415c-0.291,0.182-0.654,0.201-0.964,0.052l-1.474-0.713
			l-1.89,1.889l0.712,1.474c0.149,0.309,0.13,0.672-0.051,0.963c-0.657,1.056-1.133,2.205-1.416,3.414
			c-0.078,0.334-0.321,0.605-0.646,0.718l-1.541,0.535v2.672l1.54,0.534c0.325,0.112,0.569,0.383,0.647,0.718
			c0.282,1.21,0.758,2.359,1.415,3.416c0.181,0.292,0.2,0.655,0.051,0.964l-0.712,1.472l1.889,1.89l1.473-0.715
			c0.308-0.151,0.673-0.131,0.965,0.051c1.064,0.663,2.21,1.139,3.408,1.414c0.335,0.077,0.608,0.322,0.721,0.647L62.664,71.129z"/>
	</g>
</g>
</svg>
