<?xml version="1.0" encoding="utf-8"?>
<!-- Generator: Adobe Illustrator 16.0.0, SVG Export Plug-In . SVG Version: 6.00 Build 0)  -->
<!DOCTYPE svg PUBLIC "-//W3C//DTD SVG 1.1//EN" "http://www.w3.org/Graphics/SVG/1.1/DTD/svg11.dtd">
<svg version="1.1" id="Layer_1" xmlns="http://www.w3.org/2000/svg" xmlns:xlink="http://www.w3.org/1999/xlink" x="0px" y="0px"
	 width="128px" height="128px" viewBox="0 0 128 128" enable-background="new 0 0 128 128" xml:space="preserve">
<g>
	<g>
		<g>
			<path d="M99.633,86.043H28.367c-2.206,0-4-1.794-4-4V33.676c0-2.206,1.794-4,4-4h71.266c2.206,0,4,1.794,4,4v48.367
				C103.633,84.249,101.838,86.043,99.633,86.043z M28.367,31.676c-1.103,0-2,0.897-2,2v48.367c0,1.103,0.897,2,2,2h71.266
				c1.103,0,2-0.897,2-2V33.676c0-1.103-0.897-2-2-2H28.367z"/>
		</g>
		<g>
			<path d="M109.581,98.323c-0.006,0-0.013,0-0.02,0H18.439c-0.389,0-0.743-0.226-0.907-0.579c-0.164-0.353-0.108-0.769,0.143-1.066
				l6.762-8.008c0.19-0.225,0.47-0.355,0.764-0.355h77.6c0.294,0,0.574,0.13,0.764,0.355l6.656,7.884
				c0.22,0.184,0.36,0.459,0.36,0.769C110.581,97.875,110.133,98.323,109.581,98.323z M20.593,96.323h86.815l-5.071-6.008H25.666
				L20.593,96.323z"/>
		</g>
		<g>
			<path d="M102.633,80.019H25.367c-0.552,0-1-0.448-1-1s0.448-1,1-1h77.266c0.552,0,1,0.448,1,1S103.185,80.019,102.633,80.019z"/>
		</g>
	</g>
	<g>
		<path fill="none" stroke="#000000" stroke-width="2" stroke-linecap="round" stroke-linejoin="round" stroke-miterlimit="10" d="
			M64,61.302c-3.156,0-5.729-2.574-5.729-5.73c0-3.158,2.573-5.729,5.729-5.729c3.16,0,5.729,2.572,5.729,5.729
			C69.729,58.728,67.16,61.302,64,61.302z"/>
		<path fill="none" stroke="#000000" stroke-width="2" stroke-linecap="round" stroke-linejoin="round" stroke-miterlimit="10" d="
			M78.271,57.619v-4.093l-2.215-0.769c-0.312-1.337-0.834-2.588-1.539-3.718l1.021-2.113l-2.893-2.894l-2.111,1.022
			c-1.133-0.705-2.382-1.234-3.716-1.542l-0.771-2.21h-4.093l-0.772,2.21c-1.333,0.308-2.581,0.837-3.712,1.542l-2.111-1.022
			l-2.896,2.894l1.023,2.113c-0.705,1.13-1.233,2.381-1.543,3.716l-2.213,0.771v4.093l2.215,0.77
			c0.308,1.333,0.836,2.585,1.541,3.714l-1.023,2.115l2.896,2.893l2.112-1.026c1.131,0.705,2.378,1.233,3.71,1.54l0.772,2.217h4.094
			l0.772-2.217c1.331-0.307,2.581-0.835,3.71-1.54l2.116,1.026l2.893-2.893l-1.021-2.115c0.702-1.129,1.227-2.377,1.539-3.714
			L78.271,57.619z"/>
	</g>
</g>
</svg>
