<?xml version="1.0" encoding="utf-8"?>
<!-- Generator: Adobe Illustrator 16.0.0, SVG Export Plug-In . SVG Version: 6.00 Build 0)  -->
<!DOCTYPE svg PUBLIC "-//W3C//DTD SVG 1.1//EN" "http://www.w3.org/Graphics/SVG/1.1/DTD/svg11.dtd">
<svg version="1.1" id="Layer_1" xmlns="http://www.w3.org/2000/svg" xmlns:xlink="http://www.w3.org/1999/xlink" x="0px" y="0px"
	 width="128px" height="128px" viewBox="0 0 128 128" enable-background="new 0 0 128 128" xml:space="preserve">
<g>
	<g>
		<path d="M92.885,109.687h-57.77c-2.206,0-4-1.794-4-4V22.313c0-2.206,1.794-4,4-4h57.77c2.206,0,4,1.794,4,4v83.373
			C96.885,107.892,95.09,109.687,92.885,109.687z M35.115,20.313c-1.103,0-2,0.897-2,2v83.373c0,1.103,0.897,2,2,2h57.77
			c1.103,0,2-0.897,2-2V22.313c0-1.103-0.897-2-2-2H35.115z"/>
	</g>
	<g>
		<circle cx="64" cy="101.684" r="2.333"/>
	</g>
	<g>
		<path d="M95.399,94.179H32.6c-0.552,0-1-0.448-1-1s0.448-1,1-1h62.799c0.552,0,1,0.448,1,1S95.952,94.179,95.399,94.179z"/>
	</g>
	<g>
		<path d="M64,65.734c-4.343,0-7.877-3.533-7.877-7.875c0-4.344,3.534-7.879,7.877-7.879c4.344,0,7.879,3.535,7.879,7.879
			C71.879,62.202,68.344,65.734,64,65.734z M64,51.981c-3.241,0-5.877,2.637-5.877,5.879c0,3.239,2.636,5.875,5.877,5.875
			c3.242,0,5.879-2.635,5.879-5.875C69.879,54.618,67.242,51.981,64,51.981z"/>
	</g>
	<g>
		<path d="M66.458,75.992h-4.917c-0.426,0-0.805-0.27-0.945-0.673l-0.746-2.151c-1.312-0.354-2.567-0.874-3.741-1.551l-2.051,0.994
			c-0.384,0.187-0.843,0.108-1.144-0.193l-3.472-3.474c-0.301-0.301-0.378-0.759-0.193-1.143l0.992-2.05
			c-0.675-1.172-1.196-2.427-1.554-3.743l-2.147-0.748c-0.402-0.14-0.671-0.519-0.671-0.944v-4.913c0-0.425,0.269-0.804,0.671-0.944
			l2.146-0.749c0.354-1.311,0.875-2.565,1.555-3.743l-0.992-2.049c-0.185-0.383-0.108-0.842,0.193-1.143l3.472-3.472
			c0.3-0.301,0.759-0.377,1.143-0.193l2.048,0.991c1.182-0.682,2.438-1.203,3.745-1.556l0.745-2.146
			c0.14-0.402,0.519-0.672,0.945-0.672h4.917c0.426,0,0.805,0.27,0.945,0.672l0.744,2.146c1.305,0.352,2.561,0.874,3.745,1.556
			l2.049-0.991c0.385-0.184,0.841-0.107,1.142,0.193l3.476,3.472c0.302,0.301,0.379,0.76,0.193,1.144l-0.994,2.05
			c0.676,1.171,1.197,2.426,1.555,3.743l2.144,0.747c0.402,0.14,0.671,0.519,0.671,0.944v4.913c0,0.426-0.27,0.805-0.671,0.944
			l-2.148,0.747c-0.351,1.303-0.871,2.557-1.551,3.742l0.994,2.051c0.186,0.383,0.108,0.842-0.193,1.144l-3.476,3.474
			c-0.301,0.3-0.759,0.379-1.143,0.192l-2.052-0.993c-1.178,0.676-2.433,1.197-3.742,1.553l-0.745,2.149
			C67.264,75.722,66.885,75.992,66.458,75.992z M62.253,73.992h3.493l0.688-1.986c0.112-0.324,0.382-0.567,0.716-0.646
			c1.473-0.346,2.873-0.927,4.162-1.727c0.292-0.181,0.655-0.2,0.963-0.05l1.897,0.917l2.47-2.468l-0.919-1.896
			c-0.149-0.309-0.13-0.672,0.05-0.964c0.806-1.297,1.385-2.695,1.723-4.157c0.077-0.335,0.321-0.606,0.646-0.719l1.987-0.691
			v-3.491l-1.981-0.69c-0.323-0.113-0.566-0.382-0.645-0.715c-0.349-1.483-0.93-2.882-1.728-4.158
			c-0.183-0.292-0.202-0.657-0.052-0.966l0.919-1.896l-2.47-2.467l-1.895,0.917c-0.309,0.149-0.672,0.13-0.964-0.051
			c-1.297-0.808-2.696-1.389-4.16-1.728c-0.335-0.078-0.606-0.322-0.719-0.646l-0.688-1.984h-3.494l-0.689,1.984
			c-0.113,0.325-0.384,0.568-0.719,0.646c-1.467,0.34-2.866,0.921-4.158,1.727c-0.292,0.183-0.655,0.201-0.965,0.052l-1.894-0.917
			l-2.467,2.467l0.917,1.896c0.149,0.31,0.13,0.674-0.053,0.966c-0.803,1.283-1.384,2.681-1.726,4.153
			c-0.078,0.334-0.321,0.605-0.645,0.718l-1.985,0.692v3.491l1.984,0.691c0.323,0.112,0.566,0.382,0.645,0.715
			c0.349,1.482,0.93,2.881,1.727,4.159c0.182,0.291,0.202,0.656,0.052,0.965l-0.918,1.897l2.467,2.468l1.897-0.919
			c0.309-0.15,0.674-0.13,0.966,0.052c1.279,0.8,2.677,1.379,4.154,1.722c0.335,0.078,0.606,0.322,0.719,0.647L62.253,73.992z"/>
	</g>
</g>
</svg>
