<?xml version="1.0" encoding="utf-8"?>
<!-- Generator: Adobe Illustrator 16.0.0, SVG Export Plug-In . SVG Version: 6.00 Build 0)  -->
<!DOCTYPE svg PUBLIC "-//W3C//DTD SVG 1.1//EN" "http://www.w3.org/Graphics/SVG/1.1/DTD/svg11.dtd">
<svg version="1.1" id="Layer_1" xmlns="http://www.w3.org/2000/svg" xmlns:xlink="http://www.w3.org/1999/xlink" x="0px" y="0px"
	 width="128px" height="128px" viewBox="0 0 128 128" enable-background="new 0 0 128 128" xml:space="preserve">
<g>
	<g>
		<path d="M75.525,86.549H48.354c-3.309,0-6-2.691-6-6V47.455c0-3.309,2.691-6,6-6h27.171c3.309,0,6,2.691,6,6v33.095
			C81.525,83.858,78.834,86.549,75.525,86.549z M48.354,43.455c-2.206,0-4,1.794-4,4v33.095c0,2.206,1.794,4,4,4h27.171
			c2.206,0,4-1.794,4-4V47.455c0-2.206-1.794-4-4-4H48.354z"/>
	</g>
	<g>
		<path d="M84.646,59.977c-0.552,0-1-0.448-1-1v-7.162c0-0.552,0.448-1,1-1s1,0.448,1,1v7.162
			C85.646,59.529,85.198,59.977,84.646,59.977z"/>
	</g>
	<g>
		<path d="M73.654,39.234c-0.552,0-1-0.448-1-1V29.98c0-0.551-0.449-1-1-1H52.227c-0.551,0-1,0.449-1,1v8.253c0,0.552-0.448,1-1,1
			s-1-0.448-1-1V29.98c0-1.654,1.346-3,3-3h19.428c1.654,0,3,1.346,3,3v8.253C74.654,38.786,74.207,39.234,73.654,39.234z"/>
	</g>
	<g>
		<path d="M71.654,101.02H52.227c-1.654,0-3-1.346-3-3v-8.255c0-0.552,0.448-1,1-1s1,0.448,1,1v8.255c0,0.551,0.449,1,1,1h19.428
			c0.551,0,1-0.449,1-1v-8.255c0-0.552,0.448-1,1-1s1,0.448,1,1v8.255C74.654,99.674,73.309,101.02,71.654,101.02z"/>
	</g>
	<g>
		<g>
			<path d="M61.94,69.484c-3.027,0-5.489-2.46-5.489-5.484s2.462-5.484,5.489-5.484c3.024,0,5.485,2.46,5.485,5.484
				S64.965,69.484,61.94,69.484z M61.94,60.516c-1.924,0-3.489,1.563-3.489,3.484s1.565,3.484,3.489,3.484
				c1.922,0,3.485-1.563,3.485-3.484S63.862,60.516,61.94,60.516z"/>
		</g>
		<g>
			<path d="M63.541,76.175h-3.205c-0.426,0-0.805-0.27-0.945-0.672l-0.427-1.23c-0.762-0.221-1.494-0.523-2.184-0.905l-1.172,0.568
				c-0.384,0.188-0.842,0.108-1.143-0.193l-2.27-2.269c-0.302-0.301-0.379-0.761-0.192-1.145l0.57-1.171
				c-0.38-0.687-0.684-1.418-0.905-2.184l-1.231-0.429c-0.402-0.14-0.671-0.519-0.671-0.944v-3.201c0-0.425,0.269-0.804,0.67-0.944
				l1.228-0.429c0.222-0.766,0.526-1.498,0.909-2.187l-0.57-1.174c-0.187-0.384-0.109-0.844,0.193-1.145l2.27-2.264
				c0.301-0.3,0.76-0.376,1.143-0.192l1.171,0.569c0.697-0.385,1.429-0.689,2.187-0.908l0.424-1.228
				c0.139-0.403,0.519-0.674,0.945-0.674h3.205c0.425,0,0.804,0.269,0.944,0.67l0.431,1.232c0.754,0.219,1.486,0.523,2.185,0.908
				l1.171-0.568c0.384-0.186,0.843-0.108,1.144,0.192l2.267,2.269c0.301,0.301,0.378,0.759,0.193,1.142l-0.568,1.174
				c0.385,0.698,0.689,1.429,0.907,2.184l1.231,0.429c0.402,0.14,0.671,0.519,0.671,0.944v3.201c0,0.426-0.27,0.805-0.672,0.944
				l-1.234,0.429c-0.218,0.758-0.521,1.489-0.903,2.185l0.567,1.173c0.186,0.383,0.108,0.841-0.192,1.143l-2.267,2.269
				c-0.301,0.3-0.759,0.378-1.143,0.193l-1.175-0.568c-0.69,0.381-1.42,0.684-2.182,0.905l-0.431,1.232
				C64.345,75.906,63.966,76.175,63.541,76.175z M61.047,74.175h1.784l0.372-1.064c0.113-0.322,0.382-0.565,0.715-0.644
				c0.928-0.218,1.805-0.582,2.605-1.081c0.292-0.181,0.655-0.2,0.964-0.052l1.015,0.491l1.261-1.263l-0.49-1.013
				c-0.149-0.308-0.13-0.671,0.05-0.963c0.503-0.811,0.865-1.688,1.077-2.607c0.078-0.335,0.321-0.607,0.646-0.72l1.067-0.371v-1.78
				l-1.064-0.371c-0.324-0.113-0.568-0.385-0.645-0.719c-0.211-0.912-0.575-1.789-1.082-2.605c-0.181-0.291-0.2-0.654-0.051-0.962
				l0.491-1.015l-1.261-1.262l-1.011,0.491c-0.308,0.15-0.671,0.131-0.963-0.049c-0.82-0.507-1.698-0.872-2.61-1.084
				c-0.333-0.078-0.604-0.321-0.717-0.644l-0.372-1.064h-1.783l-0.366,1.061c-0.112,0.326-0.384,0.57-0.72,0.648
				c-0.918,0.213-1.796,0.577-2.611,1.083c-0.291,0.182-0.656,0.2-0.964,0.051l-1.013-0.492l-1.262,1.259l0.493,1.015
				c0.151,0.311,0.131,0.677-0.053,0.969c-0.5,0.796-0.865,1.673-1.084,2.606c-0.078,0.333-0.321,0.603-0.644,0.715l-1.06,0.371
				v1.781l1.063,0.371c0.323,0.113,0.566,0.383,0.645,0.716c0.219,0.937,0.583,1.812,1.08,2.604c0.184,0.292,0.204,0.659,0.053,0.97
				l-0.493,1.013l1.263,1.262l1.012-0.491c0.308-0.15,0.672-0.132,0.965,0.051c0.801,0.499,1.679,0.863,2.608,1.081
				c0.334,0.078,0.604,0.322,0.717,0.646L61.047,74.175z"/>
		</g>
	</g>
</g>
</svg>
