<?xml version="1.0" encoding="utf-8"?>
<!-- Generator: Adobe Illustrator 16.0.0, SVG Export Plug-In . SVG Version: 6.00 Build 0)  -->
<!DOCTYPE svg PUBLIC "-//W3C//DTD SVG 1.1//EN" "http://www.w3.org/Graphics/SVG/1.1/DTD/svg11.dtd">
<svg version="1.1" id="Layer_1" xmlns="http://www.w3.org/2000/svg" xmlns:xlink="http://www.w3.org/1999/xlink" x="0px" y="0px"
	 width="128px" height="128px" viewBox="0 0 128 128" enable-background="new 0 0 128 128" xml:space="preserve">
<g>
	<g>
		<g>
			<path d="M99.633,86.755H28.367c-2.206,0-4-1.794-4-4V34.388c0-2.206,1.794-4,4-4h71.267c2.206,0,4,1.794,4,4v48.367
				C103.633,84.961,101.839,86.755,99.633,86.755z M28.367,32.388c-1.103,0-2,0.897-2,2v48.367c0,1.103,0.897,2,2,2h71.267
				c1.103,0,2-0.897,2-2V34.388c0-1.103-0.897-2-2-2H28.367z"/>
		</g>
		<g>
			<path d="M102.633,80.732H25.367c-0.552,0-1-0.448-1-1s0.448-1,1-1h77.267c0.552,0,1,0.448,1,1S103.186,80.732,102.633,80.732z"/>
		</g>
		<g>
			<g>
				<path d="M48.623,96.895c-0.214,0-0.43-0.068-0.612-0.209c-0.437-0.338-0.517-0.966-0.178-1.403l7.868-10.155
					c0.339-0.437,0.967-0.516,1.403-0.178c0.437,0.338,0.517,0.966,0.178,1.403l-7.868,10.155
					C49.216,96.761,48.921,96.895,48.623,96.895z"/>
			</g>
			<g>
				<path d="M79.376,96.895c-0.298,0-0.594-0.133-0.791-0.387l-7.87-10.155c-0.338-0.437-0.259-1.065,0.178-1.403
					c0.437-0.338,1.064-0.258,1.403,0.178l7.87,10.155c0.338,0.437,0.259,1.065-0.178,1.403
					C79.806,96.826,79.591,96.895,79.376,96.895z"/>
			</g>
		</g>
		<g>
			<path d="M85.454,97.606H42.548c-0.552,0-1-0.448-1-1s0.448-1,1-1h42.906c0.552,0,1,0.448,1,1S86.006,97.606,85.454,97.606z"/>
		</g>
	</g>
	<g>
		<path fill="none" stroke="#000000" stroke-width="2" stroke-linecap="round" stroke-linejoin="round" stroke-miterlimit="10" d="
			M63.998,62.861c-3.389,0-6.145-2.754-6.145-6.143c0-3.395,2.756-6.15,6.145-6.15c3.393,0,6.15,2.756,6.15,6.15
			C70.148,60.107,67.391,62.861,63.998,62.861z"/>
		<path fill="none" stroke="#000000" stroke-width="2" stroke-linecap="round" stroke-linejoin="round" stroke-miterlimit="10" d="
			M79.312,58.914l0.002-4.396l-2.374-0.824c-0.332-1.432-0.898-2.772-1.653-3.985l1.097-2.27l-3.108-3.106l-2.266,1.097
			c-1.213-0.754-2.554-1.321-3.988-1.654l-0.825-2.377h-4.395l-0.822,2.377c-1.437,0.333-2.776,0.897-3.991,1.654l-2.267-1.097
			l-3.105,3.106l1.098,2.27c-0.756,1.209-1.321,2.554-1.655,3.985l-2.377,0.824v4.396l2.377,0.824
			c0.334,1.433,0.898,2.772,1.655,3.985l-1.098,2.271l3.105,3.104l2.269-1.099c1.213,0.757,2.553,1.32,3.985,1.656l0.826,2.375
			h4.395l0.825-2.375c1.431-0.336,2.774-0.898,3.982-1.656l2.271,1.099l3.108-3.107l-1.101-2.267
			c0.756-1.213,1.321-2.553,1.655-3.985L79.312,58.914z"/>
	</g>
</g>
</svg>
