<?xml version="1.0" encoding="utf-8"?>
<!-- Generator: Adobe Illustrator 16.0.0, SVG Export Plug-In . SVG Version: 6.00 Build 0)  -->
<!DOCTYPE svg PUBLIC "-//W3C//DTD SVG 1.1//EN" "http://www.w3.org/Graphics/SVG/1.1/DTD/svg11.dtd">
<svg version="1.1" id="Layer_1" xmlns="http://www.w3.org/2000/svg" xmlns:xlink="http://www.w3.org/1999/xlink" x="0px" y="0px"
	 width="32px" height="32px" viewBox="0 0 32 32" enable-background="new 0 0 32 32" xml:space="preserve">
<g>
	<g>
		<g>
			<g>
				<g>
					<path d="M19.496,22.866h-8.214c-1.107,0-2.009-0.901-2.009-2.01V10.751c0-1.108,0.901-2.009,2.009-2.009h8.214
						c1.107,0,2.009,0.901,2.009,2.009v10.105C21.504,21.965,20.603,22.866,19.496,22.866z M11.281,9.107
						c-0.907,0-1.644,0.737-1.644,1.644v10.105c0,0.907,0.737,1.644,1.644,1.644h8.214c0.906,0,1.644-0.737,1.644-1.644V10.751
						c0-0.907-0.738-1.644-1.644-1.644H11.281z"/>
				</g>
			</g>
			<g>
				<g>
					<path d="M22.637,14.383c-0.101,0-0.183-0.081-0.183-0.182v-2.286c0-0.101,0.082-0.183,0.183-0.183s0.183,0.083,0.183,0.183
						v2.286C22.819,14.302,22.738,14.383,22.637,14.383z"/>
				</g>
			</g>
			<g>
				<g>
					<path d="M19.128,7.761c-0.101,0-0.182-0.082-0.182-0.183V5.035c0-0.302-0.247-0.548-0.549-0.548h-6.018
						c-0.302,0-0.548,0.246-0.548,0.548v2.543c0,0.101-0.082,0.183-0.183,0.183c-0.101,0-0.183-0.082-0.183-0.183V5.035
						c0-0.504,0.409-0.914,0.913-0.914h6.018c0.504,0,0.914,0.409,0.914,0.914v2.543C19.312,7.679,19.229,7.761,19.128,7.761z"/>
				</g>
			</g>
			<g>
				<g>
					<path d="M18.397,27.487h-6.018c-0.504,0-0.913-0.41-0.913-0.914V24.03c0-0.101,0.082-0.183,0.183-0.183
						c0.101,0,0.183,0.082,0.183,0.183v2.542c0,0.303,0.246,0.549,0.548,0.549h6.018c0.302,0,0.549-0.246,0.549-0.549V24.03
						c0-0.101,0.082-0.183,0.182-0.183s0.183,0.082,0.183,0.183v2.542C19.312,27.077,18.901,27.487,18.397,27.487z"/>
				</g>
			</g>
		</g>
		<g>
			<g>
				<path fill="none" stroke="#000000" stroke-linecap="round" stroke-linejoin="round" stroke-miterlimit="10" d="M15.388,19.145"
					/>
			</g>
			<g>
				<path d="M15.388,18.714c-0.057,0-0.11-0.026-0.145-0.072c-0.605-0.795-2.586-3.404-2.666-3.557
					c-0.013-0.018-0.021-0.036-0.027-0.055c-0.105-0.223-0.158-0.461-0.158-0.706c0-0.925,0.759-1.678,1.692-1.678
					c0.545,0,1.005,0.351,1.303,0.741c0.298-0.39,0.758-0.741,1.304-0.741c0.933,0,1.692,0.752,1.692,1.678
					c0,0.252-0.056,0.495-0.167,0.724c-0.006,0.017-0.015,0.035-0.025,0.05c-0.072,0.139-2.053,2.749-2.659,3.543
					C15.499,18.688,15.446,18.714,15.388,18.714z M12.902,14.917L12.902,14.917c0.081,0.137,1.48,1.988,2.486,3.313
					c1.002-1.318,2.392-3.158,2.487-3.314c0.001-0.003,0.002-0.004,0.003-0.007c0.094-0.185,0.141-0.382,0.141-0.585
					c0-0.724-0.595-1.312-1.327-1.312c-0.5,0-0.93,0.428-1.146,0.795c-0.066,0.111-0.249,0.111-0.314,0
					c-0.216-0.367-0.646-0.795-1.146-0.795c-0.732,0-1.327,0.589-1.327,1.312c0,0.204,0.047,0.4,0.14,0.585
					C12.9,14.912,12.901,14.915,12.902,14.917z"/>
			</g>
		</g>
	</g>
</g>
</svg>
