<?xml version="1.0" encoding="utf-8"?>
<!-- Generator: Adobe Illustrator 16.0.0, SVG Export Plug-In . SVG Version: 6.00 Build 0)  -->
<!DOCTYPE svg PUBLIC "-//W3C//DTD SVG 1.1//EN" "http://www.w3.org/Graphics/SVG/1.1/DTD/svg11.dtd">
<svg version="1.1" id="Layer_1" xmlns="http://www.w3.org/2000/svg" xmlns:xlink="http://www.w3.org/1999/xlink" x="0px" y="0px"
	 width="32px" height="32px" viewBox="0 0 32 32" enable-background="new 0 0 32 32" xml:space="preserve">
<g>
	<g>
		<g>
			<g>
				<g>
					<path d="M27.208,22.705H4.731c-0.705,0-1.278-0.574-1.278-1.279V6.261c0-0.705,0.573-1.279,1.278-1.279h22.476
						c0.705,0,1.279,0.574,1.279,1.279v15.165C28.486,22.131,27.913,22.705,27.208,22.705z M4.731,5.348
						c-0.504,0-0.914,0.409-0.914,0.913v15.165c0,0.504,0.41,0.913,0.914,0.913h22.476c0.504,0,0.914-0.409,0.914-0.913V6.261
						c0-0.504-0.41-0.913-0.914-0.913H4.731z"/>
				</g>
			</g>
			<g>
				<g>
					<path d="M30.522,26.626c-0.002,0-0.005,0-0.007,0H1.424c-0.071,0-0.136-0.042-0.167-0.106c-0.029-0.064-0.019-0.14,0.027-0.195
						l2.159-2.557c0.035-0.041,0.086-0.064,0.14-0.064h24.773c0.054,0,0.105,0.024,0.14,0.064l2.132,2.526
						c0.046,0.034,0.077,0.087,0.077,0.149C30.706,26.544,30.623,26.626,30.522,26.626z M1.817,26.26h28.305l-1.851-2.191H3.667
						L1.817,26.26z"/>
				</g>
			</g>
			<g>
				<g>
					<path d="M28.303,20.781H3.635c-0.101,0-0.182-0.082-0.182-0.183c0-0.101,0.081-0.183,0.182-0.183h24.668
						c0.101,0,0.183,0.082,0.183,0.183C28.486,20.7,28.404,20.781,28.303,20.781z"/>
				</g>
			</g>
		</g>
		<g>
			<g>
				<path fill="none" stroke="#000000" stroke-linecap="round" stroke-linejoin="round" stroke-miterlimit="10" d="M15.97,18.87"/>
			</g>
			<g>
				<path d="M15.97,18.068c-0.058,0-0.111-0.027-0.146-0.072c-0.692-0.911-4.152-5.463-4.277-5.708
					c-0.014-0.017-0.023-0.036-0.028-0.054c-0.171-0.354-0.258-0.729-0.258-1.118c0-1.427,1.171-2.588,2.612-2.588
					c0.893,0,1.638,0.618,2.097,1.27c0.458-0.652,1.204-1.27,2.096-1.27c1.44,0,2.612,1.162,2.612,2.588
					c0,0.391-0.088,0.769-0.261,1.124c-0.006,0.021-0.014,0.039-0.027,0.057c-0.124,0.236-3.582,4.789-4.275,5.7
					C16.08,18.041,16.026,18.068,15.97,18.068z M11.869,12.119c0,0,0.001,0.001,0.002,0.001c0.112,0.201,2.458,3.307,4.098,5.463
					c1.639-2.157,3.985-5.262,4.099-5.464c0-0.001,0-0.001,0.001-0.001c0.001-0.004,0.003-0.009,0.005-0.012
					c0.158-0.313,0.238-0.647,0.238-0.991c0-1.225-1.008-2.223-2.247-2.223c-0.851,0-1.577,0.719-1.939,1.334
					c-0.065,0.11-0.249,0.111-0.314,0c-0.362-0.615-1.089-1.334-1.939-1.334c-1.239,0-2.247,0.998-2.247,2.223
					c0,0.346,0.08,0.679,0.237,0.991C11.866,12.11,11.868,12.115,11.869,12.119z"/>
			</g>
		</g>
	</g>
</g>
</svg>
