<?xml version="1.0" encoding="utf-8"?>
<!-- Generator: Adobe Illustrator 16.0.0, SVG Export Plug-In . SVG Version: 6.00 Build 0)  -->
<!DOCTYPE svg PUBLIC "-//W3C//DTD SVG 1.1//EN" "http://www.w3.org/Graphics/SVG/1.1/DTD/svg11.dtd">
<svg version="1.1" id="Layer_1" xmlns="http://www.w3.org/2000/svg" xmlns:xlink="http://www.w3.org/1999/xlink" x="0px" y="0px"
	 width="32px" height="32px" viewBox="0 0 32 32" enable-background="new 0 0 32 32" xml:space="preserve">
<g>
	<g>
		<g>
			<g>
				<path d="M21.452,29.706H10.421c-0.705,0-1.278-0.574-1.278-1.278V3.181c0-0.705,0.574-1.278,1.278-1.278h11.031
					c0.706,0,1.279,0.574,1.279,1.278v25.247C22.731,29.132,22.158,29.706,21.452,29.706z M10.421,2.268
					c-0.504,0-0.913,0.41-0.913,0.913v25.247c0,0.503,0.409,0.913,0.913,0.913h11.031c0.504,0,0.914-0.41,0.914-0.913V3.181
					c0-0.503-0.41-0.913-0.914-0.913H10.421z"/>
			</g>
		</g>
		<g>
			<g>
				<path d="M22.358,24.693H9.516c-0.101,0-0.183-0.082-0.183-0.183c0-0.101,0.082-0.182,0.183-0.182h12.843
					c0.101,0,0.183,0.082,0.183,0.182C22.542,24.611,22.459,24.693,22.358,24.693z"/>
			</g>
		</g>
		<g>
			<g>
				<circle cx="15.937" cy="27.104" r="0.745"/>
			</g>
		</g>
		<g>
			<g>
				<path fill="none" stroke="#000000" stroke-linecap="round" stroke-linejoin="round" stroke-miterlimit="10" d="M15.938,19.073"
					/>
			</g>
		</g>
		<g>
			<g>
				<path d="M15.938,18.368c-0.058,0-0.112-0.026-0.146-0.072c-0.623-0.819-3.736-4.917-3.851-5.138
					c-0.013-0.018-0.023-0.038-0.028-0.058c-0.153-0.318-0.23-0.656-0.23-1.006c0-1.294,1.062-2.346,2.368-2.346
					c0.8,0,1.471,0.547,1.887,1.129c0.415-0.583,1.085-1.129,1.886-1.129c1.306,0,2.368,1.052,2.368,2.346
					c0,0.354-0.078,0.696-0.235,1.019c-0.006,0.019-0.015,0.039-0.027,0.055c-0.11,0.211-3.223,4.309-3.847,5.127
					C16.047,18.342,15.994,18.368,15.938,18.368z M12.264,12.987c0,0.002,0.001,0.003,0.002,0.005
					c0.104,0.184,2.2,2.957,3.672,4.893c1.471-1.936,3.566-4.709,3.671-4.896c0,0,0,0,0-0.001c0.001-0.002,0.003-0.005,0.004-0.009
					c0.141-0.279,0.213-0.576,0.213-0.884c0-1.092-0.9-1.981-2.003-1.981c-0.758,0-1.405,0.642-1.729,1.191
					c-0.065,0.111-0.249,0.111-0.314,0c-0.324-0.549-0.971-1.191-1.729-1.191c-1.104,0-2.003,0.889-2.003,1.981
					c0,0.309,0.071,0.605,0.211,0.884C12.261,12.982,12.263,12.984,12.264,12.987z"/>
			</g>
		</g>
	</g>
</g>
</svg>
