<?xml version="1.0" encoding="utf-8"?>
<!-- Generator: Adobe Illustrator 16.0.0, SVG Export Plug-In . SVG Version: 6.00 Build 0)  -->
<!DOCTYPE svg PUBLIC "-//W3C//DTD SVG 1.1//EN" "http://www.w3.org/Graphics/SVG/1.1/DTD/svg11.dtd">
<svg version="1.1" id="Layer_1" xmlns="http://www.w3.org/2000/svg" xmlns:xlink="http://www.w3.org/1999/xlink" x="0px" y="0px"
	 width="32px" height="32px" viewBox="0 0 32 32" enable-background="new 0 0 32 32" xml:space="preserve">
<g>
	<g>
		<g>
			<g>
				<g>
					<path d="M27.248,23.049H4.771c-0.706,0-1.278-0.574-1.278-1.279V6.604c0-0.705,0.573-1.278,1.278-1.278h22.476
						c0.706,0,1.279,0.574,1.279,1.278V21.77C28.526,22.476,27.953,23.049,27.248,23.049z M4.771,5.692
						c-0.504,0-0.914,0.41-0.914,0.913V21.77c0,0.503,0.41,0.914,0.914,0.914h22.476c0.504,0,0.914-0.41,0.914-0.914V6.604
						c0-0.502-0.409-0.913-0.914-0.913H4.771z"/>
				</g>
			</g>
			<g>
				<g>
					<path d="M28.344,21.125H3.676c-0.102,0-0.183-0.082-0.183-0.182s0.081-0.183,0.183-0.183h24.668
						c0.102,0,0.183,0.083,0.183,0.183S28.445,21.125,28.344,21.125z"/>
				</g>
			</g>
			<g>
				<g>
					<g>
						<path d="M11.101,26.286c-0.039,0-0.078-0.013-0.111-0.038c-0.081-0.062-0.094-0.177-0.033-0.256l2.511-3.243
							c0.062-0.079,0.176-0.094,0.257-0.032c0.079,0.062,0.094,0.177,0.032,0.256l-2.511,3.242
							C11.21,26.262,11.156,26.286,11.101,26.286z"/>
					</g>
				</g>
				<g>
					<g>
						<path d="M20.918,26.286c-0.055,0-0.109-0.024-0.146-0.071l-2.511-3.242c-0.062-0.079-0.047-0.194,0.033-0.256
							c0.08-0.062,0.195-0.047,0.256,0.032l2.511,3.243c0.062,0.079,0.048,0.194-0.033,0.256
							C20.997,26.273,20.958,26.286,20.918,26.286z"/>
					</g>
				</g>
			</g>
			<g>
				<g>
					<path d="M22.859,26.514H9.16c-0.1,0-0.183-0.082-0.183-0.183c0-0.101,0.083-0.183,0.183-0.183h13.699
						c0.101,0,0.184,0.082,0.184,0.183C23.042,26.432,22.959,26.514,22.859,26.514z"/>
				</g>
			</g>
		</g>
		<g>
			<g>
				<g>
					<path d="M17.564,13.783c-0.051,0-0.104-0.022-0.14-0.064c-0.064-0.078-0.056-0.192,0.021-0.258l4.629-3.918
						c0.076-0.064,0.192-0.055,0.257,0.021c0.066,0.077,0.056,0.192-0.021,0.257l-4.628,3.919
						C17.648,13.77,17.606,13.783,17.564,13.783z"/>
				</g>
				<g>
					<path d="M16.01,15.11c-0.042,0-0.085-0.015-0.119-0.044l-1.556-1.326c-0.077-0.066-0.085-0.182-0.02-0.258
						c0.066-0.077,0.181-0.085,0.258-0.02l1.437,1.226l1.436-1.226c0.077-0.065,0.192-0.057,0.258,0.02
						c0.065,0.076,0.056,0.192-0.021,0.258l-1.555,1.326C16.094,15.096,16.052,15.11,16.01,15.11z"/>
				</g>
				<g>
					<path d="M14.454,13.783c-0.042,0-0.083-0.014-0.118-0.042L9.708,9.822C9.631,9.757,9.621,9.641,9.687,9.564
						s0.18-0.086,0.257-0.021l4.629,3.918c0.077,0.066,0.086,0.18,0.021,0.258C14.558,13.761,14.506,13.783,14.454,13.783z"/>
				</g>
				<g>
					<path d="M9.827,17.702c-0.053,0-0.104-0.022-0.14-0.064c-0.065-0.078-0.056-0.192,0.021-0.258l4.628-3.918
						c0.077-0.064,0.192-0.056,0.258,0.021c0.064,0.076,0.056,0.192-0.021,0.258l-4.629,3.918
						C9.91,17.688,9.868,17.702,9.827,17.702z"/>
				</g>
				<g>
					<path d="M22.192,17.702c-0.041,0-0.083-0.014-0.117-0.043l-4.629-3.918c-0.077-0.065-0.086-0.182-0.021-0.258
						c0.065-0.077,0.181-0.086,0.258-0.021l4.628,3.918c0.077,0.066,0.087,0.18,0.021,0.258
						C22.296,17.68,22.245,17.702,22.192,17.702z"/>
				</g>
			</g>
			<g>
				<path d="M22.193,17.702H9.826c-0.101,0-0.183-0.082-0.183-0.183V9.682c0-0.101,0.082-0.183,0.183-0.183h12.367
					c0.102,0,0.183,0.082,0.183,0.183v7.837C22.375,17.62,22.294,17.702,22.193,17.702z M10.009,17.337H22.01V9.865H10.009V17.337z"
					/>
			</g>
		</g>
	</g>
</g>
</svg>
