<?xml version="1.0" encoding="utf-8"?>
<!-- Generator: Adobe Illustrator 16.0.0, SVG Export Plug-In . SVG Version: 6.00 Build 0)  -->
<!DOCTYPE svg PUBLIC "-//W3C//DTD SVG 1.1//EN" "http://www.w3.org/Graphics/SVG/1.1/DTD/svg11.dtd">
<svg version="1.1" id="Layer_1" xmlns="http://www.w3.org/2000/svg" xmlns:xlink="http://www.w3.org/1999/xlink" x="0px" y="0px"
	 width="32px" height="32px" viewBox="0 0 32 32" enable-background="new 0 0 32 32" xml:space="preserve">
<g>
	<g>
		<g>
			<g>
				<g>
					<path d="M27.208,22.821H4.731c-0.705,0-1.278-0.574-1.278-1.278V6.376c0-0.705,0.573-1.278,1.278-1.278h22.476
						c0.705,0,1.279,0.573,1.279,1.278v15.166C28.486,22.247,27.913,22.821,27.208,22.821z M4.731,5.463
						c-0.504,0-0.914,0.41-0.914,0.913v15.166c0,0.503,0.41,0.913,0.914,0.913h22.476c0.504,0,0.914-0.41,0.914-0.913V6.376
						c0-0.503-0.41-0.913-0.914-0.913H4.731z"/>
				</g>
			</g>
			<g>
				<g>
					<path d="M30.522,26.743c-0.002-0.001-0.005-0.001-0.007,0H1.424c-0.071,0-0.136-0.042-0.167-0.106
						c-0.029-0.064-0.019-0.14,0.027-0.194l2.159-2.558c0.035-0.041,0.086-0.064,0.14-0.064h24.773c0.054,0,0.105,0.024,0.14,0.064
						l2.132,2.526c0.046,0.034,0.077,0.087,0.077,0.149C30.706,26.66,30.623,26.743,30.522,26.743z M1.817,26.377h28.305
						l-1.851-2.192H3.667L1.817,26.377z"/>
				</g>
			</g>
			<g>
				<g>
					<path d="M28.303,20.897H3.635c-0.101,0-0.182-0.082-0.182-0.183c0-0.101,0.081-0.183,0.182-0.183h24.668
						c0.101,0,0.183,0.082,0.183,0.183C28.486,20.815,28.404,20.897,28.303,20.897z"/>
				</g>
			</g>
		</g>
		<g>
			<g>
				<g>
					<path d="M17.524,13.417c-0.052,0-0.103-0.021-0.139-0.063c-0.065-0.078-0.055-0.193,0.021-0.258l4.629-3.918
						c0.078-0.065,0.192-0.056,0.257,0.021c0.065,0.077,0.055,0.192-0.021,0.258l-4.628,3.918
						C17.608,13.404,17.566,13.417,17.524,13.417z"/>
				</g>
				<g>
					<path d="M15.97,14.745c-0.042,0-0.084-0.015-0.119-0.043l-1.556-1.327c-0.077-0.065-0.085-0.181-0.02-0.258
						c0.066-0.076,0.182-0.084,0.258-0.02l1.437,1.226l1.437-1.226c0.077-0.065,0.191-0.056,0.258,0.02
						c0.065,0.077,0.056,0.193-0.021,0.258l-1.554,1.327C16.054,14.73,16.012,14.745,15.97,14.745z"/>
				</g>
				<g>
					<path d="M14.414,13.417c-0.042,0-0.083-0.014-0.118-0.042L9.667,9.457C9.59,9.391,9.582,9.276,9.646,9.199
						c0.066-0.077,0.181-0.086,0.258-0.021l4.629,3.918c0.076,0.065,0.086,0.18,0.021,0.258
						C14.518,13.397,14.466,13.417,14.414,13.417z"/>
				</g>
				<g>
					<path d="M9.787,17.337c-0.052,0-0.104-0.022-0.141-0.064c-0.064-0.077-0.056-0.193,0.021-0.258l4.629-3.918
						c0.077-0.064,0.192-0.056,0.258,0.021c0.065,0.077,0.055,0.192-0.021,0.258l-4.629,3.918
						C9.869,17.322,9.828,17.337,9.787,17.337z"/>
				</g>
				<g>
					<path d="M22.152,17.337c-0.041,0-0.083-0.015-0.117-0.043l-4.629-3.918c-0.077-0.065-0.086-0.181-0.021-0.258
						c0.066-0.077,0.181-0.085,0.258-0.021l4.628,3.918c0.077,0.065,0.087,0.181,0.021,0.258
						C22.256,17.315,22.205,17.337,22.152,17.337z"/>
				</g>
			</g>
			<g>
				<path d="M22.152,17.337H9.786c-0.101,0-0.183-0.083-0.183-0.183V9.317c0-0.101,0.082-0.183,0.183-0.183h12.367
					c0.102,0,0.183,0.082,0.183,0.183v7.836C22.335,17.254,22.254,17.337,22.152,17.337z M9.969,16.971h12.002V9.5H9.969V16.971z"/>
			</g>
		</g>
	</g>
</g>
</svg>
