<?xml version="1.0" encoding="utf-8"?>
<!-- Generator: Adobe Illustrator 16.0.0, SVG Export Plug-In . SVG Version: 6.00 Build 0)  -->
<!DOCTYPE svg PUBLIC "-//W3C//DTD SVG 1.1//EN" "http://www.w3.org/Graphics/SVG/1.1/DTD/svg11.dtd">
<svg version="1.1" id="Layer_1" xmlns="http://www.w3.org/2000/svg" xmlns:xlink="http://www.w3.org/1999/xlink" x="0px" y="0px"
	 width="32px" height="32px" viewBox="0 0 32 32" enable-background="new 0 0 32 32" xml:space="preserve">
<g>
	<g>
		<g>
			<g>
				<path d="M21.452,29.822H10.421c-0.705,0-1.278-0.574-1.278-1.279V3.297c0-0.706,0.574-1.28,1.278-1.28h11.031
					c0.706,0,1.279,0.574,1.279,1.28v25.246C22.731,29.249,22.158,29.822,21.452,29.822z M10.421,2.383
					c-0.504,0-0.913,0.41-0.913,0.914v25.246c0,0.503,0.409,0.913,0.913,0.913h11.031c0.504,0,0.914-0.41,0.914-0.913V3.297
					c0-0.504-0.41-0.914-0.914-0.914H10.421z"/>
			</g>
		</g>
		<g>
			<g>
				<path d="M22.358,24.809H9.516c-0.101,0-0.183-0.082-0.183-0.183s0.082-0.183,0.183-0.183h12.843
					c0.101,0,0.183,0.082,0.183,0.183S22.459,24.809,22.358,24.809z"/>
			</g>
		</g>
		<g>
			<g>
				<circle cx="15.937" cy="27.221" r="0.745"/>
			</g>
		</g>
		<g>
			<g>
				<g>
					<path d="M16.97,14.148c-0.052,0-0.104-0.022-0.14-0.065c-0.065-0.077-0.056-0.191,0.021-0.257l3.073-2.601
						c0.077-0.065,0.192-0.055,0.257,0.021c0.065,0.077,0.056,0.193-0.021,0.257l-3.073,2.603
						C17.053,14.135,17.012,14.148,16.97,14.148z"/>
				</g>
			</g>
			<g>
				<g>
					<path d="M15.938,15.029c-0.042,0-0.085-0.015-0.12-0.043l-1.032-0.881c-0.077-0.066-0.086-0.181-0.021-0.258
						c0.065-0.077,0.181-0.086,0.257-0.021l0.916,0.78l0.913-0.78c0.076-0.066,0.191-0.057,0.257,0.021
						c0.066,0.077,0.057,0.192-0.02,0.258l-1.033,0.881C16.021,15.015,15.979,15.029,15.938,15.029z"/>
				</g>
			</g>
			<g>
				<g>
					<path d="M14.904,14.148c-0.041,0-0.083-0.014-0.118-0.042l-3.073-2.603c-0.077-0.064-0.087-0.18-0.021-0.257
						c0.065-0.076,0.18-0.086,0.257-0.021l3.073,2.601c0.077,0.066,0.086,0.181,0.022,0.257
						C15.007,14.126,14.956,14.148,14.904,14.148z"/>
				</g>
			</g>
			<g>
				<g>
					<path d="M11.832,16.75c-0.052,0-0.104-0.022-0.14-0.064c-0.065-0.078-0.056-0.192,0.021-0.258l3.073-2.602
						c0.078-0.065,0.192-0.055,0.258,0.022c0.064,0.077,0.055,0.192-0.022,0.258l-3.073,2.602
						C11.915,16.736,11.873,16.75,11.832,16.75z"/>
				</g>
			</g>
			<g>
				<g>
					<path d="M20.042,16.75c-0.041,0-0.083-0.014-0.117-0.042l-3.073-2.602c-0.077-0.066-0.087-0.182-0.021-0.258
						c0.065-0.077,0.18-0.087,0.257-0.022l3.073,2.602c0.077,0.065,0.087,0.18,0.021,0.258C20.146,16.728,20.095,16.75,20.042,16.75
						z"/>
				</g>
			</g>
		</g>
		<g>
			<g>
				<path d="M20.042,16.75h-8.211c-0.101,0-0.183-0.082-0.183-0.183v-5.204c0-0.101,0.082-0.183,0.183-0.183h8.211
					c0.102,0,0.183,0.082,0.183,0.183v5.204C20.226,16.669,20.144,16.75,20.042,16.75z M12.014,16.385h7.847v-4.838h-7.847V16.385z"
					/>
			</g>
		</g>
	</g>
</g>
</svg>
