<?xml version="1.0" encoding="utf-8"?>
<!-- Generator: Adobe Illustrator 16.0.0, SVG Export Plug-In . SVG Version: 6.00 Build 0)  -->
<!DOCTYPE svg PUBLIC "-//W3C//DTD SVG 1.1//EN" "http://www.w3.org/Graphics/SVG/1.1/DTD/svg11.dtd">
<svg version="1.1" id="Layer_1" xmlns="http://www.w3.org/2000/svg" xmlns:xlink="http://www.w3.org/1999/xlink" x="0px" y="0px"
	 width="32px" height="32px" viewBox="0 0 32 32" enable-background="new 0 0 32 32" xml:space="preserve">
<g>
	<g>
		<g>
			<g>
				<path d="M24.984,30.369H6.817c-0.705,0-1.279-0.574-1.279-1.279V2.75c0-0.705,0.574-1.279,1.279-1.279h18.167
					c0.705,0,1.279,0.574,1.279,1.279V29.09C26.263,29.795,25.689,30.369,24.984,30.369z M6.817,1.836
					c-0.504,0-0.914,0.409-0.914,0.913V29.09c0,0.504,0.409,0.914,0.914,0.914h18.167c0.503,0,0.914-0.409,0.914-0.914V2.75
					c0-0.504-0.41-0.913-0.914-0.913H6.817z"/>
			</g>
		</g>
		<g>
			<g>
				<circle cx="15.901" cy="27.951" r="0.746"/>
			</g>
		</g>
		<g>
			<g>
				<path d="M25.925,25.418H5.876c-0.101,0-0.183-0.082-0.183-0.183c0-0.101,0.082-0.182,0.183-0.182h20.049
					c0.101,0,0.182,0.082,0.182,0.182C26.107,25.337,26.026,25.418,25.925,25.418z"/>
			</g>
		</g>
		<g>
			<g>
				<g>
					<path d="M17.456,14.148c-0.052,0-0.103-0.022-0.14-0.065c-0.065-0.077-0.056-0.191,0.021-0.257l4.629-3.918
						c0.077-0.065,0.192-0.055,0.258,0.022c0.064,0.077,0.055,0.192-0.022,0.257l-4.629,3.919
						C17.54,14.135,17.498,14.148,17.456,14.148z"/>
				</g>
			</g>
			<g>
				<g>
					<path d="M15.901,15.476c-0.042,0-0.084-0.015-0.119-0.044l-1.555-1.326c-0.077-0.066-0.086-0.181-0.021-0.258
						c0.066-0.077,0.182-0.086,0.258-0.021l1.437,1.226l1.437-1.226c0.076-0.066,0.191-0.057,0.257,0.021
						c0.065,0.077,0.057,0.192-0.021,0.258l-1.555,1.326C15.985,15.461,15.943,15.476,15.901,15.476z"/>
				</g>
			</g>
			<g>
				<g>
					<path d="M14.346,14.148c-0.042,0-0.084-0.014-0.118-0.042l-4.629-3.919c-0.077-0.065-0.087-0.18-0.021-0.257
						c0.066-0.077,0.181-0.087,0.258-0.022l4.628,3.918c0.077,0.066,0.087,0.181,0.021,0.257
						C14.449,14.126,14.398,14.148,14.346,14.148z"/>
				</g>
			</g>
			<g>
				<g>
					<path d="M9.717,18.067c-0.052,0-0.104-0.022-0.14-0.064c-0.065-0.077-0.056-0.192,0.021-0.258l4.629-3.918
						c0.077-0.065,0.191-0.055,0.257,0.022c0.065,0.077,0.056,0.192-0.021,0.258l-4.628,3.917
						C9.801,18.053,9.759,18.067,9.717,18.067z"/>
				</g>
			</g>
			<g>
				<g>
					<path d="M22.084,18.067c-0.042,0-0.083-0.014-0.118-0.043l-4.629-3.917c-0.078-0.066-0.086-0.182-0.021-0.258
						s0.18-0.087,0.257-0.022l4.629,3.918c0.077,0.066,0.086,0.181,0.022,0.258C22.187,18.044,22.136,18.067,22.084,18.067z"/>
				</g>
			</g>
		</g>
		<g>
			<g>
				<path d="M22.084,18.067H9.717c-0.101,0-0.183-0.082-0.183-0.182v-7.837c0-0.101,0.082-0.182,0.183-0.182h12.367
					c0.101,0,0.183,0.081,0.183,0.182v7.837C22.267,17.985,22.186,18.067,22.084,18.067z M9.9,17.702h12.002V10.23H9.9V17.702z"/>
			</g>
		</g>
	</g>
</g>
</svg>
