<?xml version="1.0" encoding="utf-8"?>
<!-- Generator: Adobe Illustrator 16.0.0, SVG Export Plug-In . SVG Version: 6.00 Build 0)  -->
<!DOCTYPE svg PUBLIC "-//W3C//DTD SVG 1.1//EN" "http://www.w3.org/Graphics/SVG/1.1/DTD/svg11.dtd">
<svg version="1.1" id="Layer_1" xmlns="http://www.w3.org/2000/svg" xmlns:xlink="http://www.w3.org/1999/xlink" x="0px" y="0px"
	 width="32px" height="32px" viewBox="0 0 32 32" enable-background="new 0 0 32 32" xml:space="preserve">
<g>
	<g>
		<g>
			<g>
				<path d="M19.496,22.982h-8.214c-1.107,0-2.009-0.901-2.009-2.009V10.868c0-1.108,0.901-2.009,2.009-2.009h8.214
					c1.107,0,2.009,0.901,2.009,2.009v10.105C21.504,22.081,20.603,22.982,19.496,22.982z M11.281,9.224
					c-0.907,0-1.644,0.737-1.644,1.644v10.105c0,0.906,0.737,1.644,1.644,1.644h8.214c0.906,0,1.644-0.738,1.644-1.644V10.868
					c0-0.907-0.738-1.644-1.644-1.644H11.281z"/>
			</g>
		</g>
		<g>
			<g>
				<path d="M22.637,14.499c-0.101,0-0.183-0.081-0.183-0.183V12.03c0-0.101,0.082-0.182,0.183-0.182s0.183,0.082,0.183,0.182v2.286
					C22.819,14.418,22.738,14.499,22.637,14.499z"/>
			</g>
		</g>
		<g>
			<g>
				<path d="M19.128,7.876c-0.101,0-0.182-0.082-0.182-0.182V5.15c0-0.302-0.247-0.547-0.549-0.547h-6.018
					c-0.302,0-0.548,0.246-0.548,0.547v2.544c0,0.101-0.082,0.182-0.183,0.182c-0.101,0-0.183-0.082-0.183-0.182V5.15
					c0-0.503,0.409-0.913,0.913-0.913h6.018c0.504,0,0.914,0.41,0.914,0.913v2.544C19.312,7.795,19.229,7.876,19.128,7.876z"/>
			</g>
		</g>
		<g>
			<g>
				<path d="M18.397,27.603h-6.018c-0.504,0-0.913-0.409-0.913-0.913v-2.543c0-0.101,0.082-0.183,0.183-0.183
					c0.101,0,0.183,0.082,0.183,0.183v2.543c0,0.302,0.246,0.548,0.548,0.548h6.018c0.302,0,0.549-0.246,0.549-0.548v-2.543
					c0-0.101,0.082-0.183,0.182-0.183s0.183,0.082,0.183,0.183v2.543C19.312,27.193,18.901,27.603,18.397,27.603z"/>
			</g>
		</g>
		<g>
			<g>
				<g>
					<g>
						<path d="M16.256,16.103c-0.052,0-0.104-0.021-0.139-0.064c-0.065-0.078-0.056-0.192,0.021-0.258l2.583-2.187
							c0.078-0.065,0.193-0.055,0.258,0.021c0.065,0.078,0.055,0.193-0.021,0.258l-2.583,2.187
							C16.34,16.088,16.298,16.103,16.256,16.103z"/>
					</g>
				</g>
				<g>
					<g>
						<path d="M15.388,16.843c-0.042,0-0.084-0.015-0.118-0.043l-0.868-0.74c-0.076-0.065-0.086-0.18-0.021-0.258
							c0.066-0.077,0.181-0.086,0.258-0.02l0.749,0.639l0.75-0.639c0.077-0.065,0.192-0.057,0.257,0.02
							c0.066,0.077,0.057,0.192-0.02,0.258l-0.868,0.74C15.473,16.828,15.431,16.843,15.388,16.843z"/>
					</g>
				</g>
				<g>
					<g>
						<path d="M14.521,16.103c-0.042,0-0.083-0.015-0.118-0.043l-2.583-2.187c-0.077-0.065-0.087-0.181-0.021-0.258
							c0.066-0.076,0.181-0.086,0.257-0.021l2.583,2.187c0.077,0.065,0.087,0.18,0.021,0.258
							C14.624,16.081,14.573,16.103,14.521,16.103z"/>
					</g>
				</g>
				<g>
					<g>
						<path d="M11.938,18.29c-0.052,0-0.104-0.022-0.14-0.064c-0.065-0.077-0.056-0.193,0.021-0.258l2.583-2.187
							c0.077-0.065,0.192-0.055,0.257,0.021c0.065,0.078,0.056,0.193-0.021,0.258l-2.583,2.187
							C12.021,18.275,11.979,18.29,11.938,18.29z"/>
					</g>
				</g>
				<g>
					<g>
						<path d="M18.84,18.29c-0.042,0-0.083-0.015-0.119-0.043l-2.583-2.187c-0.077-0.065-0.086-0.18-0.021-0.258
							c0.064-0.077,0.18-0.086,0.257-0.021l2.583,2.187c0.077,0.065,0.087,0.181,0.021,0.258
							C18.943,18.268,18.891,18.29,18.84,18.29z"/>
					</g>
				</g>
			</g>
			<g>
				<g>
					<path d="M18.84,18.29h-6.902c-0.101,0-0.183-0.082-0.183-0.183v-4.374c0-0.102,0.083-0.183,0.183-0.183h6.902
						c0.101,0,0.182,0.082,0.182,0.183v4.374C19.022,18.208,18.941,18.29,18.84,18.29z M12.12,17.924h6.537v-4.009H12.12V17.924z"/>
				</g>
			</g>
		</g>
	</g>
</g>
</svg>
