<?xml version="1.0" encoding="utf-8"?>
<!-- Generator: Adobe Illustrator 16.0.0, SVG Export Plug-In . SVG Version: 6.00 Build 0)  -->
<!DOCTYPE svg PUBLIC "-//W3C//DTD SVG 1.1//EN" "http://www.w3.org/Graphics/SVG/1.1/DTD/svg11.dtd">
<svg version="1.1" id="Layer_1" xmlns="http://www.w3.org/2000/svg" xmlns:xlink="http://www.w3.org/1999/xlink" x="0px" y="0px"
	 width="100px" height="100px" viewBox="0 0 100 100" enable-background="new 0 0 100 100" xml:space="preserve">
<g>
	<path fill-rule="evenodd" clip-rule="evenodd" d="M15.776,68.468c0-7.553-0.045-15.105,0.013-22.658
		c0.049-6.449,0.209-12.895,0.342-19.343c0.011-0.461,0.168-0.931,0.328-1.373c0.382-1.063,1.137-2.112,1.144-3.17
		c0.011-2.003,0.989-3.579,1.753-5.255c0.988-2.173,2.13-4.279,3.164-6.434c0.189-0.396,0.297-0.898,0.25-1.33
		c-0.149-1.386,0.373-2.172,1.768-2.265c3.735-0.25,7.471-0.587,11.211-0.63c8.296-0.094,16.594-0.058,24.891-0.018
		c4.748,0.022,9.499,0.176,14.248,0.215c0.778,0.007,1.068,0.357,1.305,0.979c1.381,3.607,2.793,7.203,4.162,10.814
		c0.871,2.293,1.752,4.585,2.505,6.918c0.407,1.263,0.766,2.606,0.787,3.919c0.087,5.328-0.064,10.659,0.063,15.984
		c0.135,5.621,0.636,11.236,0.709,16.855c0.128,9.914,0.055,19.829,0.055,29.743c0.003,1.979-0.053,2.044-1.947,2.355
		c-0.855,0.14-1.728,0.246-2.594,0.247c-10.875,0.017-21.751,0.054-32.626-0.01c-3.917-0.022-7.833-0.4-11.75-0.424
		c-3.044-0.017-6.088,0.318-9.135,0.397c-3.055,0.08-6.113,0.056-9.171,0.041c-1.358-0.006-1.74-0.438-1.74-1.842
		c-0.004-7.904-0.002-15.81-0.002-23.716C15.598,68.468,15.687,68.468,15.776,68.468z M20.284,63.667
		c1.135,0.135,2.223,0.34,3.314,0.375c1.961,0.062,3.921,0.026,5.882,0.019c7.033-0.022,14.064-0.048,21.096-0.075
		c0.305-0.001,0.609-0.012,0.913-0.042c3.27-0.329,6.534-0.795,9.811-0.966c5.781-0.302,11.573-0.433,17.36-0.61
		c1.011-0.031,1.436-0.351,1.408-1.47c-0.094-4.016-0.086-8.034-0.103-12.052c-0.015-3.231-0.013-6.463-0.015-9.695
		c-0.003-4.29,0-8.579,0-13.086c-1.57,0-3.04,0.005-4.51-0.001c-5.888-0.027-11.78-0.18-17.666-0.06
		c-11.473,0.237-22.942,0.624-34.413,0.953c-1.839,0.052-3.072,1.349-3.072,3.233c-0.004,10.526-0.004,21.053-0.004,31.58
		C20.284,62.334,20.284,62.901,20.284,63.667z M18.671,88.715c5.323,0,10.394,0,15.428,0c0.106-1.781,0.275-3.341,0.277-4.903
		c0.007-2.348-0.13-4.694-0.151-7.042c-0.009-0.981-0.535-1.134-1.342-1.112c-2.57,0.067-5.144,0.118-7.714,0.148
		c-2.003,0.023-4.008,0.004-6.291,0.004c-0.072,1.04-0.191,1.995-0.198,2.95C18.656,82.073,18.671,85.386,18.671,88.715z
		 M79.972,67.331c-2.523,0-5.079-0.052-7.63,0.017c-1.905,0.052-3.802,0.336-5.707,0.386c-3.343,0.088-6.691,0.019-10.034,0.119
		c-5.084,0.151-10.163,0.48-15.247,0.573c-6.722,0.122-13.445,0.105-20.167,0.104c-1.026,0-1.459,0.395-1.428,1.368
		c0.026,0.766,0.212,1.282,1.203,1.286c8.414,0.024,16.827,0.147,25.241,0.142c10.216-0.006,20.432-0.115,30.646-0.168
		C80.324,71.137,80.324,71.152,79.972,67.331z M74.086,89.08c0.003,0.034,0.003,0.067,0.003,0.1c1.439,0,2.891-0.111,4.315,0.032
		c1.395,0.14,1.781-0.595,1.9-1.713c0.056-0.518,0.015-1.046,0.03-1.57c0.051-1.785,0.145-3.568,0.149-5.352
		c0.004-1.461-0.032-2.93-0.196-4.378c-0.036-0.327-0.675-0.831-1.041-0.838c-3.45-0.064-6.899-0.03-10.351-0.044
		c-0.751-0.003-1.142,0.307-1.182,1.062c-0.081,1.429-0.218,2.859-0.241,4.289c-0.039,2.181-0.018,4.363,0.013,6.546
		c0.02,1.297,0.645,1.942,2.018,1.882C71.029,89.028,72.559,89.08,74.086,89.08z M45.476,88.852c3.833,0,7.526,0,11.161,0
		c0-3.999,0-7.98,0-11.896c-3.863,0-7.633,0-11.754,0C45.085,81.004,45.274,84.842,45.476,88.852z M37.194,21.105
		c1.367-0.084,2.621-0.09,3.846-0.287c0.318-0.051,0.758-0.694,0.771-1.077c0.074-2.224,0.066-4.452,0.004-6.677
		c-0.008-0.368-0.369-0.991-0.648-1.041c-1.329-0.237-2.684-0.317-3.972-0.446C37.194,14.89,37.194,17.96,37.194,21.105z
		 M60.922,75.129c-0.128,1.968-0.352,3.734-0.33,5.498c0.029,2.436,0.232,4.871,0.388,7.304c0.056,0.862,0.434,1.377,1.434,1.164
		c0.405-0.087,0.847-0.015,1.201-0.015c0-4.63,0-9.122,0-13.624C62.667,75.341,61.938,75.252,60.922,75.129z M37.405,76.637
		c-0.038,3.311-0.182,6.303-0.079,9.285c0.088,2.48,1.15,3.208,3.521,2.605c0-3.764,0-7.574,0-11.529
		C39.878,76.896,38.873,76.79,37.405,76.637z M69.167,20.187c0-2.77,0-5.534,0-8.507c-1.094,0-2.044-0.03-2.988,0.01
		c-0.659,0.029-1.158,0.254-1.146,1.097c0.036,2.219-0.016,4.44,0.034,6.659c0.025,1.161,0.548,1.516,1.711,1.288
		C67.495,20.594,68.201,20.41,69.167,20.187z M49.027,20.538c0-2.295-0.009-4.465,0.002-6.634c0.018-3.107,0.043-2.364-2.547-2.422
		c-1.03-0.023-1.444,0.622-1.444,1.459c0,2.042,0.094,4.087,0.2,6.128c0.052,1.008,0.513,1.802,1.647,1.78
		C47.691,20.834,48.494,20.621,49.027,20.538z M61.972,20.592c-0.218-3.006-0.429-5.943-0.648-8.966
		c-0.569-0.042-1.126-0.116-1.686-0.122c-1.066-0.009-1.646,0.334-1.572,1.616c0.124,2.129,0.081,4.271,0.016,6.406
		c-0.028,0.947,0.437,1.296,1.224,1.285C60.286,20.798,61.266,20.655,61.972,20.592z M72.436,11.202
		c-0.288,3.248-0.45,6.052,0.068,8.837c0.198,1.054,1.182,1.295,2.848,0.977c0.994-0.19,0.992-1.014,0.821-1.627
		c-0.685-2.486-1.462-4.948-2.289-7.39C73.783,11.705,73.167,11.588,72.436,11.202z M33.789,21.122
		c-0.181-3.169-0.358-6.251-0.528-9.206c-1.101,0-2.148,0-2.91,0c0,3.174,0,6.185,0,9.206
		C31.699,21.122,32.762,21.122,33.789,21.122z M51.937,11.53c0.092,0.821,0.254,1.613,0.254,2.404
		c0.003,2.001-0.042,4.003-0.121,6.001c-0.038,0.952,0.602,1.163,1.248,1.09c0.499-0.056,1.358-0.48,1.367-0.765
		c0.103-2.894,0.064-5.793,0.064-8.731C53.627,11.53,52.722,11.53,51.937,11.53z M27.062,14.311
		c-0.141-0.014-0.279-0.028-0.421-0.042c-1.099,2.338-2.197,4.677-3.4,7.238c1.491-0.113,2.771-0.21,3.821-0.289
		C27.062,18.833,27.062,16.572,27.062,14.311z"/>
	<path fill-rule="evenodd" clip-rule="evenodd" d="M61.818,40.447c0.229,3.417,0.461,6.832,0.681,10.249
		c0.104,1.622-0.931,2.895-2.561,2.975c-1.807,0.087-3.62-0.021-5.429,0.042c-2.089,0.071-4.171,0.286-6.259,0.342
		c-1.513,0.042-3.034-0.024-4.544-0.134c-1.003-0.073-1.436-0.621-1.408-1.739c0.146-5.883,0.198-11.769,0.299-17.655
		c0.025-1.511,0.636-2.081,2.148-2.079c5.141,0.011,10.282,0.024,15.423,0.042c1.347,0.005,1.781,0.427,1.794,1.795
		c0.021,2.051,0.007,4.101,0.007,6.151C61.918,40.44,61.869,40.444,61.818,40.447z M55.265,36.591
		c-1.399-0.152-1.911,0.496-1.819,1.835c0.063,0.953,0.036,1.912,0.045,2.869c0.021,2.244,0.065,4.488,0.047,6.731
		c-0.011,1.283,0.339,1.716,1.625,1.73c0.653,0.006,1.311-0.058,1.959,0.003c1.149,0.109,1.416-0.542,1.41-1.492
		c-0.018-3.253,0.002-6.507-0.079-9.758c-0.013-0.545-0.312-1.378-0.711-1.554C57.008,36.629,56.102,36.692,55.265,36.591z
		 M49.69,36.914c-1.103,0-2.263,0.032-3.422-0.011c-0.913-0.033-1.205,0.293-1.133,1.235c0.248,3.212,0.393,6.433,0.606,9.647
		c0.137,2.057,0.584,2.439,2.68,2.437c0.26-0.001,0.524-0.025,0.784,0.002c1.021,0.112,1.336-0.483,1.289-1.343
		c-0.041-0.734-0.235-1.459-0.277-2.193C50.025,43.441,49.865,40.19,49.69,36.914z"/>
	<path fill-rule="evenodd" clip-rule="evenodd" d="M23.721,44.12c0-3.004-0.004-6.009,0.002-9.015
		c0.002-1.717,0.258-1.967,1.971-1.969c1.79-0.002,3.58-0.004,5.37,0.001c2.278,0.005,3.833,1.338,3.899,3.572
		c0.137,4.534,0.189,9.072,0.224,13.61c0.011,1.475-0.479,1.919-1.941,1.944c-2.007,0.034-4.017,0.055-6.023,0.021
		c-1.873-0.032-3.209-1.348-3.254-3.192c-0.04-1.656-0.008-3.315-0.008-4.974C23.881,44.12,23.8,44.12,23.721,44.12z M30.959,48.438
		c-0.256-3.691-0.486-7.224-0.753-10.756c-0.079-1.037-0.574-1.588-1.775-1.127c0,3.691-0.017,7.382,0.034,11.072
		c0.004,0.274,0.459,0.678,0.778,0.778C29.677,48.54,30.185,48.438,30.959,48.438z"/>
	<path fill-rule="evenodd" clip-rule="evenodd" d="M76.188,51.093c-3.035,0-5.862,0.015-8.687-0.024
		c-0.263-0.004-0.695-0.312-0.751-0.55c-0.26-1.099-0.503-2.216-0.591-3.338c-0.177-2.296-0.236-4.601-0.367-6.901
		c-0.117-2.084-0.258-4.167-0.395-6.25c-0.056-0.839,0.308-1.163,1.158-1.147c2.271,0.039,4.546,0.113,6.81-0.022
		c1.511-0.089,2.204,0.729,2.289,2.325c0.218,4.084,0.211,8.18,0.315,12.271C75.998,48.583,76.103,49.708,76.188,51.093z
		 M72.42,35.951c-0.672,0.048-1.194,0.088-1.715,0.122c-0.94,0.059-1.432,0.545-1.429,1.497c0.013,3.058,0.011,6.116,0.055,9.173
		c0.011,0.611-0.023,1.345,0.979,1.343c0.896-0.001,1.688,0.101,1.954-1.126C73.052,43.336,72.823,39.721,72.42,35.951z"/>
</g>
</svg>
