<?xml version="1.0" encoding="utf-8"?>
<!-- Generator: Adobe Illustrator 16.0.0, SVG Export Plug-In . SVG Version: 6.00 Build 0)  -->
<!DOCTYPE svg PUBLIC "-//W3C//DTD SVG 1.1//EN" "http://www.w3.org/Graphics/SVG/1.1/DTD/svg11.dtd">
<svg version="1.1" id="Layer_1" xmlns="http://www.w3.org/2000/svg" xmlns:xlink="http://www.w3.org/1999/xlink" x="0px" y="0px"
	 width="100px" height="100px" viewBox="0 0 100 100" enable-background="new 0 0 100 100" xml:space="preserve">
<g>
	<g>
		<path fill-rule="evenodd" clip-rule="evenodd" d="M84.254,55.978c0.112,3.525,0.61,8.42,0.209,11.116
			c-2.832,0.703-5.754,0.613-9.02,0.21c-1.309-3.475-0.334-8.949-0.208-12.375c2.447,0,4.893,0,7.34,0
			C83.218,55.197,83.351,55.973,84.254,55.978z M78.381,58.495c-0.307,1.706-0.307,4.167,0,5.873c0.988,0.353,1.485-0.098,2.727,0
			c0.25-1.817,0.479-4.785-0.209-6.292C79.634,57.79,79.428,58.563,78.381,58.495z"/>
		<path fill-rule="evenodd" clip-rule="evenodd" d="M71.04,55.139c0.519,4.436,1.066,8.314,0.63,12.584c-3.007,0-6.013,0-9.02,0
			c-0.26-4.259-0.698-9.219,0.418-12.584C65.727,55.139,68.383,55.139,71.04,55.139z M66.426,58.285
			c-0.262,1.872-0.345,4.437,0,6.292c0.56,0,1.118,0,1.677,0c0.89-1.488,0.689-4.461,0.419-6.503
			C67.812,58.134,67.319,58.409,66.426,58.285z"/>
		<path fill-rule="evenodd" clip-rule="evenodd" d="M22.38,55.769c0.33,1.278,0.841,2.374,1.468,3.355
			c-0.527,1.78,0.127,6.181-0.419,8.6c-2.237,0.18-6.3,0.639-8.18-0.209c-0.556-3.095-1.217-8.666,0-11.746
			C17.283,55.402,19.832,55.984,22.38,55.769z M17.766,59.334c-0.034,2.131,0.182,4.012,0.419,5.873c0.629,0,1.258,0,1.887,0
			c0.565-1.447,0.654-4.449,0-5.873C19.302,58.914,18.662,59.315,17.766,59.334z"/>
		<path fill-rule="evenodd" clip-rule="evenodd" d="M34.964,56.188c0.732,3.334-0.025,8.394-0.629,11.746
			c-2.471-0.116-5.419,0.246-7.55-0.21c-0.916-3.381-0.726-8.009,0.209-11.536C29.65,56.188,32.308,56.188,34.964,56.188z
			 M30.14,64.996c2.317-0.255,1.33-4.503,1.258-6.501C28.234,57.762,28.981,64.014,30.14,64.996z"/>
		<path fill-rule="evenodd" clip-rule="evenodd" d="M29.721,18.224c1.748,0,3.496,0,5.243,0c-0.062,2.269,0.557,5.531,0.21,7.551
			c11.815,0.786,24.111,0.21,36.914,0.21c0.904,0,1.947-0.08,2.727,0c0.306,0.031,1.394,0.908,1.468,0
			c5.034,5.802,9.96,11.714,14.683,17.828c-0.53,2.145,2.049,3.192,2.518,5.034c0.407,1.601-0.202,3.475-0.21,5.244
			c-0.041,8.703,0.525,20.033,0,27.476c-27.151,0.152-55.241,0.197-83.479,0.21c-0.842-0.604-1.868-1.375-3.146-1.468
			c0.217-10.465-0.28-20.791,0-31.252c0.034-1.287-0.437-2.828-0.209-3.775c0.365-1.523,2.76-3.471,3.985-5.244
			c3.802-5.5,7.983-10.065,12.585-14.682c1.459,0.284,3.456,0.191,5.664,0.209C28.95,23.242,27.845,19.567,29.721,18.224z
			 M31.817,25.565c0.27-1.391,0.653-4.705-0.629-5.244C31.024,21.641,31.201,24.336,31.817,25.565z M32.238,30.18
			c-0.638,5.071,0.218,10.162-0.84,15.311c0.816,0.462,2.185-0.066,2.727,0c-0.468-4.208,0.087-10.177,0.209-15.102
			C33.442,30.513,32.948,30.238,32.238,30.18z M25.315,30.389c-0.607,5.076,1.032,10.924-0.208,15.102
			c0.565,0.413,1.833,0.125,2.727,0.21c-0.003-5.177,0.661-9.686,0.419-15.102C27.625,30.177,26.273,30.48,25.315,30.389z
			 M37.271,45.91c0.952-0.237,2.877,0.5,3.146-0.419c-0.28-0.057-0.975-0.242-1.048-1.049c0.648-4.516,0.279-9.191,0-13.843
			c-0.419,0-0.84,0-1.259,0C37.693,35.935,38.542,41.763,37.271,45.91z M45.451,30.809c-0.073-0.262-1.208,0.172-1.887,0
			c0.323,5.237-0.106,10.077,0.209,15.102c0.7,0,1.398,0,2.098,0C45.593,41.014,46.427,35.007,45.451,30.809z M50.066,45.91
			c0.775-0.134,2.09,0.271,2.516-0.209c-1.122-4.247-0.697-10.619-0.629-14.892c-0.629,0-1.258,0-1.887,0
			C49.898,36.931,50.463,41.329,50.066,45.91z M55.939,45.91c1.305-0.022,2.309-0.348,3.775-0.209
			c0.39-5.397-0.128-9.577-0.419-14.683c-0.628-0.421-1.979-0.118-2.937-0.209C55.572,35.939,57.356,42.039,55.939,45.91z
			 M63.49,31.018c0.094,4.566,1.398,10.142,0.209,14.473c1.118,0,2.237,0,3.356,0c0.183-0.812-0.915-0.343-0.629-1.259
			c-0.009-4.484-0.294-9.878-0.419-13.423C65.175,30.886,63.996,30.617,63.49,31.018z M70.202,31.018
			c-0.125,4.152,1.463,10.871,0,14.473c0.626,0.422,1.979,0.119,2.937,0.21c-0.415-4.873,0.475-10.401-0.629-14.892
			C71.921,31.06,71.062,31.04,70.202,31.018z M77.542,45.701c1.049,0,2.098,0,3.146,0c-0.092-2.527,0.062-6.278,0-9.439
			c-1.166-1.278-2.249-2.544-3.565-3.146C77.261,37.602,77.74,41.894,77.542,45.701z M18.604,36.891
			c1.006,2.032,0.796,6.292,0.839,8.6c1.187,0.11,1.255,0.037,2.517,0c-0.495-2.412,0.331-6.59,0-10.068
			c-0.066-0.69-0.023-1.768-0.63-1.887C21.269,34.665,19.324,35.722,18.604,36.891z M13.78,42.764
			c-0.742,0.967-2.086,2.084-1.677,2.937c0.772-0.485,2.444-0.073,3.565-0.21c0.304-1.468,0.771-4.928,0.209-5.873
			C15.534,40.732,14.565,41.741,13.78,42.764z M84.254,46.12c1.257,0.158,2.097-0.57,2.937-0.21
			c-1.114-1.403-1.58-3.454-3.146-4.405C84.084,43.074,83.908,44.858,84.254,46.12z M14.199,50.524
			c-0.741-0.021-2.478-0.043-3.566,0.42c0.509,7.436-0.767,17.644,0.63,25.798c9.243,0.711,19.536,0.403,28.944,0.42
			c0.824-6.378-1.239-11.779,0-17.619c0.823-3.879,5.507-6.635,9.438-6.292c2.94,0.256,7.885,4.096,8.599,6.502
			c0.958,3.232-0.013,9.358,0,13.214c0.004,1.414,0.617,3-0.419,3.985c9.296-0.147,20.397-0.287,31.461-0.209
			c1.113-8.396,0.24-16.867,0-25.589C65.379,50.3,37.323,51.188,14.199,50.524z M54.261,60.592c-0.47-1.639-3.184-2.896-4.614-3.146
			c-2.76-0.483-4.542,1.528-5.664,3.356c0.47,4.067,0.16,10.813,0.21,16.361c3.465-0.1,7.501,0.369,10.068-0.63
			C53.296,71.202,55.568,65.149,54.261,60.592z"/>
	</g>
</g>
</svg>
