<?xml version="1.0" encoding="utf-8"?>
<!-- Generator: Adobe Illustrator 16.0.0, SVG Export Plug-In . SVG Version: 6.00 Build 0)  -->
<!DOCTYPE svg PUBLIC "-//W3C//DTD SVG 1.1//EN" "http://www.w3.org/Graphics/SVG/1.1/DTD/svg11.dtd">
<svg version="1.1" id="Layer_1" xmlns="http://www.w3.org/2000/svg" xmlns:xlink="http://www.w3.org/1999/xlink" x="0px" y="0px"
	 width="100px" height="100px" viewBox="0 0 100 100" enable-background="new 0 0 100 100" xml:space="preserve">
<g>
	<g>
		<path d="M94.153,91.977c-30.436,0.016-56.891,1.62-87.627,0.443C5.897,70.181,6.679,44.428,6.304,22.855
			c2.534-4.228,3.678-9.848,7.803-12.486c22.518-1.452,48.73-0.216,73.135-0.223c2.766,4.667,4.064,10.799,6.689,15.608
			C93.833,46.088,94.431,73.028,94.153,91.977z M14.554,14.383c-1.205,2.585-2.154,5.428-3.346,8.027
			c23.675-0.425,51.465,0.057,76.479-0.446c-0.75-1.867-2.205-4.918-3.121-7.358C61.716,15.061,37.646,13.482,14.554,14.383z
			 M89.024,31.329c-0.006-1.144,0.611-3.245-0.891-3.791c-1.061-1.219-2.914-0.669-4.238-0.669c-26.334,0-49.457,0.437-72.91,0.669
			c0.881,2.11,0.336,5.299,0.445,8.473c0.33,9.543,0.164,19.946,0.446,28.095c24.616-1.288,51.069-0.719,77.147-0.445
			C88.983,53.317,89.081,41.519,89.024,31.329z M11.877,68.118c0.104,6.957-0.878,14.442,0.224,20.515c0.52,0,1.039,0,1.561,0
			c1.736-4.654-0.201-12.985,3.566-15.607c5.689-3.321,15.59-1.678,16.5,4.905c-0.802,2.484,0.104,6.795-0.223,10.258
			c2.197,0.618,5.295,0.646,7.357,0c0.338-4.23-0.821-8.659-0.221-12.934c2.68-5.571,13.328-5.061,18.061-1.784
			c0.754,1.328,1.393,2.772,1.783,4.46c-0.531,3.033,0.502,7.879,0,9.588c1.678,0.927,4.791,0.45,7.137,0.225
			c-0.439-4.097-0.135-8.937-0.225-13.379c1.619-1.348,3.061-2.959,5.797-3.568c4.121-0.918,10.631,0.492,12.041,3.568
			c1.572,3.428-0.592,8.709,0.893,12.709c0.967,0,1.932,0,2.898,0c0.041-6.748-0.211-13.084,0-18.729
			C63.687,67.86,37.478,67.958,11.877,68.118z M81.22,76.815c-2.76-2.328-8.211-2.146-10.479,0.444
			c-0.059,3.437,0.168,7.155-0.223,10.258c2.898,0.594,8.281,0.212,11.816,0C81.726,83.711,82.972,79.79,81.22,76.815z
			 M44.876,77.038c-1.132,3.047-0.009,9.42-0.223,11.148c3.217,0.641,8.869,0.389,12.264-0.225
			c0.215-3.905-0.107-9.071-2.006-11.594C52.165,75.07,46.672,74.525,44.876,77.038z M27.931,76.815
			c-3.127-2.718-9.389-1.056-10.257,2.451c0,3.049,0,6.096,0,9.143c3.474-0.678,8.693,0.616,12.263-0.668
			C29.442,84.543,30.188,78.909,27.931,76.815z M68.735,86.624C68.88,86.771,68.642,86.532,68.735,86.624L68.735,86.624z"/>
		<path d="M21.688,30.436c1.498,2.783,0.422,8.82,1.561,11.594c-0.415,2.713-7.186,2.704-8.695,0.893
			c0.391-4.327-0.473-9.8,0.891-12.933C17.306,29.502,20.302,29.715,21.688,30.436z M17.451,40.916c0.817,0.154,1.694,0.385,2.452,0
			c0-2.602,0-5.203,0-7.804C15.81,31.588,17.985,38.149,17.451,40.916z"/>
		<path d="M65.39,40.916c0.262-0.036,0.189-0.406,0.223-0.669c0.529,0.949-0.49,2.537-0.223,3.344
			c-1.906,0.332-5.092,0.451-6.688-0.222c-0.607-3.917,0.148-8.709,0-12.264c1.045-1.407,3.541-1.364,6.02-1.338
			C67.614,31.654,64.821,36.708,65.39,40.916z M61.153,32.889c0,2.676,0,5.351,0,8.027c0.631,0.274,1.377,0.274,2.008,0
			c0-2.751,0-5.5,0-8.25C62.567,32.432,61.448,32.246,61.153,32.889z"/>
		<path d="M33.06,30.659c0.543,1.639,0.238,4.696,0.444,7.581c0.154,2.145,1.188,4.353,0,5.574c-2.03,0.368-5.55,0.368-7.581,0
			c-0.16-4.064-1.178-9.438-0.222-13.155C28.039,29.995,31.11,29.607,33.06,30.659z M28.376,40.916
			c0.782,0.109,1.452,0.332,2.453,0.223c0.506-2.244,0.083-5.417,0.223-8.027C26.69,31.393,28.897,38.061,28.376,40.916z"/>
		<path d="M44.431,42.923c-0.08,0.082-0.336-0.158-0.223-0.223c-1.514,0.884-3.568,1.889-6.689,1.337
			c-1.342-3.183-0.426-8.245-1.113-12.486c1.699-1.974,6.939-1.678,8.472,0.223C44.513,35.72,45.335,39.497,44.431,42.923z
			 M39.748,33.781c-0.502,1.875-0.087,4.67-0.224,6.913c0.793,0.362,2.131,0.294,2.677-0.223c0-2.23,0-4.459,0-6.689
			C41.565,33.174,40.448,33.328,39.748,33.781z"/>
		<path d="M54.911,43.146c-1.178,1.202-3.9,0.857-6.244,0.892c-1.146-2.746-1.048-7.992-1.113-12.486
			c0.944-1.209,2.85-1.46,5.127-1.338c1.262,0.248,1.518,1.843,2.453,1.784C55.095,34.704,55.849,40.876,54.911,43.146z
			 M50.675,40.47c0.629,0.275,1.375,0.275,2.006,0c0-2.453,0-4.905,0-7.358C49.126,31.806,51.237,38.048,50.675,40.47z
			 M53.349,34.004C53.497,34.15,53.255,33.911,53.349,34.004L53.349,34.004z"/>
		<path d="M74.53,30.659c1.246,4.324,0.506,9.156,0.447,12.932c-1.479,0.646-4.541,0.646-6.021,0
			c-0.867-3.981,0.127-8.087-0.668-12.709C69.897,29.474,72.821,30.646,74.53,30.659z M70.741,32.666
			c0.141,2.611-0.283,5.785,0.223,8.027c0.812,0.069,1.453-0.036,2.008-0.223c-0.264-2.561,0.549-6.197-0.445-8.027
			C72.233,31.954,71.319,32.706,70.741,32.666z"/>
		<path d="M85.233,31.105c-0.143,4.017,0.293,8.615-0.223,12.264c-1.176,1.049-5.574,1.068-6.467-0.223
			c0.854-4.077-1.227-7.81-0.668-12.041C80.06,30.247,83.405,30.697,85.233,31.105z M80.999,33.335
			c-0.381,2.092-0.359,5.708,0,7.804c0.172,0.049,0.438,0.005,0.445,0.222c2.945-1.021,0.951-4.619,1.115-8.25
			C81.966,33.114,81.286,33.028,80.999,33.335z"/>
		<path d="M44.431,42.923C44.7,42.9,44.567,43.246,44.431,42.923L44.431,42.923z"/>
		<path d="M23.918,48.274c-0.985,3.721,0.495,8.627-0.669,12.262c-1.247,0.562-4.643,0.729-6.912,0.446
			c-1.693-2.69-0.673-8.096-1.115-12.04C15.983,46.134,22.011,47.071,23.918,48.274z M17.674,50.504c0,2.526,0,5.054,0,7.583
			c0.839,0.328,2.507,0.328,3.345,0c0-2.604,0-5.202,0-7.804C20.04,49.703,18.647,50.361,17.674,50.504z"/>
		<path d="M33.951,47.382c0.312,2.511,1.106,9.097,0.223,12.71c-0.416,1.033-3.577,0.914-6.243,0.891
			c-0.027-0.566-0.324-0.863-0.892-0.891c-0.154-3.575,0.276-8.415-0.446-11.595C27.742,46.953,31.513,46.899,33.951,47.382z
			 M29.269,58.308c0.758,0.385,1.635,0.153,2.453,0c0-2.526,0-5.056,0-7.581C27.774,48.334,29.11,55.886,29.269,58.308z"/>
		<path d="M45.099,59.87c-1.49,1.269-3.025,1.125-5.797,1.113c-0.359-0.531-0.613-1.17-1.337-1.337
			c-0.563-3.933,0.333-7.313-0.446-11.372c0.672-1.568,5.449-1.543,6.689-0.446C46.874,50.113,44.383,56.25,45.099,59.87z
			 M39.972,50.281c-0.041,1.529,0.029,4.874,0,7.133c0.832,0.283,1.315,0.916,2.674,0.67c0.918-1.758,0.237-5.114,0.446-7.582
			C42.276,50.272,40.89,49.699,39.972,50.281z"/>
		<path d="M56.472,47.16c0.328,3.936-0.652,9.75,0.445,12.709c-1.562,1.193-5.594,1.726-7.805,0.445
			c-0.094-3.545-0.223-10.021,0.668-12.933c0.182-0.042,0.223-0.223,0.447-0.222C52.308,47.16,54.39,47.16,56.472,47.16z
			 M52.013,50.058c-0.381,2.239-0.361,6.008,0,8.25c0.928,0.235,0.982,0.058,2.006,0c0.508-2.315,0.084-5.565,0.223-8.25
			C53.296,50.256,52.663,49.472,52.013,50.058z"/>
		<path d="M67.396,47.382c0.678,3.554-0.852,9.128,0.225,12.487c-1.721,0.933-5.262,1.768-6.912,0.224
			c0.414-0.784-0.168-0.733-0.445-1.339c0.838-3.606-1.15-8.982,0.893-11.594C63.175,47.293,65.741,46.883,67.396,47.382z
			 M62.714,50.058c0.467,2.961-0.283,5.126,0.447,8.026c0.645,0.289,1.582,0.289,2.229,0c0.508-2.242,0.084-5.416,0.223-8.026
			C64.886,49.349,63.522,49.652,62.714,50.058z"/>
		<path d="M70.071,47.16c1.934,0,3.865,0,5.799,0c3.516,2.302,0.441,8.659,1.338,12.933c-2.119,0.856-5.371,0.403-6.689,0
			C70.169,55.984,70.21,51.482,70.071,47.16z M72.524,57.862c0.818,0.154,1.695,0.385,2.453,0c0.623-2.506-0.033-5.598-0.223-8.027
			C70.608,49.108,73.282,55.2,72.524,57.862z"/>
		<path d="M85.233,47.16c1.416,3.465,1.027,9.584,0.895,12.933c-2.242,0.108-5.09,0.876-6.689-0.446c0.09-3.203-1.082-8.56,0-12.041
			C80.866,46.954,83.198,47.205,85.233,47.16z M81.667,57.193c0.674,0.302,1.779,0.302,2.453,0c0-2.305,0-4.606,0-6.912
			C80.394,48.325,81.997,54.397,81.667,57.193z"/>
	</g>
</g>
</svg>
