<?xml version="1.0" encoding="utf-8"?>
<!-- Generator: Adobe Illustrator 16.0.0, SVG Export Plug-In . SVG Version: 6.00 Build 0)  -->
<!DOCTYPE svg PUBLIC "-//W3C//DTD SVG 1.1//EN" "http://www.w3.org/Graphics/SVG/1.1/DTD/svg11.dtd">
<svg version="1.1" id="Layer_1" xmlns="http://www.w3.org/2000/svg" xmlns:xlink="http://www.w3.org/1999/xlink" x="0px" y="0px"
	 width="100px" height="100px" viewBox="0 0 100 100" enable-background="new 0 0 100 100" xml:space="preserve">
<g>
	<g>
		<path fill-rule="evenodd" clip-rule="evenodd" d="M27.572,31.649c0.697-0.062,1.174-0.139,1.652-0.142
			c4.089-0.009,8.178,0.009,12.268-0.008c7.812-0.031,15.626-0.119,23.437-0.109c6.835,0.007,13.669,0.116,20.504,0.178
			c0.884,0.009,1.462,0.491,2.14,1.048c2.234,1.841,3.584,4.375,5.416,6.522c0.164,0.194,0.383,0.346,0.58,0.511
			c0.775,0.648,1.147,1.424,0.995,2.48c-0.525,3.605-0.202,7.218-0.032,10.829c0.098,2.055,0.195,4.11,0.251,6.167
			c0.085,3.194,0.125,6.389,0.208,9.582c0.032,1.244,0.198,2.487,0.175,3.728c-0.032,1.666-0.338,1.911-1.947,1.911
			c-19.041,0-38.085,0.014-57.126-0.008c-6.338-0.006-12.676-0.123-19.015-0.14c-3.128-0.008-6.257,0.103-9.388,0.137
			c-0.614,0.007-1.303,0.057-1.821-0.193c-0.457-0.221-1.014-0.827-1.024-1.275c-0.053-2.051,0.11-4.106,0.121-6.161
			c0.009-1.694-0.141-3.388-0.123-5.081c0.019-2.079,0.195-4.157,0.195-6.237c0.002-2.993-0.13-5.985-0.138-8.979
			c-0.007-1.958,0.069-3.919,0.183-5.875c0.023-0.413,0.278-1.063,0.58-1.168c2.042-0.715,2.591-2.778,3.872-4.165
			c1.008-1.09,1.747-2.431,2.753-3.525c0.389-0.423,1.188-0.662,1.796-0.654c1.987,0.026,3.972,0.206,5.96,0.322
			c1.073,0.062,1.52-0.357,1.521-1.444c0-1.111-0.079-2.227,0.002-3.333c0.023-0.309,0.472-0.82,0.752-0.839
			c1.303-0.091,2.621-0.111,3.924-0.016c0.848,0.062,1.09,0.823,1.137,1.553C27.477,28.714,27.511,30.168,27.572,31.649z
			 M9.322,69.476c0.423,0,0.712,0,1.001,0c7.162,0.012,14.325-0.014,21.485,0.048c6.206,0.054,12.412,0.218,18.618,0.308
			c2.388,0.035,4.778,0.017,7.167,0.003c9.027-0.049,18.054-0.106,27.08-0.163c1.83-0.012,3.66-0.047,5.49-0.03
			c0.652,0.005,0.848-0.267,0.844-0.878c-0.014-2.286,0.074-4.574-0.003-6.856c-0.15-4.531-0.399-9.061-0.575-13.592
			c-0.056-1.424-0.009-2.852-0.009-4.314c-0.177-0.021-0.3-0.047-0.423-0.05c-4.771-0.068-9.545-0.159-14.319-0.195
			c-10.692-0.082-21.384-0.104-32.076-0.215c-5.426-0.055-10.851-0.289-16.274-0.368c-4.282-0.062-8.567-0.013-12.852-0.013
			c-1.146,0-2.292-0.013-3.436,0.003c-1.574,0.022-1.664,0.123-1.668,1.629c-0.015,5.89-0.036,11.779-0.051,17.668
			C9.317,64.751,9.322,67.04,9.322,69.476z M44.719,35.333c-1.244,0-2.311,0-3.429,0c0,1.253,0,2.441,0,3.716
			c1.012,0,1.953,0.029,2.891-0.023c0.189-0.01,0.506-0.323,0.513-0.508C44.744,37.483,44.719,36.444,44.719,35.333z M32.876,34.861
			c-1.125,0.193-2.171,0.373-3.27,0.562c0,1.03-0.031,2.007,0.023,2.98c0.013,0.224,0.311,0.604,0.497,0.616
			c0.897,0.066,1.801,0.03,2.749,0.03C32.876,37.621,32.876,36.333,32.876,34.861z M65.384,35.314c0,1.294,0,2.477,0,3.669
			c1.077,0,2.063,0,3.03,0c0-1.275,0-2.46,0-3.669C67.36,35.314,66.391,35.314,65.384,35.314z M53.561,39.048
			c0.864,0,1.641,0.026,2.412-0.02c0.178-0.011,0.478-0.275,0.484-0.433c0.042-1.065,0.021-2.133,0.021-3.259
			c-1.031,0-1.951,0-2.918,0C53.561,36.567,53.561,37.731,53.561,39.048z M47.655,39.051c0.885,0,1.66,0.027,2.432-0.02
			c0.183-0.011,0.502-0.257,0.508-0.405c0.043-1.091,0.021-2.185,0.021-3.285c-1.077,0-2.002,0-2.961,0
			C47.655,36.581,47.655,37.744,47.655,39.051z M18.108,34.967c0,1.2,0,2.407,0,3.632c0.979,0,1.902,0,2.92,0
			c0-0.398,0-0.717,0-1.036C21.046,34.728,21.048,34.728,18.108,34.967z M59.402,35.341c0,0.65-0.002,1.2,0,1.748
			c0,2.096,0,2.096,2.121,1.965c0.064-0.004,0.155,0.023,0.189-0.01c0.179-0.174,0.479-0.356,0.486-0.546
			c0.05-1.055,0.023-2.113,0.023-3.227c-0.761,0-1.44-0.004-2.118,0.003C59.917,35.276,59.728,35.309,59.402,35.341z M26.683,38.621
			c0-0.654,0-1.233,0-1.813c0-2.114,0-2.113-2.134-1.878c-0.032,0.003-0.077-0.012-0.096,0.005c-0.171,0.152-0.475,0.304-0.48,0.465
			c-0.043,1.065-0.023,2.131-0.023,3.222c0.514,0.04,0.9,0.095,1.288,0.094C25.658,38.715,26.081,38.663,26.683,38.621z
			 M79.097,38.982c0-1.253,0-2.439,0-3.642c-0.936,0-1.76,0-2.517,0c0.025,0.583,0.072,1.097,0.072,1.61
			C76.652,39.327,76.65,39.327,79.097,38.982z M36.02,35.318c0,1.247,0,2.437,0,3.728c0.642,0,1.224,0.037,1.796-0.021
			c0.176-0.018,0.459-0.291,0.465-0.456c0.043-1.124,0.023-2.25,0.023-3.379c-0.271-0.037-0.399-0.08-0.522-0.068
			C37.234,35.173,36.688,35.242,36.02,35.318z M73.732,39.008c0-0.698,0.076-1.322-0.013-1.921
			c-0.304-2.035-0.056-1.888-2.113-1.754c-0.025,0.002-0.049,0.037-0.127,0.1c0,1.142,0,2.327,0,3.576
			C72.219,39.008,72.891,39.008,73.732,39.008z M84.102,39.021c0-0.812,0.005-1.521,0-2.229c-0.004-1.417-0.327-1.67-1.885-1.393
			c0,1.184,0,2.385,0,3.623C82.85,39.021,83.395,39.021,84.102,39.021z M15.014,38.691c0-1.419,0-2.661,0-3.969
			c-2.323,1.551-2.499,1.889-2.055,3.917c0.138,0.016,0.293,0.047,0.45,0.05C13.926,38.695,14.439,38.691,15.014,38.691z
			 M23.702,31.368c1.722,0.506,1.896,0.38,1.896-1.284c-0.003-0.324-0.009-0.649-0.007-0.974c0.009-0.668-0.457-0.677-0.936-0.688
			c-0.479-0.012-0.943-0.004-0.949,0.656C23.698,29.849,23.702,30.622,23.702,31.368z M88.023,39.006
			c-0.652-0.85-1.194-1.556-1.845-2.403C85.915,39.154,85.915,39.154,88.023,39.006z"/>
		<path fill-rule="evenodd" clip-rule="evenodd" d="M61.819,55.766c0-2.405-0.032-4.811,0.023-7.214
			c0.015-0.629,0.363-1.198,1.156-1.199c1.44-0.003,2.88-0.025,4.318,0.01c0.578,0.014,1.165,0.1,1.729,0.246
			c0.986,0.257,0.979,1.192,1.115,1.938c0.101,0.555-0.106,1.157-0.106,1.737c0.003,1.854,0.014,3.709,0.072,5.562
			c0.03,0.911,0.228,1.816,0.245,2.728c0.006,0.316-0.219,0.824-0.472,0.93c-2.007,0.845-4.119,0.953-6.234,0.598
			c-1.322-0.221-1.776-0.956-1.811-2.489c-0.021-0.948-0.002-1.898-0.002-2.847C61.841,55.766,61.832,55.766,61.819,55.766z
			 M64.959,50.417c-0.021,0.371-0.054,0.719-0.062,1.068c-0.042,1.585-0.065,3.171-0.116,4.755c-0.072,2.146-0.079,2.146,2.017,2.18
			c0.121,0.002,0.242-0.019,0.421-0.035c0-2.665,0-5.288,0-7.968C66.45,50.417,65.749,50.417,64.959,50.417z"/>
		<path fill-rule="evenodd" clip-rule="evenodd" d="M50.302,47.819c0.555-0.001,1.111-0.002,1.666-0.001
			c1.819,0.001,2.045,0.044,2.134,1.795c0.149,2.884,0.064,5.78,0.072,8.671c0.003,0.522-0.072,1.051-0.01,1.565
			c0.087,0.718-0.254,1.096-0.887,1.105c-1.989,0.033-3.985,0.106-5.962-0.048c-1.261-0.098-1.653-0.889-1.603-2.312
			c0.072-2.113,0.068-4.229,0.195-6.339c0.07-1.157,0.359-2.299,0.515-3.454c0.103-0.749,0.6-0.958,1.232-0.976
			C48.538,47.801,49.42,47.82,50.302,47.819z M48.895,58.346c0.461-0.032,0.867,0.044,1.16-0.105c0.379-0.19,0.938-0.55,0.95-0.855
			c0.081-2.144,0.043-4.29,0.043-6.475c-0.695,0-1.395,0-2.153,0C48.895,53.403,48.895,55.838,48.895,58.346z"/>
		<path fill-rule="evenodd" clip-rule="evenodd" d="M30.119,54.146c0.085-1.792,0.155-3.585,0.264-5.376
			c0.053-0.845,0.41-1.396,1.409-1.357c1.339,0.051,2.682,0.001,4.023,0.016c1.428,0.014,2.667,1.355,2.68,2.811
			c0.025,2.679,0.076,5.357,0.136,8.035c0.009,0.38,0.24,0.786,0.16,1.132c-0.211,0.892-0.689,1.738-1.684,1.788
			c-1.919,0.096-3.852,0.083-5.772,0c-0.965-0.041-1.344-0.486-1.167-1.682c0.257-1.753,0.065-3.572,0.065-5.363
			C30.195,54.149,30.157,54.147,30.119,54.146z M32.791,50.883c0,2.432-0.016,4.715,0.019,6.997c0.007,0.241,0.271,0.65,0.472,0.688
			c0.695,0.132,1.416,0.133,2.117,0.183c0.34-3.421,0.153-7.841-0.357-8.528C34.325,50.433,33.59,50.648,32.791,50.883z"/>
		<path fill-rule="evenodd" clip-rule="evenodd" d="M77.227,54.987c0.089-2.019,0.172-4.038,0.273-6.056
			c0.032-0.628,0.277-1.189,0.982-1.238c1.526-0.106,3.055-0.189,4.582-0.197c1.375-0.007,2.072,0.668,2.079,2.051
			c0.009,2.152-0.134,4.306-0.092,6.457c0.028,1.271,0.327,2.536,0.426,3.809c0.025,0.325-0.151,0.811-0.4,0.979
			c-0.444,0.299-1.02,0.592-1.525,0.566c-1.809-0.089-3.613-0.302-5.418-0.491c-0.631-0.067-0.853-0.474-0.844-1.098
			c0.025-1.593,0.009-3.185,0.009-4.778C77.273,54.99,77.25,54.988,77.227,54.987z M82.482,58.481c0-2.299-0.015-4.537,0.013-6.776
			c0.007-0.646-0.21-1.042-0.869-0.968c-0.578,0.064-1.301,0.024-1.305,0.95c-0.009,1.593-0.09,3.188-0.056,4.78
			C80.311,58.427,80.349,58.425,82.482,58.481z"/>
		<path fill-rule="evenodd" clip-rule="evenodd" d="M18.112,61.22c-1.274-0.088-2.77,0.389-3.849-0.886
			c-0.193-0.231-0.374-0.582-0.357-0.867c0.064-1.133,0.296-2.258,0.304-3.389c0.02-1.885-0.127-3.771-0.11-5.657
			c0.005-0.727,0.096-1.565,0.472-2.143c0.317-0.487,1.089-0.906,1.682-0.938c1.379-0.074,2.795-0.018,4.148,0.232
			c0.619,0.114,1.736,0.384,1.174,1.605c-0.023,0.052-0.026,0.158,0.006,0.183c0.903,0.704,0.349,1.628,0.37,2.46
			c0.068,2.469,0.143,4.938,0.17,7.407c0.021,1.762-0.519,1.896-1.96,1.986C19.511,61.254,18.854,61.22,18.112,61.22z
			 M17.031,50.563c0,2.449-0.049,4.786,0.021,7.12c0.03,1.018,1.024,0.676,1.597,0.788c0.607,0.118,0.799-0.35,0.79-0.938
			c-0.025-1.729-0.063-3.461,0.016-5.186c0.038-0.812-0.168-1.405-0.91-1.654C18.062,50.529,17.503,50.595,17.031,50.563z"/>
	</g>
</g>
</svg>
