<?xml version="1.0" encoding="utf-8"?>
<!-- Generator: Adobe Illustrator 16.0.0, SVG Export Plug-In . SVG Version: 6.00 Build 0)  -->
<!DOCTYPE svg PUBLIC "-//W3C//DTD SVG 1.1//EN" "http://www.w3.org/Graphics/SVG/1.1/DTD/svg11.dtd">
<svg version="1.1" id="Layer_1" xmlns="http://www.w3.org/2000/svg" xmlns:xlink="http://www.w3.org/1999/xlink" x="0px" y="0px"
	 width="100px" height="100px" viewBox="0 0 100 100" enable-background="new 0 0 100 100" xml:space="preserve">
<g>
	<path fill-rule="evenodd" clip-rule="evenodd" d="M94.443,26.251c0,2.043-0.107,4.092,0.02,6.127
		c0.609,9.786-0.269,19.575,0.117,29.359c0.267,6.725,0.57,13.45,0.763,20.178c0.094,3.325-0.041,6.656-0.047,9.984
		c0,0.826-0.571,0.749-1.074,0.752c-1.846,0.01-3.691,0.009-5.535-0.016c-4.085-0.056-8.171-0.119-12.254-0.194
		c-6.856-0.125-13.708-0.319-20.564-0.379C48.455,92,41.039,92.04,33.624,92.061c-8.216,0.025-16.433,0.101-24.649,0.087
		c-0.732-0.001-1.535-0.376-2.182-0.775c-1.419-0.878-2.108-2.016-1.92-3.912c0.736-7.364-0.269-14.727-0.249-22.095
		c0.013-4.888,0.132-9.774,0.222-14.661c0.057-3.126,0.156-6.252,0.222-9.378c0.074-3.64,0.187-7.279,0.18-10.919
		c-0.004-2.763-0.283-5.53-0.214-8.289c0.034-1.305,0.441-2.673,1.001-3.86c0.257-0.548,1.279-1.009,1.972-1.034
		c3.882-0.134,7.77-0.111,11.654-0.168c2.464-0.036,4.944,0.04,7.379-0.244c1.21-0.141,2.344-0.96,3.498-1.504
		c3.495-1.651,6.997-3.29,10.467-4.997c0.991-0.488,1.844-1.253,2.817-1.785c1.274-0.695,2.513-1.861,4.115-0.677
		c0.077,0.057,0.259,0.07,0.327,0.018c1.267-0.96,2.229,0.005,3.304,0.468c2.926,1.256,5.882,2.437,8.815,3.677
		c2.35,0.992,4.699,1.986,7.01,3.059c0.979,0.453,1.847,1.133,2.795,1.654c0.255,0.14,0.623,0.111,0.937,0.104
		c3.684-0.089,7.365-0.191,11.048-0.284c1.518-0.038,3.037-0.073,4.555-0.085c1.553-0.012,2.98,0.408,4.269,1.294
		c0.154,0.107,0.331,0.202,0.512,0.25c0.544,0.147,1.338,0.089,1.598,0.438c0.551,0.732,1.07,1.648,1.159,2.533
		c0.176,1.741,0.052,3.514,0.052,5.275C94.359,26.251,94.402,26.251,94.443,26.251z M89.449,43.15
		c-13.271-0.198-26.51-0.472-39.748-0.571c-13.258-0.098-26.518-0.021-39.756-0.021c-0.904,14.743,0.022,29.505,0.477,44.44
		c8.84,0,17.788,0,26.79,0c0.044-0.412,0.085-0.645,0.093-0.877c0.095-2.965,0.211-5.928,0.27-8.894
		c0.058-2.937,0.762-5.487,3.418-7.239c3.355-2.216,6.95-3.457,10.999-3.443c4.322,0.015,7.46,2.46,8.331,6.625
		c0.218,1.044,0.65,2.074,0.678,3.118c0.086,3.433,0.032,6.87,0.032,10.345c9.716,0.171,19.145,0.338,28.83,0.509
		C89.723,72.334,89.584,57.644,89.449,43.15z M9.169,29.757c0.623,0.03,1.02,0.062,1.418,0.066c3.326,0.016,6.651,0.04,9.979,0.034
		c3.199-0.004,6.401,0.031,9.599-0.084c4.593-0.167,9.18-0.504,13.772-0.675c3.241-0.122,6.485-0.146,9.729-0.109
		c6.483,0.071,12.966,0.231,19.449,0.324c3.864,0.053,7.728,0.052,11.594,0.069c1.909,0.009,3.815,0.001,5.921,0.001
		c0.073-2.375,0.151-4.595,0.202-6.816c0.027-1.189-0.582-1.454-1.738-1.43c-3.742,0.079-7.487-0.007-11.229-0.003
		c-2.646,0.004-5.293,0.045-7.938,0.083c-0.999,0.013-2.037,0.211-2.508-1.075c-0.078-0.212-0.526-0.305-0.814-0.425
		c-1.845-0.769-3.684-1.549-5.538-2.292c-3.63-1.454-7.318-2.779-10.886-4.371c-1.926-0.858-3.356-0.411-5.093,0.523
		c-4.539,2.44-9.231,4.594-13.818,6.944c-1.14,0.584-2.229,0.937-3.522,0.926c-5.775-0.046-11.55-0.02-17.325-0.02
		c-0.472,0-0.942,0-1.443,0C8.267,24.294,9.341,26.942,9.169,29.757z M89.728,34.979c-2.705,0-5.222,0.062-7.738-0.011
		c-7.528-0.222-15.056-0.701-22.584-0.699c-9.814,0.003-19.628,0.393-29.441,0.577c-6.173,0.116-12.347,0.16-18.521,0.235
		c-0.455,0.005-0.911,0.001-1.379,0.001c0,0.926,0,1.633,0,2.178c2.983,0,5.903-0.032,8.821,0.007
		c8.095,0.105,16.187,0.302,24.281,0.347c8.377,0.047,16.753-0.052,25.131-0.069c5.368-0.01,10.738,0.006,16.106,0.022
		c1.865,0.006,3.771-0.088,5.112,1.802C89.59,37.831,89.655,36.48,89.728,34.979z M47.58,86.929
		c0.553-1.325,0.435-14.458-0.169-15.816c-2.764,0.456-5.247,2.23-5.559,5.18c-0.34,3.234-0.14,6.526-0.186,9.792
		c-0.015,0.946,0.494,0.919,1.252,0.87C44.428,86.863,45.946,86.929,47.58,86.929z M56.946,86.872
		c0.115-0.968,0.253-1.792,0.303-2.622c0.206-3.349-0.143-6.594-1.685-9.652c-0.631-1.254-1.131-2.553-2.504-3.225
		c-1.428-0.7-2.048-0.376-2.009,1.199c0.069,2.878,0.196,5.753,0.327,8.629c0.087,1.898,0.218,3.795,0.327,5.671
		C53.529,86.872,55.181,86.872,56.946,86.872z"/>
	<path fill-rule="evenodd" clip-rule="evenodd" d="M35.634,57.99c0-1.804,0.073-3.612-0.024-5.413
		c-0.067-1.236,0.541-1.696,1.596-1.744c2.996-0.133,5.994-0.236,8.993-0.322c3.723-0.106,7.45-0.205,11.175-0.256
		c0.643-0.01,1.287,0.234,1.934,0.347c0.252,0.042,0.516,0.1,0.76,0.062c1.531-0.253,2.74,0.653,2.752,2.181
		c0.027,3.569,0.025,7.138-0.011,10.707c-0.015,1.749-0.277,1.882-2.053,1.721c-1.007-0.091-2.031,0.005-3.048,0.019
		c-4.846,0.061-9.69,0.122-14.533,0.188c-1.683,0.022-3.364,0.049-5.046,0.088c-1.941,0.043-2.493-0.479-2.494-2.405
		C35.634,61.439,35.634,59.715,35.634,57.99z M50.824,57.468c0.031,0,0.062,0,0.095,0c0-0.36-0.04-0.724,0.008-1.078
		c0.119-0.916-0.26-1.381-1.18-1.349c-0.832,0.026-1.612,0.097-1.513,1.301c0.063,0.75-0.099,1.516-0.079,2.272
		c0.023,0.901-0.037,1.864,0.269,2.675c0.159,0.422,1.012,0.734,1.589,0.806c0.714,0.088,0.842-0.521,0.822-1.159
		C50.802,59.782,50.824,58.625,50.824,57.468z M40.928,58.356c0-0.882-0.049-1.768,0.014-2.646c0.072-1.034-0.529-1.229-1.34-1.209
		c-1.221,0.029-1.221,0.978-1.223,1.794c-0.003,1.562,0.146,3.126,0.136,4.688c-0.008,0.948,0.484,1.184,1.266,1.174
		c0.746-0.009,1.209-0.287,1.16-1.153C40.892,60.125,40.931,59.239,40.928,58.356z M45.829,56.586c0.046,0,0.091,0,0.137-0.001
		c0-0.359-0.028-0.724,0.006-1.08c0.082-0.879-0.44-1.126-1.168-1.135c-0.769-0.009-1.293,0.205-1.253,1.165
		c0.083,1.917,0.107,3.837,0.108,5.757c0,0.819,0.537,0.909,1.109,0.916c0.599,0.008,1.088-0.151,1.07-0.947
		C45.805,59.703,45.829,58.144,45.829,56.586z M59.002,58.468c0.017,0,0.034,0,0.053,0c0-0.879-0.06-1.763,0.018-2.633
		c0.06-0.687-0.149-0.972-0.824-0.945c-0.605,0.023-1.278-0.055-1.277,0.848c0.003,1.917-0.021,3.838,0.082,5.75
		c0.017,0.312,0.631,0.827,0.963,0.823c0.333-0.005,0.896-0.512,0.94-0.854C59.083,60.477,59.002,59.467,59.002,58.468z
		 M55.093,58.333c0.023,0,0.049,0,0.072,0c0-0.961-0.039-1.924,0.012-2.882c0.043-0.798-0.439-0.971-1.038-0.969
		c-0.623,0.002-1.027,0.247-1.001,1.014c0.057,1.84,0.064,3.682,0.042,5.523c-0.008,0.757,0.449,0.869,1.004,0.863
		c0.566-0.005,0.994-0.146,0.927-0.912C55.033,60.097,55.093,59.212,55.093,58.333z"/>
	<path fill-rule="evenodd" clip-rule="evenodd" d="M74.689,70.491c0,2.955,0.001,5.909-0.003,8.863c0,0.778-0.267,1.33-1.168,1.327
		c-2.161-0.007-4.324-0.014-6.485-0.012c-1.109,0.001-1.193-0.931-1.236-1.602c-0.326-5.029-0.615-10.062-0.787-15.097
		c-0.023-0.708,0.541-1.531,1.048-2.117c0.214-0.245,0.983,0.012,1.5,0.011c1.482-0.002,2.967-0.096,4.442-0.011
		c1.616,0.095,2.385,0.886,2.442,2.515c0.072,2.038,0.018,4.081,0.018,6.122C74.535,70.49,74.612,70.491,74.689,70.491z
		 M68.489,65.633c0.121,3.027,0.227,5.934,0.36,8.838c0.035,0.751,0.096,1.514,0.263,2.243c0.064,0.29,0.411,0.654,0.695,0.725
		c0.561,0.138,1.168,0.096,1.722,0.126c0-3.223,0.146-6.334-0.041-9.426c-0.189-3.168,0.015-2.96-2.97-2.521
		C68.481,65.624,68.45,65.656,68.489,65.633z"/>
	<path fill-rule="evenodd" clip-rule="evenodd" d="M15.387,72.333c0-2.446,0.022-4.891-0.012-7.336
		c-0.012-0.881,0.187-1.487,1.19-1.581c1.703-0.159,3.404-0.475,5.107-0.487c1.777-0.013,2.303,0.696,2.297,2.483
		c-0.014,4.647,0.045,9.298-0.081,13.943c-0.026,0.977-0.692,1.949-1.133,2.893c-0.067,0.147-0.503,0.16-0.771,0.17
		c-1.32,0.046-2.643,0.084-3.964,0.101c-2.16,0.025-2.599-0.391-2.626-2.612C15.362,77.382,15.387,74.857,15.387,72.333z
		 M20.577,66.12c-1.297-0.192-2.413-0.279-2.828,1.043c-0.162,0.52,0.032,1.147,0.048,1.726c0.088,2.998,0.136,5.999,0.294,8.993
		c0.022,0.423,0.479,1.021,0.882,1.192c1.27,0.538,1.852-0.026,1.871-1.78c0.032-2.929,0.036-5.857,0.006-8.785
		C20.842,67.724,20.675,66.94,20.577,66.12z"/>
	<path fill-rule="evenodd" clip-rule="evenodd" d="M77.72,80.502c0-1.622-0.029-3.169,0.008-4.715
		c0.076-3.322,0.202-6.642,0.277-9.963c0.083-3.58,0.904-4.052,4.592-3.755c0.769,0.062,1.519,0.438,2.262,0.712
		c1.085,0.401,1.502,1.3,1.492,2.364c-0.033,3.443-0.143,6.885-0.175,10.33c-0.011,1.274,0.052,2.557,0.19,3.824
		c0.126,1.131-0.44,1.411-1.387,1.383c-2.037-0.058-4.076-0.12-6.114-0.178C78.549,80.495,78.231,80.502,77.72,80.502z
		 M80.794,77.638c2.375,0.312,2.612,0.288,2.722-1.304c0.192-2.739,0.282-5.501,0.146-8.241c-0.105-2.153-0.64-2.399-2.868-1.985
		C80.794,69.922,80.794,73.761,80.794,77.638z"/>
	<path fill-rule="evenodd" clip-rule="evenodd" d="M23.799,53.562c0.118,1.421,0.382,3.638,0.414,5.858
		c0.007,0.404-0.932,1.18-1.425,1.172c-2.091-0.032-4.182-0.266-6.263-0.514c-0.27-0.032-0.669-0.566-0.685-0.886
		c-0.2-4.15-0.354-8.302-0.493-12.454c-0.049-1.486,1.162-2.698,2.642-2.694c1.281,0.004,2.563,0.025,3.843,0.06
		c1.658,0.046,2.451,1.141,2.288,2.777C23.925,48.827,23.921,50.792,23.799,53.562z M20.858,57.423
		c0.126-3.177,0.252-6.371,0.383-9.686c-0.773-0.061-1.334-0.194-1.859-0.11c-0.286,0.045-0.723,0.458-0.73,0.717
		c-0.084,2.394-0.104,4.79-0.109,7.185C18.535,57.456,18.554,57.456,20.858,57.423z"/>
	<path fill-rule="evenodd" clip-rule="evenodd" d="M75.555,52.675c-0.175,2.419-0.275,4.172-0.439,5.919
		c-0.091,0.977-0.794,1.351-1.683,1.31c-1.275-0.06-2.612,0.352-3.81-0.471c-0.242-0.167-0.618-0.207-0.93-0.2
		c-2.466,0.055-2.656-1.274-2.685-3.013c-0.048-2.678-0.155-5.359-0.095-8.037c0.022-0.99,0.396-1.988,0.713-2.948
		c0.078-0.232,0.574-0.47,0.873-0.463c2.271,0.047,4.541,0.121,6.804,0.281c0.318,0.022,0.834,0.54,0.859,0.86
		C75.36,48.384,75.46,50.861,75.555,52.675z M72.094,56.339c0.146-2.06,0.392-4.071,0.412-6.083
		c0.023-2.429-0.204-1.904-1.953-2.018c-1.08-0.07-1.433,0.381-1.419,1.366c0.018,1.361,0.002,2.723,0,4.084
		C69.132,56.326,69.132,56.326,72.094,56.339z"/>
	<path fill-rule="evenodd" clip-rule="evenodd" d="M26.375,72.991c0-2.511-0.009-5.022,0.005-7.534
		c0.004-0.83,0.325-1.674,1.188-1.714c1.855-0.088,3.725,0.019,5.584,0.128c0.227,0.014,0.554,0.497,0.615,0.804
		c0.239,1.233,0.547,2.483,0.55,3.727c0.007,3.916-0.122,7.833-0.176,11.75c-0.012,0.875-0.305,1.181-1.196,1.636
		c-1.77,0.9-3.378,0.292-4.938-0.062c-0.657-0.149-1.378-1.501-1.466-2.368c-0.212-2.103-0.068-4.241-0.068-6.365
		C26.439,72.993,26.406,72.992,26.375,72.991z M31.229,78.99c0.098-0.631,0.248-1.253,0.286-1.883
		c0.119-1.959,0.238-3.921,0.274-5.882c0.022-1.273-0.054-2.554-0.196-3.819c-0.031-0.275-0.521-0.667-0.837-0.709
		c-1.286-0.173-1.612,0.159-1.629,1.521c-0.036,2.96-0.08,5.919-0.072,8.879c0.003,0.696,0.196,1.39,0.312,2.153
		C30.079,79.153,30.624,79.075,31.229,78.99z"/>
	<path fill-rule="evenodd" clip-rule="evenodd" d="M33.317,60.744c-1.715,0-3.39,0.072-5.058-0.018
		c-2.045-0.11-2.524-0.707-2.562-2.736c-0.059-3.205-0.189-6.41-0.19-9.615c0-1.25,0.213-2.512,0.459-3.743
		c0.061-0.309,0.613-0.724,0.957-0.741c1.642-0.078,3.289,0.007,4.932-0.051c0.876-0.031,1.159,0.416,1.178,1.144
		c0.138,5.038,0.261,10.075,0.383,15.112C33.417,60.214,33.382,60.331,33.317,60.744z M30.465,58.12
		c0.107-0.534,0.3-1.036,0.293-1.535c-0.036-2.475-0.118-4.949-0.206-7.423c-0.013-0.352-0.077-0.742-0.254-1.034
		c-0.149-0.246-0.479-0.484-0.756-0.516c-0.202-0.023-0.553,0.244-0.646,0.463c-0.169,0.393-0.267,0.847-0.265,1.275
		c0.003,2.204,0.023,4.406,0.094,6.608c0.023,0.736,0.218,1.466,0.327,2.161C29.62,58.12,30.01,58.12,30.465,58.12z"/>
	<path fill-rule="evenodd" clip-rule="evenodd" d="M79.625,59.052c-0.222-1.71-0.56-3.434-0.642-5.169
		c-0.113-2.356-0.033-4.722-0.028-7.083c0.003-1.609,0.258-1.861,1.906-1.842c1.271,0.015,2.543,0.048,3.814,0.09
		c1.346,0.044,1.983,0.96,2.018,2.104c0.098,3.034,0.208,6.084-0.014,9.104c-0.189,2.626-1.548,3.34-3.981,3.182
		C81.75,59.375,80.808,59.204,79.625,59.052z M83.841,47.657c-1.349-0.423-2.05-0.102-2.065,1.141
		c-0.025,2.257-0.005,4.515-0.005,6.726c0.925,0,1.581,0,2.07,0C83.841,52.803,83.841,50.191,83.841,47.657z"/>
	<path fill-rule="evenodd" clip-rule="evenodd" d="M46.011,20.981c1.759,0.108,3.518,0.295,5.277,0.302
		c1.87,0.006,3.743-0.174,5.617-0.239c0.884-0.031,1.727,0.038,2.226,0.994c0.304,0.585,0.952,1.041,1.111,1.642
		c0.283,1.073-0.471,2.015-1.697,2.08c-2.862,0.151-5.731,0.221-8.596,0.242c-3.684,0.028-7.367-0.041-11.051-0.029
		c-1.353,0.004-2.403-0.818-2.646-2.219c-0.18-1.031,0.352-1.758,1.757-2.172c0.798-0.235,1.647-0.379,2.479-0.406
		c1.84-0.06,3.683-0.019,5.523-0.019C46.011,21.097,46.011,21.039,46.011,20.981z"/>
	<path fill-rule="evenodd" clip-rule="evenodd" d="M76.972,22.731c2.037,0,4.073-0.041,6.109,0.013
		c1.605,0.042,2.988,1.301,3.309,2.874c0.139,0.677-0.58,1.721-1.32,1.717c-2.023-0.009-4.048-0.075-6.068-0.19
		c-2.429-0.14-4.857-0.318-7.276-0.569c-0.541-0.057-1.133-0.388-1.54-0.767c-0.876-0.815-0.696-2.065,0.427-2.363
		c1.519-0.401,3.115-0.521,4.685-0.718c0.551-0.069,1.117-0.011,1.676-0.011C76.972,22.723,76.972,22.727,76.972,22.731z"/>
	<path fill-rule="evenodd" clip-rule="evenodd" d="M23.297,27.007c-2.838,0-5.678,0.031-8.516-0.023
		c-0.64-0.012-1.369-0.181-1.892-0.526c-1.123-0.748-1.012-2.11,0.244-2.578c1.175-0.436,2.445-0.74,3.692-0.826
		c2.555-0.176,5.121-0.159,7.682-0.237c1.063-0.033,1.608,0.417,1.705,1.514c0.262,2.965,0.364,2.403-2.312,2.429
		c-0.2,0.002-0.402,0.001-0.603,0.001C23.299,26.843,23.299,26.925,23.297,27.007z"/>
	<path fill-rule="evenodd" clip-rule="evenodd" d="M48.079,19.613c-1.222,0.144-2.068-0.442-2.72-1.38
		c-0.758-1.092-0.72-1.948,0.104-2.809c0.828-0.865,1.904-1.038,2.911-0.37c0.583,0.388,1.172,0.841,1.585,1.395
		c0.486,0.65,0.772,1.521,0.126,2.201c-0.505,0.529-1.236,0.838-1.866,1.246C48.172,19.802,48.126,19.708,48.079,19.613z"/>
</g>
</svg>
