<?xml version="1.0" encoding="utf-8"?>
<!-- Generator: Adobe Illustrator 16.0.0, SVG Export Plug-In . SVG Version: 6.00 Build 0)  -->
<!DOCTYPE svg PUBLIC "-//W3C//DTD SVG 1.1//EN" "http://www.w3.org/Graphics/SVG/1.1/DTD/svg11.dtd">
<svg version="1.1" id="Layer_1" xmlns="http://www.w3.org/2000/svg" xmlns:xlink="http://www.w3.org/1999/xlink" x="0px" y="0px"
	 width="100px" height="100px" viewBox="0 0 100 100" enable-background="new 0 0 100 100" xml:space="preserve">
<g>
	<g>
		<path fill-rule="evenodd" clip-rule="evenodd" d="M59.499,24.84c-0.294,1.432-0.161,2.92,0.174,4.18
			c-1.17,0.745-2.861,0.348-4.006-0.349c0-1.509,0-3.019,0-4.529C56.734,22.834,58.78,23.599,59.499,24.84z"/>
		<path fill-rule="evenodd" clip-rule="evenodd" d="M41.735,24.84c0.366,1.261,0.292,2.959,0.522,4.353
			c-0.93,0.674-3.017,0.334-3.831-0.173c0.132-1.7-0.274-2.862-0.174-4.529C39.227,23.469,40.92,24.212,41.735,24.84z"/>
		<path fill-rule="evenodd" clip-rule="evenodd" d="M42.258,50.787c-0.1,1.352,0.211,3.113-0.174,4.18
			c-0.891,0.318-2.812,0.295-3.482-0.174C37.976,51.246,39.604,48.509,42.258,50.787z"/>
		<path fill-rule="evenodd" clip-rule="evenodd" d="M59.673,51.136c-0.17,1.685,0.278,3.466,0,4.702
			c-1.222,0.513-2.365,0.049-3.657-0.173c-0.599-2.485-0.981-6.332,2.264-5.573C58.741,50.198,59.074,50.809,59.673,51.136z"/>
		<path fill-rule="evenodd" clip-rule="evenodd" d="M69.076,60.54c0.936,0.415,2.631,1.067,2.438,3.135
			c-0.481,0.707-2.083,0.106-2.612,0.348c0.371,10.491,0.007,20.243,0,29.431c0.003,0.931-1.015,0.373-1.567,0.697
			c-0.574,0.338-0.44,0.875-1.219,1.044c-0.988,0.215-2.742-0.443-4.005-0.522C58.352,94.438,53.504,95,49.398,95.02
			c-7.191,0.034-14.39-0.567-20.375-0.348c0.085-0.564-0.451-0.986-0.522-1.567c-0.09-0.723,0.378-1.253,0.522-2.089
			c0.813-4.693-0.097-13.645-0.522-18.981c-0.115-1.445,0.127-2.881,0.174-4.354c0.252-7.988-0.261-17.007-0.174-25.599
			c0.073-7.267,0.307-15.04,0.349-21.768c0.01-1.621-0.052-3.407,0.174-4.876c0.073-0.475,0.499-0.578,0.696-1.218
			c0.122-0.396,0.018-1.027,0.174-1.394c1.186-2.756,4.076-5.198,5.225-7.488c7.127-0.276,16.536-0.724,23.509-0.522
			c2.519,0.073,2.491,1.537,3.832,3.135c1.02,1.216,2.334,2.138,3.482,3.309c1.136,1.158,2.023,2.5,3.135,3.657
			C68.783,29.227,69.237,45.258,69.076,60.54z M39.297,12.824c0.545,0.036,1.278-0.118,1.568,0.174
			c0.143-1.599-0.395-3.877,0.523-4.702c-0.813,0-1.626,0-2.438,0C39.169,9.037,39.045,11.545,39.297,12.824z M42.955,12.999
			c0.697,0,1.393,0,2.089,0c0.167-1.731-0.289-3.382,0-4.702c-0.815,0.113-2.085-0.228-2.612,0.174
			C43.435,9.151,42.756,11.514,42.955,12.999z M46.786,12.824c0.754,0,1.509,0,2.265,0c-0.391-1.235-0.385-2.866-0.348-4.527
			c-0.639,0-1.277,0-1.917,0C46.974,9.869,46.974,11.252,46.786,12.824z M50.792,12.999c0.718-0.022,1.09,0.303,1.916,0.174
			c-0.282-1.4-0.421-2.946-0.349-4.702c-0.522,0-1.045,0-1.567,0C50.583,10.14,51.262,11.622,50.792,12.999z M54.623,13.173
			c0.775-0.211,1.785-0.189,2.786-0.174c0.001-1.741-0.853-2.63-0.697-4.528c-0.871,0-1.741,0-2.611,0
			C54.228,10.083,54.555,11.498,54.623,13.173z M59.15,12.999c0.474-0.108,1.382,0.221,1.567-0.174
			c-0.484-0.922-0.46-3.038-0.173-4.179c-0.458-0.181-1.068-0.208-1.743-0.174C58.56,10.272,60.049,11.632,59.15,12.999z
			 M34.073,13.173c1.183,0.021,2.021-0.302,3.309-0.174c-0.216-1.35,0.444-3.578-0.348-4.354
			C36.28,10.387,34.727,11.332,34.073,13.173z M62.633,12.999c0.644-0.111,1.734,0.225,2.089-0.174
			c-0.979-0.53-1.496-1.522-2.438-2.089C62.379,11.511,62.456,12.305,62.633,12.999z M32.68,17.178
			c0.161,7.542-0.282,14.981,0,22.116c11.701-0.428,21.541-0.086,32.74-0.522c0.409-5.893-0.6-14.907,0-22.115
			C54.272,17.435,43.694,16.377,32.68,17.178z M44.174,41.732c-3.457,0-6.875,0.542-10.102,0.349c-0.441-0.026-1.173-0.653-1.393,0
			c0.039,0.136,0.146,0.203,0.349,0.174c11.657-0.169,21.671,1.418,30.823-0.523C57.655,41.842,50.975,41.732,44.174,41.732z
			 M32.68,60.715c10.964,0.015,21.811,1.049,32.74,0.521c0.458-5.493-0.29-10.5,0.174-16.195C55.121,46,42.851,45.485,32.68,44.867
			C32.551,50.172,32.402,55.45,32.68,60.715z M63.678,64.371c-0.836-0.043-1.693-0.008-2.437,0
			c-9.041,0.095-19.075-0.51-28.386-0.871c-0.396,0.185-0.066,1.095-0.174,1.568c9.662,0.047,20.269,1.312,29.953,0.696
			c1.145-0.073,2.949,0.004,2.787-0.87C65.326,63.94,64.097,64.393,63.678,64.371z M32.854,68.029
			c-0.322,7.196,1.085,16.266,0.348,24.031c3.107-0.027,6.375,0.106,9.229-0.173c0.106-3.049-0.91-5.479,0.174-7.664
			c0.852-1.714,5.738-3.327,8.185-3.134c4.708,0.371,4.051,6.2,3.657,10.623c3.481-0.484,8.711,0.083,10.972-0.175
			c0.128-7.477,0.347-15.641-0.174-22.812C54.753,69.244,43.504,68.377,32.854,68.029z M45.567,91.886
			c2.105-0.158,4.886,0.358,6.443-0.35c-0.433,0.027-0.722-0.089-0.87-0.347c0.065-2.826,0.132-4.856-0.349-7.488
			C45.611,82.435,44.555,87.439,45.567,91.886z"/>
	</g>
</g>
</svg>
