<?xml version="1.0" encoding="utf-8"?>
<!-- Generator: Adobe Illustrator 16.0.0, SVG Export Plug-In . SVG Version: 6.00 Build 0)  -->
<!DOCTYPE svg PUBLIC "-//W3C//DTD SVG 1.1//EN" "http://www.w3.org/Graphics/SVG/1.1/DTD/svg11.dtd">
<svg version="1.1" id="Layer_1" xmlns="http://www.w3.org/2000/svg" xmlns:xlink="http://www.w3.org/1999/xlink" x="0px" y="0px"
	 width="100px" height="100px" viewBox="0 0 100 100" enable-background="new 0 0 100 100" xml:space="preserve">
<g>
	<g>
		<path fill-rule="evenodd" clip-rule="evenodd" d="M15.634,8.41c22.897,0,45.792,0,68.688,0c4.068,3.693,4.068,3.693,10.434,14.767
			c1.321,18.519,0.281,44.355,1.091,66.827c-15.268,1.632-26.055,1.118-42.872,1.383c-14.79,0.231-32.143,0.559-47.941-0.921
			C4.482,80.547,4.202,69.045,4.57,57.275C4.92,46.168,3.16,33.509,5.033,24.544c1.226-5.875,7.215-10.403,9.219-14.751
			C14.509,9.13,14.971,8.669,15.634,8.41z M60.35,14.865c0.31,1.703-0.217,6.535,0,9.679c1.998,0,3.996,0,5.992,0
			c0-3.38,0-6.76,0-10.141C63.691,14.497,62.377,13.719,60.35,14.865z M70.49,24.544c1.922-0.375,3.849,0.627,4.612,0
			c0-3.534,0-7.068,0-10.601c-1.691,0-3.38,0-5.071,0C70.943,16.716,70.3,21.048,70.49,24.544z M78.789,24.544
			c1.006,0.433,4.136-0.281,6.455,0c-0.816-3.945-2.472-7.056-3.688-10.601C76.848,12.662,79.47,20.517,78.789,24.544z
			 M22.549,23.624c1.537,0,3.073,0,4.61,0c0-3.074,0-6.147,0-9.221c-1.538,0-3.073,0-4.61,0
			C22.549,17.476,22.549,20.549,22.549,23.624z M31.308,23.624c1.844,0,3.688,0,5.532,0c0-3.074,0-6.147,0-9.221
			c-1.844,0-3.688,0-5.532,0C31.308,17.476,31.308,20.549,31.308,23.624z M40.989,23.624c1.69,0,3.381,0,5.07,0
			c0-3.074,0-6.147,0-9.221c-1.689,0-3.38,0-5.07,0C40.989,17.476,40.989,20.549,40.989,23.624z M50.209,24.084
			c2.334-0.032,3.816,0.792,6.452,0.459c-0.182-3.352,0.441-7.507-0.459-10.141c-1.998,0-3.996,0-5.993,0
			C50.209,17.63,50.209,20.857,50.209,24.084z M11.948,23.624c2.149,0,4.302,0,6.452,0c-0.552-2.676,1.143-7.597-0.922-8.759
			C15.807,17.955,13.475,20.387,11.948,23.624z M10.564,85.394c26.276,0,55.778,0.621,79.75-1.383
			c-0.044-18.747-0.697-37.597-1.382-54.397c-25.816,0-51.63,0-77.446,0C9.22,45.947,9.979,67.748,10.564,85.394z"/>
		<path fill-rule="evenodd" clip-rule="evenodd" d="M25.315,46.672c1.443,3.166,1.548,7.673,1.382,12.447
			c-2.978-0.249-6.988,0.535-9.219-0.461c0.208-3.79-0.473-8.464,0.461-11.525C20.154,45.381,23.706,46.037,25.315,46.672z"/>
		<path fill-rule="evenodd" clip-rule="evenodd" d="M53.434,48.516c0.504,3.339,0.751,6.931,0.924,10.603c-2.921,0-5.839,0-8.76,0
			C44.032,51.294,47.018,42.821,53.434,48.516z"/>
		<path fill-rule="evenodd" clip-rule="evenodd" d="M81.63,48.516c0.671,4.209,0.164,6.374,0.924,10.603c-2.613,0-7.145,0-9.758,0
			C71.624,51.91,75.474,42.912,81.63,48.516z"/>
	</g>
</g>
</svg>
