<?xml version="1.0" encoding="utf-8"?>
<!-- Generator: Adobe Illustrator 16.0.0, SVG Export Plug-In . SVG Version: 6.00 Build 0)  -->
<!DOCTYPE svg PUBLIC "-//W3C//DTD SVG 1.1//EN" "http://www.w3.org/Graphics/SVG/1.1/DTD/svg11.dtd">
<svg version="1.1" id="Layer_1" xmlns="http://www.w3.org/2000/svg" xmlns:xlink="http://www.w3.org/1999/xlink" x="0px" y="0px"
	 width="100px" height="100px" viewBox="0 0 100 100" enable-background="new 0 0 100 100" xml:space="preserve">
<g>
	<g>
		<path fill-rule="evenodd" clip-rule="evenodd" d="M14.807,83.315c0-3.389,0.006-6.778-0.003-10.167
			c-0.005-1.544-0.07-3.09-0.055-4.635c0.069-6.399,0.204-12.799,0.227-19.197C15,42.278,14.965,35.24,14.888,28.202
			c-0.063-5.583-0.316-11.165-0.288-16.746c0.006-1.262,0.807-2.528,1.289-3.773c0.063-0.164,0.416-0.289,0.643-0.302
			c2.867-0.182,5.734-0.467,8.602-0.477c8.117-0.026,16.234,0.112,24.353,0.092c6.61-0.016,13.222-0.139,19.832-0.273
			c2.397-0.049,4.794-0.397,7.186-0.341c0.737,0.018,1.57,0.812,2.152,1.442c0.619,0.672,0.989,1.198,1.959,0.457
			c0.712-0.543,3.512,0.035,4.03,0.729c0.203,0.275,0.241,0.725,0.239,1.095c-0.007,3.817-0.065,7.635-0.055,11.453
			c0.009,3.135,0.061,6.271,0.147,9.405c0.119,4.415,0.331,8.827,0.42,13.242c0.042,2.189-0.149,4.38-0.164,6.571
			c-0.04,5.713-0.057,11.426-0.055,17.138c0.002,6.871,0.193,13.748-0.025,20.613c-0.09,2.799-1.287,5.201-4.754,5.094
			c-9.047-0.278-18.093-0.593-27.14-0.876c-7.085-0.222-14.171-0.539-21.257-0.58c-4.327-0.025-8.657,0.376-12.984,0.616
			c-2.068,0.113-4.206-1.94-4.151-4.054c0.024-0.902,0.057-1.803,0.069-2.705s0.002-1.805,0.002-2.707
			C14.894,83.315,14.851,83.315,14.807,83.315z M20.544,28.242c-0.638,19.578-1.184,38.791,0.098,57.93c6.647,0,13.448,0,20.554,0
			c0-2.099,0.039-4.194-0.009-6.288c-0.102-4.458-0.287-8.914-0.349-13.372c-0.014-1.029-0.323-1.396-1.316-1.377
			c-1.72,0.03-3.443,0.061-5.159-0.029c-2.97-0.155-3.892-2.492-2.398-4.604c0.72-1.016,1.325-2.123,2.11-3.083
			c1.457-1.777,2.952-3.619,5.438-3.918c1.995-0.241,4.016-0.324,6.025-0.39c4.031-0.132,8.065-0.195,12.098-0.304
			c2.7-0.074,5.041,0.564,6.848,2.801c0.814,1.009,1.984,1.733,2.996,2.581c0.949,0.795,1.814,1.676,1.447,3.04
			c-0.811,3.021-0.84,3.013-3.998,3.245c-0.515,0.037-1.029,0.119-1.544,0.106c-0.783-0.02-1.079,0.37-1.077,1.099
			c0,0.773,0.017,1.548-0.038,2.317c-0.424,6.042-0.794,12.084-0.227,18.139c0.029,0.328-0.13,0.673-0.208,1.042
			c0.16,0.047,0.323,0.144,0.483,0.137c5.218-0.223,10.472,0.54,15.656-0.512c0.319-0.064,0.744-0.667,0.756-1.031
			c0.063-1.93-0.006-3.863,0.003-5.796c0.017-4.726,0.081-9.452,0.071-14.179c-0.007-2.789-0.193-5.579-0.168-8.368
			c0.05-5.408,0.262-10.817,0.271-16.226c0.004-3.216-0.327-6.432-0.372-9.649c-0.033-2.544,0.058-2.545-2.516-2.58
			c-0.086-0.001-0.172-0.007-0.258-0.009c-8.158-0.152-16.318-0.319-24.477-0.453c-6.787-0.111-13.575-0.195-20.362-0.264
			C27.506,28.213,24.088,28.242,20.544,28.242z M57.322,65.005c-3.341,0-6.554-0.015-9.765,0.004
			c-2.16,0.014-2.168,0.035-2.424,2.093c-0.08,0.638-0.169,1.284-0.15,1.924c0.159,5.188,0.34,10.377,0.521,15.566
			c0.02,0.552,0.08,1.104,0.131,1.78c3.536,0.175,7.286,0.361,11.165,0.553C56.976,79.521,57.15,72.194,57.322,65.005z
			 M36.993,60.741c9.265,0.061,18.261,0.661,27.534-0.172c-1.208-1.449-2.037-2.729-3.738-2.78c-1.846-0.057-3.691-0.14-5.535-0.119
			c-5.271,0.059-10.539,0.162-15.808,0.259c-0.224,0.004-0.538,0.058-0.651,0.208C38.213,58.913,37.686,59.729,36.993,60.741z
			 M43.815,23.023c0.198-3.524,0.395-7.051,0.593-10.623c-1.254,0-2.55,0-3.628,0c0,3.58,0,7.059,0,10.623
			C42.027,23.023,43.003,23.023,43.815,23.023z M36.249,22.921c0-3.56,0-7.05,0-10.662c-1.146,0-2.401,0-3.725,0
			c0,0.291-0.019,0.497,0.002,0.699c0.272,2.593,0.591,5.181,0.815,7.776C33.547,23.116,33.564,23.17,36.249,22.921z M78.416,23.285
			c0-3.703,0-7.313,0-10.951c-0.783-0.045-1.418-0.103-2.052-0.111c-0.573-0.008-1.039,0.095-0.821,0.891
			c0.086,0.31-0.031,0.672-0.031,1.011c-0.004,3.101-0.002,6.201-0.002,9.307C76.518,23.38,77.408,23.335,78.416,23.285z
			 M48.476,23.271c0.798-0.083,1.705-0.177,2.528-0.261c0.166-3.539,0.325-6.939,0.491-10.462c-1.163,0-2.505,0-3.642,0
			C48.058,16.076,48.264,19.601,48.476,23.271z M26.689,12.245c0,3.064-0.021,5.938,0.008,8.812c0.02,1.97,0.203,2.134,2.192,1.954
			c0.303-0.027,0.812-0.521,0.802-0.783c-0.113-3.327-0.304-6.651-0.477-9.982C28.367,12.245,27.571,12.245,26.689,12.245z
			 M68.301,12.487c0.119,3.079,0.283,6.019,0.327,8.961c0.03,1.915,0.102,2.046,2.026,1.747c0.139-3.532,0.279-7.065,0.425-10.708
			C70.216,12.487,69.177,12.487,68.301,12.487z M22.41,12.622c-2.14,0.079-2.139,0.079-2.185,2.009
			c-0.017,0.685-0.054,1.37-0.056,2.055c-0.008,2.158-0.003,4.315-0.003,6.518c0.997,0,1.624,0,2.243,0
			C22.41,19.65,22.41,16.168,22.41,12.622z M57.857,22.905c0-3.567,0-6.993,0-10.394c-0.758,0-1.625,0-2.324,0
			c0,3.522,0,6.946,0,10.497C56.404,22.969,57.072,22.938,57.857,22.905z M63.777,23.176c0.146-0.083,0.292-0.166,0.439-0.248
			c0-3.517,0-7.033,0-10.583c-0.511,0-1.084,0-1.443,0c0,1.064-0.022,2.016,0.007,2.965c0.073,2.344,0.148,4.687,0.292,7.026
			C63.091,22.63,63.532,22.897,63.777,23.176z"/>
		<path fill-rule="evenodd" clip-rule="evenodd" d="M55.017,40.778c0.099,1.204,0.191,2.41,0.296,3.613
			c0.118,1.319-0.851,2.329-2.171,2.341c-2.31,0.021-4.622,0.059-6.931,0.149c-1.91,0.075-4.38-1.1-4.938-2.775
			c-0.332-0.999-0.124-2.202-0.046-3.305c0.16-2.29,1.193-4.182,2.882-5.699c2.316-2.081,4.917-2.217,7.601-0.852
			C54.352,35.594,55.263,37.93,55.017,40.778z M50.021,42.054c0-0.769,0.23-1.567-0.053-2.083c-0.436-0.793-1.121-1.611-1.907-1.979
			c-0.353-0.164-1.437,0.607-1.772,1.192c-0.491,0.856-0.606,1.929-0.937,3.096C47.148,42.192,48.573,42.125,50.021,42.054z"/>
		<path fill-rule="evenodd" clip-rule="evenodd" d="M70.491,46.271c-2.48,0-4.96-0.008-7.442,0.003
			c-1.351,0.006-2.106-0.796-2.65-1.898c-0.075-0.151-0.208-0.385-0.148-0.474c1.207-1.84,0.544-4.229,2.039-6.091
			c1.648-2.053,3.595-3.054,6.119-3.182c0.298-0.015,0.601,0.05,0.898,0.031c3.651-0.239,5.197,1.54,5.836,5.172
			c0.344,1.952-0.244,3.7-0.549,5.511c-0.141,0.83-0.854,1.441-1.917,1.326c-0.72-0.078-1.455-0.015-2.184-0.015
			C70.493,46.528,70.491,46.4,70.491,46.271z M65.621,41.75c1.613,0,3.11,0,4.613,0c-0.141-1.932-0.475-2.626-1.262-2.697
			C67.58,38.928,66.056,40.061,65.621,41.75z"/>
		<path fill-rule="evenodd" clip-rule="evenodd" d="M28.698,47.152c-1.201,0-2.403,0.032-3.604-0.007
			c-2.145-0.069-3.028-1.405-2.299-3.375c0.094-0.253,0.041-0.569,0.019-0.854c-0.305-3.989,1.368-7.163,4.658-8.702
			c1.597-0.749,2.983-0.458,4.527,0.542c2.908,1.888,3.207,4.756,3.438,7.72c0.033,0.429-0.265,0.883-0.409,1.325
			c-0.117,0.358-0.322,0.712-0.339,1.073c-0.075,1.702-0.874,2.429-2.647,2.388c-1.114-0.026-2.229-0.005-3.344-0.005
			C28.698,47.222,28.698,47.187,28.698,47.152z M28.738,38.387c-1.23,1.124-1.926,2.436-1.711,4.169c1.207,0,2.321,0,3.507,0
			C30.386,40.911,30.564,39.295,28.738,38.387z"/>
	</g>
</g>
</svg>
