<?xml version="1.0" encoding="utf-8"?>
<!-- Generator: Adobe Illustrator 16.0.0, SVG Export Plug-In . SVG Version: 6.00 Build 0)  -->
<!DOCTYPE svg PUBLIC "-//W3C//DTD SVG 1.1//EN" "http://www.w3.org/Graphics/SVG/1.1/DTD/svg11.dtd">
<svg version="1.1" id="Layer_1" xmlns="http://www.w3.org/2000/svg" xmlns:xlink="http://www.w3.org/1999/xlink" x="0px" y="0px"
	 width="64px" height="64px" viewBox="0 0 64 64" enable-background="new 0 0 64 64" xml:space="preserve">
<g>
	<g>
		<path d="M46.647,57.492H17.353c-1.93,0-3.5-1.57-3.5-3.5V10.527c0-1.93,1.57-3.5,3.5-3.5h29.295c1.93,0,3.5,1.57,3.5,3.5v43.465
			C50.147,55.922,48.577,57.492,46.647,57.492z M17.353,8.027c-1.379,0-2.5,1.121-2.5,2.5v43.465c0,1.379,1.121,2.5,2.5,2.5h29.295
			c1.379,0,2.5-1.121,2.5-2.5V10.527c0-1.379-1.121-2.5-2.5-2.5H17.353z"/>
	</g>
	<g>
		<path d="M33.293,53.119c0,0.713-0.579,1.291-1.295,1.291c-0.711,0-1.291-0.578-1.291-1.291s0.58-1.293,1.291-1.293
			C32.714,51.826,33.293,52.406,33.293,53.119z"/>
	</g>
	<g>
		<path d="M49.38,48.912H14.621c-0.276,0-0.5-0.224-0.5-0.5s0.224-0.5,0.5-0.5H49.38c0.276,0,0.5,0.224,0.5,0.5
			S49.656,48.912,49.38,48.912z"/>
	</g>
	<g>
		<g>
			<path d="M39.341,38.836H24.659c-0.276,0-0.5-0.224-0.5-0.5V23.652c0-0.276,0.224-0.5,0.5-0.5h14.682c0.276,0,0.5,0.224,0.5,0.5
				v14.684C39.841,38.612,39.617,38.836,39.341,38.836z M25.159,37.836h13.682V24.152H25.159V37.836z"/>
		</g>
		<g>
			<g>
				<path d="M31.998,32.199c-1.277,0-2.317-1.041-2.317-2.32c0-1.277,1.04-2.316,2.317-2.316c1.279,0,2.32,1.039,2.32,2.316
					C34.318,31.158,33.277,32.199,31.998,32.199z M31.998,28.562c-0.727,0-1.317,0.591-1.317,1.316c0,0.728,0.591,1.32,1.317,1.32
					c0.728,0,1.32-0.593,1.32-1.32C33.318,29.153,32.726,28.562,31.998,28.562z"/>
			</g>
			<g>
				<path d="M31.998,34.426c-0.276,0-0.5-0.224-0.5-0.5v-2.314c0-0.276,0.224-0.5,0.5-0.5s0.5,0.224,0.5,0.5v2.314
					C32.498,34.202,32.274,34.426,31.998,34.426z"/>
			</g>
		</g>
		<g>
			<path d="M37.125,22.023c-0.276,0-0.5-0.224-0.5-0.5c0-2.55-2.075-4.625-4.627-4.625c-2.549,0-4.622,2.075-4.622,4.625
				c0,0.276-0.224,0.5-0.5,0.5s-0.5-0.224-0.5-0.5c0-3.102,2.522-5.625,5.622-5.625c3.103,0,5.627,2.523,5.627,5.625
				C37.625,21.8,37.401,22.023,37.125,22.023z"/>
		</g>
	</g>
</g>
</svg>
