<?xml version="1.0" encoding="utf-8"?>
<!-- Generator: Adobe Illustrator 16.0.0, SVG Export Plug-In . SVG Version: 6.00 Build 0)  -->
<!DOCTYPE svg PUBLIC "-//W3C//DTD SVG 1.1//EN" "http://www.w3.org/Graphics/SVG/1.1/DTD/svg11.dtd">
<svg version="1.1" id="Layer_1" xmlns="http://www.w3.org/2000/svg" xmlns:xlink="http://www.w3.org/1999/xlink" x="0px" y="0px"
	 width="64px" height="64px" viewBox="0 0 64 64" enable-background="new 0 0 64 64" xml:space="preserve">
<g>
	<g>
		<path d="M36.146,44.686H25.574c-3.032,0-5.5-2.468-5.5-5.5V25.334c0-3.032,2.468-5.5,5.5-5.5h10.572c3.032,0,5.5,2.468,5.5,5.5
			v13.852C41.646,42.218,39.179,44.686,36.146,44.686z M25.574,20.834c-2.481,0-4.5,2.019-4.5,4.5v13.852c0,2.481,2.019,4.5,4.5,4.5
			h10.572c2.481,0,4.5-2.019,4.5-4.5V25.334c0-2.481-2.019-4.5-4.5-4.5H25.574z"/>
	</g>
	<g>
		<path d="M43.426,29.98c-0.276,0-0.5-0.224-0.5-0.5V25.52c0-0.276,0.224-0.5,0.5-0.5s0.5,0.224,0.5,0.5v3.961
			C43.926,29.757,43.702,29.98,43.426,29.98z"/>
	</g>
	<g>
		<path d="M37.346,18.5c-0.276,0-0.5-0.224-0.5-0.5v-3.676c0-0.827-0.673-1.5-1.5-1.5h-8.969c-0.827,0-1.5,0.673-1.5,1.5V18
			c0,0.276-0.224,0.5-0.5,0.5s-0.5-0.224-0.5-0.5v-3.676c0-1.379,1.121-2.5,2.5-2.5h8.969c1.379,0,2.5,1.121,2.5,2.5V18
			C37.846,18.276,37.622,18.5,37.346,18.5z"/>
	</g>
	<g>
		<path d="M35.346,52.695h-8.969c-1.379,0-2.5-1.121-2.5-2.5V46.52c0-0.276,0.224-0.5,0.5-0.5s0.5,0.224,0.5,0.5v3.676
			c0,0.827,0.673,1.5,1.5,1.5h8.969c0.827,0,1.5-0.673,1.5-1.5V46.52c0-0.276,0.224-0.5,0.5-0.5s0.5,0.224,0.5,0.5v3.676
			C37.846,51.574,36.725,52.695,35.346,52.695z"/>
	</g>
	<g>
		<g>
			<path d="M35.33,39.467h-8.939c-0.276,0-0.5-0.224-0.5-0.5v-8.943c0-0.276,0.224-0.5,0.5-0.5h8.939c0.276,0,0.5,0.224,0.5,0.5
				v8.943C35.83,39.243,35.606,39.467,35.33,39.467z M26.891,38.467h7.939v-7.943h-7.939V38.467z"/>
		</g>
		<g>
			<path d="M30.861,35.424c-0.887,0-1.607-0.721-1.607-1.607s0.721-1.607,1.607-1.607s1.607,0.721,1.607,1.607
				S31.748,35.424,30.861,35.424z M30.861,33.209c-0.335,0-0.607,0.272-0.607,0.607s0.272,0.607,0.607,0.607
				s0.607-0.272,0.607-0.607S31.196,33.209,30.861,33.209z"/>
		</g>
		<g>
			<path d="M30.861,36.779c-0.276,0-0.5-0.224-0.5-0.5v-0.775c0-0.276,0.224-0.5,0.5-0.5s0.5,0.224,0.5,0.5v0.775
				C31.361,36.556,31.138,36.779,30.861,36.779z"/>
		</g>
		<g>
			<path d="M33.395,28.59c-0.276,0-0.5-0.224-0.5-0.5c0-1.121-0.912-2.033-2.033-2.033s-2.033,0.912-2.033,2.033
				c0,0.276-0.224,0.5-0.5,0.5s-0.5-0.224-0.5-0.5c0-1.673,1.36-3.033,3.033-3.033s3.033,1.36,3.033,3.033
				C33.895,28.366,33.671,28.59,33.395,28.59z"/>
		</g>
	</g>
</g>
</svg>
