<?xml version="1.0" encoding="utf-8"?>
<!-- Generator: Adobe Illustrator 16.0.0, SVG Export Plug-In . SVG Version: 6.00 Build 0)  -->
<!DOCTYPE svg PUBLIC "-//W3C//DTD SVG 1.1//EN" "http://www.w3.org/Graphics/SVG/1.1/DTD/svg11.dtd">
<svg version="1.1" id="Layer_1" xmlns="http://www.w3.org/2000/svg" xmlns:xlink="http://www.w3.org/1999/xlink" x="0px" y="0px"
	 width="64px" height="64px" viewBox="0 0 64 64" enable-background="new 0 0 64 64" xml:space="preserve">
<g>
	<g>
		<g>
			<path d="M50.383,44.406H13.617c-1.93,0-3.5-1.57-3.5-3.5v-24.09c0-1.93,1.57-3.5,3.5-3.5h36.766c1.93,0,3.5,1.57,3.5,3.5v24.09
				C53.883,42.836,52.312,44.406,50.383,44.406z M13.617,14.316c-1.379,0-2.5,1.121-2.5,2.5v24.09c0,1.379,1.121,2.5,2.5,2.5h36.766
				c1.379,0,2.5-1.121,2.5-2.5v-24.09c0-1.379-1.121-2.5-2.5-2.5H13.617z"/>
		</g>
		<g>
			<path d="M57.236,51.207c-0.005,0.001-0.013,0.001-0.02,0H6.783c-0.194,0-0.371-0.113-0.453-0.289
				c-0.082-0.177-0.055-0.385,0.071-0.533l3.742-4.434c0.095-0.113,0.234-0.178,0.382-0.178h42.949c0.147,0,0.287,0.064,0.382,0.178
				l3.672,4.35c0.126,0.091,0.208,0.238,0.208,0.406C57.736,50.983,57.513,51.207,57.236,51.207z M7.859,50.207h48.281l-2.898-3.434
				H10.758L7.859,50.207z"/>
		</g>
		<g>
			<path d="M53.383,41.074H10.617c-0.276,0-0.5-0.224-0.5-0.5s0.224-0.5,0.5-0.5h42.766c0.276,0,0.5,0.224,0.5,0.5
				S53.659,41.074,53.383,41.074z"/>
		</g>
	</g>
	<g>
		<g>
			
				<rect x="25.695" y="23.637" fill="none" stroke="#000000" stroke-linecap="round" stroke-linejoin="round" stroke-miterlimit="10" width="12.609" height="12.609"/>
			
				<circle fill="none" stroke="#000000" stroke-linecap="round" stroke-linejoin="round" stroke-miterlimit="10" cx="32" cy="28.982" r="1.562"/>
			
				<line fill="none" stroke="#000000" stroke-linecap="round" stroke-linejoin="round" stroke-miterlimit="10" x1="32" y1="31.104" x2="32" y2="33.092"/>
		</g>
		<path fill="none" stroke="#000000" stroke-linecap="round" stroke-linejoin="round" stroke-miterlimit="10" d="M28.199,21.602
			c0-2.1,1.701-3.801,3.801-3.801c2.098,0,3.801,1.701,3.801,3.801"/>
	</g>
</g>
</svg>
