<?xml version="1.0" encoding="utf-8"?>
<!-- Generator: Adobe Illustrator 16.0.0, SVG Export Plug-In . SVG Version: 6.00 Build 0)  -->
<!DOCTYPE svg PUBLIC "-//W3C//DTD SVG 1.1//EN" "http://www.w3.org/Graphics/SVG/1.1/DTD/svg11.dtd">
<svg version="1.1" id="Layer_1" xmlns="http://www.w3.org/2000/svg" xmlns:xlink="http://www.w3.org/1999/xlink" x="0px" y="0px"
	 width="64px" height="64px" viewBox="0 0 64 64" enable-background="new 0 0 64 64" xml:space="preserve">
<g>
	<g>
		<path d="M40.461,56.543H23.539c-1.93,0-3.5-1.57-3.5-3.5V11.477c0-1.93,1.57-3.5,3.5-3.5h16.922c1.93,0,3.5,1.57,3.5,3.5v41.566
			C43.961,54.973,42.391,56.543,40.461,56.543z M23.539,8.977c-1.379,0-2.5,1.121-2.5,2.5v41.566c0,1.379,1.121,2.5,2.5,2.5h16.922
			c1.379,0,2.5-1.121,2.5-2.5V11.477c0-1.379-1.121-2.5-2.5-2.5H23.539z"/>
	</g>
	<g>
		<path d="M43.133,47.855H20.867c-0.276,0-0.5-0.224-0.5-0.5s0.224-0.5,0.5-0.5h22.266c0.276,0,0.5,0.224,0.5,0.5
			S43.409,47.855,43.133,47.855z"/>
	</g>
	<g>
		<path d="M33.293,51.85c0,0.717-0.58,1.293-1.293,1.293c-0.715,0-1.291-0.576-1.291-1.293c0-0.709,0.576-1.291,1.291-1.291
			C32.713,50.559,33.293,51.141,33.293,51.85z"/>
	</g>
	<g>
		<g>
			<path d="M38.242,37.289h-12.48c-0.276,0-0.5-0.224-0.5-0.5V24.307c0-0.276,0.224-0.5,0.5-0.5h12.48c0.276,0,0.5,0.224,0.5,0.5
				v12.482C38.742,37.065,38.519,37.289,38.242,37.289z M26.262,36.289h11.48V24.807h-11.48V36.289z"/>
		</g>
		<g>
			<path d="M32,31.645c-1.127,0-2.043-0.917-2.043-2.045c0-1.127,0.916-2.043,2.043-2.043c1.129,0,2.047,0.916,2.047,2.043
				C34.047,30.728,33.129,31.645,32,31.645z M32,28.557c-0.575,0-1.043,0.468-1.043,1.043c0,0.576,0.468,1.045,1.043,1.045
				c0.577,0,1.047-0.469,1.047-1.045C33.047,29.024,32.577,28.557,32,28.557z"/>
		</g>
		<g>
			<path d="M32,34.174c-0.276,0-0.5-0.224-0.5-0.5v-1.969c0-0.276,0.224-0.5,0.5-0.5s0.5,0.224,0.5,0.5v1.969
				C32.5,33.95,32.276,34.174,32,34.174z"/>
		</g>
		<g>
			<path d="M35.803,22.629c-0.276,0-0.5-0.224-0.5-0.5c0-1.82-1.481-3.301-3.303-3.301c-1.819,0-3.299,1.48-3.299,3.301
				c0,0.276-0.224,0.5-0.5,0.5s-0.5-0.224-0.5-0.5c0-2.371,1.929-4.301,4.299-4.301c2.372,0,4.303,1.93,4.303,4.301
				C36.303,22.405,36.079,22.629,35.803,22.629z"/>
		</g>
	</g>
</g>
</svg>
