<?xml version="1.0" encoding="utf-8"?>
<!-- Generator: Adobe Illustrator 16.0.0, SVG Export Plug-In . SVG Version: 6.00 Build 0)  -->
<!DOCTYPE svg PUBLIC "-//W3C//DTD SVG 1.1//EN" "http://www.w3.org/Graphics/SVG/1.1/DTD/svg11.dtd">
<svg version="1.1" id="Layer_1" xmlns="http://www.w3.org/2000/svg" xmlns:xlink="http://www.w3.org/1999/xlink" x="0px" y="0px"
	 width="48px" height="48px" viewBox="0 0 48 48" enable-background="new 0 0 48 48" xml:space="preserve">
<g>
	<g>
		<path d="M36.421,43.758H11.579c-0.965,0-1.749-0.783-1.749-1.748V5.99c0-0.965,0.784-1.748,1.749-1.748h24.842
			c0.964,0,1.749,0.783,1.749,1.748v36.02C38.17,42.975,37.385,43.758,36.421,43.758z M11.579,4.742
			c-0.689,0-1.249,0.559-1.249,1.248v36.02c0,0.689,0.56,1.25,1.249,1.25h24.842c0.688,0,1.249-0.561,1.249-1.25V5.99
			c0-0.689-0.561-1.248-1.249-1.248H11.579z"/>
	</g>
	<g>
		<circle cx="24" cy="40.451" r="1.02"/>
	</g>
	<g>
		<path d="M37.707,36.988H10.293c-0.139,0-0.25-0.111-0.25-0.25c0-0.137,0.111-0.25,0.25-0.25h27.414c0.139,0,0.25,0.113,0.25,0.25
			C37.957,36.877,37.846,36.988,37.707,36.988z"/>
	</g>
	<g>
		<path d="M24,25.248c-0.07,0-0.138-0.029-0.186-0.082l-4.745-5.244c-0.066-0.074-0.083-0.18-0.043-0.27s0.13-0.148,0.229-0.148
			h2.18v-7.766c0-0.139,0.111-0.25,0.249-0.25h4.632c0.139,0,0.25,0.111,0.25,0.25v7.766h2.18c0.099,0,0.188,0.059,0.229,0.148
			s0.023,0.195-0.043,0.27l-4.745,5.244C24.138,25.219,24.07,25.248,24,25.248z M19.817,20.004L24,24.627l4.183-4.623h-1.867
			c-0.138,0-0.25-0.111-0.25-0.25v-7.766h-4.132v7.766c0,0.139-0.111,0.25-0.25,0.25H19.817z"/>
	</g>
	<g>
		<path d="M31.987,29.498H16.013c-0.139,0-0.25-0.111-0.25-0.25v-5.287c0-0.139,0.111-0.25,0.25-0.25h2.293
			c0.139,0,0.25,0.111,0.25,0.25v2.621h10.889v-2.621c0-0.139,0.111-0.25,0.25-0.25h2.293c0.139,0,0.25,0.111,0.25,0.25v5.287
			C32.237,29.387,32.126,29.498,31.987,29.498z M16.262,28.998h15.477v-4.789h-1.795v2.621c0,0.139-0.111,0.25-0.249,0.25H18.306
			c-0.138,0-0.249-0.111-0.249-0.25v-2.621h-1.795V28.998z"/>
	</g>
</g>
</svg>
