<?xml version="1.0" encoding="utf-8"?>
<!-- Generator: Adobe Illustrator 16.0.0, SVG Export Plug-In . SVG Version: 6.00 Build 0)  -->
<!DOCTYPE svg PUBLIC "-//W3C//DTD SVG 1.1//EN" "http://www.w3.org/Graphics/SVG/1.1/DTD/svg11.dtd">
<svg version="1.1" id="Layer_1" xmlns="http://www.w3.org/2000/svg" xmlns:xlink="http://www.w3.org/1999/xlink" x="0px" y="0px"
	 width="48px" height="48px" viewBox="0 0 48 48" enable-background="new 0 0 48 48" xml:space="preserve">
<g>
	<g>
		<path d="M31.543,43.01H16.457c-0.964,0-1.748-0.783-1.748-1.748V6.738c0-0.963,0.784-1.748,1.748-1.748h15.086
			c0.964,0,1.748,0.785,1.748,1.748v34.523C33.291,42.227,32.507,43.01,31.543,43.01z M16.457,5.49
			c-0.688,0-1.248,0.559-1.248,1.248v34.523c0,0.689,0.56,1.248,1.248,1.248h15.086c0.688,0,1.248-0.559,1.248-1.248V6.738
			c0-0.689-0.56-1.248-1.248-1.248H16.457z"/>
	</g>
	<g>
		<path d="M32.781,36.156H15.219c-0.138,0-0.249-0.113-0.249-0.25c0-0.139,0.111-0.25,0.249-0.25h17.562
			c0.138,0,0.249,0.111,0.249,0.25C33.03,36.043,32.919,36.156,32.781,36.156z"/>
	</g>
	<g>
		<circle cx="24" cy="39.453" r="1.02"/>
	</g>
	<g>
		<path d="M24,23.438c-0.07,0-0.138-0.031-0.186-0.082l-2.731-3.02c-0.066-0.074-0.084-0.18-0.044-0.27s0.13-0.148,0.229-0.148
			h1.149v-4.365c0-0.139,0.111-0.25,0.249-0.25h2.667c0.139,0,0.25,0.111,0.25,0.25v4.365h1.149c0.099,0,0.188,0.057,0.229,0.148
			c0.04,0.09,0.022,0.195-0.044,0.268l-2.731,3.02C24.138,23.406,24.07,23.438,24,23.438z M21.831,20.418L24,22.814l2.17-2.398
			h-0.837c-0.138,0-0.25-0.111-0.25-0.25v-4.363h-2.167v4.365c0,0.137-0.111,0.25-0.25,0.25H21.831z"/>
	</g>
	<g>
		<path d="M28.599,26.684h-9.197c-0.139,0-0.25-0.111-0.25-0.25v-3.045c0-0.139,0.111-0.25,0.25-0.25h1.32
			c0.138,0,0.25,0.111,0.25,0.25v1.402h6.057v-1.402c0-0.139,0.112-0.25,0.25-0.25h1.32c0.139,0,0.25,0.111,0.25,0.25v3.045
			C28.849,26.572,28.737,26.684,28.599,26.684z M19.651,26.184h8.697v-2.545h-0.82v1.402c0,0.139-0.112,0.25-0.25,0.25h-6.557
			c-0.138,0-0.25-0.111-0.25-0.25v-1.402h-0.82V26.184z"/>
	</g>
</g>
</svg>
