<?xml version="1.0" encoding="utf-8"?>
<!-- Generator: Adobe Illustrator 16.0.0, SVG Export Plug-In . SVG Version: 6.00 Build 0)  -->
<!DOCTYPE svg PUBLIC "-//W3C//DTD SVG 1.1//EN" "http://www.w3.org/Graphics/SVG/1.1/DTD/svg11.dtd">
<svg version="1.1" id="Layer_1" xmlns="http://www.w3.org/2000/svg" xmlns:xlink="http://www.w3.org/1999/xlink" x="0px" y="0px"
	 width="48px" height="48px" viewBox="0 0 48 48" enable-background="new 0 0 48 48" xml:space="preserve">
<g>
	<g>
		<path d="M28.717,33.656H17.485c-1.515,0-2.748-1.232-2.748-2.746V17.09c0-1.514,1.233-2.746,2.748-2.746h11.231
			c1.515,0,2.748,1.232,2.748,2.746v13.82C31.465,32.424,30.231,33.656,28.717,33.656z M17.485,14.844
			c-1.24,0-2.248,1.008-2.248,2.246v13.82c0,1.238,1.008,2.248,2.248,2.248h11.231c1.24,0,2.248-1.01,2.248-2.248V17.09
			c0-1.238-1.008-2.246-2.248-2.246H17.485z"/>
	</g>
	<g>
		<path d="M33.013,22.057c-0.138,0-0.25-0.111-0.25-0.25v-3.125c0-0.139,0.112-0.25,0.25-0.25c0.139,0,0.25,0.111,0.25,0.25v3.125
			C33.263,21.945,33.151,22.057,33.013,22.057z"/>
	</g>
	<g>
		<path d="M28.215,13.002c-0.138,0-0.249-0.111-0.249-0.25V9.273c0-0.412-0.336-0.748-0.75-0.748h-8.229
			c-0.413,0-0.749,0.336-0.749,0.748v3.479c0,0.139-0.112,0.25-0.25,0.25s-0.25-0.111-0.25-0.25V9.273
			c0-0.688,0.561-1.248,1.249-1.248h8.229c0.689,0,1.249,0.561,1.249,1.248v3.479C28.465,12.891,28.354,13.002,28.215,13.002z"/>
	</g>
	<g>
		<path d="M27.216,39.975h-8.229c-0.688,0-1.249-0.561-1.249-1.248v-3.479c0-0.137,0.112-0.25,0.25-0.25s0.25,0.113,0.25,0.25v3.479
			c0,0.412,0.336,0.748,0.749,0.748h8.229c0.414,0,0.75-0.336,0.75-0.748v-3.479c0-0.137,0.111-0.25,0.249-0.25
			c0.139,0,0.25,0.113,0.25,0.25v3.479C28.465,39.414,27.905,39.975,27.216,39.975z"/>
	</g>
	<g>
		<g>
			<path d="M23.102,26.443c-0.07,0-0.138-0.029-0.186-0.082l-2.732-3.02c-0.065-0.072-0.083-0.178-0.043-0.268
				c0.04-0.092,0.13-0.148,0.229-0.148h1.149v-4.365c0-0.139,0.111-0.25,0.249-0.25h2.667c0.138,0,0.249,0.111,0.249,0.25v4.363
				h1.149c0.099,0,0.188,0.059,0.229,0.148s0.023,0.195-0.043,0.27l-2.731,3.02C23.239,26.414,23.172,26.443,23.102,26.443z
				 M20.932,23.424l2.17,2.398l2.169-2.398h-0.836c-0.139,0-0.25-0.111-0.25-0.25v-4.365h-2.167v4.365c0,0.139-0.111,0.25-0.25,0.25
				H20.932z"/>
		</g>
		<g>
			<path d="M27.7,29.689h-9.197c-0.139,0-0.25-0.111-0.25-0.248v-3.045c0-0.139,0.111-0.25,0.25-0.25h1.32
				c0.138,0,0.25,0.111,0.25,0.25v1.402h6.057v-1.402c0-0.139,0.111-0.25,0.25-0.25h1.32c0.138,0,0.25,0.111,0.25,0.25v3.045
				C27.95,29.578,27.838,29.689,27.7,29.689z M18.752,29.191h8.698v-2.545h-0.82v1.402c0,0.139-0.112,0.25-0.25,0.25h-6.557
				c-0.139,0-0.25-0.111-0.25-0.25v-1.402h-0.821V29.191z"/>
		</g>
	</g>
</g>
</svg>
