<?xml version="1.0" encoding="utf-8"?>
<!-- Generator: Adobe Illustrator 16.0.0, SVG Export Plug-In . SVG Version: 6.00 Build 0)  -->
<!DOCTYPE svg PUBLIC "-//W3C//DTD SVG 1.1//EN" "http://www.w3.org/Graphics/SVG/1.1/DTD/svg11.dtd">
<svg version="1.1" id="Layer_1" xmlns="http://www.w3.org/2000/svg" xmlns:xlink="http://www.w3.org/1999/xlink" x="0px" y="0px"
	 width="48px" height="48px" viewBox="0 0 48 48" enable-background="new 0 0 48 48" xml:space="preserve">
<g>
	<g>
		<g>
			<path d="M39.367,33.748H8.632c-0.964,0-1.748-0.783-1.748-1.748V11.262c0-0.963,0.784-1.748,1.748-1.748h30.735
				c0.964,0,1.749,0.785,1.749,1.748V32C41.116,32.965,40.331,33.748,39.367,33.748z M8.632,10.014
				c-0.688,0-1.249,0.561-1.249,1.248V32c0,0.689,0.56,1.248,1.249,1.248h30.735c0.688,0,1.249-0.559,1.249-1.248V11.262
				c0-0.688-0.561-1.248-1.249-1.248H8.632z"/>
		</g>
		<g>
			<path d="M40.866,31.119H7.134c-0.138,0-0.25-0.113-0.25-0.25c0-0.139,0.111-0.25,0.25-0.25h33.732c0.138,0,0.25,0.111,0.25,0.25
				C41.116,31.006,41.004,31.119,40.866,31.119z"/>
		</g>
		<g>
			<g>
				<path d="M17.288,38.174c-0.054,0-0.107-0.018-0.153-0.053c-0.109-0.084-0.129-0.24-0.045-0.35l3.435-4.434
					c0.084-0.109,0.241-0.129,0.35-0.045c0.109,0.084,0.129,0.242,0.045,0.352l-3.434,4.434
					C17.436,38.141,17.362,38.174,17.288,38.174z"/>
			</g>
			<g>
				<path d="M30.712,38.174c-0.075,0-0.148-0.033-0.198-0.096l-3.434-4.434c-0.084-0.109-0.064-0.268,0.044-0.352
					s0.266-0.064,0.351,0.045l3.434,4.434c0.084,0.109,0.064,0.266-0.044,0.35C30.82,38.156,30.766,38.174,30.712,38.174z"/>
			</g>
		</g>
		<g>
			<path d="M33.366,38.486H14.634c-0.138,0-0.25-0.111-0.25-0.25s0.112-0.25,0.25-0.25h18.732c0.138,0,0.25,0.111,0.25,0.25
				S33.504,38.486,33.366,38.486z"/>
		</g>
	</g>
	<g>
		<g>
			<path d="M24,24.318c-0.071,0-0.138-0.029-0.185-0.082l-3.765-4.162c-0.066-0.072-0.083-0.178-0.043-0.27
				c0.04-0.09,0.129-0.148,0.229-0.148h1.678v-6.109c0-0.139,0.112-0.25,0.25-0.25h3.675c0.138,0,0.25,0.111,0.25,0.25v6.109h1.678
				c0.099,0,0.188,0.059,0.228,0.148s0.023,0.195-0.043,0.27l-3.765,4.162C24.138,24.289,24.07,24.318,24,24.318z M20.797,20.156
				L24,23.695l3.202-3.539h-1.365c-0.138,0-0.25-0.111-0.25-0.25v-6.109h-3.175v6.109c0,0.139-0.112,0.25-0.25,0.25H20.797z"/>
		</g>
		<g>
			<path d="M30.337,27.689H17.662c-0.138,0-0.25-0.111-0.25-0.25v-4.195c0-0.139,0.112-0.25,0.25-0.25h1.82
				c0.138,0,0.25,0.111,0.25,0.25v2.027h8.536v-2.027c0-0.139,0.112-0.25,0.25-0.25h1.82c0.138,0,0.25,0.111,0.25,0.25v4.195
				C30.587,27.578,30.476,27.689,30.337,27.689z M17.912,27.189h12.176v-3.695h-1.321v2.027c0,0.139-0.112,0.25-0.25,0.25h-9.035
				c-0.138,0-0.25-0.111-0.25-0.25v-2.027h-1.32V27.189z"/>
		</g>
	</g>
</g>
</svg>
