<?xml version="1.0" encoding="utf-8"?>
<!-- Generator: Adobe Illustrator 16.0.0, SVG Export Plug-In . SVG Version: 6.00 Build 0)  -->
<!DOCTYPE svg PUBLIC "-//W3C//DTD SVG 1.1//EN" "http://www.w3.org/Graphics/SVG/1.1/DTD/svg11.dtd">
<svg version="1.1" id="Layer_1" xmlns="http://www.w3.org/2000/svg" xmlns:xlink="http://www.w3.org/1999/xlink" x="0px" y="0px"
	 width="48px" height="48px" viewBox="0 0 48 48" enable-background="new 0 0 48 48" xml:space="preserve">
<g>
	<g>
		<g>
			<path d="M39.362,33.436H8.627c-0.964,0-1.748-0.783-1.748-1.748V10.951c0-0.965,0.784-1.75,1.748-1.75h30.735
				c0.964,0,1.749,0.785,1.749,1.75v20.736C41.111,32.652,40.326,33.436,39.362,33.436z M8.627,9.701
				c-0.688,0-1.249,0.561-1.249,1.25v20.736c0,0.689,0.56,1.25,1.249,1.25h30.735c0.688,0,1.249-0.561,1.249-1.25V10.951
				c0-0.689-0.561-1.25-1.249-1.25H8.627z"/>
		</g>
		<g>
			<path d="M43.895,38.799c-0.003-0.002-0.006-0.002-0.01,0H4.105c-0.098,0-0.186-0.057-0.227-0.145
				c-0.041-0.088-0.027-0.193,0.036-0.268l2.952-3.496c0.047-0.057,0.117-0.088,0.19-0.088h33.876c0.074,0,0.144,0.031,0.191,0.088
				l2.917,3.455c0.063,0.045,0.104,0.119,0.104,0.203C44.145,38.688,44.033,38.799,43.895,38.799z M4.643,38.299h38.705l-2.53-2.998
				H7.173L4.643,38.299z"/>
		</g>
		<g>
			<path d="M40.861,30.807H7.129c-0.138,0-0.25-0.113-0.25-0.25c0-0.139,0.111-0.25,0.25-0.25h33.732c0.138,0,0.25,0.111,0.25,0.25
				C41.111,30.693,40.999,30.807,40.861,30.807z"/>
		</g>
	</g>
	<g>
		<g>
			<path d="M23.995,24.266c-0.071,0-0.138-0.031-0.186-0.082l-3.709-4.1c-0.066-0.074-0.083-0.18-0.043-0.27
				s0.129-0.148,0.228-0.148h1.649V13.65c0-0.139,0.111-0.25,0.25-0.25h3.621c0.138,0,0.25,0.111,0.25,0.25v6.016h1.649
				c0.099,0,0.188,0.057,0.228,0.148c0.04,0.09,0.023,0.195-0.043,0.268l-3.709,4.1C24.133,24.234,24.065,24.266,23.995,24.266z
				 M20.849,20.166l3.146,3.477l3.146-3.479h-1.336c-0.138,0-0.25-0.111-0.25-0.248V13.9h-3.121v6.016c0,0.139-0.112,0.25-0.25,0.25
				H20.849z"/>
		</g>
		<g>
			<path d="M30.238,27.586H17.751c-0.138,0-0.25-0.111-0.25-0.25v-4.133c0-0.139,0.112-0.25,0.25-0.25h1.793
				c0.138,0,0.25,0.111,0.25,0.25v1.994h8.402v-1.994c0-0.139,0.112-0.25,0.25-0.25h1.793c0.138,0,0.25,0.111,0.25,0.25v4.133
				C30.488,27.475,30.376,27.586,30.238,27.586z M18.001,27.086h11.987v-3.633h-1.293v1.994c0,0.139-0.112,0.25-0.25,0.25h-8.901
				c-0.138,0-0.25-0.111-0.25-0.25v-1.994h-1.293V27.086z"/>
		</g>
	</g>
</g>
</svg>
