<?xml version="1.0" encoding="utf-8"?>
<!-- Generator: Adobe Illustrator 16.0.0, SVG Export Plug-In . SVG Version: 6.00 Build 0)  -->
<!DOCTYPE svg PUBLIC "-//W3C//DTD SVG 1.1//EN" "http://www.w3.org/Graphics/SVG/1.1/DTD/svg11.dtd">
<svg version="1.1" id="Layer_1" xmlns="http://www.w3.org/2000/svg" xmlns:xlink="http://www.w3.org/1999/xlink" x="0px" y="0px"
	 width="128px" height="128px" viewBox="0 0 128 128" enable-background="new 0 0 128 128" xml:space="preserve">
<g>
	<g>
		<path fill="none" stroke="#000000" stroke-width="2" stroke-linecap="round" stroke-linejoin="round" stroke-miterlimit="10" d="
			M64.041,75.68"/>
		<path fill="none" stroke="#000000" stroke-width="2" stroke-linecap="round" stroke-linejoin="round" stroke-miterlimit="10" d="
			M78.67,52.781c0.558-1.108,0.882-2.352,0.882-3.68c0-4.553-3.728-8.247-8.327-8.247c-3.068,0-5.74,2.433-7.185,4.879
			c-1.444-2.446-4.116-4.879-7.188-4.879c-4.599,0-8.325,3.694-8.325,8.247c0,1.328,0.322,2.572,0.884,3.68h-0.016l0.041,0.052
			c0.429,0.833,14.604,19.47,14.604,19.47s14.176-18.638,14.603-19.47l0.039-0.052H78.67z"/>
	</g>
	<g>
		<g>
			<path d="M103.317,89.197H24.765c-2.206,0-4-1.794-4-4V31.702c0-2.206,1.794-4,4-4h78.553c2.206,0,4,1.794,4,4v53.495
				C107.317,87.403,105.523,89.197,103.317,89.197z M24.765,29.702c-1.103,0-2,0.897-2,2v53.495c0,1.103,0.897,2,2,2h78.553
				c1.103,0,2-0.897,2-2V31.702c0-1.103-0.897-2-2-2H24.765z"/>
		</g>
		<g>
			<path d="M113.917,102.638c-0.007,0-0.014-0.001-0.02,0H14.185c-0.389,0-0.743-0.226-0.907-0.579
				c-0.164-0.353-0.108-0.769,0.143-1.066l7.398-8.764c0.19-0.225,0.47-0.355,0.764-0.355h84.916c0.294,0,0.574,0.13,0.764,0.355
				l7.294,8.641c0.22,0.184,0.36,0.46,0.36,0.769C114.917,102.19,114.47,102.638,113.917,102.638z M16.337,100.638h95.407
				l-5.71-6.764H22.047L16.337,100.638z"/>
		</g>
		<g>
			<path d="M106.317,82.604H21.765c-0.552,0-1-0.448-1-1s0.448-1,1-1h84.553c0.552,0,1,0.448,1,1S106.87,82.604,106.317,82.604z"/>
		</g>
	</g>
</g>
</svg>
