<?xml version="1.0" encoding="utf-8"?>
<!-- Generator: Adobe Illustrator 16.0.0, SVG Export Plug-In . SVG Version: 6.00 Build 0)  -->
<!DOCTYPE svg PUBLIC "-//W3C//DTD SVG 1.1//EN" "http://www.w3.org/Graphics/SVG/1.1/DTD/svg11.dtd">
<svg version="1.1" id="Layer_1" xmlns="http://www.w3.org/2000/svg" xmlns:xlink="http://www.w3.org/1999/xlink" x="0px" y="0px"
	 width="128px" height="128px" viewBox="0 0 128 128" enable-background="new 0 0 128 128" xml:space="preserve">
<g>
	<g>
		<path fill="none" stroke="#000000" stroke-width="2" stroke-linecap="round" stroke-linejoin="round" stroke-miterlimit="10" d="
			M61.786,76.619"/>
		<path fill="none" stroke="#000000" stroke-width="2" stroke-linecap="round" stroke-linejoin="round" stroke-miterlimit="10" d="
			M70.88,62.385c0.35-0.688,0.55-1.461,0.55-2.286c0-2.834-2.314-5.128-5.178-5.128c-1.904,0-3.568,1.514-4.466,3.035
			c-0.898-1.521-2.559-3.035-4.468-3.035c-2.857,0-5.173,2.293-5.173,5.128c0,0.825,0.199,1.599,0.549,2.286h-0.008l0.022,0.035
			c0.267,0.514,9.077,12.102,9.077,12.102s8.812-11.588,9.078-12.102l0.023-0.035H70.88z"/>
	</g>
	<g>
		<g>
			<path d="M77.125,89.748H46.451c-3.309,0-6-2.691-6-6V46.588c0-3.309,2.691-6,6-6h30.674c3.309,0,6,2.691,6,6v37.159
				C83.125,87.056,80.434,89.748,77.125,89.748z M46.451,42.588c-2.206,0-4,1.794-4,4v37.159c0,2.206,1.794,4,4,4h30.674
				c2.206,0,4-1.794,4-4V46.588c0-2.206-1.794-4-4-4H46.451z"/>
		</g>
		<g>
			<path d="M86.631,60.674c-0.552,0-1-0.448-1-1v-7.837c0-0.552,0.448-1,1-1s1,0.448,1,1v7.837
				C87.631,60.226,87.183,60.674,86.631,60.674z"/>
		</g>
		<g>
			<path d="M74.606,37.976c-0.552,0-1-0.448-1-1v-9.222c0-0.551-0.449-1-1-1H50.97c-0.551,0-1,0.449-1,1v9.222c0,0.552-0.448,1-1,1
				s-1-0.448-1-1v-9.222c0-1.654,1.346-3,3-3h21.637c1.654,0,3,1.346,3,3v9.222C75.606,37.528,75.159,37.976,74.606,37.976z"/>
		</g>
		<g>
			<path d="M72.606,105.586H50.97c-1.654,0-3-1.346-3-3v-9.222c0-0.552,0.448-1,1-1s1,0.448,1,1v9.222c0,0.551,0.449,1,1,1h21.637
				c0.551,0,1-0.449,1-1v-9.222c0-0.552,0.448-1,1-1s1,0.448,1,1v9.222C75.606,104.24,74.261,105.586,72.606,105.586z"/>
		</g>
	</g>
</g>
</svg>
