<?xml version="1.0" encoding="utf-8"?>
<!-- Generator: Adobe Illustrator 16.0.0, SVG Export Plug-In . SVG Version: 6.00 Build 0)  -->
<!DOCTYPE svg PUBLIC "-//W3C//DTD SVG 1.1//EN" "http://www.w3.org/Graphics/SVG/1.1/DTD/svg11.dtd">
<svg version="1.1" id="Layer_1" xmlns="http://www.w3.org/2000/svg" xmlns:xlink="http://www.w3.org/1999/xlink" x="0px" y="0px"
	 width="128px" height="128px" viewBox="0 0 128 128" enable-background="new 0 0 128 128" xml:space="preserve">
<g>
	<g>
		<path fill="none" stroke="#000000" stroke-width="2" stroke-linecap="round" stroke-linejoin="round" stroke-miterlimit="10" d="
			M64.041,76.555"/>
		<path fill="none" stroke="#000000" stroke-width="2" stroke-linecap="round" stroke-linejoin="round" stroke-miterlimit="10" d="
			M78.375,54.119c0.546-1.083,0.863-2.304,0.863-3.603c0-4.462-3.65-8.078-8.156-8.078c-3.009,0-5.624,2.38-7.041,4.779
			c-1.416-2.398-4.032-4.779-7.042-4.779c-4.504,0-8.152,3.616-8.152,8.078c0,1.299,0.314,2.52,0.861,3.603h-0.013l0.038,0.05
			c0.422,0.816,14.308,19.074,14.308,19.074s13.888-18.258,14.306-19.074l0.039-0.05H78.375z"/>
	</g>
	<g>
		<g>
			<path d="M103.318,89.978H24.764c-2.206,0-4-1.794-4-4V32.486c0-2.206,1.794-4,4-4h78.555c2.206,0,4,1.794,4,4v53.491
				C107.318,88.183,105.524,89.978,103.318,89.978z M24.764,30.486c-1.103,0-2,0.897-2,2v53.491c0,1.103,0.897,2,2,2h78.555
				c1.103,0,2-0.897,2-2V32.486c0-1.103-0.897-2-2-2H24.764z"/>
		</g>
		<g>
			<path d="M106.318,83.386H21.764c-0.552,0-1-0.448-1-1s0.448-1,1-1h84.555c0.552,0,1,0.448,1,1S106.871,83.386,106.318,83.386z"/>
		</g>
		<g>
			<g>
				<path d="M47.218,101.072c-0.214,0-0.43-0.068-0.612-0.209c-0.437-0.338-0.517-0.966-0.178-1.403l8.606-11.114
					c0.337-0.437,0.966-0.517,1.403-0.178c0.437,0.338,0.517,0.966,0.178,1.403l-8.606,11.114
					C47.812,100.938,47.516,101.072,47.218,101.072z"/>
			</g>
			<g>
				<path d="M80.867,101.072c-0.298,0-0.594-0.133-0.791-0.388L71.468,89.57c-0.338-0.437-0.258-1.064,0.178-1.403
					c0.436-0.339,1.064-0.259,1.403,0.178l8.608,11.114c0.338,0.437,0.258,1.064-0.178,1.403
					C81.297,101.003,81.081,101.072,80.867,101.072z"/>
			</g>
		</g>
		<g>
			<path d="M87.518,101.854H40.564c-0.552,0-1-0.448-1-1s0.448-1,1-1h46.954c0.552,0,1,0.448,1,1S88.07,101.854,87.518,101.854z"/>
		</g>
	</g>
</g>
</svg>
