<?xml version="1.0" encoding="utf-8"?>
<!-- Generator: Adobe Illustrator 16.0.0, SVG Export Plug-In . SVG Version: 6.00 Build 0)  -->
<!DOCTYPE svg PUBLIC "-//W3C//DTD SVG 1.1//EN" "http://www.w3.org/Graphics/SVG/1.1/DTD/svg11.dtd">
<svg version="1.1" id="Layer_1" xmlns="http://www.w3.org/2000/svg" xmlns:xlink="http://www.w3.org/1999/xlink" x="0px" y="0px"
	 width="128px" height="128px" viewBox="0 0 128 128" enable-background="new 0 0 128 128" xml:space="preserve">
<g>
	<g>
		<path d="M64.039,81.534L64.039,81.534c-0.312,0-0.607-0.146-0.796-0.395c-3.281-4.314-19.449-25.595-20.591-27.46
			c-0.033-0.052-0.062-0.106-0.086-0.163l-0.002,0.001c-0.893-1.773-1.346-3.666-1.346-5.625c0-6.948,5.703-12.6,12.712-12.6
			c4.291,0,7.879,2.919,10.11,6.035c2.234-3.116,5.824-6.035,10.111-6.035c7.012,0,12.716,5.652,12.716,12.6
			c0,1.89-0.426,3.724-1.268,5.454c-0.03,0.107-0.079,0.211-0.146,0.305c-0.588,1.134-17.278,23.098-20.617,27.488
			C64.646,81.388,64.352,81.534,64.039,81.534z M44.37,52.659c0.005,0.009,0.009,0.017,0.013,0.023
			c0.565,0.991,11.773,15.828,19.656,26.2c7.852-10.329,19.002-25.085,19.659-26.199c0.009-0.022,0.02-0.044,0.03-0.066
			c0.755-1.499,1.138-3.088,1.138-4.725c0-5.845-4.807-10.6-10.716-10.6c-4.053,0-7.516,3.433-9.25,6.373
			c-0.18,0.305-0.507,0.492-0.861,0.492h0c-0.354,0-0.682-0.188-0.861-0.493c-1.73-2.939-5.191-6.372-9.248-6.372
			c-5.907,0-10.712,4.755-10.712,10.6c0,1.644,0.381,3.234,1.132,4.725C44.357,52.631,44.364,52.645,44.37,52.659z"/>
	</g>
	<g>
		<path d="M95.932,115.07H32.15c-2.206,0-4-1.794-4-4V19.268c0-2.206,1.794-4,4-4h63.781c2.206,0,4,1.794,4,4v91.802
			C99.932,113.275,98.137,115.07,95.932,115.07z M32.15,17.268c-1.103,0-2,0.897-2,2v91.802c0,1.103,0.897,2,2,2h63.781
			c1.103,0,2-0.897,2-2V19.268c0-1.103-0.897-2-2-2H32.15z"/>
	</g>
	<g>
		<path d="M66.596,106.406c0,1.412-1.144,2.555-2.557,2.555c-1.407,0-2.553-1.143-2.553-2.555c0-1.409,1.146-2.556,2.553-2.556
			C65.452,103.85,66.596,104.997,66.596,106.406z"/>
	</g>
	<g>
		<path d="M98.401,98.1H29.681c-0.552,0-1-0.448-1-1s0.448-1,1-1h68.721c0.552,0,1,0.448,1,1S98.954,98.1,98.401,98.1z"/>
	</g>
	<g>
		<path fill="none" stroke="#000000" stroke-width="2" stroke-linecap="round" stroke-linejoin="round" stroke-miterlimit="10" d="
			M64.039,85.286"/>
	</g>
</g>
</svg>
