<?xml version="1.0" encoding="utf-8"?>
<!-- Generator: Adobe Illustrator 16.0.0, SVG Export Plug-In . SVG Version: 6.00 Build 0)  -->
<!DOCTYPE svg PUBLIC "-//W3C//DTD SVG 1.1//EN" "http://www.w3.org/Graphics/SVG/1.1/DTD/svg11.dtd">
<svg version="1.1" id="Layer_1" xmlns="http://www.w3.org/2000/svg" xmlns:xlink="http://www.w3.org/1999/xlink" x="0px" y="0px"
	 width="128px" height="128px" viewBox="0 0 128 128" enable-background="new 0 0 128 128" xml:space="preserve">
<g>
	<g>
		<path d="M64.041,74.334c-0.312,0-0.607-0.146-0.796-0.395c-3.004-3.95-12.837-16.898-13.233-17.66
			c-0.016-0.03-0.03-0.062-0.043-0.093c-0.588-1.175-0.886-2.429-0.886-3.728c0-4.643,3.81-8.42,8.492-8.42
			c2.695,0,4.969,1.703,6.466,3.62c1.497-1.917,3.771-3.62,6.466-3.62c4.683,0,8.492,3.777,8.492,8.42
			c0,1.261-0.282,2.481-0.838,3.63c-0.027,0.08-0.064,0.158-0.112,0.23c-0.375,0.722-10.208,13.67-13.212,17.621
			C64.648,74.188,64.354,74.334,64.041,74.334z M51.797,55.375c0.511,0.815,7.306,9.808,12.244,16.306
			c4.938-6.499,11.732-15.493,12.253-16.328c0.005-0.013,0.012-0.025,0.018-0.038C76.768,54.412,77,53.451,77,52.458
			c0-3.54-2.913-6.42-6.492-6.42c-2.441,0-4.545,2.1-5.605,3.898c-0.359,0.609-1.363,0.61-1.723,0
			c-1.061-1.798-3.165-3.898-5.605-3.898c-3.58,0-6.492,2.88-6.492,6.42c0,0.994,0.231,1.955,0.687,2.856
			C51.779,55.335,51.789,55.355,51.797,55.375z"/>
	</g>
	<g>
		<path d="M83.702,113.193H44.38c-2.206,0-4-1.794-4-4V21.145c0-2.206,1.794-4,4-4h39.321c2.206,0,4,1.794,4,4v88.048
			C87.702,111.398,85.907,113.193,83.702,113.193z M44.38,19.145c-1.103,0-2,0.897-2,2v88.048c0,1.103,0.897,2,2,2h39.321
			c1.103,0,2-0.897,2-2V21.145c0-1.103-0.897-2-2-2H44.38z"/>
	</g>
	<g>
		<path d="M86.05,96.011H42.03c-0.552,0-1-0.448-1-1s0.448-1,1-1h44.02c0.552,0,1,0.448,1,1S86.602,96.011,86.05,96.011z"/>
	</g>
	<g>
		<path d="M66.595,103.902c0,1.411-1.146,2.554-2.554,2.554c-1.411,0-2.557-1.143-2.557-2.554c0-1.408,1.146-2.557,2.557-2.557
			C65.449,101.346,66.595,102.495,66.595,103.902z"/>
	</g>
	<g>
		<path fill="none" stroke="#000000" stroke-width="2" stroke-linecap="round" stroke-linejoin="round" stroke-miterlimit="10" d="
			M64.041,76.371"/>
	</g>
</g>
</svg>
