<?xml version="1.0" encoding="utf-8"?>
<!-- Generator: Adobe Illustrator 16.0.0, SVG Export Plug-In . SVG Version: 6.00 Build 0)  -->
<!DOCTYPE svg PUBLIC "-//W3C//DTD SVG 1.1//EN" "http://www.w3.org/Graphics/SVG/1.1/DTD/svg11.dtd">
<svg version="1.1" id="Layer_1" xmlns="http://www.w3.org/2000/svg" xmlns:xlink="http://www.w3.org/1999/xlink" x="0px" y="0px"
	 width="48px" height="48px" viewBox="0 0 48 48" enable-background="new 0 0 48 48" xml:space="preserve">
<g>
	<g>
		<path d="M36.421,43.758H11.579c-0.965,0-1.749-0.784-1.749-1.748V5.99c0-0.964,0.784-1.748,1.749-1.748h24.842
			c0.964,0,1.749,0.784,1.749,1.748v36.02C38.17,42.974,37.385,43.758,36.421,43.758z M11.579,4.741
			c-0.689,0-1.249,0.561-1.249,1.249v36.02c0,0.689,0.56,1.249,1.249,1.249h24.842c0.688,0,1.249-0.56,1.249-1.249V5.99
			c0-0.688-0.561-1.249-1.249-1.249H11.579z"/>
	</g>
	<g>
		<circle cx="24" cy="40.451" r="1.02"/>
	</g>
	<g>
		<path d="M37.707,36.988H10.293c-0.139,0-0.25-0.111-0.25-0.25c0-0.138,0.111-0.249,0.25-0.249h27.414
			c0.139,0,0.25,0.111,0.25,0.249C37.957,36.877,37.846,36.988,37.707,36.988z"/>
	</g>
	<g>
		<path d="M19.514,29.924c-0.032,0-0.064-0.006-0.095-0.019c-0.094-0.039-0.154-0.13-0.154-0.231v-3.371H15.55
			c-0.138,0-0.249-0.112-0.249-0.25V14.374c0-0.139,0.111-0.25,0.249-0.25h16.9c0.138,0,0.249,0.111,0.249,0.25v11.679
			c0,0.138-0.111,0.25-0.249,0.25h-9.211l-3.549,3.548C19.643,29.898,19.579,29.924,19.514,29.924z M15.8,25.803h3.714
			c0.139,0,0.25,0.112,0.25,0.25v3.019l3.195-3.195c0.047-0.047,0.11-0.073,0.177-0.073H32.2v-11.18H15.8V25.803z"/>
	</g>
	<g>
		<g>
			<circle cx="21.003" cy="20.454" r="0.799"/>
		</g>
		<g>
			<circle cx="24" cy="20.454" r="0.799"/>
		</g>
		<g>
			<circle cx="26.997" cy="20.454" r="0.799"/>
		</g>
	</g>
</g>
</svg>
