<?xml version="1.0" encoding="utf-8"?>
<!-- Generator: Adobe Illustrator 16.0.0, SVG Export Plug-In . SVG Version: 6.00 Build 0)  -->
<!DOCTYPE svg PUBLIC "-//W3C//DTD SVG 1.1//EN" "http://www.w3.org/Graphics/SVG/1.1/DTD/svg11.dtd">
<svg version="1.1" id="Layer_1" xmlns="http://www.w3.org/2000/svg" xmlns:xlink="http://www.w3.org/1999/xlink" x="0px" y="0px"
	 width="48px" height="48px" viewBox="0 0 48 48" enable-background="new 0 0 48 48" xml:space="preserve">
<g>
	<g>
		<g>
			<path d="M28.717,33.656H17.485c-1.515,0-2.748-1.232-2.748-2.747V17.091c0-1.515,1.233-2.747,2.748-2.747h11.231
				c1.515,0,2.748,1.232,2.748,2.747v13.818C31.465,32.424,30.231,33.656,28.717,33.656z M17.485,14.843
				c-1.24,0-2.248,1.009-2.248,2.248v13.818c0,1.239,1.008,2.248,2.248,2.248h11.231c1.24,0,2.248-1.009,2.248-2.248V17.091
				c0-1.239-1.008-2.248-2.248-2.248H17.485z"/>
		</g>
		<g>
			<path d="M33.013,22.057c-0.138,0-0.25-0.111-0.25-0.249v-3.126c0-0.139,0.112-0.25,0.25-0.25c0.139,0,0.25,0.111,0.25,0.25v3.126
				C33.263,21.945,33.151,22.057,33.013,22.057z"/>
		</g>
		<g>
			<path d="M28.215,13.001c-0.138,0-0.249-0.111-0.249-0.249V9.274c0-0.413-0.336-0.75-0.75-0.75h-8.229
				c-0.413,0-0.749,0.337-0.749,0.75v3.478c0,0.138-0.112,0.249-0.25,0.249s-0.25-0.111-0.25-0.249V9.274
				c0-0.689,0.561-1.249,1.249-1.249h8.229c0.689,0,1.249,0.56,1.249,1.249v3.478C28.465,12.89,28.354,13.001,28.215,13.001z"/>
		</g>
		<g>
			<path d="M27.216,39.975h-8.229c-0.688,0-1.249-0.56-1.249-1.249v-3.478c0-0.138,0.112-0.249,0.25-0.249s0.25,0.111,0.25,0.249
				v3.478c0,0.414,0.336,0.75,0.749,0.75h8.229c0.414,0,0.75-0.336,0.75-0.75v-3.478c0-0.138,0.111-0.249,0.249-0.249
				c0.139,0,0.25,0.111,0.25,0.249v3.478C28.465,39.415,27.905,39.975,27.216,39.975z"/>
		</g>
	</g>
	<g>
		<g>
			<path d="M20.692,28.357c-0.032,0-0.064-0.007-0.095-0.02c-0.094-0.038-0.154-0.13-0.154-0.23v-1.694h-1.878
				c-0.139,0-0.25-0.112-0.25-0.25v-6.271c0-0.138,0.111-0.25,0.25-0.25h9.073c0.138,0,0.249,0.112,0.249,0.25v6.271
				c0,0.138-0.111,0.25-0.249,0.25H22.74l-1.871,1.871C20.821,28.332,20.758,28.357,20.692,28.357z M18.814,25.913h1.878
				c0.139,0,0.25,0.112,0.25,0.25v1.342l1.519-1.519c0.047-0.047,0.11-0.073,0.177-0.073h4.751v-5.771h-8.574V25.913z"/>
		</g>
		<g>
			<g>
				<circle cx="21.492" cy="23.157" r="0.429"/>
			</g>
			<g>
				<circle cx="23.101" cy="23.157" r="0.429"/>
			</g>
			<g>
				<circle cx="24.71" cy="23.157" r="0.429"/>
			</g>
		</g>
	</g>
</g>
</svg>
