<?xml version="1.0" encoding="utf-8"?>
<!-- Generator: Adobe Illustrator 16.0.0, SVG Export Plug-In . SVG Version: 6.00 Build 0)  -->
<!DOCTYPE svg PUBLIC "-//W3C//DTD SVG 1.1//EN" "http://www.w3.org/Graphics/SVG/1.1/DTD/svg11.dtd">
<svg version="1.1" id="Layer_1" xmlns="http://www.w3.org/2000/svg" xmlns:xlink="http://www.w3.org/1999/xlink" x="0px" y="0px"
	 width="48px" height="48px" viewBox="0 0 48 48" enable-background="new 0 0 48 48" xml:space="preserve">
<g>
	<g>
		<g>
			<path d="M39.362,33.437H8.627c-0.964,0-1.748-0.785-1.748-1.749V10.95c0-0.964,0.784-1.748,1.748-1.748h30.735
				c0.964,0,1.749,0.784,1.749,1.748v20.737C41.111,32.651,40.326,33.437,39.362,33.437z M8.627,9.701
				c-0.688,0-1.249,0.561-1.249,1.249v20.737c0,0.689,0.56,1.249,1.249,1.249h30.735c0.688,0,1.249-0.56,1.249-1.249V10.95
				c0-0.688-0.561-1.249-1.249-1.249H8.627z"/>
		</g>
		<g>
			<path d="M43.895,38.798c-0.003,0-0.006,0-0.01,0H4.105c-0.098,0-0.186-0.057-0.227-0.144c-0.041-0.089-0.027-0.192,0.036-0.267
				l2.952-3.497c0.047-0.057,0.117-0.089,0.19-0.089h33.876c0.074,0,0.144,0.032,0.191,0.089l2.917,3.455
				c0.063,0.045,0.104,0.119,0.104,0.203C44.145,38.687,44.033,38.798,43.895,38.798z M4.643,38.299h38.705l-2.53-2.997H7.173
				L4.643,38.299z"/>
		</g>
		<g>
			<path d="M40.861,30.806H7.129c-0.138,0-0.25-0.111-0.25-0.249c0-0.139,0.111-0.25,0.25-0.25h33.732c0.138,0,0.25,0.111,0.25,0.25
				C41.111,30.694,40.999,30.806,40.861,30.806z"/>
		</g>
	</g>
	<g>
		<g>
			<path d="M20.353,27.486c-0.032,0-0.064-0.007-0.095-0.02c-0.094-0.038-0.154-0.13-0.154-0.23v-2.69h-2.969
				c-0.138,0-0.25-0.112-0.25-0.25v-9.482c0-0.138,0.112-0.25,0.25-0.25h13.722c0.138,0,0.25,0.112,0.25,0.25v9.482
				c0,0.138-0.112,0.25-0.25,0.25h-7.459l-2.867,2.867C20.481,27.461,20.417,27.486,20.353,27.486z M17.384,24.046h2.969
				c0.138,0,0.25,0.111,0.25,0.25v2.337l2.514-2.514c0.047-0.047,0.11-0.073,0.177-0.073h7.312v-8.982H17.384V24.046z"/>
		</g>
		<g>
			<g>
				<circle cx="21.562" cy="19.75" r="0.649"/>
			</g>
			<g>
				<circle cx="23.995" cy="19.75" r="0.649"/>
			</g>
			<g>
				<circle cx="26.428" cy="19.75" r="0.649"/>
			</g>
		</g>
	</g>
</g>
</svg>
