<?xml version="1.0" encoding="utf-8"?>
<!-- Generator: Adobe Illustrator 16.0.0, SVG Export Plug-In . SVG Version: 6.00 Build 0)  -->
<!DOCTYPE svg PUBLIC "-//W3C//DTD SVG 1.1//EN" "http://www.w3.org/Graphics/SVG/1.1/DTD/svg11.dtd">
<svg version="1.1" id="Layer_1" xmlns="http://www.w3.org/2000/svg" xmlns:xlink="http://www.w3.org/1999/xlink" x="0px" y="0px"
	 width="48px" height="48px" viewBox="0 0 48 48" enable-background="new 0 0 48 48" xml:space="preserve">
<g>
	<g>
		<g>
			<path d="M39.367,33.748H8.632c-0.964,0-1.748-0.784-1.748-1.748V11.263c0-0.964,0.784-1.749,1.748-1.749h30.735
				c0.964,0,1.749,0.785,1.749,1.749V32C41.116,32.964,40.331,33.748,39.367,33.748z M8.632,10.014c-0.688,0-1.249,0.56-1.249,1.249
				V32c0,0.688,0.56,1.249,1.249,1.249h30.735c0.688,0,1.249-0.561,1.249-1.249V11.263c0-0.689-0.561-1.249-1.249-1.249H8.632z"/>
		</g>
		<g>
			<path d="M40.866,31.118H7.134c-0.138,0-0.25-0.111-0.25-0.25c0-0.138,0.111-0.25,0.25-0.25h33.732c0.138,0,0.25,0.112,0.25,0.25
				C41.116,31.007,41.004,31.118,40.866,31.118z"/>
		</g>
		<g>
			<g>
				<path d="M17.288,38.174c-0.054,0-0.107-0.017-0.153-0.052c-0.109-0.085-0.129-0.242-0.045-0.352l3.435-4.433
					c0.084-0.109,0.241-0.129,0.35-0.045c0.109,0.085,0.129,0.242,0.045,0.351l-3.434,4.434
					C17.436,38.141,17.362,38.174,17.288,38.174z"/>
			</g>
			<g>
				<path d="M30.712,38.174c-0.075,0-0.148-0.033-0.198-0.097l-3.434-4.434c-0.084-0.108-0.064-0.266,0.044-0.351
					c0.109-0.084,0.266-0.064,0.351,0.045l3.434,4.433c0.084,0.109,0.064,0.267-0.044,0.352
					C30.82,38.157,30.766,38.174,30.712,38.174z"/>
			</g>
		</g>
		<g>
			<path d="M33.366,38.486H14.634c-0.138,0-0.25-0.112-0.25-0.25s0.112-0.25,0.25-0.25h18.732c0.138,0,0.25,0.112,0.25,0.25
				S33.504,38.486,33.366,38.486z"/>
		</g>
	</g>
	<g>
		<g>
			<path d="M20.303,27.58c-0.032,0-0.065-0.006-0.096-0.019c-0.094-0.039-0.154-0.13-0.154-0.231v-2.735h-3.017
				c-0.138,0-0.25-0.111-0.25-0.249V14.72c0-0.139,0.112-0.25,0.25-0.25h13.929c0.138,0,0.25,0.111,0.25,0.25v9.626
				c0,0.138-0.111,0.249-0.25,0.249h-7.574l-2.912,2.912C20.431,27.555,20.367,27.58,20.303,27.58z M17.285,24.096h3.018
				c0.138,0,0.25,0.111,0.25,0.25v2.382l2.559-2.559c0.047-0.047,0.11-0.073,0.177-0.073h7.427V14.97H17.285V24.096z"/>
		</g>
		<g>
			<g>
				<circle cx="21.53" cy="19.73" r="0.658"/>
			</g>
			<g>
				<circle cx="24" cy="19.73" r="0.658"/>
			</g>
			<g>
				<circle cx="26.47" cy="19.73" r="0.659"/>
			</g>
		</g>
	</g>
</g>
</svg>
