<?xml version="1.0" encoding="utf-8"?>
<!-- Generator: Adobe Illustrator 16.0.0, SVG Export Plug-In . SVG Version: 6.00 Build 0)  -->
<!DOCTYPE svg PUBLIC "-//W3C//DTD SVG 1.1//EN" "http://www.w3.org/Graphics/SVG/1.1/DTD/svg11.dtd">
<svg version="1.1" id="Layer_1" xmlns="http://www.w3.org/2000/svg" xmlns:xlink="http://www.w3.org/1999/xlink" x="0px" y="0px"
	 width="64px" height="64px" viewBox="0 0 64 64" enable-background="new 0 0 64 64" xml:space="preserve">
<g>
	<g>
		<g>
			<path d="M50.383,44.801H13.617c-1.93,0-3.5-1.57-3.5-3.5V17.213c0-1.93,1.57-3.5,3.5-3.5h36.767c1.93,0,3.5,1.57,3.5,3.5v24.088
				C53.883,43.23,52.313,44.801,50.383,44.801z M13.617,14.713c-1.378,0-2.5,1.121-2.5,2.5v24.088c0,1.379,1.122,2.5,2.5,2.5h36.767
				c1.378,0,2.5-1.121,2.5-2.5V17.213c0-1.379-1.122-2.5-2.5-2.5H13.617z"/>
		</g>
		<g>
			<path d="M53.383,41.469H10.617c-0.276,0-0.5-0.224-0.5-0.5s0.224-0.5,0.5-0.5h42.767c0.276,0,0.5,0.224,0.5,0.5
				S53.66,41.469,53.383,41.469z"/>
		</g>
		<g>
			<g>
				<path d="M23.491,50.412c-0.107,0-0.214-0.034-0.306-0.104c-0.218-0.169-0.258-0.483-0.089-0.701l4.353-5.621
					c0.17-0.219,0.483-0.258,0.702-0.09c0.218,0.169,0.258,0.483,0.089,0.701l-4.353,5.621
					C23.788,50.346,23.64,50.412,23.491,50.412z"/>
			</g>
			<g>
				<path d="M40.511,50.412c-0.149,0-0.297-0.066-0.396-0.193l-4.354-5.621c-0.169-0.219-0.129-0.533,0.089-0.702
					c0.219-0.168,0.532-0.129,0.702,0.089l4.354,5.621c0.169,0.219,0.129,0.533-0.089,0.702
					C40.725,50.378,40.618,50.412,40.511,50.412z"/>
			</g>
		</g>
		<g>
			<path d="M43.874,50.807H20.125c-0.276,0-0.5-0.224-0.5-0.5s0.224-0.5,0.5-0.5h23.749c0.276,0,0.5,0.224,0.5,0.5
				S44.15,50.807,43.874,50.807z"/>
		</g>
	</g>
	<g>
		<polygon fill="none" stroke="#000000" stroke-linecap="round" stroke-linejoin="round" stroke-miterlimit="10" points="
			34.329,27.068 34.329,19.008 29.671,19.008 29.671,27.068 27.226,27.068 32,32.346 36.774,27.068 		"/>
		<polygon fill="none" stroke="#000000" stroke-linecap="round" stroke-linejoin="round" stroke-miterlimit="10" points="
			37.728,31.303 37.728,34.188 26.273,34.188 26.273,31.303 23.965,31.303 23.965,34.188 23.965,34.586 23.965,36.619 
			40.036,36.619 40.036,34.586 40.036,34.188 40.036,31.303 		"/>
	</g>
</g>
</svg>
