<?xml version="1.0" encoding="utf-8"?>
<!-- Generator: Adobe Illustrator 16.0.0, SVG Export Plug-In . SVG Version: 6.00 Build 0)  -->
<!DOCTYPE svg PUBLIC "-//W3C//DTD SVG 1.1//EN" "http://www.w3.org/Graphics/SVG/1.1/DTD/svg11.dtd">
<svg version="1.1" id="Layer_1" xmlns="http://www.w3.org/2000/svg" xmlns:xlink="http://www.w3.org/1999/xlink" x="0px" y="0px"
	 width="64px" height="64px" viewBox="0 0 64 64" enable-background="new 0 0 64 64" xml:space="preserve">
<g>
	<g>
		<path d="M40.461,56.543H23.539c-1.93,0-3.5-1.57-3.5-3.5V11.477c0-1.93,1.57-3.5,3.5-3.5h16.923c1.93,0,3.5,1.57,3.5,3.5v41.566
			C43.961,54.973,42.391,56.543,40.461,56.543z M23.539,8.977c-1.378,0-2.5,1.121-2.5,2.5v41.566c0,1.379,1.122,2.5,2.5,2.5h16.923
			c1.378,0,2.5-1.121,2.5-2.5V11.477c0-1.379-1.122-2.5-2.5-2.5H23.539z"/>
	</g>
	<g>
		<path d="M43.132,47.852H20.867c-0.276,0-0.5-0.224-0.5-0.5s0.224-0.5,0.5-0.5h22.265c0.276,0,0.5,0.224,0.5,0.5
			S43.408,47.852,43.132,47.852z"/>
	</g>
	<g>
		<circle cx="32" cy="51.85" r="1.292"/>
	</g>
	<g>
		<path d="M32,31.729c-0.141,0-0.276-0.06-0.371-0.164l-3.464-3.828c-0.133-0.147-0.167-0.358-0.086-0.539s0.259-0.297,0.457-0.297
			h1.273v-5.35c0-0.276,0.224-0.5,0.5-0.5h3.381c0.276,0,0.5,0.224,0.5,0.5v5.35h1.273c0.198,0,0.377,0.116,0.457,0.297
			s0.046,0.392-0.086,0.539l-3.464,3.828C32.276,31.669,32.141,31.729,32,31.729z M29.663,27.9L32,30.483l2.337-2.583H33.69
			c-0.276,0-0.5-0.224-0.5-0.5v-5.35h-2.381v5.35c0,0.276-0.224,0.5-0.5,0.5H29.663z"/>
	</g>
	<g>
		<path d="M37.83,35.844H26.17c-0.276,0-0.5-0.224-0.5-0.5v-3.859c0-0.276,0.224-0.5,0.5-0.5h1.673c0.276,0,0.5,0.224,0.5,0.5v1.596
			h7.313v-1.596c0-0.276,0.224-0.5,0.5-0.5h1.674c0.276,0,0.5,0.224,0.5,0.5v3.859C38.33,35.62,38.106,35.844,37.83,35.844z
			 M26.67,34.844h10.66v-2.859h-0.674v1.596c0,0.276-0.224,0.5-0.5,0.5h-8.313c-0.276,0-0.5-0.224-0.5-0.5v-1.596H26.67V34.844z"/>
	</g>
</g>
</svg>
