<?xml version="1.0" encoding="utf-8"?>
<!-- Generator: Adobe Illustrator 16.0.0, SVG Export Plug-In . SVG Version: 6.00 Build 0)  -->
<!DOCTYPE svg PUBLIC "-//W3C//DTD SVG 1.1//EN" "http://www.w3.org/Graphics/SVG/1.1/DTD/svg11.dtd">
<svg version="1.1" id="Layer_1" xmlns="http://www.w3.org/2000/svg" xmlns:xlink="http://www.w3.org/1999/xlink" x="0px" y="0px"
	 width="64px" height="64px" viewBox="0 0 64 64" enable-background="new 0 0 64 64" xml:space="preserve">
<g>
	<g>
		<path d="M46.647,57.492H17.353c-1.93,0-3.5-1.57-3.5-3.5V10.527c0-1.93,1.57-3.5,3.5-3.5h29.295c1.93,0,3.5,1.57,3.5,3.5v43.465
			C50.147,55.922,48.577,57.492,46.647,57.492z M17.353,8.027c-1.378,0-2.5,1.121-2.5,2.5v43.465c0,1.379,1.122,2.5,2.5,2.5h29.295
			c1.378,0,2.5-1.121,2.5-2.5V10.527c0-1.379-1.122-2.5-2.5-2.5H17.353z"/>
	</g>
	<g>
		<path d="M33.292,53.115c0,0.715-0.578,1.293-1.293,1.293c-0.712,0-1.291-0.578-1.291-1.293c0-0.711,0.579-1.293,1.291-1.293
			C32.714,51.822,33.292,52.404,33.292,53.115z"/>
	</g>
	<g>
		<path d="M49.379,48.908H14.621c-0.276,0-0.5-0.224-0.5-0.5s0.224-0.5,0.5-0.5h34.758c0.276,0,0.5,0.224,0.5,0.5
			S49.655,48.908,49.379,48.908z"/>
	</g>
	<g>
		<path d="M31.999,34.027L31.999,34.027c-0.141,0-0.276-0.06-0.371-0.165l-6.016-6.65c-0.133-0.146-0.167-0.357-0.086-0.538
			s0.259-0.297,0.457-0.297h2.581v-9.662c0-0.276,0.224-0.5,0.5-0.5h5.872c0.276,0,0.5,0.224,0.5,0.5v9.662h2.579
			c0.198,0,0.377,0.116,0.457,0.297s0.046,0.392-0.086,0.538l-6.017,6.65C32.275,33.968,32.14,34.027,31.999,34.027z M27.11,27.377
			l4.889,5.405l4.89-5.405h-1.953c-0.276,0-0.5-0.224-0.5-0.5v-9.662h-4.872v9.662c0,0.276-0.224,0.5-0.5,0.5H27.11z"/>
	</g>
	<g>
		<path d="M42.126,39.412H21.873c-0.276,0-0.5-0.224-0.5-0.5v-6.703c0-0.276,0.224-0.5,0.5-0.5h2.908c0.276,0,0.5,0.224,0.5,0.5
			v3.141h13.438v-3.141c0-0.276,0.224-0.5,0.5-0.5h2.907c0.276,0,0.5,0.224,0.5,0.5v6.703
			C42.626,39.188,42.402,39.412,42.126,39.412z M22.373,38.412h19.253v-5.703h-1.907v3.141c0,0.276-0.224,0.5-0.5,0.5H24.781
			c-0.276,0-0.5-0.224-0.5-0.5v-3.141h-1.908V38.412z"/>
	</g>
</g>
</svg>
