<?xml version="1.0" encoding="utf-8"?>
<!-- Generator: Adobe Illustrator 16.0.0, SVG Export Plug-In . SVG Version: 6.00 Build 0)  -->
<!DOCTYPE svg PUBLIC "-//W3C//DTD SVG 1.1//EN" "http://www.w3.org/Graphics/SVG/1.1/DTD/svg11.dtd">
<svg version="1.1" id="Layer_1" xmlns="http://www.w3.org/2000/svg" xmlns:xlink="http://www.w3.org/1999/xlink" x="0px" y="0px"
	 width="128px" height="128px" viewBox="0 0 128 128" enable-background="new 0 0 128 128" xml:space="preserve">
<g>
	<g>
		<path d="M59.686,68.917c-0.253,0-0.507-0.096-0.701-0.287l-9.109-8.959c-0.394-0.387-0.399-1.021-0.012-1.414
			c0.386-0.394,1.021-0.399,1.414-0.012l8.398,8.26l17.123-17.307c0.388-0.393,1.022-0.396,1.414-0.008
			c0.393,0.389,0.396,1.021,0.008,1.414L60.398,68.617c0,0,0,0,0,0C60.203,68.817,59.944,68.917,59.686,68.917z"/>
	</g>
	<g>
		<path d="M83.701,113.193h-39.32c-2.206,0-4-1.794-4-4V21.145c0-2.206,1.794-4,4-4h39.32c2.206,0,4,1.794,4,4v88.048
			C87.701,111.398,85.907,113.193,83.701,113.193z M44.381,19.145c-1.103,0-2,0.897-2,2v88.048c0,1.103,0.897,2,2,2h39.32
			c1.103,0,2-0.897,2-2V21.145c0-1.103-0.897-2-2-2H44.381z"/>
	</g>
	<g>
		<path d="M86.053,96.011H42.029c-0.553,0-1-0.448-1-1s0.447-1,1-1h44.023c0.553,0,1,0.448,1,1S86.605,96.011,86.053,96.011z"/>
	</g>
	<g>
		<path d="M66.598,103.902c0,1.411-1.146,2.554-2.557,2.554c-1.414,0-2.553-1.143-2.553-2.554c0-1.408,1.139-2.557,2.553-2.557
			C65.451,101.346,66.598,102.495,66.598,103.902z"/>
	</g>
</g>
</svg>
