<?xml version="1.0" encoding="utf-8"?>
<!-- Generator: Adobe Illustrator 16.0.0, SVG Export Plug-In . SVG Version: 6.00 Build 0)  -->
<!DOCTYPE svg PUBLIC "-//W3C//DTD SVG 1.1//EN" "http://www.w3.org/Graphics/SVG/1.1/DTD/svg11.dtd">
<svg version="1.1" id="Layer_1" xmlns="http://www.w3.org/2000/svg" xmlns:xlink="http://www.w3.org/1999/xlink" x="0px" y="0px"
	 width="128px" height="128px" viewBox="0 0 128 128" enable-background="new 0 0 128 128" xml:space="preserve">
<g>
	<path fill="none" stroke="#000000" stroke-width="2" stroke-linecap="round" stroke-linejoin="round" stroke-miterlimit="10" d="
		M44.599,56.471l13.156,12.938 M57.755,69.409L83.48,43.403"/>
	<g>
		<g>
			<path d="M103.317,89.197H24.765c-2.206,0-4-1.794-4-4V31.702c0-2.206,1.794-4,4-4h78.553c2.206,0,4,1.794,4,4v53.495
				C107.317,87.403,105.523,89.197,103.317,89.197z M24.765,29.702c-1.103,0-2,0.897-2,2v53.495c0,1.103,0.897,2,2,2h78.553
				c1.103,0,2-0.897,2-2V31.702c0-1.103-0.897-2-2-2H24.765z"/>
		</g>
		<g>
			<path d="M113.917,102.638c-0.004,0.001-0.012,0-0.02,0H14.185c-0.39,0-0.743-0.226-0.907-0.579s-0.108-0.769,0.144-1.066
				l7.398-8.764c0.189-0.225,0.469-0.355,0.764-0.355h84.916c0.295,0,0.574,0.13,0.764,0.355l7.295,8.641
				c0.22,0.184,0.359,0.46,0.359,0.769C114.917,102.19,114.47,102.638,113.917,102.638z M16.338,100.638h95.406l-5.71-6.764H22.048
				L16.338,100.638z"/>
		</g>
		<g>
			<path d="M106.317,82.604H21.765c-0.553,0-1-0.448-1-1s0.447-1,1-1h84.553c0.553,0,1,0.448,1,1S106.87,82.604,106.317,82.604z"/>
		</g>
	</g>
</g>
</svg>
