<?xml version="1.0" encoding="utf-8"?>
<!-- Generator: Adobe Illustrator 16.0.0, SVG Export Plug-In . SVG Version: 6.00 Build 0)  -->
<!DOCTYPE svg PUBLIC "-//W3C//DTD SVG 1.1//EN" "http://www.w3.org/Graphics/SVG/1.1/DTD/svg11.dtd">
<svg version="1.1" id="Layer_1" xmlns="http://www.w3.org/2000/svg" xmlns:xlink="http://www.w3.org/1999/xlink" x="0px" y="0px"
	 width="128px" height="128px" viewBox="0 0 128 128" enable-background="new 0 0 128 128" xml:space="preserve">
<g>
	<g>
		<path d="M99.635,86.755h-71.27c-2.206,0-4-1.794-4-4V34.388c0-2.206,1.794-4,4-4h71.27c2.206,0,4,1.794,4,4v48.367
			C103.635,84.961,101.841,86.755,99.635,86.755z M28.365,32.388c-1.103,0-2,0.897-2,2v48.367c0,1.103,0.897,2,2,2h71.27
			c1.103,0,2-0.897,2-2V34.388c0-1.103-0.897-2-2-2H28.365z"/>
	</g>
	<g>
		<path d="M102.635,80.732h-77.27c-0.553,0-1-0.448-1-1s0.447-1,1-1h77.27c0.553,0,1,0.448,1,1S103.188,80.732,102.635,80.732z"/>
	</g>
	<g>
		<g>
			<path d="M48.624,96.895c-0.214,0-0.43-0.068-0.611-0.209c-0.437-0.338-0.517-0.967-0.178-1.403l7.871-10.155
				c0.337-0.436,0.968-0.516,1.402-0.178c0.437,0.338,0.517,0.967,0.178,1.403l-7.871,10.155
				C49.219,96.761,48.923,96.895,48.624,96.895z"/>
		</g>
		<g>
			<path d="M79.374,96.895c-0.299,0-0.595-0.133-0.792-0.388l-7.859-10.155c-0.338-0.437-0.258-1.064,0.179-1.403
				c0.438-0.337,1.064-0.257,1.403,0.179l7.859,10.155c0.338,0.437,0.258,1.064-0.179,1.403
				C79.803,96.826,79.588,96.895,79.374,96.895z"/>
		</g>
	</g>
	<g>
		<path d="M85.463,97.606H42.547c-0.553,0-1-0.448-1-1s0.447-1,1-1h42.916c0.553,0,1,0.448,1,1S86.016,97.606,85.463,97.606z"/>
	</g>
</g>
<g>
	<path fill="none" stroke="#000000" stroke-width="2" stroke-linecap="round" stroke-linejoin="round" stroke-miterlimit="10" d="
		M71.232,61.593h3.457c3.641,0,6.607-2.957,6.607-6.604s-2.967-6.605-6.607-6.605H74c-0.801-1.956-2.719-3.333-4.957-3.333
		c-1.006,0-1.943,0.281-2.744,0.759c-1.35-2.61-4.062-4.396-7.201-4.396c-4.232,0-7.701,3.247-8.066,7.387
		c-2.521,0.93-4.322,3.347-4.322,6.188c0,3.648,2.961,6.604,6.609,6.604h3.451"/>
	<path fill="none" stroke="#000000" stroke-width="2" stroke-linecap="round" stroke-linejoin="round" stroke-miterlimit="10" d="
		M71.232,61.593"/>
	<path fill="none" stroke="#000000" stroke-width="2" stroke-linecap="round" stroke-linejoin="round" stroke-miterlimit="10" d="
		M56.77,61.593"/>
	<path fill="none" stroke="#000000" stroke-width="2" stroke-linecap="round" stroke-linejoin="round" stroke-miterlimit="10" d="
		M69.348,66.139l-5.162,5.159l-5.158-5.159 M64.186,71.298V57.993"/>
</g>
</svg>
