<?xml version="1.0" encoding="utf-8"?>
<!-- Generator: Adobe Illustrator 16.0.0, SVG Export Plug-In . SVG Version: 6.00 Build 0)  -->
<!DOCTYPE svg PUBLIC "-//W3C//DTD SVG 1.1//EN" "http://www.w3.org/Graphics/SVG/1.1/DTD/svg11.dtd">
<svg version="1.1" id="Layer_1" xmlns="http://www.w3.org/2000/svg" xmlns:xlink="http://www.w3.org/1999/xlink" x="0px" y="0px"
	 width="128px" height="128px" viewBox="0 0 128 128" enable-background="new 0 0 128 128" xml:space="preserve">
<g>
	<g>
		<g>
			<path d="M75.528,86.549H48.354c-3.309,0-6-2.691-6-6V47.455c0-3.309,2.691-6,6-6h27.174c3.309,0,6,2.691,6,6v33.095
				C81.528,83.858,78.837,86.549,75.528,86.549z M48.354,43.455c-2.206,0-4,1.794-4,4v33.095c0,2.206,1.794,4,4,4h27.174
				c2.206,0,4-1.794,4-4V47.455c0-2.206-1.794-4-4-4H48.354z"/>
		</g>
		<g>
			<path d="M84.646,59.977c-0.553,0-1-0.448-1-1v-7.162c0-0.552,0.447-1,1-1s1,0.448,1,1v7.162
				C85.646,59.529,85.198,59.977,84.646,59.977z"/>
		</g>
		<g>
			<path d="M73.656,39.234c-0.553,0-1-0.448-1-1V29.98c0-0.551-0.448-1-1-1H52.226c-0.552,0-1,0.449-1,1v8.253c0,0.552-0.447,1-1,1
				s-1-0.448-1-1V29.98c0-1.654,1.346-3,3-3h19.431c1.654,0,3,1.346,3,3v8.253C74.656,38.786,74.209,39.234,73.656,39.234z"/>
		</g>
		<g>
			<path d="M71.656,101.02H52.226c-1.654,0-3-1.346-3-3v-8.255c0-0.552,0.447-1,1-1s1,0.448,1,1v8.255c0,0.551,0.448,1,1,1h19.431
				c0.552,0,1-0.449,1-1v-8.255c0-0.552,0.447-1,1-1s1,0.448,1,1v8.255C74.656,99.674,73.311,101.02,71.656,101.02z"/>
		</g>
	</g>
	<g>
		<path fill="none" stroke="#000000" stroke-width="2" stroke-linecap="round" stroke-linejoin="round" stroke-miterlimit="10" d="
			M67.069,67.711h2.452c2.575,0,4.671-2.094,4.671-4.681c0-2.587-2.096-4.679-4.671-4.679h-0.484
			c-0.573-1.39-1.931-2.363-3.526-2.363c-0.707,0-1.368,0.197-1.938,0.535c-0.954-1.846-2.883-3.114-5.109-3.114
			c-3,0-5.457,2.298-5.718,5.236c-1.782,0.66-3.062,2.37-3.062,4.386c0,2.586,2.102,4.681,4.688,4.681h2.449"/>
		<path fill="none" stroke="#000000" stroke-width="2" stroke-linecap="round" stroke-linejoin="round" stroke-miterlimit="10" d="
			M67.069,67.711"/>
		<path fill="none" stroke="#000000" stroke-width="2" stroke-linecap="round" stroke-linejoin="round" stroke-miterlimit="10" d="
			M56.82,67.711"/>
		<path fill="none" stroke="#000000" stroke-width="2" stroke-linecap="round" stroke-linejoin="round" stroke-miterlimit="10" d="
			M65.726,70.936l-3.652,3.658l-3.661-3.658 M62.073,74.594v-9.433"/>
	</g>
</g>
</svg>
