<?xml version="1.0" encoding="utf-8"?>
<!-- Generator: Adobe Illustrator 16.0.0, SVG Export Plug-In . SVG Version: 6.00 Build 0)  -->
<!DOCTYPE svg PUBLIC "-//W3C//DTD SVG 1.1//EN" "http://www.w3.org/Graphics/SVG/1.1/DTD/svg11.dtd">
<svg version="1.1" id="Layer_1" xmlns="http://www.w3.org/2000/svg" xmlns:xlink="http://www.w3.org/1999/xlink" x="0px" y="0px"
	 width="128px" height="128px" viewBox="0 0 128 128" enable-background="new 0 0 128 128" xml:space="preserve">
<g>
	<g>
		<path d="M92.885,109.687h-57.77c-2.206,0-4-1.794-4-4V22.313c0-2.206,1.794-4,4-4h57.77c2.206,0,4,1.794,4,4v83.373
			C96.885,107.892,95.091,109.687,92.885,109.687z M35.115,20.313c-1.103,0-2,0.897-2,2v83.373c0,1.103,0.897,2,2,2h57.77
			c1.103,0,2-0.897,2-2V22.313c0-1.103-0.897-2-2-2H35.115z"/>
	</g>
	<g>
		<path d="M66.336,101.684c0,1.289-1.047,2.333-2.336,2.333c-1.285,0-2.334-1.043-2.334-2.333c0-1.29,1.049-2.337,2.334-2.337
			C65.289,99.347,66.336,100.394,66.336,101.684z"/>
	</g>
	<g>
		<path d="M95.402,94.179H32.602c-0.553,0-1-0.448-1-1s0.447-1,1-1h62.801c0.553,0,1,0.448,1,1S95.955,94.179,95.402,94.179z"/>
	</g>
	<g>
		<path d="M77.521,65.129h-4.367c-0.553,0-1-0.448-1-1s0.447-1,1-1h4.367c4.059,0,7.361-3.302,7.361-7.361
			c0-4.058-3.303-7.359-7.361-7.359h-0.863c-0.407,0-0.773-0.247-0.927-0.625c-0.885-2.183-2.987-3.594-5.358-3.594
			c-1.038,0-2.059,0.283-2.953,0.818c-0.238,0.141-0.524,0.177-0.788,0.104c-0.266-0.076-0.487-0.258-0.614-0.503
			c-1.6-3.101-4.751-5.026-8.225-5.026c-4.831,0-8.793,3.628-9.217,8.439c-0.034,0.385-0.286,0.716-0.649,0.85
			c-2.877,1.064-4.81,3.836-4.81,6.896c0,4.059,3.301,7.361,7.357,7.361h4.373c0.553,0,1,0.448,1,1s-0.447,1-1,1h-4.373
			c-5.16,0-9.357-4.2-9.357-9.361c0-3.684,2.201-7.039,5.537-8.536c0.786-5.543,5.471-9.65,11.139-9.65
			c3.892,0,7.45,1.986,9.508,5.245c0.968-0.418,2.014-0.636,3.072-0.636c2.957,0,5.606,1.635,6.927,4.218h0.222
			c5.162,0,9.361,4.198,9.361,9.359C86.883,60.93,82.684,65.129,77.521,65.129z"/>
	</g>
	<g>
		<path fill="none" stroke="#000000" stroke-width="2" stroke-linecap="round" stroke-linejoin="round" stroke-miterlimit="10" d="
			M73.154,64.129"/>
	</g>
	<g>
		<path fill="none" stroke="#000000" stroke-width="2" stroke-linecap="round" stroke-linejoin="round" stroke-miterlimit="10" d="
			M54.848,64.129"/>
	</g>
	<g>
		<path d="M64.236,77.412c-0.003,0-0.005,0-0.008,0l0,0c-0.001,0-0.001,0-0.002,0c0,0-0.001,0-0.002,0c0,0-0.001,0-0.003,0l0,0
			c-0.128-0.002-0.249-0.028-0.361-0.073c-0.111-0.045-0.218-0.112-0.311-0.2c0-0.001-0.001-0.001-0.002-0.002l0,0
			c-0.007-0.006-0.014-0.013-0.021-0.02l-6.533-6.523c-0.391-0.39-0.391-1.023-0.001-1.414c0.391-0.392,1.024-0.391,1.415-0.001
			L63.236,74V59.572c0-0.552,0.447-1,1-1s1,0.448,1,1V74l4.826-4.82c0.391-0.39,1.024-0.391,1.415,0.001
			c0.39,0.391,0.39,1.024-0.001,1.414l-6.532,6.523c-0.005,0.005-0.01,0.01-0.015,0.015c-0.001,0-0.001,0-0.001,0l-0.001,0.001
			c-0.089,0.085-0.189,0.15-0.297,0.196c-0.117,0.051-0.246,0.079-0.382,0.081c-0.001,0-0.001,0-0.001,0c-0.001,0-0.002,0-0.002,0
			c-0.001,0-0.001,0-0.002,0l0,0C64.241,77.412,64.238,77.412,64.236,77.412z"/>
	</g>
</g>
</svg>
