<?xml version="1.0" encoding="utf-8"?>
<!-- Generator: Adobe Illustrator 16.0.0, SVG Export Plug-In . SVG Version: 6.00 Build 0)  -->
<!DOCTYPE svg PUBLIC "-//W3C//DTD SVG 1.1//EN" "http://www.w3.org/Graphics/SVG/1.1/DTD/svg11.dtd">
<svg version="1.1" id="Layer_1" xmlns="http://www.w3.org/2000/svg" xmlns:xlink="http://www.w3.org/1999/xlink" x="0px" y="0px"
	 width="48px" height="48px" viewBox="0 0 48 48" enable-background="new 0 0 48 48" xml:space="preserve">
<g>
	<g>
		<g>
			<path d="M39.362,33.437H8.628c-0.964,0-1.748-0.785-1.748-1.749V10.95c0-0.964,0.784-1.748,1.748-1.748h30.734
				c0.965,0,1.748,0.784,1.748,1.748v20.738C41.11,32.652,40.327,33.437,39.362,33.437z M8.628,9.702
				c-0.689,0-1.249,0.56-1.249,1.249v20.738c0,0.689,0.56,1.249,1.249,1.249h30.734c0.689,0,1.249-0.56,1.249-1.249V10.95
				c0-0.688-0.56-1.249-1.249-1.249H8.628z"/>
		</g>
		<g>
			<path d="M43.896,38.798c-0.002,0-0.006,0-0.01,0H4.105c-0.097,0-0.186-0.057-0.227-0.145s-0.027-0.192,0.036-0.266l2.951-3.497
				c0.047-0.057,0.117-0.089,0.191-0.089h33.876c0.073,0,0.144,0.032,0.19,0.089l2.916,3.455c0.063,0.045,0.104,0.119,0.104,0.203
				C44.145,38.687,44.032,38.798,43.896,38.798z M4.643,38.299h38.705l-2.53-2.997H7.173L4.643,38.299z"/>
		</g>
		<g>
			<path d="M40.861,30.806H7.13c-0.139,0-0.25-0.112-0.25-0.25c0-0.138,0.111-0.25,0.25-0.25h33.731c0.138,0,0.249,0.112,0.249,0.25
				C41.11,30.694,40.999,30.806,40.861,30.806z"/>
		</g>
	</g>
	<g>
		<path d="M21.487,25.941c-0.037,0-0.072-0.008-0.106-0.023l0,0c-0.001,0-0.001,0-0.001,0l0,0l0,0v0h-0.001l0,0
			c-0.001,0-0.001,0-0.001,0l0,0l0,0l-0.001,0h-0.001v0l0,0l0,0c0,0,0,0-0.001,0l0,0h-0.001v0l0,0l0,0l-0.001,0l0,0
			c-0.001,0-0.001,0-0.001,0l0,0l0,0l0,0l-0.001,0l0,0c-0.001,0-0.001,0-0.001,0l0,0c-0.021-0.011-0.041-0.026-0.059-0.043l0,0
			l-5.247-5.161c-0.099-0.097-0.1-0.254-0.003-0.353c0.097-0.099,0.254-0.099,0.354-0.003l5.069,4.986l10.089-10.198
			c0.097-0.098,0.255-0.1,0.354-0.002c0.098,0.097,0.099,0.255,0.002,0.353L21.665,25.867c-0.011,0.011-0.021,0.02-0.033,0.028l0,0
			c0,0-0.001,0-0.001,0l0,0c-0.001,0-0.001,0-0.001,0v0l0,0c0,0,0,0,0,0h-0.001l0,0l-0.001,0l0,0c0,0,0,0,0,0l0,0l-0.001,0l0,0
			c-0.001,0-0.001,0-0.001,0l0,0v0l0,0l-0.001,0l0,0c-0.001,0-0.001,0-0.001,0v0v0h-0.001v0c-0.001,0-0.001,0-0.001,0s0,0,0,0l0,0
			l0,0l-0.001,0c0,0,0,0-0.001,0v0l0,0v0l0,0h-0.001c0,0,0,0-0.001,0l0,0v0l0,0l-0.001,0h-0.001v0l0,0v0c0,0,0,0-0.001,0l0,0
			l-0.001,0l0,0v0l0,0c0,0,0,0-0.001,0l0,0h-0.001v0l0,0l0,0c0,0-0.001,0-0.001,0l0,0c-0.001,0-0.001,0-0.001,0l0,0c0,0,0,0,0,0l0,0
			h-0.001v0c-0.001,0-0.001,0-0.001,0l0,0c0,0,0,0,0,0l0,0c-0.001,0-0.001,0-0.001,0s0,0-0.001,0c0,0,0,0,0,0l0,0l0,0l0,0
			c-0.001,0-0.001,0-0.001,0c-0.001,0-0.001,0-0.001,0v0l0,0v0l0,0c-0.001,0-0.001,0-0.002,0l0,0c0,0,0,0,0,0l0,0c0,0,0,0-0.001,0
			l0,0c0,0-0.001,0-0.001,0l0,0l0,0l0,0c0,0,0,0-0.001,0l0,0c0,0-0.001,0-0.001,0l0,0l0,0l0,0l-0.001,0l0,0
			c-0.001,0-0.001,0-0.001,0l0,0v0l0,0h-0.001l0,0C21.562,25.933,21.524,25.941,21.487,25.941z"/>
	</g>
</g>
</svg>
