<?xml version="1.0" encoding="utf-8"?>
<!-- Generator: Adobe Illustrator 16.0.0, SVG Export Plug-In . SVG Version: 6.00 Build 0)  -->
<!DOCTYPE svg PUBLIC "-//W3C//DTD SVG 1.1//EN" "http://www.w3.org/Graphics/SVG/1.1/DTD/svg11.dtd">
<svg version="1.1" id="Layer_1" xmlns="http://www.w3.org/2000/svg" xmlns:xlink="http://www.w3.org/1999/xlink" x="0px" y="0px"
	 width="48px" height="48px" viewBox="0 0 48 48" enable-background="new 0 0 48 48" xml:space="preserve">
<g>
	<g>
		<path d="M36.421,43.758H11.578c-0.964,0-1.748-0.784-1.748-1.748V5.99c0-0.964,0.784-1.749,1.748-1.749h24.843
			c0.965,0,1.749,0.785,1.749,1.749v36.02C38.17,42.974,37.386,43.758,36.421,43.758z M11.578,4.741
			c-0.688,0-1.248,0.561-1.248,1.249v36.02c0,0.688,0.56,1.249,1.248,1.249h24.843c0.689,0,1.25-0.56,1.25-1.249V5.99
			c0-0.688-0.561-1.249-1.25-1.249H11.578z"/>
	</g>
	<g>
		<circle cx="24" cy="40.452" r="1.02"/>
	</g>
	<g>
		<path d="M37.708,36.989H10.293c-0.139,0-0.25-0.112-0.25-0.25c0-0.138,0.111-0.25,0.25-0.25h27.415
			c0.137,0,0.249,0.112,0.249,0.25C37.957,36.877,37.845,36.989,37.708,36.989z"/>
	</g>
	<g>
		<path d="M21.072,27.807c-0.012,0-0.055-0.004-0.08-0.013l0,0c-0.001,0-0.001,0-0.002,0l0,0l0,0l0,0l-0.001,0l0,0h-0.001l0,0v0l0,0
			h-0.001l0,0c-0.001,0-0.001,0-0.001,0l0,0l0,0l-0.001,0h-0.001l0,0v0l0,0c0,0,0,0-0.001,0l0,0c-0.001,0-0.001,0-0.001,0l0,0l0,0
			l-0.001,0H20.98v0l0,0c0,0,0,0-0.001,0l-0.001,0l0,0l0,0v0c-0.001,0-0.001,0-0.001,0h-0.001v0l0,0c0,0,0,0-0.001,0l0,0h-0.001l0,0
			v0l0,0h-0.001l0,0c-0.028-0.012-0.054-0.03-0.077-0.052l0,0l-6.123-6.023c-0.1-0.097-0.1-0.254-0.004-0.353
			c0.098-0.099,0.256-0.1,0.354-0.003l5.947,5.849l11.804-11.932c0.097-0.098,0.255-0.1,0.354-0.002
			c0.098,0.097,0.099,0.255,0.002,0.353L21.25,27.732l0,0c-0.018,0.017-0.035,0.031-0.056,0.043l0,0c0,0,0,0-0.001,0l0,0v0l0,0
			l-0.001,0l0,0c0,0,0,0-0.001,0l0,0l0,0l0,0c-0.001,0-0.001,0-0.001,0l0,0c0,0,0,0-0.001,0l0,0l0,0c0,0,0,0-0.001,0l0,0v0h-0.001
			l0,0v0h-0.001l0,0v0c-0.001,0-0.001,0-0.001,0l0,0c0,0,0,0,0,0c-0.001,0-0.001,0-0.001,0l0,0c0,0,0,0-0.001,0l0,0v0l0,0
			c-0.001,0-0.001,0-0.001,0s0,0,0,0h-0.001l0,0v0l0,0h-0.001c0,0,0,0,0,0c-0.001,0-0.001,0-0.001,0l0,0
			C21.146,27.799,21.109,27.807,21.072,27.807z"/>
	</g>
</g>
</svg>
