<?xml version="1.0" encoding="utf-8"?>
<!-- Generator: Adobe Illustrator 16.0.0, SVG Export Plug-In . SVG Version: 6.00 Build 0)  -->
<!DOCTYPE svg PUBLIC "-//W3C//DTD SVG 1.1//EN" "http://www.w3.org/Graphics/SVG/1.1/DTD/svg11.dtd">
<svg version="1.1" id="Layer_1" xmlns="http://www.w3.org/2000/svg" xmlns:xlink="http://www.w3.org/1999/xlink" x="0px" y="0px"
	 width="48px" height="48px" viewBox="0 0 48 48" enable-background="new 0 0 48 48" xml:space="preserve">
<g>
	<g>
		<g>
			<path d="M28.718,35.704H17.485c-1.515,0-2.748-1.232-2.748-2.747V19.138c0-1.515,1.233-2.747,2.748-2.747h11.232
				c1.514,0,2.747,1.232,2.747,2.747v13.819C31.465,34.472,30.231,35.704,28.718,35.704z M17.485,16.891
				c-1.24,0-2.248,1.008-2.248,2.248v13.819c0,1.239,1.008,2.248,2.248,2.248h11.232c1.239,0,2.247-1.008,2.247-2.248V19.138
				c0-1.239-1.008-2.248-2.247-2.248H17.485z"/>
		</g>
		<g>
			<path d="M33.013,24.104c-0.138,0-0.25-0.111-0.25-0.25v-3.126c0-0.138,0.112-0.25,0.25-0.25c0.139,0,0.25,0.111,0.25,0.25v3.126
				C33.263,23.993,33.151,24.104,33.013,24.104z"/>
		</g>
		<g>
			<path d="M28.216,15.049c-0.139,0-0.25-0.111-0.25-0.25v-3.478c0-0.413-0.336-0.75-0.75-0.75h-8.229
				c-0.413,0-0.749,0.336-0.749,0.75v3.478c0,0.138-0.111,0.25-0.25,0.25c-0.138,0-0.25-0.111-0.25-0.25v-3.478
				c0-0.689,0.561-1.249,1.249-1.249h8.229c0.689,0,1.249,0.56,1.249,1.249v3.478C28.465,14.938,28.354,15.049,28.216,15.049z"/>
		</g>
		<g>
			<path d="M27.216,42.022h-8.229c-0.688,0-1.249-0.56-1.249-1.249v-3.478c0-0.138,0.112-0.25,0.25-0.25
				c0.139,0,0.25,0.111,0.25,0.25v3.478c0,0.414,0.336,0.75,0.749,0.75h8.229c0.414,0,0.75-0.336,0.75-0.75v-3.478
				c0-0.138,0.111-0.25,0.25-0.25c0.138,0,0.249,0.111,0.249,0.25v3.478C28.465,41.462,27.905,42.022,27.216,42.022z"/>
		</g>
	</g>
	<g>
		<path d="M21.792,29.004c-0.063,0-0.127-0.024-0.175-0.072l0,0l-2.738-2.692c-0.099-0.097-0.1-0.254-0.003-0.353
			c0.097-0.099,0.255-0.1,0.354-0.003l2.561,2.518l5.181-5.236c0.097-0.098,0.255-0.099,0.353-0.002
			c0.099,0.097,0.1,0.255,0.002,0.354l-5.354,5.412l0,0c-0.023,0.024-0.051,0.042-0.08,0.055l0,0c0,0-0.001,0-0.001,0l0,0h-0.001
			l0,0v0l0,0c-0.001,0-0.001,0-0.001,0l0,0c0,0-0.001,0-0.001,0l0,0l0,0l-0.001,0l0,0l0,0l-0.001,0l0,0c0,0,0,0-0.001,0
			c0,0,0,0.001,0,0h-0.001l0,0v0c-0.001,0-0.001,0-0.001,0l0,0l0,0l-0.001,0l0,0c0,0,0,0-0.001,0c0,0,0,0,0,0h-0.001v0
			c-0.001,0-0.001,0-0.001,0l0,0c0,0,0,0-0.001,0l0,0l0,0l0,0c-0.001,0-0.001,0-0.001,0v0C21.849,28.999,21.82,29.004,21.792,29.004
			z"/>
	</g>
</g>
</svg>
