<?xml version="1.0" encoding="utf-8"?>
<!-- Generator: Adobe Illustrator 16.0.0, SVG Export Plug-In . SVG Version: 6.00 Build 0)  -->
<!DOCTYPE svg PUBLIC "-//W3C//DTD SVG 1.1//EN" "http://www.w3.org/Graphics/SVG/1.1/DTD/svg11.dtd">
<svg version="1.1" id="Layer_1" xmlns="http://www.w3.org/2000/svg" xmlns:xlink="http://www.w3.org/1999/xlink" x="0px" y="0px"
	 width="48px" height="48px" viewBox="0 0 48 48" enable-background="new 0 0 48 48" xml:space="preserve">
<g>
	<g>
		<g>
			<path d="M39.367,33.749H8.633c-0.965,0-1.748-0.784-1.748-1.748V11.263c0-0.964,0.783-1.749,1.748-1.749h30.734
				c0.965,0,1.748,0.785,1.748,1.749V32C41.115,32.964,40.332,33.749,39.367,33.749z M8.633,10.014c-0.689,0-1.248,0.56-1.248,1.249
				V32c0,0.688,0.559,1.249,1.248,1.249h30.734c0.689,0,1.25-0.56,1.25-1.249V11.263c0-0.689-0.561-1.249-1.25-1.249H8.633z"/>
		</g>
		<g>
			<path d="M40.865,31.118H7.135c-0.139,0-0.25-0.111-0.25-0.25s0.111-0.25,0.25-0.25h33.73c0.139,0,0.25,0.112,0.25,0.25
				S41.004,31.118,40.865,31.118z"/>
		</g>
		<g>
			<g>
				<path d="M17.287,38.174c-0.053,0-0.107-0.017-0.152-0.052c-0.109-0.084-0.129-0.242-0.045-0.351l3.436-4.433
					c0.084-0.109,0.24-0.128,0.35-0.044c0.109,0.084,0.129,0.242,0.045,0.351l-3.434,4.434
					C17.436,38.141,17.363,38.174,17.287,38.174z"/>
			</g>
			<g>
				<path d="M30.713,38.174c-0.074,0-0.148-0.033-0.197-0.096l-3.436-4.434c-0.084-0.109-0.064-0.266,0.045-0.351
					c0.109-0.084,0.266-0.065,0.352,0.044l3.434,4.433c0.084,0.109,0.064,0.267-0.045,0.351
					C30.82,38.157,30.766,38.174,30.713,38.174z"/>
			</g>
		</g>
		<g>
			<path d="M33.365,38.486h-18.73c-0.139,0-0.25-0.112-0.25-0.25c0-0.138,0.111-0.25,0.25-0.25h18.73c0.139,0,0.25,0.112,0.25,0.25
				C33.615,38.375,33.504,38.486,33.365,38.486z"/>
		</g>
	</g>
	<g>
		<path d="M21.344,26.248c-0.059,0-0.115-0.02-0.162-0.059l0,0v0c0,0,0,0-0.002,0l0,0v0v0v0l0,0
			c-0.004-0.003-0.008-0.007-0.012-0.01l-5.559-5.466c-0.098-0.097-0.1-0.254-0.002-0.353c0.096-0.099,0.254-0.099,0.354-0.003
			l5.379,5.292l10.697-10.812c0.098-0.098,0.256-0.1,0.354-0.002c0.098,0.097,0.1,0.255,0.002,0.353L21.521,26.173l0,0
			c-0.031,0.032-0.07,0.054-0.111,0.065l0,0c0,0,0,0,0,0l0,0h-0.002l0,0l0,0l0,0v0l0,0c-0.002,0-0.002,0-0.002,0l0,0v0l0,0
			c0,0,0,0-0.002,0l0,0l0,0c0,0,0,0,0,0l0,0l0,0c-0.002,0-0.002,0-0.002,0l0,0v0l0,0H21.4l0,0l0,0c0,0,0,0,0,0l0,0c0,0,0,0-0.002,0
			l0,0l0,0v0l0,0c0,0,0,0-0.002,0l0,0C21.379,26.246,21.361,26.248,21.344,26.248z"/>
	</g>
</g>
</svg>
