<?xml version="1.0" encoding="utf-8"?>
<!-- Generator: Adobe Illustrator 16.0.0, SVG Export Plug-In . SVG Version: 6.00 Build 0)  -->
<!DOCTYPE svg PUBLIC "-//W3C//DTD SVG 1.1//EN" "http://www.w3.org/Graphics/SVG/1.1/DTD/svg11.dtd">
<svg version="1.1" id="Layer_1" xmlns="http://www.w3.org/2000/svg" xmlns:xlink="http://www.w3.org/1999/xlink" x="0px" y="0px"
	 width="48px" height="48px" viewBox="0 0 48 48" enable-background="new 0 0 48 48" xml:space="preserve">
<g>
	<g>
		<path d="M31.542,43.01H16.457c-0.964,0-1.748-0.785-1.748-1.749V6.739c0-0.964,0.784-1.749,1.748-1.749h15.085
			c0.964,0,1.749,0.785,1.749,1.749v34.523C33.291,42.226,32.506,43.01,31.542,43.01z M16.457,5.49c-0.689,0-1.249,0.56-1.249,1.249
			v34.523c0,0.689,0.56,1.249,1.249,1.249h15.085c0.688,0,1.249-0.56,1.249-1.249V6.739c0-0.689-0.561-1.249-1.249-1.249H16.457z"/>
	</g>
	<g>
		<path d="M32.78,36.155H15.219c-0.138,0-0.25-0.111-0.25-0.25s0.112-0.25,0.25-0.25H32.78c0.138,0,0.249,0.112,0.249,0.25
			S32.918,36.155,32.78,36.155z"/>
	</g>
	<g>
		<circle cx="24" cy="39.453" r="1.02"/>
	</g>
	<g>
		<path d="M22.262,25.346c-0.062,0-0.127-0.024-0.176-0.072l0,0l-3.634-3.574c-0.099-0.097-0.1-0.254-0.003-0.353
			c0.098-0.099,0.256-0.1,0.354-0.003l3.457,3.4l6.935-7.009c0.097-0.098,0.255-0.099,0.353-0.002
			c0.099,0.097,0.1,0.255,0.002,0.353l-7.109,7.186l0,0c-0.031,0.033-0.07,0.055-0.111,0.066l0,0c-0.001,0-0.001,0-0.002,0l0,0
			c0,0,0,0,0,0l0,0c0,0,0,0-0.001,0l0,0l-0.001,0l0,0l0,0l0,0h-0.001c0,0,0.001,0-0.001,0l0,0l0,0h-0.001c0,0,0,0.001-0.001,0l0,0
			l0,0c0,0,0,0-0.001,0c0,0,0,0-0.001,0c0,0,0,0,0,0l0,0l0,0c0,0,0,0-0.001,0l0,0h-0.001v0l0,0l0,0c-0.001,0-0.001,0-0.001,0
			s0,0-0.001,0c0,0,0,0,0,0l0,0C22.297,25.344,22.279,25.346,22.262,25.346z"/>
	</g>
</g>
</svg>
