<?xml version="1.0" encoding="utf-8"?>
<!-- Generator: Adobe Illustrator 16.0.0, SVG Export Plug-In . SVG Version: 6.00 Build 0)  -->
<!DOCTYPE svg PUBLIC "-//W3C//DTD SVG 1.1//EN" "http://www.w3.org/Graphics/SVG/1.1/DTD/svg11.dtd">
<svg version="1.1" id="Layer_1" xmlns="http://www.w3.org/2000/svg" xmlns:xlink="http://www.w3.org/1999/xlink" x="0px" y="0px"
	 width="128px" height="128px" viewBox="0 0 128 128" enable-background="new 0 0 128 128" xml:space="preserve">
<g>
	<g>
		<g>
			<path fill="none" stroke="#000000" stroke-width="2" stroke-linecap="round" stroke-linejoin="round" stroke-miterlimit="10" d="
				M45.303,50.848c0,0,6.066-8.062,18.869-8.062c12.801,0,18.531,8.062,18.531,8.062"/>
			<path fill="none" stroke="#000000" stroke-width="2" stroke-linecap="round" stroke-linejoin="round" stroke-miterlimit="10" d="
				M49.906,57.291c0,0,4.57-6.076,14.221-6.076s13.975,6.076,13.975,6.076"/>
			<path fill="none" stroke="#000000" stroke-width="2" stroke-linecap="round" stroke-linejoin="round" stroke-miterlimit="10" d="
				M56.846,63.226c0,0,2.314-3.084,7.223-3.084c4.904,0,7.094,3.084,7.094,3.084"/>
		</g>
		<path d="M65.783,68.564c0,0.985-0.795,1.776-1.777,1.776c-0.986,0-1.781-0.791-1.781-1.776c0-0.981,0.795-1.778,1.781-1.778
			C64.988,66.786,65.783,67.583,65.783,68.564z"/>
	</g>
	<g>
		<g>
			<path d="M99.635,86.76h-71.27c-2.206,0-4-1.794-4-4V34.39c0-2.206,1.794-4,4-4h71.27c2.206,0,4,1.794,4,4v48.37
				C103.635,84.965,101.841,86.76,99.635,86.76z M28.365,32.39c-1.103,0-2,0.897-2,2v48.37c0,1.103,0.897,2,2,2h71.27
				c1.103,0,2-0.897,2-2V34.39c0-1.103-0.897-2-2-2H28.365z"/>
		</g>
		<g>
			<path d="M102.635,80.734h-77.27c-0.553,0-1-0.448-1-1s0.447-1,1-1h77.27c0.553,0,1,0.448,1,1S103.188,80.734,102.635,80.734z"/>
		</g>
		<g>
			<g>
				<path d="M48.624,96.894c-0.214,0-0.43-0.068-0.611-0.209c-0.437-0.338-0.517-0.967-0.178-1.403l7.871-10.154
					c0.337-0.435,0.968-0.515,1.402-0.178c0.437,0.338,0.517,0.967,0.178,1.403l-7.871,10.154
					C49.219,96.76,48.923,96.894,48.624,96.894z"/>
			</g>
			<g>
				<path d="M79.374,96.894c-0.299,0-0.595-0.133-0.792-0.388l-7.859-10.154c-0.338-0.437-0.258-1.065,0.179-1.403
					c0.438-0.337,1.064-0.258,1.403,0.179l7.859,10.154c0.338,0.437,0.258,1.065-0.179,1.403
					C79.803,96.825,79.588,96.894,79.374,96.894z"/>
			</g>
		</g>
		<g>
			<path d="M85.463,97.611H42.547c-0.553,0-1-0.448-1-1s0.447-1,1-1h42.916c0.553,0,1,0.448,1,1S86.016,97.611,85.463,97.611z"/>
		</g>
	</g>
</g>
</svg>
