<?xml version="1.0" encoding="utf-8"?>
<!-- Generator: Adobe Illustrator 16.0.0, SVG Export Plug-In . SVG Version: 6.00 Build 0)  -->
<!DOCTYPE svg PUBLIC "-//W3C//DTD SVG 1.1//EN" "http://www.w3.org/Graphics/SVG/1.1/DTD/svg11.dtd">
<svg version="1.1" id="Layer_1" xmlns="http://www.w3.org/2000/svg" xmlns:xlink="http://www.w3.org/1999/xlink" x="0px" y="0px"
	 width="128px" height="128px" viewBox="0 0 128 128" enable-background="new 0 0 128 128" xml:space="preserve">
<g>
	<g>
		<g>
			<path fill="none" stroke="#000000" stroke-width="2" stroke-linecap="round" stroke-linejoin="round" stroke-miterlimit="10" d="
				M45.298,49.702c0,0,6.071-8.064,18.87-8.064c12.803,0,18.535,8.064,18.535,8.064"/>
			<path fill="none" stroke="#000000" stroke-width="2" stroke-linecap="round" stroke-linejoin="round" stroke-miterlimit="10" d="
				M49.908,56.144c0,0,4.569-6.074,14.22-6.074s13.969,6.074,13.969,6.074"/>
			<path fill="none" stroke="#000000" stroke-width="2" stroke-linecap="round" stroke-linejoin="round" stroke-miterlimit="10" d="
				M56.84,62.088c0,0,2.323-3.093,7.228-3.093c4.897,0,7.097,3.093,7.097,3.093"/>
		</g>
		<path d="M65.78,67.419c0,0.981-0.803,1.78-1.78,1.78s-1.775-0.799-1.775-1.78c0-0.98,0.798-1.778,1.775-1.778
			S65.78,66.438,65.78,67.419z"/>
	</g>
	<g>
		<g>
			<path d="M99.638,86.045H28.371c-2.206,0-4-1.794-4-4V33.677c0-2.206,1.794-4,4-4h71.267c2.206,0,4,1.794,4,4v48.368
				C103.638,84.25,101.844,86.045,99.638,86.045z M28.371,31.677c-1.103,0-2,0.897-2,2v48.368c0,1.103,0.897,2,2,2h71.267
				c1.103,0,2-0.897,2-2V33.677c0-1.103-0.897-2-2-2H28.371z"/>
		</g>
		<g>
			<path d="M109.574,98.328c-0.005,0-0.013,0.001-0.02,0H18.445c-0.389,0-0.743-0.226-0.907-0.579s-0.108-0.769,0.143-1.066
				l6.762-8.012c0.19-0.225,0.47-0.355,0.765-0.355h77.586c0.295,0,0.574,0.13,0.765,0.355l6.657,7.888
				c0.22,0.184,0.359,0.46,0.359,0.769C110.574,97.88,110.127,98.328,109.574,98.328z M20.598,96.328h86.805l-5.074-6.012H25.672
				L20.598,96.328z"/>
		</g>
		<g>
			<path d="M102.638,80.019H25.371c-0.553,0-1-0.448-1-1s0.447-1,1-1h77.267c0.553,0,1,0.448,1,1S103.19,80.019,102.638,80.019z"/>
		</g>
	</g>
</g>
</svg>
