<?xml version="1.0" encoding="utf-8"?>
<!-- Generator: Adobe Illustrator 16.0.0, SVG Export Plug-In . SVG Version: 6.00 Build 0)  -->
<!DOCTYPE svg PUBLIC "-//W3C//DTD SVG 1.1//EN" "http://www.w3.org/Graphics/SVG/1.1/DTD/svg11.dtd">
<svg version="1.1" id="Layer_1" xmlns="http://www.w3.org/2000/svg" xmlns:xlink="http://www.w3.org/1999/xlink" x="0px" y="0px"
	 width="128px" height="128px" viewBox="0 0 128 128" enable-background="new 0 0 128 128" xml:space="preserve">
<g>
	<g>
		<g>
			<path fill="none" stroke="#000000" stroke-width="2" stroke-linecap="round" stroke-linejoin="round" stroke-miterlimit="10" d="
				M49.444,60.753c0,0,4.053-5.39,12.616-5.39c8.554,0,12.38,5.39,12.38,5.39"/>
			<path fill="none" stroke="#000000" stroke-width="2" stroke-linecap="round" stroke-linejoin="round" stroke-miterlimit="10" d="
				M52.517,65.06c0,0,3.064-4.062,9.512-4.062c6.454,0,9.338,4.062,9.338,4.062"/>
			<path fill="none" stroke="#000000" stroke-width="2" stroke-linecap="round" stroke-linejoin="round" stroke-miterlimit="10" d="
				M57.152,69.031c0,0,1.559-2.067,4.83-2.067c3.279,0,4.75,2.067,4.75,2.067"/>
		</g>
		<path d="M63.13,72.593c0,0.659-0.53,1.191-1.186,1.191c-0.661,0-1.197-0.532-1.197-1.191c0-0.654,0.536-1.186,1.197-1.186
			C62.6,71.407,63.13,71.938,63.13,72.593z"/>
	</g>
	<g>
		<g>
			<path d="M75.528,86.548H48.354c-3.309,0-6-2.691-6-6V47.452c0-3.309,2.691-6,6-6h27.174c3.309,0,6,2.691,6,6v33.096
				C81.528,83.856,78.837,86.548,75.528,86.548z M48.354,43.452c-2.206,0-4,1.794-4,4v33.096c0,2.206,1.794,4,4,4h27.174
				c2.206,0,4-1.794,4-4V47.452c0-2.206-1.794-4-4-4H48.354z"/>
		</g>
		<g>
			<path d="M84.646,59.978c-0.553,0-1-0.448-1-1V51.82c0-0.552,0.447-1,1-1s1,0.448,1,1v7.157
				C85.646,59.53,85.198,59.978,84.646,59.978z"/>
		</g>
		<g>
			<path d="M73.656,39.236c-0.553,0-1-0.448-1-1V29.98c0-0.551-0.448-1-1-1H52.226c-0.552,0-1,0.449-1,1v8.256c0,0.552-0.447,1-1,1
				s-1-0.448-1-1V29.98c0-1.654,1.346-3,3-3h19.431c1.654,0,3,1.346,3,3v8.256C74.656,38.789,74.209,39.236,73.656,39.236z"/>
		</g>
		<g>
			<path d="M71.656,101.023H52.226c-1.654,0-3-1.346-3-3v-8.256c0-0.552,0.447-1,1-1s1,0.448,1,1v8.256c0,0.551,0.448,1,1,1h19.431
				c0.552,0,1-0.449,1-1v-8.256c0-0.552,0.447-1,1-1s1,0.448,1,1v8.256C74.656,99.678,73.311,101.023,71.656,101.023z"/>
		</g>
	</g>
</g>
</svg>
