<?xml version="1.0" encoding="utf-8"?>
<!-- Generator: Adobe Illustrator 16.0.0, SVG Export Plug-In . SVG Version: 6.00 Build 0)  -->
<!DOCTYPE svg PUBLIC "-//W3C//DTD SVG 1.1//EN" "http://www.w3.org/Graphics/SVG/1.1/DTD/svg11.dtd">
<svg version="1.1" id="Layer_1" xmlns="http://www.w3.org/2000/svg" xmlns:xlink="http://www.w3.org/1999/xlink" x="0px" y="0px"
	 width="128px" height="128px" viewBox="0 0 128 128" enable-background="new 0 0 128 128" xml:space="preserve">
<g>
	<g>
		<g>
			<path d="M75.618,57.228c-0.312,0-0.621-0.146-0.816-0.42c-0.133-0.185-3.399-4.588-10.698-4.588
				c-7.32,0-10.782,4.424-10.926,4.613c-0.335,0.438-0.961,0.525-1.399,0.191c-0.439-0.333-0.527-0.956-0.196-1.396
				c0.166-0.221,4.163-5.408,12.521-5.408c8.373,0,12.171,5.208,12.329,5.429c0.319,0.45,0.214,1.075-0.236,1.395
				C76.021,57.167,75.818,57.228,75.618,57.228z"/>
		</g>
		<g>
			<path d="M72.757,61.232c-0.312,0-0.621-0.146-0.816-0.42c-0.097-0.133-2.501-3.357-7.856-3.357c-5.438,0-8.02,3.345-8.045,3.379
				c-0.331,0.44-0.957,0.53-1.4,0.197c-0.441-0.332-0.529-0.959-0.197-1.4c0.128-0.17,3.218-4.176,9.643-4.176
				c6.429,0,9.365,4.026,9.487,4.198c0.319,0.45,0.214,1.075-0.236,1.395C73.159,61.172,72.957,61.232,72.757,61.232z"/>
		</g>
		<g>
			<path d="M68.45,64.923c-0.312,0-0.62-0.146-0.815-0.419c-0.04-0.053-1.147-1.5-3.6-1.5c-2.467,0-3.645,1.466-3.693,1.529
				c-0.337,0.432-0.964,0.515-1.399,0.18c-0.435-0.334-0.522-0.952-0.192-1.391c0.071-0.095,1.785-2.318,5.285-2.318
				c3.52,0,5.16,2.244,5.229,2.339c0.32,0.45,0.216,1.074-0.233,1.395C68.854,64.863,68.651,64.923,68.45,64.923z"/>
		</g>
	</g>
	<g>
		<path d="M65.102,67.233c0,0.612-0.492,1.103-1.102,1.103c-0.611,0-1.102-0.49-1.102-1.103c0-0.609,0.49-1.104,1.102-1.104
			C64.609,66.13,65.102,66.624,65.102,67.233z"/>
	</g>
	<g>
		<path d="M66.674,99.852c0,1.477-1.199,2.671-2.674,2.671c-1.477,0-2.67-1.194-2.67-2.671c0-1.475,1.193-2.667,2.67-2.667
			C65.475,97.185,66.674,98.377,66.674,99.852z"/>
	</g>
	<g>
		<path d="M81.709,107.971H46.291c-2.206,0-4-1.794-4-4V24.028c0-2.206,1.794-4,4-4h35.418c2.206,0,4,1.794,4,4v79.942
			C85.709,106.176,83.915,107.971,81.709,107.971z M46.291,22.028c-1.103,0-2,0.897-2,2v79.942c0,1.103,0.897,2,2,2h35.418
			c1.103,0,2-0.897,2-2V24.028c0-1.103-0.897-2-2-2H46.291z"/>
	</g>
	<g>
		<path d="M84.111,92.271H43.889c-0.553,0-1-0.448-1-1s0.447-1,1-1h40.223c0.553,0,1,0.448,1,1S84.664,92.271,84.111,92.271z"/>
	</g>
</g>
</svg>
