<?xml version="1.0" encoding="utf-8"?>
<!-- Generator: Adobe Illustrator 16.0.0, SVG Export Plug-In . SVG Version: 6.00 Build 0)  -->
<!DOCTYPE svg PUBLIC "-//W3C//DTD SVG 1.1//EN" "http://www.w3.org/Graphics/SVG/1.1/DTD/svg11.dtd">
<svg version="1.1" id="Layer_1" xmlns="http://www.w3.org/2000/svg" xmlns:xlink="http://www.w3.org/1999/xlink" x="0px" y="0px"
	 width="128px" height="128px" viewBox="0 0 128 128" enable-background="new 0 0 128 128" xml:space="preserve">
<g>
	<g>
		<g>
			<path d="M82.704,52.99c-0.312,0-0.621-0.146-0.815-0.42c-0.054-0.074-5.633-7.642-17.721-7.642
				c-12.165,0-18.013,7.587-18.07,7.664c-0.332,0.441-0.957,0.53-1.4,0.198c-0.441-0.332-0.529-0.959-0.197-1.4
				c0.26-0.346,6.516-8.461,19.668-8.461c13.163,0,19.104,8.136,19.35,8.483c0.32,0.45,0.215,1.074-0.234,1.395
				C83.107,52.93,82.904,52.99,82.704,52.99z"/>
		</g>
		<g>
			<path d="M78.103,59.433c-0.312,0-0.62-0.146-0.815-0.42c-0.165-0.229-4.184-5.654-13.156-5.654c-9,0-13.255,5.446-13.432,5.678
				c-0.332,0.437-0.962,0.524-1.399,0.192c-0.439-0.333-0.528-0.957-0.196-1.397c0.199-0.264,4.989-6.473,15.027-6.473
				c10.047,0,14.597,6.229,14.785,6.494c0.32,0.45,0.216,1.074-0.234,1.395C78.506,59.373,78.303,59.433,78.103,59.433z"/>
		</g>
		<g>
			<path d="M71.165,65.372c-0.312,0-0.621-0.146-0.816-0.42c-0.075-0.104-1.998-2.667-6.28-2.667c-4.308,0-6.348,2.583-6.433,2.693
				c-0.335,0.434-0.963,0.522-1.399,0.188c-0.438-0.333-0.526-0.955-0.195-1.395c0.106-0.143,2.684-3.487,8.027-3.487
				c5.354,0,7.809,3.365,7.911,3.508c0.319,0.45,0.214,1.075-0.236,1.395C71.567,65.312,71.365,65.372,71.165,65.372z"/>
		</g>
	</g>
	<g>
		<path d="M65.777,69.707c0,0.98-0.793,1.78-1.777,1.78c-0.979,0-1.775-0.8-1.775-1.78c0-0.983,0.797-1.777,1.775-1.777
			C64.984,67.93,65.777,68.724,65.777,69.707z"/>
	</g>
	<g>
		<path d="M92.885,109.687h-57.77c-2.206,0-4-1.794-4-4V22.313c0-2.206,1.794-4,4-4h57.77c2.206,0,4,1.794,4,4v83.373
			C96.885,107.892,95.091,109.687,92.885,109.687z M35.115,20.313c-1.103,0-2,0.897-2,2v83.373c0,1.103,0.897,2,2,2h57.77
			c1.103,0,2-0.897,2-2V22.313c0-1.103-0.897-2-2-2H35.115z"/>
	</g>
	<g>
		<path d="M66.336,101.687c0,1.287-1.047,2.33-2.336,2.33c-1.285,0-2.334-1.043-2.334-2.33c0-1.291,1.049-2.333,2.334-2.333
			C65.289,99.354,66.336,100.396,66.336,101.687z"/>
	</g>
	<g>
		<path d="M95.402,94.179H32.602c-0.553,0-1-0.448-1-1s0.447-1,1-1h62.801c0.553,0,1,0.448,1,1S95.955,94.179,95.402,94.179z"/>
	</g>
</g>
</svg>
