<?xml version="1.0" encoding="utf-8"?>
<!-- Generator: Adobe Illustrator 16.0.0, SVG Export Plug-In . SVG Version: 6.00 Build 0)  -->
<!DOCTYPE svg PUBLIC "-//W3C//DTD SVG 1.1//EN" "http://www.w3.org/Graphics/SVG/1.1/DTD/svg11.dtd">
<svg version="1.1" id="Layer_1" xmlns="http://www.w3.org/2000/svg" xmlns:xlink="http://www.w3.org/1999/xlink" x="0px" y="0px"
	 width="64px" height="64px" viewBox="0 0 64 64" enable-background="new 0 0 64 64" xml:space="preserve">
<g>
	<g>
		<g>
			<path d="M36.146,44.688H25.574c-3.033,0-5.5-2.468-5.5-5.5V25.334c0-3.032,2.467-5.5,5.5-5.5h10.572c3.033,0,5.5,2.468,5.5,5.5
				v13.854C41.646,42.22,39.179,44.688,36.146,44.688z M25.574,20.834c-2.481,0-4.5,2.019-4.5,4.5v13.854c0,2.481,2.019,4.5,4.5,4.5
				h10.572c2.481,0,4.5-2.019,4.5-4.5V25.334c0-2.481-2.019-4.5-4.5-4.5H25.574z"/>
		</g>
		<g>
			<path d="M43.426,29.98c-0.276,0-0.5-0.224-0.5-0.5v-3.963c0-0.276,0.224-0.5,0.5-0.5s0.5,0.224,0.5,0.5v3.963
				C43.926,29.757,43.702,29.98,43.426,29.98z"/>
		</g>
		<g>
			<path d="M37.344,18.5c-0.276,0-0.5-0.224-0.5-0.5v-3.676c0-0.827-0.673-1.5-1.5-1.5h-8.967c-0.827,0-1.5,0.673-1.5,1.5V18
				c0,0.276-0.224,0.5-0.5,0.5s-0.5-0.224-0.5-0.5v-3.676c0-1.379,1.122-2.5,2.5-2.5h8.967c1.378,0,2.5,1.121,2.5,2.5V18
				C37.844,18.276,37.62,18.5,37.344,18.5z"/>
		</g>
		<g>
			<path d="M35.344,52.695h-8.967c-1.378,0-2.5-1.121-2.5-2.5v-3.674c0-0.276,0.224-0.5,0.5-0.5s0.5,0.224,0.5,0.5v3.674
				c0,0.827,0.673,1.5,1.5,1.5h8.967c0.827,0,1.5-0.673,1.5-1.5v-3.674c0-0.276,0.224-0.5,0.5-0.5s0.5,0.224,0.5,0.5v3.674
				C37.844,51.574,36.722,52.695,35.344,52.695z"/>
		</g>
	</g>
	<g>
		<polygon fill="none" stroke="#000000" stroke-linecap="round" stroke-linejoin="round" stroke-miterlimit="10" points="
			30.462,27.014 27.351,30.652 24.485,30.652 24.485,33.869 27.351,33.869 30.462,37.506 		"/>
		<g>
			<path fill="none" stroke="#000000" stroke-linecap="round" stroke-linejoin="round" stroke-miterlimit="10" d="M32.646,30.426
				c0.493,0.137,0.872,0.906,0.872,1.836c0,0.928-0.379,1.693-0.872,1.832"/>
			<path fill="none" stroke="#000000" stroke-linecap="round" stroke-linejoin="round" stroke-miterlimit="10" d="M34.148,29.656
				c0.673,0.193,1.188,1.283,1.188,2.605c0,1.318-0.515,2.408-1.188,2.604"/>
			<path fill="none" stroke="#000000" stroke-linecap="round" stroke-linejoin="round" stroke-miterlimit="10" d="M35.571,28.496
				c0.942,0.281,1.663,1.857,1.663,3.766s-0.721,3.482-1.663,3.762"/>
		</g>
	</g>
</g>
</svg>
