<?xml version="1.0" encoding="utf-8"?>
<!-- Generator: Adobe Illustrator 16.0.0, SVG Export Plug-In . SVG Version: 6.00 Build 0)  -->
<!DOCTYPE svg PUBLIC "-//W3C//DTD SVG 1.1//EN" "http://www.w3.org/Graphics/SVG/1.1/DTD/svg11.dtd">
<svg version="1.1" id="Layer_1" xmlns="http://www.w3.org/2000/svg" xmlns:xlink="http://www.w3.org/1999/xlink" x="0px" y="0px"
	 width="64px" height="64px" viewBox="0 0 64 64" enable-background="new 0 0 64 64" xml:space="preserve">
<g>
	<g>
		<path d="M40.461,56.545H23.539c-1.93,0-3.5-1.57-3.5-3.5V11.477c0-1.93,1.57-3.5,3.5-3.5h16.923c1.93,0,3.5,1.57,3.5,3.5v41.568
			C43.961,54.975,42.391,56.545,40.461,56.545z M23.539,8.977c-1.378,0-2.5,1.121-2.5,2.5v41.568c0,1.379,1.122,2.5,2.5,2.5h16.923
			c1.378,0,2.5-1.121,2.5-2.5V11.477c0-1.379-1.122-2.5-2.5-2.5H23.539z"/>
	</g>
	<g>
		<path d="M43.132,47.854H20.867c-0.276,0-0.5-0.224-0.5-0.5s0.224-0.5,0.5-0.5h22.265c0.276,0,0.5,0.224,0.5,0.5
			S43.408,47.854,43.132,47.854z"/>
	</g>
	<g>
		<circle cx="32" cy="51.852" r="1.292"/>
	</g>
	<g>
		<path d="M31.566,34.021c-0.133,0-0.265-0.054-0.361-0.153l-3.223-3.356H25.09c-0.276,0-0.5-0.224-0.5-0.5v-3.104
			c0-0.276,0.224-0.5,0.5-0.5h2.893l3.223-3.356c0.142-0.146,0.357-0.193,0.547-0.117c0.189,0.076,0.313,0.26,0.313,0.464v10.123
			c0,0.204-0.124,0.388-0.313,0.464C31.692,34.01,31.629,34.021,31.566,34.021z M25.59,29.512h2.605
			c0.136,0,0.266,0.056,0.361,0.153l2.51,2.614v-7.639l-2.51,2.614c-0.095,0.098-0.225,0.153-0.361,0.153H25.59V29.512z"/>
	</g>
	<g>
		<g>
			<path d="M33.936,30.553c-0.229,0-0.436-0.158-0.487-0.391c-0.061-0.27,0.109-0.537,0.379-0.598
				c0.266-0.06,0.553-0.499,0.553-1.105c0-0.604-0.287-1.04-0.553-1.1c-0.27-0.061-0.439-0.328-0.379-0.598
				c0.06-0.269,0.33-0.436,0.597-0.379c0.774,0.173,1.335,1.046,1.335,2.076c0,1.033-0.562,1.909-1.335,2.082
				C34.008,30.549,33.972,30.553,33.936,30.553z"/>
		</g>
		<g>
			<path d="M35.565,31.219c-0.228,0-0.433-0.156-0.487-0.388c-0.062-0.269,0.106-0.537,0.375-0.6
				c0.442-0.102,0.899-0.793,0.899-1.772c0-0.978-0.457-1.667-0.899-1.769c-0.269-0.062-0.437-0.331-0.375-0.6
				c0.063-0.269,0.333-0.436,0.6-0.375c0.97,0.224,1.674,1.378,1.674,2.743c0,1.368-0.704,2.523-1.674,2.747
				C35.64,31.215,35.602,31.219,35.565,31.219z"/>
		</g>
		<g>
			<path d="M37.109,32.223c-0.227,0-0.432-0.155-0.486-0.385c-0.063-0.27,0.103-0.538,0.372-0.602
				c0.696-0.164,1.415-1.248,1.415-2.777c0-1.526-0.72-2.609-1.416-2.775c-0.269-0.063-0.435-0.333-0.371-0.602
				c0.064-0.27,0.337-0.435,0.602-0.371c1.266,0.301,2.185,1.877,2.185,3.748c0,1.874-0.919,3.451-2.186,3.75
				C37.186,32.219,37.147,32.223,37.109,32.223z"/>
		</g>
	</g>
</g>
</svg>
