<?xml version="1.0" encoding="utf-8"?>
<!-- Generator: Adobe Illustrator 16.0.0, SVG Export Plug-In . SVG Version: 6.00 Build 0)  -->
<!DOCTYPE svg PUBLIC "-//W3C//DTD SVG 1.1//EN" "http://www.w3.org/Graphics/SVG/1.1/DTD/svg11.dtd">
<svg version="1.1" id="Layer_1" xmlns="http://www.w3.org/2000/svg" xmlns:xlink="http://www.w3.org/1999/xlink" x="0px" y="0px"
	 width="64px" height="64px" viewBox="0 0 64 64" enable-background="new 0 0 64 64" xml:space="preserve">
<g>
	<g>
		<path d="M46.647,57.492H17.353c-1.93,0-3.5-1.57-3.5-3.5V10.527c0-1.93,1.57-3.5,3.5-3.5h29.295c1.93,0,3.5,1.57,3.5,3.5v43.465
			C50.147,55.922,48.577,57.492,46.647,57.492z M17.353,8.027c-1.378,0-2.5,1.121-2.5,2.5v43.465c0,1.379,1.122,2.5,2.5,2.5h29.295
			c1.378,0,2.5-1.121,2.5-2.5V10.527c0-1.379-1.122-2.5-2.5-2.5H17.353z"/>
	</g>
	<g>
		<path d="M33.292,53.115c0,0.713-0.578,1.293-1.293,1.293c-0.712,0-1.291-0.58-1.291-1.293c0-0.711,0.579-1.289,1.291-1.289
			C32.714,51.826,33.292,52.404,33.292,53.115z"/>
	</g>
	<g>
		<path d="M49.379,48.908H14.621c-0.276,0-0.5-0.224-0.5-0.5s0.224-0.5,0.5-0.5h34.758c0.276,0,0.5,0.224,0.5,0.5
			S49.655,48.908,49.379,48.908z"/>
	</g>
	<g>
		<path d="M31.269,37.529c-0.133,0-0.264-0.054-0.36-0.153l-5.561-5.788h-5.043c-0.276,0-0.5-0.224-0.5-0.5v-5.256
			c0-0.276,0.224-0.5,0.5-0.5h5.043l5.561-5.786c0.142-0.146,0.357-0.193,0.547-0.117c0.189,0.076,0.313,0.26,0.313,0.464v17.137
			c0,0.204-0.124,0.388-0.313,0.464C31.395,37.518,31.332,37.529,31.269,37.529z M20.805,30.588h4.756
			c0.136,0,0.266,0.056,0.36,0.153l4.848,5.046V21.135l-4.848,5.044c-0.094,0.098-0.224,0.153-0.36,0.153h-4.756V30.588z"/>
	</g>
	<g>
		<g>
			<path d="M35.275,31.652c-0.229,0-0.435-0.158-0.487-0.391c-0.061-0.27,0.109-0.537,0.378-0.598
				c0.677-0.151,1.208-1.12,1.208-2.205c0-1.084-0.531-2.052-1.208-2.203c-0.27-0.061-0.439-0.328-0.378-0.598
				c0.061-0.269,0.329-0.436,0.597-0.379c1.153,0.259,1.989,1.596,1.989,3.18c0,1.585-0.836,2.923-1.989,3.182
				C35.348,31.648,35.311,31.652,35.275,31.652z"/>
		</g>
		<g>
			<path d="M38.034,32.781c-0.228,0-0.433-0.156-0.487-0.388c-0.062-0.269,0.105-0.537,0.375-0.6
				c1.021-0.235,1.791-1.67,1.791-3.335c0-1.664-0.77-3.098-1.791-3.333c-0.269-0.062-0.437-0.331-0.375-0.6
				c0.062-0.27,0.331-0.438,0.6-0.375c1.486,0.344,2.565,2.155,2.565,4.308c0,2.153-1.079,3.966-2.565,4.31
				C38.109,32.777,38.071,32.781,38.034,32.781z"/>
		</g>
		<g>
			<path d="M40.646,34.484c-0.226,0-0.431-0.154-0.486-0.385c-0.064-0.269,0.102-0.538,0.371-0.602
				c1.519-0.361,2.665-2.527,2.665-5.039c0-2.508-1.146-4.672-2.665-5.035c-0.269-0.064-0.434-0.334-0.37-0.603
				c0.064-0.269,0.337-0.436,0.603-0.37c1.989,0.475,3.433,3.002,3.433,6.008c0,3.011-1.444,5.539-3.433,6.012
				C40.723,34.48,40.685,34.484,40.646,34.484z"/>
		</g>
	</g>
</g>
</svg>
