<?xml version="1.0" encoding="utf-8"?>
<!-- Generator: Adobe Illustrator 16.0.0, SVG Export Plug-In . SVG Version: 6.00 Build 0)  -->
<!DOCTYPE svg PUBLIC "-//W3C//DTD SVG 1.1//EN" "http://www.w3.org/Graphics/SVG/1.1/DTD/svg11.dtd">
<svg version="1.1" id="Layer_1" xmlns="http://www.w3.org/2000/svg" xmlns:xlink="http://www.w3.org/1999/xlink" x="0px" y="0px"
	 width="64px" height="64px" viewBox="0 0 64 64" enable-background="new 0 0 64 64" xml:space="preserve">
<g>
	<g>
		<g>
			<path d="M50.383,44.805H13.617c-1.93,0-3.5-1.57-3.5-3.5V17.211c0-1.93,1.57-3.5,3.5-3.5h36.767c1.93,0,3.5,1.57,3.5,3.5v24.094
				C53.883,43.234,52.313,44.805,50.383,44.805z M13.617,14.711c-1.378,0-2.5,1.121-2.5,2.5v24.094c0,1.379,1.122,2.5,2.5,2.5
				h36.767c1.378,0,2.5-1.121,2.5-2.5V17.211c0-1.379-1.122-2.5-2.5-2.5H13.617z"/>
		</g>
		<g>
			<path d="M53.383,41.467H10.617c-0.276,0-0.5-0.224-0.5-0.5s0.224-0.5,0.5-0.5h42.767c0.276,0,0.5,0.224,0.5,0.5
				S53.66,41.467,53.383,41.467z"/>
		</g>
		<g>
			<g>
				<path d="M23.491,50.414c-0.107,0-0.214-0.034-0.306-0.104c-0.218-0.169-0.258-0.483-0.089-0.701l4.353-5.621
					c0.17-0.219,0.483-0.258,0.702-0.09c0.218,0.169,0.258,0.483,0.089,0.701l-4.353,5.621
					C23.788,50.348,23.64,50.414,23.491,50.414z"/>
			</g>
			<g>
				<path d="M40.511,50.414c-0.149,0-0.297-0.066-0.396-0.193L35.761,44.6c-0.169-0.219-0.129-0.533,0.089-0.702
					c0.219-0.168,0.532-0.129,0.702,0.089l4.354,5.621c0.169,0.219,0.129,0.533-0.089,0.702
					C40.725,50.38,40.618,50.414,40.511,50.414z"/>
			</g>
		</g>
		<g>
			<path d="M43.874,50.811H20.125c-0.276,0-0.5-0.224-0.5-0.5s0.224-0.5,0.5-0.5h23.749c0.276,0,0.5,0.224,0.5,0.5
				S44.15,50.811,43.874,50.811z"/>
		</g>
	</g>
	<g>
		<polygon fill="none" stroke="#000000" stroke-linecap="round" stroke-linejoin="round" stroke-miterlimit="10" points="
			31.269,19.26 25.56,25.199 20.305,25.199 20.305,30.453 25.56,30.453 31.269,36.395 		"/>
		<g>
			<path fill="none" stroke="#000000" stroke-linecap="round" stroke-linejoin="round" stroke-miterlimit="10" d="M35.277,25.137
				c0.904,0.199,1.598,1.328,1.598,2.691c0,1.361-0.694,2.488-1.598,2.691"/>
			<path fill="none" stroke="#000000" stroke-linecap="round" stroke-linejoin="round" stroke-miterlimit="10" d="M38.035,24.006
				c1.232,0.285,2.177,1.885,2.177,3.822c0,1.936-0.944,3.535-2.177,3.818"/>
			<path fill="none" stroke="#000000" stroke-linecap="round" stroke-linejoin="round" stroke-miterlimit="10" d="M40.647,22.303
				c1.727,0.412,3.048,2.725,3.048,5.525c0,2.799-1.322,5.113-3.048,5.523"/>
		</g>
	</g>
</g>
</svg>
