<?xml version="1.0" encoding="utf-8"?>
<!-- Generator: Adobe Illustrator 16.0.0, SVG Export Plug-In . SVG Version: 6.00 Build 0)  -->
<!DOCTYPE svg PUBLIC "-//W3C//DTD SVG 1.1//EN" "http://www.w3.org/Graphics/SVG/1.1/DTD/svg11.dtd">
<svg version="1.1" id="Layer_1" xmlns="http://www.w3.org/2000/svg" xmlns:xlink="http://www.w3.org/1999/xlink" x="0px" y="0px"
	 width="128px" height="128px" viewBox="0 0 128 128" enable-background="new 0 0 128 128" xml:space="preserve">
<g>
	
		<polygon fill="none" stroke="#000000" stroke-width="2" stroke-linecap="round" stroke-linejoin="round" stroke-miterlimit="10" points="
		73.831,40.237 61.646,40.237 54.924,57.776 60.891,57.776 54.17,71.978 73.831,51.45 65.704,51.45 	"/>
	<g>
		<g>
			<path d="M99.638,86.042H28.371c-2.206,0-4-1.794-4-4V33.674c0-2.206,1.794-4,4-4h71.267c2.206,0,4,1.794,4,4v48.367
				C103.638,84.247,101.844,86.042,99.638,86.042z M28.371,31.674c-1.103,0-2,0.897-2,2v48.367c0,1.103,0.897,2,2,2h71.267
				c1.103,0,2-0.897,2-2V33.674c0-1.103-0.897-2-2-2H28.371z"/>
		</g>
		<g>
			<path d="M109.574,98.323c-0.005,0-0.013,0.001-0.02,0H18.445c-0.39,0-0.743-0.226-0.907-0.579s-0.107-0.77,0.144-1.066
				l6.762-8.006c0.189-0.225,0.469-0.355,0.764-0.355h77.586c0.295,0,0.574,0.13,0.764,0.355l6.658,7.882
				c0.22,0.184,0.359,0.459,0.359,0.769C110.574,97.875,110.127,98.323,109.574,98.323z M20.599,96.323h86.803l-5.072-6.006H25.671
				L20.599,96.323z"/>
		</g>
		<g>
			<path d="M102.638,80.019H25.371c-0.553,0-1-0.448-1-1s0.447-1,1-1h77.267c0.553,0,1,0.448,1,1S103.19,80.019,102.638,80.019z"/>
		</g>
	</g>
</g>
</svg>
