<?xml version="1.0" encoding="utf-8"?>
<!-- Generator: Adobe Illustrator 16.0.0, SVG Export Plug-In . SVG Version: 6.00 Build 0)  -->
<!DOCTYPE svg PUBLIC "-//W3C//DTD SVG 1.1//EN" "http://www.w3.org/Graphics/SVG/1.1/DTD/svg11.dtd">
<svg version="1.1" id="Layer_1" xmlns="http://www.w3.org/2000/svg" xmlns:xlink="http://www.w3.org/1999/xlink" x="0px" y="0px"
	 width="128px" height="128px" viewBox="0 0 128 128" enable-background="new 0 0 128 128" xml:space="preserve">
<g>
	<g>
		<path d="M53.355,75.44c-0.197,0-0.395-0.058-0.567-0.176c-0.403-0.278-0.546-0.809-0.336-1.252l6.606-13.951h-4.896
			c-0.329,0-0.638-0.162-0.824-0.434s-0.228-0.617-0.109-0.925l7.291-18.998c0.148-0.386,0.52-0.642,0.934-0.642h13.191
			c0.376,0,0.72,0.211,0.891,0.545c0.171,0.335,0.14,0.737-0.081,1.042l-7.65,10.554h6.841c0.4,0,0.763,0.239,0.92,0.607
			c0.157,0.368,0.079,0.795-0.197,1.084L54.078,75.132C53.883,75.335,53.62,75.44,53.355,75.44z M55.617,58.061h5.021
			c0.343,0,0.662,0.176,0.845,0.465c0.184,0.29,0.206,0.653,0.059,0.963l-4.643,9.803l15.403-16.088h-6.459
			c-0.376,0-0.72-0.211-0.891-0.545c-0.171-0.335-0.14-0.737,0.081-1.042l7.65-10.554H62.141L55.617,58.061z"/>
	</g>
	<g>
		<circle cx="64.002" cy="99.852" r="2.672"/>
	</g>
	<g>
		<path d="M81.709,107.972H46.291c-2.206,0-4-1.794-4-4V24.03c0-2.206,1.794-4,4-4h35.418c2.206,0,4,1.794,4,4v79.942
			C85.709,106.177,83.915,107.972,81.709,107.972z M46.291,22.03c-1.103,0-2,0.897-2,2v79.942c0,1.103,0.897,2,2,2h35.418
			c1.103,0,2-0.897,2-2V24.03c0-1.103-0.897-2-2-2H46.291z"/>
	</g>
	<g>
		<path d="M84.111,92.273H43.889c-0.553,0-1-0.448-1-1s0.447-1,1-1h40.223c0.553,0,1,0.448,1,1S84.664,92.273,84.111,92.273z"/>
	</g>
</g>
</svg>
