<?xml version="1.0" encoding="utf-8"?>
<!-- Generator: Adobe Illustrator 16.0.0, SVG Export Plug-In . SVG Version: 6.00 Build 0)  -->
<!DOCTYPE svg PUBLIC "-//W3C//DTD SVG 1.1//EN" "http://www.w3.org/Graphics/SVG/1.1/DTD/svg11.dtd">
<svg version="1.1" id="Layer_1" xmlns="http://www.w3.org/2000/svg" xmlns:xlink="http://www.w3.org/1999/xlink" x="0px" y="0px"
	 width="128px" height="128px" viewBox="0 0 128 128" enable-background="new 0 0 128 128" xml:space="preserve">
<g>
	
		<polygon fill="none" stroke="#000000" stroke-width="2" stroke-linecap="round" stroke-linejoin="round" stroke-miterlimit="10" points="
		69.788,51.333 60.065,51.333 54.694,65.333 59.471,65.333 54.096,76.666 69.788,60.282 63.299,60.282 	"/>
	<g>
		<g>
			<path d="M75.528,86.55H48.354c-3.309,0-6-2.691-6-6V47.453c0-3.309,2.691-6,6-6h27.174c3.309,0,6,2.691,6,6V80.55
				C81.528,83.858,78.837,86.55,75.528,86.55z M48.354,43.453c-2.206,0-4,1.794-4,4V80.55c0,2.206,1.794,4,4,4h27.174
				c2.206,0,4-1.794,4-4V47.453c0-2.206-1.794-4-4-4H48.354z"/>
		</g>
		<g>
			<path d="M84.646,59.977c-0.553,0-1-0.448-1-1v-7.16c0-0.552,0.447-1,1-1s1,0.448,1,1v7.16
				C85.646,59.529,85.198,59.977,84.646,59.977z"/>
		</g>
		<g>
			<path d="M73.656,39.234c-0.553,0-1-0.448-1-1v-8.251c0-0.551-0.448-1-1-1H52.226c-0.552,0-1,0.449-1,1v8.251c0,0.552-0.447,1-1,1
				s-1-0.448-1-1v-8.251c0-1.654,1.346-3,3-3h19.431c1.654,0,3,1.346,3,3v8.251C74.656,38.786,74.209,39.234,73.656,39.234z"/>
		</g>
		<g>
			<path d="M71.656,101.021H52.226c-1.654,0-3-1.346-3-3v-8.257c0-0.552,0.447-1,1-1s1,0.448,1,1v8.257c0,0.551,0.448,1,1,1h19.431
				c0.552,0,1-0.449,1-1v-8.257c0-0.552,0.447-1,1-1s1,0.448,1,1v8.257C74.656,99.676,73.311,101.021,71.656,101.021z"/>
		</g>
	</g>
</g>
</svg>
