<?xml version="1.0" encoding="utf-8"?>
<!-- Generator: Adobe Illustrator 16.0.0, SVG Export Plug-In . SVG Version: 6.00 Build 0)  -->
<!DOCTYPE svg PUBLIC "-//W3C//DTD SVG 1.1//EN" "http://www.w3.org/Graphics/SVG/1.1/DTD/svg11.dtd">
<svg version="1.1" id="Layer_1" xmlns="http://www.w3.org/2000/svg" xmlns:xlink="http://www.w3.org/1999/xlink" x="0px" y="0px"
	 width="128px" height="128px" viewBox="0 0 128 128" enable-background="new 0 0 128 128" xml:space="preserve">
<g>
	<g>
		<path d="M48.961,82.547c-0.197,0-0.395-0.058-0.567-0.176c-0.403-0.278-0.546-0.808-0.337-1.251l9.614-20.316h-7.569
			c-0.329,0-0.638-0.162-0.824-0.434s-0.228-0.617-0.109-0.925l10.303-26.844c0.148-0.386,0.52-0.642,0.934-0.642h18.641
			c0.376,0,0.72,0.211,0.891,0.545c0.171,0.335,0.14,0.737-0.081,1.042L68.565,49.123h10.479c0.4,0,0.763,0.239,0.92,0.607
			c0.157,0.368,0.079,0.795-0.197,1.084L49.684,82.239C49.488,82.442,49.226,82.547,48.961,82.547z M51.557,58.804h7.693
			c0.343,0,0.661,0.175,0.845,0.465c0.184,0.29,0.206,0.653,0.06,0.963l-7.652,16.171l24.201-25.28H66.605
			c-0.376,0-0.72-0.211-0.891-0.545c-0.171-0.335-0.14-0.737,0.081-1.042l11.289-15.577H61.092L51.557,58.804z"/>
	</g>
	<g>
		<path d="M92.885,109.687h-57.77c-2.206,0-4-1.794-4-4V22.313c0-2.206,1.794-4,4-4h57.77c2.206,0,4,1.794,4,4v83.373
			C96.885,107.892,95.091,109.687,92.885,109.687z M35.115,20.313c-1.103,0-2,0.897-2,2v83.373c0,1.103,0.897,2,2,2h57.77
			c1.103,0,2-0.897,2-2V22.313c0-1.103-0.897-2-2-2H35.115z"/>
	</g>
	<g>
		<path d="M66.336,101.686c0,1.287-1.047,2.333-2.336,2.333c-1.285,0-2.334-1.046-2.334-2.333c0-1.29,1.049-2.334,2.334-2.334
			C65.289,99.352,66.336,100.396,66.336,101.686z"/>
	</g>
	<g>
		<path d="M95.402,94.183H32.602c-0.553,0-1-0.448-1-1s0.447-1,1-1h62.801c0.553,0,1,0.448,1,1S95.955,94.183,95.402,94.183z"/>
	</g>
</g>
</svg>
