<?xml version="1.0" encoding="utf-8"?>
<!-- Generator: Adobe Illustrator 16.0.0, SVG Export Plug-In . SVG Version: 6.00 Build 0)  -->
<!DOCTYPE svg PUBLIC "-//W3C//DTD SVG 1.1//EN" "http://www.w3.org/Graphics/SVG/1.1/DTD/svg11.dtd">
<svg version="1.1" xmlns="http://www.w3.org/2000/svg" xmlns:xlink="http://www.w3.org/1999/xlink" x="0px" y="0px" width="100px"
	 height="100px" viewBox="0 0 100 100" enable-background="new 0 0 100 100" xml:space="preserve">
<g id="fill">
	<path fill="#ACD9EA" d="M72,20.131c-5.467,0-9.75,2.594-9.75,5.906v6v1.094v4.906v1.094v4.906v1.094v4.906v1.094v4.906v1.094v3.925
		v2.075v3.831v1.188v5.906c0,0.022,0.011,0.041,0.013,0.062c0.134,3.236,4.357,5.75,9.737,5.75s9.604-2.514,9.737-5.75
		c0.001-0.022,0.013-0.041,0.013-0.062V68.15v-1.188v-3.831v-2.075v-3.925v-1.094v-4.906v-1.094v-4.906v-1.094v-4.906v-1.094v-4.906
		v-1.094v-6C81.75,22.726,77.467,20.131,72,20.131z"/>
	<path fill="#ACD9EA" d="M49,38.131c-5.467,0-9.75,2.594-9.75,5.906v12v1.094v3.925v2.075v3.831v1.188v5.906
		c0,0.022,0.011,0.041,0.013,0.062c0.134,3.236,4.357,5.75,9.737,5.75s9.604-2.514,9.737-5.75c0.001-0.022,0.013-0.041,0.013-0.062
		V68.15v-1.188v-3.831v-2.075v-3.925v-1.094v-12C58.75,40.726,54.467,38.131,49,38.131z"/>
	<path fill="#ACD9EA" d="M26,56.131c-5.467,0-9.75,2.594-9.75,5.906v4.925v1.188v5.906c0,0.022,0.011,0.041,0.013,0.062
		c0.134,3.236,4.357,5.75,9.737,5.75s9.604-2.514,9.737-5.75c0.001-0.022,0.013-0.041,0.013-0.062V68.15v-1.188v-4.925
		C35.75,58.726,31.467,56.131,26,56.131z"/>
</g>
<g id="outline">
	<g>
		
			<line fill="none" stroke="#919191" stroke-width="2" stroke-linecap="round" stroke-linejoin="round" stroke-miterlimit="10" x1="63.25" y1="26.038" x2="63.25" y2="33.131"/>
		
			<line fill="none" stroke="#919191" stroke-width="2" stroke-linecap="round" stroke-linejoin="round" stroke-miterlimit="10" x1="63.25" y1="32.038" x2="63.25" y2="39.131"/>
		
			<line fill="none" stroke="#919191" stroke-width="2" stroke-linecap="round" stroke-linejoin="round" stroke-miterlimit="10" x1="63.25" y1="38.038" x2="63.25" y2="45.131"/>
		
			<line fill="none" stroke="#919191" stroke-width="2" stroke-linecap="round" stroke-linejoin="round" stroke-miterlimit="10" x1="63.25" y1="44.038" x2="63.25" y2="51.131"/>
		
			<line fill="none" stroke="#919191" stroke-width="2" stroke-linecap="round" stroke-linejoin="round" stroke-miterlimit="10" x1="63.25" y1="50.038" x2="63.25" y2="57.131"/>
		
			<line fill="none" stroke="#919191" stroke-width="2" stroke-linecap="round" stroke-linejoin="round" stroke-miterlimit="10" x1="63.25" y1="56.038" x2="63.25" y2="63.131"/>
		
			<line fill="none" stroke="#919191" stroke-width="2" stroke-linecap="round" stroke-linejoin="round" stroke-miterlimit="10" x1="63.25" y1="61.056" x2="63.25" y2="68.15"/>
		
			<line fill="none" stroke="#919191" stroke-width="2" stroke-linecap="round" stroke-linejoin="round" stroke-miterlimit="10" x1="63.25" y1="66.962" x2="63.25" y2="74.056"/>
		<g>
			
				<ellipse fill="none" stroke="#919191" stroke-width="2" stroke-linecap="round" stroke-linejoin="round" stroke-miterlimit="10" cx="72" cy="26.038" rx="8.75" ry="4.906"/>
			<path fill="none" stroke="#919191" stroke-width="2" stroke-linecap="round" stroke-linejoin="round" stroke-miterlimit="10" d="
				M80.75,32.038c0,2.709-3.917,4.906-8.75,4.906s-8.75-2.197-8.75-4.906"/>
			
				<line fill="none" stroke="#919191" stroke-width="2" stroke-linecap="round" stroke-linejoin="round" stroke-miterlimit="10" x1="80.75" y1="26.038" x2="80.75" y2="33.131"/>
			<path fill="none" stroke="#919191" stroke-width="2" stroke-linecap="round" stroke-linejoin="round" stroke-miterlimit="10" d="
				M80.75,38.038c0,2.709-3.917,4.906-8.75,4.906s-8.75-2.197-8.75-4.906"/>
			
				<line fill="none" stroke="#919191" stroke-width="2" stroke-linecap="round" stroke-linejoin="round" stroke-miterlimit="10" x1="80.75" y1="32.038" x2="80.75" y2="39.131"/>
			<path fill="none" stroke="#919191" stroke-width="2" stroke-linecap="round" stroke-linejoin="round" stroke-miterlimit="10" d="
				M80.75,44.038c0,2.709-3.917,4.906-8.75,4.906s-8.75-2.197-8.75-4.906"/>
			
				<line fill="none" stroke="#919191" stroke-width="2" stroke-linecap="round" stroke-linejoin="round" stroke-miterlimit="10" x1="80.75" y1="38.038" x2="80.75" y2="45.131"/>
			<path fill="none" stroke="#919191" stroke-width="2" stroke-linecap="round" stroke-linejoin="round" stroke-miterlimit="10" d="
				M80.75,50.038c0,2.709-3.917,4.906-8.75,4.906s-8.75-2.197-8.75-4.906"/>
			
				<line fill="none" stroke="#919191" stroke-width="2" stroke-linecap="round" stroke-linejoin="round" stroke-miterlimit="10" x1="80.75" y1="44.038" x2="80.75" y2="51.131"/>
			<path fill="none" stroke="#919191" stroke-width="2" stroke-linecap="round" stroke-linejoin="round" stroke-miterlimit="10" d="
				M80.75,56.038c0,2.709-3.917,4.906-8.75,4.906s-8.75-2.197-8.75-4.906"/>
			
				<line fill="none" stroke="#919191" stroke-width="2" stroke-linecap="round" stroke-linejoin="round" stroke-miterlimit="10" x1="80.75" y1="50.038" x2="80.75" y2="57.131"/>
			<path fill="none" stroke="#919191" stroke-width="2" stroke-linecap="round" stroke-linejoin="round" stroke-miterlimit="10" d="
				M80.75,62.038c0,2.709-3.917,4.906-8.75,4.906s-8.75-2.197-8.75-4.906"/>
			
				<line fill="none" stroke="#919191" stroke-width="2" stroke-linecap="round" stroke-linejoin="round" stroke-miterlimit="10" x1="80.75" y1="56.038" x2="80.75" y2="63.131"/>
			<path fill="none" stroke="#919191" stroke-width="2" stroke-linecap="round" stroke-linejoin="round" stroke-miterlimit="10" d="
				M80.75,68.056c0,2.709-3.917,4.906-8.75,4.906s-8.75-2.197-8.75-4.906"/>
			
				<line fill="none" stroke="#919191" stroke-width="2" stroke-linecap="round" stroke-linejoin="round" stroke-miterlimit="10" x1="80.75" y1="61.056" x2="80.75" y2="68.15"/>
			<path fill="none" stroke="#919191" stroke-width="2" stroke-linecap="round" stroke-linejoin="round" stroke-miterlimit="10" d="
				M80.75,73.962c0,2.709-3.917,4.906-8.75,4.906s-8.75-2.197-8.75-4.906"/>
			
				<line fill="none" stroke="#919191" stroke-width="2" stroke-linecap="round" stroke-linejoin="round" stroke-miterlimit="10" x1="80.75" y1="66.962" x2="80.75" y2="74.056"/>
		</g>
	</g>
	<path fill="none" stroke="#919191" stroke-width="2" stroke-linecap="round" stroke-linejoin="round" stroke-miterlimit="10" d="
		M40.25,39.131"/>
	
		<line fill="none" stroke="#919191" stroke-width="2" stroke-linecap="round" stroke-linejoin="round" stroke-miterlimit="10" x1="40.25" y1="44.038" x2="40.25" y2="51.131"/>
	
		<line fill="none" stroke="#919191" stroke-width="2" stroke-linecap="round" stroke-linejoin="round" stroke-miterlimit="10" x1="40.25" y1="50.038" x2="40.25" y2="57.131"/>
	
		<line fill="none" stroke="#919191" stroke-width="2" stroke-linecap="round" stroke-linejoin="round" stroke-miterlimit="10" x1="40.25" y1="56.038" x2="40.25" y2="63.131"/>
	
		<line fill="none" stroke="#919191" stroke-width="2" stroke-linecap="round" stroke-linejoin="round" stroke-miterlimit="10" x1="40.25" y1="61.056" x2="40.25" y2="68.15"/>
	
		<line fill="none" stroke="#919191" stroke-width="2" stroke-linecap="round" stroke-linejoin="round" stroke-miterlimit="10" x1="40.25" y1="66.962" x2="40.25" y2="74.056"/>
	
		<ellipse fill="none" stroke="#919191" stroke-width="2" stroke-linecap="round" stroke-linejoin="round" stroke-miterlimit="10" cx="49" cy="44.038" rx="8.75" ry="4.906"/>
	<path fill="none" stroke="#919191" stroke-width="2" stroke-linecap="round" stroke-linejoin="round" stroke-miterlimit="10" d="
		M57.75,39.131"/>
	<path fill="none" stroke="#919191" stroke-width="2" stroke-linecap="round" stroke-linejoin="round" stroke-miterlimit="10" d="
		M57.75,50.038c0,2.709-3.917,4.906-8.75,4.906s-8.75-2.197-8.75-4.906"/>
	
		<line fill="none" stroke="#919191" stroke-width="2" stroke-linecap="round" stroke-linejoin="round" stroke-miterlimit="10" x1="57.75" y1="44.038" x2="57.75" y2="51.131"/>
	<path fill="none" stroke="#919191" stroke-width="2" stroke-linecap="round" stroke-linejoin="round" stroke-miterlimit="10" d="
		M57.75,56.038c0,2.709-3.917,4.906-8.75,4.906s-8.75-2.197-8.75-4.906"/>
	
		<line fill="none" stroke="#919191" stroke-width="2" stroke-linecap="round" stroke-linejoin="round" stroke-miterlimit="10" x1="57.75" y1="50.038" x2="57.75" y2="57.131"/>
	<path fill="none" stroke="#919191" stroke-width="2" stroke-linecap="round" stroke-linejoin="round" stroke-miterlimit="10" d="
		M57.75,62.038c0,2.709-3.917,4.906-8.75,4.906s-8.75-2.197-8.75-4.906"/>
	
		<line fill="none" stroke="#919191" stroke-width="2" stroke-linecap="round" stroke-linejoin="round" stroke-miterlimit="10" x1="57.75" y1="56.038" x2="57.75" y2="63.131"/>
	<path fill="none" stroke="#919191" stroke-width="2" stroke-linecap="round" stroke-linejoin="round" stroke-miterlimit="10" d="
		M57.75,68.056c0,2.709-3.917,4.906-8.75,4.906s-8.75-2.197-8.75-4.906"/>
	
		<line fill="none" stroke="#919191" stroke-width="2" stroke-linecap="round" stroke-linejoin="round" stroke-miterlimit="10" x1="57.75" y1="61.056" x2="57.75" y2="68.15"/>
	<path fill="none" stroke="#919191" stroke-width="2" stroke-linecap="round" stroke-linejoin="round" stroke-miterlimit="10" d="
		M57.75,73.962c0,2.709-3.917,4.906-8.75,4.906s-8.75-2.197-8.75-4.906"/>
	
		<line fill="none" stroke="#919191" stroke-width="2" stroke-linecap="round" stroke-linejoin="round" stroke-miterlimit="10" x1="57.75" y1="66.962" x2="57.75" y2="74.056"/>
	<path fill="none" stroke="#919191" stroke-width="2" stroke-linecap="round" stroke-linejoin="round" stroke-miterlimit="10" d="
		M17.25,57.131"/>
	<path fill="none" stroke="#919191" stroke-width="2" stroke-linecap="round" stroke-linejoin="round" stroke-miterlimit="10" d="
		M17.25,57.131"/>
	<path fill="none" stroke="#919191" stroke-width="2" stroke-linecap="round" stroke-linejoin="round" stroke-miterlimit="10" d="
		M17.25,63.131"/>
	
		<line fill="none" stroke="#919191" stroke-width="2" stroke-linecap="round" stroke-linejoin="round" stroke-miterlimit="10" x1="17.25" y1="62.056" x2="17.25" y2="68.15"/>
	
		<line fill="none" stroke="#919191" stroke-width="2" stroke-linecap="round" stroke-linejoin="round" stroke-miterlimit="10" x1="17.25" y1="66.962" x2="17.25" y2="74.056"/>
	
		<ellipse fill="none" stroke="#919191" stroke-width="2" stroke-linecap="round" stroke-linejoin="round" stroke-miterlimit="10" cx="26" cy="62.038" rx="8.75" ry="4.906"/>
	<path fill="none" stroke="#919191" stroke-width="2" stroke-linecap="round" stroke-linejoin="round" stroke-miterlimit="10" d="
		M34.75,57.131"/>
	<path fill="none" stroke="#919191" stroke-width="2" stroke-linecap="round" stroke-linejoin="round" stroke-miterlimit="10" d="
		M34.75,63.131"/>
	<path fill="none" stroke="#919191" stroke-width="2" stroke-linecap="round" stroke-linejoin="round" stroke-miterlimit="10" d="
		M34.75,68.056c0,2.709-3.917,4.906-8.75,4.906s-8.75-2.197-8.75-4.906"/>
	
		<line fill="none" stroke="#919191" stroke-width="2" stroke-linecap="round" stroke-linejoin="round" stroke-miterlimit="10" x1="34.75" y1="62.056" x2="34.75" y2="68.15"/>
	<path fill="none" stroke="#919191" stroke-width="2" stroke-linecap="round" stroke-linejoin="round" stroke-miterlimit="10" d="
		M34.75,73.962c0,2.709-3.917,4.906-8.75,4.906s-8.75-2.197-8.75-4.906"/>
	
		<line fill="none" stroke="#919191" stroke-width="2" stroke-linecap="round" stroke-linejoin="round" stroke-miterlimit="10" x1="34.75" y1="66.962" x2="34.75" y2="74.056"/>
</g>
<g id="dollar_x5F_signs">
</g>
</svg>
