<?xml version="1.0" encoding="utf-8"?>
<!-- Generator: Adobe Illustrator 16.0.0, SVG Export Plug-In . SVG Version: 6.00 Build 0)  -->
<!DOCTYPE svg PUBLIC "-//W3C//DTD SVG 1.1//EN" "http://www.w3.org/Graphics/SVG/1.1/DTD/svg11.dtd">
<svg version="1.1" xmlns="http://www.w3.org/2000/svg" xmlns:xlink="http://www.w3.org/1999/xlink" x="0px" y="0px" width="100px"
	 height="100px" viewBox="0 0 100 100" enable-background="new 0 0 100 100" xml:space="preserve">
<g id="fill">
	<g>
		<g>
			<g>
				<path fill="#E2BE7D" d="M65.421,82.188v7.265c0,1.65-1.35,3-3,3H41.506c-1.65,0-3-1.35-3-3v-7.265 M38.506,82.188h26.915"/>
			</g>
		</g>
		<circle fill="#FFFFFF" cx="51.964" cy="87.948" r="1.735"/>
		<g>
			<path fill="#ACD9EA" d="M38.506,82.166V39.728c0-1.65,1.35-3,3-3h20.915c1.65,0,3,1.35,3,3v42.438"/>
		</g>
		<g>
			<path fill="#ACD9EA" d="M44.221,25.796c-1.1,0-2.9,0-4,0h-4.65c-1.1,0-2-0.9-2-2V11.189c0-1.1,0.9-2,2-2h23.463c1.1,0,2,0.9,2,2
				v12.607c0,1.1-0.9,2-2,2h-4.479c-1.1,0-2.9,0-4,0H44.221z"/>
		</g>
		<g>
			<path fill="#E2BE7D" d="M52.276,28.771c0,1.1-0.9,2-2,2h-5.948c-1.1,0-2-0.9-2-2v-5.948c0-1.1,0.9-2,2-2h5.948c1.1,0,2,0.9,2,2
				V28.771z"/>
		</g>
	</g>
</g>
<g id="outline">
	
		<line fill="none" stroke="#919191" stroke-width="2" stroke-linecap="round" stroke-linejoin="round" stroke-miterlimit="10" x1="47.302" y1="35.728" x2="47.302" y2="30.474"/>
	<g>
		<path fill="none" stroke="#919191" stroke-width="2" stroke-linecap="round" stroke-linejoin="round" stroke-miterlimit="10" d="
			M52.276,27.771c0,1.1-0.9,2-2,2h-5.948c-1.1,0-2-0.9-2-2v-5.948c0-1.1,0.9-2,2-2h5.948c1.1,0,2,0.9,2,2V27.771z"/>
	</g>
	<g>
		<path fill="none" stroke="#919191" stroke-width="2" stroke-linecap="round" stroke-linejoin="round" stroke-miterlimit="10" d="
			M42.221,26.796h-6.65c-1.1,0-2-0.9-2-2V12.189c0-1.1,0.9-2,2-2h23.463c1.1,0,2,0.9,2,2v12.607c0,1.1-0.9,2-2,2h-6.479"/>
	</g>
	
		<line fill="none" stroke="#919191" stroke-width="2" stroke-linecap="round" stroke-linejoin="round" stroke-miterlimit="10" x1="52.276" y1="21.729" x2="60.644" y2="21.729"/>
	
		<line fill="none" stroke="#919191" stroke-width="2" stroke-linecap="round" stroke-linejoin="round" stroke-miterlimit="10" x1="33.96" y1="21.729" x2="42.328" y2="21.729"/>
	<g>
		
			<circle fill="none" stroke="#919191" stroke-width="2" stroke-linecap="round" stroke-linejoin="round" stroke-miterlimit="10" cx="51.858" cy="87.074" r="1.735"/>
		<g>
			<path fill="none" stroke="#919191" stroke-width="2" stroke-linecap="round" stroke-linejoin="round" stroke-miterlimit="10" d="
				M65.315,88.701c0,1.65-1.35,3-3,3H41.401c-1.65,0-3-1.35-3-3V38.854c0-1.65,1.35-3,3-3h20.914c1.65,0,3,1.35,3,3V88.701z"/>
		</g>
		
			<line fill="none" stroke="#919191" stroke-width="2" stroke-linecap="round" stroke-linejoin="round" stroke-miterlimit="10" x1="38.789" y1="81.498" x2="64.928" y2="81.498"/>
	</g>
</g>
<g id="dollar_x5F_signs">
	<path fill="none" stroke="#919191" stroke-width="2" stroke-linecap="round" stroke-linejoin="bevel" stroke-miterlimit="10" d="
		M51.858,68.516v4.208 M51.858,45.646v4.237 M58.146,54.517v-3.426c0-0.667-0.482-1.208-1.078-1.208H46.648
		c-0.595,0-1.077,0.541-1.077,1.208v6.887c0,0.667,0.482,1.208,1.077,1.208h10.421c0.595,0,1.078,0.541,1.078,1.208v6.887
		c0,0.666-0.482,1.207-1.078,1.207H46.648c-0.595,0-1.077-0.541-1.077-1.207v-3.407"/>
</g>
</svg>
