<?xml version="1.0" encoding="utf-8"?>
<!-- Generator: Adobe Illustrator 16.0.0, SVG Export Plug-In . SVG Version: 6.00 Build 0)  -->
<!DOCTYPE svg PUBLIC "-//W3C//DTD SVG 1.1//EN" "http://www.w3.org/Graphics/SVG/1.1/DTD/svg11.dtd">
<svg version="1.1" xmlns="http://www.w3.org/2000/svg" xmlns:xlink="http://www.w3.org/1999/xlink" x="0px" y="0px" width="100px"
	 height="100px" viewBox="0 0 100 100" enable-background="new 0 0 100 100" xml:space="preserve">
<g id="fill">
	<g>
		<g>
			<g>
				<path fill="#E2BE7D" d="M83.583,61.183c0,0,0,1.172,0,2.604c0,1.432-1.35,2.604-3,2.604H19.054c-1.65,0-3-1.172-3-2.604
					c0-1.432,0-2.604,0-2.604 M16.054,61.183h67.529"/>
			</g>
		</g>
		<g>
			<path fill="#ACD9EA" d="M16.054,61.218V22.401c0-1.65,1.35-3,3-3h61.529c1.65,0,3,1.35,3,3v38.817"/>
		</g>
	</g>
	<polygon fill="#E8BB80" points="89.637,77.125 10,77.125 15.909,70.125 83.728,70.125 	"/>
</g>
<g id="outline">
	<g>
		<path fill="none" stroke="#919191" stroke-width="2" stroke-linecap="round" stroke-linejoin="round" stroke-miterlimit="10" d="
			M83.765,63.391c0,1.65-1.35,3-3,3H19.235c-1.65,0-3-1.35-3-3V21.875c0-1.65,1.35-3,3-3h61.529c1.65,0,3,1.35,3,3V63.391z"/>
	</g>
	
		<polygon fill="none" stroke="#919191" stroke-width="2" stroke-linecap="round" stroke-linejoin="round" stroke-miterlimit="10" points="
		89.818,77.125 10.182,77.125 16.091,70.125 83.909,70.125 	"/>
	
		<line fill="none" stroke="#919191" stroke-width="2" stroke-linecap="round" stroke-linejoin="round" stroke-miterlimit="10" x1="16.235" y1="61.125" x2="83.765" y2="61.125"/>
</g>
<g id="dollar_x5F_signs">
	<path fill="none" stroke="#919191" stroke-width="2" stroke-linecap="round" stroke-linejoin="bevel" stroke-miterlimit="10" d="
		M50,50.527v4.333 M50,26.974v4.363 M56.476,36.109v-3.529c0-0.687-0.496-1.244-1.109-1.244H44.634
		c-0.613,0-1.109,0.557-1.109,1.244v7.093c0,0.688,0.496,1.244,1.109,1.244h10.732c0.613,0,1.109,0.557,1.109,1.244v7.093
		c0,0.686-0.496,1.243-1.109,1.243H44.634c-0.613,0-1.109-0.557-1.109-1.243v-3.509"/>
</g>
</svg>
