<?xml version="1.0" encoding="utf-8"?>
<!-- Generator: Adobe Illustrator 16.0.0, SVG Export Plug-In . SVG Version: 6.00 Build 0)  -->
<!DOCTYPE svg PUBLIC "-//W3C//DTD SVG 1.1//EN" "http://www.w3.org/Graphics/SVG/1.1/DTD/svg11.dtd">
<svg version="1.1" xmlns="http://www.w3.org/2000/svg" xmlns:xlink="http://www.w3.org/1999/xlink" x="0px" y="0px" width="100px"
	 height="100px" viewBox="0 0 100 100" enable-background="new 0 0 100 100" xml:space="preserve">
<g id="fill">
	<rect x="17.75" y="41.73" fill="#E2BE7D" width="64.5" height="43"/>
	<polygon fill="#ACD9EA" points="50,11.75 66.174,23.38 82.348,35.01 50,35.01 17.652,35.01 33.826,23.38 	"/>
</g>
<g id="outline">
	
		<rect x="17.75" y="41.73" fill="none" stroke="#919191" stroke-width="2" stroke-linecap="round" stroke-linejoin="round" stroke-miterlimit="10" width="64.5" height="43"/>
	
		<polygon fill="none" stroke="#919191" stroke-width="2" stroke-linecap="round" stroke-linejoin="round" stroke-miterlimit="10" points="
		50,11.75 66.174,23.38 82.348,35.01 50,35.01 17.652,35.01 33.826,23.38 	"/>
</g>
<g id="dollar_x5F_signs">
	<path fill="none" stroke="#919191" stroke-width="2" stroke-linecap="round" stroke-linejoin="bevel" stroke-miterlimit="10" d="
		M50,73.443v4.605 M50,48.413v4.637 M56.883,58.121v-3.75c0-0.729-0.529-1.321-1.181-1.321H44.298c-0.651,0-1.181,0.592-1.181,1.321
		v7.538c0,0.73,0.529,1.321,1.181,1.321h11.404c0.651,0,1.181,0.591,1.181,1.321v7.538c0,0.729-0.529,1.321-1.181,1.321H44.298
		c-0.651,0-1.181-0.592-1.181-1.321v-3.729"/>
</g>
</svg>
