<?xml version="1.0" encoding="utf-8"?>
<!-- Generator: Adobe Illustrator 16.0.0, SVG Export Plug-In . SVG Version: 6.00 Build 0)  -->
<!DOCTYPE svg PUBLIC "-//W3C//DTD SVG 1.1//EN" "http://www.w3.org/Graphics/SVG/1.1/DTD/svg11.dtd">
<svg version="1.1" xmlns="http://www.w3.org/2000/svg" xmlns:xlink="http://www.w3.org/1999/xlink" x="0px" y="0px" width="100px"
	 height="100px" viewBox="0 0 100 100" enable-background="new 0 0 100 100" xml:space="preserve">
<g id="fill">
	<g>
		<polygon fill="#E2BE7D" points="81.082,39.739 81.082,33.876 75.218,33.876 75.218,28.013 13.068,28.013 13.068,60.261 
			18.931,60.261 18.931,66.124 24.794,66.124 24.794,71.987 86.944,71.987 86.944,39.739 		"/>
	</g>
</g>
<g id="outline">
	<g>
		<path fill="none" stroke="#919191" stroke-width="2" stroke-linecap="round" stroke-linejoin="round" stroke-miterlimit="10" d="
			M86.944,71.987h-62.15V39.739h62.15V71.987z M81.069,33.876h-62.15v32.248 M75.206,28.013h-62.15v32.248 M81.069,33.876v5.863
			 M75.206,28.013v5.863"/>
	</g>
</g>
<g id="dollar_x5F_signs">
	<g>
		
			<line fill="none" stroke="#919191" stroke-width="2" stroke-linecap="round" stroke-linejoin="round" stroke-miterlimit="10" x1="13.056" y1="60.261" x2="18.918" y2="60.261"/>
	</g>
	<g>
		
			<line fill="none" stroke="#919191" stroke-width="2" stroke-linecap="round" stroke-linejoin="round" stroke-miterlimit="10" x1="18.918" y1="66.124" x2="24.794" y2="66.124"/>
	</g>
	<path fill="none" stroke="#919191" stroke-width="2" stroke-linecap="round" stroke-linejoin="bevel" stroke-miterlimit="10" d="
		M55.87,63.046v3.271 M55.87,45.409v3.271 M60.725,52.258v-2.646c0-0.515-0.372-0.933-0.832-0.933h-8.048
		c-0.459,0-0.831,0.418-0.831,0.933v5.318c0,0.515,0.372,0.933,0.831,0.933h8.048c0.459,0,0.832,0.417,0.832,0.932v5.319
		c0,0.514-0.372,0.932-0.832,0.932h-8.048c-0.459,0-0.831-0.418-0.831-0.932v-2.632"/>
</g>
</svg>
