<?xml version="1.0" encoding="utf-8"?>
<!-- Generator: Adobe Illustrator 16.0.0, SVG Export Plug-In . SVG Version: 6.00 Build 0)  -->
<!DOCTYPE svg PUBLIC "-//W3C//DTD SVG 1.1//EN" "http://www.w3.org/Graphics/SVG/1.1/DTD/svg11.dtd">
<svg version="1.1" xmlns="http://www.w3.org/2000/svg" xmlns:xlink="http://www.w3.org/1999/xlink" x="0px" y="0px" width="100px"
	 height="100px" viewBox="0 0 100 100" enable-background="new 0 0 100 100" xml:space="preserve">
<g id="fill">
	<g>
		<path fill="#E2BE7D" d="M66.5,34.084V21.375h-33v12.709H12.75v49.277h74.5V34.084H66.5z M60.5,34.125h-21v-6.986h21V34.125z"/>
		<circle fill="#ACD9EA" cx="50" cy="58.723" r="16.246"/>
	</g>
</g>
<g id="outline">
	<g>
		
			<rect x="12.75" y="34.084" fill="none" stroke="#919191" stroke-width="2" stroke-linecap="round" stroke-linejoin="round" stroke-miterlimit="10" width="74.5" height="49.277"/>
	</g>
	<g>
		
			<polyline fill="none" stroke="#919191" stroke-width="2" stroke-linecap="round" stroke-linejoin="round" stroke-miterlimit="10" points="
			33.5,33.625 33.5,21.375 66.5,21.375 66.5,33.625 		"/>
		
			<polyline fill="none" stroke="#919191" stroke-width="2" stroke-linecap="round" stroke-linejoin="round" stroke-miterlimit="10" points="
			39.5,33.625 39.5,27.375 60.5,27.375 60.5,33.625 		"/>
	</g>
	
		<circle fill="none" stroke="#919191" stroke-width="2" stroke-linecap="round" stroke-linejoin="round" stroke-miterlimit="10" cx="50" cy="58.723" r="16.246"/>
</g>
<g id="dollar_x5F_signs">
	<path fill="none" stroke="#919191" stroke-width="2" stroke-linecap="round" stroke-linejoin="bevel" stroke-miterlimit="10" d="
		M50,65.124v2.886 M50,49.435v2.906 M54.313,55.52v-2.351c0-0.457-0.331-0.828-0.739-0.828h-7.148c-0.409,0-0.739,0.371-0.739,0.828
		v4.725c0,0.458,0.331,0.829,0.739,0.829h7.148c0.409,0,0.739,0.371,0.739,0.829v4.725c0,0.457-0.331,0.828-0.739,0.828h-7.148
		c-0.409,0-0.739-0.371-0.739-0.828v-2.337"/>
</g>
</svg>
