<?xml version="1.0" encoding="utf-8"?>
<!-- Generator: Adobe Illustrator 16.0.0, SVG Export Plug-In . SVG Version: 6.00 Build 0)  -->
<!DOCTYPE svg PUBLIC "-//W3C//DTD SVG 1.1//EN" "http://www.w3.org/Graphics/SVG/1.1/DTD/svg11.dtd">
<svg version="1.1" xmlns="http://www.w3.org/2000/svg" xmlns:xlink="http://www.w3.org/1999/xlink" x="0px" y="0px" width="100px"
	 height="100px" viewBox="0 0 100 100" enable-background="new 0 0 100 100" xml:space="preserve">
<g id="fill">
	<g>
		<circle fill="#E2BE7D" cx="50" cy="50.754" r="37.008"/>
		<circle fill="#ACD9EA" cx="50" cy="50.132" r="24.716"/>
	</g>
</g>
<g id="outline">
	
		<circle fill="none" stroke="#919191" stroke-width="2" stroke-linecap="round" stroke-linejoin="round" stroke-miterlimit="10" cx="50" cy="50" r="24.716"/>
	
		<circle fill="none" stroke="#919191" stroke-width="2" stroke-linecap="round" stroke-linejoin="round" stroke-miterlimit="10" cx="50" cy="50" r="37.008"/>
</g>
<g id="dollar_x5F_signs">
	<path fill="none" stroke="#919191" stroke-width="2" stroke-linecap="round" stroke-linejoin="bevel" stroke-miterlimit="10" d="
		M50,59.412v4.286 M50,36.302v4.286 M56.362,45.276V41.81c0-0.674-0.488-1.222-1.089-1.222H44.727c-0.602,0-1.089,0.547-1.089,1.222
		v6.969c0,0.674,0.488,1.221,1.089,1.221h10.546c0.602,0,1.089,0.547,1.089,1.221v6.969c0,0.674-0.488,1.222-1.089,1.222H44.727
		c-0.602,0-1.089-0.548-1.089-1.222v-3.447"/>
</g>
</svg>
