<?xml version="1.0" encoding="utf-8"?>
<!-- Generator: Adobe Illustrator 16.0.0, SVG Export Plug-In . SVG Version: 6.00 Build 0)  -->
<!DOCTYPE svg PUBLIC "-//W3C//DTD SVG 1.1//EN" "http://www.w3.org/Graphics/SVG/1.1/DTD/svg11.dtd">
<svg version="1.1" xmlns="http://www.w3.org/2000/svg" xmlns:xlink="http://www.w3.org/1999/xlink" x="0px" y="0px" width="100px"
	 height="100px" viewBox="0 0 100 100" enable-background="new 0 0 100 100" xml:space="preserve">
<g id="fill">
	<g>
		<path fill="#E2BE7D" d="M52.998,82.479l-6-0.001L47,75.315h-9.5c-3.079,0-5.584-2.645-5.584-5.896v-8.174h6v8.07h24.157L62.084,53
			H37.5c-3.079,0-5.584-2.646-5.584-5.897V30.581c0-3.251,2.505-5.896,5.584-5.896H47l-0.001-7.163l6-0.001L53,24.685h9.5
			c3.079,0,5.584,2.645,5.584,5.896v8.22h-6v-8.116H37.927L37.916,47H62.5c3.079,0,5.584,2.645,5.584,5.896v16.523
			c0,3.251-2.505,5.896-5.584,5.896H53L52.998,82.479z"/>
	</g>
</g>
<g id="outline">
	<g>
		<path fill="none" stroke="#919191" stroke-width="2" stroke-linecap="round" stroke-linejoin="round" stroke-miterlimit="10" d="
			M52.998,82.479l-6-0.001L47,75.315h-9.5c-3.079,0-5.584-2.645-5.584-5.896v-8.174h6v8.07h24.157L62.084,53H37.5
			c-3.079,0-5.584-2.646-5.584-5.897V30.581c0-3.251,2.505-5.896,5.584-5.896H47l-0.001-7.163l6-0.001L53,24.685h9.5
			c3.079,0,5.584,2.645,5.584,5.896v8.22h-6v-8.116H37.927L37.916,47H62.5c3.079,0,5.584,2.645,5.584,5.896v16.523
			c0,3.251-2.505,5.896-5.584,5.896H53L52.998,82.479z"/>
	</g>
</g>
<g id="dollar_x5F_signs">
</g>
</svg>
