<?xml version="1.0" encoding="utf-8"?>
<!-- Generator: Adobe Illustrator 16.0.0, SVG Export Plug-In . SVG Version: 6.00 Build 0)  -->
<!DOCTYPE svg PUBLIC "-//W3C//DTD SVG 1.1//EN" "http://www.w3.org/Graphics/SVG/1.1/DTD/svg11.dtd">
<svg version="1.1" xmlns="http://www.w3.org/2000/svg" xmlns:xlink="http://www.w3.org/1999/xlink" x="0px" y="0px" width="100px"
	 height="100px" viewBox="0 0 100 100" enable-background="new 0 0 100 100" xml:space="preserve">
<g id="fill">
	<polygon fill="#E8BB80" points="29.957,40.304 14.707,56.434 23.119,56.434 14.707,65.843 23.119,65.843 14.707,75.252 
		23.119,75.252 14.707,84.661 51,84.661 66.249,68.532 66.249,59.123 66.249,49.713 66.249,40.304 	"/>
	<polygon fill="#E8BB80" points="78.396,27.455 87.293,18.046 51,18.046 38.292,31.488 74.585,31.488 74.585,40.897 74.585,50.306 
		74.585,59.715 87.293,46.273 78.396,46.273 87.293,36.864 78.396,36.864 87.293,27.455 	"/>
</g>
<g id="outline">
	
		<polygon fill="none" stroke="#919191" stroke-width="2" stroke-linecap="round" stroke-linejoin="round" stroke-miterlimit="10" points="
		74.585,31.488 87.293,18.046 51,18.046 38.292,31.488 	"/>
	
		<polyline fill="none" stroke="#919191" stroke-width="2" stroke-linecap="round" stroke-linejoin="round" stroke-miterlimit="10" points="
		66.249,40.304 51,56.434 23.119,56.434 	"/>
	
		<polyline fill="none" stroke="#919191" stroke-width="2" stroke-linecap="round" stroke-linejoin="round" stroke-miterlimit="10" points="
		66.249,40.304 29.957,40.304 14.707,56.434 23.119,56.434 	"/>
	
		<polyline fill="none" stroke="#919191" stroke-width="2" stroke-linecap="round" stroke-linejoin="round" stroke-miterlimit="10" points="
		78.881,27.455 87.293,27.455 74.585,40.897 	"/>
	
		<polyline fill="none" stroke="#919191" stroke-width="2" stroke-linecap="round" stroke-linejoin="round" stroke-miterlimit="10" points="
		23.119,56.434 14.707,65.843 23.119,65.843 	"/>
	
		<polyline fill="none" stroke="#919191" stroke-width="2" stroke-linecap="round" stroke-linejoin="round" stroke-miterlimit="10" points="
		66.249,49.713 51,65.843 23.119,65.843 	"/>
	
		<polyline fill="none" stroke="#919191" stroke-width="2" stroke-linecap="round" stroke-linejoin="round" stroke-miterlimit="10" points="
		74.585,50.306 87.293,36.864 78.881,36.864 	"/>
	
		<polyline fill="none" stroke="#919191" stroke-width="2" stroke-linecap="round" stroke-linejoin="round" stroke-miterlimit="10" points="
		66.249,59.123 51,75.252 23.119,75.252 	"/>
	
		<polyline fill="none" stroke="#919191" stroke-width="2" stroke-linecap="round" stroke-linejoin="round" stroke-miterlimit="10" points="
		23.119,65.843 14.707,75.252 23.119,75.252 	"/>
	
		<polyline fill="none" stroke="#919191" stroke-width="2" stroke-linecap="round" stroke-linejoin="round" stroke-miterlimit="10" points="
		66.249,68.532 51,84.661 14.707,84.661 23.119,75.252 	"/>
	
		<polyline fill="none" stroke="#919191" stroke-width="2" stroke-linecap="round" stroke-linejoin="round" stroke-miterlimit="10" points="
		74.585,59.715 87.293,46.273 78.881,46.273 	"/>
	
		<line fill="none" stroke="#919191" stroke-width="2" stroke-linecap="round" stroke-linejoin="round" stroke-miterlimit="10" x1="66.249" y1="59.123" x2="66.249" y2="68.532"/>
	
		<line fill="none" stroke="#919191" stroke-width="2" stroke-linecap="round" stroke-linejoin="round" stroke-miterlimit="10" x1="66.249" y1="40.304" x2="66.249" y2="49.713"/>
	
		<line fill="none" stroke="#919191" stroke-width="2" stroke-linecap="round" stroke-linejoin="round" stroke-miterlimit="10" x1="66.249" y1="49.713" x2="66.249" y2="59.123"/>
	
		<line fill="none" stroke="#919191" stroke-width="2" stroke-linecap="round" stroke-linejoin="round" stroke-miterlimit="10" x1="74.585" y1="40.897" x2="74.585" y2="50.306"/>
	
		<line fill="none" stroke="#919191" stroke-width="2" stroke-linecap="round" stroke-linejoin="round" stroke-miterlimit="10" x1="74.585" y1="50.306" x2="74.585" y2="59.715"/>
	
		<line fill="none" stroke="#919191" stroke-width="2" stroke-linecap="round" stroke-linejoin="round" stroke-miterlimit="10" x1="74.585" y1="31.488" x2="74.585" y2="40.897"/>
</g>
<g id="dollar_x5F_signs">
</g>
</svg>
