<?xml version="1.0" encoding="utf-8"?>
<!-- Generator: Adobe Illustrator 16.0.0, SVG Export Plug-In . SVG Version: 6.00 Build 0)  -->
<!DOCTYPE svg PUBLIC "-//W3C//DTD SVG 1.1//EN" "http://www.w3.org/Graphics/SVG/1.1/DTD/svg11.dtd">
<svg version="1.1" xmlns="http://www.w3.org/2000/svg" xmlns:xlink="http://www.w3.org/1999/xlink" x="0px" y="0px" width="100px"
	 height="100px" viewBox="0 0 100 100" enable-background="new 0 0 100 100" xml:space="preserve">
<g id="fill">
	<g>
		<path fill="#E8BB80" d="M50,98"/>
		<path fill="#E8BB80" d="M86.148,40.881c1.377-2.764,2.178-5.872,2.178-9.174c0-11.359-9.209-20.568-20.57-20.568
			c-7.582,0-14.188,6.009-17.756,12.116C46.431,17.149,39.827,11.14,32.244,11.14c-11.361,0-20.57,9.209-20.57,20.568
			c0,3.302,0.801,6.41,2.178,9.174H13.82l0.098,0.13C14.975,43.09,50,89.58,50,89.58s35.025-46.49,36.082-48.569l0.098-0.13H86.148z
			"/>
	</g>
</g>
<g id="outline">
	<g>
		<path fill="none" stroke="#919191" stroke-width="2" stroke-linecap="round" stroke-linejoin="round" stroke-miterlimit="10" d="
			M50,98"/>
		<path fill="none" stroke="#919191" stroke-width="2" stroke-linecap="round" stroke-linejoin="round" stroke-miterlimit="10" d="
			M86.148,40.881c1.377-2.764,2.178-5.872,2.178-9.174c0-11.359-9.209-20.568-20.57-20.568c-7.582,0-14.188,6.009-17.756,12.116
			C46.431,17.149,39.827,11.14,32.244,11.14c-11.361,0-20.57,9.209-20.57,20.568c0,3.302,0.801,6.41,2.178,9.174H13.82l0.098,0.13
			C14.975,43.09,50,89.58,50,89.58s35.025-46.49,36.082-48.569l0.098-0.13H86.148z"/>
	</g>
</g>
<g id="dollar_x5F_signs">
	<path fill="none" stroke="#919191" stroke-width="2" stroke-linecap="round" stroke-linejoin="bevel" stroke-miterlimit="10" d="
		M50,56.443v4.605 M50,31.413v4.637 M56.883,41.121v-3.75c0-0.729-0.529-1.321-1.181-1.321H44.298c-0.651,0-1.181,0.592-1.181,1.321
		v7.538c0,0.73,0.529,1.321,1.181,1.321h11.404c0.651,0,1.181,0.591,1.181,1.321v7.538c0,0.729-0.529,1.321-1.181,1.321H44.298
		c-0.651,0-1.181-0.592-1.181-1.321v-3.729"/>
</g>
</svg>
