<?xml version="1.0" encoding="utf-8"?>
<!-- Generator: Adobe Illustrator 16.0.0, SVG Export Plug-In . SVG Version: 6.00 Build 0)  -->
<!DOCTYPE svg PUBLIC "-//W3C//DTD SVG 1.1//EN" "http://www.w3.org/Graphics/SVG/1.1/DTD/svg11.dtd">
<svg version="1.1" id="Layer_1" xmlns="http://www.w3.org/2000/svg" xmlns:xlink="http://www.w3.org/1999/xlink" x="0px" y="0px"
	 width="64px" height="64px" viewBox="0 0 64 64" enable-background="new 0 0 64 64" xml:space="preserve">
<g>
	<g>
		<path d="M39.854,37.457H24.147c-0.276,0-0.5-0.224-0.5-0.5v-1.888c0-0.276,0.224-0.5,0.5-0.5h15.707c0.276,0,0.5,0.224,0.5,0.5
			v1.888C40.354,37.233,40.13,37.457,39.854,37.457z M24.647,36.457h14.707v-0.888H24.647V36.457z"/>
	</g>
	<g>
		<path d="M26.476,33.011h-1.89c-0.276,0-0.5-0.224-0.5-0.5v-5.694c0-0.276,0.224-0.5,0.5-0.5h1.89c0.276,0,0.5,0.224,0.5,0.5v5.694
			C26.976,32.787,26.752,33.011,26.476,33.011z M25.085,32.011h0.89v-4.694h-0.89V32.011z"/>
	</g>
	<g>
		<path d="M39.414,33.011h-1.89c-0.276,0-0.5-0.224-0.5-0.5v-5.694c0-0.276,0.224-0.5,0.5-0.5h1.89c0.276,0,0.5,0.224,0.5,0.5v5.694
			C39.914,32.787,39.69,33.011,39.414,33.011z M38.024,32.011h0.89v-4.694h-0.89V32.011z"/>
	</g>
	<g>
		<path d="M30.79,33.011h-1.89c-0.276,0-0.5-0.224-0.5-0.5v-5.694c0-0.276,0.224-0.5,0.5-0.5h1.89c0.276,0,0.5,0.224,0.5,0.5v5.694
			C31.29,32.787,31.066,33.011,30.79,33.011z M29.399,32.011h0.89v-4.694h-0.89V32.011z"/>
	</g>
	<g>
		<path d="M35.102,33.011h-1.89c-0.276,0-0.5-0.224-0.5-0.5v-5.694c0-0.276,0.224-0.5,0.5-0.5h1.89c0.276,0,0.5,0.224,0.5,0.5v5.694
			C35.602,32.787,35.378,33.011,35.102,33.011z M33.711,32.011h0.89v-4.694h-0.89V32.011z"/>
	</g>
	<g>
		<path d="M39.86,24.769H24.137c-0.276,0-0.5-0.224-0.5-0.5v-1.692c0-0.184,0.102-0.354,0.264-0.44l7.862-4.215
			c0.147-0.079,0.325-0.079,0.473,0l7.861,4.215c0.162,0.087,0.264,0.256,0.264,0.44v1.692C40.36,24.545,40.137,24.769,39.86,24.769
			z M24.637,23.769H39.36v-0.893l-7.361-3.947l-7.362,3.947V23.769z"/>
	</g>
	<g>
		<circle cx="31.999" cy="54.915" r="1.707"/>
	</g>
	<g>
		<path d="M42.237,59.966H21.763c-1.93,0-3.5-1.57-3.5-3.5V7.534c0-1.93,1.57-3.5,3.5-3.5h20.474c1.93,0,3.5,1.57,3.5,3.5v48.932
			C45.737,58.396,44.167,59.966,42.237,59.966z M21.763,5.034c-1.378,0-2.5,1.122-2.5,2.5v48.932c0,1.378,1.122,2.5,2.5,2.5h20.474
			c1.378,0,2.5-1.122,2.5-2.5V7.534c0-1.378-1.122-2.5-2.5-2.5H21.763z"/>
	</g>
	<g>
		<path d="M44.857,49.931H19.144c-0.276,0-0.5-0.224-0.5-0.5s0.224-0.5,0.5-0.5h25.713c0.276,0,0.5,0.224,0.5,0.5
			S45.134,49.931,44.857,49.931z"/>
	</g>
</g>
</svg>
