<?xml version="1.0" encoding="utf-8"?>
<!-- Generator: Adobe Illustrator 16.0.0, SVG Export Plug-In . SVG Version: 6.00 Build 0)  -->
<!DOCTYPE svg PUBLIC "-//W3C//DTD SVG 1.1//EN" "http://www.w3.org/Graphics/SVG/1.1/DTD/svg11.dtd">
<svg version="1.1" id="Layer_1" xmlns="http://www.w3.org/2000/svg" xmlns:xlink="http://www.w3.org/1999/xlink" x="0px" y="0px"
	 width="64px" height="64px" viewBox="0 0 64 64" enable-background="new 0 0 64 64" xml:space="preserve">
<g>
	<g>
		<path d="M43.471,39.94H20.529c-0.276,0-0.5-0.224-0.5-0.5v-2.76c0-0.276,0.224-0.5,0.5-0.5h22.941c0.276,0,0.5,0.224,0.5,0.5v2.76
			C43.971,39.716,43.747,39.94,43.471,39.94z M21.029,38.94h21.941v-1.76H21.029V38.94z"/>
	</g>
	<g>
		<g>
			<path d="M26.066,34.517h-2.76c-0.276,0-0.5-0.224-0.5-0.5v-8.318c0-0.276,0.224-0.5,0.5-0.5h2.76c0.276,0,0.5,0.224,0.5,0.5
				v8.318C26.566,34.293,26.343,34.517,26.066,34.517z M23.807,33.517h1.76v-7.318h-1.76V33.517z"/>
		</g>
		<g>
			<path d="M40.692,34.517h-2.76c-0.276,0-0.5-0.224-0.5-0.5v-8.318c0-0.276,0.224-0.5,0.5-0.5h2.76c0.276,0,0.5,0.224,0.5,0.5
				v8.318C41.192,34.293,40.969,34.517,40.692,34.517z M38.433,33.517h1.76v-7.318h-1.76V33.517z"/>
		</g>
		<g>
			<path d="M30.943,34.517h-2.762c-0.276,0-0.5-0.224-0.5-0.5v-8.318c0-0.276,0.224-0.5,0.5-0.5h2.762c0.276,0,0.5,0.224,0.5,0.5
				v8.318C31.443,34.293,31.22,34.517,30.943,34.517z M28.682,33.517h1.762v-7.318h-1.762V33.517z"/>
		</g>
		<g>
			<path d="M35.819,34.517h-2.762c-0.276,0-0.5-0.224-0.5-0.5v-8.318c0-0.276,0.224-0.5,0.5-0.5h2.762c0.276,0,0.5,0.224,0.5,0.5
				v8.318C36.319,34.293,36.096,34.517,35.819,34.517z M33.558,33.517h1.762v-7.318h-1.762V33.517z"/>
		</g>
	</g>
	<g>
		<path d="M43.483,23.544H20.517c-0.276,0-0.5-0.224-0.5-0.5v-2.472c0-0.184,0.101-0.354,0.264-0.44l11.484-6.16
			c0.147-0.079,0.325-0.079,0.473,0l11.482,6.16c0.163,0.087,0.264,0.256,0.264,0.44v2.472
			C43.983,23.321,43.76,23.544,43.483,23.544z M21.017,22.544h21.967v-1.673L32.001,14.98l-10.984,5.892V22.544z"/>
	</g>
	<g>
		<path d="M49.38,61.062H14.62c-1.93,0-3.5-1.57-3.5-3.5V6.438c0-1.93,1.57-3.5,3.5-3.5h34.76c1.93,0,3.5,1.57,3.5,3.5v51.124
			C52.88,59.492,51.31,61.062,49.38,61.062z M14.62,3.938c-1.378,0-2.5,1.122-2.5,2.5v51.124c0,1.378,1.122,2.5,2.5,2.5h34.76
			c1.378,0,2.5-1.122,2.5-2.5V6.438c0-1.378-1.122-2.5-2.5-2.5H14.62z"/>
	</g>
	<g>
		<circle cx="32" cy="56.088" r="1.491"/>
	</g>
	<g>
		<path d="M52.07,51.153h-40.14c-0.276,0-0.5-0.224-0.5-0.5s0.224-0.5,0.5-0.5h40.14c0.276,0,0.5,0.224,0.5,0.5
			S52.347,51.153,52.07,51.153z"/>
	</g>
</g>
</svg>
