<?xml version="1.0" encoding="utf-8"?>
<!-- Generator: Adobe Illustrator 16.0.0, SVG Export Plug-In . SVG Version: 6.00 Build 0)  -->
<!DOCTYPE svg PUBLIC "-//W3C//DTD SVG 1.1//EN" "http://www.w3.org/Graphics/SVG/1.1/DTD/svg11.dtd">
<svg version="1.1" id="Layer_1" xmlns="http://www.w3.org/2000/svg" xmlns:xlink="http://www.w3.org/1999/xlink" x="0px" y="0px"
	 width="64px" height="64px" viewBox="0 0 64 64" enable-background="new 0 0 64 64" xml:space="preserve">
<g>
	<g>
		
			<rect x="24.474" y="37.515" fill="none" stroke="#000000" stroke-linecap="round" stroke-linejoin="round" stroke-miterlimit="10" width="12.419" height="2.176"/>
		<polygon fill="none" stroke="#000000" stroke-linecap="round" stroke-linejoin="round" stroke-miterlimit="10" points="
			36.897,28.981 24.469,28.981 24.469,27.643 30.683,24.31 36.897,27.643 		"/>
		<g>
			
				<line fill="none" stroke="#000000" stroke-linecap="round" stroke-linejoin="round" stroke-miterlimit="10" x1="26.119" y1="31.283" x2="26.119" y2="35.327"/>
			
				<line fill="none" stroke="#000000" stroke-linecap="round" stroke-linejoin="round" stroke-miterlimit="10" x1="29.07" y1="31.283" x2="29.07" y2="35.327"/>
			
				<line fill="none" stroke="#000000" stroke-linecap="round" stroke-linejoin="round" stroke-miterlimit="10" x1="32.022" y1="31.283" x2="32.022" y2="35.327"/>
			
				<line fill="none" stroke="#000000" stroke-linecap="round" stroke-linejoin="round" stroke-miterlimit="10" x1="34.976" y1="31.283" x2="34.976" y2="35.327"/>
		</g>
	</g>
	<g>
		<g>
			<path d="M37.562,46.274H23.803c-3.033,0-5.5-2.467-5.5-5.5V23.227c0-3.033,2.467-5.5,5.5-5.5h13.759c3.033,0,5.5,2.467,5.5,5.5
				v17.547C43.062,43.807,40.595,46.274,37.562,46.274z M23.803,18.727c-2.481,0-4.5,2.019-4.5,4.5v17.547
				c0,2.481,2.019,4.5,4.5,4.5h13.759c2.481,0,4.5-2.019,4.5-4.5V23.227c0-2.481-2.019-4.5-4.5-4.5H23.803z"/>
		</g>
		<g>
			<path d="M45.197,29.29c-0.276,0-0.5-0.224-0.5-0.5v-4.577c0-0.276,0.224-0.5,0.5-0.5s0.5,0.224,0.5,0.5v4.577
				C45.697,29.066,45.473,29.29,45.197,29.29z"/>
		</g>
		<g>
			<path d="M38.169,16.031c-0.276,0-0.5-0.224-0.5-0.5v-4.552c0-0.827-0.673-1.5-1.5-1.5H25.196c-0.827,0-1.5,0.673-1.5,1.5v4.552
				c0,0.276-0.224,0.5-0.5,0.5s-0.5-0.224-0.5-0.5v-4.552c0-1.378,1.122-2.5,2.5-2.5h10.973c1.378,0,2.5,1.122,2.5,2.5v4.552
				C38.669,15.807,38.446,16.031,38.169,16.031z"/>
		</g>
		<g>
			<path d="M36.169,55.523H25.196c-1.378,0-2.5-1.122-2.5-2.5v-4.555c0-0.276,0.224-0.5,0.5-0.5s0.5,0.224,0.5,0.5v4.555
				c0,0.827,0.673,1.5,1.5,1.5h10.973c0.827,0,1.5-0.673,1.5-1.5v-4.555c0-0.276,0.224-0.5,0.5-0.5s0.5,0.224,0.5,0.5v4.555
				C38.669,54.402,37.548,55.523,36.169,55.523z"/>
		</g>
	</g>
</g>
</svg>
