<?xml version="1.0" encoding="utf-8"?>
<!-- Generator: Adobe Illustrator 16.0.0, SVG Export Plug-In . SVG Version: 6.00 Build 0)  -->
<!DOCTYPE svg PUBLIC "-//W3C//DTD SVG 1.1//EN" "http://www.w3.org/Graphics/SVG/1.1/DTD/svg11.dtd">
<svg version="1.1" id="Layer_1" xmlns="http://www.w3.org/2000/svg" xmlns:xlink="http://www.w3.org/1999/xlink" x="0px" y="0px"
	 width="64px" height="64px" viewBox="0 0 64 64" enable-background="new 0 0 64 64" xml:space="preserve">
<g>
	<g>
		
			<rect x="23.092" y="34.501" fill="none" stroke="#000000" stroke-linecap="round" stroke-linejoin="round" stroke-miterlimit="10" width="17.817" height="2.142"/>
		
			<rect x="23.786" y="25.241" fill="none" stroke="#000000" stroke-linecap="round" stroke-linejoin="round" stroke-miterlimit="10" width="2.144" height="6.458"/>
		
			<rect x="38.07" y="25.241" fill="none" stroke="#000000" stroke-linecap="round" stroke-linejoin="round" stroke-miterlimit="10" width="2.145" height="6.458"/>
		
			<rect x="28.548" y="25.241" fill="none" stroke="#000000" stroke-linecap="round" stroke-linejoin="round" stroke-miterlimit="10" width="2.145" height="6.458"/>
		
			<rect x="33.31" y="25.241" fill="none" stroke="#000000" stroke-linecap="round" stroke-linejoin="round" stroke-miterlimit="10" width="2.145" height="6.458"/>
		<polygon fill="none" stroke="#000000" stroke-linecap="round" stroke-linejoin="round" stroke-miterlimit="10" points="
			40.918,22.45 23.084,22.45 23.084,20.53 32,15.748 40.918,20.53 		"/>
	</g>
	<g>
		<g>
			<path d="M53.693,45.949H10.307c-1.93,0-3.5-1.57-3.5-3.5v-28.75c0-1.93,1.57-3.5,3.5-3.5h43.387c1.93,0,3.5,1.57,3.5,3.5v28.75
				C57.193,44.378,55.623,45.949,53.693,45.949z M10.307,11.199c-1.378,0-2.5,1.122-2.5,2.5v28.75c0,1.378,1.122,2.5,2.5,2.5h43.387
				c1.378,0,2.5-1.122,2.5-2.5v-28.75c0-1.378-1.122-2.5-2.5-2.5H10.307z"/>
		</g>
		<g>
			<path d="M61.14,53.799c-0.007,0-0.013,0-0.02,0H2.88c-0.195,0-0.372-0.113-0.454-0.29c-0.082-0.176-0.054-0.384,0.072-0.533
				l4.321-5.118c0.095-0.112,0.234-0.177,0.382-0.177H56.8c0.147,0,0.287,0.065,0.382,0.177l4.25,5.034
				c0.126,0.091,0.209,0.239,0.209,0.407C61.64,53.576,61.417,53.799,61.14,53.799z M3.957,52.799h56.087l-3.476-4.118H7.434
				L3.957,52.799z"/>
		</g>
		<g>
			<path d="M56.693,42.099H7.307c-0.276,0-0.5-0.224-0.5-0.5s0.224-0.5,0.5-0.5h49.387c0.276,0,0.5,0.224,0.5,0.5
				S56.97,42.099,56.693,42.099z"/>
		</g>
	</g>
</g>
</svg>
