<?xml version="1.0" encoding="utf-8"?>
<!-- Generator: Adobe Illustrator 16.0.0, SVG Export Plug-In . SVG Version: 6.00 Build 0)  -->
<!DOCTYPE svg PUBLIC "-//W3C//DTD SVG 1.1//EN" "http://www.w3.org/Graphics/SVG/1.1/DTD/svg11.dtd">
<svg version="1.1" id="Layer_1" xmlns="http://www.w3.org/2000/svg" xmlns:xlink="http://www.w3.org/1999/xlink" x="0px" y="0px"
	 width="128px" height="128px" viewBox="0 0 128 128" enable-background="new 0 0 128 128" xml:space="preserve">
<g>
	<g>
		<path fill="none" stroke="#000000" stroke-width="2" stroke-linecap="round" stroke-linejoin="round" stroke-miterlimit="10" d="
			M71.641,60.327c0,5.438-9.852,19.535-9.852,19.535s-9.854-14.098-9.854-19.535c0-5.445,4.414-9.852,9.854-9.852
			C67.23,50.476,71.641,54.882,71.641,60.327z"/>
		<path fill="none" stroke="#000000" stroke-width="2" stroke-linecap="round" stroke-linejoin="round" stroke-miterlimit="10" d="
			M66.717,60.237c0,2.723-2.205,4.928-4.928,4.928s-4.934-2.205-4.934-4.928c0-2.721,2.211-4.93,4.934-4.93
			S66.717,57.517,66.717,60.237z"/>
	</g>
	<g>
		<g>
			<path d="M77.125,89.747H46.451c-3.309,0-6-2.691-6-6V46.591c0-3.309,2.691-6,6-6h30.674c3.309,0,6,2.691,6,6v37.156
				C83.125,87.056,80.434,89.747,77.125,89.747z M46.451,42.591c-2.206,0-4,1.794-4,4v37.156c0,2.206,1.794,4,4,4h30.674
				c2.206,0,4-1.794,4-4V46.591c0-2.206-1.794-4-4-4H46.451z"/>
		</g>
		<g>
			<path d="M86.631,60.671c-0.553,0-1-0.447-1-1v-7.832c0-0.553,0.447-1,1-1s1,0.447,1,1v7.832
				C87.631,60.224,87.184,60.671,86.631,60.671z"/>
		</g>
		<g>
			<path d="M74.609,37.976c-0.553,0-1-0.447-1-1v-9.221c0-0.552-0.448-1-1-1H50.969c-0.552,0-1,0.448-1,1v9.221c0,0.553-0.447,1-1,1
				s-1-0.447-1-1v-9.221c0-1.654,1.346-3,3-3h21.641c1.654,0,3,1.346,3,3v9.221C75.609,37.528,75.162,37.976,74.609,37.976z"/>
		</g>
		<g>
			<path d="M72.609,105.585H50.969c-1.654,0-3-1.346-3-3v-9.223c0-0.553,0.447-1,1-1s1,0.447,1,1v9.223c0,0.552,0.448,1,1,1h21.641
				c0.552,0,1-0.448,1-1v-9.223c0-0.553,0.447-1,1-1s1,0.447,1,1v9.223C75.609,104.239,74.264,105.585,72.609,105.585z"/>
		</g>
	</g>
</g>
</svg>
