<?xml version="1.0" encoding="utf-8"?>
<!-- Generator: Adobe Illustrator 16.0.0, SVG Export Plug-In . SVG Version: 6.00 Build 0)  -->
<!DOCTYPE svg PUBLIC "-//W3C//DTD SVG 1.1//EN" "http://www.w3.org/Graphics/SVG/1.1/DTD/svg11.dtd">
<svg version="1.1" id="Layer_1" xmlns="http://www.w3.org/2000/svg" xmlns:xlink="http://www.w3.org/1999/xlink" x="0px" y="0px"
	 width="128px" height="128px" viewBox="0 0 128 128" enable-background="new 0 0 128 128" xml:space="preserve">
<g>
	<g>
		<path fill="none" stroke="#000000" stroke-width="2" stroke-linecap="round" stroke-linejoin="round" stroke-miterlimit="10" d="
			M75.65,50.696c0,6.41-11.613,23.029-11.613,23.029s-11.61-16.619-11.61-23.029c0-6.418,5.202-11.615,11.61-11.615
			C70.451,39.081,75.65,44.278,75.65,50.696z"/>
		<path fill="none" stroke="#000000" stroke-width="2" stroke-linecap="round" stroke-linejoin="round" stroke-miterlimit="10" d="
			M69.853,50.593c0,3.213-2.599,5.811-5.815,5.811c-3.205,0-5.81-2.598-5.81-5.811c0-3.209,2.604-5.812,5.81-5.812
			C67.254,44.78,69.853,47.384,69.853,50.593z"/>
	</g>
	<g>
		<g>
			<path d="M103.317,89.976H24.765c-2.206,0-4-1.794-4-4V32.489c0-2.206,1.794-4,4-4h78.553c2.206,0,4,1.794,4,4v53.486
				C107.317,88.182,105.523,89.976,103.317,89.976z M24.765,30.489c-1.103,0-2,0.897-2,2v53.486c0,1.103,0.897,2,2,2h78.553
				c1.103,0,2-0.897,2-2V32.489c0-1.103-0.897-2-2-2H24.765z"/>
		</g>
		<g>
			<path d="M106.317,83.388H21.765c-0.553,0-1-0.447-1-1s0.447-1,1-1h84.553c0.553,0,1,0.447,1,1S106.87,83.388,106.317,83.388z"/>
		</g>
		<g>
			<g>
				<path d="M47.213,101.069c-0.214,0-0.429-0.068-0.611-0.209c-0.437-0.339-0.517-0.967-0.179-1.403l8.607-11.113
					c0.339-0.438,0.966-0.515,1.403-0.179c0.437,0.339,0.517,0.967,0.179,1.403l-8.607,11.113
					C47.808,100.937,47.512,101.069,47.213,101.069z"/>
			</g>
			<g>
				<path d="M80.865,101.069c-0.299,0-0.595-0.133-0.792-0.388l-8.607-11.113c-0.338-0.437-0.258-1.064,0.179-1.403
					c0.438-0.337,1.064-0.259,1.403,0.179l8.607,11.113c0.338,0.437,0.258,1.064-0.179,1.403
					C81.294,101.001,81.079,101.069,80.865,101.069z"/>
			</g>
		</g>
		<g>
			<path d="M87.515,101.851H40.562c-0.553,0-1-0.447-1-1s0.447-1,1-1h46.952c0.553,0,1,0.447,1,1S88.067,101.851,87.515,101.851z"/>
		</g>
	</g>
</g>
</svg>
