<?xml version="1.0" encoding="utf-8"?>
<!-- Generator: Adobe Illustrator 16.0.0, SVG Export Plug-In . SVG Version: 6.00 Build 0)  -->
<!DOCTYPE svg PUBLIC "-//W3C//DTD SVG 1.1//EN" "http://www.w3.org/Graphics/SVG/1.1/DTD/svg11.dtd">
<svg version="1.1" id="Layer_1" xmlns="http://www.w3.org/2000/svg" xmlns:xlink="http://www.w3.org/1999/xlink" x="0px" y="0px"
	 width="128px" height="128px" viewBox="0 0 128 128" enable-background="new 0 0 128 128" xml:space="preserve">
<g>
	<g>
		<g>
			<path d="M64.041,80.009c-0.326,0-0.633-0.159-0.819-0.427c-0.592-0.848-14.495-20.836-14.495-28.968
				c0-8.444,6.87-15.314,15.314-15.314s15.314,6.87,15.314,15.314c0,8.132-13.903,28.12-14.495,28.968
				C64.674,79.85,64.367,80.009,64.041,80.009z M64.041,37.3c-7.342,0-13.314,5.973-13.314,13.314
				c0,6.441,10.298,22.157,13.314,26.622c3.017-4.466,13.314-20.183,13.314-26.622C77.355,43.272,71.383,37.3,64.041,37.3z"/>
		</g>
		<g>
			<path d="M64.041,58.655c-4.502,0-8.164-3.662-8.164-8.164c0-4.503,3.662-8.166,8.164-8.166c4.503,0,8.166,3.663,8.166,8.166
				C72.207,54.993,68.544,58.655,64.041,58.655z M64.041,44.325c-3.398,0-6.164,2.766-6.164,6.166c0,3.398,2.766,6.164,6.164,6.164
				c3.4,0,6.166-2.766,6.166-6.164C70.207,47.091,67.441,44.325,64.041,44.325z"/>
		</g>
	</g>
	<g>
		<path d="M83.701,113.192h-39.32c-2.206,0-4-1.794-4-4V21.147c0-2.206,1.794-4,4-4h39.32c2.206,0,4,1.794,4,4v88.045
			C87.701,111.398,85.907,113.192,83.701,113.192z M44.381,19.147c-1.103,0-2,0.897-2,2v88.045c0,1.103,0.897,2,2,2h39.32
			c1.103,0,2-0.897,2-2V21.147c0-1.103-0.897-2-2-2H44.381z"/>
	</g>
	<g>
		<path d="M86.053,96.007H42.029c-0.553,0-1-0.447-1-1s0.447-1,1-1h44.023c0.553,0,1,0.447,1,1S86.605,96.007,86.053,96.007z"/>
	</g>
	<g>
		<path d="M66.598,103.901c0,1.408-1.146,2.557-2.557,2.557c-1.414,0-2.553-1.148-2.553-2.557c0-1.41,1.139-2.557,2.553-2.557
			C65.451,101.345,66.598,102.491,66.598,103.901z"/>
	</g>
</g>
</svg>
