<?xml version="1.0" encoding="utf-8"?>
<!-- Generator: Adobe Illustrator 16.0.0, SVG Export Plug-In . SVG Version: 6.00 Build 0)  -->
<!DOCTYPE svg PUBLIC "-//W3C//DTD SVG 1.1//EN" "http://www.w3.org/Graphics/SVG/1.1/DTD/svg11.dtd">
<svg version="1.1" id="Layer_1" xmlns="http://www.w3.org/2000/svg" xmlns:xlink="http://www.w3.org/1999/xlink" x="0px" y="0px"
	 width="128px" height="128px" viewBox="0 0 128 128" enable-background="new 0 0 128 128" xml:space="preserve">
<g>
	<g>
		<g>
			<path d="M64.037,85.241L64.037,85.241c-0.327,0-0.633-0.159-0.819-0.428c-0.735-1.052-17.999-25.883-17.999-35.92
				c0-10.381,8.441-18.826,18.818-18.826c10.383,0,18.83,8.445,18.83,18.826c0,10.037-17.275,34.868-18.011,35.921
				C64.67,85.082,64.363,85.241,64.037,85.241z M64.037,32.067c-9.273,0-16.818,7.548-16.818,16.826
				c0,8.229,13.341,28.448,16.818,33.578c3.48-5.131,16.83-25.352,16.83-33.578C80.867,39.615,73.317,32.067,64.037,32.067z"/>
		</g>
		<g>
			<path d="M64.037,58.655c-5.469,0-9.918-4.45-9.918-9.92c0-5.471,4.449-9.922,9.918-9.922c5.473,0,9.926,4.451,9.926,9.922
				C73.963,54.205,69.51,58.655,64.037,58.655z M64.037,40.813c-4.366,0-7.918,3.554-7.918,7.922c0,4.367,3.552,7.92,7.918,7.92
				c4.37,0,7.926-3.553,7.926-7.92C71.963,44.367,68.407,40.813,64.037,40.813z"/>
		</g>
	</g>
	<g>
		<path d="M95.932,115.067H32.15c-2.206,0-4-1.794-4-4V19.271c0-2.206,1.794-4,4-4h63.781c2.206,0,4,1.794,4,4v91.797
			C99.932,113.273,98.138,115.067,95.932,115.067z M32.15,17.271c-1.103,0-2,0.897-2,2v91.797c0,1.103,0.897,2,2,2h63.781
			c1.103,0,2-0.897,2-2V19.271c0-1.103-0.897-2-2-2H32.15z"/>
	</g>
	<g>
		<path d="M66.598,106.403c0,1.412-1.145,2.557-2.561,2.557c-1.404,0-2.553-1.145-2.553-2.557c0-1.406,1.148-2.557,2.553-2.557
			C65.453,103.847,66.598,104.997,66.598,106.403z"/>
	</g>
	<g>
		<path d="M98.404,98.097H29.682c-0.553,0-1-0.447-1-1s0.447-1,1-1h68.723c0.553,0,1,0.447,1,1S98.957,98.097,98.404,98.097z"/>
	</g>
</g>
</svg>
