<?xml version="1.0" encoding="utf-8"?>
<!-- Generator: Adobe Illustrator 16.0.0, SVG Export Plug-In . SVG Version: 6.00 Build 0)  -->
<!DOCTYPE svg PUBLIC "-//W3C//DTD SVG 1.1//EN" "http://www.w3.org/Graphics/SVG/1.1/DTD/svg11.dtd">
<svg version="1.1" id="Layer_1" xmlns="http://www.w3.org/2000/svg" xmlns:xlink="http://www.w3.org/1999/xlink" x="0px" y="0px"
	 width="32px" height="32px" viewBox="0 0 32 32" enable-background="new 0 0 32 32" xml:space="preserve">
<g>
	<g>
		<g>
			<path d="M26.105,22.331H5.893c-0.562,0-1.021-0.459-1.021-1.023V7.606c0-0.564,0.459-1.023,1.021-1.023h20.213
				c0.564,0,1.023,0.459,1.023,1.023v13.701C27.129,21.872,26.67,22.331,26.105,22.331z M5.893,6.875
				c-0.402,0-0.73,0.328-0.73,0.731v13.701c0,0.403,0.328,0.731,0.73,0.731h20.213c0.404,0,0.732-0.328,0.732-0.731V7.606
				c0-0.403-0.328-0.731-0.732-0.731H5.893z"/>
		</g>
		<g>
			<path d="M26.982,20.619H5.016c-0.08,0-0.145-0.065-0.145-0.146c0-0.081,0.064-0.146,0.145-0.146h21.967
				c0.082,0,0.146,0.065,0.146,0.146C27.129,20.553,27.064,20.619,26.982,20.619z"/>
		</g>
		<g>
			<g>
				<path d="M11.629,25.213c-0.031,0-0.062-0.01-0.09-0.03c-0.064-0.05-0.076-0.142-0.025-0.205l2.236-2.887
					c0.051-0.063,0.143-0.075,0.205-0.026c0.064,0.05,0.076,0.142,0.027,0.205l-2.238,2.887
					C11.715,25.194,11.672,25.213,11.629,25.213z"/>
			</g>
			<g>
				<path d="M20.369,25.213c-0.043,0-0.086-0.019-0.115-0.056L18.02,22.27c-0.049-0.063-0.037-0.156,0.027-0.205
					c0.062-0.049,0.154-0.038,0.205,0.026l2.234,2.887c0.049,0.063,0.037,0.156-0.027,0.205
					C20.434,25.203,20.4,25.213,20.369,25.213z"/>
			</g>
		</g>
		<g>
			<path d="M22.102,25.416H9.9c-0.08,0-0.146-0.065-0.146-0.146c0-0.081,0.066-0.146,0.146-0.146h12.201
				c0.08,0,0.145,0.065,0.145,0.146C22.246,25.35,22.182,25.416,22.102,25.416z"/>
		</g>
	</g>
	<g>
		<g>
			<path d="M19.039,15.462h-0.982c-0.082,0-0.146-0.065-0.146-0.146c0-0.081,0.064-0.146,0.146-0.146h0.982
				c0.953,0,1.73-0.777,1.73-1.731s-0.777-1.731-1.73-1.731h-0.197c-0.059,0-0.111-0.036-0.135-0.091
				c-0.213-0.521-0.713-0.856-1.273-0.856c-0.248,0-0.492,0.067-0.705,0.195c-0.035,0.021-0.076,0.026-0.115,0.015
				c-0.039-0.011-0.072-0.038-0.09-0.073c-0.373-0.722-1.107-1.171-1.918-1.171c-1.125,0-2.049,0.846-2.146,1.967
				c-0.006,0.057-0.043,0.104-0.096,0.124c-0.678,0.25-1.133,0.902-1.133,1.622c0,0.955,0.777,1.731,1.732,1.731h0.98
				c0.082,0,0.146,0.065,0.146,0.146c0,0.081-0.064,0.146-0.146,0.146h-0.98c-1.117,0-2.025-0.908-2.025-2.024
				c0-0.811,0.494-1.548,1.24-1.863c0.152-1.228,1.182-2.143,2.428-2.143c0.869,0,1.664,0.456,2.105,1.199
				c0.225-0.108,0.473-0.165,0.723-0.165c0.646,0,1.227,0.369,1.504,0.947h0.102c1.115,0,2.023,0.908,2.023,2.024
				S20.154,15.462,19.039,15.462z"/>
		</g>
		<g>
			<path fill="none" stroke="#000000" stroke-linecap="round" stroke-linejoin="round" stroke-miterlimit="10" d="M18.057,15.316"/>
		</g>
		<g>
			<path fill="none" stroke="#000000" stroke-linecap="round" stroke-linejoin="round" stroke-miterlimit="10" d="M13.943,15.316"/>
		</g>
		<g>
			<path d="M16.053,18.221L16.053,18.221L16.053,18.221L16.053,18.221c0,0,0,0-0.002,0l0,0l0,0l0,0l0,0
				c-0.02,0-0.037-0.004-0.053-0.011l0,0l0,0c-0.018-0.007-0.031-0.016-0.045-0.029l0,0l0,0c-0.002-0.001-0.002-0.002-0.004-0.003
				l-1.467-1.466c-0.057-0.057-0.057-0.15,0-0.207c0.057-0.058,0.15-0.058,0.207,0l1.217,1.217v-3.429
				c0-0.081,0.066-0.146,0.146-0.146s0.146,0.065,0.146,0.146v3.429l1.217-1.217c0.057-0.058,0.15-0.058,0.207,0
				c0.057,0.057,0.057,0.149,0,0.207l-1.467,1.466c-0.014,0.014-0.029,0.024-0.047,0.031l0,0l0,0
				c-0.018,0.007-0.035,0.012-0.055,0.012l0,0C16.055,18.221,16.055,18.221,16.053,18.221L16.053,18.221L16.053,18.221
				L16.053,18.221z"/>
		</g>
	</g>
</g>
</svg>
