<?xml version="1.0" encoding="utf-8"?>
<!-- Generator: Adobe Illustrator 16.0.0, SVG Export Plug-In . SVG Version: 6.00 Build 0)  -->
<!DOCTYPE svg PUBLIC "-//W3C//DTD SVG 1.1//EN" "http://www.w3.org/Graphics/SVG/1.1/DTD/svg11.dtd">
<svg version="1.1" id="Layer_1" xmlns="http://www.w3.org/2000/svg" xmlns:xlink="http://www.w3.org/1999/xlink" x="0px" y="0px"
	 width="32px" height="32px" viewBox="0 0 32 32" enable-background="new 0 0 32 32" xml:space="preserve">
<g>
	<g>
		<g>
			<path d="M19.236,21.282h-7.643c-0.887,0-1.609-0.722-1.609-1.608v-9.327c0-0.887,0.723-1.608,1.609-1.608h7.643
				c0.887,0,1.609,0.721,1.609,1.608v9.327C20.846,20.56,20.123,21.282,19.236,21.282z M11.594,9.031
				c-0.727,0-1.316,0.59-1.316,1.315v9.327c0,0.725,0.59,1.316,1.316,1.316h7.643c0.727,0,1.316-0.591,1.316-1.316v-9.327
				c0-0.725-0.59-1.315-1.316-1.315H11.594z"/>
		</g>
		<g>
			<path d="M21.869,13.728c-0.08,0-0.146-0.065-0.146-0.146v-2.036c0-0.081,0.066-0.146,0.146-0.146s0.146,0.065,0.146,0.146v2.036
				C22.016,13.662,21.949,13.728,21.869,13.728z"/>
		</g>
		<g>
			<path d="M18.746,7.831c-0.082,0-0.146-0.066-0.146-0.146v-2.33c0-0.242-0.197-0.438-0.439-0.438h-5.49
				c-0.242,0-0.439,0.197-0.439,0.438v2.33c0,0.081-0.064,0.146-0.146,0.146c-0.08,0-0.146-0.066-0.146-0.146v-2.33
				c0-0.403,0.328-0.731,0.732-0.731h5.49c0.402,0,0.73,0.328,0.73,0.731v2.33C18.891,7.765,18.826,7.831,18.746,7.831z"/>
		</g>
		<g>
			<path d="M18.16,25.395h-5.49c-0.404,0-0.732-0.328-0.732-0.731v-2.331c0-0.081,0.066-0.146,0.146-0.146
				c0.082,0,0.146,0.065,0.146,0.146v2.331c0,0.242,0.197,0.438,0.439,0.438h5.49c0.242,0,0.439-0.197,0.439-0.438v-2.331
				c0-0.081,0.064-0.146,0.146-0.146c0.08,0,0.145,0.065,0.145,0.146v2.331C18.891,25.067,18.562,25.395,18.16,25.395z"/>
		</g>
	</g>
	<g>
		<g>
			<path d="M17.57,16.21h-0.697c-0.08,0-0.146-0.065-0.146-0.146c0-0.081,0.066-0.146,0.146-0.146h0.697
				c0.652,0,1.182-0.531,1.182-1.184s-0.529-1.184-1.182-1.184h-0.139c-0.059,0-0.111-0.036-0.135-0.091
				c-0.145-0.353-0.486-0.581-0.867-0.581c-0.166,0-0.332,0.045-0.477,0.131c-0.033,0.021-0.076,0.026-0.115,0.015
				c-0.037-0.011-0.07-0.038-0.088-0.074c-0.258-0.497-0.766-0.806-1.324-0.806c-0.775,0-1.41,0.583-1.48,1.355
				c-0.004,0.056-0.041,0.105-0.094,0.125c-0.463,0.172-0.775,0.618-0.775,1.11c0,0.653,0.533,1.184,1.188,1.184h0.695
				c0.08,0,0.146,0.065,0.146,0.146c0,0.081-0.066,0.146-0.146,0.146h-0.695c-0.816,0-1.479-0.663-1.479-1.477
				c0-0.583,0.35-1.115,0.881-1.35c0.121-0.879,0.863-1.532,1.76-1.532c0.621,0,1.188,0.317,1.512,0.838
				c0.154-0.069,0.322-0.104,0.492-0.104c0.467,0,0.887,0.261,1.096,0.672h0.045c0.812,0,1.475,0.662,1.475,1.477
				C19.045,15.548,18.383,16.21,17.57,16.21z"/>
		</g>
		<g>
			<path fill="none" stroke="#000000" stroke-linecap="round" stroke-linejoin="round" stroke-miterlimit="10" d="M16.873,16.064"/>
		</g>
		<g>
			<path fill="none" stroke="#000000" stroke-linecap="round" stroke-linejoin="round" stroke-miterlimit="10" d="M13.959,16.064"/>
		</g>
		<g>
			<path d="M15.451,18.167L15.451,18.167L15.451,18.167L15.451,18.167L15.451,18.167L15.451,18.167
				c-0.041,0-0.076-0.017-0.104-0.043l-1.039-1.04c-0.057-0.057-0.057-0.15,0-0.207c0.057-0.058,0.15-0.058,0.207,0l0.791,0.79
				v-2.329c0-0.081,0.064-0.146,0.145-0.146c0.082,0,0.146,0.065,0.146,0.146v2.328l0.789-0.79c0.059-0.058,0.15-0.057,0.207,0
				c0.059,0.057,0.059,0.149,0,0.207l-1.037,1.039c-0.027,0.026-0.062,0.043-0.104,0.043l0,0l0,0l0,0l0,0
				C15.453,18.167,15.453,18.167,15.451,18.167L15.451,18.167z"/>
		</g>
	</g>
</g>
</svg>
