<?xml version="1.0" encoding="utf-8"?>
<!-- Generator: Adobe Illustrator 16.0.0, SVG Export Plug-In . SVG Version: 6.00 Build 0)  -->
<!DOCTYPE svg PUBLIC "-//W3C//DTD SVG 1.1//EN" "http://www.w3.org/Graphics/SVG/1.1/DTD/svg11.dtd">
<svg version="1.1" id="Layer_1" xmlns="http://www.w3.org/2000/svg" xmlns:xlink="http://www.w3.org/1999/xlink" x="0px" y="0px"
	 width="32px" height="32px" viewBox="0 0 32 32" enable-background="new 0 0 32 32" xml:space="preserve">
<g>
	<g>
		<circle cx="16" cy="26.191" r="0.76"/>
	</g>
	<g>
		<path d="M21.01,28.362H10.99c-0.564,0-1.023-0.459-1.023-1.023V4.661c0-0.564,0.459-1.023,1.023-1.023h10.02
			c0.564,0,1.023,0.459,1.023,1.023v22.678C22.033,27.903,21.574,28.362,21.01,28.362z M10.99,3.93
			c-0.404,0-0.732,0.328-0.732,0.731v22.678c0,0.403,0.328,0.731,0.732,0.731h10.02c0.404,0,0.73-0.328,0.73-0.731V4.661
			c0-0.403-0.326-0.731-0.73-0.731H10.99z"/>
	</g>
	<g>
		<path d="M21.717,23.898H10.281c-0.08,0-0.145-0.066-0.145-0.146s0.064-0.146,0.145-0.146h11.436c0.08,0,0.146,0.065,0.146,0.146
			S21.797,23.898,21.717,23.898z"/>
	</g>
	<g>
		<g>
			<path d="M18.367,16.111h-0.762c-0.082,0-0.146-0.065-0.146-0.146c0-0.081,0.064-0.146,0.146-0.146h0.762
				c0.729,0,1.32-0.591,1.32-1.319s-0.592-1.319-1.32-1.319h-0.146c-0.061,0-0.113-0.036-0.135-0.09
				c-0.164-0.395-0.543-0.649-0.967-0.649c-0.189,0-0.371,0.049-0.537,0.148c-0.033,0.021-0.076,0.026-0.115,0.015
				c-0.037-0.011-0.07-0.038-0.088-0.074c-0.285-0.553-0.848-0.897-1.467-0.897c-0.861,0-1.568,0.647-1.645,1.505
				c-0.004,0.056-0.041,0.105-0.094,0.125c-0.516,0.191-0.863,0.688-0.863,1.236c0,0.728,0.592,1.319,1.318,1.319h0.768
				c0.08,0,0.146,0.066,0.146,0.146c0,0.081-0.066,0.146-0.146,0.146h-0.768c-0.889,0-1.611-0.723-1.611-1.611
				c0-0.64,0.387-1.222,0.969-1.477c0.129-0.965,0.941-1.682,1.926-1.682c0.68,0,1.301,0.352,1.654,0.927
				c0.174-0.08,0.359-0.12,0.553-0.12c0.51,0,0.969,0.288,1.195,0.74h0.053c0.891,0,1.613,0.723,1.613,1.611
				S19.258,16.111,18.367,16.111z"/>
		</g>
		<g>
			<path fill="none" stroke="#000000" stroke-linecap="round" stroke-linejoin="round" stroke-miterlimit="10" d="M17.605,15.965"/>
		</g>
		<g>
			<path fill="none" stroke="#000000" stroke-linecap="round" stroke-linejoin="round" stroke-miterlimit="10" d="M14.396,15.965"/>
		</g>
		<g>
			<path d="M16.039,18.264c-0.02,0-0.039-0.003-0.055-0.011l0,0l0,0c-0.018-0.007-0.035-0.018-0.049-0.032l-1.143-1.146
				c-0.059-0.058-0.059-0.15,0-0.207c0.057-0.057,0.148-0.057,0.205,0l0.895,0.896v-2.598c0-0.081,0.066-0.147,0.146-0.147
				c0.082,0,0.146,0.066,0.146,0.147v2.599l0.896-0.896c0.059-0.057,0.15-0.057,0.207,0c0.059,0.057,0.059,0.149,0,0.207
				l-1.146,1.145c0,0.001-0.002,0.002-0.004,0.004c-0.012,0.012-0.027,0.021-0.041,0.027C16.08,18.26,16.061,18.264,16.039,18.264z"
				/>
		</g>
	</g>
</g>
</svg>
