<?xml version="1.0" encoding="utf-8"?>
<!-- Generator: Adobe Illustrator 16.0.0, SVG Export Plug-In . SVG Version: 6.00 Build 0)  -->
<!DOCTYPE svg PUBLIC "-//W3C//DTD SVG 1.1//EN" "http://www.w3.org/Graphics/SVG/1.1/DTD/svg11.dtd">
<svg version="1.1" id="Layer_1" xmlns="http://www.w3.org/2000/svg" xmlns:xlink="http://www.w3.org/1999/xlink" x="0px" y="0px"
	 width="32px" height="32px" viewBox="0 0 32 32" enable-background="new 0 0 32 32" xml:space="preserve">
<g>
	<g>
		<path d="M24.188,28.85H7.814c-0.566,0-1.025-0.459-1.025-1.023V4.174c0-0.564,0.459-1.023,1.025-1.023h16.373
			c0.564,0,1.023,0.459,1.023,1.023v23.652C25.211,28.391,24.752,28.85,24.188,28.85z M7.814,3.443
			c-0.404,0-0.732,0.328-0.732,0.731v23.652c0,0.403,0.328,0.731,0.732,0.731h16.373c0.402,0,0.73-0.328,0.73-0.731V4.174
			c0-0.403-0.328-0.731-0.73-0.731H7.814z"/>
	</g>
	<g>
		<circle cx="16" cy="26.713" r="0.664"/>
	</g>
	<g>
		<path d="M24.928,24.441H7.074c-0.08,0-0.146-0.065-0.146-0.146s0.066-0.146,0.146-0.146h17.854c0.08,0,0.146,0.065,0.146,0.146
			S25.008,24.441,24.928,24.441z"/>
	</g>
	<g>
		<g>
			<path d="M19.844,16.183h-1.242c-0.08,0-0.145-0.065-0.145-0.146c0-0.081,0.064-0.146,0.145-0.146h1.242c1.23,0,2.23-1,2.23-2.231
				c0-1.229-1-2.23-2.23-2.23H19.6c-0.061,0-0.113-0.036-0.137-0.091c-0.271-0.673-0.92-1.107-1.65-1.107
				c-0.32,0-0.635,0.086-0.91,0.251c-0.035,0.021-0.076,0.026-0.115,0.015c-0.039-0.011-0.072-0.038-0.09-0.073
				c-0.479-0.928-1.422-1.504-2.461-1.504c-1.447,0-2.633,1.085-2.758,2.525c-0.006,0.057-0.043,0.105-0.096,0.125
				c-0.871,0.323-1.457,1.162-1.457,2.09c0,1.23,1,2.231,2.229,2.231h1.244c0.082,0,0.146,0.065,0.146,0.146
				c0,0.081-0.064,0.146-0.146,0.146h-1.244c-1.391,0-2.521-1.132-2.521-2.523c0-1.019,0.625-1.944,1.562-2.331
				c0.182-1.546,1.473-2.701,3.041-2.701c1.1,0,2.1,0.583,2.648,1.531c0.287-0.145,0.605-0.221,0.928-0.221
				c0.816,0,1.545,0.467,1.883,1.2h0.148c1.391,0,2.523,1.131,2.523,2.522C22.367,15.051,21.234,16.183,19.844,16.183z"/>
		</g>
		<g>
			<path fill="none" stroke="#000000" stroke-linecap="round" stroke-linejoin="round" stroke-miterlimit="10" d="M18.602,16.037"/>
		</g>
		<g>
			<path fill="none" stroke="#000000" stroke-linecap="round" stroke-linejoin="round" stroke-miterlimit="10" d="M13.398,16.037"/>
		</g>
		<g>
			<path d="M16.066,19.675c-0.02,0-0.039-0.004-0.057-0.011c-0.016-0.007-0.031-0.018-0.045-0.031l-1.859-1.855
				c-0.057-0.058-0.057-0.15,0-0.207s0.15-0.057,0.207,0l1.607,1.605v-4.435c0-0.081,0.066-0.146,0.146-0.146
				c0.082,0,0.146,0.065,0.146,0.146v4.435l1.607-1.605c0.059-0.057,0.15-0.057,0.207,0c0.059,0.057,0.059,0.149,0,0.207
				l-1.857,1.855c-0.014,0.014-0.029,0.024-0.047,0.031C16.105,19.671,16.086,19.675,16.066,19.675z"/>
		</g>
	</g>
</g>
</svg>
