<?xml version="1.0" encoding="utf-8"?>
<!-- Generator: Adobe Illustrator 16.0.0, SVG Export Plug-In . SVG Version: 6.00 Build 0)  -->
<!DOCTYPE svg PUBLIC "-//W3C//DTD SVG 1.1//EN" "http://www.w3.org/Graphics/SVG/1.1/DTD/svg11.dtd">
<svg version="1.1" id="Layer_1" xmlns="http://www.w3.org/2000/svg" xmlns:xlink="http://www.w3.org/1999/xlink" x="0px" y="0px"
	 width="32px" height="32px" viewBox="0 0 32 32" enable-background="new 0 0 32 32" xml:space="preserve">
<g>
	<g>
		<g>
			<path d="M26.104,22.128H5.893c-0.564,0-1.023-0.459-1.023-1.023V7.404c0-0.564,0.459-1.023,1.023-1.023h20.211
				c0.564,0,1.023,0.459,1.023,1.023v13.701C27.127,21.669,26.668,22.128,26.104,22.128z M5.893,6.673
				c-0.402,0-0.73,0.328-0.73,0.731v13.701c0,0.403,0.328,0.731,0.73,0.731h20.211c0.404,0,0.732-0.328,0.732-0.731V7.404
				c0-0.403-0.328-0.731-0.732-0.731H5.893z"/>
		</g>
		<g>
			<path d="M28.953,25.62c-0.002,0-0.004,0-0.006,0h-25.9c-0.057,0-0.107-0.033-0.133-0.085c-0.023-0.052-0.016-0.112,0.021-0.156
				l1.922-2.277c0.027-0.033,0.068-0.052,0.111-0.052h22.057c0.043,0,0.084,0.019,0.111,0.052l1.902,2.252
				c0.037,0.026,0.061,0.07,0.061,0.119C29.1,25.554,29.033,25.62,28.953,25.62z M3.361,25.327h25.271l-1.676-1.984H5.037
				L3.361,25.327z"/>
		</g>
		<g>
			<path d="M26.98,20.416H5.016c-0.08,0-0.146-0.065-0.146-0.146s0.066-0.146,0.146-0.146H26.98c0.082,0,0.146,0.065,0.146,0.146
				S27.062,20.416,26.98,20.416z"/>
		</g>
	</g>
	<g>
		<g>
			<path d="M18.826,15.359H17.91c-0.08,0-0.146-0.065-0.146-0.146c0-0.081,0.066-0.146,0.146-0.146h0.916
				c0.881,0,1.6-0.718,1.6-1.601c0-0.884-0.719-1.602-1.6-1.602h-0.184c-0.059,0-0.113-0.036-0.135-0.091
				c-0.197-0.481-0.66-0.792-1.178-0.792c-0.229,0-0.455,0.062-0.65,0.181c-0.035,0.021-0.076,0.026-0.115,0.016
				c-0.039-0.011-0.072-0.038-0.09-0.074c-0.344-0.668-1.023-1.083-1.773-1.083c-1.027,0-1.902,0.8-1.988,1.821
				c-0.006,0.056-0.043,0.105-0.096,0.125c-0.627,0.231-1.049,0.834-1.049,1.5c0,0.883,0.719,1.601,1.6,1.601h0.914
				c0.08,0,0.146,0.065,0.146,0.146c0,0.081-0.066,0.146-0.146,0.146h-0.914c-1.043,0-1.893-0.85-1.893-1.894
				c0-0.758,0.461-1.446,1.154-1.741c0.143-1.127,1.123-1.997,2.271-1.997c0.811,0,1.549,0.422,1.961,1.112
				c0.207-0.099,0.436-0.151,0.668-0.151c0.604,0,1.146,0.343,1.408,0.882h0.088c1.043,0,1.893,0.85,1.893,1.895
				C20.719,14.509,19.869,15.359,18.826,15.359z"/>
		</g>
		<g>
			<path fill="none" stroke="#000000" stroke-linecap="round" stroke-linejoin="round" stroke-miterlimit="10" d="M17.91,15.212"/>
		</g>
		<g>
			<path fill="none" stroke="#000000" stroke-linecap="round" stroke-linejoin="round" stroke-miterlimit="10" d="M14.082,15.212"/>
		</g>
		<g>
			<path d="M16.047,17.927c-0.021,0-0.041-0.004-0.057-0.011c-0.016-0.006-0.031-0.016-0.043-0.028v0c0,0,0,0-0.002,0
				c0-0.001-0.002-0.002-0.004-0.003l-1.363-1.364c-0.057-0.058-0.057-0.15,0-0.207c0.059-0.057,0.15-0.057,0.207,0l1.115,1.115
				V14.26c0-0.081,0.064-0.146,0.146-0.146c0.08,0,0.145,0.065,0.145,0.146v3.168l1.119-1.116c0.057-0.057,0.148-0.058,0.207,0
				c0.057,0.057,0.057,0.149,0,0.207l-1.369,1.365c-0.014,0.014-0.029,0.024-0.047,0.032C16.084,17.923,16.066,17.927,16.047,17.927
				z"/>
		</g>
	</g>
</g>
</svg>
