<?xml version="1.0" encoding="utf-8"?>
<!-- Generator: Adobe Illustrator 16.0.0, SVG Export Plug-In . SVG Version: 6.00 Build 0)  -->
<!DOCTYPE svg PUBLIC "-//W3C//DTD SVG 1.1//EN" "http://www.w3.org/Graphics/SVG/1.1/DTD/svg11.dtd">
<svg version="1.1" id="Layer_1" xmlns="http://www.w3.org/2000/svg" xmlns:xlink="http://www.w3.org/1999/xlink" x="0px" y="0px"
	 width="32px" height="32px" viewBox="0 0 32 32" enable-background="new 0 0 32 32" xml:space="preserve">
<g>
	<g>
		<g>
			<g>
				<g>
					<path d="M27.208,23.108H4.731c-0.705,0-1.278-0.572-1.278-1.276V6.666c0-0.705,0.573-1.279,1.278-1.279h22.476
						c0.705,0,1.279,0.574,1.279,1.279v15.166C28.486,22.536,27.913,23.108,27.208,23.108z M4.731,5.753
						c-0.504,0-0.914,0.408-0.914,0.913v15.166c0,0.502,0.41,0.912,0.914,0.912h22.476c0.504,0,0.914-0.41,0.914-0.912V6.666
						c0-0.505-0.41-0.913-0.914-0.913H4.731z"/>
				</g>
			</g>
			<g>
				<g>
					<path d="M30.522,27.031c-0.002,0-0.005,0-0.007,0H1.424c-0.071,0-0.136-0.043-0.167-0.105
						c-0.029-0.066-0.019-0.142,0.027-0.196l2.159-2.557c0.035-0.041,0.086-0.064,0.14-0.064h24.773c0.054,0,0.105,0.023,0.14,0.064
						l2.132,2.526c0.046,0.033,0.077,0.086,0.077,0.148C30.706,26.948,30.623,27.031,30.522,27.031z M1.817,26.665h28.305
						l-1.851-2.19H3.667L1.817,26.665z"/>
				</g>
			</g>
			<g>
				<g>
					<path d="M28.303,21.186H3.635c-0.101,0-0.182-0.081-0.182-0.183c0-0.101,0.081-0.182,0.182-0.182h24.668
						c0.101,0,0.183,0.081,0.183,0.182C28.486,21.104,28.404,21.186,28.303,21.186z"/>
				</g>
			</g>
		</g>
		<g>
			<g>
				<path d="M10.672,16.421c-0.658,0-1.193-0.535-1.193-1.194c0-0.656,0.535-1.194,1.193-1.194c0.659,0,1.194,0.538,1.194,1.194
					C11.866,15.886,11.331,16.421,10.672,16.421z M10.672,14.398c-0.456,0-0.828,0.372-0.828,0.828c0,0.457,0.372,0.828,0.828,0.828
					c0.457,0,0.829-0.371,0.829-0.828C11.501,14.771,11.129,14.398,10.672,14.398z"/>
			</g>
			<g>
				<circle cx="17.613" cy="15.227" r="1.011"/>
				<path d="M17.613,16.421c-0.658,0-1.194-0.535-1.194-1.194c0-0.656,0.536-1.194,1.194-1.194s1.193,0.538,1.193,1.194
					C18.807,15.886,18.271,16.421,17.613,16.421z M17.613,14.398c-0.457,0-0.829,0.372-0.829,0.828c0,0.457,0.372,0.828,0.829,0.828
					c0.457,0,0.828-0.371,0.828-0.828C18.441,14.771,18.07,14.398,17.613,14.398z"/>
			</g>
			<g>
				<circle cx="14.326" cy="11.573" r="1.011"/>
				<path d="M14.326,12.769c-0.659,0-1.193-0.537-1.193-1.195s0.535-1.193,1.193-1.193c0.658,0,1.194,0.535,1.194,1.193
					S14.984,12.769,14.326,12.769z M14.326,10.745c-0.457,0-0.829,0.372-0.829,0.828c0,0.458,0.373,0.829,0.829,0.829
					s0.828-0.371,0.828-0.829C15.154,11.117,14.782,10.745,14.326,10.745z"/>
			</g>
			<g>
				<path d="M21.267,12.769c-0.659,0-1.195-0.537-1.195-1.195s0.536-1.193,1.195-1.193c0.658,0,1.194,0.535,1.194,1.193
					S21.924,12.769,21.267,12.769z M21.267,10.745c-0.457,0-0.83,0.372-0.83,0.828c0,0.458,0.373,0.829,0.83,0.829
					c0.457,0,0.828-0.371,0.828-0.829C22.094,11.117,21.723,10.745,21.267,10.745z"/>
			</g>
			<g>
				<path d="M11.437,14.754c-0.046,0-0.094-0.018-0.129-0.053c-0.071-0.073-0.071-0.188,0-0.26l2.143-2.143
					c0.072-0.071,0.188-0.071,0.259,0c0.072,0.072,0.072,0.186,0,0.259l-2.144,2.144C11.53,14.736,11.483,14.754,11.437,14.754z"/>
			</g>
			<g>
				<path d="M18.377,14.754c-0.046,0-0.093-0.018-0.13-0.053c-0.071-0.073-0.071-0.188,0-0.26l2.144-2.143
					c0.071-0.071,0.188-0.071,0.259,0c0.071,0.072,0.071,0.186,0,0.259l-2.144,2.144C18.471,14.736,18.425,14.754,18.377,14.754z"/>
			</g>
			<g>
				<path d="M16.92,14.441c-0.046,0-0.093-0.02-0.129-0.053l-1.876-1.877c-0.071-0.071-0.071-0.187,0-0.26
					c0.072-0.069,0.188-0.069,0.259,0l1.875,1.877c0.072,0.072,0.072,0.187,0,0.26C17.013,14.422,16.967,14.441,16.92,14.441z"/>
			</g>
		</g>
	</g>
</g>
</svg>
