<?xml version="1.0" encoding="utf-8"?>
<!-- Generator: Adobe Illustrator 16.0.0, SVG Export Plug-In . SVG Version: 6.00 Build 0)  -->
<!DOCTYPE svg PUBLIC "-//W3C//DTD SVG 1.1//EN" "http://www.w3.org/Graphics/SVG/1.1/DTD/svg11.dtd">
<svg version="1.1" id="Layer_1" xmlns="http://www.w3.org/2000/svg" xmlns:xlink="http://www.w3.org/1999/xlink" x="0px" y="0px"
	 width="32px" height="32px" viewBox="0 0 32 32" enable-background="new 0 0 32 32" xml:space="preserve">
<g>
	<g>
		<g>
			<g>
				<circle cx="15.937" cy="27.509" r="0.745"/>
			</g>
		</g>
		<g>
			<g>
				<path d="M21.452,30.111H10.421c-0.705,0-1.278-0.574-1.278-1.279V3.586c0-0.706,0.574-1.278,1.278-1.278h11.031
					c0.706,0,1.279,0.572,1.279,1.278v25.246C22.731,29.537,22.158,30.111,21.452,30.111z M10.421,2.673
					c-0.504,0-0.913,0.408-0.913,0.913v25.246c0,0.505,0.409,0.913,0.913,0.913h11.031c0.504,0,0.914-0.408,0.914-0.913V3.586
					c0-0.505-0.41-0.913-0.914-0.913H10.421z"/>
			</g>
		</g>
		<g>
			<g>
				<path d="M22.358,25.098H9.516c-0.101,0-0.183-0.081-0.183-0.183c0-0.103,0.082-0.182,0.183-0.182h12.843
					c0.101,0,0.183,0.079,0.183,0.182C22.542,25.017,22.459,25.098,22.358,25.098z"/>
			</g>
		</g>
		<g>
			<g>
				<path d="M12.868,15.593c-0.423,0-0.768-0.345-0.768-0.769s0.345-0.769,0.768-0.769c0.424,0,0.77,0.345,0.77,0.769
					S13.292,15.593,12.868,15.593z M12.868,14.42c-0.222,0-0.403,0.182-0.403,0.404s0.181,0.402,0.403,0.402
					c0.223,0,0.404-0.18,0.404-0.402S13.091,14.42,12.868,14.42z"/>
			</g>
		</g>
		<g>
			<g>
				<circle cx="16.889" cy="14.824" r="0.586"/>
			</g>
			<g>
				<path d="M16.889,15.593c-0.423,0-0.769-0.345-0.769-0.769s0.345-0.769,0.769-0.769c0.424,0,0.769,0.345,0.769,0.769
					S17.313,15.593,16.889,15.593z M16.889,14.42c-0.222,0-0.403,0.182-0.403,0.404s0.181,0.402,0.403,0.402
					c0.223,0,0.403-0.18,0.403-0.402S17.112,14.42,16.889,14.42z"/>
			</g>
		</g>
		<g>
			<g>
				<circle cx="14.985" cy="12.707" r="0.586"/>
			</g>
			<g>
				<path d="M14.985,13.477c-0.424,0-0.769-0.345-0.769-0.77c0-0.424,0.345-0.769,0.769-0.769c0.424,0,0.768,0.345,0.768,0.769
					C15.753,13.132,15.409,13.477,14.985,13.477z M14.985,12.304c-0.223,0-0.404,0.181-0.404,0.403c0,0.222,0.181,0.403,0.404,0.403
					c0.222,0,0.403-0.182,0.403-0.403C15.388,12.484,15.207,12.304,14.985,12.304z"/>
			</g>
		</g>
		<g>
			<g>
				<path d="M19.006,13.477c-0.423,0-0.769-0.345-0.769-0.77c0-0.424,0.346-0.769,0.769-0.769c0.424,0,0.769,0.345,0.769,0.769
					C19.775,13.132,19.43,13.477,19.006,13.477z M19.006,12.304c-0.222,0-0.403,0.181-0.403,0.403c0,0.222,0.181,0.403,0.403,0.403
					s0.403-0.182,0.403-0.403C19.409,12.484,19.228,12.304,19.006,12.304z"/>
			</g>
		</g>
		<g>
			<g>
				<path d="M13.311,14.627c-0.047,0-0.094-0.018-0.129-0.055c-0.072-0.07-0.072-0.186,0-0.257l1.242-1.243
					c0.071-0.071,0.187-0.071,0.257,0c0.071,0.073,0.071,0.188,0,0.258l-1.241,1.242C13.404,14.609,13.358,14.627,13.311,14.627z"/>
			</g>
		</g>
		<g>
			<g>
				<path d="M17.332,14.627c-0.047,0-0.093-0.018-0.128-0.055c-0.072-0.07-0.072-0.186,0-0.257l1.241-1.243
					c0.071-0.071,0.187-0.071,0.259,0c0.07,0.073,0.07,0.188,0,0.258l-1.242,1.242C17.426,14.609,17.378,14.627,17.332,14.627z"/>
			</g>
		</g>
		<g>
			<g>
				<path d="M16.488,14.444c-0.047,0-0.094-0.016-0.129-0.054l-1.087-1.086c-0.071-0.07-0.071-0.186,0-0.258
					c0.072-0.073,0.187-0.073,0.259,0l1.086,1.087c0.071,0.071,0.071,0.187,0,0.257C16.582,14.429,16.535,14.444,16.488,14.444z"/>
			</g>
		</g>
	</g>
</g>
</svg>
