<?xml version="1.0" encoding="utf-8"?>
<!-- Generator: Adobe Illustrator 16.0.0, SVG Export Plug-In . SVG Version: 6.00 Build 0)  -->
<!DOCTYPE svg PUBLIC "-//W3C//DTD SVG 1.1//EN" "http://www.w3.org/Graphics/SVG/1.1/DTD/svg11.dtd">
<svg version="1.1" id="Layer_1" xmlns="http://www.w3.org/2000/svg" xmlns:xlink="http://www.w3.org/1999/xlink" x="0px" y="0px"
	 width="32px" height="32px" viewBox="0 0 32 32" enable-background="new 0 0 32 32" xml:space="preserve">
<g>
	<g>
		<g>
			<g>
				<g>
					<path d="M19.496,23.271h-8.214c-1.107,0-2.009-0.903-2.009-2.009V11.157c0-1.108,0.901-2.01,2.009-2.01h8.214
						c1.107,0,2.009,0.901,2.009,2.01v10.105C21.504,22.368,20.603,23.271,19.496,23.271z M11.281,9.512
						c-0.907,0-1.644,0.737-1.644,1.646v10.105c0,0.905,0.737,1.643,1.644,1.643h8.214c0.906,0,1.644-0.737,1.644-1.643V11.157
						c0-0.908-0.738-1.646-1.644-1.646H11.281z"/>
				</g>
			</g>
			<g>
				<g>
					<path d="M22.637,14.788c-0.101,0-0.183-0.083-0.183-0.184V12.32c0-0.102,0.082-0.184,0.183-0.184s0.183,0.082,0.183,0.184
						v2.284C22.819,14.705,22.738,14.788,22.637,14.788z"/>
				</g>
			</g>
			<g>
				<g>
					<path d="M19.128,8.165c-0.101,0-0.182-0.082-0.182-0.182V5.44c0-0.303-0.247-0.548-0.549-0.548h-6.018
						c-0.302,0-0.548,0.245-0.548,0.548v2.543c0,0.1-0.082,0.182-0.183,0.182c-0.101,0-0.183-0.082-0.183-0.182V5.44
						c0-0.505,0.409-0.915,0.913-0.915h6.018c0.504,0,0.914,0.41,0.914,0.915v2.543C19.312,8.083,19.229,8.165,19.128,8.165z"/>
				</g>
			</g>
			<g>
				<g>
					<path d="M18.397,27.891h-6.018c-0.504,0-0.913-0.408-0.913-0.912v-2.546c0-0.099,0.082-0.181,0.183-0.181
						c0.101,0,0.183,0.082,0.183,0.181v2.546c0,0.301,0.246,0.546,0.548,0.546h6.018c0.302,0,0.549-0.245,0.549-0.546v-2.546
						c0-0.099,0.082-0.181,0.182-0.181s0.183,0.082,0.183,0.181v2.546C19.312,27.482,18.901,27.891,18.397,27.891z"/>
				</g>
			</g>
		</g>
		<g>
			<g>
				<circle cx="12.32" cy="17.267" r="0.585"/>
				<path d="M12.319,18.036c-0.424,0-0.768-0.346-0.768-0.77c0-0.423,0.344-0.769,0.768-0.769c0.424,0,0.769,0.346,0.769,0.769
					C13.088,17.69,12.744,18.036,12.319,18.036z M12.319,16.864c-0.222,0-0.403,0.18-0.403,0.402c0,0.224,0.181,0.403,0.403,0.403
					c0.223,0,0.403-0.18,0.403-0.403C12.723,17.044,12.542,16.864,12.319,16.864z"/>
			</g>
			<g>
				<circle cx="16.34" cy="17.267" r="0.586"/>
				<path d="M16.341,18.036c-0.423,0-0.769-0.346-0.769-0.77c0-0.423,0.345-0.769,0.769-0.769s0.769,0.346,0.769,0.769
					C17.109,17.69,16.764,18.036,16.341,18.036z M16.341,16.864c-0.222,0-0.403,0.18-0.403,0.402c0,0.224,0.181,0.403,0.403,0.403
					c0.223,0,0.404-0.18,0.404-0.403C16.745,17.044,16.563,16.864,16.341,16.864z"/>
			</g>
			<g>
				<circle cx="14.436" cy="15.149" r="0.586"/>
				<path d="M14.436,15.919c-0.423,0-0.768-0.345-0.768-0.77c0-0.423,0.345-0.768,0.768-0.768c0.424,0,0.769,0.345,0.769,0.768
					C15.205,15.574,14.859,15.919,14.436,15.919z M14.436,14.748c-0.221,0-0.402,0.18-0.402,0.401c0,0.224,0.181,0.405,0.402,0.405
					c0.223,0,0.404-0.182,0.404-0.405C14.839,14.928,14.659,14.748,14.436,14.748z"/>
			</g>
			<g>
				<circle cx="18.458" cy="15.149" r="0.586"/>
				<path d="M18.458,15.919c-0.424,0-0.769-0.345-0.769-0.77c0-0.423,0.345-0.768,0.769-0.768s0.769,0.345,0.769,0.768
					C19.226,15.574,18.881,15.919,18.458,15.919z M18.458,14.748c-0.222,0-0.403,0.18-0.403,0.401c0,0.224,0.181,0.405,0.403,0.405
					c0.222,0,0.403-0.182,0.403-0.405C18.861,14.928,18.679,14.748,18.458,14.748z"/>
			</g>
			<g>
				<path d="M12.763,17.07c-0.047,0-0.094-0.019-0.13-0.054c-0.071-0.072-0.071-0.187,0-0.259l1.242-1.243
					c0.072-0.07,0.188-0.07,0.259,0c0.071,0.072,0.071,0.188,0,0.26l-1.242,1.242C12.856,17.052,12.81,17.07,12.763,17.07z"/>
			</g>
			<g>
				<path d="M16.784,17.07c-0.047,0-0.094-0.019-0.129-0.054c-0.071-0.072-0.071-0.187,0-0.259l1.242-1.243
					c0.071-0.07,0.187-0.07,0.258,0c0.071,0.072,0.071,0.188,0,0.26l-1.241,1.242C16.877,17.052,16.831,17.07,16.784,17.07z"/>
			</g>
			<g>
				<path d="M15.939,16.889c-0.047,0-0.093-0.018-0.129-0.054l-1.087-1.087c-0.072-0.071-0.072-0.188,0-0.26
					c0.071-0.068,0.187-0.068,0.258,0l1.087,1.088c0.071,0.071,0.071,0.187,0,0.259C16.033,16.871,15.986,16.889,15.939,16.889z"/>
			</g>
		</g>
	</g>
</g>
</svg>
