<?xml version="1.0" encoding="utf-8"?>
<!-- Generator: Adobe Illustrator 16.0.0, SVG Export Plug-In . SVG Version: 6.00 Build 0)  -->
<!DOCTYPE svg PUBLIC "-//W3C//DTD SVG 1.1//EN" "http://www.w3.org/Graphics/SVG/1.1/DTD/svg11.dtd">
<svg version="1.1" id="Layer_1" xmlns="http://www.w3.org/2000/svg" xmlns:xlink="http://www.w3.org/1999/xlink" x="0px" y="0px"
	 width="32px" height="32px" viewBox="0 0 32 32" enable-background="new 0 0 32 32" xml:space="preserve">
<g>
	<g>
		<g>
			<g>
				<g>
					<path d="M27.248,23.34H4.771c-0.706,0-1.278-0.576-1.278-1.281V6.893c0-0.704,0.573-1.276,1.278-1.276h22.476
						c0.706,0,1.279,0.572,1.279,1.276v15.166C28.526,22.764,27.953,23.34,27.248,23.34z M4.771,5.979
						c-0.504,0-0.914,0.41-0.914,0.913v15.166c0,0.505,0.41,0.915,0.914,0.915h22.476c0.504,0,0.914-0.41,0.914-0.915V6.893
						c0-0.503-0.409-0.913-0.914-0.913H4.771z"/>
				</g>
			</g>
			<g>
				<g>
					<path d="M28.344,21.415H3.676c-0.102,0-0.183-0.083-0.183-0.184c0-0.1,0.081-0.184,0.183-0.184h24.668
						c0.102,0,0.183,0.084,0.183,0.184C28.526,21.332,28.445,21.415,28.344,21.415z"/>
				</g>
			</g>
			<g>
				<g>
					<g>
						<path d="M11.101,26.573c-0.039,0-0.078-0.013-0.111-0.037c-0.081-0.063-0.094-0.177-0.033-0.256l2.511-3.245
							c0.062-0.078,0.176-0.092,0.257-0.03c0.079,0.061,0.094,0.176,0.032,0.257l-2.511,3.24
							C11.21,26.55,11.156,26.573,11.101,26.573z"/>
					</g>
				</g>
				<g>
					<g>
						<path d="M20.918,26.573c-0.055,0-0.109-0.023-0.146-0.071l-2.511-3.24c-0.062-0.081-0.047-0.196,0.033-0.257
							c0.08-0.062,0.195-0.048,0.256,0.03l2.511,3.245c0.062,0.079,0.048,0.192-0.033,0.256
							C20.997,26.561,20.958,26.573,20.918,26.573z"/>
					</g>
				</g>
			</g>
			<g>
				<g>
					<path d="M22.859,26.804H9.16c-0.1,0-0.183-0.082-0.183-0.184s0.083-0.182,0.183-0.182h13.699c0.101,0,0.184,0.08,0.184,0.182
						S22.959,26.804,22.859,26.804z"/>
				</g>
			</g>
		</g>
		<g>
			<g>
				<path d="M10.712,16.786c-0.658,0-1.193-0.536-1.193-1.193c0-0.659,0.536-1.194,1.193-1.194c0.659,0,1.194,0.535,1.194,1.194
					C11.906,16.25,11.371,16.786,10.712,16.786z M10.712,14.765c-0.457,0-0.829,0.372-0.829,0.828c0,0.457,0.372,0.828,0.829,0.828
					c0.458,0,0.829-0.371,0.829-0.828C11.542,15.137,11.17,14.765,10.712,14.765z"/>
			</g>
			<g>
				<circle cx="17.653" cy="15.593" r="1.011"/>
				<path d="M17.653,16.786c-0.658,0-1.193-0.536-1.193-1.193c0-0.659,0.535-1.194,1.193-1.194c0.659,0,1.194,0.535,1.194,1.194
					C18.847,16.25,18.312,16.786,17.653,16.786z M17.653,14.765c-0.457,0-0.828,0.372-0.828,0.828c0,0.457,0.371,0.828,0.828,0.828
					c0.458,0,0.829-0.371,0.829-0.828C18.481,15.137,18.11,14.765,17.653,14.765z"/>
			</g>
			<g>
				<circle cx="14.366" cy="11.938" r="1.011"/>
				<path d="M14.366,13.132c-0.659,0-1.194-0.534-1.194-1.193c0-0.658,0.535-1.193,1.194-1.193c0.658,0,1.193,0.535,1.193,1.193
					C15.559,12.598,15.024,13.132,14.366,13.132z M14.366,11.11c-0.458,0-0.829,0.371-0.829,0.828s0.372,0.83,0.829,0.83
					c0.457,0,0.828-0.373,0.828-0.83S14.823,11.11,14.366,11.11z"/>
			</g>
			<g>
				<path d="M21.307,13.132c-0.659,0-1.194-0.534-1.194-1.193c0-0.658,0.535-1.193,1.194-1.193c0.657,0,1.194,0.535,1.194,1.193
					C22.5,12.598,21.964,13.132,21.307,13.132z M21.307,11.11c-0.458,0-0.829,0.371-0.829,0.828s0.372,0.83,0.829,0.83
					c0.457,0,0.828-0.373,0.828-0.83S21.764,11.11,21.307,11.11z"/>
			</g>
			<g>
				<path d="M11.477,15.119c-0.046,0-0.093-0.019-0.129-0.053c-0.071-0.072-0.071-0.187,0-0.26l2.143-2.142
					c0.072-0.073,0.188-0.073,0.259,0c0.072,0.07,0.072,0.186,0,0.257l-2.143,2.145C11.571,15.101,11.524,15.119,11.477,15.119z"/>
			</g>
			<g>
				<path d="M18.417,15.119c-0.046,0-0.093-0.019-0.128-0.053c-0.071-0.072-0.071-0.187,0-0.26l2.143-2.142
					c0.071-0.073,0.187-0.073,0.258,0c0.071,0.07,0.071,0.186,0,0.257l-2.144,2.145C18.511,15.101,18.464,15.119,18.417,15.119z"/>
			</g>
			<g>
				<path d="M16.96,14.805c-0.047,0-0.093-0.017-0.129-0.052l-1.876-1.876c-0.07-0.07-0.07-0.188,0-0.259
					c0.072-0.071,0.188-0.071,0.259,0l1.876,1.876c0.071,0.071,0.071,0.188,0,0.259C17.054,14.788,17.007,14.805,16.96,14.805z"/>
			</g>
		</g>
	</g>
</g>
</svg>
