<?xml version="1.0" encoding="utf-8"?>
<!-- Generator: Adobe Illustrator 16.0.0, SVG Export Plug-In . SVG Version: 6.00 Build 0)  -->
<!DOCTYPE svg PUBLIC "-//W3C//DTD SVG 1.1//EN" "http://www.w3.org/Graphics/SVG/1.1/DTD/svg11.dtd">
<svg version="1.1" id="Layer_1" xmlns="http://www.w3.org/2000/svg" xmlns:xlink="http://www.w3.org/1999/xlink" x="0px" y="0px"
	 width="32px" height="32px" viewBox="0 0 32 32" enable-background="new 0 0 32 32" xml:space="preserve">
<g>
	<g>
		<g>
			<g>
				<path d="M24.984,30.658H6.817c-0.705,0-1.279-0.573-1.279-1.279V3.038c0-0.705,0.574-1.278,1.279-1.278h18.167
					c0.705,0,1.279,0.573,1.279,1.278v26.341C26.263,30.085,25.689,30.658,24.984,30.658z M6.817,2.124
					c-0.504,0-0.914,0.41-0.914,0.914v26.341c0,0.504,0.409,0.914,0.914,0.914h18.167c0.503,0,0.914-0.41,0.914-0.914V3.038
					c0-0.504-0.41-0.914-0.914-0.914H6.817z"/>
			</g>
		</g>
		<g>
			<g>
				<circle cx="15.901" cy="28.24" r="0.746"/>
			</g>
		</g>
		<g>
			<g>
				<path d="M25.925,25.707H5.876c-0.101,0-0.183-0.082-0.183-0.183s0.082-0.183,0.183-0.183h20.049
					c0.101,0,0.182,0.082,0.182,0.183S26.026,25.707,25.925,25.707z"/>
			</g>
		</g>
		<g>
			<g>
				<path d="M10.603,16.786c-0.657,0-1.193-0.536-1.193-1.193c0-0.659,0.536-1.194,1.193-1.194c0.659,0,1.195,0.535,1.195,1.194
					C11.798,16.25,11.262,16.786,10.603,16.786z M10.603,14.765c-0.456,0-0.828,0.372-0.828,0.828c0,0.457,0.372,0.828,0.828,0.828
					c0.458,0,0.83-0.371,0.83-0.828C11.433,15.137,11.061,14.765,10.603,14.765z"/>
			</g>
		</g>
		<g>
			<g>
				<circle cx="17.545" cy="15.593" r="1.011"/>
			</g>
			<g>
				<path d="M17.545,16.786c-0.658,0-1.194-0.536-1.194-1.193c0-0.659,0.536-1.194,1.194-1.194c0.659,0,1.194,0.535,1.194,1.194
					C18.739,16.25,18.204,16.786,17.545,16.786z M17.545,14.765c-0.458,0-0.829,0.372-0.829,0.828c0,0.457,0.371,0.828,0.829,0.828
					c0.457,0,0.828-0.371,0.828-0.828C18.373,15.137,18.001,14.765,17.545,14.765z"/>
			</g>
		</g>
		<g>
			<g>
				<circle cx="14.257" cy="11.938" r="1.011"/>
			</g>
			<g>
				<path d="M14.257,13.132c-0.659,0-1.194-0.534-1.194-1.193c0-0.658,0.536-1.193,1.194-1.193c0.658,0,1.194,0.535,1.194,1.193
					C15.451,12.598,14.916,13.132,14.257,13.132z M14.257,11.11c-0.457,0-0.829,0.371-0.829,0.828s0.372,0.83,0.829,0.83
					c0.456,0,0.828-0.373,0.828-0.83S14.713,11.11,14.257,11.11z"/>
			</g>
		</g>
		<g>
			<g>
				<path d="M21.198,13.132c-0.658,0-1.194-0.534-1.194-1.193c0-0.658,0.536-1.193,1.194-1.193s1.193,0.535,1.193,1.193
					C22.391,12.598,21.856,13.132,21.198,13.132z M21.198,11.11c-0.458,0-0.829,0.371-0.829,0.828s0.371,0.83,0.829,0.83
					c0.457,0,0.828-0.373,0.828-0.83S21.655,11.11,21.198,11.11z"/>
			</g>
		</g>
		<g>
			<g>
				<path d="M11.368,15.119c-0.046,0-0.093-0.019-0.129-0.053c-0.071-0.072-0.071-0.187,0-0.26l2.143-2.142
					c0.072-0.073,0.188-0.073,0.258,0c0.072,0.07,0.072,0.186,0,0.257l-2.143,2.145C11.461,15.101,11.415,15.119,11.368,15.119z"/>
			</g>
		</g>
		<g>
			<g>
				<path d="M18.308,15.119c-0.046,0-0.093-0.019-0.129-0.053c-0.071-0.072-0.071-0.187,0-0.26l2.144-2.142
					c0.071-0.073,0.186-0.073,0.258,0c0.071,0.07,0.071,0.186,0,0.257l-2.144,2.145C18.402,15.101,18.355,15.119,18.308,15.119z"/>
			</g>
		</g>
		<g>
			<g>
				<path d="M16.851,14.805c-0.047,0-0.094-0.017-0.129-0.052l-1.876-1.876c-0.071-0.07-0.071-0.188,0-0.259s0.188-0.071,0.258,0
					l1.876,1.876c0.072,0.071,0.072,0.188,0,0.259C16.944,14.788,16.898,14.805,16.851,14.805z"/>
			</g>
		</g>
	</g>
</g>
</svg>
