<?xml version="1.0" encoding="utf-8"?>
<!-- Generator: Adobe Illustrator 16.0.0, SVG Export Plug-In . SVG Version: 6.00 Build 0)  -->
<!DOCTYPE svg PUBLIC "-//W3C//DTD SVG 1.1//EN" "http://www.w3.org/Graphics/SVG/1.1/DTD/svg11.dtd">
<svg version="1.1" xmlns="http://www.w3.org/2000/svg" xmlns:xlink="http://www.w3.org/1999/xlink" x="0px" y="0px" width="100px"
	 height="100px" viewBox="0 0 100 100" enable-background="new 0 0 100 100" xml:space="preserve">
<g id="fill">
	<g>
		<polygon fill="#CAD1B6" points="81.872,41.375 81.872,35.434 75.932,35.434 75.932,29.494 12.966,29.494 12.966,62.165 
			18.907,62.165 18.907,68.105 24.847,68.105 24.847,74.045 87.812,74.045 87.812,41.375 		"/>
	</g>
</g>
<g id="outline">
	<g>
		<path fill="none" stroke="#919191" stroke-width="2" stroke-linecap="round" stroke-linejoin="round" stroke-miterlimit="10" d="
			M87.812,74.045H24.847v-32.67h62.965V74.045z M81.859,35.434H18.894v32.671 M75.919,29.494H12.954v32.671 M81.859,35.434v5.94
			 M75.919,29.494v5.94"/>
	</g>
	<g>
		
			<line fill="none" stroke="#919191" stroke-width="2" stroke-linecap="round" stroke-linejoin="round" stroke-miterlimit="10" x1="12.954" y1="62.165" x2="18.894" y2="62.165"/>
	</g>
	<g>
		
			<line fill="none" stroke="#919191" stroke-width="2" stroke-linecap="round" stroke-linejoin="round" stroke-miterlimit="10" x1="18.894" y1="68.105" x2="24.847" y2="68.105"/>
	</g>
</g>
<g id="dollar_x5F_signs">
	<path fill="none" stroke="#919191" stroke-width="2" stroke-linecap="round" stroke-linejoin="bevel" stroke-miterlimit="10" d="
		M56.329,64.987v3.314 M56.329,47.119v3.314 M61.249,54.058v-2.681c0-0.521-0.377-0.944-0.842-0.944h-8.154
		c-0.465,0-0.842,0.423-0.842,0.944v5.389c0,0.521,0.377,0.944,0.842,0.944h8.154c0.465,0,0.842,0.423,0.842,0.944v5.388
		c0,0.521-0.377,0.944-0.842,0.944h-8.154c-0.465,0-0.842-0.423-0.842-0.944v-2.666"/>
</g>
</svg>
