<?xml version="1.0" encoding="utf-8"?>
<!-- Generator: Adobe Illustrator 16.0.0, SVG Export Plug-In . SVG Version: 6.00 Build 0)  -->
<!DOCTYPE svg PUBLIC "-//W3C//DTD SVG 1.1//EN" "http://www.w3.org/Graphics/SVG/1.1/DTD/svg11.dtd">
<svg version="1.1" xmlns="http://www.w3.org/2000/svg" xmlns:xlink="http://www.w3.org/1999/xlink" x="0px" y="0px" width="100px"
	 height="100px" viewBox="0 0 100 100" enable-background="new 0 0 100 100" xml:space="preserve">
<g id="fill">
	<g>
		<path fill="#BFCDE2" d="M33.831,44.148c-2.2,0-5.8,0-8,0H15.219c-2.2,0-4-1.8-4-4V19.967c0-2.2,1.8-4,4-4h69.562c2.2,0,4,1.8,4,4
			v20.181c0,2.2-1.8,4-4,4H74.17c-2.2,0-5.8,0-8,0H33.831z"/>
	</g>
	<g>
		<path fill="#CADDDA" d="M30,30.058v50.481c0,1.1,0.9,2,2,2h34.91c1.1,0,2-0.9,2-2V30.058"/>
	</g>
	<rect x="52.35" y="55.047" fill="#E6EDEC" width="9.197" height="15.563"/>
</g>
<g id="outline">
	<g>
		<path fill="none" stroke="#919191" stroke-width="2" stroke-linecap="round" stroke-linejoin="round" stroke-miterlimit="10" d="
			M30.545,30.058v50.481c0,1.1,0.9,2,2,2h34.91c1.1,0,2-0.9,2-2V30.058"/>
	</g>
	
		<line fill="none" stroke="#919191" stroke-width="2" stroke-linecap="round" stroke-linejoin="round" stroke-miterlimit="10" x1="38.427" y1="30.776" x2="38.427" y2="82.539"/>
	<g>
		
			<line fill="none" stroke="#919191" stroke-width="2" stroke-linecap="round" stroke-linejoin="round" stroke-miterlimit="10" x1="82.854" y1="82.539" x2="82.854" y2="59.409"/>
		
			<polyline fill="none" stroke="#919191" stroke-width="2" stroke-linecap="round" stroke-linejoin="round" stroke-miterlimit="10" points="
			88.781,68.235 82.854,57.968 76.927,68.235 		"/>
	</g>
	<g>
		<path fill="none" stroke="#919191" stroke-width="2" stroke-linecap="round" stroke-linejoin="round" stroke-miterlimit="10" d="
			M29.831,44.148H15.219c-2.2,0-4-1.8-4-4V19.967c0-2.2,1.8-4,4-4h69.562c2.2,0,4,1.8,4,4v20.181c0,2.2-1.8,4-4,4H70.17"/>
	</g>
	
		<line fill="none" stroke="#919191" stroke-width="2" stroke-linecap="round" stroke-linejoin="round" stroke-miterlimit="10" x1="21.441" y1="30.057" x2="78.559" y2="30.057"/>
	
		<line fill="none" stroke="#919191" stroke-width="2" stroke-linecap="round" stroke-linejoin="round" stroke-miterlimit="10" x1="71.75" y1="23.057" x2="82.559" y2="23.057"/>
	
		<rect x="51.805" y="55.047" fill="none" stroke="#919191" stroke-width="2" stroke-linecap="round" stroke-linejoin="round" stroke-miterlimit="10" width="9.197" height="15.563"/>
</g>
<g id="dollar_x5F_signs">
</g>
</svg>
