<?xml version="1.0" encoding="utf-8"?>
<!-- Generator: Adobe Illustrator 16.0.0, SVG Export Plug-In . SVG Version: 6.00 Build 0)  -->
<!DOCTYPE svg PUBLIC "-//W3C//DTD SVG 1.1//EN" "http://www.w3.org/Graphics/SVG/1.1/DTD/svg11.dtd">
<svg version="1.1" xmlns="http://www.w3.org/2000/svg" xmlns:xlink="http://www.w3.org/1999/xlink" x="0px" y="0px" width="100px"
	 height="100px" viewBox="0 0 100 100" enable-background="new 0 0 100 100" xml:space="preserve">
<g id="fill">
	<rect x="20" y="9.666" fill="#BFCDE2" width="58.834" height="80.669"/>
	<g>
		<rect x="64.686" y="62.691" fill="#DDE8F2" width="6.249" height="17.315"/>
		<g>
			<rect x="29.065" y="38.135" fill="#DDE8F2" width="6.249" height="6.25"/>
			<rect x="40.938" y="38.135" fill="#DDE8F2" width="6.249" height="6.25"/>
			<rect x="52.812" y="38.135" fill="#DDE8F2" width="6.249" height="6.25"/>
			<rect x="64.686" y="38.135" fill="#DDE8F2" width="6.249" height="6.25"/>
			<rect x="29.065" y="50.009" fill="#DDE8F2" width="6.249" height="6.25"/>
			<rect x="40.938" y="50.009" fill="#DDE8F2" width="6.249" height="6.25"/>
			<rect x="52.812" y="50.009" fill="#DDE8F2" width="6.249" height="6.25"/>
			<rect x="64.686" y="50.009" fill="#DDE8F2" width="6.249" height="6.25"/>
			<rect x="29.065" y="61.882" fill="#DDE8F2" width="6.249" height="6.25"/>
			<rect x="40.938" y="61.882" fill="#DDE8F2" width="6.249" height="6.25"/>
			<rect x="52.812" y="61.882" fill="#DDE8F2" width="6.249" height="6.25"/>
			<rect x="29.065" y="73.757" fill="#DDE8F2" width="6.249" height="6.249"/>
			<rect x="40.938" y="73.757" fill="#DDE8F2" width="6.249" height="6.249"/>
			<rect x="52.812" y="73.757" fill="#DDE8F2" width="6.249" height="6.249"/>
		</g>
	</g>
	<rect x="29.065" y="19.994" fill="#ACD9EA" width="41.87" height="11.911"/>
</g>
<g id="outline">
	
		<rect x="29.065" y="19.994" fill="none" stroke="#919191" stroke-width="2" stroke-linecap="round" stroke-linejoin="round" stroke-miterlimit="10" width="41.87" height="11.911"/>
	
		<rect x="20.583" y="9.666" fill="none" stroke="#919191" stroke-width="2" stroke-linecap="round" stroke-linejoin="round" stroke-miterlimit="10" width="58.834" height="80.669"/>
	<g>
		
			<rect x="64.686" y="50.009" fill="none" stroke="#919191" stroke-width="2" stroke-linecap="round" stroke-linejoin="round" stroke-miterlimit="10" width="6.249" height="6.25"/>
		<g>
			
				<rect x="29.065" y="38.135" fill="none" stroke="#919191" stroke-width="2" stroke-linecap="round" stroke-linejoin="round" stroke-miterlimit="10" width="6.249" height="6.25"/>
			
				<rect x="40.938" y="38.135" fill="none" stroke="#919191" stroke-width="2" stroke-linecap="round" stroke-linejoin="round" stroke-miterlimit="10" width="6.249" height="6.25"/>
			
				<rect x="52.812" y="38.135" fill="none" stroke="#919191" stroke-width="2" stroke-linecap="round" stroke-linejoin="round" stroke-miterlimit="10" width="6.249" height="6.25"/>
			
				<rect x="64.686" y="38.135" fill="none" stroke="#919191" stroke-width="2" stroke-linecap="round" stroke-linejoin="round" stroke-miterlimit="10" width="6.249" height="6.25"/>
			
				<rect x="29.065" y="50.009" fill="none" stroke="#919191" stroke-width="2" stroke-linecap="round" stroke-linejoin="round" stroke-miterlimit="10" width="6.249" height="6.25"/>
			
				<rect x="40.938" y="50.009" fill="none" stroke="#919191" stroke-width="2" stroke-linecap="round" stroke-linejoin="round" stroke-miterlimit="10" width="6.249" height="6.25"/>
			
				<rect x="52.812" y="50.009" fill="none" stroke="#919191" stroke-width="2" stroke-linecap="round" stroke-linejoin="round" stroke-miterlimit="10" width="6.249" height="6.25"/>
			
				<rect x="29.065" y="61.882" fill="none" stroke="#919191" stroke-width="2" stroke-linecap="round" stroke-linejoin="round" stroke-miterlimit="10" width="6.249" height="6.25"/>
			
				<rect x="40.938" y="61.882" fill="none" stroke="#919191" stroke-width="2" stroke-linecap="round" stroke-linejoin="round" stroke-miterlimit="10" width="6.249" height="6.25"/>
			
				<rect x="52.812" y="61.882" fill="none" stroke="#919191" stroke-width="2" stroke-linecap="round" stroke-linejoin="round" stroke-miterlimit="10" width="6.249" height="6.25"/>
			
				<rect x="29.065" y="73.757" fill="none" stroke="#919191" stroke-width="2" stroke-linecap="round" stroke-linejoin="round" stroke-miterlimit="10" width="6.249" height="6.249"/>
			
				<rect x="40.938" y="73.757" fill="none" stroke="#919191" stroke-width="2" stroke-linecap="round" stroke-linejoin="round" stroke-miterlimit="10" width="6.249" height="6.249"/>
			
				<rect x="52.812" y="73.757" fill="none" stroke="#919191" stroke-width="2" stroke-linecap="round" stroke-linejoin="round" stroke-miterlimit="10" width="6.249" height="6.249"/>
			
				<rect x="64.686" y="62.691" fill="none" stroke="#919191" stroke-width="2" stroke-linecap="round" stroke-linejoin="round" stroke-miterlimit="10" width="6.249" height="17.315"/>
		</g>
	</g>
</g>
<g id="dollar_x5F_signs">
</g>
</svg>
