<?xml version="1.0" encoding="utf-8"?>
<!-- Generator: Adobe Illustrator 16.0.0, SVG Export Plug-In . SVG Version: 6.00 Build 0)  -->
<!DOCTYPE svg PUBLIC "-//W3C//DTD SVG 1.1//EN" "http://www.w3.org/Graphics/SVG/1.1/DTD/svg11.dtd">
<svg version="1.1" xmlns="http://www.w3.org/2000/svg" xmlns:xlink="http://www.w3.org/1999/xlink" x="0px" y="0px" width="100px"
	 height="100px" viewBox="0 0 100 100" enable-background="new 0 0 100 100" xml:space="preserve">
<g id="fill">
	<polygon fill="#CAD1B6" points="29.855,40.25 14.532,56.458 22.984,56.458 14.532,65.913 22.984,65.913 14.532,75.367 
		22.984,75.367 14.532,84.822 51,84.822 66.323,68.615 66.323,59.16 66.323,49.706 66.323,40.25 	"/>
	<polygon fill="#CAD1B6" points="78.529,27.34 87.468,17.885 51,17.885 38.23,31.392 74.698,31.392 74.698,40.846 74.698,50.301 
		74.698,59.755 87.468,46.249 78.529,46.249 87.468,36.794 78.529,36.794 87.468,27.34 	"/>
</g>
<g id="outline">
	
		<polygon fill="none" stroke="#919191" stroke-width="2" stroke-linecap="round" stroke-linejoin="round" stroke-miterlimit="10" points="
		74.698,31.392 87.468,17.885 51,17.885 38.23,31.392 	"/>
	
		<polyline fill="none" stroke="#919191" stroke-width="2" stroke-linecap="round" stroke-linejoin="round" stroke-miterlimit="10" points="
		66.323,40.25 51,56.458 22.984,56.458 	"/>
	
		<polyline fill="none" stroke="#919191" stroke-width="2" stroke-linecap="round" stroke-linejoin="round" stroke-miterlimit="10" points="
		66.323,40.25 29.855,40.25 14.532,56.458 22.984,56.458 	"/>
	
		<polyline fill="none" stroke="#919191" stroke-width="2" stroke-linecap="round" stroke-linejoin="round" stroke-miterlimit="10" points="
		79.016,27.34 87.468,27.34 74.698,40.846 	"/>
	
		<polyline fill="none" stroke="#919191" stroke-width="2" stroke-linecap="round" stroke-linejoin="round" stroke-miterlimit="10" points="
		22.984,56.458 14.532,65.913 22.984,65.913 	"/>
	
		<polyline fill="none" stroke="#919191" stroke-width="2" stroke-linecap="round" stroke-linejoin="round" stroke-miterlimit="10" points="
		66.323,49.706 51,65.913 22.984,65.913 	"/>
	
		<polyline fill="none" stroke="#919191" stroke-width="2" stroke-linecap="round" stroke-linejoin="round" stroke-miterlimit="10" points="
		74.698,50.301 87.468,36.794 79.016,36.794 	"/>
	
		<polyline fill="none" stroke="#919191" stroke-width="2" stroke-linecap="round" stroke-linejoin="round" stroke-miterlimit="10" points="
		66.323,59.16 51,75.367 22.984,75.367 	"/>
	
		<polyline fill="none" stroke="#919191" stroke-width="2" stroke-linecap="round" stroke-linejoin="round" stroke-miterlimit="10" points="
		22.984,65.913 14.532,75.367 22.984,75.367 	"/>
	
		<polyline fill="none" stroke="#919191" stroke-width="2" stroke-linecap="round" stroke-linejoin="round" stroke-miterlimit="10" points="
		66.323,68.615 51,84.822 14.532,84.822 22.984,75.367 	"/>
	
		<polyline fill="none" stroke="#919191" stroke-width="2" stroke-linecap="round" stroke-linejoin="round" stroke-miterlimit="10" points="
		74.698,59.755 87.468,46.249 79.016,46.249 	"/>
	
		<line fill="none" stroke="#919191" stroke-width="2" stroke-linecap="round" stroke-linejoin="round" stroke-miterlimit="10" x1="66.323" y1="59.16" x2="66.323" y2="68.615"/>
	
		<line fill="none" stroke="#919191" stroke-width="2" stroke-linecap="round" stroke-linejoin="round" stroke-miterlimit="10" x1="66.323" y1="40.25" x2="66.323" y2="49.706"/>
	
		<line fill="none" stroke="#919191" stroke-width="2" stroke-linecap="round" stroke-linejoin="round" stroke-miterlimit="10" x1="66.323" y1="49.706" x2="66.323" y2="59.16"/>
	
		<line fill="none" stroke="#919191" stroke-width="2" stroke-linecap="round" stroke-linejoin="round" stroke-miterlimit="10" x1="74.698" y1="40.846" x2="74.698" y2="50.301"/>
	
		<line fill="none" stroke="#919191" stroke-width="2" stroke-linecap="round" stroke-linejoin="round" stroke-miterlimit="10" x1="74.698" y1="50.301" x2="74.698" y2="59.755"/>
	
		<line fill="none" stroke="#919191" stroke-width="2" stroke-linecap="round" stroke-linejoin="round" stroke-miterlimit="10" x1="74.698" y1="31.392" x2="74.698" y2="40.846"/>
</g>
<g id="dollar_x5F_signs">
</g>
</svg>
