<?xml version="1.0" encoding="utf-8"?>
<!-- Generator: Adobe Illustrator 16.0.0, SVG Export Plug-In . SVG Version: 6.00 Build 0)  -->
<!DOCTYPE svg PUBLIC "-//W3C//DTD SVG 1.1//EN" "http://www.w3.org/Graphics/SVG/1.1/DTD/svg11.dtd">
<svg version="1.1" xmlns="http://www.w3.org/2000/svg" xmlns:xlink="http://www.w3.org/1999/xlink" x="0px" y="0px" width="100px"
	 height="100px" viewBox="0 0 100 100" enable-background="new 0 0 100 100" xml:space="preserve">
<g id="fill">
	<g>
		<g>
			<path fill="#D3BFA7" d="M44.002,28.835c-10.103,9.35-20.669,18.712-20.669,30.957c0,14.728,11.939,26.667,26.667,26.667
				S76.667,74.52,76.667,59.792c0-12.451-9.855-20.854-20.684-30.934"/>
			<path fill="#D3BFA7" d="M50,39.223"/>
			<path fill="#D3BFA7" d="M55.983,28.858"/>
			<path fill="#D3BFA7" d="M55.983,28.858"/>
			<path fill="#D3BFA7" d="M50,39.223"/>
			<path fill="#D3BFA7" d="M44.002,28.835"/>
		</g>
		<g>
			<path fill="#D3BFA7" d="M60.202,15.333c0,0-5.994-3.958-9.952,0s-10.452,0-10.452,0l5.102,8.835h10.201L60.202,15.333z"/>
		</g>
	</g>
</g>
<g id="outline">
	<g>
		<path fill="none" stroke="#919191" stroke-width="2" stroke-linecap="round" stroke-linejoin="round" stroke-miterlimit="10" d="
			M44.002,28.835c-10.103,9.35-20.669,18.712-20.669,30.957c0,14.728,11.939,26.667,26.667,26.667S76.667,74.52,76.667,59.792
			c0-12.451-9.855-20.854-20.684-30.934"/>
		<path fill="none" stroke="#919191" stroke-width="2" stroke-linecap="round" stroke-linejoin="round" stroke-miterlimit="10" d="
			M50,39.223"/>
		<path fill="none" stroke="#919191" stroke-width="2" stroke-linecap="round" stroke-linejoin="round" stroke-miterlimit="10" d="
			M55.983,28.858"/>
		<path fill="none" stroke="#919191" stroke-width="2" stroke-linecap="round" stroke-linejoin="round" stroke-miterlimit="10" d="
			M55.983,28.858"/>
		<path fill="none" stroke="#919191" stroke-width="2" stroke-linecap="round" stroke-linejoin="round" stroke-miterlimit="10" d="
			M50,39.223"/>
		<path fill="none" stroke="#919191" stroke-width="2" stroke-linecap="round" stroke-linejoin="round" stroke-miterlimit="10" d="
			M44.002,28.835"/>
	</g>
	<g>
		<path fill="none" stroke="#919191" stroke-width="2" stroke-linecap="round" stroke-linejoin="round" stroke-miterlimit="10" d="
			M60.202,15.333c0,0-5.994-3.958-9.952,0s-10.452,0-10.452,0l5.102,8.835h10.201L60.202,15.333z"/>
	</g>
	
		<line fill="none" stroke="#919191" stroke-width="2" stroke-linecap="round" stroke-linejoin="round" stroke-miterlimit="10" x1="44.01" y1="28.835" x2="55.99" y2="28.835"/>
</g>
<g id="dollar_x5F_signs">
	<path fill="none" stroke="#919191" stroke-width="2" stroke-linecap="round" stroke-linejoin="bevel" stroke-miterlimit="10" d="
		M50,68.56v4.97 M50,41.764v4.971 M57.377,52.17v-4.019c0-0.783-0.566-1.416-1.264-1.416H43.887c-0.697,0-1.264,0.633-1.264,1.416
		v8.08c0,0.781,0.566,1.416,1.264,1.416h12.227c0.697,0,1.264,0.635,1.264,1.416v8.08c0,0.783-0.566,1.417-1.264,1.417H43.887
		c-0.697,0-1.264-0.634-1.264-1.417v-3.997"/>
</g>
</svg>
