<?xml version="1.0" encoding="utf-8"?>
<!-- Generator: Adobe Illustrator 16.0.0, SVG Export Plug-In . SVG Version: 6.00 Build 0)  -->
<!DOCTYPE svg PUBLIC "-//W3C//DTD SVG 1.1//EN" "http://www.w3.org/Graphics/SVG/1.1/DTD/svg11.dtd">
<svg version="1.1" xmlns="http://www.w3.org/2000/svg" xmlns:xlink="http://www.w3.org/1999/xlink" x="0px" y="0px" width="100px"
	 height="100px" viewBox="0 0 100 100" enable-background="new 0 0 100 100" xml:space="preserve">
<g id="fill">
	<g>
		<rect x="9.666" y="25.489" fill="#CAD1B6" width="80.668" height="49.021"/>
	</g>
	<ellipse fill="#DCE2C9" cx="50" cy="50" rx="8.066" ry="10.201"/>
</g>
<g id="outline">
	<g>
		
			<rect x="9.666" y="25.489" fill="none" stroke="#919191" stroke-width="2" stroke-linecap="round" stroke-linejoin="round" stroke-miterlimit="10" width="80.668" height="49.021"/>
	</g>
	<ellipse fill="#E9EDDD" cx="50" cy="50" rx="8.066" ry="10.201"/>
	
		<ellipse fill="none" stroke="#919191" stroke-width="2" stroke-linecap="round" stroke-linejoin="round" stroke-miterlimit="10" cx="50" cy="50" rx="8.066" ry="10.201"/>
	
		<line fill="none" stroke="#919191" stroke-width="2" stroke-linecap="round" stroke-linejoin="round" stroke-miterlimit="10" x1="26.627" y1="50" x2="36.142" y2="50"/>
	
		<line fill="none" stroke="#919191" stroke-width="2" stroke-linecap="round" stroke-linejoin="round" stroke-miterlimit="10" x1="63.858" y1="50" x2="73.373" y2="50"/>
	<g>
		<path fill="none" stroke="#919191" stroke-width="2" stroke-linecap="round" stroke-linejoin="round" stroke-miterlimit="10" d="
			M17.112,42.451V58.17c5.045,0,9.162,3.93,9.483,8.895h46.809c0.321-4.964,4.438-8.895,9.483-8.895V42.451
			c-5.255,0-9.515-4.26-9.515-9.515H26.627C26.627,38.19,22.367,42.451,17.112,42.451z"/>
	</g>
</g>
<g id="dollar_x5F_signs">
</g>
</svg>
