<?xml version="1.0" encoding="utf-8"?>
<!-- Generator: Adobe Illustrator 16.0.0, SVG Export Plug-In . SVG Version: 6.00 Build 0)  -->
<!DOCTYPE svg PUBLIC "-//W3C//DTD SVG 1.1//EN" "http://www.w3.org/Graphics/SVG/1.1/DTD/svg11.dtd">
<svg version="1.1" xmlns="http://www.w3.org/2000/svg" xmlns:xlink="http://www.w3.org/1999/xlink" x="0px" y="0px" width="100px"
	 height="100px" viewBox="0 0 100 100" enable-background="new 0 0 100 100" xml:space="preserve">
<g id="fill">
	<g>
		<path fill="#BFCDE2" d="M62.892,15.895h14.21c2.2,0,4,1.8,4,4v69.439c0,2.2-1.8,4-4,4H22.898c-2.2,0-4-1.8-4-4V19.895
			c0-2.2,1.8-4,4-4h17.997"/>
	</g>
	<g>
		<rect x="26.438" y="43.285" fill="#ACD9EA" width="47.123" height="12.783"/>
	</g>
	<g>
		<path fill="#FFFFFF" d="M61.661,33.116c-7.31,0-14.62,0-21.929,0c-8.771-9.316,8.771-18.633,0-27.95c7.31,0,14.62,0,21.929,0
			C70.432,14.483,52.889,23.8,61.661,33.116z"/>
	</g>
	<g>
		<rect x="38.447" y="64.338" fill="#DDE8F2" width="4.855" height="4.856"/>
		<rect x="47.672" y="64.338" fill="#DDE8F2" width="4.855" height="4.856"/>
		<rect x="56.897" y="64.338" fill="#DDE8F2" width="4.855" height="4.856"/>
		<rect x="66.122" y="64.338" fill="#DDE8F2" width="4.855" height="4.856"/>
		<rect x="38.447" y="73.562" fill="#DDE8F2" width="4.855" height="4.856"/>
		<rect x="47.672" y="73.562" fill="#DDE8F2" width="4.855" height="4.856"/>
		<rect x="56.897" y="73.562" fill="#DDE8F2" width="4.855" height="4.856"/>
		<rect x="38.447" y="82.789" fill="#DDE8F2" width="4.855" height="4.855"/>
		<rect x="29.023" y="64.338" fill="#DDE8F2" width="4.854" height="4.856"/>
		<rect x="29.023" y="73.562" fill="#DDE8F2" width="4.854" height="4.856"/>
		<rect x="29.023" y="82.789" fill="#DDE8F2" width="4.854" height="4.855"/>
		<rect x="47.672" y="82.789" fill="#DDE8F2" width="4.855" height="4.855"/>
		<rect x="56.897" y="82.789" fill="#DDE8F2" width="4.855" height="4.855"/>
		<rect x="66.122" y="73.992" fill="#DDE8F2" width="4.855" height="13.452"/>
	</g>
</g>
<g id="outline">
	<g>
		
			<rect x="38.447" y="64.338" fill="none" stroke="#919191" stroke-width="2" stroke-linecap="round" stroke-linejoin="round" stroke-miterlimit="10" width="4.855" height="4.856"/>
		
			<rect x="47.672" y="64.338" fill="none" stroke="#919191" stroke-width="2" stroke-linecap="round" stroke-linejoin="round" stroke-miterlimit="10" width="4.855" height="4.856"/>
		
			<rect x="56.897" y="64.338" fill="none" stroke="#919191" stroke-width="2" stroke-linecap="round" stroke-linejoin="round" stroke-miterlimit="10" width="4.855" height="4.856"/>
		
			<rect x="66.122" y="64.338" fill="none" stroke="#919191" stroke-width="2" stroke-linecap="round" stroke-linejoin="round" stroke-miterlimit="10" width="4.855" height="4.856"/>
		
			<rect x="38.447" y="73.563" fill="none" stroke="#919191" stroke-width="2" stroke-linecap="round" stroke-linejoin="round" stroke-miterlimit="10" width="4.855" height="4.856"/>
		
			<rect x="47.672" y="73.563" fill="none" stroke="#919191" stroke-width="2" stroke-linecap="round" stroke-linejoin="round" stroke-miterlimit="10" width="4.855" height="4.856"/>
		
			<rect x="56.897" y="73.563" fill="none" stroke="#919191" stroke-width="2" stroke-linecap="round" stroke-linejoin="round" stroke-miterlimit="10" width="4.855" height="4.856"/>
		
			<rect x="38.447" y="82.789" fill="none" stroke="#919191" stroke-width="2" stroke-linecap="round" stroke-linejoin="round" stroke-miterlimit="10" width="4.855" height="4.855"/>
		
			<rect x="29.023" y="64.338" fill="none" stroke="#919191" stroke-width="2" stroke-linecap="round" stroke-linejoin="round" stroke-miterlimit="10" width="4.854" height="4.856"/>
		
			<rect x="29.023" y="73.563" fill="none" stroke="#919191" stroke-width="2" stroke-linecap="round" stroke-linejoin="round" stroke-miterlimit="10" width="4.854" height="4.856"/>
		
			<rect x="29.023" y="82.789" fill="none" stroke="#919191" stroke-width="2" stroke-linecap="round" stroke-linejoin="round" stroke-miterlimit="10" width="4.854" height="4.855"/>
		
			<rect x="47.672" y="82.789" fill="none" stroke="#919191" stroke-width="2" stroke-linecap="round" stroke-linejoin="round" stroke-miterlimit="10" width="4.855" height="4.855"/>
		
			<rect x="56.897" y="82.789" fill="none" stroke="#919191" stroke-width="2" stroke-linecap="round" stroke-linejoin="round" stroke-miterlimit="10" width="4.855" height="4.855"/>
		
			<rect x="66.122" y="73.992" fill="none" stroke="#919191" stroke-width="2" stroke-linecap="round" stroke-linejoin="round" stroke-miterlimit="10" width="4.855" height="13.452"/>
	</g>
	
		<line fill="none" stroke="#919191" stroke-width="2" stroke-linecap="round" stroke-linejoin="round" stroke-miterlimit="10" x1="31.028" y1="33.116" x2="69.629" y2="33.116"/>
	
		<line fill="none" stroke="#919191" stroke-width="2" stroke-linecap="round" stroke-linejoin="round" stroke-miterlimit="10" x1="61.752" y1="50.246" x2="69.629" y2="50.246"/>
	<g>
		
			<line fill="none" stroke="#919191" stroke-width="2" stroke-linecap="round" stroke-linejoin="round" stroke-miterlimit="10" x1="26.438" y1="42.873" x2="26.438" y2="16.308"/>
	</g>
	<g>
		
			<line fill="none" stroke="#919191" stroke-width="2" stroke-linecap="round" stroke-linejoin="round" stroke-miterlimit="10" x1="73.562" y1="16.308" x2="73.562" y2="42.873"/>
	</g>
	<g>
		
			<rect x="26.438" y="43.285" fill="none" stroke="#919191" stroke-width="2" stroke-linecap="round" stroke-linejoin="round" stroke-miterlimit="10" width="47.123" height="12.783"/>
	</g>
	<g>
		<path fill="none" stroke="#919191" stroke-width="2" stroke-linecap="round" stroke-linejoin="round" stroke-miterlimit="10" d="
			M62.892,15.895h14.21c2.2,0,4,1.8,4,4v69.439c0,2.2-1.8,4-4,4H22.898c-2.2,0-4-1.8-4-4V19.895c0-2.2,1.8-4,4-4h17.997"/>
	</g>
	<g>
		<path fill="none" stroke="#919191" stroke-width="2" stroke-linecap="round" stroke-linejoin="round" stroke-miterlimit="10" d="
			M61.661,33.116c-7.31,0-14.62,0-21.929,0c-8.771-9.316,8.771-18.633,0-27.95c7.31,0,14.62,0,21.929,0
			C70.432,14.483,52.889,23.8,61.661,33.116z"/>
	</g>
</g>
<g id="dollar_x5F_signs">
</g>
</svg>
