<?xml version="1.0" encoding="utf-8"?>
<!-- Generator: Adobe Illustrator 16.0.0, SVG Export Plug-In . SVG Version: 6.00 Build 0)  -->
<!DOCTYPE svg PUBLIC "-//W3C//DTD SVG 1.1//EN" "http://www.w3.org/Graphics/SVG/1.1/DTD/svg11.dtd">
<svg version="1.1" xmlns="http://www.w3.org/2000/svg" xmlns:xlink="http://www.w3.org/1999/xlink" x="0px" y="0px" width="100px"
	 height="100px" viewBox="0 0 100 100" enable-background="new 0 0 100 100" xml:space="preserve">
<g id="fill">
	<g>
		<rect x="8.5" y="28.467" fill="#CAD1B6" width="83" height="43.066"/>
	</g>
</g>
<g id="outline">
	<g>
		<path fill="none" stroke="#919191" stroke-width="2" stroke-linecap="round" stroke-linejoin="round" stroke-miterlimit="10" d="
			M50,50"/>
	</g>
	<g>
		<path fill="none" stroke="#919191" stroke-width="2" stroke-linecap="round" stroke-linejoin="round" stroke-miterlimit="10" d="
			M50,50"/>
	</g>
	<g>
		<path fill="none" stroke="#919191" stroke-width="2" stroke-linecap="round" stroke-linejoin="round" stroke-miterlimit="10" d="
			M50,50"/>
	</g>
	<g>
		<path fill="none" stroke="#919191" stroke-width="2" stroke-linecap="round" stroke-linejoin="round" stroke-miterlimit="10" d="
			M50,50"/>
	</g>
	<g>
		
			<rect x="8.5" y="28.467" fill="none" stroke="#919191" stroke-width="2" stroke-linecap="round" stroke-linejoin="round" stroke-miterlimit="10" width="83" height="43.066"/>
	</g>
</g>
<g id="dollar_x5F_signs">
	<path fill="none" stroke="#919191" stroke-width="2" stroke-linecap="round" stroke-linejoin="bevel" stroke-miterlimit="10" d="
		M49.999,59.919v4.518 M49.999,35.563L50,40.081 M56.705,45.022v-3.654c0-0.71-0.515-1.287-1.148-1.287H44.443
		c-0.634,0-1.148,0.577-1.148,1.287v7.344c0,0.711,0.515,1.288,1.148,1.288h11.113c0.634,0,1.148,0.577,1.148,1.288v7.344
		c0,0.71-0.515,1.287-1.148,1.287H44.443c-0.634,0-1.148-0.577-1.148-1.287v-3.633"/>
</g>
</svg>
