<?xml version="1.0" encoding="utf-8"?>
<!-- Generator: Adobe Illustrator 16.0.0, SVG Export Plug-In . SVG Version: 6.00 Build 0)  -->
<!DOCTYPE svg PUBLIC "-//W3C//DTD SVG 1.1//EN" "http://www.w3.org/Graphics/SVG/1.1/DTD/svg11.dtd">
<svg version="1.1" id="Layer_1" xmlns="http://www.w3.org/2000/svg" xmlns:xlink="http://www.w3.org/1999/xlink" x="0px" y="0px"
	 width="64px" height="64px" viewBox="0 0 64 64" enable-background="new 0 0 64 64" xml:space="preserve">
<g>
	<g>
		
			<rect x="28.564" y="20.68" fill="none" stroke="#000000" stroke-linecap="round" stroke-linejoin="round" stroke-miterlimit="10" width="6.867" height="13.175"/>
		<polygon fill="none" stroke="#000000" stroke-linecap="round" stroke-linejoin="round" stroke-miterlimit="10" points="
			34.266,18.098 34.266,16.595 29.767,16.595 29.767,18.098 26.552,18.098 26.552,36.6 37.448,36.6 37.448,18.098 		"/>
		<polyline points="33.916,26.607 33.916,32.29 30.086,32.29 30.086,26.607 		"/>
	</g>
	<g>
		<g>
			<path d="M53.696,45.952H10.308c-1.93,0-3.5-1.57-3.5-3.5v-28.75c0-1.93,1.57-3.5,3.5-3.5h43.389c1.93,0,3.5,1.57,3.5,3.5v28.75
				C57.196,44.381,55.626,45.952,53.696,45.952z M10.308,11.202c-1.379,0-2.5,1.122-2.5,2.5v28.75c0,1.378,1.121,2.5,2.5,2.5h43.389
				c1.379,0,2.5-1.122,2.5-2.5v-28.75c0-1.378-1.121-2.5-2.5-2.5H10.308z"/>
		</g>
		<g>
			<path d="M61.137,53.803c-0.005,0-0.012,0-0.02,0H2.883c-0.194,0-0.371-0.113-0.453-0.289c-0.082-0.177-0.055-0.385,0.071-0.533
				l4.32-5.122c0.095-0.113,0.234-0.178,0.382-0.178h49.593c0.147,0,0.287,0.065,0.382,0.178l4.251,5.038
				c0.126,0.09,0.208,0.239,0.208,0.406C61.637,53.58,61.413,53.803,61.137,53.803z M3.959,52.803h56.082l-3.478-4.122H7.436
				L3.959,52.803z"/>
		</g>
		<g>
			<path d="M56.696,42.099H7.308c-0.276,0-0.5-0.224-0.5-0.5s0.224-0.5,0.5-0.5h49.389c0.276,0,0.5,0.224,0.5,0.5
				S56.973,42.099,56.696,42.099z"/>
		</g>
	</g>
</g>
</svg>
