<?xml version="1.0" encoding="utf-8"?>
<!-- Generator: Adobe Illustrator 16.0.0, SVG Export Plug-In . SVG Version: 6.00 Build 0)  -->
<!DOCTYPE svg PUBLIC "-//W3C//DTD SVG 1.1//EN" "http://www.w3.org/Graphics/SVG/1.1/DTD/svg11.dtd">
<svg version="1.1" id="Layer_1" xmlns="http://www.w3.org/2000/svg" xmlns:xlink="http://www.w3.org/1999/xlink" x="0px" y="0px"
	 width="64px" height="64px" viewBox="0 0 64 64" enable-background="new 0 0 64 64" xml:space="preserve">
<g>
	<g>
		<path d="M38.429,41.427H25.574c-0.276,0-0.5-0.224-0.5-0.5v-24.68c0-0.276,0.224-0.5,0.5-0.5h12.854c0.276,0,0.5,0.224,0.5,0.5
			v24.68C38.929,41.203,38.705,41.427,38.429,41.427z M26.074,40.427h11.854v-23.68H26.074V40.427z"/>
	</g>
	<g>
		<path d="M41.124,44.572H22.882c-0.276,0-0.5-0.224-0.5-0.5V13.1c0-0.276,0.224-0.5,0.5-0.5h4.889v-2.015
			c0-0.276,0.224-0.5,0.5-0.5h7.526c0.276,0,0.5,0.224,0.5,0.5V12.6h4.827c0.276,0,0.5,0.224,0.5,0.5v30.972
			C41.624,44.348,41.4,44.572,41.124,44.572z M23.382,43.572h17.242V13.6h-4.827c-0.276,0-0.5-0.224-0.5-0.5v-2.015h-6.526V13.1
			c0,0.276-0.224,0.5-0.5,0.5h-4.889V43.572z"/>
	</g>
	<g>
		<polyline points="35.587,28.076 35.587,38.722 28.417,38.722 28.417,28.076 		"/>
	</g>
	<g>
		<path d="M49.379,61.062H14.621c-1.93,0-3.5-1.57-3.5-3.5V6.438c0-1.93,1.57-3.5,3.5-3.5h34.758c1.93,0,3.5,1.57,3.5,3.5v51.125
			C52.879,59.492,51.309,61.062,49.379,61.062z M14.621,3.938c-1.379,0-2.5,1.122-2.5,2.5v51.125c0,1.378,1.121,2.5,2.5,2.5h34.758
			c1.379,0,2.5-1.122,2.5-2.5V6.438c0-1.378-1.121-2.5-2.5-2.5H14.621z"/>
	</g>
	<g>
		<path d="M33.491,56.087c0,0.823-0.666,1.492-1.491,1.492c-0.821,0-1.493-0.668-1.493-1.492c0-0.825,0.672-1.494,1.493-1.494
			C32.825,54.593,33.491,55.263,33.491,56.087z"/>
	</g>
	<g>
		<path d="M52.071,51.151H11.933c-0.276,0-0.5-0.224-0.5-0.5s0.224-0.5,0.5-0.5h40.139c0.276,0,0.5,0.224,0.5,0.5
			S52.348,51.151,52.071,51.151z"/>
	</g>
</g>
</svg>
