<?xml version="1.0" encoding="utf-8"?>
<!-- Generator: Adobe Illustrator 16.0.0, SVG Export Plug-In . SVG Version: 6.00 Build 0)  -->
<!DOCTYPE svg PUBLIC "-//W3C//DTD SVG 1.1//EN" "http://www.w3.org/Graphics/SVG/1.1/DTD/svg11.dtd">
<svg version="1.1" id="Layer_1" xmlns="http://www.w3.org/2000/svg" xmlns:xlink="http://www.w3.org/1999/xlink" x="0px" y="0px"
	 width="64px" height="64px" viewBox="0 0 64 64" enable-background="new 0 0 64 64" xml:space="preserve">
<g>
	<g>
		<path d="M36.344,36.293h-8.695c-0.276,0-0.5-0.224-0.5-0.5V19.101c0-0.276,0.224-0.5,0.5-0.5h8.695c0.276,0,0.5,0.224,0.5,0.5
			v16.692C36.844,36.069,36.62,36.293,36.344,36.293z M28.148,35.293h7.695V19.601h-7.695V35.293z"/>
	</g>
	<g>
		<path d="M38.946,39.862H25.047c-0.276,0-0.5-0.224-0.5-0.5V15.749c0-0.276,0.224-0.5,0.5-0.5h3.607v-1.415
			c0-0.276,0.224-0.5,0.5-0.5h5.743c0.276,0,0.5,0.224,0.5,0.5v1.415h3.549c0.276,0,0.5,0.224,0.5,0.5v23.613
			C39.446,39.638,39.223,39.862,38.946,39.862z M25.547,38.862h12.899V16.249h-3.549c-0.276,0-0.5-0.224-0.5-0.5v-1.415h-4.743
			v1.415c0,0.276-0.224,0.5-0.5,0.5h-3.607V38.862z"/>
	</g>
	<g>
		<polyline points="34.428,26.607 34.428,33.809 29.572,33.809 29.572,26.607 		"/>
	</g>
	<g>
		<circle cx="32" cy="54.917" r="1.708"/>
	</g>
	<g>
		<path d="M42.237,59.968H21.763c-1.93,0-3.5-1.57-3.5-3.5V7.535c0-1.93,1.57-3.5,3.5-3.5h20.475c1.93,0,3.5,1.57,3.5,3.5v48.933
			C45.737,58.397,44.167,59.968,42.237,59.968z M21.763,5.035c-1.379,0-2.5,1.122-2.5,2.5v48.933c0,1.378,1.121,2.5,2.5,2.5h20.475
			c1.379,0,2.5-1.122,2.5-2.5V7.535c0-1.378-1.121-2.5-2.5-2.5H21.763z"/>
	</g>
	<g>
		<path d="M44.852,49.931H19.144c-0.276,0-0.5-0.224-0.5-0.5s0.224-0.5,0.5-0.5h25.708c0.276,0,0.5,0.224,0.5,0.5
			S45.128,49.931,44.852,49.931z"/>
	</g>
</g>
</svg>
