<?xml version="1.0" encoding="utf-8"?>
<!-- Generator: Adobe Illustrator 16.0.0, SVG Export Plug-In . SVG Version: 6.00 Build 0)  -->
<!DOCTYPE svg PUBLIC "-//W3C//DTD SVG 1.1//EN" "http://www.w3.org/Graphics/SVG/1.1/DTD/svg11.dtd">
<svg version="1.1" id="Layer_1" xmlns="http://www.w3.org/2000/svg" xmlns:xlink="http://www.w3.org/1999/xlink" x="0px" y="0px"
	 width="32px" height="32px" viewBox="0 0 32 32" enable-background="new 0 0 32 32" xml:space="preserve">
<g>
	<g>
		<g>
			<g>
				<g>
					<path d="M27.208,23.053H4.731c-0.705,0-1.278-0.574-1.278-1.279V6.607c0-0.704,0.573-1.278,1.278-1.278h22.476
						c0.705,0,1.279,0.574,1.279,1.278v15.166C28.486,22.479,27.913,23.053,27.208,23.053z M4.731,5.694
						c-0.504,0-0.914,0.41-0.914,0.913v15.166c0,0.504,0.41,0.913,0.914,0.913h22.476c0.504,0,0.914-0.409,0.914-0.913V6.607
						c0-0.503-0.41-0.913-0.914-0.913H4.731z"/>
				</g>
			</g>
			<g>
				<g>
					<path d="M30.522,26.974c-0.002,0-0.005,0-0.007,0H1.424c-0.071,0-0.136-0.042-0.167-0.105
						c-0.029-0.064-0.019-0.143,0.027-0.195l2.159-2.558c0.035-0.04,0.086-0.063,0.14-0.063h24.773c0.054,0,0.105,0.023,0.14,0.063
						l2.132,2.527c0.046,0.033,0.077,0.087,0.077,0.148C30.706,26.893,30.623,26.974,30.522,26.974z M1.817,26.609h28.305
						l-1.851-2.193H3.667L1.817,26.609z"/>
				</g>
			</g>
			<g>
				<g>
					<path d="M28.303,21.13H3.635c-0.101,0-0.182-0.083-0.182-0.184c0-0.1,0.081-0.183,0.182-0.183h24.668
						c0.101,0,0.183,0.083,0.183,0.183C28.486,21.047,28.404,21.13,28.303,21.13z"/>
				</g>
			</g>
		</g>
		<g>
			<g>
				<path d="M15.97,16.345c-0.051,0-0.101-0.022-0.136-0.06l-2.712-2.998c-0.048-0.053-0.061-0.131-0.032-0.197
					c0.03-0.065,0.095-0.106,0.167-0.106h1.206v-4.4c0-0.103,0.082-0.183,0.183-0.183h2.647c0.102,0,0.183,0.08,0.183,0.183v4.398
					h1.207c0.072,0,0.137,0.043,0.167,0.108c0.029,0.066,0.017,0.145-0.033,0.197l-2.712,2.998
					C16.07,16.322,16.021,16.345,15.97,16.345z M13.668,13.348l2.301,2.541l2.301-2.542h-0.978c-0.101,0-0.183-0.08-0.183-0.183
					V8.766h-2.283v4.398c0,0.103-0.082,0.184-0.182,0.184H13.668z"/>
			</g>
			<g>
				<path d="M20.535,18.775h-9.131c-0.102,0-0.184-0.083-0.184-0.184v-3.022c0-0.102,0.082-0.183,0.184-0.183h1.31
					c0.101,0,0.183,0.081,0.183,0.183v1.458h6.145v-1.458c0-0.102,0.082-0.183,0.182-0.183h1.311c0.101,0,0.183,0.081,0.183,0.183
					v3.022C20.718,18.692,20.636,18.775,20.535,18.775z M11.587,18.409h8.766v-2.658h-0.945v1.459c0,0.101-0.083,0.181-0.183,0.181
					h-6.51c-0.101,0-0.183-0.08-0.183-0.181v-1.459h-0.945V18.409z"/>
			</g>
		</g>
	</g>
</g>
</svg>
