<?xml version="1.0" encoding="utf-8"?>
<!-- Generator: Adobe Illustrator 16.0.0, SVG Export Plug-In . SVG Version: 6.00 Build 0)  -->
<!DOCTYPE svg PUBLIC "-//W3C//DTD SVG 1.1//EN" "http://www.w3.org/Graphics/SVG/1.1/DTD/svg11.dtd">
<svg version="1.1" id="Layer_1" xmlns="http://www.w3.org/2000/svg" xmlns:xlink="http://www.w3.org/1999/xlink" x="0px" y="0px"
	 width="32px" height="32px" viewBox="0 0 32 32" enable-background="new 0 0 32 32" xml:space="preserve">
<g>
	<g>
		<g>
			<g>
				<path d="M19.496,23.213h-8.214c-1.107,0-2.009-0.9-2.009-2.009V11.1c0-1.11,0.901-2.01,2.009-2.01h8.214
					c1.107,0,2.009,0.899,2.009,2.01v10.104C21.504,22.312,20.603,23.213,19.496,23.213z M11.281,9.454
					c-0.907,0-1.644,0.738-1.644,1.646v10.104c0,0.907,0.737,1.643,1.644,1.643h8.214c0.906,0,1.644-0.735,1.644-1.643V11.1
					c0-0.907-0.738-1.646-1.644-1.646H11.281z"/>
			</g>
		</g>
		<g>
			<g>
				<path d="M22.637,14.73c-0.101,0-0.183-0.082-0.183-0.183v-2.286c0-0.101,0.082-0.183,0.183-0.183s0.183,0.082,0.183,0.183v2.286
					C22.819,14.648,22.738,14.73,22.637,14.73z"/>
			</g>
		</g>
		<g>
			<g>
				<path d="M19.128,8.107c-0.101,0-0.182-0.081-0.182-0.183V5.382c0-0.303-0.247-0.548-0.549-0.548h-6.018
					c-0.302,0-0.548,0.245-0.548,0.548v2.543c0,0.102-0.082,0.183-0.183,0.183c-0.101,0-0.183-0.081-0.183-0.183V5.382
					c0-0.503,0.409-0.913,0.913-0.913h6.018c0.504,0,0.914,0.41,0.914,0.913v2.543C19.312,8.026,19.229,8.107,19.128,8.107z"/>
			</g>
		</g>
		<g>
			<g>
				<path d="M18.397,27.834h-6.018c-0.504,0-0.913-0.41-0.913-0.913v-2.543c0-0.101,0.082-0.183,0.183-0.183
					c0.101,0,0.183,0.082,0.183,0.183v2.543c0,0.303,0.246,0.549,0.548,0.549h6.018c0.302,0,0.549-0.246,0.549-0.549v-2.543
					c0-0.101,0.082-0.183,0.182-0.183s0.183,0.082,0.183,0.183v2.543C19.312,27.424,18.901,27.834,18.397,27.834z"/>
			</g>
		</g>
		<g>
			<g>
				<g>
					<path d="M15.388,17.938c-0.051,0-0.101-0.021-0.135-0.06l-1.999-2.208c-0.048-0.054-0.061-0.131-0.031-0.198
						c0.029-0.065,0.095-0.105,0.167-0.105h0.84v-3.194c0-0.101,0.082-0.183,0.182-0.183h1.951c0.1,0,0.182,0.082,0.182,0.183v3.192
						h0.84c0.072,0,0.138,0.042,0.167,0.107c0.029,0.067,0.017,0.145-0.032,0.198l-1.998,2.206
						C15.489,17.918,15.44,17.938,15.388,17.938z M13.802,15.73l1.586,1.755l1.586-1.755h-0.611c-0.101,0-0.184-0.08-0.184-0.183
						v-3.192h-1.584v3.192c0,0.103-0.082,0.183-0.183,0.183H13.802z"/>
				</g>
			</g>
			<g>
				<g>
					<path d="M18.751,20.312h-6.726c-0.102,0-0.183-0.081-0.183-0.183v-2.227c0-0.102,0.081-0.182,0.183-0.182h0.966
						c0.101,0,0.182,0.08,0.182,0.182v1.027h4.43v-1.027c0-0.102,0.082-0.182,0.182-0.182h0.965c0.102,0,0.183,0.08,0.183,0.182
						v2.227C18.934,20.231,18.853,20.312,18.751,20.312z M12.208,19.948h6.361v-1.863h-0.6v1.027c0,0.101-0.082,0.183-0.183,0.183
						h-4.794c-0.101,0-0.182-0.082-0.182-0.183v-1.027h-0.602V19.948z"/>
				</g>
			</g>
		</g>
	</g>
</g>
</svg>
