<?xml version="1.0" encoding="utf-8"?>
<!-- Generator: Adobe Illustrator 16.0.0, SVG Export Plug-In . SVG Version: 6.00 Build 0)  -->
<!DOCTYPE svg PUBLIC "-//W3C//DTD SVG 1.1//EN" "http://www.w3.org/Graphics/SVG/1.1/DTD/svg11.dtd">
<svg version="1.1" id="Layer_1" xmlns="http://www.w3.org/2000/svg" xmlns:xlink="http://www.w3.org/1999/xlink" x="0px" y="0px"
	 width="32px" height="32px" viewBox="0 0 32 32" enable-background="new 0 0 32 32" xml:space="preserve">
<g>
	<g>
		<g>
			<g>
				<path d="M24.984,30.601H6.817c-0.705,0-1.279-0.574-1.279-1.278V2.981c0-0.704,0.574-1.279,1.279-1.279h18.167
					c0.705,0,1.279,0.575,1.279,1.279v26.341C26.263,30.026,25.689,30.601,24.984,30.601z M6.817,2.068
					c-0.504,0-0.914,0.409-0.914,0.913v26.341c0,0.503,0.409,0.913,0.914,0.913h18.167c0.503,0,0.914-0.41,0.914-0.913V2.981
					c0-0.504-0.41-0.913-0.914-0.913H6.817z"/>
			</g>
		</g>
		<g>
			<g>
				<circle cx="15.901" cy="28.183" r="0.746"/>
			</g>
		</g>
		<g>
			<g>
				<path d="M25.925,25.649H5.876c-0.101,0-0.183-0.081-0.183-0.181c0-0.103,0.082-0.186,0.183-0.186h20.049
					c0.101,0,0.182,0.083,0.182,0.186C26.107,25.568,26.026,25.649,25.925,25.649z"/>
			</g>
		</g>
		<g>
			<g>
				<path d="M15.901,17.065c-0.051,0-0.102-0.021-0.135-0.062l-3.471-3.834c-0.048-0.055-0.061-0.131-0.031-0.198
					c0.029-0.065,0.095-0.107,0.167-0.107h1.594V7.186c0-0.103,0.082-0.184,0.183-0.184h3.388c0.101,0,0.183,0.081,0.183,0.184
					v5.677h1.594c0.072,0,0.138,0.043,0.167,0.109c0.03,0.067,0.017,0.144-0.032,0.197l-3.47,3.835
					C16.001,17.045,15.953,17.065,15.901,17.065z M12.842,13.229l3.059,3.382l3.059-3.382h-1.365c-0.102,0-0.183-0.081-0.183-0.182
					V7.366H14.39v5.681c0,0.102-0.082,0.182-0.183,0.182H12.842z"/>
			</g>
		</g>
		<g>
			<g>
				<path d="M21.742,20.173H10.06c-0.101,0-0.183-0.083-0.183-0.184v-3.867c0-0.102,0.082-0.183,0.183-0.183h1.677
					c0.101,0,0.183,0.081,0.183,0.183v1.916h7.962v-1.916c0-0.102,0.081-0.183,0.183-0.183h1.677c0.101,0,0.183,0.081,0.183,0.183
					v3.867C21.925,20.09,21.843,20.173,21.742,20.173z M10.243,19.807h11.316v-3.501h-1.312v1.916c0,0.101-0.082,0.183-0.183,0.183
					h-8.328c-0.102,0-0.183-0.082-0.183-0.183v-1.916h-1.312V19.807z"/>
			</g>
		</g>
	</g>
</g>
</svg>
