<?xml version="1.0" encoding="utf-8"?>
<!-- Generator: Adobe Illustrator 16.0.0, SVG Export Plug-In . SVG Version: 6.00 Build 0)  -->
<!DOCTYPE svg PUBLIC "-//W3C//DTD SVG 1.1//EN" "http://www.w3.org/Graphics/SVG/1.1/DTD/svg11.dtd">
<svg version="1.1" id="Layer_1" xmlns="http://www.w3.org/2000/svg" xmlns:xlink="http://www.w3.org/1999/xlink" x="0px" y="0px"
	 width="32px" height="32px" viewBox="0 0 32 32" enable-background="new 0 0 32 32" xml:space="preserve">
<g>
	<g>
		<g>
			<g>
				<path d="M21.452,30.054H10.421c-0.705,0-1.278-0.574-1.278-1.279V3.527c0-0.705,0.574-1.276,1.278-1.276h11.031
					c0.706,0,1.279,0.571,1.279,1.276v25.247C22.731,29.479,22.158,30.054,21.452,30.054z M10.421,2.615
					c-0.504,0-0.913,0.409-0.913,0.912v25.247c0,0.505,0.409,0.914,0.913,0.914h11.031c0.504,0,0.914-0.409,0.914-0.914V3.527
					c0-0.503-0.41-0.912-0.914-0.912H10.421z"/>
			</g>
		</g>
		<g>
			<g>
				<path d="M22.358,25.04H9.516c-0.101,0-0.183-0.08-0.183-0.183c0-0.101,0.082-0.183,0.183-0.183h12.843
					c0.101,0,0.183,0.082,0.183,0.183C22.542,24.96,22.459,25.04,22.358,25.04z"/>
			</g>
		</g>
		<g>
			<g>
				<circle cx="15.937" cy="27.451" r="0.745"/>
			</g>
		</g>
		<g>
			<g>
				<path d="M15.938,15.739c-0.052,0-0.102-0.021-0.136-0.061l-1.998-2.207c-0.049-0.054-0.061-0.131-0.032-0.197
					c0.029-0.065,0.095-0.108,0.167-0.108h0.84V9.975c0-0.102,0.082-0.185,0.182-0.185h1.95c0.101,0,0.183,0.083,0.183,0.185v3.191
					h0.84c0.072,0,0.138,0.042,0.167,0.108c0.03,0.066,0.017,0.143-0.03,0.196l-1.999,2.208
					C16.038,15.719,15.989,15.739,15.938,15.739z M14.351,13.53l1.587,1.755l1.586-1.755h-0.612c-0.101,0-0.183-0.081-0.183-0.181
					v-3.193h-1.584v3.193c0,0.102-0.082,0.181-0.183,0.181H14.351z"/>
			</g>
		</g>
		<g>
			<g>
				<path d="M19.301,18.112h-6.727c-0.102,0-0.183-0.08-0.183-0.182v-2.226c0-0.103,0.082-0.184,0.183-0.184h0.965
					c0.101,0,0.183,0.081,0.183,0.184v1.026h4.429v-1.026c0-0.103,0.082-0.184,0.183-0.184h0.966c0.101,0,0.182,0.081,0.182,0.184
					v2.226C19.482,18.032,19.401,18.112,19.301,18.112z M12.757,17.748h6.361v-1.862h-0.601v1.027c0,0.102-0.081,0.184-0.182,0.184
					H13.54c-0.101,0-0.182-0.082-0.182-0.184v-1.027h-0.601V17.748z"/>
			</g>
		</g>
	</g>
</g>
</svg>
