<?xml version="1.0" encoding="utf-8"?>
<!-- Generator: Adobe Illustrator 16.0.0, SVG Export Plug-In . SVG Version: 6.00 Build 0)  -->
<!DOCTYPE svg PUBLIC "-//W3C//DTD SVG 1.1//EN" "http://www.w3.org/Graphics/SVG/1.1/DTD/svg11.dtd">
<svg version="1.1" id="Layer_1" xmlns="http://www.w3.org/2000/svg" xmlns:xlink="http://www.w3.org/1999/xlink" x="0px" y="0px"
	 width="32px" height="32px" viewBox="0 0 32 32" enable-background="new 0 0 32 32" xml:space="preserve">
<g>
	<g>
		<g>
			<g>
				<g>
					<path d="M27.248,23.28H4.771c-0.706,0-1.278-0.573-1.278-1.277V6.835c0-0.702,0.573-1.276,1.278-1.276h22.476
						c0.706,0,1.279,0.574,1.279,1.276v15.168C28.526,22.707,27.953,23.28,27.248,23.28z M4.771,5.924
						c-0.504,0-0.914,0.409-0.914,0.911v15.168c0,0.502,0.41,0.913,0.914,0.913h22.476c0.504,0,0.914-0.411,0.914-0.913V6.835
						c0-0.502-0.409-0.911-0.914-0.911H4.771z"/>
				</g>
			</g>
			<g>
				<g>
					<path d="M28.344,21.356H3.676c-0.102,0-0.183-0.08-0.183-0.182c0-0.101,0.081-0.184,0.183-0.184h24.668
						c0.102,0,0.183,0.083,0.183,0.184C28.526,21.276,28.445,21.356,28.344,21.356z"/>
				</g>
			</g>
			<g>
				<g>
					<g>
						<path d="M11.101,26.517c-0.039,0-0.078-0.012-0.111-0.039c-0.081-0.062-0.094-0.176-0.033-0.256l2.511-3.242
							c0.062-0.08,0.176-0.092,0.257-0.032c0.079,0.062,0.094,0.178,0.032,0.257l-2.511,3.241
							C11.21,26.491,11.156,26.517,11.101,26.517z"/>
					</g>
				</g>
				<g>
					<g>
						<path d="M20.918,26.517c-0.055,0-0.109-0.025-0.146-0.071l-2.511-3.241c-0.062-0.079-0.047-0.194,0.033-0.257
							c0.08-0.06,0.195-0.048,0.256,0.032l2.511,3.242c0.062,0.08,0.048,0.194-0.033,0.256
							C20.997,26.505,20.958,26.517,20.918,26.517z"/>
					</g>
				</g>
			</g>
			<g>
				<g>
					<path d="M22.859,26.746H9.16c-0.1,0-0.183-0.083-0.183-0.184c0-0.1,0.083-0.183,0.183-0.183h13.699
						c0.101,0,0.184,0.083,0.184,0.183C23.042,26.663,22.959,26.746,22.859,26.746z"/>
				</g>
			</g>
		</g>
		<g>
			<g>
				<path d="M16.01,16.384c-0.051,0-0.102-0.021-0.136-0.06l-2.753-3.044c-0.048-0.053-0.061-0.131-0.031-0.195
					c0.029-0.067,0.095-0.11,0.167-0.11h1.227V8.508c0-0.102,0.082-0.183,0.183-0.183h2.688c0.101,0,0.182,0.081,0.182,0.183v4.467
					h1.227c0.072,0,0.138,0.043,0.167,0.11c0.029,0.064,0.017,0.141-0.031,0.194l-2.753,3.045
					C16.111,16.362,16.061,16.384,16.01,16.384z M13.668,13.341l2.342,2.589l2.341-2.589h-0.998c-0.102,0-0.183-0.083-0.183-0.184
					V8.689h-2.322v4.47c0,0.101-0.082,0.182-0.183,0.182H13.668z"/>
			</g>
			<g>
				<path d="M20.644,18.851h-9.27c-0.1,0-0.182-0.083-0.182-0.186v-3.066c0-0.102,0.082-0.181,0.182-0.181h1.332
					c0.101,0,0.183,0.079,0.183,0.181v1.482h6.242v-1.482c0-0.102,0.082-0.181,0.183-0.181h1.331c0.101,0,0.183,0.079,0.183,0.181
					v3.066C20.827,18.768,20.745,18.851,20.644,18.851z M11.558,18.484h8.903v-2.702h-0.965v1.482c0,0.1-0.082,0.182-0.182,0.182
					h-6.607c-0.101,0-0.182-0.082-0.182-0.182v-1.482h-0.966V18.484z"/>
			</g>
		</g>
	</g>
</g>
</svg>
