<?xml version="1.0" encoding="utf-8"?>
<!-- Generator: Adobe Illustrator 16.0.0, SVG Export Plug-In . SVG Version: 6.00 Build 0)  -->
<!DOCTYPE svg PUBLIC "-//W3C//DTD SVG 1.1//EN" "http://www.w3.org/Graphics/SVG/1.1/DTD/svg11.dtd">
<svg version="1.1" id="Layer_1" xmlns="http://www.w3.org/2000/svg" xmlns:xlink="http://www.w3.org/1999/xlink" x="0px" y="0px"
	 width="32px" height="32px" viewBox="0 0 32 32" enable-background="new 0 0 32 32" xml:space="preserve">
<g>
	<g>
		<path d="M17.342,11.953h-2.684c-0.081,0-0.146-0.065-0.146-0.146v-1.73c0-0.081,0.066-0.146,0.146-0.146h2.684
			c0.081,0,0.146,0.065,0.146,0.146v1.73C17.488,11.888,17.422,11.953,17.342,11.953z M14.804,11.66h2.391v-1.438h-2.391V11.66z"/>
	</g>
	<g>
		<g>
			<path d="M13.997,18.075h-2.002c-0.081,0-0.146-0.065-0.146-0.146v-2.001c0-0.081,0.065-0.146,0.146-0.146h2.002
				c0.081,0,0.146,0.065,0.146,0.146v2.001C14.143,18.01,14.077,18.075,13.997,18.075z M12.142,17.782h1.708v-1.708h-1.708V17.782z"
				/>
		</g>
		<g>
			<path d="M17.001,18.075H15c-0.082,0-0.146-0.065-0.146-0.146v-2.001c0-0.081,0.065-0.146,0.146-0.146h2.001
				c0.081,0,0.146,0.065,0.146,0.146v2.001C17.147,18.01,17.082,18.075,17.001,18.075z M15.145,17.782h1.709v-1.708h-1.709V17.782z"
				/>
		</g>
		<g>
			<path d="M20.005,18.075h-2.001c-0.081,0-0.146-0.065-0.146-0.146v-2.001c0-0.081,0.065-0.146,0.146-0.146h2.001
				c0.081,0,0.146,0.065,0.146,0.146v2.001C20.152,18.01,20.086,18.075,20.005,18.075z M18.15,17.782h1.709v-1.708H18.15V17.782z"/>
		</g>
	</g>
	<g>
		<path d="M16,15.833c-0.081,0-0.146-0.065-0.146-0.146v-3.88c0-0.081,0.065-0.146,0.146-0.146c0.081,0,0.146,0.065,0.146,0.146
			v3.88C16.146,15.768,16.081,15.833,16,15.833z"/>
	</g>
	<g>
		<path d="M18.985,16.074c-0.082,0-0.146-0.065-0.146-0.146v-2.036h-5.677v2.036c0,0.081-0.065,0.146-0.146,0.146
			c-0.081,0-0.146-0.065-0.146-0.146v-2.183c0-0.08,0.065-0.146,0.146-0.146h5.97c0.081,0,0.146,0.066,0.146,0.146v2.183
			C19.131,16.009,19.066,16.074,18.985,16.074z"/>
	</g>
	<g>
		<circle cx="16" cy="26.192" r="0.76"/>
	</g>
	<g>
		<path d="M21.01,28.362H10.99c-0.564,0-1.023-0.46-1.023-1.023V4.661c0-0.564,0.459-1.023,1.023-1.023h10.02
			c0.565,0,1.024,0.459,1.024,1.023v22.678C22.034,27.902,21.575,28.362,21.01,28.362z M10.99,3.931c-0.403,0-0.73,0.328-0.73,0.73
			v22.678c0,0.402,0.328,0.73,0.73,0.73h10.02c0.404,0,0.731-0.328,0.731-0.73V4.661c0-0.402-0.328-0.73-0.731-0.73H10.99z"/>
	</g>
	<g>
		<path d="M21.718,23.898H10.282c-0.081,0-0.146-0.065-0.146-0.146c0-0.081,0.065-0.146,0.146-0.146h11.436
			c0.081,0,0.146,0.065,0.146,0.146C21.865,23.833,21.799,23.898,21.718,23.898z"/>
	</g>
</g>
</svg>
