<?xml version="1.0" encoding="utf-8"?>
<!-- Generator: Adobe Illustrator 16.0.0, SVG Export Plug-In . SVG Version: 6.00 Build 0)  -->
<!DOCTYPE svg PUBLIC "-//W3C//DTD SVG 1.1//EN" "http://www.w3.org/Graphics/SVG/1.1/DTD/svg11.dtd">
<svg version="1.1" id="Layer_1" xmlns="http://www.w3.org/2000/svg" xmlns:xlink="http://www.w3.org/1999/xlink" x="0px" y="0px"
	 width="32px" height="32px" viewBox="0 0 32 32" enable-background="new 0 0 32 32" xml:space="preserve">
<g>
	<g>
		<g>
			<path d="M17.821,11.689h-3.643c-0.08,0-0.146-0.065-0.146-0.146V9.859c0-0.081,0.065-0.146,0.146-0.146h3.643
				c0.08,0,0.146,0.065,0.146,0.146v1.684C17.967,11.624,17.901,11.689,17.821,11.689z M14.326,11.397h3.349v-1.393h-3.349V11.397z"
				/>
		</g>
		<g>
			<g>
				<path d="M13.282,17.643h-2.715c-0.081,0-0.146-0.065-0.146-0.146V15.55c0-0.081,0.065-0.146,0.146-0.146h2.715
					c0.081,0,0.146,0.064,0.146,0.146v1.946C13.429,17.577,13.363,17.643,13.282,17.643z M10.713,17.35h2.422v-1.653h-2.422V17.35z"
					/>
			</g>
			<g>
				<path d="M17.357,17.643h-2.714c-0.081,0-0.147-0.065-0.147-0.146V15.55c0-0.081,0.066-0.146,0.147-0.146h2.714
					c0.08,0,0.146,0.064,0.146,0.146v1.946C17.504,17.577,17.438,17.643,17.357,17.643z M14.789,17.35h2.423v-1.653h-2.423V17.35z"
					/>
			</g>
			<g>
				<path d="M21.433,17.643h-2.715c-0.08,0-0.146-0.065-0.146-0.146V15.55c0-0.081,0.065-0.146,0.146-0.146h2.715
					c0.081,0,0.146,0.064,0.146,0.146v1.946C21.579,17.577,21.514,17.643,21.433,17.643z M18.864,17.35h2.422v-1.653h-2.422V17.35z"
					/>
			</g>
		</g>
		<g>
			<path d="M15.999,15.459c-0.081,0-0.146-0.064-0.146-0.146v-3.771c0-0.08,0.065-0.146,0.146-0.146s0.146,0.065,0.146,0.146v3.771
				C16.146,15.395,16.08,15.459,15.999,15.459z"/>
		</g>
		<g>
			<path d="M20.049,15.696c-0.081,0-0.146-0.066-0.146-0.146v-1.977h-7.805v1.977c0,0.08-0.065,0.146-0.146,0.146
				s-0.146-0.066-0.146-0.146v-2.123c0-0.081,0.064-0.146,0.146-0.146h8.098c0.081,0,0.146,0.065,0.146,0.146v2.123
				C20.195,15.63,20.13,15.696,20.049,15.696z"/>
		</g>
	</g>
	<g>
		<g>
			<path d="M26.105,22.332H5.895c-0.565,0-1.024-0.459-1.024-1.023V7.607c0-0.565,0.459-1.024,1.024-1.024h20.21
				c0.564,0,1.023,0.459,1.023,1.024v13.701C27.129,21.873,26.67,22.332,26.105,22.332z M5.895,6.876
				c-0.404,0-0.731,0.327-0.731,0.731v13.701c0,0.403,0.328,0.731,0.731,0.731h20.21c0.403,0,0.73-0.328,0.73-0.731V7.607
				c0-0.404-0.327-0.731-0.73-0.731H5.895z"/>
		</g>
		<g>
			<path d="M26.982,20.62H5.017c-0.081,0-0.146-0.066-0.146-0.146c0-0.081,0.065-0.146,0.146-0.146h21.965
				c0.081,0,0.146,0.065,0.146,0.146C27.129,20.554,27.063,20.62,26.982,20.62z"/>
		</g>
		<g>
			<g>
				<path d="M11.629,25.213c-0.032,0-0.063-0.01-0.091-0.03c-0.062-0.05-0.074-0.142-0.025-0.205l2.237-2.887
					c0.049-0.063,0.142-0.075,0.205-0.026c0.063,0.05,0.075,0.142,0.025,0.205l-2.236,2.887
					C11.716,25.194,11.672,25.213,11.629,25.213z"/>
			</g>
			<g>
				<path d="M20.372,25.213c-0.045,0-0.088-0.019-0.116-0.057l-2.238-2.887c-0.049-0.063-0.037-0.155,0.026-0.205
					s0.156-0.037,0.205,0.026l2.238,2.887c0.049,0.063,0.037,0.155-0.027,0.205C20.435,25.203,20.402,25.213,20.372,25.213z"/>
			</g>
		</g>
		<g>
			<path d="M22.099,25.417H9.901c-0.081,0-0.146-0.065-0.146-0.146c0-0.081,0.066-0.147,0.146-0.147h12.197
				c0.081,0,0.146,0.066,0.146,0.147C22.245,25.352,22.18,25.417,22.099,25.417z"/>
		</g>
	</g>
</g>
</svg>
