<?xml version="1.0" encoding="utf-8"?>
<!-- Generator: Adobe Illustrator 16.0.0, SVG Export Plug-In . SVG Version: 6.00 Build 0)  -->
<!DOCTYPE svg PUBLIC "-//W3C//DTD SVG 1.1//EN" "http://www.w3.org/Graphics/SVG/1.1/DTD/svg11.dtd">
<svg version="1.1" id="Layer_1" xmlns="http://www.w3.org/2000/svg" xmlns:xlink="http://www.w3.org/1999/xlink" x="0px" y="0px"
	 width="32px" height="32px" viewBox="0 0 32 32" enable-background="new 0 0 32 32" xml:space="preserve">
<g>
	<g>
		<g>
			<path d="M17.818,11.364h-3.642c-0.081,0-0.146-0.066-0.146-0.147V9.534c0-0.082,0.066-0.147,0.146-0.147h3.642
				c0.081,0,0.146,0.065,0.146,0.147v1.683C17.964,11.298,17.899,11.364,17.818,11.364z M14.323,11.07h3.349V9.68h-3.349V11.07z"/>
		</g>
		<g>
			<g>
				<path d="M13.28,17.317h-2.715c-0.081,0-0.146-0.065-0.146-0.146v-1.948c0-0.081,0.066-0.146,0.146-0.146h2.715
					c0.081,0,0.146,0.065,0.146,0.146v1.948C13.426,17.252,13.36,17.317,13.28,17.317z M10.71,17.024h2.422V15.37H10.71V17.024z"/>
			</g>
			<g>
				<path d="M17.355,17.317H14.64c-0.081,0-0.146-0.065-0.146-0.146v-1.948c0-0.081,0.065-0.146,0.146-0.146h2.715
					c0.081,0,0.146,0.065,0.146,0.146v1.948C17.501,17.252,17.436,17.317,17.355,17.317z M14.786,17.024h2.422V15.37h-2.422V17.024z
					"/>
			</g>
			<g>
				<path d="M21.43,17.317h-2.715c-0.081,0-0.146-0.065-0.146-0.146v-1.948c0-0.081,0.065-0.146,0.146-0.146h2.715
					c0.081,0,0.146,0.065,0.146,0.146v1.948C21.576,17.252,21.51,17.317,21.43,17.317z M18.861,17.024h2.422V15.37h-2.422V17.024z"
					/>
			</g>
		</g>
		<g>
			<path d="M15.997,15.135c-0.081,0-0.146-0.065-0.146-0.146v-3.771c0-0.08,0.065-0.146,0.146-0.146
				c0.081,0,0.146,0.066,0.146,0.146v3.771C16.143,15.069,16.078,15.135,15.997,15.135z"/>
		</g>
		<g>
			<path d="M20.045,15.37c-0.081,0-0.146-0.065-0.146-0.146v-1.976h-7.804v1.976c0,0.081-0.065,0.146-0.146,0.146
				c-0.081,0-0.146-0.065-0.146-0.146v-2.121c0-0.082,0.065-0.146,0.146-0.146h8.096c0.082,0,0.146,0.064,0.146,0.146v2.121
				C20.191,15.305,20.126,15.37,20.045,15.37z"/>
		</g>
	</g>
	<g>
		<g>
			<path d="M26.102,22.129H5.892c-0.564,0-1.024-0.459-1.024-1.023V7.404c0-0.563,0.46-1.023,1.024-1.023h20.21
				c0.564,0,1.023,0.46,1.023,1.023v13.701C27.125,21.67,26.667,22.129,26.102,22.129z M5.892,6.674
				c-0.403,0-0.731,0.327-0.731,0.73v13.701c0,0.403,0.329,0.731,0.731,0.731h20.21c0.403,0,0.731-0.328,0.731-0.731V7.404
				c0-0.403-0.328-0.73-0.731-0.73H5.892z"/>
		</g>
		<g>
			<path d="M28.955,25.621c-0.001,0-0.004,0-0.006,0H3.045c-0.057,0-0.108-0.033-0.132-0.085c-0.024-0.051-0.016-0.112,0.021-0.156
				l1.922-2.277c0.028-0.032,0.069-0.052,0.112-0.052h22.06c0.043,0,0.084,0.02,0.112,0.052l1.901,2.253
				c0.037,0.026,0.061,0.069,0.061,0.119C29.101,25.556,29.036,25.621,28.955,25.621z M3.36,25.329h25.274l-1.675-1.986H5.035
				L3.36,25.329z"/>
		</g>
		<g>
			<path d="M26.979,20.416H5.015c-0.081,0-0.146-0.065-0.146-0.146s0.065-0.146,0.146-0.146h21.964c0.082,0,0.146,0.065,0.146,0.146
				S27.061,20.416,26.979,20.416z"/>
		</g>
	</g>
</g>
</svg>
