<?xml version="1.0" encoding="utf-8"?>
<!-- Generator: Adobe Illustrator 16.0.0, SVG Export Plug-In . SVG Version: 6.00 Build 0)  -->
<!DOCTYPE svg PUBLIC "-//W3C//DTD SVG 1.1//EN" "http://www.w3.org/Graphics/SVG/1.1/DTD/svg11.dtd">
<svg version="1.1" id="Layer_1" xmlns="http://www.w3.org/2000/svg" xmlns:xlink="http://www.w3.org/1999/xlink" x="0px" y="0px"
	 width="32px" height="32px" viewBox="0 0 32 32" enable-background="new 0 0 32 32" xml:space="preserve">
<g>
	<g>
		<path d="M17.961,10.614h-3.923c-0.081,0-0.146-0.065-0.146-0.146V7.939c0-0.081,0.065-0.146,0.146-0.146h3.923
			c0.082,0,0.146,0.065,0.146,0.146v2.528C18.108,10.549,18.043,10.614,17.961,10.614z M14.185,10.322h3.631V8.086h-3.631V10.322z"
			/>
	</g>
	<g>
		<g>
			<path d="M13.071,19.564h-2.926c-0.081,0-0.146-0.065-0.146-0.146v-2.927c0-0.081,0.065-0.146,0.146-0.146h2.926
				c0.082,0,0.146,0.065,0.146,0.146v2.927C13.218,19.499,13.153,19.564,13.071,19.564z M10.292,19.271h2.633v-2.634h-2.633V19.271z
				"/>
		</g>
		<g>
			<path d="M17.462,19.564h-2.926c-0.081,0-0.146-0.065-0.146-0.146v-2.927c0-0.081,0.065-0.146,0.146-0.146h2.926
				c0.081,0,0.146,0.065,0.146,0.146v2.927C17.609,19.499,17.543,19.564,17.462,19.564z M14.683,19.271h2.634v-2.634h-2.634V19.271z
				"/>
		</g>
		<g>
			<path d="M21.854,19.564h-2.925c-0.081,0-0.146-0.065-0.146-0.146v-2.927c0-0.081,0.065-0.146,0.146-0.146h2.925
				c0.082,0,0.146,0.065,0.146,0.146v2.927C22,19.499,21.935,19.564,21.854,19.564z M19.075,19.271h2.633v-2.634h-2.633V19.271z"/>
		</g>
	</g>
	<g>
		<path d="M16,16.282c-0.081,0-0.146-0.065-0.146-0.146v-5.669c0-0.08,0.065-0.146,0.146-0.146c0.081,0,0.146,0.065,0.146,0.146
			v5.669C16.146,16.217,16.081,16.282,16,16.282z"/>
	</g>
	<g>
		<path d="M20.362,16.638c-0.081,0-0.146-0.065-0.146-0.146v-3.045h-8.432v3.045c0,0.081-0.065,0.146-0.146,0.146
			c-0.081,0-0.146-0.065-0.146-0.146V13.3c0-0.08,0.065-0.146,0.146-0.146h8.725c0.081,0,0.146,0.065,0.146,0.146v3.191
			C20.508,16.572,20.443,16.638,20.362,16.638z"/>
	</g>
	<g>
		<path d="M24.187,28.85H7.813c-0.564,0-1.023-0.459-1.023-1.023V4.174c0-0.564,0.459-1.023,1.023-1.023h16.374
			c0.565,0,1.024,0.459,1.024,1.023v23.652C25.21,28.391,24.751,28.85,24.187,28.85z M7.813,3.442c-0.403,0-0.731,0.328-0.731,0.731
			v23.652c0,0.403,0.329,0.731,0.731,0.731h16.374c0.404,0,0.731-0.328,0.731-0.731V4.174c0-0.403-0.328-0.731-0.731-0.731H7.813z"
			/>
	</g>
	<g>
		<circle cx="16" cy="26.714" r="0.663"/>
	</g>
	<g>
		<path d="M24.926,24.441H7.073c-0.081,0-0.146-0.065-0.146-0.146s0.065-0.146,0.146-0.146h17.853c0.081,0,0.146,0.065,0.146,0.146
			S25.007,24.441,24.926,24.441z"/>
	</g>
</g>
</svg>
