<?xml version="1.0" encoding="utf-8"?>
<!-- Generator: Adobe Illustrator 16.0.0, SVG Export Plug-In . SVG Version: 6.00 Build 0)  -->
<!DOCTYPE svg PUBLIC "-//W3C//DTD SVG 1.1//EN" "http://www.w3.org/Graphics/SVG/1.1/DTD/svg11.dtd">
<svg version="1.1" id="Layer_1" xmlns="http://www.w3.org/2000/svg" xmlns:xlink="http://www.w3.org/1999/xlink" x="0px" y="0px"
	 width="32px" height="32px" viewBox="0 0 32 32" enable-background="new 0 0 32 32" xml:space="preserve">
<g>
	<g>
		<g>
			<path d="M16.648,14.293h-2.467c-0.081,0-0.146-0.065-0.146-0.146v-1.462c0-0.08,0.065-0.146,0.146-0.146h2.467
				c0.08,0,0.146,0.065,0.146,0.146v1.462C16.795,14.228,16.729,14.293,16.648,14.293z M14.328,14h2.174v-1.169h-2.174V14z"/>
		</g>
		<g>
			<g>
				<path d="M13.573,19.463h-1.84c-0.08,0-0.146-0.065-0.146-0.146v-1.69c0-0.082,0.065-0.146,0.146-0.146h1.84
					c0.081,0,0.146,0.064,0.146,0.146v1.69C13.72,19.397,13.654,19.463,13.573,19.463z M11.88,19.17h1.548v-1.398H11.88V19.17z"/>
			</g>
			<g>
				<path d="M16.334,19.463h-1.839c-0.081,0-0.146-0.065-0.146-0.146v-1.69c0-0.082,0.065-0.146,0.146-0.146h1.839
					c0.081,0,0.146,0.064,0.146,0.146v1.69C16.479,19.397,16.415,19.463,16.334,19.463z M14.641,19.17h1.547v-1.398h-1.547V19.17z"
					/>
			</g>
			<g>
				<path d="M19.095,19.463h-1.84c-0.08,0-0.146-0.065-0.146-0.146v-1.69c0-0.082,0.065-0.146,0.146-0.146h1.84
					c0.081,0,0.146,0.064,0.146,0.146v1.69C19.241,19.397,19.176,19.463,19.095,19.463z M17.401,19.17h1.547v-1.398h-1.547V19.17z"
					/>
			</g>
		</g>
		<g>
			<path d="M15.414,17.567c-0.08,0-0.146-0.065-0.146-0.146v-3.275c0-0.081,0.065-0.146,0.146-0.146
				c0.082,0,0.146,0.065,0.146,0.146v3.275C15.561,17.502,15.496,17.567,15.414,17.567z"/>
		</g>
		<g>
			<path d="M18.158,17.771c-0.081,0-0.146-0.065-0.146-0.146v-1.697h-5.194v1.697c0,0.08-0.065,0.146-0.146,0.146
				s-0.146-0.065-0.146-0.146v-1.844c0-0.081,0.065-0.146,0.146-0.146h5.487c0.08,0,0.146,0.065,0.146,0.146v1.844
				C18.304,17.706,18.238,17.771,18.158,17.771z"/>
		</g>
	</g>
	<g>
		<g>
			<path d="M19.235,22.272h-7.643c-0.887,0-1.608-0.722-1.608-1.609v-9.326c0-0.887,0.722-1.608,1.608-1.608h7.643
				c0.888,0,1.609,0.722,1.609,1.608v9.326C20.845,21.551,20.123,22.272,19.235,22.272z M11.593,10.021
				c-0.725,0-1.315,0.591-1.315,1.316v9.326c0,0.727,0.591,1.316,1.315,1.316h7.643c0.727,0,1.316-0.59,1.316-1.316v-9.326
				c0-0.726-0.59-1.316-1.316-1.316H11.593z"/>
		</g>
		<g>
			<path d="M21.869,14.719c-0.08,0-0.146-0.065-0.146-0.146v-2.035c0-0.08,0.066-0.146,0.146-0.146c0.081,0,0.146,0.066,0.146,0.146
				v2.035C22.016,14.653,21.95,14.719,21.869,14.719z"/>
		</g>
		<g>
			<path d="M18.745,8.822c-0.081,0-0.146-0.065-0.146-0.146V6.345c0-0.241-0.197-0.438-0.438-0.438h-5.49
				c-0.242,0-0.439,0.196-0.439,0.438v2.331c0,0.081-0.064,0.146-0.146,0.146s-0.146-0.065-0.146-0.146V6.345
				c0-0.402,0.328-0.73,0.731-0.73h5.49c0.403,0,0.731,0.328,0.731,0.73v2.331C18.892,8.757,18.826,8.822,18.745,8.822z"/>
		</g>
		<g>
			<path d="M18.16,26.387h-5.49c-0.403,0-0.731-0.328-0.731-0.73v-2.331c0-0.081,0.065-0.146,0.146-0.146s0.146,0.065,0.146,0.146
				v2.331c0,0.242,0.197,0.438,0.439,0.438h5.49c0.241,0,0.438-0.196,0.438-0.438v-2.331c0-0.081,0.065-0.146,0.146-0.146
				s0.146,0.065,0.146,0.146v2.331C18.892,26.059,18.563,26.387,18.16,26.387z"/>
		</g>
	</g>
</g>
</svg>
