<?xml version="1.0" encoding="utf-8"?>
<!-- Generator: Adobe Illustrator 16.0.0, SVG Export Plug-In . SVG Version: 6.00 Build 0)  -->
<!DOCTYPE svg PUBLIC "-//W3C//DTD SVG 1.1//EN" "http://www.w3.org/Graphics/SVG/1.1/DTD/svg11.dtd">
<svg version="1.1" id="Layer_1" xmlns="http://www.w3.org/2000/svg" xmlns:xlink="http://www.w3.org/1999/xlink" x="0px" y="0px"
	 width="64px" height="64px" viewBox="0 0 64 64" enable-background="new 0 0 64 64" xml:space="preserve">
<g>
	<g>
		<g>
			<path d="M24.573,27.532c-0.104,0-0.21-0.033-0.301-0.1c-0.221-0.166-0.265-0.479-0.099-0.7c0.104-0.139,2.616-3.401,7.89-3.401
				c5.281,0,7.67,3.272,7.769,3.411c0.16,0.225,0.107,0.536-0.116,0.696c-0.227,0.16-0.536,0.109-0.697-0.115
				c-0.088-0.122-2.211-2.992-6.955-2.992c-4.779,0-7.068,2.972-7.091,3.001C24.875,27.463,24.725,27.532,24.573,27.532z"/>
		</g>
		<g>
			<path d="M37.595,30.092c-0.156,0-0.31-0.073-0.407-0.21c-0.064-0.089-1.636-2.205-5.135-2.205c-3.521,0-5.185,2.126-5.254,2.217
				c-0.168,0.22-0.479,0.26-0.7,0.096c-0.219-0.167-0.264-0.479-0.098-0.699c0.08-0.106,2.013-2.614,6.052-2.614
				c4.036,0,5.873,2.518,5.949,2.625c0.16,0.225,0.107,0.538-0.117,0.697C37.797,30.062,37.695,30.092,37.595,30.092z"/>
		</g>
		<g>
			<path d="M34.841,32.45c-0.156,0-0.31-0.073-0.407-0.21c-0.028-0.038-0.768-1.017-2.413-1.017c-1.651,0-2.437,0.988-2.469,1.03
				c-0.168,0.217-0.48,0.26-0.699,0.093c-0.219-0.167-0.263-0.477-0.098-0.696c0.043-0.058,1.097-1.427,3.266-1.427
				c2.182,0,3.187,1.379,3.228,1.438c0.16,0.225,0.107,0.537-0.117,0.697C35.043,32.42,34.941,32.45,34.841,32.45z"/>
		</g>
	</g>
	<g>
		<circle cx="31.998" cy="34.066" r="0.704"/>
	</g>
	<g>
		<circle cx="32" cy="54.915" r="1.708"/>
	</g>
	<g>
		<path d="M42.237,59.965H21.763c-1.93,0-3.5-1.57-3.5-3.5V7.534c0-1.93,1.57-3.5,3.5-3.5h20.475c1.93,0,3.5,1.57,3.5,3.5v48.931
			C45.737,58.395,44.167,59.965,42.237,59.965z M21.763,5.034c-1.379,0-2.5,1.122-2.5,2.5v48.931c0,1.378,1.121,2.5,2.5,2.5h20.475
			c1.379,0,2.5-1.122,2.5-2.5V7.534c0-1.378-1.121-2.5-2.5-2.5H21.763z"/>
	</g>
	<g>
		<path d="M44.852,49.931H19.144c-0.276,0-0.5-0.224-0.5-0.5s0.224-0.5,0.5-0.5h25.708c0.276,0,0.5,0.224,0.5,0.5
			S45.128,49.931,44.852,49.931z"/>
	</g>
</g>
</svg>
