<?xml version="1.0" encoding="utf-8"?>
<!-- Generator: Adobe Illustrator 16.0.0, SVG Export Plug-In . SVG Version: 6.00 Build 0)  -->
<!DOCTYPE svg PUBLIC "-//W3C//DTD SVG 1.1//EN" "http://www.w3.org/Graphics/SVG/1.1/DTD/svg11.dtd">
<svg version="1.1" id="Layer_1" xmlns="http://www.w3.org/2000/svg" xmlns:xlink="http://www.w3.org/1999/xlink" x="0px" y="0px"
	 width="64px" height="64px" viewBox="0 0 64 64" enable-background="new 0 0 64 64" xml:space="preserve">
<g>
	<g>
		<g>
			<path fill="none" stroke="#000000" stroke-linecap="round" stroke-linejoin="round" stroke-miterlimit="10" d="M22.697,29.924
				c0,0,2.588-3.445,8.062-3.445c5.469,0,7.914,3.445,7.914,3.445"/>
			<path fill="none" stroke="#000000" stroke-linecap="round" stroke-linejoin="round" stroke-miterlimit="10" d="M24.662,32.677
				c0,0,1.955-2.597,6.076-2.597c4.127,0,5.971,2.597,5.971,2.597"/>
			<path fill="none" stroke="#000000" stroke-linecap="round" stroke-linejoin="round" stroke-miterlimit="10" d="M27.625,35.215
				c0,0,0.996-1.321,3.086-1.321c2.096,0,3.033,1.321,3.033,1.321"/>
		</g>
		<path d="M31.443,37.492c0,0.421-0.338,0.762-0.758,0.762s-0.766-0.341-0.766-0.762c0-0.418,0.346-0.757,0.766-0.757
			S31.443,37.073,31.443,37.492z"/>
	</g>
	<g>
		<g>
			<path d="M37.564,46.272h-13.76c-3.032,0-5.5-2.467-5.5-5.5V23.227c0-3.033,2.468-5.5,5.5-5.5h13.76c3.032,0,5.5,2.467,5.5,5.5
				v17.545C43.064,43.805,40.597,46.272,37.564,46.272z M23.805,18.727c-2.481,0-4.5,2.019-4.5,4.5v17.545
				c0,2.481,2.019,4.5,4.5,4.5h13.76c2.481,0,4.5-2.019,4.5-4.5V23.227c0-2.481-2.019-4.5-4.5-4.5H23.805z"/>
		</g>
		<g>
			<path d="M45.195,29.289c-0.276,0-0.5-0.224-0.5-0.5v-4.575c0-0.276,0.224-0.5,0.5-0.5s0.5,0.224,0.5,0.5v4.575
				C45.695,29.065,45.472,29.289,45.195,29.289z"/>
		</g>
		<g>
			<path d="M38.172,16.031c-0.276,0-0.5-0.224-0.5-0.5v-4.554c0-0.827-0.673-1.5-1.5-1.5H25.195c-0.827,0-1.5,0.673-1.5,1.5v4.554
				c0,0.276-0.224,0.5-0.5,0.5s-0.5-0.224-0.5-0.5v-4.554c0-1.378,1.121-2.5,2.5-2.5h10.977c1.379,0,2.5,1.122,2.5,2.5v4.554
				C38.672,15.808,38.448,16.031,38.172,16.031z"/>
		</g>
		<g>
			<path d="M36.172,55.525H25.195c-1.379,0-2.5-1.122-2.5-2.5V48.47c0-0.276,0.224-0.5,0.5-0.5s0.5,0.224,0.5,0.5v4.555
				c0,0.827,0.673,1.5,1.5,1.5h10.977c0.827,0,1.5-0.673,1.5-1.5V48.47c0-0.276,0.224-0.5,0.5-0.5s0.5,0.224,0.5,0.5v4.555
				C38.672,54.403,37.551,55.525,36.172,55.525z"/>
		</g>
	</g>
</g>
</svg>
