<?xml version="1.0" encoding="utf-8"?>
<!-- Generator: Adobe Illustrator 16.0.0, SVG Export Plug-In . SVG Version: 6.00 Build 0)  -->
<!DOCTYPE svg PUBLIC "-//W3C//DTD SVG 1.1//EN" "http://www.w3.org/Graphics/SVG/1.1/DTD/svg11.dtd">
<svg version="1.1" id="Layer_1" xmlns="http://www.w3.org/2000/svg" xmlns:xlink="http://www.w3.org/1999/xlink" x="0px" y="0px"
	 width="64px" height="64px" viewBox="0 0 64 64" enable-background="new 0 0 64 64" xml:space="preserve">
<g>
	<g>
		<g>
			<path fill="none" stroke="#000000" stroke-linecap="round" stroke-linejoin="round" stroke-miterlimit="10" d="M20.045,22.861
				c0,0,3.881-5.155,12.062-5.155s11.846,5.155,11.846,5.155"/>
			<path fill="none" stroke="#000000" stroke-linecap="round" stroke-linejoin="round" stroke-miterlimit="10" d="M22.991,26.979
				c0,0,2.923-3.883,9.09-3.883c6.169,0,8.928,3.883,8.928,3.883"/>
			<path fill="none" stroke="#000000" stroke-linecap="round" stroke-linejoin="round" stroke-miterlimit="10" d="M27.424,30.778
				c0,0,1.483-1.977,4.619-1.977c3.13,0,4.535,1.977,4.535,1.977"/>
		</g>
		<path d="M33.139,34.185c0,0.628-0.514,1.138-1.139,1.138c-0.627,0-1.137-0.51-1.137-1.138c0-0.626,0.51-1.136,1.137-1.136
			C32.625,33.049,33.139,33.559,33.139,34.185z"/>
	</g>
	<g>
		<g>
			<path d="M53.696,45.951H10.308c-1.93,0-3.5-1.57-3.5-3.5V13.7c0-1.93,1.57-3.5,3.5-3.5h43.389c1.93,0,3.5,1.57,3.5,3.5v28.751
				C57.196,44.381,55.626,45.951,53.696,45.951z M10.308,11.2c-1.379,0-2.5,1.122-2.5,2.5v28.751c0,1.378,1.121,2.5,2.5,2.5h43.389
				c1.379,0,2.5-1.122,2.5-2.5V13.7c0-1.378-1.121-2.5-2.5-2.5H10.308z"/>
		</g>
		<g>
			<path d="M61.137,53.802c-0.005,0-0.012,0-0.02,0H2.883c-0.194,0-0.371-0.113-0.453-0.289c-0.082-0.177-0.055-0.385,0.071-0.533
				l4.32-5.122c0.095-0.113,0.234-0.178,0.382-0.178h49.593c0.147,0,0.287,0.065,0.382,0.178l4.251,5.038
				c0.126,0.09,0.208,0.239,0.208,0.406C61.637,53.578,61.413,53.802,61.137,53.802z M3.959,52.802h56.082l-3.478-4.122H7.436
				L3.959,52.802z"/>
		</g>
		<g>
			<path d="M56.696,42.1H7.308c-0.276,0-0.5-0.224-0.5-0.5s0.224-0.5,0.5-0.5h49.389c0.276,0,0.5,0.224,0.5,0.5
				S56.973,42.1,56.696,42.1z"/>
		</g>
	</g>
</g>
</svg>
