<?xml version="1.0" encoding="utf-8"?>
<!-- Generator: Adobe Illustrator 16.0.0, SVG Export Plug-In . SVG Version: 6.00 Build 0)  -->
<!DOCTYPE svg PUBLIC "-//W3C//DTD SVG 1.1//EN" "http://www.w3.org/Graphics/SVG/1.1/DTD/svg11.dtd">
<svg version="1.1" id="Layer_1" xmlns="http://www.w3.org/2000/svg" xmlns:xlink="http://www.w3.org/1999/xlink" x="0px" y="0px"
	 width="64px" height="64px" viewBox="0 0 64 64" enable-background="new 0 0 64 64" xml:space="preserve">
<g>
	<g>
		<g>
			<path d="M20.047,24.824c-0.105,0-0.211-0.033-0.301-0.101c-0.221-0.166-0.265-0.479-0.099-0.7
				c0.164-0.218,4.123-5.354,12.461-5.354c8.342,0,12.098,5.146,12.253,5.365c0.16,0.225,0.107,0.536-0.117,0.696
				c-0.224,0.159-0.536,0.109-0.697-0.116c-0.035-0.049-3.635-4.945-11.438-4.945c-7.845,0-11.625,4.906-11.662,4.956
				C20.349,24.755,20.198,24.824,20.047,24.824z"/>
		</g>
		<g>
			<path d="M22.99,28.94c-0.105,0-0.211-0.033-0.302-0.101c-0.22-0.167-0.264-0.479-0.098-0.699
				c0.126-0.167,3.146-4.082,9.494-4.082c6.351,0,9.216,3.925,9.335,4.092c0.16,0.225,0.107,0.536-0.117,0.696
				c-0.224,0.16-0.535,0.109-0.696-0.115c-0.027-0.037-2.708-3.673-8.521-3.673c-5.828,0-8.668,3.647-8.696,3.684
				C23.29,28.872,23.141,28.94,22.99,28.94z"/>
		</g>
		<g>
			<path d="M36.58,32.737c-0.156,0-0.31-0.073-0.407-0.21c-0.051-0.07-1.312-1.762-4.129-1.762c-2.827,0-4.168,1.703-4.224,1.775
				c-0.168,0.218-0.481,0.261-0.699,0.094c-0.22-0.167-0.264-0.478-0.098-0.698c0.067-0.089,1.676-2.172,5.021-2.172
				c3.354,0,4.88,2.094,4.943,2.183c0.16,0.225,0.107,0.537-0.117,0.697C36.782,32.707,36.681,32.737,36.58,32.737z"/>
		</g>
	</g>
	<g>
		<path d="M33.137,35.647c0,0.626-0.506,1.138-1.137,1.138c-0.625,0-1.134-0.512-1.134-1.138c0-0.629,0.509-1.136,1.134-1.136
			C32.631,34.511,33.137,35.019,33.137,35.647z"/>
	</g>
	<g>
		<path d="M49.379,61.062H14.621c-1.93,0-3.5-1.57-3.5-3.5V6.438c0-1.93,1.57-3.5,3.5-3.5h34.758c1.93,0,3.5,1.57,3.5,3.5v51.123
			C52.879,59.491,51.309,61.062,49.379,61.062z M14.621,3.938c-1.379,0-2.5,1.122-2.5,2.5v51.123c0,1.378,1.121,2.5,2.5,2.5h34.758
			c1.379,0,2.5-1.122,2.5-2.5V6.438c0-1.378-1.121-2.5-2.5-2.5H14.621z"/>
	</g>
	<g>
		<path d="M33.491,56.087c0,0.823-0.666,1.49-1.491,1.49c-0.821,0-1.493-0.667-1.493-1.49c0-0.825,0.672-1.491,1.493-1.491
			C32.825,54.597,33.491,55.263,33.491,56.087z"/>
	</g>
	<g>
		<path d="M52.071,51.149H11.933c-0.276,0-0.5-0.224-0.5-0.5s0.224-0.5,0.5-0.5h40.139c0.276,0,0.5,0.224,0.5,0.5
			S52.348,51.149,52.071,51.149z"/>
	</g>
</g>
</svg>
