<?xml version="1.0" encoding="utf-8"?>
<!-- Generator: Adobe Illustrator 16.0.0, SVG Export Plug-In . SVG Version: 6.00 Build 0)  -->
<!DOCTYPE svg PUBLIC "-//W3C//DTD SVG 1.1//EN" "http://www.w3.org/Graphics/SVG/1.1/DTD/svg11.dtd">
<svg version="1.1" id="Layer_1" xmlns="http://www.w3.org/2000/svg" xmlns:xlink="http://www.w3.org/1999/xlink" x="0px" y="0px"
	 width="128px" height="128px" viewBox="0 0 128 128" enable-background="new 0 0 128 128" xml:space="preserve">
<g>
	<g>
		<g>
			<path d="M66.879,75.444h-9.88c-0.553,0-1-0.448-1-1V55.488c0-0.552,0.447-1,1-1h9.88c0.553,0,1,0.448,1,1v18.956
				C67.879,74.997,67.432,75.444,66.879,75.444z M57.999,73.444h7.88V56.488h-7.88V73.444z"/>
		</g>
		<g>
			<path d="M69.782,79.394H54.11c-0.553,0-1-0.448-1-1V51.769c0-0.552,0.447-1,1-1h3.627v-1.162c0-0.552,0.447-1,1-1h6.475
				c0.553,0,1,0.448,1,1v1.162h3.57c0.553,0,1,0.448,1,1v26.625C70.782,78.946,70.335,79.394,69.782,79.394z M55.11,77.394h13.672
				V52.769h-3.57c-0.553,0-1-0.448-1-1v-1.162h-4.475v1.162c0,0.552-0.447,1-1,1H55.11V77.394z"/>
		</g>
		<g>
			<polyline points="64.697,64.01 64.697,72.19 59.188,72.19 59.188,64.01 			"/>
		</g>
	</g>
	<g>
		<path d="M75.528,86.549H48.354c-3.309,0-6-2.691-6-6V47.451c0-3.309,2.691-6,6-6h27.174c3.309,0,6,2.691,6,6v33.098
			C81.528,83.857,78.837,86.549,75.528,86.549z M48.354,43.451c-2.206,0-4,1.794-4,4v33.098c0,2.206,1.794,4,4,4h27.174
			c2.206,0,4-1.794,4-4V47.451c0-2.206-1.794-4-4-4H48.354z"/>
	</g>
	<g>
		<path d="M84.646,59.982c-0.553,0-1-0.448-1-1v-7.163c0-0.552,0.447-1,1-1s1,0.448,1,1v7.163
			C85.646,59.535,85.198,59.982,84.646,59.982z"/>
	</g>
	<g>
		<path d="M73.656,39.233c-0.553,0-1-0.448-1-1v-8.251c0-0.551-0.448-1-1-1H52.226c-0.552,0-1,0.449-1,1v8.251c0,0.552-0.447,1-1,1
			s-1-0.448-1-1v-8.251c0-1.654,1.346-3,3-3h19.431c1.654,0,3,1.346,3,3v8.251C74.656,38.786,74.209,39.233,73.656,39.233z"/>
	</g>
	<g>
		<path d="M71.656,101.021H52.226c-1.654,0-3-1.346-3-3v-8.253c0-0.552,0.447-1,1-1s1,0.448,1,1v8.253c0,0.551,0.448,1,1,1h19.431
			c0.552,0,1-0.449,1-1v-8.253c0-0.552,0.447-1,1-1s1,0.448,1,1v8.253C74.656,99.675,73.311,101.021,71.656,101.021z"/>
	</g>
</g>
</svg>
