<?xml version="1.0" encoding="utf-8"?>
<!-- Generator: Adobe Illustrator 16.0.0, SVG Export Plug-In . SVG Version: 6.00 Build 0)  -->
<!DOCTYPE svg PUBLIC "-//W3C//DTD SVG 1.1//EN" "http://www.w3.org/Graphics/SVG/1.1/DTD/svg11.dtd">
<svg version="1.1" id="Layer_1" xmlns="http://www.w3.org/2000/svg" xmlns:xlink="http://www.w3.org/1999/xlink" x="0px" y="0px"
	 width="128px" height="128px" viewBox="0 0 128 128" enable-background="new 0 0 128 128" xml:space="preserve">
<g>
	<g>
		
			<rect x="57.66" y="44.61" fill="none" stroke="#000000" stroke-width="2" stroke-linecap="round" stroke-linejoin="round" stroke-miterlimit="10" width="12.68" height="24.356"/>
		
			<polygon fill="none" stroke="#000000" stroke-width="2" stroke-linecap="round" stroke-linejoin="round" stroke-miterlimit="10" points="
			68.113,40.142 68.113,37.423 59.965,37.423 59.965,40.142 54.133,40.142 54.133,73.674 73.871,73.674 73.871,40.142 		"/>
		<polyline points="67.541,55.562 67.541,66.069 60.459,66.069 60.459,55.562 		"/>
	</g>
	<g>
		<g>
			<path d="M99.635,86.76h-71.27c-2.206,0-4-1.794-4-4V34.39c0-2.206,1.794-4,4-4h71.27c2.206,0,4,1.794,4,4v48.37
				C103.635,84.965,101.841,86.76,99.635,86.76z M28.365,32.39c-1.103,0-2,0.897-2,2v48.37c0,1.103,0.897,2,2,2h71.27
				c1.103,0,2-0.897,2-2V34.39c0-1.103-0.897-2-2-2H28.365z"/>
		</g>
		<g>
			<path d="M102.635,80.73h-77.27c-0.553,0-1-0.448-1-1s0.447-1,1-1h77.27c0.553,0,1,0.448,1,1S103.188,80.73,102.635,80.73z"/>
		</g>
		<g>
			<g>
				<path d="M48.624,96.898c-0.214,0-0.43-0.068-0.611-0.209c-0.437-0.338-0.517-0.966-0.178-1.403l7.871-10.158
					c0.337-0.436,0.968-0.516,1.402-0.178c0.437,0.338,0.517,0.966,0.178,1.403l-7.871,10.158
					C49.219,96.765,48.923,96.898,48.624,96.898z"/>
			</g>
			<g>
				<path d="M79.374,96.898c-0.299,0-0.595-0.133-0.792-0.388l-7.859-10.158c-0.338-0.437-0.258-1.065,0.179-1.403
					c0.438-0.337,1.064-0.259,1.403,0.179l7.859,10.158c0.338,0.437,0.258,1.065-0.179,1.403
					C79.803,96.83,79.588,96.898,79.374,96.898z"/>
			</g>
		</g>
		<g>
			<path d="M85.463,97.611H42.547c-0.553,0-1-0.448-1-1s0.447-1,1-1h42.916c0.553,0,1,0.448,1,1S86.016,97.611,85.463,97.611z"/>
		</g>
	</g>
</g>
</svg>
