<?xml version="1.0" encoding="utf-8"?>
<!-- Generator: Adobe Illustrator 16.0.0, SVG Export Plug-In . SVG Version: 6.00 Build 0)  -->
<!DOCTYPE svg PUBLIC "-//W3C//DTD SVG 1.1//EN" "http://www.w3.org/Graphics/SVG/1.1/DTD/svg11.dtd">
<svg version="1.1" id="Layer_1" xmlns="http://www.w3.org/2000/svg" xmlns:xlink="http://www.w3.org/1999/xlink" x="0px" y="0px"
	 width="128px" height="128px" viewBox="0 0 128 128" enable-background="new 0 0 128 128" xml:space="preserve">
<g>
	<g>
		<path d="M70.797,70.934H57.193c-0.553,0-1-0.448-1-1V43.819c0-0.552,0.447-1,1-1h13.604c0.553,0,1,0.448,1,1v26.114
			C71.797,70.486,71.35,70.934,70.797,70.934z M58.193,68.934h11.604V44.819H58.193V68.934z"/>
	</g>
	<g>
		<path d="M74.871,76.519H53.123c-0.553,0-1-0.448-1-1V38.575c0-0.552,0.447-1,1-1h5.426V35.58c0-0.552,0.447-1,1-1h8.984
			c0.553,0,1,0.448,1,1v1.995h5.338c0.553,0,1,0.448,1,1v36.943C75.871,76.071,75.424,76.519,74.871,76.519z M54.123,74.519h19.748
			V39.575h-5.338c-0.553,0-1-0.448-1-1V36.58h-6.984v1.995c0,0.552-0.447,1-1,1h-5.426V74.519z"/>
	</g>
	<g>
		<polyline points="67.799,55.562 67.799,66.829 60.205,66.829 60.205,55.562 		"/>
	</g>
	<g>
		<circle cx="64.002" cy="99.854" r="2.672"/>
	</g>
	<g>
		<path d="M81.709,107.973H46.291c-2.206,0-4-1.794-4-4V24.03c0-2.206,1.794-4,4-4h35.418c2.206,0,4,1.794,4,4v79.942
			C85.709,106.178,83.915,107.973,81.709,107.973z M46.291,22.03c-1.103,0-2,0.897-2,2v79.942c0,1.103,0.897,2,2,2h35.418
			c1.103,0,2-0.897,2-2V24.03c0-1.103-0.897-2-2-2H46.291z"/>
	</g>
	<g>
		<path d="M84.111,92.27H43.889c-0.553,0-1-0.448-1-1s0.447-1,1-1h40.223c0.553,0,1,0.448,1,1S84.664,92.27,84.111,92.27z"/>
	</g>
</g>
</svg>
