<?xml version="1.0" encoding="utf-8"?>
<!-- Generator: Adobe Illustrator 16.0.0, SVG Export Plug-In . SVG Version: 6.00 Build 0)  -->
<!DOCTYPE svg PUBLIC "-//W3C//DTD SVG 1.1//EN" "http://www.w3.org/Graphics/SVG/1.1/DTD/svg11.dtd">
<svg version="1.1" id="Layer_1" xmlns="http://www.w3.org/2000/svg" xmlns:xlink="http://www.w3.org/1999/xlink" x="0px" y="0px"
	 width="128px" height="128px" viewBox="0 0 128 128" enable-background="new 0 0 128 128" xml:space="preserve">
<g>
	<g>
		<path d="M95.932,115.068H32.15c-2.206,0-4-1.794-4-4V19.27c0-2.206,1.794-4,4-4h63.781c2.206,0,4,1.794,4,4v91.799
			C99.932,113.274,98.137,115.068,95.932,115.068z M32.15,17.27c-1.103,0-2,0.897-2,2v91.799c0,1.103,0.897,2,2,2h63.781
			c1.103,0,2-0.897,2-2V19.27c0-1.103-0.897-2-2-2H32.15z"/>
	</g>
	<g>
		<path d="M66.596,106.405c0,1.411-1.144,2.557-2.557,2.557c-1.407,0-2.553-1.146-2.553-2.557s1.146-2.554,2.553-2.554
			C65.452,103.852,66.596,104.994,66.596,106.405z"/>
	</g>
	<g>
		<path d="M98.401,98.101H29.681c-0.552,0-1-0.448-1-1s0.448-1,1-1h68.721c0.552,0,1,0.448,1,1S98.954,98.101,98.401,98.101z"/>
	</g>
</g>
</svg>
