<?xml version="1.0" encoding="utf-8"?>
<!-- Generator: Adobe Illustrator 16.0.0, SVG Export Plug-In . SVG Version: 6.00 Build 0)  -->
<!DOCTYPE svg PUBLIC "-//W3C//DTD SVG 1.1//EN" "http://www.w3.org/Graphics/SVG/1.1/DTD/svg11.dtd">
<svg version="1.1" id="Layer_1" xmlns="http://www.w3.org/2000/svg" xmlns:xlink="http://www.w3.org/1999/xlink" x="0px" y="0px"
	 width="128px" height="128px" viewBox="0 0 128 128" enable-background="new 0 0 128 128" xml:space="preserve">
<g>
	<g>
		<path d="M103.318,89.979H24.764c-2.206,0-4-1.794-4-4V32.485c0-2.206,1.794-4,4-4h78.555c2.206,0,4,1.794,4,4v53.493
			C107.318,88.184,105.524,89.979,103.318,89.979z M24.764,30.485c-1.103,0-2,0.897-2,2v53.493c0,1.103,0.897,2,2,2h78.555
			c1.103,0,2-0.897,2-2V32.485c0-1.103-0.897-2-2-2H24.764z"/>
	</g>
	<g>
		<path d="M106.318,83.384H21.764c-0.552,0-1-0.448-1-1s0.448-1,1-1h84.555c0.552,0,1,0.448,1,1S106.871,83.384,106.318,83.384z"/>
	</g>
	<g>
		<g>
			<path d="M47.218,101.069c-0.214,0-0.43-0.068-0.612-0.209c-0.437-0.338-0.517-0.966-0.178-1.403l8.606-11.11
				c0.338-0.437,0.968-0.516,1.403-0.178c0.437,0.338,0.517,0.966,0.178,1.403l-8.606,11.11
				C47.812,100.936,47.516,101.069,47.218,101.069z"/>
		</g>
		<g>
			<path d="M80.867,101.069c-0.298,0-0.594-0.133-0.791-0.388l-8.608-11.11c-0.338-0.437-0.258-1.064,0.178-1.403
				c0.435-0.338,1.064-0.259,1.403,0.178l8.608,11.11c0.338,0.437,0.258,1.064-0.178,1.403
				C81.297,101.001,81.082,101.069,80.867,101.069z"/>
		</g>
	</g>
	<g>
		<path d="M87.518,101.854H40.564c-0.552,0-1-0.448-1-1s0.448-1,1-1h46.954c0.552,0,1,0.448,1,1S88.07,101.854,87.518,101.854z"/>
	</g>
</g>
</svg>
