<?xml version="1.0" encoding="utf-8"?>
<!-- Generator: Adobe Illustrator 16.0.0, SVG Export Plug-In . SVG Version: 6.00 Build 0)  -->
<!DOCTYPE svg PUBLIC "-//W3C//DTD SVG 1.1//EN" "http://www.w3.org/Graphics/SVG/1.1/DTD/svg11.dtd">
<svg version="1.1" id="Layer_1" xmlns="http://www.w3.org/2000/svg" xmlns:xlink="http://www.w3.org/1999/xlink" x="0px" y="0px"
	 width="128px" height="128px" viewBox="0 0 128 128" enable-background="new 0 0 128 128" xml:space="preserve">
<g>
	<g>
		<path d="M66.595,103.899c0,1.412-1.146,2.559-2.554,2.559c-1.411,0-2.557-1.146-2.557-2.559c0-1.407,1.146-2.553,2.557-2.553
			C65.449,101.347,66.595,102.492,66.595,103.899z"/>
	</g>
	<g>
		<path d="M83.702,113.192H44.38c-2.206,0-4-1.794-4-4V21.146c0-2.206,1.794-4,4-4h39.321c2.206,0,4,1.794,4,4v88.047
			C87.702,111.398,85.907,113.192,83.702,113.192z M44.38,19.146c-1.103,0-2,0.897-2,2v88.047c0,1.103,0.897,2,2,2h39.321
			c1.103,0,2-0.897,2-2V21.146c0-1.103-0.897-2-2-2H44.38z"/>
	</g>
	<g>
		<path d="M86.05,96.012H42.03c-0.552,0-1-0.448-1-1s0.448-1,1-1h44.02c0.552,0,1,0.448,1,1S86.602,96.012,86.05,96.012z"/>
	</g>
</g>
</svg>
